<?xml version="1.0" encoding="utf-8" standalone="no"?>
<!DOCTYPE svg PUBLIC "-//W3C//DTD SVG 1.1//EN"
  "http://www.w3.org/Graphics/SVG/1.1/DTD/svg11.dtd">
<svg xmlns:xlink="http://www.w3.org/1999/xlink" width="373.854188pt" height="220.580083pt" viewBox="0 0 373.854188 220.580083" xmlns="http://www.w3.org/2000/svg" version="1.1">
 <metadata>
  <rdf:RDF xmlns:dc="http://purl.org/dc/elements/1.1/" xmlns:cc="http://creativecommons.org/ns#" xmlns:rdf="http://www.w3.org/1999/02/22-rdf-syntax-ns#">
   <cc:Work>
    <dc:type rdf:resource="http://purl.org/dc/dcmitype/StillImage"/>
    <dc:date>2024-05-14T17:46:03.015209</dc:date>
    <dc:format>image/svg+xml</dc:format>
    <dc:creator>
     <cc:Agent>
      <dc:title>Matplotlib v3.7.3, https://matplotlib.org/</dc:title>
     </cc:Agent>
    </dc:creator>
   </cc:Work>
  </rdf:RDF>
 </metadata>
 <defs>
  <style type="text/css">*{stroke-linejoin: round; stroke-linecap: butt}</style>
 </defs>
 <g id="figure_1">
  <g id="patch_1">
   <path d="M 0 220.580083 
L 373.854188 220.580083 
L 373.854188 0 
L 0 0 
z
" style="fill: #ffffff"/>
  </g>
  <g id="axes_1">
   <g id="patch_2">
    <path d="M 39.054188 179.79198 
L 204.796762 179.79198 
L 204.796762 13.47198 
L 39.054188 13.47198 
z
" style="fill: #ffffff"/>
   </g>
   <g id="PolyCollection_1">
    <defs>
     <path id="m6d10c79edc" d="M 142.643297 -48.348103 
L 101.207653 -48.348103 
L 101.207653 -199.548103 
L 142.643297 -199.548103 
L 142.643297 -199.548103 
L 142.643297 -48.348103 
z
" style="stroke: #808080; stroke-opacity: 0.15"/>
    </defs>
    <g clip-path="url(#p9d226d0b06)">
     <use xlink:href="#m6d10c79edc" x="0" y="220.580083" style="fill: #808080; fill-opacity: 0.15; stroke: #808080; stroke-opacity: 0.15"/>
    </g>
   </g>
   <g id="matplotlib.axis_1">
    <g id="xtick_1">
     <g id="line2d_1">
      <defs>
       <path id="mf689a62fb4" d="M 0 0 
L 0 -3.5 
" style="stroke: #000000; stroke-width: 0.8"/>
      </defs>
      <g>
       <use xlink:href="#mf689a62fb4" x="59.772009" y="179.79198" style="stroke: #000000; stroke-width: 0.8"/>
      </g>
     </g>
     <g id="text_1">
      <!-- $\mathdefault{−0.15}$ -->
      <g transform="translate(44.717449 191.809964) scale(0.12 -0.12)">
       <defs>
        <path id="CMSY10-0" d="M 4218 1472 
C 4326 1472 4442 1472 4442 1600 
C 4442 1728 4326 1728 4218 1728 
L 755 1728 
C 646 1728 531 1728 531 1600 
C 531 1472 646 1472 755 1472 
L 4218 1472 
z
" transform="scale(0.015625)"/>
        <path id="CMR17-30" d="M 2688 2038 
C 2688 2430 2682 3099 2413 3613 
C 2176 4063 1798 4224 1466 4224 
C 1158 4224 768 4082 525 3620 
C 269 3137 243 2539 243 2038 
C 243 1671 250 1112 448 623 
C 723 -39 1216 -128 1466 -128 
C 1760 -128 2208 -7 2470 604 
C 2662 1048 2688 1568 2688 2038 
z
M 1466 -26 
C 1056 -26 813 328 723 816 
C 653 1196 653 1749 653 2109 
C 653 2604 653 3015 736 3407 
C 858 3954 1216 4121 1466 4121 
C 1728 4121 2067 3947 2189 3420 
C 2272 3054 2278 2623 2278 2109 
C 2278 1691 2278 1176 2202 797 
C 2067 96 1690 -26 1466 -26 
z
" transform="scale(0.015625)"/>
        <path id="CMMI12-3a" d="M 1178 307 
C 1178 492 1024 620 870 620 
C 685 620 557 467 557 313 
C 557 128 710 0 864 0 
C 1050 0 1178 153 1178 307 
z
" transform="scale(0.015625)"/>
        <path id="CMR17-31" d="M 1702 4083 
C 1702 4217 1696 4224 1606 4224 
C 1357 3927 979 3833 621 3820 
C 602 3820 570 3820 563 3808 
C 557 3795 557 3782 557 3648 
C 755 3648 1088 3686 1344 3839 
L 1344 467 
C 1344 243 1331 166 781 166 
L 589 166 
L 589 0 
C 896 6 1216 12 1523 12 
C 1830 12 2150 6 2458 0 
L 2458 166 
L 2266 166 
C 1715 166 1702 236 1702 467 
L 1702 4083 
z
" transform="scale(0.015625)"/>
        <path id="CMR17-35" d="M 730 3750 
C 794 3724 1056 3641 1325 3641 
C 1920 3641 2246 3961 2432 4140 
C 2432 4191 2432 4224 2394 4224 
C 2387 4224 2374 4224 2323 4198 
C 2099 4102 1837 4032 1517 4032 
C 1325 4032 1037 4055 723 4191 
C 653 4224 640 4224 634 4224 
C 602 4224 595 4217 595 4090 
L 595 2231 
C 595 2113 595 2080 659 2080 
C 691 2080 704 2093 736 2139 
C 941 2435 1222 2560 1542 2560 
C 1766 2560 2246 2415 2246 1293 
C 2246 1087 2246 716 2054 422 
C 1894 159 1645 25 1370 25 
C 947 25 518 319 403 812 
C 429 806 480 793 506 793 
C 589 793 749 838 749 1036 
C 749 1209 627 1280 506 1280 
C 358 1280 262 1190 262 1011 
C 262 454 704 -128 1382 -128 
C 2042 -128 2669 441 2669 1267 
C 2669 2054 2170 2662 1549 2662 
C 1222 2662 947 2540 730 2304 
L 730 3750 
z
" transform="scale(0.015625)"/>
       </defs>
       <use xlink:href="#CMSY10-0" transform="scale(0.996264)"/>
       <use xlink:href="#CMR17-30" transform="translate(77.487468 0) scale(0.996264)"/>
       <use xlink:href="#CMMI12-3a" transform="translate(123.177945 0) scale(0.996264)"/>
       <use xlink:href="#CMR17-31" transform="translate(150.275122 0) scale(0.996264)"/>
       <use xlink:href="#CMR17-35" transform="translate(195.965599 0) scale(0.996264)"/>
      </g>
     </g>
    </g>
    <g id="xtick_2">
     <g id="line2d_2">
      <g>
       <use xlink:href="#mf689a62fb4" x="101.207653" y="179.79198" style="stroke: #000000; stroke-width: 0.8"/>
      </g>
     </g>
     <g id="text_2">
      <!-- $\mathdefault{−0.05}$ -->
      <g transform="translate(86.153092 191.809964) scale(0.12 -0.12)">
       <use xlink:href="#CMSY10-0" transform="scale(0.996264)"/>
       <use xlink:href="#CMR17-30" transform="translate(77.487468 0) scale(0.996264)"/>
       <use xlink:href="#CMMI12-3a" transform="translate(123.177945 0) scale(0.996264)"/>
       <use xlink:href="#CMR17-30" transform="translate(150.275122 0) scale(0.996264)"/>
       <use xlink:href="#CMR17-35" transform="translate(195.965599 0) scale(0.996264)"/>
      </g>
     </g>
    </g>
    <g id="xtick_3">
     <g id="line2d_3">
      <g>
       <use xlink:href="#mf689a62fb4" x="142.643297" y="179.79198" style="stroke: #000000; stroke-width: 0.8"/>
      </g>
     </g>
     <g id="text_3">
      <!-- $\mathdefault{0.05}$ -->
      <g transform="translate(132.237981 191.809964) scale(0.12 -0.12)">
       <use xlink:href="#CMR17-30" transform="scale(0.996264)"/>
       <use xlink:href="#CMMI12-3a" transform="translate(45.690477 0) scale(0.996264)"/>
       <use xlink:href="#CMR17-30" transform="translate(72.787654 0) scale(0.996264)"/>
       <use xlink:href="#CMR17-35" transform="translate(118.478131 0) scale(0.996264)"/>
      </g>
     </g>
    </g>
    <g id="xtick_4">
     <g id="line2d_4">
      <g>
       <use xlink:href="#mf689a62fb4" x="184.07894" y="179.79198" style="stroke: #000000; stroke-width: 0.8"/>
      </g>
     </g>
     <g id="text_4">
      <!-- $\mathdefault{0.15}$ -->
      <g transform="translate(173.673624 191.809964) scale(0.12 -0.12)">
       <use xlink:href="#CMR17-30" transform="scale(0.996264)"/>
       <use xlink:href="#CMMI12-3a" transform="translate(45.690477 0) scale(0.996264)"/>
       <use xlink:href="#CMR17-31" transform="translate(72.787654 0) scale(0.996264)"/>
       <use xlink:href="#CMR17-35" transform="translate(118.478131 0) scale(0.996264)"/>
      </g>
     </g>
    </g>
    <g id="text_5">
     <!-- $\frac{4\Delta_h}{\omega}$ -->
     <g transform="translate(110.8273 214.396135) scale(0.18 -0.18)">
      <defs>
       <path id="CMR17-34" d="M 2150 4147 
C 2150 4281 2144 4288 2029 4288 
L 128 1254 
L 128 1088 
L 1779 1088 
L 1779 460 
C 1779 230 1766 166 1318 166 
L 1197 166 
L 1197 0 
C 1402 12 1747 12 1965 12 
C 2182 12 2528 12 2733 0 
L 2733 166 
L 2611 166 
C 2163 166 2150 230 2150 460 
L 2150 1088 
L 2803 1088 
L 2803 1254 
L 2150 1254 
L 2150 4147 
z
M 1798 3723 
L 1798 1254 
L 256 1254 
L 1798 3723 
z
" transform="scale(0.015625)"/>
       <path id="CMR17-1" d="M 2598 4435 
C 2547 4544 2522 4544 2470 4544 
C 2394 4544 2387 4531 2342 4441 
L 269 108 
C 262 96 237 38 237 32 
C 237 6 243 0 358 0 
L 4576 0 
C 4691 0 4698 6 4698 32 
C 4698 38 4672 96 4666 108 
L 2598 4435 
z
M 2310 4056 
L 4083 358 
L 531 358 
L 2310 4056 
z
" transform="scale(0.015625)"/>
       <path id="CMMI12-68" d="M 1798 4255 
C 1805 4281 1818 4319 1818 4351 
C 1818 4416 1754 4416 1741 4416 
C 1734 4416 1421 4390 1389 4383 
C 1280 4377 1184 4364 1069 4358 
C 909 4345 864 4339 864 4223 
C 864 4159 915 4159 1005 4159 
C 1318 4159 1325 4103 1325 4040 
C 1325 4002 1312 3951 1306 3932 
L 378 249 
C 352 153 352 140 352 102 
C 352 -39 461 -64 525 -64 
C 634 -64 717 19 749 89 
L 1037 1245 
C 1069 1385 1107 1519 1139 1660 
C 1210 1928 1210 1934 1331 2119 
C 1453 2305 1741 2687 2234 2687 
C 2490 2687 2579 2496 2579 2241 
C 2579 1883 2330 1187 2189 804 
C 2131 651 2099 568 2099 453 
C 2099 166 2298 -64 2605 -64 
C 3200 -64 3424 874 3424 913 
C 3424 945 3398 970 3360 970 
C 3302 970 3296 951 3264 842 
C 3117 332 2880 64 2624 64 
C 2560 64 2458 70 2458 274 
C 2458 440 2534 645 2560 715 
C 2675 1021 2963 1775 2963 2145 
C 2963 2528 2739 2816 2253 2816 
C 1888 2816 1568 2643 1306 2311 
L 1798 4255 
z
" transform="scale(0.015625)"/>
       <path id="CMMI12-21" d="M 3802 2406 
C 3802 2592 3750 2828 3526 2828 
C 3398 2828 3251 2668 3251 2540 
C 3251 2483 3277 2444 3328 2387 
C 3424 2278 3546 2105 3546 1804 
C 3546 1574 3405 1209 3302 1011 
C 3123 659 2829 358 2496 358 
C 2093 358 1939 614 1869 972 
C 1939 1139 2086 1555 2086 1721 
C 2086 1792 2061 1849 1978 1849 
C 1933 1849 1882 1824 1850 1772 
C 1760 1632 1677 1126 1683 992 
C 1562 755 1216 358 806 358 
C 378 358 262 736 262 1100 
C 262 1766 678 2348 794 2508 
C 858 2604 902 2668 902 2681 
C 902 2726 877 2796 819 2796 
C 717 2796 685 2713 634 2636 
C 307 2131 77 1420 77 806 
C 77 409 224 -64 704 -64 
C 1235 -64 1568 390 1702 633 
C 1754 275 1946 -64 2413 -64 
C 2899 -64 3206 364 3437 883 
C 3603 1254 3802 2054 3802 2406 
z
" transform="scale(0.015625)"/>
      </defs>
      <use xlink:href="#CMR17-34" transform="translate(0 41.455595) scale(0.697382)"/>
      <use xlink:href="#CMR17-1" transform="translate(31.983182 41.455595) scale(0.697382)"/>
      <use xlink:href="#CMMI12-68" transform="translate(85.826649 30.884032) scale(0.498132)"/>
      <use xlink:href="#CMMI12-21" transform="translate(34.689738 -34.355253) scale(0.697382)"/>
      <path d="M 0 22.914133 
L 114.402093 22.914133 
L 114.402093 26.899083 
L 0 26.899083 
L 0 22.914133 
z
"/>
     </g>
    </g>
   </g>
   <g id="matplotlib.axis_2">
    <g id="ytick_1">
     <g id="line2d_5">
      <defs>
       <path id="m20b3af42c0" d="M 0 0 
L 3.5 0 
" style="stroke: #000000; stroke-width: 0.8"/>
      </defs>
      <g>
       <use xlink:href="#m20b3af42c0" x="39.054188" y="172.23198" style="stroke: #000000; stroke-width: 0.8"/>
      </g>
     </g>
     <g id="text_6">
      <!-- $\mathdefault{0.0}$ -->
      <g transform="translate(20.596546 176.490972) scale(0.12 -0.12)">
       <use xlink:href="#CMR17-30" transform="scale(0.996264)"/>
       <use xlink:href="#CMMI12-3a" transform="translate(45.690477 0) scale(0.996264)"/>
       <use xlink:href="#CMR17-30" transform="translate(72.787654 0) scale(0.996264)"/>
      </g>
     </g>
    </g>
    <g id="ytick_2">
     <g id="line2d_6">
      <g>
       <use xlink:href="#m20b3af42c0" x="39.054188" y="141.99198" style="stroke: #000000; stroke-width: 0.8"/>
      </g>
     </g>
     <g id="text_7">
      <!-- $\mathdefault{0.2}$ -->
      <g transform="translate(20.596546 146.250972) scale(0.12 -0.12)">
       <defs>
        <path id="CMR17-32" d="M 2669 990 
L 2554 990 
C 2490 537 2438 460 2413 422 
C 2381 371 1920 371 1830 371 
L 602 371 
C 832 620 1280 1073 1824 1596 
C 2214 1966 2669 2400 2669 3033 
C 2669 3788 2067 4224 1395 4224 
C 691 4224 262 3603 262 3027 
C 262 2777 448 2745 525 2745 
C 589 2745 781 2783 781 3007 
C 781 3206 614 3264 525 3264 
C 486 3264 448 3257 422 3244 
C 544 3788 915 4057 1306 4057 
C 1862 4057 2227 3616 2227 3033 
C 2227 2477 1901 1998 1536 1583 
L 262 147 
L 262 0 
L 2515 0 
L 2669 990 
z
" transform="scale(0.015625)"/>
       </defs>
       <use xlink:href="#CMR17-30" transform="scale(0.996264)"/>
       <use xlink:href="#CMMI12-3a" transform="translate(45.690477 0) scale(0.996264)"/>
       <use xlink:href="#CMR17-32" transform="translate(72.787654 0) scale(0.996264)"/>
      </g>
     </g>
    </g>
    <g id="ytick_3">
     <g id="line2d_7">
      <g>
       <use xlink:href="#m20b3af42c0" x="39.054188" y="111.75198" style="stroke: #000000; stroke-width: 0.8"/>
      </g>
     </g>
     <g id="text_8">
      <!-- $\mathdefault{0.4}$ -->
      <g transform="translate(20.596546 116.010972) scale(0.12 -0.12)">
       <use xlink:href="#CMR17-30" transform="scale(0.996264)"/>
       <use xlink:href="#CMMI12-3a" transform="translate(45.690477 0) scale(0.996264)"/>
       <use xlink:href="#CMR17-34" transform="translate(72.787654 0) scale(0.996264)"/>
      </g>
     </g>
    </g>
    <g id="ytick_4">
     <g id="line2d_8">
      <g>
       <use xlink:href="#m20b3af42c0" x="39.054188" y="81.51198" style="stroke: #000000; stroke-width: 0.8"/>
      </g>
     </g>
     <g id="text_9">
      <!-- $\mathdefault{0.6}$ -->
      <g transform="translate(20.596546 85.770972) scale(0.12 -0.12)">
       <defs>
        <path id="CMR17-36" d="M 678 2198 
C 678 3712 1395 4076 1811 4076 
C 1946 4076 2272 4049 2400 3782 
C 2298 3782 2106 3782 2106 3558 
C 2106 3385 2246 3328 2336 3328 
C 2394 3328 2566 3353 2566 3571 
C 2566 3987 2246 4224 1805 4224 
C 1043 4224 243 3411 243 2011 
C 243 257 966 -128 1478 -128 
C 2099 -128 2688 431 2688 1295 
C 2688 2101 2170 2688 1517 2688 
C 1126 2688 838 2430 678 1979 
L 678 2198 
z
M 1478 25 
C 691 25 691 1212 691 1450 
C 691 1914 909 2585 1504 2585 
C 1613 2585 1926 2585 2138 2140 
C 2253 1889 2253 1624 2253 1302 
C 2253 954 2253 696 2118 438 
C 1978 173 1773 25 1478 25 
z
" transform="scale(0.015625)"/>
       </defs>
       <use xlink:href="#CMR17-30" transform="scale(0.996264)"/>
       <use xlink:href="#CMMI12-3a" transform="translate(45.690477 0) scale(0.996264)"/>
       <use xlink:href="#CMR17-36" transform="translate(72.787654 0) scale(0.996264)"/>
      </g>
     </g>
    </g>
    <g id="ytick_5">
     <g id="line2d_9">
      <g>
       <use xlink:href="#m20b3af42c0" x="39.054188" y="51.27198" style="stroke: #000000; stroke-width: 0.8"/>
      </g>
     </g>
     <g id="text_10">
      <!-- $\mathdefault{0.8}$ -->
      <g transform="translate(20.596546 55.530972) scale(0.12 -0.12)">
       <defs>
        <path id="CMR17-38" d="M 1741 2289 
C 2144 2494 2554 2803 2554 3298 
C 2554 3884 1990 4224 1472 4224 
C 890 4224 378 3800 378 3215 
C 378 3054 416 2777 666 2533 
C 730 2469 998 2276 1171 2154 
C 883 2006 211 1652 211 945 
C 211 282 838 -128 1459 -128 
C 2144 -128 2720 366 2720 1022 
C 2720 1607 2330 1877 2074 2051 
L 1741 2289 
z
M 902 2855 
C 851 2887 595 3086 595 3388 
C 595 3781 998 4076 1459 4076 
C 1965 4076 2336 3716 2336 3298 
C 2336 2700 1670 2359 1638 2359 
C 1632 2359 1626 2359 1574 2398 
L 902 2855 
z
M 2080 1536 
C 2176 1466 2483 1253 2483 861 
C 2483 385 2010 25 1472 25 
C 890 25 448 443 448 951 
C 448 1459 838 1884 1280 2083 
L 2080 1536 
z
" transform="scale(0.015625)"/>
       </defs>
       <use xlink:href="#CMR17-30" transform="scale(0.996264)"/>
       <use xlink:href="#CMMI12-3a" transform="translate(45.690477 0) scale(0.996264)"/>
       <use xlink:href="#CMR17-38" transform="translate(72.787654 0) scale(0.996264)"/>
      </g>
     </g>
    </g>
    <g id="ytick_6">
     <g id="line2d_10">
      <g>
       <use xlink:href="#m20b3af42c0" x="39.054188" y="21.03198" style="stroke: #000000; stroke-width: 0.8"/>
      </g>
     </g>
     <g id="text_11">
      <!-- $\mathdefault{1.0}$ -->
      <g transform="translate(20.596546 25.290972) scale(0.12 -0.12)">
       <use xlink:href="#CMR17-31" transform="scale(0.996264)"/>
       <use xlink:href="#CMMI12-3a" transform="translate(45.690477 0) scale(0.996264)"/>
       <use xlink:href="#CMR17-30" transform="translate(72.787654 0) scale(0.996264)"/>
      </g>
     </g>
    </g>
    <g id="text_12">
     <!-- $F_n$ -->
     <g transform="translate(12.776976 105.98379) rotate(-90) scale(0.18 -0.18)">
      <defs>
       <path id="CMMI12-46" d="M 1901 2054 
L 2515 2054 
C 3002 2054 3040 1947 3040 1764 
C 3040 1683 3027 1595 2995 1456 
C 2982 1431 2976 1399 2976 1387 
C 2976 1343 3002 1318 3046 1318 
C 3098 1318 3104 1343 3130 1444 
L 3501 2929 
C 3501 2955 3482 2993 3437 2993 
C 3379 2993 3373 2968 3347 2858 
C 3213 2375 3085 2240 2528 2240 
L 1946 2240 
L 2362 3908 
C 2419 4134 2432 4153 2694 4153 
L 3552 4153 
C 4352 4153 4467 3915 4467 3457 
C 4467 3419 4467 3277 4448 3109 
C 4442 3084 4429 3000 4429 2974 
C 4429 2922 4461 2903 4499 2903 
C 4544 2903 4570 2929 4582 3045 
L 4717 4172 
C 4717 4191 4730 4255 4730 4268 
C 4730 4339 4672 4339 4557 4339 
L 1523 4339 
C 1402 4339 1338 4339 1338 4223 
C 1338 4153 1382 4153 1491 4153 
C 1888 4153 1888 4108 1888 4037 
C 1888 4005 1882 3979 1862 3908 
L 998 468 
C 941 248 928 185 480 185 
C 358 185 294 185 294 70 
C 294 0 352 0 390 0 
C 512 0 640 12 762 12 
L 1594 12 
C 1734 12 1888 0 2029 0 
C 2086 0 2163 0 2163 115 
C 2163 185 2125 185 1984 185 
C 1478 185 1466 229 1466 324 
C 1466 355 1478 405 1491 449 
L 1901 2054 
z
" transform="scale(0.015625)"/>
       <path id="CMMI12-6e" d="M 1318 1870 
C 1331 1909 1491 2228 1728 2432 
C 1894 2585 2112 2687 2362 2687 
C 2618 2687 2707 2496 2707 2241 
C 2707 1877 2445 1149 2317 804 
C 2259 651 2227 568 2227 453 
C 2227 166 2426 -64 2733 -64 
C 3328 -64 3552 874 3552 913 
C 3552 945 3526 970 3488 970 
C 3430 970 3424 951 3392 842 
C 3245 319 3002 64 2752 64 
C 2688 64 2586 70 2586 274 
C 2586 434 2656 625 2694 715 
C 2822 1066 3091 1781 3091 2145 
C 3091 2528 2867 2816 2381 2816 
C 1811 2816 1510 2413 1395 2253 
C 1376 2617 1114 2816 832 2816 
C 627 2816 486 2694 378 2477 
C 262 2247 173 1864 173 1838 
C 173 1813 198 1781 243 1781 
C 294 1781 301 1787 339 1934 
C 442 2324 557 2687 813 2687 
C 960 2687 1011 2585 1011 2394 
C 1011 2253 947 2004 902 1807 
L 723 1117 
C 698 996 627 708 595 593 
C 550 427 480 127 480 95 
C 480 6 550 -64 646 -64 
C 723 -64 813 -26 864 70 
C 877 102 934 325 966 453 
L 1107 1028 
L 1318 1870 
z
" transform="scale(0.015625)"/>
      </defs>
      <use xlink:href="#CMMI12-46" transform="scale(0.996264)"/>
      <use xlink:href="#CMMI12-6e" transform="translate(63.148204 -14.943915) scale(0.697382)"/>
     </g>
    </g>
   </g>
   <g id="line2d_11">
    <path d="M -1 94.289291 
L 30.767059 69.051891 
L 39.054188 72.327264 
L 59.772009 54.967608 
L 80.489831 45.226479 
L 101.207653 40.065944 
L 121.925475 31.355938 
L 121.925475 31.355938 
L 142.643297 23.783968 
L 163.361118 31.318838 
L 184.07894 63.230007 
L 204.796762 77.973146 
L 213.083891 55.870198 
L 336.009633 129.816336 
L 374.854188 122.291104 
" clip-path="url(#p9d226d0b06)" style="fill: none; stroke: #1f77b4; stroke-width: 1.5; stroke-linecap: square"/>
   </g>
   <g id="line2d_12">
    <path d="M -1 89.89529 
L 30.767059 62.015502 
L 39.054188 62.007063 
L 59.772009 47.189375 
L 80.489831 44.034448 
L 101.207653 38.612444 
L 121.925475 27.193462 
L 121.925475 27.193462 
L 142.643297 26.605375 
L 163.361118 46.940985 
L 184.07894 81.074731 
L 204.796762 106.673672 
L 213.083891 98.710823 
L 336.009633 135.891291 
L 374.854188 128.318905 
" clip-path="url(#p9d226d0b06)" style="fill: none; stroke: #ff7f0e; stroke-width: 1.5; stroke-linecap: square"/>
   </g>
   <g id="line2d_13">
    <path d="M -1 88.959643 
L 30.767059 61.855236 
L 39.054188 31.13384 
L 59.772009 47.67399 
L 80.489831 44.760046 
L 101.207653 30.358836 
L 121.925475 27.915737 
L 121.925475 27.915737 
L 142.643297 40.354072 
L 163.361118 56.243698 
L 184.07894 105.051536 
L 204.796762 109.308115 
L 213.083891 119.518001 
L 336.009633 132.020901 
L 374.854188 129.531089 
" clip-path="url(#p9d226d0b06)" style="fill: none; stroke: #2ca02c; stroke-width: 1.5; stroke-linecap: square"/>
   </g>
   <g id="line2d_14">
    <path d="M 121.925475 179.79198 
L 121.925475 13.47198 
" clip-path="url(#p9d226d0b06)" style="fill: none; stroke-dasharray: 5.55,2.4; stroke-dashoffset: 0; stroke: #000000; stroke-opacity: 0.4; stroke-width: 1.5"/>
   </g>
   <g id="patch_3">
    <path d="M 39.054188 179.79198 
L 39.054188 13.47198 
" style="fill: none; stroke: #000000; stroke-width: 0.8; stroke-linejoin: miter; stroke-linecap: square"/>
   </g>
   <g id="patch_4">
    <path d="M 204.796762 179.79198 
L 204.796762 13.47198 
" style="fill: none; stroke: #000000; stroke-width: 0.8; stroke-linejoin: miter; stroke-linecap: square"/>
   </g>
   <g id="patch_5">
    <path d="M 39.054188 179.79198 
L 204.796762 179.79198 
" style="fill: none; stroke: #000000; stroke-width: 0.8; stroke-linejoin: miter; stroke-linecap: square"/>
   </g>
   <g id="patch_6">
    <path d="M 39.054188 13.47198 
L 204.796762 13.47198 
" style="fill: none; stroke: #000000; stroke-width: 0.8; stroke-linejoin: miter; stroke-linecap: square"/>
   </g>
   <g id="text_13">
    <g id="patch_7">
     <path d="M 45.363099 36.07557 
L 72.525085 36.07557 
L 72.525085 13.03161 
L 45.363099 13.03161 
L 45.363099 36.07557 
z
" style="fill: none; opacity: 0"/>
    </g>
    <!-- $(a)$ -->
    <g transform="translate(49.413099 28.28958) scale(0.15 -0.15)">
     <defs>
      <path id="CMR17-28" d="M 1958 -1562 
C 1958 -1556 1958 -1543 1939 -1524 
C 1645 -1223 858 -403 858 1596 
C 858 3595 1632 4408 1946 4729 
C 1946 4735 1958 4748 1958 4767 
C 1958 4787 1939 4800 1914 4800 
C 1843 4800 1299 4325 986 3620 
C 666 2909 576 2218 576 1603 
C 576 1141 621 360 1005 -467 
C 1312 -1133 1837 -1600 1914 -1600 
C 1946 -1600 1958 -1588 1958 -1562 
z
" transform="scale(0.015625)"/>
      <path id="CMMI12-61" d="M 1926 759 
C 1894 651 1894 638 1805 517 
C 1664 338 1382 64 1082 64 
C 819 64 672 300 672 676 
C 672 1028 870 1743 992 2011 
C 1210 2458 1510 2687 1760 2687 
C 2182 2687 2266 2164 2266 2113 
C 2266 2107 2246 2024 2240 2011 
L 1926 759 
z
M 2336 2394 
C 2266 2560 2093 2816 1760 2816 
C 1037 2816 256 1883 256 938 
C 256 306 627 -64 1062 -64 
C 1414 -64 1715 210 1894 421 
C 1958 44 2259 -64 2451 -64 
C 2643 -64 2797 51 2912 280 
C 3014 496 3104 885 3104 910 
C 3104 942 3078 968 3040 968 
C 2982 968 2976 936 2950 840 
C 2854 465 2733 64 2470 64 
C 2285 64 2272 229 2272 356 
C 2272 503 2291 573 2349 821 
C 2394 980 2426 1120 2477 1305 
C 2714 2260 2771 2489 2771 2528 
C 2771 2617 2701 2688 2605 2688 
C 2400 2688 2349 2464 2336 2388 
L 2336 2394 
z
" transform="scale(0.015625)"/>
      <path id="CMR17-29" d="M 1683 1596 
C 1683 2057 1638 2839 1254 3665 
C 947 4332 422 4800 346 4800 
C 326 4800 301 4793 301 4761 
C 301 4748 307 4742 314 4729 
C 621 4408 1402 3595 1402 1603 
C 1402 -396 627 -1210 314 -1530 
C 307 -1543 301 -1549 301 -1562 
C 301 -1594 326 -1600 346 -1600 
C 416 -1600 960 -1127 1274 -422 
C 1594 289 1683 981 1683 1596 
z
" transform="scale(0.015625)"/>
     </defs>
     <use xlink:href="#CMR17-28" transform="scale(0.996264)"/>
     <use xlink:href="#CMMI12-61" transform="translate(35.280768 0) scale(0.996264)"/>
     <use xlink:href="#CMR17-29" transform="translate(86.488625 0) scale(0.996264)"/>
    </g>
   </g>
   <g id="text_14">
    <!-- $J_0 = 0.072/T$ -->
    <g transform="translate(93.538875 7.47198) scale(0.1 -0.1)">
     <defs>
      <path id="CMMI12-4a" d="M 3418 3911 
C 3469 4102 3482 4166 3795 4166 
C 3898 4166 3962 4166 3962 4281 
C 3962 4352 3904 4352 3878 4352 
C 3770 4352 3648 4339 3533 4339 
L 3181 4339 
C 2912 4339 2630 4352 2362 4352 
C 2304 4352 2227 4352 2227 4236 
C 2227 4172 2278 4172 2278 4166 
L 2438 4166 
C 2950 4166 2950 4115 2950 4019 
C 2950 4013 2950 3968 2925 3866 
L 2189 953 
C 2022 304 1594 0 1286 0 
C 1069 0 762 99 685 428 
C 710 422 742 415 768 415 
C 979 415 1146 601 1146 787 
C 1146 889 1082 1024 890 1024 
C 774 1024 506 959 506 543 
C 506 149 838 -128 1299 -128 
C 1882 -128 2509 304 2662 908 
L 3418 3911 
z
" transform="scale(0.015625)"/>
      <path id="CMR17-3d" d="M 4115 2048 
C 4211 2048 4307 2048 4307 2156 
C 4307 2272 4198 2272 4090 2272 
L 512 2272 
C 403 2272 294 2272 294 2156 
C 294 2048 390 2048 486 2048 
L 4115 2048 
z
M 4090 927 
C 4198 927 4307 927 4307 1043 
C 4307 1152 4211 1152 4115 1152 
L 486 1152 
C 390 1152 294 1152 294 1043 
C 294 927 403 927 512 927 
L 4090 927 
z
" transform="scale(0.015625)"/>
      <path id="CMR17-37" d="M 2886 3955 
L 2886 4096 
L 1382 4096 
C 634 4096 621 4166 595 4288 
L 480 4288 
L 294 3104 
L 410 3104 
C 429 3226 474 3552 550 3673 
C 589 3724 1062 3724 1171 3724 
L 2579 3724 
L 1869 2670 
C 1395 1961 1069 1003 1069 166 
C 1069 89 1069 -128 1299 -128 
C 1530 -128 1530 89 1530 172 
L 1530 466 
C 1530 1514 1709 2204 2003 2644 
L 2886 3955 
z
" transform="scale(0.015625)"/>
      <path id="CMMI12-3d" d="M 2746 4563 
C 2746 4569 2784 4665 2784 4678 
C 2784 4755 2720 4800 2669 4800 
C 2637 4800 2579 4800 2528 4659 
L 384 -1364 
C 384 -1370 346 -1466 346 -1479 
C 346 -1556 410 -1600 461 -1600 
C 499 -1600 557 -1594 602 -1460 
L 2746 4563 
z
" transform="scale(0.015625)"/>
      <path id="CMMI12-54" d="M 2669 3886 
C 2707 4038 2720 4096 2816 4121 
C 2867 4134 3078 4134 3213 4134 
C 3853 4134 4154 4109 4154 3612 
C 4154 3516 4128 3274 4090 3038 
L 4083 2962 
C 4083 2937 4109 2898 4147 2898 
C 4211 2898 4211 2930 4230 3032 
L 4416 4159 
C 4429 4217 4429 4230 4429 4249 
C 4429 4319 4390 4319 4262 4319 
L 762 4319 
C 614 4319 608 4313 570 4198 
L 179 3051 
C 173 3038 154 2968 154 2962 
C 154 2930 179 2898 218 2898 
C 269 2898 282 2924 307 3007 
C 576 3777 710 4134 1562 4134 
L 1990 4134 
C 2144 4134 2208 4134 2208 4064 
C 2208 4045 2208 4032 2176 3917 
L 1318 497 
C 1254 249 1242 185 563 185 
C 403 185 358 185 358 64 
C 358 0 429 0 461 0 
C 621 0 787 12 947 12 
L 1946 12 
C 2106 12 2278 0 2438 0 
C 2509 0 2573 0 2573 121 
C 2573 185 2528 185 2362 185 
C 1786 185 1786 242 1786 338 
C 1786 344 1786 389 1811 491 
L 2669 3886 
z
" transform="scale(0.015625)"/>
     </defs>
     <use xlink:href="#CMMI12-4a" transform="scale(0.996264)"/>
     <use xlink:href="#CMR17-30" transform="translate(53.917955 -14.943915) scale(0.697382)"/>
     <use xlink:href="#CMR17-3d" transform="translate(114.073278 0) scale(0.996264)"/>
     <use xlink:href="#CMR17-30" transform="translate(213.462075 0) scale(0.996264)"/>
     <use xlink:href="#CMMI12-3a" transform="translate(259.152552 0) scale(0.996264)"/>
     <use xlink:href="#CMR17-30" transform="translate(286.249729 0) scale(0.996264)"/>
     <use xlink:href="#CMR17-37" transform="translate(331.940207 0) scale(0.996264)"/>
     <use xlink:href="#CMR17-32" transform="translate(377.630684 0) scale(0.996264)"/>
     <use xlink:href="#CMMI12-3d" transform="translate(423.321161 0) scale(0.996264)"/>
     <use xlink:href="#CMMI12-54" transform="translate(472.09608 0) scale(0.996264)"/>
    </g>
   </g>
   <g id="legend_1">
    <g id="line2d_15">
     <path d="M 47.154188 141.035649 
L 56.154188 141.035649 
L 65.154188 141.035649 
" style="fill: none; stroke: #1f77b4; stroke-width: 1.5; stroke-linecap: square"/>
    </g>
    <g id="text_15">
     <!-- $N-6$ -->
     <g transform="translate(72.354188 144.185649) scale(0.09 -0.09)">
      <defs>
       <path id="CMMI12-4e" d="M 4736 3682 
C 4806 3956 4909 4147 5395 4166 
C 5414 4166 5491 4172 5491 4281 
C 5491 4352 5434 4352 5408 4352 
C 5280 4352 4954 4339 4826 4339 
L 4518 4339 
C 4429 4339 4314 4352 4224 4352 
C 4186 4352 4109 4352 4109 4230 
C 4109 4166 4160 4166 4205 4166 
C 4589 4153 4614 4007 4614 3892 
C 4614 3835 4608 3816 4589 3726 
L 3866 854 
L 2496 4243 
C 2451 4345 2445 4352 2304 4352 
L 1523 4352 
C 1395 4352 1338 4352 1338 4230 
C 1338 4166 1382 4166 1504 4166 
C 1536 4166 1914 4166 1914 4109 
C 1914 4096 1901 4045 1894 4026 
L 1043 650 
C 966 338 813 204 390 185 
C 358 185 294 179 294 64 
C 294 0 358 0 378 0 
C 506 0 832 12 960 12 
L 1267 12 
C 1357 12 1466 0 1555 0 
C 1600 0 1670 0 1670 121 
C 1670 179 1606 185 1581 185 
C 1370 191 1165 230 1165 459 
C 1165 510 1178 567 1190 618 
L 2054 4026 
C 2093 3962 2093 3949 2118 3892 
L 3642 115 
C 3674 38 3686 0 3744 0 
C 3808 0 3814 19 3840 128 
L 4736 3682 
z
" transform="scale(0.015625)"/>
      </defs>
      <use xlink:href="#CMMI12-4e" transform="scale(0.996264)"/>
      <use xlink:href="#CMSY10-0" transform="translate(110.66098 0) scale(0.996264)"/>
      <use xlink:href="#CMR17-36" transform="translate(210.287654 0) scale(0.996264)"/>
     </g>
    </g>
    <g id="line2d_16">
     <path d="M 47.154188 153.833922 
L 56.154188 153.833922 
L 65.154188 153.833922 
" style="fill: none; stroke: #ff7f0e; stroke-width: 1.5; stroke-linecap: square"/>
    </g>
    <g id="text_16">
     <!-- $N-8$ -->
     <g transform="translate(72.354188 156.983922) scale(0.09 -0.09)">
      <use xlink:href="#CMMI12-4e" transform="scale(0.996264)"/>
      <use xlink:href="#CMSY10-0" transform="translate(110.66098 0) scale(0.996264)"/>
      <use xlink:href="#CMR17-38" transform="translate(210.287654 0) scale(0.996264)"/>
     </g>
    </g>
    <g id="line2d_17">
     <path d="M 47.154188 166.632195 
L 56.154188 166.632195 
L 65.154188 166.632195 
" style="fill: none; stroke: #2ca02c; stroke-width: 1.5; stroke-linecap: square"/>
    </g>
    <g id="text_17">
     <!-- $N-12$ -->
     <g transform="translate(72.354188 169.782195) scale(0.09 -0.09)">
      <use xlink:href="#CMMI12-4e" transform="scale(0.996264)"/>
      <use xlink:href="#CMSY10-0" transform="translate(110.66098 0) scale(0.996264)"/>
      <use xlink:href="#CMR17-31" transform="translate(210.287654 0) scale(0.996264)"/>
      <use xlink:href="#CMR17-32" transform="translate(255.978131 0) scale(0.996264)"/>
     </g>
    </g>
   </g>
  </g>
  <g id="axes_2">
   <g id="patch_8">
    <path d="M 208.111613 179.79198 
L 373.854188 179.79198 
L 373.854188 13.47198 
L 208.111613 13.47198 
z
" style="fill: #ffffff"/>
   </g>
   <g id="PolyCollection_2">
    <defs>
     <path id="mcfa19dcf65" d="M 311.700722 -48.348103 
L 270.265079 -48.348103 
L 270.265079 -199.548103 
L 311.700722 -199.548103 
L 311.700722 -199.548103 
L 311.700722 -48.348103 
z
" style="stroke: #808080; stroke-opacity: 0.15"/>
    </defs>
    <g clip-path="url(#p5da8aed91f)">
     <use xlink:href="#mcfa19dcf65" x="0" y="220.580083" style="fill: #808080; fill-opacity: 0.15; stroke: #808080; stroke-opacity: 0.15"/>
    </g>
   </g>
   <g id="matplotlib.axis_3">
    <g id="xtick_5">
     <g id="line2d_18">
      <g>
       <use xlink:href="#mf689a62fb4" x="228.829435" y="179.79198" style="stroke: #000000; stroke-width: 0.8"/>
      </g>
     </g>
     <g id="text_18">
      <!-- $\mathdefault{−0.15}$ -->
      <g transform="translate(213.774874 191.809964) scale(0.12 -0.12)">
       <use xlink:href="#CMSY10-0" transform="scale(0.996264)"/>
       <use xlink:href="#CMR17-30" transform="translate(77.487468 0) scale(0.996264)"/>
       <use xlink:href="#CMMI12-3a" transform="translate(123.177945 0) scale(0.996264)"/>
       <use xlink:href="#CMR17-31" transform="translate(150.275122 0) scale(0.996264)"/>
       <use xlink:href="#CMR17-35" transform="translate(195.965599 0) scale(0.996264)"/>
      </g>
     </g>
    </g>
    <g id="xtick_6">
     <g id="line2d_19">
      <g>
       <use xlink:href="#mf689a62fb4" x="270.265079" y="179.79198" style="stroke: #000000; stroke-width: 0.8"/>
      </g>
     </g>
     <g id="text_19">
      <!-- $\mathdefault{−0.05}$ -->
      <g transform="translate(255.210518 191.809964) scale(0.12 -0.12)">
       <use xlink:href="#CMSY10-0" transform="scale(0.996264)"/>
       <use xlink:href="#CMR17-30" transform="translate(77.487468 0) scale(0.996264)"/>
       <use xlink:href="#CMMI12-3a" transform="translate(123.177945 0) scale(0.996264)"/>
       <use xlink:href="#CMR17-30" transform="translate(150.275122 0) scale(0.996264)"/>
       <use xlink:href="#CMR17-35" transform="translate(195.965599 0) scale(0.996264)"/>
      </g>
     </g>
    </g>
    <g id="xtick_7">
     <g id="line2d_20">
      <g>
       <use xlink:href="#mf689a62fb4" x="311.700722" y="179.79198" style="stroke: #000000; stroke-width: 0.8"/>
      </g>
     </g>
     <g id="text_20">
      <!-- $\mathdefault{0.05}$ -->
      <g transform="translate(301.295406 191.809964) scale(0.12 -0.12)">
       <use xlink:href="#CMR17-30" transform="scale(0.996264)"/>
       <use xlink:href="#CMMI12-3a" transform="translate(45.690477 0) scale(0.996264)"/>
       <use xlink:href="#CMR17-30" transform="translate(72.787654 0) scale(0.996264)"/>
       <use xlink:href="#CMR17-35" transform="translate(118.478131 0) scale(0.996264)"/>
      </g>
     </g>
    </g>
    <g id="xtick_8">
     <g id="line2d_21">
      <g>
       <use xlink:href="#mf689a62fb4" x="353.136366" y="179.79198" style="stroke: #000000; stroke-width: 0.8"/>
      </g>
     </g>
     <g id="text_21">
      <!-- $\mathdefault{0.15}$ -->
      <g transform="translate(342.73105 191.809964) scale(0.12 -0.12)">
       <use xlink:href="#CMR17-30" transform="scale(0.996264)"/>
       <use xlink:href="#CMMI12-3a" transform="translate(45.690477 0) scale(0.996264)"/>
       <use xlink:href="#CMR17-31" transform="translate(72.787654 0) scale(0.996264)"/>
       <use xlink:href="#CMR17-35" transform="translate(118.478131 0) scale(0.996264)"/>
      </g>
     </g>
    </g>
    <g id="text_22">
     <!-- $\frac{4\Delta_h}{\omega}$ -->
     <g transform="translate(279.884725 214.396135) scale(0.18 -0.18)">
      <use xlink:href="#CMR17-34" transform="translate(0 41.455595) scale(0.697382)"/>
      <use xlink:href="#CMR17-1" transform="translate(31.983182 41.455595) scale(0.697382)"/>
      <use xlink:href="#CMMI12-68" transform="translate(85.826649 30.884032) scale(0.498132)"/>
      <use xlink:href="#CMMI12-21" transform="translate(34.689738 -34.355253) scale(0.697382)"/>
      <path d="M 0 22.914133 
L 114.402093 22.914133 
L 114.402093 26.899083 
L 0 26.899083 
L 0 22.914133 
z
"/>
     </g>
    </g>
   </g>
   <g id="matplotlib.axis_4">
    <g id="ytick_7">
     <g id="line2d_22">
      <g>
       <use xlink:href="#m20b3af42c0" x="208.111613" y="172.23198" style="stroke: #000000; stroke-width: 0.8"/>
      </g>
     </g>
    </g>
    <g id="ytick_8">
     <g id="line2d_23">
      <g>
       <use xlink:href="#m20b3af42c0" x="208.111613" y="141.99198" style="stroke: #000000; stroke-width: 0.8"/>
      </g>
     </g>
    </g>
    <g id="ytick_9">
     <g id="line2d_24">
      <g>
       <use xlink:href="#m20b3af42c0" x="208.111613" y="111.75198" style="stroke: #000000; stroke-width: 0.8"/>
      </g>
     </g>
    </g>
    <g id="ytick_10">
     <g id="line2d_25">
      <g>
       <use xlink:href="#m20b3af42c0" x="208.111613" y="81.51198" style="stroke: #000000; stroke-width: 0.8"/>
      </g>
     </g>
    </g>
    <g id="ytick_11">
     <g id="line2d_26">
      <g>
       <use xlink:href="#m20b3af42c0" x="208.111613" y="51.27198" style="stroke: #000000; stroke-width: 0.8"/>
      </g>
     </g>
    </g>
    <g id="ytick_12">
     <g id="line2d_27">
      <g>
       <use xlink:href="#m20b3af42c0" x="208.111613" y="21.03198" style="stroke: #000000; stroke-width: 0.8"/>
      </g>
     </g>
    </g>
   </g>
   <g id="line2d_28">
    <path d="M -1 96.215684 
L 76.898742 106.165748 
L 199.824485 43.115008 
L 208.111613 26.213647 
L 228.829435 40.913611 
L 249.547257 35.257607 
L 270.265079 30.941793 
L 290.982901 36.640976 
L 290.982901 36.640976 
L 311.700722 48.127509 
L 332.418544 66.823763 
L 353.136366 142.828498 
L 373.854188 77.948929 
L 374.854188 79.724617 
" clip-path="url(#p5da8aed91f)" style="fill: none; stroke: #1f77b4; stroke-width: 1.5; stroke-linecap: square"/>
   </g>
   <g id="line2d_29">
    <path d="M -1 100.05519 
L 76.898742 128.067589 
L 199.824485 46.747027 
L 208.111613 53.689221 
L 228.829435 42.696746 
L 249.547257 30.776077 
L 270.265079 29.632637 
L 290.982901 42.42289 
L 290.982901 42.42289 
L 311.700722 57.429326 
L 332.418544 87.378174 
L 353.136366 113.504857 
L 373.854188 108.059262 
L 374.854188 111.511327 
" clip-path="url(#p5da8aed91f)" style="fill: none; stroke: #ff7f0e; stroke-width: 1.5; stroke-linecap: square"/>
   </g>
   <g id="line2d_30">
    <path d="M -1 76.22259 
L 76.898742 75.06278 
L 199.824485 109.516107 
L 208.111613 85.895297 
L 228.829435 72.211229 
L 249.547257 52.484616 
L 270.265079 34.42061 
L 290.982901 37.957646 
L 290.982901 37.957646 
L 311.700722 53.192733 
L 332.418544 119.693557 
L 353.136366 102.190682 
L 373.854188 123.529195 
L 374.854188 122.27502 
" clip-path="url(#p5da8aed91f)" style="fill: none; stroke: #2ca02c; stroke-width: 1.5; stroke-linecap: square"/>
   </g>
   <g id="line2d_31">
    <path d="M 290.982901 179.79198 
L 290.982901 13.47198 
" clip-path="url(#p5da8aed91f)" style="fill: none; stroke-dasharray: 5.55,2.4; stroke-dashoffset: 0; stroke: #000000; stroke-opacity: 0.4; stroke-width: 1.5"/>
   </g>
   <g id="patch_9">
    <path d="M 208.111613 179.79198 
L 208.111613 13.47198 
" style="fill: none; stroke: #000000; stroke-width: 0.8; stroke-linejoin: miter; stroke-linecap: square"/>
   </g>
   <g id="patch_10">
    <path d="M 373.854188 179.79198 
L 373.854188 13.47198 
" style="fill: none; stroke: #000000; stroke-width: 0.8; stroke-linejoin: miter; stroke-linecap: square"/>
   </g>
   <g id="patch_11">
    <path d="M 208.111613 179.79198 
L 373.854188 179.79198 
" style="fill: none; stroke: #000000; stroke-width: 0.8; stroke-linejoin: miter; stroke-linecap: square"/>
   </g>
   <g id="patch_12">
    <path d="M 208.111613 13.47198 
L 373.854188 13.47198 
" style="fill: none; stroke: #000000; stroke-width: 0.8; stroke-linejoin: miter; stroke-linecap: square"/>
   </g>
   <g id="text_23">
    <g id="patch_13">
     <path d="M 214.420524 36.07557 
L 240.122714 36.07557 
L 240.122714 13.03161 
L 214.420524 13.03161 
L 214.420524 36.07557 
z
" style="fill: none; opacity: 0"/>
    </g>
    <!-- $(b)$ -->
    <g transform="translate(218.470524 28.28958) scale(0.15 -0.15)">
     <defs>
      <path id="CMMI12-62" d="M 1478 4255 
C 1485 4281 1498 4319 1498 4351 
C 1498 4416 1434 4416 1421 4416 
C 1414 4416 1184 4396 1069 4383 
C 960 4377 864 4364 749 4358 
C 595 4345 550 4339 550 4223 
C 550 4159 614 4159 678 4159 
C 1005 4159 1005 4103 1005 4040 
C 1005 3995 954 3812 928 3699 
L 774 3093 
C 710 2841 346 1392 320 1277 
C 288 1117 288 1008 288 925 
C 288 274 653 -64 1069 -64 
C 1811 -64 2579 887 2579 1813 
C 2579 2400 2246 2816 1766 2816 
C 1434 2816 1133 2541 1011 2413 
L 1478 4255 
z
M 1075 64 
C 870 64 646 217 646 715 
C 646 925 666 1047 781 1494 
C 800 1577 902 1985 928 2068 
C 941 2119 1318 2687 1754 2687 
C 2035 2687 2163 2407 2163 2075 
C 2163 1768 1984 1047 1824 715 
C 1664 370 1370 64 1075 64 
z
" transform="scale(0.015625)"/>
     </defs>
     <use xlink:href="#CMR17-28" transform="scale(0.996264)"/>
     <use xlink:href="#CMMI12-62" transform="translate(35.280768 0) scale(0.996264)"/>
     <use xlink:href="#CMR17-29" transform="translate(76.756642 0) scale(0.996264)"/>
    </g>
   </g>
   <g id="text_24">
    <!-- $J_0 = 0.2/T$ -->
    <g transform="translate(267.577636 7.47198) scale(0.1 -0.1)">
     <use xlink:href="#CMMI12-4a" transform="scale(0.996264)"/>
     <use xlink:href="#CMR17-30" transform="translate(53.917955 -14.943915) scale(0.697382)"/>
     <use xlink:href="#CMR17-3d" transform="translate(114.073278 0) scale(0.996264)"/>
     <use xlink:href="#CMR17-30" transform="translate(213.462075 0) scale(0.996264)"/>
     <use xlink:href="#CMMI12-3a" transform="translate(259.152552 0) scale(0.996264)"/>
     <use xlink:href="#CMR17-32" transform="translate(286.249729 0) scale(0.996264)"/>
     <use xlink:href="#CMMI12-3d" transform="translate(331.940207 0) scale(0.996264)"/>
     <use xlink:href="#CMMI12-54" transform="translate(380.715125 0) scale(0.996264)"/>
    </g>
   </g>
  </g>
 </g>
 <defs>
  <clipPath id="p9d226d0b06">
   <rect x="39.054188" y="13.47198" width="165.742574" height="166.32"/>
  </clipPath>
  <clipPath id="p5da8aed91f">
   <rect x="208.111613" y="13.47198" width="165.742574" height="166.32"/>
  </clipPath>
 </defs>
</svg>
