<?xml version="1.0" encoding="utf-8" standalone="no"?>
<!DOCTYPE svg PUBLIC "-//W3C//DTD SVG 1.1//EN"
  "http://www.w3.org/Graphics/SVG/1.1/DTD/svg11.dtd">
<svg xmlns:xlink="http://www.w3.org/1999/xlink" width="465.238171pt" height="267.93217pt" viewBox="0 0 465.238171 267.93217" xmlns="http://www.w3.org/2000/svg" version="1.1">
 <metadata>
  <rdf:RDF xmlns:dc="http://purl.org/dc/elements/1.1/" xmlns:cc="http://creativecommons.org/ns#" xmlns:rdf="http://www.w3.org/1999/02/22-rdf-syntax-ns#">
   <cc:Work>
    <dc:type rdf:resource="http://purl.org/dc/dcmitype/StillImage"/>
    <dc:date>2023-11-15T20:13:54.113223</dc:date>
    <dc:format>image/svg+xml</dc:format>
    <dc:creator>
     <cc:Agent>
      <dc:title>Matplotlib v3.7.1, https://matplotlib.org/</dc:title>
     </cc:Agent>
    </dc:creator>
   </cc:Work>
  </rdf:RDF>
 </metadata>
 <defs>
  <style type="text/css">*{stroke-linejoin: round; stroke-linecap: butt}</style>
 </defs>
 <g id="figure_1">
  <g id="patch_1">
   <path d="M 0 267.93217 
L 465.238171 267.93217 
L 465.238171 0 
L 0 0 
z
" style="fill: #ffffff"/>
  </g>
  <g id="axes_1">
   <g id="patch_2">
    <path d="M 46.738171 235.23198 
L 252.895807 235.23198 
L 252.895807 13.47198 
L 46.738171 13.47198 
z
" style="fill: #ffffff"/>
   </g>
   <g id="matplotlib.axis_1">
    <g id="xtick_1">
     <g id="line2d_1">
      <defs>
       <path id="m625d207f4f" d="M 0 0 
L 0 -3.5 
" style="stroke: #000000; stroke-width: 0.8"/>
      </defs>
      <g>
       <use xlink:href="#m625d207f4f" x="46.738171" y="235.23198" style="stroke: #000000; stroke-width: 0.8"/>
      </g>
     </g>
     <g id="text_1">
      <!-- $\mathdefault{0}$ -->
      <g transform="translate(42.836178 250.089292) scale(0.16 -0.16)">
       <defs>
        <path id="CMR17-30" d="M 2688 2038 
C 2688 2430 2682 3099 2413 3613 
C 2176 4063 1798 4224 1466 4224 
C 1158 4224 768 4082 525 3620 
C 269 3137 243 2539 243 2038 
C 243 1671 250 1112 448 623 
C 723 -39 1216 -128 1466 -128 
C 1760 -128 2208 -7 2470 604 
C 2662 1048 2688 1568 2688 2038 
z
M 1466 -26 
C 1056 -26 813 328 723 816 
C 653 1196 653 1749 653 2109 
C 653 2604 653 3015 736 3407 
C 858 3954 1216 4121 1466 4121 
C 1728 4121 2067 3947 2189 3420 
C 2272 3054 2278 2623 2278 2109 
C 2278 1691 2278 1176 2202 797 
C 2067 96 1690 -26 1466 -26 
z
" transform="scale(0.015625)"/>
       </defs>
       <use xlink:href="#CMR17-30" transform="scale(0.996264)"/>
      </g>
     </g>
    </g>
    <g id="xtick_2">
     <g id="line2d_2">
      <g>
       <use xlink:href="#m625d207f4f" x="129.201225" y="235.23198" style="stroke: #000000; stroke-width: 0.8"/>
      </g>
     </g>
     <g id="text_2">
      <!-- $\mathdefault{1}$ -->
      <g transform="translate(125.299232 250.089292) scale(0.16 -0.16)">
       <defs>
        <path id="CMR17-31" d="M 1702 4083 
C 1702 4217 1696 4224 1606 4224 
C 1357 3927 979 3833 621 3820 
C 602 3820 570 3820 563 3808 
C 557 3795 557 3782 557 3648 
C 755 3648 1088 3686 1344 3839 
L 1344 467 
C 1344 243 1331 166 781 166 
L 589 166 
L 589 0 
C 896 6 1216 12 1523 12 
C 1830 12 2150 6 2458 0 
L 2458 166 
L 2266 166 
C 1715 166 1702 236 1702 467 
L 1702 4083 
z
" transform="scale(0.015625)"/>
       </defs>
       <use xlink:href="#CMR17-31" transform="scale(0.996264)"/>
      </g>
     </g>
    </g>
    <g id="xtick_3">
     <g id="line2d_3">
      <g>
       <use xlink:href="#m625d207f4f" x="211.66428" y="235.23198" style="stroke: #000000; stroke-width: 0.8"/>
      </g>
     </g>
     <g id="text_3">
      <!-- $\mathdefault{2}$ -->
      <g transform="translate(207.762286 250.089292) scale(0.16 -0.16)">
       <defs>
        <path id="CMR17-32" d="M 2669 990 
L 2554 990 
C 2490 537 2438 460 2413 422 
C 2381 371 1920 371 1830 371 
L 602 371 
C 832 620 1280 1073 1824 1596 
C 2214 1966 2669 2400 2669 3033 
C 2669 3788 2067 4224 1395 4224 
C 691 4224 262 3603 262 3027 
C 262 2777 448 2745 525 2745 
C 589 2745 781 2783 781 3007 
C 781 3206 614 3264 525 3264 
C 486 3264 448 3257 422 3244 
C 544 3788 915 4057 1306 4057 
C 1862 4057 2227 3616 2227 3033 
C 2227 2477 1901 1998 1536 1583 
L 262 147 
L 262 0 
L 2515 0 
L 2669 990 
z
" transform="scale(0.015625)"/>
       </defs>
       <use xlink:href="#CMR17-32" transform="scale(0.996264)"/>
      </g>
     </g>
    </g>
    <g id="text_4">
     <!-- $\Omega/\omega$ -->
     <g transform="translate(137.218998 264.445246) scale(0.14 -0.14)">
      <defs>
       <path id="CMR17-a" d="M 4038 935 
L 3923 935 
C 3866 640 3846 563 3814 461 
C 3782 364 3763 313 3392 313 
L 2874 313 
C 2944 685 3098 961 3366 1390 
C 3699 1935 3974 2377 3974 2909 
C 3974 3775 3155 4480 2138 4480 
C 1094 4480 294 3768 294 2909 
C 294 2377 576 1922 890 1416 
C 1171 961 1325 685 1395 313 
L 877 313 
C 512 313 493 364 461 454 
C 422 557 410 640 346 935 
L 230 935 
L 416 0 
L 1382 0 
C 1517 0 1523 6 1523 102 
C 1523 557 1286 1153 1178 1428 
C 973 1928 781 2416 781 2916 
C 781 3871 1466 4377 2131 4377 
C 2829 4377 3488 3852 3488 2916 
C 3488 2422 3315 1980 3078 1396 
C 2976 1134 2746 550 2746 102 
C 2746 0 2752 0 2886 0 
L 3853 0 
L 4038 935 
z
" transform="scale(0.015625)"/>
       <path id="CMMI12-3d" d="M 2746 4563 
C 2746 4569 2784 4665 2784 4678 
C 2784 4755 2720 4800 2669 4800 
C 2637 4800 2579 4800 2528 4659 
L 384 -1364 
C 384 -1370 346 -1466 346 -1479 
C 346 -1556 410 -1600 461 -1600 
C 499 -1600 557 -1594 602 -1460 
L 2746 4563 
z
" transform="scale(0.015625)"/>
       <path id="CMMI12-21" d="M 3802 2406 
C 3802 2592 3750 2828 3526 2828 
C 3398 2828 3251 2668 3251 2540 
C 3251 2483 3277 2444 3328 2387 
C 3424 2278 3546 2105 3546 1804 
C 3546 1574 3405 1209 3302 1011 
C 3123 659 2829 358 2496 358 
C 2093 358 1939 614 1869 972 
C 1939 1139 2086 1555 2086 1721 
C 2086 1792 2061 1849 1978 1849 
C 1933 1849 1882 1824 1850 1772 
C 1760 1632 1677 1126 1683 992 
C 1562 755 1216 358 806 358 
C 378 358 262 736 262 1100 
C 262 1766 678 2348 794 2508 
C 858 2604 902 2668 902 2681 
C 902 2726 877 2796 819 2796 
C 717 2796 685 2713 634 2636 
C 307 2131 77 1420 77 806 
C 77 409 224 -64 704 -64 
C 1235 -64 1568 390 1702 633 
C 1754 275 1946 -64 2413 -64 
C 2899 -64 3206 364 3437 883 
C 3603 1254 3802 2054 3802 2406 
z
" transform="scale(0.015625)"/>
      </defs>
      <use xlink:href="#CMR17-a" transform="scale(0.996264)"/>
      <use xlink:href="#CMMI12-3d" transform="translate(66.509881 0) scale(0.996264)"/>
      <use xlink:href="#CMMI12-21" transform="translate(115.284799 0) scale(0.996264)"/>
     </g>
    </g>
   </g>
   <g id="matplotlib.axis_2">
    <g id="ytick_1">
     <g id="line2d_4">
      <defs>
       <path id="mcfe7d64fda" d="M 0 0 
L 3.5 0 
" style="stroke: #000000; stroke-width: 0.8"/>
      </defs>
      <g>
       <use xlink:href="#mcfe7d64fda" x="46.738171" y="200.391608" style="stroke: #000000; stroke-width: 0.8"/>
      </g>
     </g>
     <g id="text_5">
      <!-- $\mathdefault{10^{-3}}$ -->
      <g transform="translate(13.372582 206.070264) scale(0.16 -0.16)">
       <defs>
        <path id="CMSY10-0" d="M 4218 1472 
C 4326 1472 4442 1472 4442 1600 
C 4442 1728 4326 1728 4218 1728 
L 755 1728 
C 646 1728 531 1728 531 1600 
C 531 1472 646 1472 755 1472 
L 4218 1472 
z
" transform="scale(0.015625)"/>
        <path id="CMR17-33" d="M 1414 2176 
C 1984 2176 2234 1673 2234 1094 
C 2234 322 1824 25 1453 25 
C 1114 25 563 193 390 691 
C 422 678 454 678 486 678 
C 640 678 755 780 755 947 
C 755 1132 614 1216 486 1216 
C 378 1216 211 1164 211 927 
C 211 335 787 -128 1466 -128 
C 2176 -128 2720 432 2720 1087 
C 2720 1718 2208 2176 1600 2246 
C 2086 2347 2554 2776 2554 3353 
C 2554 3856 2048 4224 1472 4224 
C 890 4224 378 3862 378 3347 
C 378 3123 544 3084 627 3084 
C 762 3084 877 3167 877 3334 
C 877 3500 762 3584 627 3584 
C 602 3584 570 3584 544 3571 
C 730 3999 1235 4076 1459 4076 
C 1683 4076 2106 3966 2106 3347 
C 2106 3167 2080 2851 1862 2574 
C 1670 2329 1453 2316 1242 2297 
C 1210 2297 1062 2284 1037 2284 
C 992 2278 966 2272 966 2227 
C 966 2182 973 2176 1101 2176 
L 1414 2176 
z
" transform="scale(0.015625)"/>
       </defs>
       <use xlink:href="#CMR17-31" transform="scale(0.996264)"/>
       <use xlink:href="#CMR17-30" transform="translate(45.690477 0) scale(0.996264)"/>
       <use xlink:href="#CMSY10-0" transform="translate(91.380954 36.153639) scale(0.697382)"/>
       <use xlink:href="#CMR17-33" transform="translate(145.621947 36.153639) scale(0.697382)"/>
      </g>
     </g>
    </g>
    <g id="ytick_2">
     <g id="line2d_5">
      <g>
       <use xlink:href="#mcfe7d64fda" x="46.738171" y="148.153852" style="stroke: #000000; stroke-width: 0.8"/>
      </g>
     </g>
     <g id="text_6">
      <!-- $\mathdefault{10^{-1}}$ -->
      <g transform="translate(13.372582 153.832508) scale(0.16 -0.16)">
       <use xlink:href="#CMR17-31" transform="scale(0.996264)"/>
       <use xlink:href="#CMR17-30" transform="translate(45.690477 0) scale(0.996264)"/>
       <use xlink:href="#CMSY10-0" transform="translate(91.380954 36.153639) scale(0.697382)"/>
       <use xlink:href="#CMR17-31" transform="translate(145.621947 36.153639) scale(0.697382)"/>
      </g>
     </g>
    </g>
    <g id="ytick_3">
     <g id="line2d_6">
      <g>
       <use xlink:href="#mcfe7d64fda" x="46.738171" y="95.916096" style="stroke: #000000; stroke-width: 0.8"/>
      </g>
     </g>
     <g id="text_7">
      <!-- $\mathdefault{10^{1}}$ -->
      <g transform="translate(22.051128 101.594752) scale(0.16 -0.16)">
       <use xlink:href="#CMR17-31" transform="scale(0.996264)"/>
       <use xlink:href="#CMR17-30" transform="translate(45.690477 0) scale(0.996264)"/>
       <use xlink:href="#CMR17-31" transform="translate(91.380954 36.153639) scale(0.697382)"/>
      </g>
     </g>
    </g>
    <g id="ytick_4">
     <g id="line2d_7">
      <g>
       <use xlink:href="#mcfe7d64fda" x="46.738171" y="43.67834" style="stroke: #000000; stroke-width: 0.8"/>
      </g>
     </g>
     <g id="text_8">
      <!-- $\mathdefault{10^{3}}$ -->
      <g transform="translate(22.051128 49.356996) scale(0.16 -0.16)">
       <use xlink:href="#CMR17-31" transform="scale(0.996264)"/>
       <use xlink:href="#CMR17-30" transform="translate(45.690477 0) scale(0.996264)"/>
       <use xlink:href="#CMR17-33" transform="translate(91.380954 36.153639) scale(0.697382)"/>
      </g>
     </g>
    </g>
    <g id="text_9">
     <!-- $M^z_{A}$ -->
     <g transform="translate(9.530925 134.720295) rotate(-90) scale(0.14 -0.14)">
      <defs>
       <path id="CMMI12-4d" d="M 5811 3886 
C 5869 4102 5882 4166 6336 4166 
C 6458 4166 6515 4166 6515 4287 
C 6515 4352 6470 4352 6349 4352 
L 5581 4352 
C 5421 4352 5414 4345 5344 4243 
L 3008 567 
L 2528 4211 
C 2509 4352 2502 4352 2336 4352 
L 1542 4352 
C 1421 4352 1363 4352 1363 4230 
C 1363 4166 1421 4166 1517 4166 
C 1907 4166 1907 4115 1907 4045 
C 1907 4032 1907 3994 1882 3898 
L 1062 650 
C 986 344 838 204 410 185 
C 390 185 314 179 314 70 
C 314 0 371 0 397 0 
C 525 0 851 12 979 12 
L 1286 12 
C 1376 12 1485 0 1574 0 
C 1619 0 1690 0 1690 121 
C 1690 179 1626 185 1600 185 
C 1389 191 1184 230 1184 459 
C 1184 523 1184 529 1210 618 
L 2093 4128 
L 2099 4128 
L 2630 172 
C 2650 19 2656 0 2714 0 
C 2784 0 2816 51 2848 108 
L 5421 4159 
L 5427 4159 
L 4499 472 
C 4442 249 4429 185 3981 185 
C 3859 185 3795 185 3795 70 
C 3795 0 3853 0 3891 0 
C 4000 0 4128 12 4237 12 
L 4992 12 
C 5101 12 5235 0 5344 0 
C 5395 0 5466 0 5466 121 
C 5466 185 5408 185 5312 185 
C 4922 185 4922 236 4922 300 
C 4922 306 4922 351 4934 402 
L 5811 3886 
z
" transform="scale(0.015625)"/>
       <path id="CMMI12-7a" d="M 813 486 
C 1088 809 1312 1015 1632 1313 
C 2016 1657 2182 1822 2272 1922 
C 2720 2371 2944 2713 2944 2764 
C 2944 2816 2893 2816 2880 2816 
C 2835 2816 2822 2790 2790 2745 
C 2630 2470 2477 2368 2310 2368 
C 2176 2368 2106 2403 1984 2547 
C 1850 2707 1741 2816 1555 2816 
C 1088 2816 806 2265 806 2127 
C 806 2107 813 2067 870 2067 
C 922 2067 928 2094 947 2140 
C 1056 2387 1363 2415 1485 2415 
C 1619 2415 1747 2387 1882 2342 
C 2125 2239 2227 2239 2291 2239 
C 2336 2239 2362 2239 2394 2246 
C 2182 1988 1837 1670 1549 1399 
L 902 783 
C 512 380 275 32 275 -13 
C 275 -52 307 -64 346 -64 
C 384 -64 390 -58 435 19 
C 538 179 742 384 979 384 
C 1114 384 1178 356 1306 211 
C 1427 70 1536 -64 1741 -64 
C 2368 -64 2726 723 2726 876 
C 2726 902 2720 942 2656 942 
C 2605 942 2598 915 2579 849 
C 2438 460 2061 336 1811 336 
C 1677 336 1549 364 1414 409 
C 1158 512 1088 512 1005 512 
C 941 512 870 512 813 486 
z
" transform="scale(0.015625)"/>
       <path id="CMMI12-41" d="M 1088 720 
C 864 335 646 205 339 185 
C 269 179 218 179 218 64 
C 218 25 250 0 294 0 
C 410 0 698 12 813 12 
C 998 12 1203 0 1382 0 
C 1421 0 1498 0 1498 121 
C 1498 179 1446 185 1408 185 
C 1261 198 1139 250 1139 407 
C 1139 498 1178 570 1261 714 
L 1747 1536 
L 3379 1536 
C 3386 1477 3386 1425 3392 1366 
C 3411 1196 3488 518 3488 394 
C 3488 198 3162 185 3059 185 
C 2989 185 2918 185 2918 70 
C 2918 0 2976 0 3014 0 
C 3123 0 3251 12 3360 12 
L 3725 12 
C 4115 12 4397 0 4403 0 
C 4448 0 4518 0 4518 121 
C 4518 185 4461 185 4365 185 
C 4013 185 4006 244 3987 440 
L 3597 4403 
C 3584 4531 3558 4544 3488 4544 
C 3424 4544 3386 4531 3328 4435 
L 1088 720 
z
M 1856 1721 
L 3142 3831 
L 3360 1721 
L 1856 1721 
z
" transform="scale(0.015625)"/>
      </defs>
      <use xlink:href="#CMMI12-4d" transform="scale(0.996264)"/>
      <use xlink:href="#CMMI12-7a" transform="translate(104.780079 36.153639) scale(0.697382)"/>
      <use xlink:href="#CMMI12-41" transform="translate(94.373425 -27.44057) scale(0.697382)"/>
     </g>
    </g>
   </g>
   <g id="line2d_8">
    <path d="M 46.738171 57.745 
L 50.861324 93.79229 
L 54.984477 91.927411 
L 59.107629 78.550068 
L 63.230782 89.731381 
L 67.353935 92.93532 
L 71.477087 93.464812 
L 75.60024 86.004605 
L 79.723393 99.286814 
L 83.846546 92.722785 
L 87.969698 23.55198 
L 92.092851 106.545028 
L 100.339156 88.162711 
L 104.462309 107.738409 
L 108.585462 101.892323 
L 112.708615 95.466947 
L 116.831767 81.946234 
L 120.95492 93.600389 
L 125.078073 96.354807 
L 129.201225 62.169702 
L 133.324378 93.968485 
L 137.447531 98.832774 
L 141.570684 85.440058 
L 145.693836 95.624933 
L 149.816989 99.012201 
L 153.940142 99.826848 
L 158.063294 91.177023 
L 162.186447 110.96311 
L 166.3096 104.830072 
L 170.432752 42.219801 
L 174.555905 109.570379 
L 178.679058 110.53482 
L 182.802211 107.685005 
L 186.925363 110.059859 
L 191.048516 107.617759 
L 195.171669 103.018702 
L 199.294821 89.89628 
L 203.417974 102.219094 
L 207.541127 108.849959 
L 211.66428 71.810935 
L 215.787432 107.687886 
L 219.910585 107.196414 
L 224.033738 95.032096 
L 228.15689 107.186403 
L 232.280043 111.968581 
L 236.403196 114.864844 
L 240.526349 116.595141 
L 244.649501 117.818996 
L 248.772654 115.715358 
L 252.895807 66.112024 
L 257.018959 119.015795 
L 261.142112 123.355952 
L 265.265265 123.657275 
L 269.388417 125.662584 
L 273.51157 126.073064 
L 277.634723 125.711975 
L 281.757876 121.609334 
L 285.881028 147.641474 
L 290.004181 133.799665 
L 294.127334 121.072043 
L 298.250486 135.852479 
L 302.373639 131.515608 
L 306.496792 123.80118 
L 310.619945 133.258162 
L 314.743097 135.635355 
L 318.86625 136.058058 
L 322.989403 135.669599 
L 327.112555 138.655063 
L 331.235708 131.579219 
L 335.358861 75.400505 
L 339.482014 129.840259 
L 343.605166 133.741912 
L 347.728319 129.6798 
L 351.851472 132.552871 
L 355.974624 129.641683 
L 360.097777 124.1452 
L 364.22093 110.841513 
L 368.344083 121.213521 
L 372.467235 127.263849 
L 376.590388 90.079826 
L 380.713541 122.740084 
L 384.836693 125.67788 
L 388.959846 111.355305 
L 393.082999 122.28834 
L 397.206151 126.063796 
L 401.329304 127.881705 
L 405.452457 126.584022 
L 409.57561 134.087098 
L 413.698762 131.445764 
L 417.821915 88.566439 
L 421.945068 132.401025 
L 426.06822 135.68343 
L 430.191373 134.693063 
L 434.314526 136.209256 
L 438.437679 136.490112 
L 442.560831 136.229246 
L 446.683984 133.35365 
L 450.807137 149.270905 
L 454.930289 144.601952 
L 459.053442 139.623563 
L 463.176595 142.141474 
L 466.238171 141.174799 
M 466.238171 141.174799 
L 463.176595 142.141474 
L 459.053442 139.623563 
L 454.930289 144.601952 
L 450.807137 149.270905 
L 446.683984 133.35365 
L 442.560831 136.229246 
L 438.437679 136.490112 
L 434.314526 136.209256 
L 430.191373 134.693063 
L 426.06822 135.68343 
L 421.945068 132.401025 
L 417.821915 88.566439 
L 413.698762 131.445764 
L 409.57561 134.087098 
L 405.452457 126.584022 
L 401.329304 127.881705 
L 397.206151 126.063796 
L 393.082999 122.28834 
L 388.959846 111.355305 
L 384.836693 125.67788 
L 380.713541 122.740084 
L 376.590388 90.079826 
L 372.467235 127.263849 
L 368.344083 121.213521 
L 364.22093 110.841513 
L 360.097777 124.1452 
L 355.974624 129.641683 
L 351.851472 132.552871 
L 347.728319 129.6798 
L 343.605166 133.741912 
L 339.482014 129.840259 
L 335.358861 75.400505 
L 331.235708 131.579219 
L 327.112555 138.655063 
L 322.989403 135.669599 
L 318.86625 136.058058 
L 314.743097 135.635355 
L 310.619945 133.258162 
L 306.496792 123.80118 
L 302.373639 131.515608 
L 298.250486 135.852479 
L 294.127334 121.072043 
L 290.004181 133.799665 
L 285.881028 147.641474 
L 281.757876 121.609334 
L 277.634723 125.711975 
L 273.51157 126.073064 
L 269.388417 125.662584 
L 265.265265 123.657275 
L 261.142112 123.355952 
L 257.018959 119.015795 
L 252.895807 66.112024 
L 248.772654 115.715358 
L 244.649501 117.818996 
L 240.526349 116.595141 
L 236.403196 114.864844 
L 232.280043 111.968581 
L 228.15689 107.186403 
L 224.033738 95.032096 
L 219.910585 107.196414 
L 215.787432 107.687886 
L 211.66428 71.810935 
L 207.541127 108.849959 
L 203.417974 102.219094 
L 199.294821 89.89628 
L 195.171669 103.018702 
L 191.048516 107.617759 
L 186.925363 110.059859 
L 182.802211 107.685005 
L 178.679058 110.53482 
L 174.555905 109.570379 
L 170.432752 42.219801 
L 166.3096 104.830072 
L 162.186447 110.96311 
L 158.063294 91.177023 
L 153.940142 99.826848 
L 149.816989 99.012201 
L 145.693836 95.624933 
L 141.570684 85.440058 
L 137.447531 98.832774 
L 133.324378 93.968485 
L 129.201225 62.169702 
L 125.078073 96.354807 
L 120.95492 93.600389 
L 116.831767 81.946234 
L 112.708615 95.466947 
L 108.585462 101.892323 
L 104.462309 107.738409 
L 100.339156 88.162711 
L 92.092851 106.545028 
L 87.969698 23.55198 
L 83.846546 92.722785 
L 79.723393 99.286814 
L 75.60024 86.004605 
L 71.477087 93.464812 
L 67.353935 92.93532 
L 63.230782 89.731381 
L 59.107629 78.550068 
L 54.984477 91.927411 
L 50.861324 93.79229 
L 50.861324 93.79229 
" clip-path="url(#pbe5f33fb3e)" style="fill: none; stroke: #1f77b4; stroke-width: 1.5; stroke-linecap: square"/>
   </g>
   <g id="line2d_9">
    <path d="M 46.738171 52.286586 
L 50.861324 64.880483 
L 54.984477 72.962293 
L 59.107629 74.074049 
L 63.230782 75.737119 
L 67.353935 75.834225 
L 71.477087 74.98131 
L 75.60024 72.95717 
L 79.723393 70.127084 
L 83.846546 62.361948 
L 87.969698 23.966214 
L 92.092851 70.608736 
L 96.216004 81.741333 
L 100.339156 88.454449 
L 104.462309 102.526302 
L 108.585462 106.038081 
L 112.708615 92.497129 
L 116.831767 84.492702 
L 120.95492 80.903073 
L 125.078073 69.688707 
L 129.201225 55.887922 
L 133.324378 68.538482 
L 137.447531 77.327085 
L 141.570684 80.139283 
L 145.693836 83.630901 
L 149.816989 85.618634 
L 153.940142 86.512996 
L 158.063294 85.724288 
L 162.186447 84.216746 
L 166.3096 76.139346 
L 170.432752 42.449347 
L 174.555905 81.845693 
L 178.679058 88.911593 
L 182.802211 93.092851 
L 186.925363 95.824766 
L 191.048516 97.319567 
L 195.171669 96.877776 
L 199.294821 93.318836 
L 203.417974 91.293908 
L 207.541127 80.181815 
L 211.66428 66.133197 
L 215.787432 78.398244 
L 219.910585 86.664645 
L 224.033738 89.036148 
L 228.15689 92.148713 
L 232.280043 94.119238 
L 236.403196 95.533523 
L 240.526349 96.431935 
L 244.649501 96.187524 
L 248.772654 92.249263 
L 252.895807 66.199854 
L 257.018959 96.52443 
L 261.142112 100.8108 
L 265.265265 102.617927 
L 269.388417 103.756368 
L 277.634723 105.500457 
L 281.757876 105.909355 
L 285.881028 107.78169 
L 290.004181 108.653489 
L 294.127334 107.524899 
L 298.250486 107.576576 
L 306.496792 110.63608 
L 310.619945 111.763613 
L 314.743097 113.195927 
L 318.86625 115.149822 
L 322.989403 118.383945 
L 327.112555 125.496292 
L 331.235708 111.250402 
L 335.358861 75.037972 
L 339.482014 102.893543 
L 343.605166 107.622455 
L 347.728319 110.316896 
L 355.974624 114.909127 
L 360.097777 117.446191 
L 364.22093 117.275742 
L 368.344083 115.335448 
L 372.467235 100.352716 
L 376.590388 84.126863 
L 380.713541 94.750318 
L 384.836693 101.617455 
L 388.959846 103.355164 
L 393.082999 105.663322 
L 397.206151 107.103207 
L 401.329304 108.179148 
L 405.452457 108.941881 
L 409.57561 109.537526 
L 413.698762 107.268402 
L 417.821915 87.780666 
L 421.945068 106.252349 
L 426.06822 109.611148 
L 430.191373 110.896981 
L 434.314526 111.76017 
L 442.560831 112.996895 
L 446.683984 113.406273 
L 450.807137 114.36121 
L 454.930289 115.036138 
L 459.053442 114.243925 
L 463.176595 114.531927 
L 466.238171 115.17891 
M 466.238171 115.17891 
L 463.176595 114.531927 
L 459.053442 114.243925 
L 454.930289 115.036138 
L 450.807137 114.36121 
L 446.683984 113.406273 
L 442.560831 112.996895 
L 434.314526 111.76017 
L 430.191373 110.896981 
L 426.06822 109.611148 
L 421.945068 106.252349 
L 417.821915 87.780666 
L 413.698762 107.268402 
L 409.57561 109.537526 
L 405.452457 108.941881 
L 401.329304 108.179148 
L 397.206151 107.103207 
L 393.082999 105.663322 
L 388.959846 103.355164 
L 384.836693 101.617455 
L 380.713541 94.750318 
L 376.590388 84.126863 
L 372.467235 100.352716 
L 368.344083 115.335448 
L 364.22093 117.275742 
L 360.097777 117.446191 
L 355.974624 114.909127 
L 347.728319 110.316896 
L 343.605166 107.622455 
L 339.482014 102.893543 
L 335.358861 75.037972 
L 331.235708 111.250402 
L 327.112555 125.496292 
L 322.989403 118.383945 
L 318.86625 115.149822 
L 314.743097 113.195927 
L 310.619945 111.763613 
L 306.496792 110.63608 
L 298.250486 107.576576 
L 294.127334 107.524899 
L 290.004181 108.653489 
L 285.881028 107.78169 
L 281.757876 105.909355 
L 277.634723 105.500457 
L 273.51157 104.685324 
L 269.388417 103.756368 
L 265.265265 102.617927 
L 261.142112 100.8108 
L 257.018959 96.52443 
L 252.895807 66.199854 
L 248.772654 92.249263 
L 244.649501 96.187524 
L 240.526349 96.431935 
L 236.403196 95.533523 
L 232.280043 94.119238 
L 228.15689 92.148713 
L 224.033738 89.036148 
L 219.910585 86.664645 
L 215.787432 78.398244 
L 211.66428 66.133197 
L 207.541127 80.181815 
L 203.417974 91.293908 
L 199.294821 93.318836 
L 195.171669 96.877776 
L 191.048516 97.319567 
L 186.925363 95.824766 
L 182.802211 93.092851 
L 178.679058 88.911593 
L 174.555905 81.845693 
L 170.432752 42.449347 
L 166.3096 76.139346 
L 162.186447 84.216746 
L 158.063294 85.724288 
L 153.940142 86.512996 
L 149.816989 85.618634 
L 145.693836 83.630901 
L 141.570684 80.139283 
L 137.447531 77.327085 
L 133.324378 68.538482 
L 129.201225 55.887922 
L 125.078073 69.688707 
L 120.95492 80.903073 
L 116.831767 84.492702 
L 112.708615 92.497129 
L 108.585462 106.038081 
L 104.462309 102.526302 
L 100.339156 88.454449 
L 96.216004 81.741333 
L 92.092851 70.608736 
L 87.969698 23.966214 
L 83.846546 62.361948 
L 79.723393 70.127084 
L 75.60024 72.95717 
L 71.477087 74.98131 
L 67.353935 75.834225 
L 63.230782 75.737119 
L 59.107629 74.074049 
L 54.984477 72.962293 
L 50.861324 64.880483 
L 50.861324 64.880483 
" clip-path="url(#pbe5f33fb3e)" style="fill: none; stroke: #ff7f0e; stroke-width: 1.5; stroke-linecap: square"/>
   </g>
   <g id="line2d_10">
    <path d="M 46.738171 52.801841 
L 50.861324 64.978755 
L 54.984477 72.357227 
L 59.107629 74.01227 
L 63.230782 75.006078 
L 67.353935 74.781488 
L 71.477087 73.707076 
L 75.60024 71.606175 
L 79.723393 68.366567 
L 83.846546 60.50688 
L 87.969698 24.078906 
L 92.092851 67.632374 
L 96.216004 77.807914 
L 100.339156 84.704208 
L 104.462309 93.980767 
L 108.585462 112.107557 
L 112.708615 96.584356 
L 116.831767 86.826015 
L 120.95492 81.075965 
L 125.078073 69.892213 
L 129.201225 56.135786 
L 133.324378 68.428756 
L 137.447531 76.889649 
L 141.570684 80.427361 
L 145.693836 83.583725 
L 149.816989 85.479452 
L 153.940142 86.271808 
L 158.063294 85.440795 
L 162.186447 83.080622 
L 166.3096 74.66994 
L 170.432752 42.520312 
L 174.555905 79.66197 
L 178.679058 86.543368 
L 182.802211 90.898946 
L 186.925363 94.082135 
L 191.048516 96.514796 
L 195.171669 97.597483 
L 199.294821 95.578575 
L 203.417974 91.926571 
L 207.541127 80.812536 
L 211.66428 66.562456 
L 215.787432 78.224969 
L 219.910585 85.894523 
L 224.033738 88.820853 
L 228.15689 91.459036 
L 232.280043 93.225019 
L 236.403196 94.488891 
L 240.526349 95.245457 
L 244.649501 94.915115 
L 248.772654 90.842453 
L 252.895807 66.1892 
L 257.018959 94.7133 
L 261.142112 98.97431 
L 265.265265 100.78295 
L 269.388417 101.919131 
L 277.634723 103.629349 
L 281.757876 104.221273 
L 285.881028 105.588966 
L 290.004181 106.464066 
L 294.127334 105.921963 
L 298.250486 105.862056 
L 306.496792 108.510759 
L 310.619945 109.586486 
L 314.743097 110.950431 
L 318.86625 112.857367 
L 322.989403 116.167065 
L 327.112555 125.548002 
L 331.235708 110.813308 
L 335.358861 74.930473 
L 339.482014 100.539621 
L 343.605166 104.982243 
L 347.728319 107.52555 
L 355.974624 111.756065 
L 360.097777 114.495907 
L 364.22093 117.982243 
L 368.344083 117.534919 
L 372.467235 101.563667 
L 376.590388 84.487846 
L 380.713541 94.260785 
L 384.836693 100.468517 
L 388.959846 102.605945 
L 393.082999 104.500016 
L 397.206151 105.770038 
L 401.329304 106.744463 
L 405.452457 107.484882 
L 409.57561 107.96716 
L 413.698762 105.875505 
L 417.821915 87.541176 
L 421.945068 104.378694 
L 426.06822 107.590651 
L 430.191373 108.847341 
L 434.314526 109.661157 
L 442.560831 110.830474 
L 446.683984 111.284747 
L 454.930289 112.615056 
L 459.053442 111.957862 
L 463.176595 112.323163 
L 466.238171 112.904665 
M 466.238171 112.904665 
L 463.176595 112.323163 
L 459.053442 111.957862 
L 454.930289 112.615056 
L 442.560831 110.830474 
L 434.314526 109.661157 
L 430.191373 108.847341 
L 426.06822 107.590651 
L 421.945068 104.378694 
L 417.821915 87.541176 
L 413.698762 105.875505 
L 409.57561 107.96716 
L 405.452457 107.484882 
L 401.329304 106.744463 
L 397.206151 105.770038 
L 393.082999 104.500016 
L 388.959846 102.605945 
L 384.836693 100.468517 
L 380.713541 94.260785 
L 376.590388 84.487846 
L 372.467235 101.563667 
L 368.344083 117.534919 
L 364.22093 117.982243 
L 360.097777 114.495907 
L 355.974624 111.756065 
L 347.728319 107.52555 
L 343.605166 104.982243 
L 339.482014 100.539621 
L 335.358861 74.930473 
L 331.235708 110.813308 
L 327.112555 125.548002 
L 322.989403 116.167065 
L 318.86625 112.857367 
L 314.743097 110.950431 
L 310.619945 109.586486 
L 306.496792 108.510759 
L 298.250486 105.862056 
L 294.127334 105.921963 
L 290.004181 106.464066 
L 285.881028 105.588966 
L 281.757876 104.221273 
L 277.634723 103.629349 
L 269.388417 101.919131 
L 265.265265 100.78295 
L 261.142112 98.97431 
L 257.018959 94.7133 
L 252.895807 66.1892 
L 248.772654 90.842453 
L 244.649501 94.915115 
L 240.526349 95.245457 
L 236.403196 94.488891 
L 232.280043 93.225019 
L 228.15689 91.459036 
L 224.033738 88.820853 
L 219.910585 85.894523 
L 215.787432 78.224969 
L 211.66428 66.562456 
L 207.541127 80.812536 
L 203.417974 91.926571 
L 199.294821 95.578575 
L 195.171669 97.597483 
L 191.048516 96.514796 
L 186.925363 94.082135 
L 182.802211 90.898946 
L 178.679058 86.543368 
L 174.555905 79.66197 
L 170.432752 42.520312 
L 166.3096 74.66994 
L 162.186447 83.080622 
L 158.063294 85.440795 
L 153.940142 86.271808 
L 149.816989 85.479452 
L 145.693836 83.583725 
L 141.570684 80.427361 
L 137.447531 76.889649 
L 133.324378 68.428756 
L 129.201225 56.135786 
L 125.078073 69.892213 
L 120.95492 81.075965 
L 116.831767 86.826015 
L 112.708615 96.584356 
L 108.585462 112.107557 
L 104.462309 93.980767 
L 100.339156 84.704208 
L 96.216004 77.807914 
L 92.092851 67.632374 
L 87.969698 24.078906 
L 83.846546 60.50688 
L 79.723393 68.366567 
L 75.60024 71.606175 
L 71.477087 73.707076 
L 67.353935 74.781488 
L 63.230782 75.006078 
L 59.107629 74.01227 
L 54.984477 72.357227 
L 50.861324 64.978755 
L 50.861324 64.978755 
" clip-path="url(#pbe5f33fb3e)" style="fill: none; stroke: #2ca02c; stroke-width: 1.5; stroke-linecap: square"/>
   </g>
   <g id="line2d_11">
    <path d="M 46.738171 53.581751 
L 50.861324 65.666338 
L 54.984477 72.48414 
L 59.107629 74.206702 
L 63.230782 74.779841 
L 67.353935 74.334142 
L 71.477087 73.106232 
L 75.60024 70.921419 
L 79.723393 67.463273 
L 83.846546 59.537223 
L 87.969698 24.147966 
L 92.092851 66.009306 
L 96.216004 75.688677 
L 100.339156 82.395782 
L 104.462309 89.906528 
L 108.585462 101.216705 
L 112.708615 101.604444 
L 116.831767 89.466692 
L 120.95492 82.12065 
L 125.078073 70.732999 
L 129.201225 56.700684 
L 133.324378 68.941166 
L 137.447531 77.175097 
L 141.570684 81.032479 
L 145.693836 83.996697 
L 149.816989 85.810035 
L 153.940142 86.482477 
L 158.063294 85.494459 
L 162.186447 82.58893 
L 166.3096 73.908048 
L 170.432752 42.561441 
L 174.555905 78.319905 
L 178.679058 85.067346 
L 182.802211 89.428954 
L 186.925363 92.718763 
L 191.048516 95.529239 
L 195.171669 97.673547 
L 199.294821 97.433434 
L 203.417974 93.343779 
L 207.541127 82.055122 
L 211.66428 67.25994 
L 215.787432 78.662759 
L 219.910585 85.897795 
L 224.033738 88.983349 
L 228.15689 91.338881 
L 232.280043 92.960832 
L 236.403196 94.115599 
L 240.526349 94.77034 
L 244.649501 94.347551 
L 248.772654 90.135711 
L 252.895807 66.168022 
L 257.018959 93.608566 
L 261.142112 97.921855 
L 265.265265 99.765858 
L 269.388417 100.915071 
L 277.634723 102.610111 
L 281.757876 103.283408 
L 285.881028 104.417431 
L 290.004181 105.271252 
L 294.127334 104.994019 
L 298.250486 104.959311 
L 306.496792 107.326958 
L 310.619945 108.379534 
L 314.743097 109.699929 
L 318.86625 111.563311 
L 322.989403 114.848137 
L 327.112555 125.018787 
L 331.235708 110.505518 
L 335.358861 74.845379 
L 339.482014 99.08877 
L 343.605166 103.390251 
L 347.728319 105.821406 
L 355.974624 109.677198 
L 360.097777 112.131146 
L 364.22093 116.050736 
L 368.344083 119.580144 
L 372.467235 103.485968 
L 376.590388 85.13505 
L 380.713541 94.421955 
L 384.836693 100.148852 
L 388.959846 102.366801 
L 393.082999 104.022209 
L 397.206151 105.177132 
L 401.329304 106.079722 
L 405.452457 106.790227 
L 409.57561 107.219266 
L 413.698762 105.21022 
L 417.821915 87.371235 
L 421.945068 103.333056 
L 426.06822 106.486609 
L 430.191373 107.732801 
L 434.314526 108.523006 
L 442.560831 109.64881 
L 446.683984 110.111225 
L 454.930289 111.282895 
L 459.053442 110.723515 
L 463.176595 111.131608 
L 466.238171 111.662121 
M 466.238171 111.662121 
L 463.176595 111.131608 
L 459.053442 110.723515 
L 454.930289 111.282895 
L 442.560831 109.64881 
L 434.314526 108.523006 
L 430.191373 107.732801 
L 426.06822 106.486609 
L 421.945068 103.333056 
L 417.821915 87.371235 
L 413.698762 105.21022 
L 409.57561 107.219266 
L 405.452457 106.790227 
L 401.329304 106.079722 
L 397.206151 105.177132 
L 393.082999 104.022209 
L 388.959846 102.366801 
L 384.836693 100.148852 
L 380.713541 94.421955 
L 376.590388 85.13505 
L 372.467235 103.485968 
L 368.344083 119.580144 
L 364.22093 116.050736 
L 360.097777 112.131146 
L 355.974624 109.677198 
L 347.728319 105.821406 
L 343.605166 103.390251 
L 339.482014 99.08877 
L 335.358861 74.845379 
L 331.235708 110.505518 
L 327.112555 125.018787 
L 322.989403 114.848137 
L 318.86625 111.563311 
L 314.743097 109.699929 
L 310.619945 108.379534 
L 306.496792 107.326958 
L 298.250486 104.959311 
L 294.127334 104.994019 
L 290.004181 105.271252 
L 285.881028 104.417431 
L 281.757876 103.283408 
L 277.634723 102.610111 
L 269.388417 100.915071 
L 265.265265 99.765858 
L 261.142112 97.921855 
L 257.018959 93.608566 
L 252.895807 66.168022 
L 248.772654 90.135711 
L 244.649501 94.347551 
L 240.526349 94.77034 
L 236.403196 94.115599 
L 232.280043 92.960832 
L 228.15689 91.338881 
L 224.033738 88.983349 
L 219.910585 85.897795 
L 215.787432 78.662759 
L 211.66428 67.25994 
L 207.541127 82.055122 
L 203.417974 93.343779 
L 199.294821 97.433434 
L 195.171669 97.673547 
L 191.048516 95.529239 
L 186.925363 92.718763 
L 182.802211 89.428954 
L 178.679058 85.067346 
L 174.555905 78.319905 
L 170.432752 42.561441 
L 166.3096 73.908048 
L 162.186447 82.58893 
L 158.063294 85.494459 
L 153.940142 86.482477 
L 149.816989 85.810035 
L 145.693836 83.996697 
L 141.570684 81.032479 
L 137.447531 77.175097 
L 133.324378 68.941166 
L 129.201225 56.700684 
L 125.078073 70.732999 
L 120.95492 82.12065 
L 116.831767 89.466692 
L 112.708615 101.604444 
L 108.585462 101.216705 
L 104.462309 89.906528 
L 100.339156 82.395782 
L 96.216004 75.688677 
L 92.092851 66.009306 
L 87.969698 24.147966 
L 83.846546 59.537223 
L 79.723393 67.463273 
L 75.60024 70.921419 
L 71.477087 73.106232 
L 67.353935 74.334142 
L 63.230782 74.779841 
L 59.107629 74.206702 
L 54.984477 72.48414 
L 50.861324 65.666338 
L 50.861324 65.666338 
" clip-path="url(#pbe5f33fb3e)" style="fill: none; stroke: #d62728; stroke-width: 1.5; stroke-linecap: square"/>
   </g>
   <g id="patch_3">
    <path d="M 46.738171 235.23198 
L 46.738171 13.47198 
" style="fill: none; stroke: #000000; stroke-width: 0.8; stroke-linejoin: miter; stroke-linecap: square"/>
   </g>
   <g id="patch_4">
    <path d="M 252.895807 235.23198 
L 252.895807 13.47198 
" style="fill: none; stroke: #000000; stroke-width: 0.8; stroke-linejoin: miter; stroke-linecap: square"/>
   </g>
   <g id="patch_5">
    <path d="M 46.738171 235.23198 
L 252.895807 235.23198 
" style="fill: none; stroke: #000000; stroke-width: 0.8; stroke-linejoin: miter; stroke-linecap: square"/>
   </g>
   <g id="patch_6">
    <path d="M 46.738171 13.47198 
L 252.895807 13.47198 
" style="fill: none; stroke: #000000; stroke-width: 0.8; stroke-linejoin: miter; stroke-linecap: square"/>
   </g>
   <g id="text_10">
    <!-- $J_0 = 0.072/T$ -->
    <g transform="translate(121.430389 7.47198) scale(0.1 -0.1)">
     <defs>
      <path id="CMMI12-4a" d="M 3418 3911 
C 3469 4102 3482 4166 3795 4166 
C 3898 4166 3962 4166 3962 4281 
C 3962 4352 3904 4352 3878 4352 
C 3770 4352 3648 4339 3533 4339 
L 3181 4339 
C 2912 4339 2630 4352 2362 4352 
C 2304 4352 2227 4352 2227 4236 
C 2227 4172 2278 4172 2278 4166 
L 2438 4166 
C 2950 4166 2950 4115 2950 4019 
C 2950 4013 2950 3968 2925 3866 
L 2189 953 
C 2022 304 1594 0 1286 0 
C 1069 0 762 99 685 428 
C 710 422 742 415 768 415 
C 979 415 1146 601 1146 787 
C 1146 889 1082 1024 890 1024 
C 774 1024 506 959 506 543 
C 506 149 838 -128 1299 -128 
C 1882 -128 2509 304 2662 908 
L 3418 3911 
z
" transform="scale(0.015625)"/>
      <path id="CMR17-3d" d="M 4115 2048 
C 4211 2048 4307 2048 4307 2156 
C 4307 2272 4198 2272 4090 2272 
L 512 2272 
C 403 2272 294 2272 294 2156 
C 294 2048 390 2048 486 2048 
L 4115 2048 
z
M 4090 927 
C 4198 927 4307 927 4307 1043 
C 4307 1152 4211 1152 4115 1152 
L 486 1152 
C 390 1152 294 1152 294 1043 
C 294 927 403 927 512 927 
L 4090 927 
z
" transform="scale(0.015625)"/>
      <path id="CMMI12-3a" d="M 1178 307 
C 1178 492 1024 620 870 620 
C 685 620 557 467 557 313 
C 557 128 710 0 864 0 
C 1050 0 1178 153 1178 307 
z
" transform="scale(0.015625)"/>
      <path id="CMR17-37" d="M 2886 3955 
L 2886 4096 
L 1382 4096 
C 634 4096 621 4166 595 4288 
L 480 4288 
L 294 3104 
L 410 3104 
C 429 3226 474 3552 550 3673 
C 589 3724 1062 3724 1171 3724 
L 2579 3724 
L 1869 2670 
C 1395 1961 1069 1003 1069 166 
C 1069 89 1069 -128 1299 -128 
C 1530 -128 1530 89 1530 172 
L 1530 466 
C 1530 1514 1709 2204 2003 2644 
L 2886 3955 
z
" transform="scale(0.015625)"/>
      <path id="CMMI12-54" d="M 2669 3886 
C 2707 4038 2720 4096 2816 4121 
C 2867 4134 3078 4134 3213 4134 
C 3853 4134 4154 4109 4154 3612 
C 4154 3516 4128 3274 4090 3038 
L 4083 2962 
C 4083 2937 4109 2898 4147 2898 
C 4211 2898 4211 2930 4230 3032 
L 4416 4159 
C 4429 4217 4429 4230 4429 4249 
C 4429 4319 4390 4319 4262 4319 
L 762 4319 
C 614 4319 608 4313 570 4198 
L 179 3051 
C 173 3038 154 2968 154 2962 
C 154 2930 179 2898 218 2898 
C 269 2898 282 2924 307 3007 
C 576 3777 710 4134 1562 4134 
L 1990 4134 
C 2144 4134 2208 4134 2208 4064 
C 2208 4045 2208 4032 2176 3917 
L 1318 497 
C 1254 249 1242 185 563 185 
C 403 185 358 185 358 64 
C 358 0 429 0 461 0 
C 621 0 787 12 947 12 
L 1946 12 
C 2106 12 2278 0 2438 0 
C 2509 0 2573 0 2573 121 
C 2573 185 2528 185 2362 185 
C 1786 185 1786 242 1786 338 
C 1786 344 1786 389 1811 491 
L 2669 3886 
z
" transform="scale(0.015625)"/>
     </defs>
     <use xlink:href="#CMMI12-4a" transform="scale(0.996264)"/>
     <use xlink:href="#CMR17-30" transform="translate(53.917955 -14.943915) scale(0.697382)"/>
     <use xlink:href="#CMR17-3d" transform="translate(114.073278 0) scale(0.996264)"/>
     <use xlink:href="#CMR17-30" transform="translate(213.462075 0) scale(0.996264)"/>
     <use xlink:href="#CMMI12-3a" transform="translate(259.152552 0) scale(0.996264)"/>
     <use xlink:href="#CMR17-30" transform="translate(286.249729 0) scale(0.996264)"/>
     <use xlink:href="#CMR17-37" transform="translate(331.940207 0) scale(0.996264)"/>
     <use xlink:href="#CMR17-32" transform="translate(377.630684 0) scale(0.996264)"/>
     <use xlink:href="#CMMI12-3d" transform="translate(423.321161 0) scale(0.996264)"/>
     <use xlink:href="#CMMI12-54" transform="translate(472.09608 0) scale(0.996264)"/>
    </g>
   </g>
  </g>
  <g id="axes_2">
   <g id="patch_7">
    <path d="M 259.080536 235.23198 
L 465.238171 235.23198 
L 465.238171 13.47198 
L 259.080536 13.47198 
z
" style="fill: #ffffff"/>
   </g>
   <g id="matplotlib.axis_3">
    <g id="xtick_4">
     <g id="line2d_12">
      <g>
       <use xlink:href="#m625d207f4f" x="259.080536" y="235.23198" style="stroke: #000000; stroke-width: 0.8"/>
      </g>
     </g>
     <g id="text_11">
      <!-- $\mathdefault{0}$ -->
      <g transform="translate(255.178542 250.089292) scale(0.16 -0.16)">
       <use xlink:href="#CMR17-30" transform="scale(0.996264)"/>
      </g>
     </g>
    </g>
    <g id="xtick_5">
     <g id="line2d_13">
      <g>
       <use xlink:href="#m625d207f4f" x="341.54359" y="235.23198" style="stroke: #000000; stroke-width: 0.8"/>
      </g>
     </g>
     <g id="text_12">
      <!-- $\mathdefault{1}$ -->
      <g transform="translate(337.641596 250.089292) scale(0.16 -0.16)">
       <use xlink:href="#CMR17-31" transform="scale(0.996264)"/>
      </g>
     </g>
    </g>
    <g id="xtick_6">
     <g id="line2d_14">
      <g>
       <use xlink:href="#m625d207f4f" x="424.006644" y="235.23198" style="stroke: #000000; stroke-width: 0.8"/>
      </g>
     </g>
     <g id="text_13">
      <!-- $\mathdefault{2}$ -->
      <g transform="translate(420.104651 250.089292) scale(0.16 -0.16)">
       <use xlink:href="#CMR17-32" transform="scale(0.996264)"/>
      </g>
     </g>
    </g>
    <g id="text_14">
     <!-- $\Omega/\omega$ -->
     <g transform="translate(349.561363 264.445246) scale(0.14 -0.14)">
      <use xlink:href="#CMR17-a" transform="scale(0.996264)"/>
      <use xlink:href="#CMMI12-3d" transform="translate(66.509881 0) scale(0.996264)"/>
      <use xlink:href="#CMMI12-21" transform="translate(115.284799 0) scale(0.996264)"/>
     </g>
    </g>
   </g>
   <g id="matplotlib.axis_4">
    <g id="ytick_5">
     <g id="line2d_15">
      <g>
       <use xlink:href="#mcfe7d64fda" x="259.080536" y="200.391608" style="stroke: #000000; stroke-width: 0.8"/>
      </g>
     </g>
    </g>
    <g id="ytick_6">
     <g id="line2d_16">
      <g>
       <use xlink:href="#mcfe7d64fda" x="259.080536" y="148.153852" style="stroke: #000000; stroke-width: 0.8"/>
      </g>
     </g>
    </g>
    <g id="ytick_7">
     <g id="line2d_17">
      <g>
       <use xlink:href="#mcfe7d64fda" x="259.080536" y="95.916096" style="stroke: #000000; stroke-width: 0.8"/>
      </g>
     </g>
    </g>
    <g id="ytick_8">
     <g id="line2d_18">
      <g>
       <use xlink:href="#mcfe7d64fda" x="259.080536" y="43.67834" style="stroke: #000000; stroke-width: 0.8"/>
      </g>
     </g>
    </g>
   </g>
   <g id="line2d_19">
    <path d="M 259.080536 55.518835 
L 263.203688 60.382795 
L 267.326841 70.842606 
L 271.449994 67.39748 
L 275.573147 88.609259 
L 279.696299 94.230725 
L 283.819452 80.904421 
L 287.942605 85.544429 
L 292.065757 84.602282 
L 296.18891 82.076677 
L 300.312063 24.615628 
L 304.435216 63.451679 
L 308.558368 82.305856 
L 312.681521 71.715796 
L 316.804674 71.100556 
L 320.927826 86.125118 
L 325.050979 96.829459 
L 329.174132 69.165839 
L 333.297284 75.698105 
L 337.420437 63.44882 
L 341.54359 61.376117 
L 345.666743 64.992193 
L 349.789895 77.42023 
L 353.913048 77.041505 
L 358.036201 75.221764 
L 362.159353 119.105956 
L 366.282506 76.781882 
L 370.405659 89.85018 
L 374.528812 90.119628 
L 378.651964 79.857911 
L 382.775117 43.488426 
L 386.89827 73.555414 
L 391.021422 89.297131 
L 395.144575 86.059877 
L 399.267728 90.751429 
L 403.390881 97.047871 
L 407.514033 86.705948 
L 411.637186 76.912163 
L 415.760339 82.726626 
L 419.883491 73.170129 
L 424.006644 69.859683 
L 428.129797 75.215426 
L 432.25295 87.014948 
L 436.376102 84.693789 
L 440.499255 104.689736 
L 444.622408 126.07411 
L 448.74556 99.890567 
L 452.868713 112.305424 
L 456.991866 112.890678 
L 461.115018 95.07241 
L 465.238171 66.965202 
L 466.238171 73.553192 
M 466.238171 73.553192 
L 465.238171 66.965202 
L 461.115018 95.07241 
L 456.991866 112.890678 
L 452.868713 112.305424 
L 448.74556 99.890567 
L 444.622408 126.07411 
L 440.499255 104.689736 
L 436.376102 84.693789 
L 432.25295 87.014948 
L 428.129797 75.215426 
L 424.006644 69.859683 
L 419.883491 73.170129 
L 415.760339 82.726626 
L 411.637186 76.912163 
L 407.514033 86.705948 
L 403.390881 97.047871 
L 399.267728 90.751429 
L 395.144575 86.059877 
L 391.021422 89.297131 
L 386.89827 73.555414 
L 382.775117 43.488426 
L 378.651964 79.857911 
L 374.528812 90.119628 
L 370.405659 89.85018 
L 366.282506 76.781882 
L 362.159353 119.105956 
L 358.036201 75.221764 
L 353.913048 77.041505 
L 349.789895 77.42023 
L 345.666743 64.992193 
L 341.54359 61.376117 
L 337.420437 63.44882 
L 333.297284 75.698105 
L 329.174132 69.165839 
L 325.050979 96.829459 
L 320.927826 86.125118 
L 316.804674 71.100556 
L 312.681521 71.715796 
L 308.558368 82.305856 
L 304.435216 63.451679 
L 300.312063 24.615628 
L 296.18891 82.076677 
L 292.065757 84.602282 
L 287.942605 85.544429 
L 283.819452 80.904421 
L 279.696299 94.230725 
L 275.573147 88.609259 
L 271.449994 67.39748 
L 267.326841 70.842606 
L 263.203688 60.382795 
L 263.203688 60.382795 
" clip-path="url(#p482dc33df0)" style="fill: none; stroke: #1f77b4; stroke-width: 1.5; stroke-linecap: square"/>
   </g>
   <g id="line2d_20">
    <path d="M 259.080536 55.058962 
L 263.203688 75.150256 
L 267.326841 87.262543 
L 271.449994 82.270223 
L 275.573147 91.988362 
L 279.696299 92.775233 
L 283.819452 91.614831 
L 287.942605 88.777454 
L 292.065757 90.06445 
L 296.18891 79.636199 
L 300.312063 23.627796 
L 304.435216 92.538829 
L 308.558368 110.421612 
L 312.681521 103.672558 
L 316.804674 108.642197 
L 320.927826 110.630868 
L 325.050979 104.391013 
L 329.174132 88.616384 
L 333.297284 95.919322 
L 337.420437 80.866295 
L 341.54359 59.533534 
L 345.666743 79.942249 
L 349.789895 91.256018 
L 353.913048 89.979825 
L 358.036201 100.572369 
L 362.159353 100.718641 
L 366.282506 99.595859 
L 370.405659 95.706447 
L 374.528812 101.840455 
L 378.651964 91.401504 
L 382.775117 42.187862 
L 386.89827 101.728651 
L 391.021422 116.978325 
L 395.144575 121.71101 
L 399.267728 120.124725 
L 407.514033 109.365643 
L 411.637186 95.802862 
L 415.760339 104.555459 
L 419.883491 89.742442 
L 424.006644 69.044994 
L 428.129797 89.303977 
L 432.25295 101.230871 
L 436.376102 98.962846 
L 440.499255 108.121076 
L 444.622408 110.427949 
L 448.74556 112.307433 
L 452.868713 112.318892 
L 456.991866 111.802624 
L 461.115018 105.844797 
L 465.238171 66.433585 
L 466.238171 78.427916 
M 466.238171 78.427916 
L 465.238171 66.433585 
L 461.115018 105.844797 
L 456.991866 111.802624 
L 452.868713 112.318892 
L 448.74556 112.307433 
L 444.622408 110.427949 
L 440.499255 108.121076 
L 436.376102 98.962846 
L 432.25295 101.230871 
L 428.129797 89.303977 
L 424.006644 69.044994 
L 419.883491 89.742442 
L 415.760339 104.555459 
L 411.637186 95.802862 
L 407.514033 109.365643 
L 399.267728 120.124725 
L 395.144575 121.71101 
L 391.021422 116.978325 
L 386.89827 101.728651 
L 382.775117 42.187862 
L 378.651964 91.401504 
L 374.528812 101.840455 
L 370.405659 95.706447 
L 366.282506 99.595859 
L 362.159353 100.718641 
L 358.036201 100.572369 
L 353.913048 89.979825 
L 349.789895 91.256018 
L 345.666743 79.942249 
L 341.54359 59.533534 
L 337.420437 80.866295 
L 333.297284 95.919322 
L 329.174132 88.616384 
L 325.050979 104.391013 
L 320.927826 110.630868 
L 316.804674 108.642197 
L 312.681521 103.672558 
L 308.558368 110.421612 
L 304.435216 92.538829 
L 300.312063 23.627796 
L 296.18891 79.636199 
L 292.065757 90.06445 
L 287.942605 88.777454 
L 283.819452 91.614831 
L 279.696299 92.775233 
L 275.573147 91.988362 
L 271.449994 82.270223 
L 267.326841 87.262543 
L 263.203688 75.150256 
L 263.203688 75.150256 
" clip-path="url(#p482dc33df0)" style="fill: none; stroke: #ff7f0e; stroke-width: 1.5; stroke-linecap: square"/>
   </g>
   <g id="line2d_21">
    <path d="M 259.080536 51.357888 
L 263.203688 66.501573 
L 267.326841 77.519125 
L 271.449994 79.391019 
L 275.573147 83.352649 
L 279.696299 84.412296 
L 283.819452 84.292504 
L 287.942605 82.162737 
L 292.065757 81.309747 
L 296.18891 71.368656 
L 300.312063 23.73345 
L 304.435216 90.820831 
L 308.558368 116.705924 
L 312.681521 109.156469 
L 316.804674 102.493978 
L 320.927826 97.384646 
L 325.050979 93.004893 
L 329.174132 86.567879 
L 333.297284 84.180337 
L 337.420437 71.663724 
L 341.54359 55.743001 
L 345.666743 71.249125 
L 349.789895 82.274228 
L 358.036201 90.13462 
L 362.159353 92.011381 
L 366.282506 92.881217 
L 370.405659 91.036126 
L 374.528812 92.621443 
L 378.651964 83.193467 
L 382.775117 42.275371 
L 386.89827 95.011727 
L 391.021422 104.61261 
L 395.144575 107.331461 
L 399.267728 104.859554 
L 403.390881 102.709986 
L 407.514033 99.94205 
L 411.637186 94.018838 
L 415.760339 92.834051 
L 419.883491 80.739818 
L 424.006644 65.358266 
L 428.129797 80.798765 
L 432.25295 91.972785 
L 436.376102 95.142738 
L 440.499255 99.573374 
L 444.622408 101.911242 
L 448.74556 103.572095 
L 452.868713 104.709395 
L 456.991866 104.078116 
L 461.115018 98.086081 
L 465.238171 66.502645 
L 466.238171 76.330485 
M 466.238171 76.330485 
L 465.238171 66.502645 
L 461.115018 98.086081 
L 456.991866 104.078116 
L 452.868713 104.709395 
L 448.74556 103.572095 
L 444.622408 101.911242 
L 440.499255 99.573374 
L 436.376102 95.142738 
L 432.25295 91.972785 
L 428.129797 80.798765 
L 424.006644 65.358266 
L 419.883491 80.739818 
L 415.760339 92.834051 
L 411.637186 94.018838 
L 407.514033 99.94205 
L 403.390881 102.709986 
L 399.267728 104.859554 
L 395.144575 107.331461 
L 391.021422 104.61261 
L 386.89827 95.011727 
L 382.775117 42.275371 
L 378.651964 83.193467 
L 374.528812 92.621443 
L 370.405659 91.036126 
L 366.282506 92.881217 
L 362.159353 92.011381 
L 358.036201 90.13462 
L 349.789895 82.274228 
L 345.666743 71.249125 
L 341.54359 55.743001 
L 337.420437 71.663724 
L 333.297284 84.180337 
L 329.174132 86.567879 
L 325.050979 93.004893 
L 320.927826 97.384646 
L 316.804674 102.493978 
L 312.681521 109.156469 
L 308.558368 116.705924 
L 304.435216 90.820831 
L 300.312063 23.73345 
L 296.18891 71.368656 
L 292.065757 81.309747 
L 287.942605 82.162737 
L 283.819452 84.292504 
L 279.696299 84.412296 
L 275.573147 83.352649 
L 271.449994 79.391019 
L 267.326841 77.519125 
L 263.203688 66.501573 
L 263.203688 66.501573 
" clip-path="url(#p482dc33df0)" style="fill: none; stroke: #2ca02c; stroke-width: 1.5; stroke-linecap: square"/>
   </g>
   <g id="line2d_22">
    <path d="M 259.080536 50.050471 
L 263.203688 63.682079 
L 267.326841 73.890823 
L 271.449994 76.98154 
L 275.573147 79.709674 
L 279.696299 80.623345 
L 283.819452 80.455415 
L 292.065757 76.972766 
L 296.18891 67.741379 
L 300.312063 23.839194 
L 304.435216 85.445364 
L 308.558368 101.290775 
L 312.681521 104.209385 
L 316.804674 100.437484 
L 320.927826 94.375077 
L 325.050979 89.72688 
L 329.174132 84.371187 
L 333.297284 80.266119 
L 337.420437 68.65857 
L 341.54359 54.24221 
L 345.666743 68.191929 
L 349.789895 78.662847 
L 353.913048 83.225972 
L 358.036201 86.454667 
L 362.159353 88.433676 
L 366.282506 89.493322 
L 370.405659 88.67121 
L 374.528812 88.856909 
L 378.651964 80.277998 
L 382.775117 42.363322 
L 386.89827 94.441011 
L 391.021422 101.08852 
L 395.144575 103.745122 
L 403.390881 99.69709 
L 407.514033 97.020517 
L 411.637186 92.454384 
L 415.760339 89.275119 
L 419.883491 78.058803 
L 424.006644 64.049693 
L 428.129797 77.913586 
L 432.25295 88.313928 
L 436.376102 92.315926 
L 440.499255 95.8391 
L 444.622408 98.089474 
L 448.74556 99.710855 
L 452.868713 100.830939 
L 456.991866 100.371798 
L 461.115018 94.96871 
L 465.238171 66.550242 
L 466.238171 75.53409 
M 466.238171 75.53409 
L 465.238171 66.550242 
L 461.115018 94.96871 
L 456.991866 100.371798 
L 452.868713 100.830939 
L 448.74556 99.710855 
L 444.622408 98.089474 
L 440.499255 95.8391 
L 436.376102 92.315926 
L 432.25295 88.313928 
L 428.129797 77.913586 
L 424.006644 64.049693 
L 419.883491 78.058803 
L 415.760339 89.275119 
L 411.637186 92.454384 
L 407.514033 97.020517 
L 403.390881 99.69709 
L 395.144575 103.745122 
L 391.021422 101.08852 
L 386.89827 94.441011 
L 382.775117 42.363322 
L 378.651964 80.277998 
L 374.528812 88.856909 
L 370.405659 88.67121 
L 366.282506 89.493322 
L 362.159353 88.433676 
L 358.036201 86.454667 
L 353.913048 83.225972 
L 349.789895 78.662847 
L 345.666743 68.191929 
L 341.54359 54.24221 
L 337.420437 68.65857 
L 333.297284 80.266119 
L 329.174132 84.371187 
L 325.050979 89.72688 
L 320.927826 94.375077 
L 316.804674 100.437484 
L 312.681521 104.209385 
L 308.558368 101.290775 
L 304.435216 85.445364 
L 300.312063 23.839194 
L 296.18891 67.741379 
L 292.065757 76.972766 
L 283.819452 80.455415 
L 279.696299 80.623345 
L 275.573147 79.709674 
L 271.449994 76.98154 
L 267.326841 73.890823 
L 263.203688 63.682079 
L 263.203688 63.682079 
" clip-path="url(#p482dc33df0)" style="fill: none; stroke: #d62728; stroke-width: 1.5; stroke-linecap: square"/>
   </g>
   <g id="patch_8">
    <path d="M 259.080536 235.23198 
L 259.080536 13.47198 
" style="fill: none; stroke: #000000; stroke-width: 0.8; stroke-linejoin: miter; stroke-linecap: square"/>
   </g>
   <g id="patch_9">
    <path d="M 465.238171 235.23198 
L 465.238171 13.47198 
" style="fill: none; stroke: #000000; stroke-width: 0.8; stroke-linejoin: miter; stroke-linecap: square"/>
   </g>
   <g id="patch_10">
    <path d="M 259.080536 235.23198 
L 465.238171 235.23198 
" style="fill: none; stroke: #000000; stroke-width: 0.8; stroke-linejoin: miter; stroke-linecap: square"/>
   </g>
   <g id="patch_11">
    <path d="M 259.080536 13.47198 
L 465.238171 13.47198 
" style="fill: none; stroke: #000000; stroke-width: 0.8; stroke-linejoin: miter; stroke-linecap: square"/>
   </g>
   <g id="text_15">
    <!-- $J_0=0.2/T$ -->
    <g transform="translate(338.754089 7.47198) scale(0.1 -0.1)">
     <use xlink:href="#CMMI12-4a" transform="scale(0.996264)"/>
     <use xlink:href="#CMR17-30" transform="translate(53.917955 -14.943915) scale(0.697382)"/>
     <use xlink:href="#CMR17-3d" transform="translate(114.073278 0) scale(0.996264)"/>
     <use xlink:href="#CMR17-30" transform="translate(213.462075 0) scale(0.996264)"/>
     <use xlink:href="#CMMI12-3a" transform="translate(259.152552 0) scale(0.996264)"/>
     <use xlink:href="#CMR17-32" transform="translate(286.249729 0) scale(0.996264)"/>
     <use xlink:href="#CMMI12-3d" transform="translate(331.940207 0) scale(0.996264)"/>
     <use xlink:href="#CMMI12-54" transform="translate(380.715125 0) scale(0.996264)"/>
    </g>
   </g>
   <g id="legend_1">
    <g id="line2d_23">
     <path d="M 268.980536 172.220832 
L 279.980536 172.220832 
L 290.980536 172.220832 
" style="fill: none; stroke: #1f77b4; stroke-width: 1.5; stroke-linecap: square"/>
    </g>
    <g id="text_16">
     <!-- $\beta=0.0$ -->
     <g transform="translate(299.780536 176.070832) scale(0.11 -0.11)">
      <defs>
       <path id="CMMI12-c" d="M 3622 3739 
C 3622 4131 3296 4544 2714 4544 
C 1888 4544 1363 3510 1197 2830 
L 186 -1152 
C 173 -1204 211 -1216 243 -1216 
C 288 -1216 320 -1210 326 -1178 
L 774 592 
C 838 231 1190 -64 1568 -64 
C 2483 -64 3347 657 3347 1618 
C 3347 1863 3290 2108 3155 2314 
C 3078 2437 2982 2527 2880 2599 
C 3341 2823 3622 3222 3622 3739 
z
M 2509 2605 
C 2406 2571 2304 2560 2182 2560 
C 2093 2560 2010 2553 1894 2588 
C 1958 2627 2054 2639 2189 2639 
C 2304 2639 2419 2627 2509 2605 
z
M 3290 3798 
C 3290 3438 3117 2915 2701 2684 
C 2579 2723 2413 2752 2272 2752 
C 2138 2752 1754 2765 1754 2582 
C 1754 2411 2106 2430 2214 2430 
C 2381 2430 2528 2469 2682 2514 
C 2886 2347 2976 2127 2976 1805 
C 2976 1431 2874 1128 2752 850 
C 2541 373 2042 64 1600 64 
C 1133 64 890 438 890 876 
C 890 934 890 1018 915 1115 
L 1331 2784 
C 1542 3641 2080 4413 2701 4413 
C 3162 4413 3290 4086 3290 3798 
z
" transform="scale(0.015625)"/>
      </defs>
      <use xlink:href="#CMMI12-c" transform="scale(0.996264)"/>
      <use xlink:href="#CMR17-3d" transform="translate(88.268024 0) scale(0.996264)"/>
      <use xlink:href="#CMR17-30" transform="translate(187.656822 0) scale(0.996264)"/>
      <use xlink:href="#CMMI12-3a" transform="translate(233.347299 0) scale(0.996264)"/>
      <use xlink:href="#CMR17-30" transform="translate(260.444476 0) scale(0.996264)"/>
     </g>
    </g>
    <g id="line2d_24">
     <path d="M 268.980536 187.863157 
L 279.980536 187.863157 
L 290.980536 187.863157 
" style="fill: none; stroke: #ff7f0e; stroke-width: 1.5; stroke-linecap: square"/>
    </g>
    <g id="text_17">
     <!-- $\beta=1.5$ -->
     <g transform="translate(299.780536 191.713157) scale(0.11 -0.11)">
      <defs>
       <path id="CMR17-35" d="M 730 3750 
C 794 3724 1056 3641 1325 3641 
C 1920 3641 2246 3961 2432 4140 
C 2432 4191 2432 4224 2394 4224 
C 2387 4224 2374 4224 2323 4198 
C 2099 4102 1837 4032 1517 4032 
C 1325 4032 1037 4055 723 4191 
C 653 4224 640 4224 634 4224 
C 602 4224 595 4217 595 4090 
L 595 2231 
C 595 2113 595 2080 659 2080 
C 691 2080 704 2093 736 2139 
C 941 2435 1222 2560 1542 2560 
C 1766 2560 2246 2415 2246 1293 
C 2246 1087 2246 716 2054 422 
C 1894 159 1645 25 1370 25 
C 947 25 518 319 403 812 
C 429 806 480 793 506 793 
C 589 793 749 838 749 1036 
C 749 1209 627 1280 506 1280 
C 358 1280 262 1190 262 1011 
C 262 454 704 -128 1382 -128 
C 2042 -128 2669 441 2669 1267 
C 2669 2054 2170 2662 1549 2662 
C 1222 2662 947 2540 730 2304 
L 730 3750 
z
" transform="scale(0.015625)"/>
      </defs>
      <use xlink:href="#CMMI12-c" transform="scale(0.996264)"/>
      <use xlink:href="#CMR17-3d" transform="translate(88.268024 0) scale(0.996264)"/>
      <use xlink:href="#CMR17-31" transform="translate(187.656822 0) scale(0.996264)"/>
      <use xlink:href="#CMMI12-3a" transform="translate(233.347299 0) scale(0.996264)"/>
      <use xlink:href="#CMR17-35" transform="translate(260.444476 0) scale(0.996264)"/>
     </g>
    </g>
    <g id="line2d_25">
     <path d="M 268.980536 203.505482 
L 279.980536 203.505482 
L 290.980536 203.505482 
" style="fill: none; stroke: #2ca02c; stroke-width: 1.5; stroke-linecap: square"/>
    </g>
    <g id="text_18">
     <!-- $\beta=2.5$ -->
     <g transform="translate(299.780536 207.355482) scale(0.11 -0.11)">
      <use xlink:href="#CMMI12-c" transform="scale(0.996264)"/>
      <use xlink:href="#CMR17-3d" transform="translate(88.268024 0) scale(0.996264)"/>
      <use xlink:href="#CMR17-32" transform="translate(187.656822 0) scale(0.996264)"/>
      <use xlink:href="#CMMI12-3a" transform="translate(233.347299 0) scale(0.996264)"/>
      <use xlink:href="#CMR17-35" transform="translate(260.444476 0) scale(0.996264)"/>
     </g>
    </g>
    <g id="line2d_26">
     <path d="M 268.980536 219.147807 
L 279.980536 219.147807 
L 290.980536 219.147807 
" style="fill: none; stroke: #d62728; stroke-width: 1.5; stroke-linecap: square"/>
    </g>
    <g id="text_19">
     <!-- $\beta=\infty$ -->
     <g transform="translate(299.780536 222.997807) scale(0.11 -0.11)">
      <defs>
       <path id="CMSY10-31" d="M 3251 1736 
C 2906 2170 2829 2266 2630 2426 
C 2272 2713 1914 2828 1587 2828 
C 838 2828 352 2126 352 1379 
C 352 645 826 -64 1562 -64 
C 2298 -64 2829 517 3142 1028 
C 3488 594 3565 498 3763 338 
C 4122 51 4480 -64 4806 -64 
C 5555 -64 6042 638 6042 1385 
C 6042 2119 5568 2828 4832 2828 
C 4096 2828 3565 2247 3251 1736 
z
M 3418 1519 
C 3680 1979 4154 2624 4877 2624 
C 5555 2624 5901 1960 5901 1385 
C 5901 760 5472 242 4909 242 
C 4538 242 4250 511 4115 645 
C 3955 817 3808 1015 3418 1519 
z
M 2976 1245 
C 2714 785 2240 140 1517 140 
C 838 140 493 804 493 1379 
C 493 2004 922 2521 1485 2521 
C 1856 2521 2144 2253 2278 2119 
C 2438 1947 2586 1749 2976 1245 
z
" transform="scale(0.015625)"/>
      </defs>
      <use xlink:href="#CMMI12-c" transform="scale(0.996264)"/>
      <use xlink:href="#CMR17-3d" transform="translate(88.268024 0) scale(0.996264)"/>
      <use xlink:href="#CMSY10-31" transform="translate(187.656822 0) scale(0.996264)"/>
     </g>
    </g>
   </g>
  </g>
 </g>
 <defs>
  <clipPath id="pbe5f33fb3e">
   <rect x="46.738171" y="13.47198" width="206.157635" height="221.76"/>
  </clipPath>
  <clipPath id="p482dc33df0">
   <rect x="259.080536" y="13.47198" width="206.157635" height="221.76"/>
  </clipPath>
 </defs>
</svg>
