<?xml version="1.0" encoding="UTF-8" standalone="no"?>
<svg
   width="466.247159pt"
   height="267.939938pt"
   viewBox="0 0 466.247159 267.939938"
   version="1.1"
   id="svg446"
   sodipodi:docname="single_sz_fft.svg"
   inkscape:version="1.1.2 (0a00cf5339, 2022-02-04)"
   xmlns:inkscape="http://www.inkscape.org/namespaces/inkscape"
   xmlns:sodipodi="http://sodipodi.sourceforge.net/DTD/sodipodi-0.dtd"
   xmlns:xlink="http://www.w3.org/1999/xlink"
   xmlns="http://www.w3.org/2000/svg"
   xmlns:svg="http://www.w3.org/2000/svg"
   xmlns:rdf="http://www.w3.org/1999/02/22-rdf-syntax-ns#"
   xmlns:cc="http://creativecommons.org/ns#"
   xmlns:dc="http://purl.org/dc/elements/1.1/">
  <sodipodi:namedview
     id="namedview448"
     pagecolor="#ffffff"
     bordercolor="#666666"
     borderopacity="1.0"
     inkscape:pageshadow="2"
     inkscape:pageopacity="0.0"
     inkscape:pagecheckerboard="0"
     inkscape:document-units="pt"
     showgrid="false"
     inkscape:zoom="2.1522919"
     inkscape:cx="311.06375"
     inkscape:cy="178.64677"
     inkscape:window-width="1878"
     inkscape:window-height="1016"
     inkscape:window-x="42"
     inkscape:window-y="27"
     inkscape:window-maximized="1"
     inkscape:current-layer="g294" />
  <metadata
     id="metadata2">
    <rdf:RDF>
      <cc:Work>
        <dc:type
           rdf:resource="http://purl.org/dc/dcmitype/StillImage" />
        <dc:date>2023-11-15T20:20:51.386923</dc:date>
        <dc:format>image/svg+xml</dc:format>
        <dc:creator>
          <cc:Agent>
            <dc:title>Matplotlib v3.7.1, https://matplotlib.org/</dc:title>
          </cc:Agent>
        </dc:creator>
      </cc:Work>
    </rdf:RDF>
  </metadata>
  <defs
     id="defs6">
    <style
       type="text/css"
       id="style4">*{stroke-linejoin: round; stroke-linecap: butt}</style>
  </defs>
  <g
     id="figure_1">
    <g
       id="patch_1">
      <path
         d="M 0 267.939938  L 466.247159 267.939938  L 466.247159 0  L 0 0  z "
         style="fill: #ffffff"
         id="path8" />
    </g>
    <g
       id="axes_1">
      <g
         id="patch_2">
        <path
           d="M 47.747159 235.23198  L 253.904795 235.23198  L 253.904795 13.47198  L 47.747159 13.47198  z "
           style="fill: #ffffff"
           id="path11" />
      </g>
      <g
         id="matplotlib.axis_1">
        <g
           id="xtick_1">
          <g
             id="line2d_1">
            <defs
               id="defs15">
              <path
                 id="mbefe625c02"
                 d="M 0 0  L 0 -3.5  "
                 style="stroke: #000000; stroke-width: 0.8" />
            </defs>
            <g
               id="g19">
              <use
                 xlink:href="#mbefe625c02"
                 x="47.747159"
                 y="235.23198"
                 style="stroke: #000000; stroke-width: 0.8"
                 id="use17" />
            </g>
          </g>
          <g
             id="text_1">
            <!-- $\mathdefault{0}$ -->
            <g
               transform="translate(43.845166 250.089292) scale(0.16 -0.16)"
               id="g27">
              <defs
                 id="defs23">
                <path
                   id="CMR17-30"
                   d="M 2688 2038  C 2688 2430 2682 3099 2413 3613  C 2176 4063 1798 4224 1466 4224  C 1158 4224 768 4082 525 3620  C 269 3137 243 2539 243 2038  C 243 1671 250 1112 448 623  C 723 -39 1216 -128 1466 -128  C 1760 -128 2208 -7 2470 604  C 2662 1048 2688 1568 2688 2038  z M 1466 -26  C 1056 -26 813 328 723 816  C 653 1196 653 1749 653 2109  C 653 2604 653 3015 736 3407  C 858 3954 1216 4121 1466 4121  C 1728 4121 2067 3947 2189 3420  C 2272 3054 2278 2623 2278 2109  C 2278 1691 2278 1176 2202 797  C 2067 96 1690 -26 1466 -26  z "
                   transform="scale(0.015625)" />
              </defs>
              <use
                 xlink:href="#CMR17-30"
                 transform="scale(0.996264)"
                 id="use25" />
            </g>
          </g>
        </g>
        <g
           id="xtick_2">
          <g
             id="line2d_2">
            <g
               id="g33">
              <use
                 xlink:href="#mbefe625c02"
                 x="130.210213"
                 y="235.23198"
                 style="stroke: #000000; stroke-width: 0.8"
                 id="use31" />
            </g>
          </g>
          <g
             id="text_2">
            <!-- $\mathdefault{1}$ -->
            <g
               transform="translate(126.30822 250.089292) scale(0.16 -0.16)"
               id="g41">
              <defs
                 id="defs37">
                <path
                   id="CMR17-31"
                   d="M 1702 4083  C 1702 4217 1696 4224 1606 4224  C 1357 3927 979 3833 621 3820  C 602 3820 570 3820 563 3808  C 557 3795 557 3782 557 3648  C 755 3648 1088 3686 1344 3839  L 1344 467  C 1344 243 1331 166 781 166  L 589 166  L 589 0  C 896 6 1216 12 1523 12  C 1830 12 2150 6 2458 0  L 2458 166  L 2266 166  C 1715 166 1702 236 1702 467  L 1702 4083  z "
                   transform="scale(0.015625)" />
              </defs>
              <use
                 xlink:href="#CMR17-31"
                 transform="scale(0.996264)"
                 id="use39" />
            </g>
          </g>
        </g>
        <g
           id="xtick_3">
          <g
             id="line2d_3">
            <g
               id="g47">
              <use
                 xlink:href="#mbefe625c02"
                 x="212.673267"
                 y="235.23198"
                 style="stroke: #000000; stroke-width: 0.8"
                 id="use45" />
            </g>
          </g>
          <g
             id="text_3">
            <!-- $\mathdefault{2}$ -->
            <g
               transform="translate(208.771274 250.089292) scale(0.16 -0.16)"
               id="g55">
              <defs
                 id="defs51">
                <path
                   id="CMR17-32"
                   d="M 2669 990  L 2554 990  C 2490 537 2438 460 2413 422  C 2381 371 1920 371 1830 371  L 602 371  C 832 620 1280 1073 1824 1596  C 2214 1966 2669 2400 2669 3033  C 2669 3788 2067 4224 1395 4224  C 691 4224 262 3603 262 3027  C 262 2777 448 2745 525 2745  C 589 2745 781 2783 781 3007  C 781 3206 614 3264 525 3264  C 486 3264 448 3257 422 3244  C 544 3788 915 4057 1306 4057  C 1862 4057 2227 3616 2227 3033  C 2227 2477 1901 1998 1536 1583  L 262 147  L 262 0  L 2515 0  L 2669 990  z "
                   transform="scale(0.015625)" />
              </defs>
              <use
                 xlink:href="#CMR17-32"
                 transform="scale(0.996264)"
                 id="use53" />
            </g>
          </g>
        </g>
        <g
           id="text_4">
          <!-- $\Omega/\omega_{_{D}}$ -->
          <g
             transform="translate(134.970951 264.445246) scale(0.14 -0.14)"
             id="g73">
            <defs
               id="defs63">
              <path
                 id="CMR17-a"
                 d="M 4038 935  L 3923 935  C 3866 640 3846 563 3814 461  C 3782 364 3763 313 3392 313  L 2874 313  C 2944 685 3098 961 3366 1390  C 3699 1935 3974 2377 3974 2909  C 3974 3775 3155 4480 2138 4480  C 1094 4480 294 3768 294 2909  C 294 2377 576 1922 890 1416  C 1171 961 1325 685 1395 313  L 877 313  C 512 313 493 364 461 454  C 422 557 410 640 346 935  L 230 935  L 416 0  L 1382 0  C 1517 0 1523 6 1523 102  C 1523 557 1286 1153 1178 1428  C 973 1928 781 2416 781 2916  C 781 3871 1466 4377 2131 4377  C 2829 4377 3488 3852 3488 2916  C 3488 2422 3315 1980 3078 1396  C 2976 1134 2746 550 2746 102  C 2746 0 2752 0 2886 0  L 3853 0  L 4038 935  z "
                 transform="scale(0.015625)" />
              <path
                 id="CMMI12-3d"
                 d="M 2746 4563  C 2746 4569 2784 4665 2784 4678  C 2784 4755 2720 4800 2669 4800  C 2637 4800 2579 4800 2528 4659  L 384 -1364  C 384 -1370 346 -1466 346 -1479  C 346 -1556 410 -1600 461 -1600  C 499 -1600 557 -1594 602 -1460  L 2746 4563  z "
                 transform="scale(0.015625)" />
              <path
                 id="CMMI12-21"
                 d="M 3802 2406  C 3802 2592 3750 2828 3526 2828  C 3398 2828 3251 2668 3251 2540  C 3251 2483 3277 2444 3328 2387  C 3424 2278 3546 2105 3546 1804  C 3546 1574 3405 1209 3302 1011  C 3123 659 2829 358 2496 358  C 2093 358 1939 614 1869 972  C 1939 1139 2086 1555 2086 1721  C 2086 1792 2061 1849 1978 1849  C 1933 1849 1882 1824 1850 1772  C 1760 1632 1677 1126 1683 992  C 1562 755 1216 358 806 358  C 378 358 262 736 262 1100  C 262 1766 678 2348 794 2508  C 858 2604 902 2668 902 2681  C 902 2726 877 2796 819 2796  C 717 2796 685 2713 634 2636  C 307 2131 77 1420 77 806  C 77 409 224 -64 704 -64  C 1235 -64 1568 390 1702 633  C 1754 275 1946 -64 2413 -64  C 2899 -64 3206 364 3437 883  C 3603 1254 3802 2054 3802 2406  z "
                 transform="scale(0.015625)" />
              <path
                 id="CMMI12-44"
                 d="M 1005 472  C 947 249 934 185 486 185  C 365 185 301 185 301 70  C 301 0 339 0 467 0  L 2496 0  C 3789 0 5050 1332 5050 2752  C 5050 3669 4499 4352 3584 4352  L 1530 4352  C 1408 4352 1350 4352 1350 4230  C 1350 4166 1408 4166 1504 4166  C 1894 4166 1894 4115 1894 4045  C 1894 4032 1894 3994 1869 3898  L 1005 472  z M 2355 3917  C 2413 4153 2438 4166 2688 4166  L 3392 4166  C 3994 4166 4544 3841 4544 2962  C 4544 2644 4416 1535 3795 835  C 3616 625 3130 185 2394 185  L 1664 185  C 1574 185 1562 185 1523 191  C 1453 198 1446 211 1446 262  C 1446 306 1459 344 1472 402  L 2355 3917  z "
                 transform="scale(0.015625)" />
            </defs>
            <use
               xlink:href="#CMR17-a"
               transform="scale(0.996264)"
               id="use65" />
            <use
               xlink:href="#CMMI12-3d"
               transform="translate(66.509881 0) scale(0.996264)"
               id="use67" />
            <use
               xlink:href="#CMMI12-21"
               transform="translate(115.284799 0) scale(0.996264)"
               id="use69" />
          </g>
        </g>
      </g>
      <g
         id="matplotlib.axis_2">
        <g
           id="ytick_1">
          <g
             id="line2d_4">
            <defs
               id="defs78">
              <path
                 id="m1b941eb2bb"
                 d="M 0 0  L 3.5 0  "
                 style="stroke: #000000; stroke-width: 0.8" />
            </defs>
            <g
               id="g82">
              <use
                 xlink:href="#m1b941eb2bb"
                 x="47.747159"
                 y="200.391608"
                 style="stroke: #000000; stroke-width: 0.8"
                 id="use80" />
            </g>
          </g>
          <g
             id="text_5">
            <!-- $\mathdefault{10^{-3}}$ -->
            <g
               transform="translate(14.38157 206.070264) scale(0.16 -0.16)"
               id="g97">
              <defs
                 id="defs87">
                <path
                   id="CMSY10-0"
                   d="M 4218 1472  C 4326 1472 4442 1472 4442 1600  C 4442 1728 4326 1728 4218 1728  L 755 1728  C 646 1728 531 1728 531 1600  C 531 1472 646 1472 755 1472  L 4218 1472  z "
                   transform="scale(0.015625)" />
                <path
                   id="CMR17-33"
                   d="M 1414 2176  C 1984 2176 2234 1673 2234 1094  C 2234 322 1824 25 1453 25  C 1114 25 563 193 390 691  C 422 678 454 678 486 678  C 640 678 755 780 755 947  C 755 1132 614 1216 486 1216  C 378 1216 211 1164 211 927  C 211 335 787 -128 1466 -128  C 2176 -128 2720 432 2720 1087  C 2720 1718 2208 2176 1600 2246  C 2086 2347 2554 2776 2554 3353  C 2554 3856 2048 4224 1472 4224  C 890 4224 378 3862 378 3347  C 378 3123 544 3084 627 3084  C 762 3084 877 3167 877 3334  C 877 3500 762 3584 627 3584  C 602 3584 570 3584 544 3571  C 730 3999 1235 4076 1459 4076  C 1683 4076 2106 3966 2106 3347  C 2106 3167 2080 2851 1862 2574  C 1670 2329 1453 2316 1242 2297  C 1210 2297 1062 2284 1037 2284  C 992 2278 966 2272 966 2227  C 966 2182 973 2176 1101 2176  L 1414 2176  z "
                   transform="scale(0.015625)" />
              </defs>
              <use
                 xlink:href="#CMR17-31"
                 transform="scale(0.996264)"
                 id="use89" />
              <use
                 xlink:href="#CMR17-30"
                 transform="translate(45.690477 0) scale(0.996264)"
                 id="use91" />
              <use
                 xlink:href="#CMSY10-0"
                 transform="translate(91.380954 36.153639) scale(0.697382)"
                 id="use93" />
              <use
                 xlink:href="#CMR17-33"
                 transform="translate(145.621947 36.153639) scale(0.697382)"
                 id="use95" />
            </g>
          </g>
        </g>
        <g
           id="ytick_2">
          <g
             id="line2d_5">
            <g
               id="g103">
              <use
                 xlink:href="#m1b941eb2bb"
                 x="47.747159"
                 y="148.153852"
                 style="stroke: #000000; stroke-width: 0.8"
                 id="use101" />
            </g>
          </g>
          <g
             id="text_6">
            <!-- $\mathdefault{10^{-1}}$ -->
            <g
               transform="translate(14.38157 153.832508) scale(0.16 -0.16)"
               id="g114">
              <use
                 xlink:href="#CMR17-31"
                 transform="scale(0.996264)"
                 id="use106" />
              <use
                 xlink:href="#CMR17-30"
                 transform="translate(45.690477 0) scale(0.996264)"
                 id="use108" />
              <use
                 xlink:href="#CMSY10-0"
                 transform="translate(91.380954 36.153639) scale(0.697382)"
                 id="use110" />
              <use
                 xlink:href="#CMR17-31"
                 transform="translate(145.621947 36.153639) scale(0.697382)"
                 id="use112" />
            </g>
          </g>
        </g>
        <g
           id="ytick_3">
          <g
             id="line2d_6">
            <g
               id="g120">
              <use
                 xlink:href="#m1b941eb2bb"
                 x="47.747159"
                 y="95.916096"
                 style="stroke: #000000; stroke-width: 0.8"
                 id="use118" />
            </g>
          </g>
          <g
             id="text_7">
            <!-- $\mathdefault{10^{1}}$ -->
            <g
               transform="translate(23.060116 101.594752) scale(0.16 -0.16)"
               id="g129">
              <use
                 xlink:href="#CMR17-31"
                 transform="scale(0.996264)"
                 id="use123" />
              <use
                 xlink:href="#CMR17-30"
                 transform="translate(45.690477 0) scale(0.996264)"
                 id="use125" />
              <use
                 xlink:href="#CMR17-31"
                 transform="translate(91.380954 36.153639) scale(0.697382)"
                 id="use127" />
            </g>
          </g>
        </g>
        <g
           id="ytick_4">
          <g
             id="line2d_7">
            <g
               id="g135">
              <use
                 xlink:href="#m1b941eb2bb"
                 x="47.747159"
                 y="43.67834"
                 style="stroke: #000000; stroke-width: 0.8"
                 id="use133" />
            </g>
          </g>
          <g
             id="text_8">
            <!-- $\mathdefault{10^{3}}$ -->
            <g
               transform="translate(23.060116 49.356996) scale(0.16 -0.16)"
               id="g144">
              <use
                 xlink:href="#CMR17-31"
                 transform="scale(0.996264)"
                 id="use138" />
              <use
                 xlink:href="#CMR17-30"
                 transform="translate(45.690477 0) scale(0.996264)"
                 id="use140" />
              <use
                 xlink:href="#CMR17-33"
                 transform="translate(91.380954 36.153639) scale(0.697382)"
                 id="use142" />
            </g>
          </g>
        </g>
        <g
           id="text_9">
          <!-- $M^z_{_{A}}$ -->
          <g
             transform="translate(9.530925 134.020055) rotate(-90) scale(0.14 -0.14)"
             id="g159">
            <defs
               id="defs151">
              <path
                 id="CMMI12-4d"
                 d="M 5811 3886  C 5869 4102 5882 4166 6336 4166  C 6458 4166 6515 4166 6515 4287  C 6515 4352 6470 4352 6349 4352  L 5581 4352  C 5421 4352 5414 4345 5344 4243  L 3008 567  L 2528 4211  C 2509 4352 2502 4352 2336 4352  L 1542 4352  C 1421 4352 1363 4352 1363 4230  C 1363 4166 1421 4166 1517 4166  C 1907 4166 1907 4115 1907 4045  C 1907 4032 1907 3994 1882 3898  L 1062 650  C 986 344 838 204 410 185  C 390 185 314 179 314 70  C 314 0 371 0 397 0  C 525 0 851 12 979 12  L 1286 12  C 1376 12 1485 0 1574 0  C 1619 0 1690 0 1690 121  C 1690 179 1626 185 1600 185  C 1389 191 1184 230 1184 459  C 1184 523 1184 529 1210 618  L 2093 4128  L 2099 4128  L 2630 172  C 2650 19 2656 0 2714 0  C 2784 0 2816 51 2848 108  L 5421 4159  L 5427 4159  L 4499 472  C 4442 249 4429 185 3981 185  C 3859 185 3795 185 3795 70  C 3795 0 3853 0 3891 0  C 4000 0 4128 12 4237 12  L 4992 12  C 5101 12 5235 0 5344 0  C 5395 0 5466 0 5466 121  C 5466 185 5408 185 5312 185  C 4922 185 4922 236 4922 300  C 4922 306 4922 351 4934 402  L 5811 3886  z "
                 transform="scale(0.015625)" />
              <path
                 id="CMMI12-7a"
                 d="M 813 486  C 1088 809 1312 1015 1632 1313  C 2016 1657 2182 1822 2272 1922  C 2720 2371 2944 2713 2944 2764  C 2944 2816 2893 2816 2880 2816  C 2835 2816 2822 2790 2790 2745  C 2630 2470 2477 2368 2310 2368  C 2176 2368 2106 2403 1984 2547  C 1850 2707 1741 2816 1555 2816  C 1088 2816 806 2265 806 2127  C 806 2107 813 2067 870 2067  C 922 2067 928 2094 947 2140  C 1056 2387 1363 2415 1485 2415  C 1619 2415 1747 2387 1882 2342  C 2125 2239 2227 2239 2291 2239  C 2336 2239 2362 2239 2394 2246  C 2182 1988 1837 1670 1549 1399  L 902 783  C 512 380 275 32 275 -13  C 275 -52 307 -64 346 -64  C 384 -64 390 -58 435 19  C 538 179 742 384 979 384  C 1114 384 1178 356 1306 211  C 1427 70 1536 -64 1741 -64  C 2368 -64 2726 723 2726 876  C 2726 902 2720 942 2656 942  C 2605 942 2598 915 2579 849  C 2438 460 2061 336 1811 336  C 1677 336 1549 364 1414 409  C 1158 512 1088 512 1005 512  C 941 512 870 512 813 486  z "
                 transform="scale(0.015625)" />
              <path
                 id="CMMI12-41"
                 d="M 1088 720  C 864 335 646 205 339 185  C 269 179 218 179 218 64  C 218 25 250 0 294 0  C 410 0 698 12 813 12  C 998 12 1203 0 1382 0  C 1421 0 1498 0 1498 121  C 1498 179 1446 185 1408 185  C 1261 198 1139 250 1139 407  C 1139 498 1178 570 1261 714  L 1747 1536  L 3379 1536  C 3386 1477 3386 1425 3392 1366  C 3411 1196 3488 518 3488 394  C 3488 198 3162 185 3059 185  C 2989 185 2918 185 2918 70  C 2918 0 2976 0 3014 0  C 3123 0 3251 12 3360 12  L 3725 12  C 4115 12 4397 0 4403 0  C 4448 0 4518 0 4518 121  C 4518 185 4461 185 4365 185  C 4013 185 4006 244 3987 440  L 3597 4403  C 3584 4531 3558 4544 3488 4544  C 3424 4544 3386 4531 3328 4435  L 1088 720  z M 1856 1721  L 3142 3831  L 3360 1721  L 1856 1721  z "
                 transform="scale(0.015625)" />
            </defs>
            <use
               xlink:href="#CMMI12-4d"
               transform="scale(0.996264)"
               id="use153" />
            <use
               xlink:href="#CMMI12-7a"
               transform="translate(104.780079 36.153639) scale(0.697382)"
               id="use155" />
            <use
               xlink:href="#CMMI12-41"
               transform="translate(94.373425 -35.090046) scale(0.498132)"
               id="use157" />
          </g>
        </g>
      </g>
      <g
         id="line2d_8">
        <path
           d="M 47.747159 57.745  L 51.870312 93.79229  L 55.993465 91.927411  L 60.116617 78.550068  L 64.23977 89.731381  L 68.362923 92.93532  L 72.486075 93.464812  L 76.609228 86.004605  L 80.732381 99.286814  L 84.855533 92.722785  L 88.978686 23.55198  L 93.101839 106.545028  L 101.348144 88.162711  L 105.471297 107.738409  L 109.59445 101.892323  L 113.717602 95.466947  L 117.840755 81.946234  L 121.963908 93.600389  L 126.087061 96.354807  L 130.210213 62.169702  L 134.333366 93.968485  L 138.456519 98.832774  L 142.579671 85.440058  L 146.702824 95.624933  L 150.825977 99.012201  L 154.94913 99.826848  L 159.072282 91.177023  L 163.195435 110.96311  L 167.318588 104.830072  L 171.44174 42.219801  L 175.564893 109.570379  L 179.688046 110.53482  L 183.811198 107.685005  L 187.934351 110.059859  L 192.057504 107.617759  L 196.180657 103.018702  L 200.303809 89.89628  L 204.426962 102.219094  L 208.550115 108.849959  L 212.673267 71.810935  L 216.79642 107.687886  L 220.919573 107.196414  L 225.042726 95.032096  L 229.165878 107.186403  L 233.289031 111.968581  L 237.412184 114.864844  L 241.535336 116.595141  L 245.658489 117.818996  L 249.781642 115.715358  L 253.904795 66.112024  L 258.027947 119.015795  L 262.1511 123.355952  L 266.274253 123.657275  L 270.397405 125.662584  L 274.520558 126.073064  L 278.643711 125.711975  L 282.766864 121.609334  L 286.890016 147.641474  L 291.013169 133.799665  L 295.136322 121.072043  L 299.259474 135.852479  L 303.382627 131.515608  L 307.50578 123.80118  L 311.628932 133.258162  L 315.752085 135.635355  L 319.875238 136.058058  L 323.998391 135.669599  L 328.121543 138.655063  L 332.244696 131.579219  L 336.367849 75.400505  L 340.491001 129.840259  L 344.614154 133.741912  L 348.737307 129.6798  L 352.86046 132.552871  L 356.983612 129.641683  L 361.106765 124.1452  L 365.229918 110.841513  L 369.35307 121.213521  L 373.476223 127.263849  L 377.599376 90.079826  L 381.722529 122.740084  L 385.845681 125.67788  L 389.968834 111.355305  L 394.091987 122.28834  L 398.215139 126.063796  L 402.338292 127.881705  L 406.461445 126.584022  L 410.584598 134.087098  L 414.70775 131.445764  L 418.830903 88.566439  L 422.954056 132.401025  L 427.077208 135.68343  L 431.200361 134.693063  L 435.323514 136.209256  L 439.446666 136.490112  L 443.569819 136.229246  L 447.692972 133.35365  L 451.816125 149.270905  L 455.939277 144.601952  L 460.06243 139.623563  L 464.185583 142.141474  L 467.247159 141.174799  M 467.247159 141.174799  L 464.185583 142.141474  L 460.06243 139.623563  L 455.939277 144.601952  L 451.816125 149.270905  L 447.692972 133.35365  L 443.569819 136.229246  L 439.446666 136.490112  L 435.323514 136.209256  L 431.200361 134.693063  L 427.077208 135.68343  L 422.954056 132.401025  L 418.830903 88.566439  L 414.70775 131.445764  L 410.584598 134.087098  L 406.461445 126.584022  L 402.338292 127.881705  L 398.215139 126.063796  L 394.091987 122.28834  L 389.968834 111.355305  L 385.845681 125.67788  L 381.722529 122.740084  L 377.599376 90.079826  L 373.476223 127.263849  L 369.35307 121.213521  L 365.229918 110.841513  L 361.106765 124.1452  L 356.983612 129.641683  L 352.86046 132.552871  L 348.737307 129.6798  L 344.614154 133.741912  L 340.491001 129.840259  L 336.367849 75.400505  L 332.244696 131.579219  L 328.121543 138.655063  L 323.998391 135.669599  L 319.875238 136.058058  L 315.752085 135.635355  L 311.628932 133.258162  L 307.50578 123.80118  L 303.382627 131.515608  L 299.259474 135.852479  L 295.136322 121.072043  L 291.013169 133.799665  L 286.890016 147.641474  L 282.766864 121.609334  L 278.643711 125.711975  L 274.520558 126.073064  L 270.397405 125.662584  L 266.274253 123.657275  L 262.1511 123.355952  L 258.027947 119.015795  L 253.904795 66.112024  L 249.781642 115.715358  L 245.658489 117.818996  L 241.535336 116.595141  L 237.412184 114.864844  L 233.289031 111.968581  L 229.165878 107.186403  L 225.042726 95.032096  L 220.919573 107.196414  L 216.79642 107.687886  L 212.673267 71.810935  L 208.550115 108.849959  L 204.426962 102.219094  L 200.303809 89.89628  L 196.180657 103.018702  L 192.057504 107.617759  L 187.934351 110.059859  L 183.811198 107.685005  L 179.688046 110.53482  L 175.564893 109.570379  L 171.44174 42.219801  L 167.318588 104.830072  L 163.195435 110.96311  L 159.072282 91.177023  L 154.94913 99.826848  L 150.825977 99.012201  L 146.702824 95.624933  L 142.579671 85.440058  L 138.456519 98.832774  L 134.333366 93.968485  L 130.210213 62.169702  L 126.087061 96.354807  L 121.963908 93.600389  L 117.840755 81.946234  L 113.717602 95.466947  L 109.59445 101.892323  L 105.471297 107.738409  L 101.348144 88.162711  L 93.101839 106.545028  L 88.978686 23.55198  L 84.855533 92.722785  L 80.732381 99.286814  L 76.609228 86.004605  L 72.486075 93.464812  L 68.362923 92.93532  L 64.23977 89.731381  L 60.116617 78.550068  L 55.993465 91.927411  L 51.870312 93.79229  L 51.870312 93.79229  "
           clip-path="url(#pf0a62bca1a)"
           style="fill: none; stroke: #1f77b4; stroke-width: 1.5; stroke-linecap: square"
           id="path163" />
      </g>
      <g
         id="line2d_9">
        <path
           d="M 47.747159 50.809506  L 51.870312 62.442264  L 55.993465 70.326342  L 60.116617 72.417025  L 64.23977 73.879356  L 68.362923 73.996953  L 72.486075 73.194239  L 76.609228 71.30944  L 80.732381 68.16507  L 84.855533 60.641532  L 88.978686 24.052092  L 93.101839 68.86386  L 97.224992 79.42638  L 101.348144 87.688988  L 105.471297 101.75412  L 109.59445 100.911795  L 113.717602 89.907878  L 117.840755 82.750836  L 121.963908 77.572724  L 126.087061 67.118496  L 130.210213 54.322911  L 134.333366 66.110983  L 138.456519 74.748252  L 142.579671 78.343789  L 146.702824 81.608445  L 150.825977 83.643386  L 154.94913 84.698267  L 159.072282 84.317338  L 163.195435 82.421269  L 167.318588 74.838274  L 171.44174 42.503431  L 175.564893 81.57284  L 179.688046 88.397284  L 183.811198 92.364056  L 187.934351 94.944093  L 192.057504 96.157054  L 196.180657 95.396538  L 200.303809 91.978324  L 204.426962 88.088982  L 208.550115 77.650544  L 212.673267 64.651318  L 216.79642 76.007171  L 220.919573 84.075105  L 225.042726 87.255586  L 229.165878 90.138861  L 233.289031 92.08262  L 237.412184 93.499726  L 241.535336 94.408063  L 245.658489 94.417918  L 249.781642 90.836394  L 253.904795 66.261343  L 258.027947 95.745803  L 262.1511 99.478996  L 266.274253 100.983723  L 270.397405 102.006725  L 278.643711 103.651551  L 282.766864 104.204461  L 286.890016 105.623233  L 291.013169 106.566899  L 295.136322 105.949572  L 299.259474 105.46224  L 303.382627 107.081788  L 307.50578 108.314993  L 311.628932 109.400177  L 315.752085 110.699283  L 319.875238 112.416953  L 323.998391 115.116159  L 328.121543 120.884678  L 332.244696 111.076938  L 336.367849 75.021117  L 340.491001 102.199182  L 344.614154 106.562886  L 348.737307 109.141152  L 352.86046 111.358294  L 356.983612 113.751428  L 361.106765 116.420907  L 365.229918 116.580116  L 369.35307 111.915972  L 373.476223 97.738689  L 377.599376 82.601449  L 381.722529 92.368598  L 385.845681 99.083888  L 389.968834 101.488204  L 394.091987 103.606201  L 398.215139 105.016366  L 402.338292 106.086421  L 406.461445 106.88082  L 410.584598 107.456328  L 414.70775 105.668576  L 418.830903 87.726365  L 422.954056 104.942141  L 427.077208 107.935331  L 431.200361 109.090286  L 435.323514 109.874706  L 443.569819 111.043714  L 447.692972 111.497398  L 455.939277 112.971522  L 460.06243 112.174653  L 464.185583 112.402415  L 467.247159 113.090429  M 467.247159 113.090429  L 464.185583 112.402415  L 460.06243 112.174653  L 455.939277 112.971522  L 447.692972 111.497398  L 439.446666 110.495486  L 435.323514 109.874706  L 431.200361 109.090286  L 427.077208 107.935331  L 422.954056 104.942141  L 418.830903 87.726365  L 414.70775 105.668576  L 410.584598 107.456328  L 406.461445 106.88082  L 402.338292 106.086421  L 398.215139 105.016366  L 394.091987 103.606201  L 389.968834 101.488204  L 385.845681 99.083888  L 381.722529 92.368598  L 377.599376 82.601449  L 373.476223 97.738689  L 369.35307 111.915972  L 365.229918 116.580116  L 361.106765 116.420907  L 356.983612 113.751428  L 352.86046 111.358294  L 348.737307 109.141152  L 344.614154 106.562886  L 340.491001 102.199182  L 336.367849 75.021117  L 332.244696 111.076938  L 328.121543 120.884678  L 323.998391 115.116159  L 319.875238 112.416953  L 315.752085 110.699283  L 311.628932 109.400177  L 307.50578 108.314993  L 303.382627 107.081788  L 299.259474 105.46224  L 295.136322 105.949572  L 291.013169 106.566899  L 286.890016 105.623233  L 282.766864 104.204461  L 278.643711 103.651551  L 270.397405 102.006725  L 266.274253 100.983723  L 262.1511 99.478996  L 258.027947 95.745803  L 253.904795 66.261343  L 249.781642 90.836394  L 245.658489 94.417918  L 241.535336 94.408063  L 237.412184 93.499726  L 233.289031 92.08262  L 229.165878 90.138861  L 225.042726 87.255586  L 220.919573 84.075105  L 216.79642 76.007171  L 212.673267 64.651318  L 208.550115 77.650544  L 204.426962 88.088982  L 200.303809 91.978324  L 196.180657 95.396538  L 192.057504 96.157054  L 187.934351 94.944093  L 183.811198 92.364056  L 179.688046 88.397284  L 175.564893 81.57284  L 171.44174 42.503431  L 167.318588 74.838274  L 163.195435 82.421269  L 159.072282 84.317338  L 154.94913 84.698267  L 150.825977 83.643386  L 146.702824 81.608445  L 142.579671 78.343789  L 138.456519 74.748252  L 134.333366 66.110983  L 130.210213 54.322911  L 126.087061 67.118496  L 121.963908 77.572724  L 117.840755 82.750836  L 113.717602 89.907878  L 109.59445 100.911795  L 105.471297 101.75412  L 101.348144 87.688988  L 97.224992 79.42638  L 93.101839 68.86386  L 88.978686 24.052092  L 84.855533 60.641532  L 80.732381 68.16507  L 76.609228 71.30944  L 72.486075 73.194239  L 68.362923 73.996953  L 64.23977 73.879356  L 60.116617 72.417025  L 55.993465 70.326342  L 51.870312 62.442264  L 51.870312 62.442264  "
           clip-path="url(#pf0a62bca1a)"
           style="fill: none; stroke: #ff7f0e; stroke-width: 1.5; stroke-linecap: square"
           id="path166" />
      </g>
      <g
         id="line2d_10">
        <path
           d="M 47.747159 50.739661  L 51.870312 61.862319  L 55.993465 69.277583  L 60.116617 71.782845  L 64.23977 72.768891  L 68.362923 72.65336  L 72.486075 71.686051  L 76.609228 69.73787  L 80.732381 66.300232  L 84.855533 58.729318  L 88.978686 24.186583  L 93.101839 66.012228  L 97.224992 75.912467  L 101.348144 83.84313  L 105.471297 93.493267  L 109.59445 102.324286  L 113.717602 91.422952  L 117.840755 83.61762  L 121.963908 76.90375  L 126.087061 66.568266  L 130.210213 54.017994  L 134.333366 65.3544  L 138.456519 73.732819  L 142.579671 77.916127  L 146.702824 80.922514  L 150.825977 82.909289  L 154.94913 83.93601  L 159.072282 83.598398  L 163.195435 81.125926  L 167.318588 73.345602  L 171.44174 42.593025  L 175.564893 79.579596  L 179.688046 86.216951  L 183.811198 90.399591  L 187.934351 93.44333  L 192.057504 95.49418  L 196.180657 95.796372  L 200.303809 93.177807  L 204.426962 87.901184  L 208.550115 77.43222  L 212.673267 64.510852  L 216.79642 75.228021  L 220.919573 82.860558  L 225.042726 86.459672  L 229.165878 88.996047  L 233.289031 90.793003  L 237.412184 92.107361  L 241.535336 92.938336  L 245.658489 92.902867  L 249.781642 89.354489  L 253.904795 66.269109  L 258.027947 94.034868  L 262.1511 97.605994  L 266.274253 99.062897  L 270.397405 100.050829  L 278.643711 101.64075  L 282.766864 102.340329  L 291.013169 104.269951  L 295.136322 104.134653  L 299.259474 103.537706  L 303.382627 104.977503  L 311.628932 107.072521  L 315.752085 108.301568  L 319.875238 109.948164  L 323.998391 112.623557  L 328.121543 119.028301  L 332.244696 111.083618  L 336.367849 74.918367  L 340.491001 99.963929  L 344.614154 104.025099  L 348.737307 106.445901  L 352.86046 108.515523  L 356.983612 110.775247  L 361.106765 113.714047  L 365.229918 117.141142  L 369.35307 113.055637  L 377.599376 82.396676  L 381.722529 91.352213  L 385.845681 97.582484  L 389.968834 100.264761  L 394.091987 102.079718  L 398.215139 103.360872  L 402.338292 104.352183  L 406.461445 105.12931  L 410.584598 105.629834  L 414.70775 104.110171  L 418.830903 87.505952  L 422.954056 103.058895  L 427.077208 105.847162  L 431.200361 106.95065  L 435.323514 107.678987  L 443.569819 108.776813  L 451.816125 109.819747  L 455.939277 110.491053  L 460.06243 109.795904  L 464.185583 110.080032  L 467.247159 110.713652  M 467.247159 110.713652  L 464.185583 110.080032  L 460.06243 109.795904  L 455.939277 110.491053  L 447.692972 109.256134  L 439.446666 108.260265  L 435.323514 107.678987  L 431.200361 106.95065  L 427.077208 105.847162  L 422.954056 103.058895  L 418.830903 87.505952  L 414.70775 104.110171  L 410.584598 105.629834  L 406.461445 105.12931  L 402.338292 104.352183  L 398.215139 103.360872  L 394.091987 102.079718  L 389.968834 100.264761  L 385.845681 97.582484  L 381.722529 91.352213  L 377.599376 82.396676  L 369.35307 113.055637  L 365.229918 117.141142  L 361.106765 113.714047  L 356.983612 110.775247  L 352.86046 108.515523  L 348.737307 106.445901  L 344.614154 104.025099  L 340.491001 99.963929  L 336.367849 74.918367  L 332.244696 111.083618  L 328.121543 119.028301  L 323.998391 112.623557  L 319.875238 109.948164  L 315.752085 108.301568  L 311.628932 107.072521  L 303.382627 104.977503  L 299.259474 103.537706  L 295.136322 104.134653  L 291.013169 104.269951  L 282.766864 102.340329  L 274.520558 100.878192  L 270.397405 100.050829  L 266.274253 99.062897  L 262.1511 97.605994  L 258.027947 94.034868  L 253.904795 66.269109  L 249.781642 89.354489  L 245.658489 92.902867  L 241.535336 92.938336  L 237.412184 92.107361  L 233.289031 90.793003  L 229.165878 88.996047  L 225.042726 86.459672  L 220.919573 82.860558  L 216.79642 75.228021  L 212.673267 64.510852  L 208.550115 77.43222  L 204.426962 87.901184  L 200.303809 93.177807  L 196.180657 95.796372  L 192.057504 95.49418  L 187.934351 93.44333  L 183.811198 90.399591  L 179.688046 86.216951  L 175.564893 79.579596  L 171.44174 42.593025  L 167.318588 73.345602  L 163.195435 81.125926  L 159.072282 83.598398  L 154.94913 83.93601  L 150.825977 82.909289  L 146.702824 80.922514  L 142.579671 77.916127  L 138.456519 73.732819  L 134.333366 65.3544  L 130.210213 54.017994  L 126.087061 66.568266  L 121.963908 76.90375  L 117.840755 83.61762  L 113.717602 91.422952  L 109.59445 102.324286  L 105.471297 93.493267  L 101.348144 83.84313  L 97.224992 75.912467  L 93.101839 66.012228  L 88.978686 24.186583  L 84.855533 58.729318  L 80.732381 66.300232  L 76.609228 69.73787  L 72.486075 71.686051  L 68.362923 72.65336  L 64.23977 72.768891  L 60.116617 71.782845  L 55.993465 69.277583  L 51.870312 61.862319  L 51.870312 61.862319  "
           clip-path="url(#pf0a62bca1a)"
           style="fill: none; stroke: #2ca02c; stroke-width: 1.5; stroke-linecap: square"
           id="path169" />
      </g>
      <g
         id="line2d_11">
        <path
           d="M 47.747159 51.007309  L 51.870312 61.971906  L 55.993465 69.109974  L 60.116617 71.618407  L 64.23977 72.375077  L 68.362923 72.124511  L 72.486075 71.057863  L 76.609228 69.04636  L 80.732381 65.479966  L 84.855533 57.885964  L 88.978686 24.254723  L 93.101839 64.695329  L 97.224992 74.300759  L 101.348144 81.878931  L 105.471297 90.18552  L 109.59445 100.184644  L 113.717602 92.92047  L 117.840755 84.527401  L 121.963908 77.095367  L 126.087061 66.717101  L 130.210213 54.134911  L 134.333366 65.334219  L 138.456519 73.570992  L 142.579671 77.930605  L 146.702824 80.836674  L 150.825977 82.790337  L 154.94913 83.776562  L 159.072282 83.379828  L 163.195435 80.614877  L 167.318588 72.690975  L 171.44174 42.636283  L 175.564893 78.475004  L 179.688046 85.033407  L 183.811198 89.260368  L 187.934351 92.471364  L 192.057504 94.946355  L 196.180657 96.045361  L 200.303809 94.146883  L 204.426962 88.458442  L 208.550115 77.821972  L 212.673267 64.727491  L 216.79642 75.193267  L 220.919573 82.581024  L 225.042726 86.243866  L 229.165878 88.629519  L 233.289031 90.345723  L 237.412184 91.60143  L 241.535336 92.389733  L 245.658489 92.301936  L 249.781642 88.737332  L 253.904795 66.258872  L 258.027947 93.12374  L 262.1511 96.6931  L 266.274253 98.165854  L 270.397405 99.151418  L 278.643711 100.720765  L 286.890016 102.243088  L 291.013169 103.24254  L 295.136322 103.297024  L 299.259474 102.704947  L 303.382627 104.037584  L 311.628932 106.035112  L 315.752085 107.239042  L 319.875238 108.865213  L 323.998391 111.549633  L 328.121543 118.329512  L 332.244696 111.164959  L 336.367849 74.84684  L 340.491001 98.735648  L 344.614154 102.703652  L 348.737307 105.036837  L 352.86046 107.00601  L 356.983612 109.122388  L 361.106765 111.921877  L 365.229918 116.131027  L 369.35307 114.691483  L 377.599376 82.573461  L 381.722529 91.150987  L 385.845681 97.100315  L 389.968834 99.794015  L 394.091987 101.477018  L 398.215139 102.688556  L 402.338292 103.635796  L 406.461445 104.396232  L 410.584598 104.871883  L 414.70775 103.479683  L 418.830903 87.372456  L 422.954056 102.165216  L 427.077208 104.880325  L 431.200361 105.969888  L 435.323514 106.677265  L 443.569819 107.739886  L 451.816125 108.71202  L 455.939277 109.354047  L 460.06243 108.716553  L 464.185583 109.030968  L 467.247159 109.631987  M 467.247159 109.631987  L 464.185583 109.030968  L 460.06243 108.716553  L 455.939277 109.354047  L 451.816125 108.71202  L 435.323514 106.677265  L 431.200361 105.969888  L 427.077208 104.880325  L 422.954056 102.165216  L 418.830903 87.372456  L 414.70775 103.479683  L 410.584598 104.871883  L 406.461445 104.396232  L 402.338292 103.635796  L 398.215139 102.688556  L 394.091987 101.477018  L 389.968834 99.794015  L 385.845681 97.100315  L 381.722529 91.150987  L 377.599376 82.573461  L 369.35307 114.691483  L 365.229918 116.131027  L 361.106765 111.921877  L 356.983612 109.122388  L 352.86046 107.00601  L 348.737307 105.036837  L 344.614154 102.703652  L 340.491001 98.735648  L 336.367849 74.84684  L 332.244696 111.164959  L 328.121543 118.329512  L 323.998391 111.549633  L 319.875238 108.865213  L 315.752085 107.239042  L 311.628932 106.035112  L 303.382627 104.037584  L 299.259474 102.704947  L 295.136322 103.297024  L 291.013169 103.24254  L 286.890016 102.243088  L 270.397405 99.151418  L 266.274253 98.165854  L 262.1511 96.6931  L 258.027947 93.12374  L 253.904795 66.258872  L 249.781642 88.737332  L 245.658489 92.301936  L 241.535336 92.389733  L 237.412184 91.60143  L 233.289031 90.345723  L 229.165878 88.629519  L 225.042726 86.243866  L 220.919573 82.581024  L 216.79642 75.193267  L 212.673267 64.727491  L 208.550115 77.821972  L 204.426962 88.458442  L 200.303809 94.146883  L 196.180657 96.045361  L 192.057504 94.946355  L 187.934351 92.471364  L 183.811198 89.260368  L 179.688046 85.033407  L 175.564893 78.475004  L 171.44174 42.636283  L 167.318588 72.690975  L 163.195435 80.614877  L 159.072282 83.379828  L 154.94913 83.776562  L 150.825977 82.790337  L 146.702824 80.836674  L 142.579671 77.930605  L 138.456519 73.570992  L 134.333366 65.334219  L 130.210213 54.134911  L 126.087061 66.717101  L 121.963908 77.095367  L 117.840755 84.527401  L 113.717602 92.92047  L 109.59445 100.184644  L 105.471297 90.18552  L 101.348144 81.878931  L 97.224992 74.300759  L 93.101839 64.695329  L 88.978686 24.254723  L 84.855533 57.885964  L 80.732381 65.479966  L 76.609228 69.04636  L 72.486075 71.057863  L 68.362923 72.124511  L 64.23977 72.375077  L 60.116617 71.618407  L 55.993465 69.109974  L 51.870312 61.971906  L 51.870312 61.971906  "
           clip-path="url(#pf0a62bca1a)"
           style="fill: none; stroke: #d62728; stroke-width: 1.5; stroke-linecap: square"
           id="path172" />
      </g>
      <g
         id="patch_3">
        <path
           d="M 47.747159 235.23198  L 47.747159 13.47198  "
           style="fill: none; stroke: #000000; stroke-width: 0.8; stroke-linejoin: miter; stroke-linecap: square"
           id="path175" />
      </g>
      <g
         id="patch_4">
        <path
           d="M 253.904795 235.23198  L 253.904795 13.47198  "
           style="fill: none; stroke: #000000; stroke-width: 0.8; stroke-linejoin: miter; stroke-linecap: square"
           id="path178" />
      </g>
      <g
         id="patch_5">
        <path
           d="M 47.747159 235.23198  L 253.904795 235.23198  "
           style="fill: none; stroke: #000000; stroke-width: 0.8; stroke-linejoin: miter; stroke-linecap: square"
           id="path181" />
      </g>
      <g
         id="patch_6">
        <path
           d="M 47.747159 13.47198  L 253.904795 13.47198  "
           style="fill: none; stroke: #000000; stroke-width: 0.8; stroke-linejoin: miter; stroke-linecap: square"
           id="path184" />
      </g>
      <g
         id="text_10">
        <g
           id="patch_7">
          <path
             d="M 167.48174 50.627132  L 231.640476 50.627132  L 231.640476 30.751964  L 167.48174 30.751964  z "
             style="fill: #ffffff; stroke: #ffffff; stroke-linejoin: miter"
             id="path187" />
        </g>
        <!-- $Site(i=1)$ -->
        <g
           transform="translate(171.44174 43.67834) scale(0.12 -0.12)"
           id="g217">
          <defs
             id="defs197">
            <path
               id="CMMI12-53"
               d="M 4064 4422  C 4064 4480 4019 4480 4006 4480  C 3981 4480 3974 4473 3898 4377  C 3859 4332 3597 4002 3590 3996  C 3379 4409 2957 4480 2688 4480  C 1875 4480 1139 3742 1139 3024  C 1139 2547 1427 2268 1741 2160  C 1811 2134 2189 2033 2381 1988  C 2707 1899 2790 1874 2925 1734  C 2950 1702 3078 1556 3078 1258  C 3078 667 2528 57 1888 57  C 1363 57 781 279 781 991  C 781 1112 806 1264 826 1328  C 826 1347 832 1378 832 1391  C 832 1417 819 1448 768 1448  C 710 1448 704 1436 678 1328  L 352 25  C 352 19 326 -64 326 -71  C 326 -128 378 -128 390 -128  C 416 -128 422 -122 499 -26  L 794 356  C 947 127 1280 -128 1875 -128  C 2701 -128 3456 667 3456 1461  C 3456 1728 3392 1963 3149 2198  C 3014 2331 2899 2363 2310 2516  C 1882 2630 1824 2649 1709 2751  C 1600 2859 1517 3011 1517 3227  C 1517 3761 2061 4307 2669 4307  C 3296 4307 3590 3926 3590 3322  C 3590 3157 3558 2986 3558 2960  C 3558 2903 3610 2903 3629 2903  C 3686 2903 3693 2922 3718 3024  L 4064 4422  z "
               transform="scale(0.015625)" />
            <path
               id="CMMI12-69"
               d="M 1811 913  C 1811 945 1786 970 1747 970  C 1690 970 1683 951 1651 842  C 1485 261 1222 64 1011 64  C 934 64 845 83 845 274  C 845 447 922 638 992 830  L 1440 2017  C 1459 2068 1504 2183 1504 2305  C 1504 2573 1312 2816 998 2816  C 410 2816 173 1890 173 1838  C 173 1813 198 1781 243 1781  C 301 1781 307 1807 333 1896  C 486 2432 730 2687 979 2687  C 1037 2687 1146 2681 1146 2477  C 1146 2311 1062 2100 1011 1960  L 563 772  C 525 670 486 568 486 453  C 486 166 685 -64 992 -64  C 1581 -64 1811 868 1811 913  z M 1760 4012  C 1760 4108 1683 4224 1542 4224  C 1395 4224 1229 4083 1229 3916  C 1229 3756 1363 3705 1440 3705  C 1613 3705 1760 3871 1760 4012  z "
               transform="scale(0.015625)" />
            <path
               id="CMMI12-74"
               d="M 1286 2566  L 1875 2566  C 1997 2566 2061 2566 2061 2681  C 2061 2752 2022 2752 1894 2752  L 1331 2752  L 1568 3664  C 1594 3752 1594 3764 1594 3808  C 1594 3910 1510 3968 1427 3968  C 1376 3968 1229 3948 1178 3746  L 928 2752  L 326 2752  C 198 2752 141 2752 141 2630  C 141 2566 186 2566 307 2566  L 877 2566  L 454 881  C 403 657 384 593 384 510  C 384 210 595 -64 954 -64  C 1600 -64 1946 868 1946 913  C 1946 951 1920 970 1882 970  C 1869 970 1843 970 1830 944  C 1824 938 1818 932 1773 830  C 1638 510 1344 64 973 64  C 781 64 768 223 768 364  C 768 370 768 491 787 568  L 1286 2566  z "
               transform="scale(0.015625)" />
            <path
               id="CMMI12-65"
               d="M 1146 1472  C 1318 1472 1754 1484 2061 1600  C 2547 1786 2592 2160 2592 2275  C 2592 2559 2349 2816 1926 2816  C 1254 2816 288 2205 288 1066  C 288 400 672 -64 1254 -64  C 2125 -64 2675 609 2675 691  C 2675 729 2637 761 2611 761  C 2592 761 2586 755 2528 698  C 2118 159 1510 64 1267 64  C 902 64 710 349 710 818  C 710 907 710 1066 806 1472  L 1146 1472  z M 838 1600  C 1114 2591 1722 2687 1926 2687  C 2208 2687 2400 2520 2400 2275  C 2400 1600 1376 1600 1107 1600  L 838 1600  z "
               transform="scale(0.015625)" />
            <path
               id="CMR17-28"
               d="M 1958 -1562  C 1958 -1556 1958 -1543 1939 -1524  C 1645 -1223 858 -403 858 1596  C 858 3595 1632 4408 1946 4729  C 1946 4735 1958 4748 1958 4767  C 1958 4787 1939 4800 1914 4800  C 1843 4800 1299 4325 986 3620  C 666 2909 576 2218 576 1603  C 576 1141 621 360 1005 -467  C 1312 -1133 1837 -1600 1914 -1600  C 1946 -1600 1958 -1588 1958 -1562  z "
               transform="scale(0.015625)" />
            <path
               id="CMR17-3d"
               d="M 4115 2048  C 4211 2048 4307 2048 4307 2156  C 4307 2272 4198 2272 4090 2272  L 512 2272  C 403 2272 294 2272 294 2156  C 294 2048 390 2048 486 2048  L 4115 2048  z M 4090 927  C 4198 927 4307 927 4307 1043  C 4307 1152 4211 1152 4115 1152  L 486 1152  C 390 1152 294 1152 294 1043  C 294 927 403 927 512 927  L 4090 927  z "
               transform="scale(0.015625)" />
            <path
               id="CMR17-29"
               d="M 1683 1596  C 1683 2057 1638 2839 1254 3665  C 947 4332 422 4800 346 4800  C 326 4800 301 4793 301 4761  C 301 4748 307 4742 314 4729  C 621 4408 1402 3595 1402 1603  C 1402 -396 627 -1210 314 -1530  C 307 -1543 301 -1549 301 -1562  C 301 -1594 326 -1600 346 -1600  C 416 -1600 960 -1127 1274 -422  C 1594 289 1683 981 1683 1596  z "
               transform="scale(0.015625)" />
          </defs>
          <use
             xlink:href="#CMMI12-53"
             transform="scale(0.996264)"
             id="use199" />
          <use
             xlink:href="#CMMI12-69"
             transform="translate(65.794439 0) scale(0.996264)"
             id="use201" />
          <use
             xlink:href="#CMMI12-74"
             transform="translate(99.073041 0) scale(0.996264)"
             id="use203" />
          <use
             xlink:href="#CMMI12-65"
             transform="translate(134.299371 0) scale(0.996264)"
             id="use205" />
          <use
             xlink:href="#CMR17-28"
             transform="translate(179.511372 0) scale(0.996264)"
             id="use207" />
          <use
             xlink:href="#CMMI12-69"
             transform="translate(214.79214 0) scale(0.996264)"
             id="use209" />
          <use
             xlink:href="#CMR17-3d"
             transform="translate(275.744751 0) scale(0.996264)"
             id="use211" />
          <use
             xlink:href="#CMR17-31"
             transform="translate(375.133548 0) scale(0.996264)"
             id="use213" />
          <use
             xlink:href="#CMR17-29"
             transform="translate(420.824025 0) scale(0.996264)"
             id="use215" />
        </g>
      </g>
      <g
         id="text_11">
        <!-- $J_0 = 0.072/T$ -->
        <g
           transform="translate(122.439377 7.47198) scale(0.1 -0.1)"
           id="g246">
          <defs
             id="defs224">
            <path
               id="CMMI12-4a"
               d="M 3418 3911  C 3469 4102 3482 4166 3795 4166  C 3898 4166 3962 4166 3962 4281  C 3962 4352 3904 4352 3878 4352  C 3770 4352 3648 4339 3533 4339  L 3181 4339  C 2912 4339 2630 4352 2362 4352  C 2304 4352 2227 4352 2227 4236  C 2227 4172 2278 4172 2278 4166  L 2438 4166  C 2950 4166 2950 4115 2950 4019  C 2950 4013 2950 3968 2925 3866  L 2189 953  C 2022 304 1594 0 1286 0  C 1069 0 762 99 685 428  C 710 422 742 415 768 415  C 979 415 1146 601 1146 787  C 1146 889 1082 1024 890 1024  C 774 1024 506 959 506 543  C 506 149 838 -128 1299 -128  C 1882 -128 2509 304 2662 908  L 3418 3911  z "
               transform="scale(0.015625)" />
            <path
               id="CMMI12-3a"
               d="M 1178 307  C 1178 492 1024 620 870 620  C 685 620 557 467 557 313  C 557 128 710 0 864 0  C 1050 0 1178 153 1178 307  z "
               transform="scale(0.015625)" />
            <path
               id="CMR17-37"
               d="M 2886 3955  L 2886 4096  L 1382 4096  C 634 4096 621 4166 595 4288  L 480 4288  L 294 3104  L 410 3104  C 429 3226 474 3552 550 3673  C 589 3724 1062 3724 1171 3724  L 2579 3724  L 1869 2670  C 1395 1961 1069 1003 1069 166  C 1069 89 1069 -128 1299 -128  C 1530 -128 1530 89 1530 172  L 1530 466  C 1530 1514 1709 2204 2003 2644  L 2886 3955  z "
               transform="scale(0.015625)" />
            <path
               id="CMMI12-54"
               d="M 2669 3886  C 2707 4038 2720 4096 2816 4121  C 2867 4134 3078 4134 3213 4134  C 3853 4134 4154 4109 4154 3612  C 4154 3516 4128 3274 4090 3038  L 4083 2962  C 4083 2937 4109 2898 4147 2898  C 4211 2898 4211 2930 4230 3032  L 4416 4159  C 4429 4217 4429 4230 4429 4249  C 4429 4319 4390 4319 4262 4319  L 762 4319  C 614 4319 608 4313 570 4198  L 179 3051  C 173 3038 154 2968 154 2962  C 154 2930 179 2898 218 2898  C 269 2898 282 2924 307 3007  C 576 3777 710 4134 1562 4134  L 1990 4134  C 2144 4134 2208 4134 2208 4064  C 2208 4045 2208 4032 2176 3917  L 1318 497  C 1254 249 1242 185 563 185  C 403 185 358 185 358 64  C 358 0 429 0 461 0  C 621 0 787 12 947 12  L 1946 12  C 2106 12 2278 0 2438 0  C 2509 0 2573 0 2573 121  C 2573 185 2528 185 2362 185  C 1786 185 1786 242 1786 338  C 1786 344 1786 389 1811 491  L 2669 3886  z "
               transform="scale(0.015625)" />
          </defs>
          <use
             xlink:href="#CMMI12-4a"
             transform="scale(0.996264)"
             id="use226" />
          <use
             xlink:href="#CMR17-30"
             transform="translate(53.917955 -14.943915) scale(0.697382)"
             id="use228" />
          <use
             xlink:href="#CMR17-3d"
             transform="translate(114.073278 0) scale(0.996264)"
             id="use230" />
          <use
             xlink:href="#CMR17-30"
             transform="translate(213.462075 0) scale(0.996264)"
             id="use232" />
          <use
             xlink:href="#CMMI12-3a"
             transform="translate(259.152552 0) scale(0.996264)"
             id="use234" />
          <use
             xlink:href="#CMR17-30"
             transform="translate(286.249729 0) scale(0.996264)"
             id="use236" />
          <use
             xlink:href="#CMR17-37"
             transform="translate(331.940207 0) scale(0.996264)"
             id="use238" />
          <use
             xlink:href="#CMR17-32"
             transform="translate(377.630684 0) scale(0.996264)"
             id="use240" />
          <use
             xlink:href="#CMMI12-3d"
             transform="translate(423.321161 0) scale(0.996264)"
             id="use242" />
          <use
             xlink:href="#CMMI12-54"
             transform="translate(472.09608 0) scale(0.996264)"
             id="use244" />
        </g>
      </g>
    </g>
    <g
       id="axes_2">
      <g
         id="patch_8">
        <path
           d="M 260.089524 235.23198  L 466.247159 235.23198  L 466.247159 13.47198  L 260.089524 13.47198  z "
           style="fill: #ffffff"
           id="path250" />
      </g>
      <g
         id="matplotlib.axis_3">
        <g
           id="xtick_4">
          <g
             id="line2d_12">
            <g
               id="g255">
              <use
                 xlink:href="#mbefe625c02"
                 x="260.089524"
                 y="235.23198"
                 style="stroke: #000000; stroke-width: 0.8"
                 id="use253" />
            </g>
          </g>
          <g
             id="text_12">
            <!-- $\mathdefault{0}$ -->
            <g
               transform="translate(256.18753 250.089292) scale(0.16 -0.16)"
               id="g260">
              <use
                 xlink:href="#CMR17-30"
                 transform="scale(0.996264)"
                 id="use258" />
            </g>
          </g>
        </g>
        <g
           id="xtick_5">
          <g
             id="line2d_13">
            <g
               id="g266">
              <use
                 xlink:href="#mbefe625c02"
                 x="342.552578"
                 y="235.23198"
                 style="stroke: #000000; stroke-width: 0.8"
                 id="use264" />
            </g>
          </g>
          <g
             id="text_13">
            <!-- $\mathdefault{1}$ -->
            <g
               transform="translate(338.650584 250.089292) scale(0.16 -0.16)"
               id="g271">
              <use
                 xlink:href="#CMR17-31"
                 transform="scale(0.996264)"
                 id="use269" />
            </g>
          </g>
        </g>
        <g
           id="xtick_6">
          <g
             id="line2d_14">
            <g
               id="g277">
              <use
                 xlink:href="#mbefe625c02"
                 x="425.015632"
                 y="235.23198"
                 style="stroke: #000000; stroke-width: 0.8"
                 id="use275" />
            </g>
          </g>
          <g
             id="text_14">
            <!-- $\mathdefault{2}$ -->
            <g
               transform="translate(421.113638 250.089292) scale(0.16 -0.16)"
               id="g282">
              <use
                 xlink:href="#CMR17-32"
                 transform="scale(0.996264)"
                 id="use280" />
            </g>
          </g>
        </g>
        <g
           id="text_15">
          <!-- $\Omega/\omega_{_{D}}$ -->
          <g
             transform="translate(347.313316 264.445246) scale(0.14 -0.14)"
             id="g294">
            <use
               xlink:href="#CMR17-a"
               transform="scale(0.996264)"
               id="use286" />
            <use
               xlink:href="#CMMI12-3d"
               transform="translate(66.509881 0) scale(0.996264)"
               id="use288" />
            <use
               xlink:href="#CMMI12-21"
               transform="translate(115.284799 0) scale(0.996264)"
               id="use290" />
          </g>
        </g>
      </g>
      <g
         id="matplotlib.axis_4">
        <g
           id="ytick_5">
          <g
             id="line2d_15">
            <g
               id="g300">
              <use
                 xlink:href="#m1b941eb2bb"
                 x="260.089524"
                 y="200.391608"
                 style="stroke: #000000; stroke-width: 0.8"
                 id="use298" />
            </g>
          </g>
        </g>
        <g
           id="ytick_6">
          <g
             id="line2d_16">
            <g
               id="g306">
              <use
                 xlink:href="#m1b941eb2bb"
                 x="260.089524"
                 y="148.153852"
                 style="stroke: #000000; stroke-width: 0.8"
                 id="use304" />
            </g>
          </g>
        </g>
        <g
           id="ytick_7">
          <g
             id="line2d_17">
            <g
               id="g312">
              <use
                 xlink:href="#m1b941eb2bb"
                 x="260.089524"
                 y="95.916096"
                 style="stroke: #000000; stroke-width: 0.8"
                 id="use310" />
            </g>
          </g>
        </g>
        <g
           id="ytick_8">
          <g
             id="line2d_18">
            <g
               id="g318">
              <use
                 xlink:href="#m1b941eb2bb"
                 x="260.089524"
                 y="43.67834"
                 style="stroke: #000000; stroke-width: 0.8"
                 id="use316" />
            </g>
          </g>
        </g>
      </g>
      <g
         id="line2d_19">
        <path
           d="M 260.089524 55.518835  L 264.212676 60.382795  L 268.335829 70.842606  L 272.458982 67.39748  L 276.582134 88.609259  L 280.705287 94.230725  L 284.82844 80.904421  L 288.951593 85.544429  L 293.074745 84.602282  L 297.197898 82.076677  L 301.321051 24.615628  L 305.444203 63.451679  L 309.567356 82.305856  L 313.690509 71.715796  L 317.813662 71.100556  L 321.936814 86.125118  L 326.059967 96.829459  L 330.18312 69.165839  L 334.306272 75.698105  L 338.429425 63.44882  L 342.552578 61.376117  L 346.675731 64.992193  L 350.798883 77.42023  L 354.922036 77.041505  L 359.045189 75.221764  L 363.168341 119.105956  L 367.291494 76.781882  L 371.414647 89.85018  L 375.537799 90.119628  L 379.660952 79.857911  L 383.784105 43.488426  L 387.907258 73.555414  L 392.03041 89.297131  L 396.153563 86.059877  L 400.276716 90.751429  L 404.399868 97.047871  L 408.523021 86.705948  L 412.646174 76.912163  L 416.769327 82.726626  L 420.892479 73.170129  L 425.015632 69.859683  L 429.138785 75.215426  L 433.261937 87.014948  L 437.38509 84.693789  L 441.508243 104.689736  L 445.631396 126.07411  L 449.754548 99.890567  L 453.877701 112.305424  L 458.000854 112.890678  L 462.124006 95.07241  L 466.247159 66.965202  L 467.247159 73.553192  M 467.247159 73.553192  L 466.247159 66.965202  L 462.124006 95.07241  L 458.000854 112.890678  L 453.877701 112.305424  L 449.754548 99.890567  L 445.631396 126.07411  L 441.508243 104.689736  L 437.38509 84.693789  L 433.261937 87.014948  L 429.138785 75.215426  L 425.015632 69.859683  L 420.892479 73.170129  L 416.769327 82.726626  L 412.646174 76.912163  L 408.523021 86.705948  L 404.399868 97.047871  L 400.276716 90.751429  L 396.153563 86.059877  L 392.03041 89.297131  L 387.907258 73.555414  L 383.784105 43.488426  L 379.660952 79.857911  L 375.537799 90.119628  L 371.414647 89.85018  L 367.291494 76.781882  L 363.168341 119.105956  L 359.045189 75.221764  L 354.922036 77.041505  L 350.798883 77.42023  L 346.675731 64.992193  L 342.552578 61.376117  L 338.429425 63.44882  L 334.306272 75.698105  L 330.18312 69.165839  L 326.059967 96.829459  L 321.936814 86.125118  L 317.813662 71.100556  L 313.690509 71.715796  L 309.567356 82.305856  L 305.444203 63.451679  L 301.321051 24.615628  L 297.197898 82.076677  L 293.074745 84.602282  L 288.951593 85.544429  L 284.82844 80.904421  L 280.705287 94.230725  L 276.582134 88.609259  L 272.458982 67.39748  L 268.335829 70.842606  L 264.212676 60.382795  L 264.212676 60.382795  "
           clip-path="url(#p61715f425b)"
           style="fill: none; stroke: #1f77b4; stroke-width: 1.5; stroke-linecap: square"
           id="path323" />
      </g>
      <g
         id="line2d_20">
        <path
           d="M 260.089524 52.981563  L 264.212676 69.375547  L 268.335829 80.235956  L 272.458982 81.275086  L 276.582134 86.534871  L 280.705287 87.918488  L 284.82844 88.139974  L 288.951593 88.160247  L 293.074745 85.189082  L 297.197898 76.313931  L 301.321051 23.614698  L 305.444203 90.328515  L 309.567356 107.683637  L 313.690509 100.762169  L 317.813662 102.569794  L 321.936814 97.668154  L 326.059967 93.93277  L 330.18312 87.189226  L 334.306272 85.63485  L 338.429425 74.129354  L 342.552578 57.287222  L 346.675731 74.078502  L 350.798883 85.05267  L 354.922036 87.068281  L 359.045189 93.418985  L 363.168341 95.140423  L 367.291494 95.95138  L 371.414647 97.333747  L 375.537799 95.814667  L 379.660952 88.367452  L 383.784105 42.099122  L 387.907258 100.018969  L 392.03041 104.52111  L 396.153563 104.224663  L 400.276716 104.413767  L 404.399868 102.935003  L 408.523021 100.537873  L 412.646174 95.190128  L 416.769327 94.377149  L 420.892479 83.284441  L 425.015632 67.073484  L 429.138785 83.92083  L 433.261937 95.24941  L 437.38509 97.547626  L 441.508243 103.383733  L 445.631396 106.084763  L 449.754548 108.335436  L 453.877701 108.807909  L 458.000854 110.053402  L 462.124006 105.216545  L 466.247159 66.598572  L 467.247159 78.454  M 467.247159 78.454  L 466.247159 66.598572  L 462.124006 105.216545  L 458.000854 110.053402  L 453.877701 108.807909  L 449.754548 108.335436  L 445.631396 106.084763  L 441.508243 103.383733  L 437.38509 97.547626  L 433.261937 95.24941  L 429.138785 83.92083  L 425.015632 67.073484  L 420.892479 83.284441  L 416.769327 94.377149  L 412.646174 95.190128  L 408.523021 100.537873  L 404.399868 102.935003  L 400.276716 104.413767  L 396.153563 104.224663  L 392.03041 104.52111  L 387.907258 100.018969  L 383.784105 42.099122  L 379.660952 88.367452  L 375.537799 95.814667  L 371.414647 97.333747  L 367.291494 95.95138  L 363.168341 95.140423  L 359.045189 93.418985  L 354.922036 87.068281  L 350.798883 85.05267  L 346.675731 74.078502  L 342.552578 57.287222  L 338.429425 74.129354  L 334.306272 85.63485  L 330.18312 87.189226  L 326.059967 93.93277  L 321.936814 97.668154  L 317.813662 102.569794  L 313.690509 100.762169  L 309.567356 107.683637  L 305.444203 90.328515  L 301.321051 23.614698  L 297.197898 76.313931  L 293.074745 85.189082  L 288.951593 88.160247  L 284.82844 88.139974  L 280.705287 87.918488  L 276.582134 86.534871  L 272.458982 81.275086  L 268.335829 80.235956  L 264.212676 69.375547  L 264.212676 69.375547  "
           clip-path="url(#p61715f425b)"
           style="fill: none; stroke: #ff7f0e; stroke-width: 1.5; stroke-linecap: square"
           id="path326" />
      </g>
      <g
         id="line2d_21">
        <path
           d="M 260.089524 48.249272  L 264.212676 61.158623  L 268.335829 71.414047  L 272.458982 75.129564  L 276.582134 77.734126  L 280.705287 78.840402  L 284.82844 78.966958  L 288.951593 77.891285  L 293.074745 75.183768  L 297.197898 66.024007  L 301.321051 23.841422  L 305.444203 78.492245  L 309.567356 96.151244  L 313.690509 107.634795  L 317.813662 95.823676  L 321.936814 90.739603  L 326.059967 86.676912  L 330.18312 82.19943  L 334.306272 77.195825  L 338.429425 66.005975  L 342.552578 52.459931  L 346.675731 65.843427  L 350.798883 76.433427  L 354.922036 80.85553  L 359.045189 84.195665  L 363.168341 86.335643  L 367.291494 87.680208  L 371.414647 87.831368  L 375.537799 86.769417  L 379.660952 78.856662  L 383.784105 42.291742  L 387.907258 97.684266  L 392.03041 100.465487  L 400.276716 97.917183  L 404.399868 96.211539  L 408.523021 93.897237  L 412.646174 90.323318  L 416.769327 86.009392  L 420.892479 75.25769  L 425.015632 62.286569  L 429.138785 75.544816  L 433.261937 86.091492  L 437.38509 90.588197  L 441.508243 94.065196  L 445.631396 96.435287  L 449.754548 98.182393  L 453.877701 99.257458  L 458.000854 99.578984  L 462.124006 94.514043  L 466.247159 66.75085  L 467.247159 76.031365  M 467.247159 76.031365  L 466.247159 66.75085  L 462.124006 94.514043  L 458.000854 99.578984  L 453.877701 99.257458  L 449.754548 98.182393  L 445.631396 96.435287  L 441.508243 94.065196  L 437.38509 90.588197  L 433.261937 86.091492  L 429.138785 75.544816  L 425.015632 62.286569  L 420.892479 75.25769  L 416.769327 86.009392  L 412.646174 90.323318  L 408.523021 93.897237  L 404.399868 96.211539  L 400.276716 97.917183  L 392.03041 100.465487  L 387.907258 97.684266  L 383.784105 42.291742  L 379.660952 78.856662  L 375.537799 86.769417  L 371.414647 87.831368  L 367.291494 87.680208  L 363.168341 86.335643  L 359.045189 84.195665  L 354.922036 80.85553  L 350.798883 76.433427  L 346.675731 65.843427  L 342.552578 52.459931  L 338.429425 66.005975  L 334.306272 77.195825  L 330.18312 82.19943  L 326.059967 86.676912  L 321.936814 90.739603  L 317.813662 95.823676  L 313.690509 107.634795  L 309.567356 96.151244  L 305.444203 78.492245  L 301.321051 23.841422  L 297.197898 66.024007  L 293.074745 75.183768  L 288.951593 77.891285  L 284.82844 78.966958  L 280.705287 78.840402  L 276.582134 77.734126  L 272.458982 75.129564  L 268.335829 71.414047  L 264.212676 61.158623  L 264.212676 61.158623  "
           clip-path="url(#p61715f425b)"
           style="fill: none; stroke: #2ca02c; stroke-width: 1.5; stroke-linecap: square"
           id="path329" />
      </g>
      <g
         id="line2d_22">
        <path
           d="M 260.089524 46.354977  L 264.212676 58.198563  L 268.335829 67.95756  L 272.458982 71.912875  L 276.582134 73.956289  L 280.705287 74.784522  L 284.82844 74.631265  L 288.951593 73.381991  L 293.074745 70.360734  L 297.197898 61.470787  L 301.321051 24.057361  L 305.444203 71.316329  L 309.567356 85.461813  L 313.690509 95.781866  L 317.813662 94.480538  L 321.936814 88.968208  L 330.18312 79.756101  L 334.306272 74.069912  L 338.429425 63.053817  L 342.552578 50.380175  L 346.675731 62.713313  L 350.798883 72.87061  L 354.922036 77.538644  L 359.045189 80.588144  L 363.168341 82.66096  L 367.291494 83.936352  L 371.414647 84.250027  L 375.537799 82.839286  L 379.660952 75.118035  L 383.784105 42.47258  L 387.907258 102.140094  L 396.153563 98.73489  L 400.276716 96.850708  L 404.399868 94.691055  L 408.523021 92.008839  L 412.646174 88.435166  L 416.769327 83.264546  L 420.892479 72.561987  L 425.015632 60.348086  L 429.138785 72.413789  L 433.261937 82.321848  L 437.38509 86.911845  L 441.508243 89.946724  L 445.631396 92.125161  L 449.754548 93.714572  L 453.877701 94.725331  L 458.000854 94.772947  L 462.124006 90.232305  L 466.247159 66.864479  L 467.247159 75.110199  M 467.247159 75.110199  L 466.247159 66.864479  L 462.124006 90.232305  L 458.000854 94.772947  L 453.877701 94.725331  L 449.754548 93.714572  L 445.631396 92.125161  L 441.508243 89.946724  L 437.38509 86.911845  L 433.261937 82.321848  L 429.138785 72.413789  L 425.015632 60.348086  L 420.892479 72.561987  L 416.769327 83.264546  L 412.646174 88.435166  L 408.523021 92.008839  L 404.399868 94.691055  L 400.276716 96.850708  L 396.153563 98.73489  L 387.907258 102.140094  L 383.784105 42.47258  L 379.660952 75.118035  L 375.537799 82.839286  L 371.414647 84.250027  L 367.291494 83.936352  L 363.168341 82.66096  L 359.045189 80.588144  L 354.922036 77.538644  L 350.798883 72.87061  L 346.675731 62.713313  L 342.552578 50.380175  L 338.429425 63.053817  L 334.306272 74.069912  L 330.18312 79.756101  L 321.936814 88.968208  L 317.813662 94.480538  L 313.690509 95.781866  L 309.567356 85.461813  L 305.444203 71.316329  L 301.321051 24.057361  L 297.197898 61.470787  L 293.074745 70.360734  L 288.951593 73.381991  L 284.82844 74.631265  L 280.705287 74.784522  L 276.582134 73.956289  L 272.458982 71.912875  L 268.335829 67.95756  L 264.212676 58.198563  L 264.212676 58.198563  "
           clip-path="url(#p61715f425b)"
           style="fill: none; stroke: #d62728; stroke-width: 1.5; stroke-linecap: square"
           id="path332" />
      </g>
      <g
         id="patch_9">
        <path
           d="M 260.089524 235.23198  L 260.089524 13.47198  "
           style="fill: none; stroke: #000000; stroke-width: 0.8; stroke-linejoin: miter; stroke-linecap: square"
           id="path335" />
      </g>
      <g
         id="patch_10">
        <path
           d="M 466.247159 235.23198  L 466.247159 13.47198  "
           style="fill: none; stroke: #000000; stroke-width: 0.8; stroke-linejoin: miter; stroke-linecap: square"
           id="path338" />
      </g>
      <g
         id="patch_11">
        <path
           d="M 260.089524 235.23198  L 466.247159 235.23198  "
           style="fill: none; stroke: #000000; stroke-width: 0.8; stroke-linejoin: miter; stroke-linecap: square"
           id="path341" />
      </g>
      <g
         id="patch_12">
        <path
           d="M 260.089524 13.47198  L 466.247159 13.47198  "
           style="fill: none; stroke: #000000; stroke-width: 0.8; stroke-linejoin: miter; stroke-linecap: square"
           id="path344" />
      </g>
      <g
         id="text_16">
        <!-- $J_0=0.2/T$ -->
        <g
           transform="translate(339.763077 7.47198) scale(0.1 -0.1)"
           id="g363">
          <use
             xlink:href="#CMMI12-4a"
             transform="scale(0.996264)"
             id="use347" />
          <use
             xlink:href="#CMR17-30"
             transform="translate(53.917955 -14.943915) scale(0.697382)"
             id="use349" />
          <use
             xlink:href="#CMR17-3d"
             transform="translate(114.073278 0) scale(0.996264)"
             id="use351" />
          <use
             xlink:href="#CMR17-30"
             transform="translate(213.462075 0) scale(0.996264)"
             id="use353" />
          <use
             xlink:href="#CMMI12-3a"
             transform="translate(259.152552 0) scale(0.996264)"
             id="use355" />
          <use
             xlink:href="#CMR17-32"
             transform="translate(286.249729 0) scale(0.996264)"
             id="use357" />
          <use
             xlink:href="#CMMI12-3d"
             transform="translate(331.940207 0) scale(0.996264)"
             id="use359" />
          <use
             xlink:href="#CMMI12-54"
             transform="translate(380.715125 0) scale(0.996264)"
             id="use361" />
        </g>
      </g>
      <g
         id="legend_1">
        <g
           id="line2d_23">
          <path
             d="M 269.989524 172.220832  L 280.989524 172.220832  L 291.989524 172.220832  "
             style="fill: none; stroke: #1f77b4; stroke-width: 1.5; stroke-linecap: square"
             id="path366" />
        </g>
        <g
           id="text_17">
          <!-- $\beta=0.0$ -->
          <g
             transform="translate(300.789524 176.070832) scale(0.11 -0.11)"
             id="g382">
            <defs
               id="defs370">
              <path
                 id="CMMI12-c"
                 d="M 3622 3739  C 3622 4131 3296 4544 2714 4544  C 1888 4544 1363 3510 1197 2830  L 186 -1152  C 173 -1204 211 -1216 243 -1216  C 288 -1216 320 -1210 326 -1178  L 774 592  C 838 231 1190 -64 1568 -64  C 2483 -64 3347 657 3347 1618  C 3347 1863 3290 2108 3155 2314  C 3078 2437 2982 2527 2880 2599  C 3341 2823 3622 3222 3622 3739  z M 2509 2605  C 2406 2571 2304 2560 2182 2560  C 2093 2560 2010 2553 1894 2588  C 1958 2627 2054 2639 2189 2639  C 2304 2639 2419 2627 2509 2605  z M 3290 3798  C 3290 3438 3117 2915 2701 2684  C 2579 2723 2413 2752 2272 2752  C 2138 2752 1754 2765 1754 2582  C 1754 2411 2106 2430 2214 2430  C 2381 2430 2528 2469 2682 2514  C 2886 2347 2976 2127 2976 1805  C 2976 1431 2874 1128 2752 850  C 2541 373 2042 64 1600 64  C 1133 64 890 438 890 876  C 890 934 890 1018 915 1115  L 1331 2784  C 1542 3641 2080 4413 2701 4413  C 3162 4413 3290 4086 3290 3798  z "
                 transform="scale(0.015625)" />
            </defs>
            <use
               xlink:href="#CMMI12-c"
               transform="scale(0.996264)"
               id="use372" />
            <use
               xlink:href="#CMR17-3d"
               transform="translate(88.268024 0) scale(0.996264)"
               id="use374" />
            <use
               xlink:href="#CMR17-30"
               transform="translate(187.656822 0) scale(0.996264)"
               id="use376" />
            <use
               xlink:href="#CMMI12-3a"
               transform="translate(233.347299 0) scale(0.996264)"
               id="use378" />
            <use
               xlink:href="#CMR17-30"
               transform="translate(260.444476 0) scale(0.996264)"
               id="use380" />
          </g>
        </g>
        <g
           id="line2d_24">
          <path
             d="M 269.989524 187.863157  L 280.989524 187.863157  L 291.989524 187.863157  "
             style="fill: none; stroke: #ff7f0e; stroke-width: 1.5; stroke-linecap: square"
             id="path385" />
        </g>
        <g
           id="text_18">
          <!-- $\beta=1.5$ -->
          <g
             transform="translate(300.789524 191.713157) scale(0.11 -0.11)"
             id="g401">
            <defs
               id="defs389">
              <path
                 id="CMR17-35"
                 d="M 730 3750  C 794 3724 1056 3641 1325 3641  C 1920 3641 2246 3961 2432 4140  C 2432 4191 2432 4224 2394 4224  C 2387 4224 2374 4224 2323 4198  C 2099 4102 1837 4032 1517 4032  C 1325 4032 1037 4055 723 4191  C 653 4224 640 4224 634 4224  C 602 4224 595 4217 595 4090  L 595 2231  C 595 2113 595 2080 659 2080  C 691 2080 704 2093 736 2139  C 941 2435 1222 2560 1542 2560  C 1766 2560 2246 2415 2246 1293  C 2246 1087 2246 716 2054 422  C 1894 159 1645 25 1370 25  C 947 25 518 319 403 812  C 429 806 480 793 506 793  C 589 793 749 838 749 1036  C 749 1209 627 1280 506 1280  C 358 1280 262 1190 262 1011  C 262 454 704 -128 1382 -128  C 2042 -128 2669 441 2669 1267  C 2669 2054 2170 2662 1549 2662  C 1222 2662 947 2540 730 2304  L 730 3750  z "
                 transform="scale(0.015625)" />
            </defs>
            <use
               xlink:href="#CMMI12-c"
               transform="scale(0.996264)"
               id="use391" />
            <use
               xlink:href="#CMR17-3d"
               transform="translate(88.268024 0) scale(0.996264)"
               id="use393" />
            <use
               xlink:href="#CMR17-31"
               transform="translate(187.656822 0) scale(0.996264)"
               id="use395" />
            <use
               xlink:href="#CMMI12-3a"
               transform="translate(233.347299 0) scale(0.996264)"
               id="use397" />
            <use
               xlink:href="#CMR17-35"
               transform="translate(260.444476 0) scale(0.996264)"
               id="use399" />
          </g>
        </g>
        <g
           id="line2d_25">
          <path
             d="M 269.989524 203.505482  L 280.989524 203.505482  L 291.989524 203.505482  "
             style="fill: none; stroke: #2ca02c; stroke-width: 1.5; stroke-linecap: square"
             id="path404" />
        </g>
        <g
           id="text_19">
          <!-- $\beta=2.5$ -->
          <g
             transform="translate(300.789524 207.355482) scale(0.11 -0.11)"
             id="g417">
            <use
               xlink:href="#CMMI12-c"
               transform="scale(0.996264)"
               id="use407" />
            <use
               xlink:href="#CMR17-3d"
               transform="translate(88.268024 0) scale(0.996264)"
               id="use409" />
            <use
               xlink:href="#CMR17-32"
               transform="translate(187.656822 0) scale(0.996264)"
               id="use411" />
            <use
               xlink:href="#CMMI12-3a"
               transform="translate(233.347299 0) scale(0.996264)"
               id="use413" />
            <use
               xlink:href="#CMR17-35"
               transform="translate(260.444476 0) scale(0.996264)"
               id="use415" />
          </g>
        </g>
        <g
           id="line2d_26">
          <path
             d="M 269.989524 219.147807  L 280.989524 219.147807  L 291.989524 219.147807  "
             style="fill: none; stroke: #d62728; stroke-width: 1.5; stroke-linecap: square"
             id="path420" />
        </g>
        <g
           id="text_20">
          <!-- $\beta=\infty$ -->
          <g
             transform="translate(300.789524 222.997807) scale(0.11 -0.11)"
             id="g432">
            <defs
               id="defs424">
              <path
                 id="CMSY10-31"
                 d="M 3251 1736  C 2906 2170 2829 2266 2630 2426  C 2272 2713 1914 2828 1587 2828  C 838 2828 352 2126 352 1379  C 352 645 826 -64 1562 -64  C 2298 -64 2829 517 3142 1028  C 3488 594 3565 498 3763 338  C 4122 51 4480 -64 4806 -64  C 5555 -64 6042 638 6042 1385  C 6042 2119 5568 2828 4832 2828  C 4096 2828 3565 2247 3251 1736  z M 3418 1519  C 3680 1979 4154 2624 4877 2624  C 5555 2624 5901 1960 5901 1385  C 5901 760 5472 242 4909 242  C 4538 242 4250 511 4115 645  C 3955 817 3808 1015 3418 1519  z M 2976 1245  C 2714 785 2240 140 1517 140  C 838 140 493 804 493 1379  C 493 2004 922 2521 1485 2521  C 1856 2521 2144 2253 2278 2119  C 2438 1947 2586 1749 2976 1245  z "
                 transform="scale(0.015625)" />
            </defs>
            <use
               xlink:href="#CMMI12-c"
               transform="scale(0.996264)"
               id="use426" />
            <use
               xlink:href="#CMR17-3d"
               transform="translate(88.268024 0) scale(0.996264)"
               id="use428" />
            <use
               xlink:href="#CMSY10-31"
               transform="translate(187.656822 0) scale(0.996264)"
               id="use430" />
          </g>
        </g>
      </g>
    </g>
  </g>
  <defs
     id="defs444">
    <clipPath
       id="pf0a62bca1a">
      <rect
         x="47.747159"
         y="13.47198"
         width="206.157635"
         height="221.76"
         id="rect438" />
    </clipPath>
    <clipPath
       id="p61715f425b">
      <rect
         x="260.089524"
         y="13.47198"
         width="206.157635"
         height="221.76"
         id="rect441" />
    </clipPath>
  </defs>
</svg>
