<?xml version="1.0" encoding="utf-8" standalone="no"?>
<!DOCTYPE svg PUBLIC "-//W3C//DTD SVG 1.1//EN"
  "http://www.w3.org/Graphics/SVG/1.1/DTD/svg11.dtd">
<svg xmlns:xlink="http://www.w3.org/1999/xlink" width="461.80605pt" height="258.03442pt" viewBox="0 0 461.80605 258.03442" xmlns="http://www.w3.org/2000/svg" version="1.1">
 <metadata>
  <rdf:RDF xmlns:dc="http://purl.org/dc/elements/1.1/" xmlns:cc="http://creativecommons.org/ns#" xmlns:rdf="http://www.w3.org/1999/02/22-rdf-syntax-ns#">
   <cc:Work>
    <dc:type rdf:resource="http://purl.org/dc/dcmitype/StillImage"/>
    <dc:date>2024-01-06T08:21:23.771767</dc:date>
    <dc:format>image/svg+xml</dc:format>
    <dc:creator>
     <cc:Agent>
      <dc:title>Matplotlib v3.7.1, https://matplotlib.org/</dc:title>
     </cc:Agent>
    </dc:creator>
   </cc:Work>
  </rdf:RDF>
 </metadata>
 <defs>
  <style type="text/css">*{stroke-linejoin: round; stroke-linecap: butt}</style>
 </defs>
 <g id="figure_1">
  <g id="patch_1">
   <path d="M 0 258.03442 
L 461.80605 258.03442 
L 461.80605 0 
L 0 0 
z
" style="fill: #ffffff"/>
  </g>
  <g id="axes_1">
   <g id="patch_2">
    <path d="M 43.30605 221.76 
L 461.80605 221.76 
L 461.80605 -0 
L 43.30605 -0 
z
" style="fill: #ffffff"/>
   </g>
   <g id="matplotlib.axis_1">
    <g id="xtick_1">
     <g id="line2d_1">
      <defs>
       <path id="m2d9b2590a7" d="M 0 0 
L 0 -3.5 
" style="stroke: #000000; stroke-width: 0.8"/>
      </defs>
      <g>
       <use xlink:href="#m2d9b2590a7" x="62.328777" y="221.76" style="stroke: #000000; stroke-width: 0.8"/>
      </g>
     </g>
     <g id="text_1">
      <!-- $\mathdefault{0}$ -->
      <g transform="translate(58.670659 235.90748) scale(0.15 -0.15)">
       <defs>
        <path id="CMR17-30" d="M 2688 2038 
C 2688 2430 2682 3099 2413 3613 
C 2176 4063 1798 4224 1466 4224 
C 1158 4224 768 4082 525 3620 
C 269 3137 243 2539 243 2038 
C 243 1671 250 1112 448 623 
C 723 -39 1216 -128 1466 -128 
C 1760 -128 2208 -7 2470 604 
C 2662 1048 2688 1568 2688 2038 
z
M 1466 -26 
C 1056 -26 813 328 723 816 
C 653 1196 653 1749 653 2109 
C 653 2604 653 3015 736 3407 
C 858 3954 1216 4121 1466 4121 
C 1728 4121 2067 3947 2189 3420 
C 2272 3054 2278 2623 2278 2109 
C 2278 1691 2278 1176 2202 797 
C 2067 96 1690 -26 1466 -26 
z
" transform="scale(0.015625)"/>
       </defs>
       <use xlink:href="#CMR17-30" transform="scale(0.996264)"/>
      </g>
     </g>
    </g>
    <g id="xtick_2">
     <g id="line2d_2">
      <g>
       <use xlink:href="#m2d9b2590a7" x="109.885596" y="221.76" style="stroke: #000000; stroke-width: 0.8"/>
      </g>
     </g>
     <g id="text_2">
      <!-- $\mathdefault{2}$ -->
      <g transform="translate(106.227477 235.90748) scale(0.15 -0.15)">
       <defs>
        <path id="CMR17-32" d="M 2669 990 
L 2554 990 
C 2490 537 2438 460 2413 422 
C 2381 371 1920 371 1830 371 
L 602 371 
C 832 620 1280 1073 1824 1596 
C 2214 1966 2669 2400 2669 3033 
C 2669 3788 2067 4224 1395 4224 
C 691 4224 262 3603 262 3027 
C 262 2777 448 2745 525 2745 
C 589 2745 781 2783 781 3007 
C 781 3206 614 3264 525 3264 
C 486 3264 448 3257 422 3244 
C 544 3788 915 4057 1306 4057 
C 1862 4057 2227 3616 2227 3033 
C 2227 2477 1901 1998 1536 1583 
L 262 147 
L 262 0 
L 2515 0 
L 2669 990 
z
" transform="scale(0.015625)"/>
       </defs>
       <use xlink:href="#CMR17-32" transform="scale(0.996264)"/>
      </g>
     </g>
    </g>
    <g id="xtick_3">
     <g id="line2d_3">
      <g>
       <use xlink:href="#m2d9b2590a7" x="157.442414" y="221.76" style="stroke: #000000; stroke-width: 0.8"/>
      </g>
     </g>
     <g id="text_3">
      <!-- $\mathdefault{4}$ -->
      <g transform="translate(153.784295 235.90748) scale(0.15 -0.15)">
       <defs>
        <path id="CMR17-34" d="M 2150 4147 
C 2150 4281 2144 4288 2029 4288 
L 128 1254 
L 128 1088 
L 1779 1088 
L 1779 460 
C 1779 230 1766 166 1318 166 
L 1197 166 
L 1197 0 
C 1402 12 1747 12 1965 12 
C 2182 12 2528 12 2733 0 
L 2733 166 
L 2611 166 
C 2163 166 2150 230 2150 460 
L 2150 1088 
L 2803 1088 
L 2803 1254 
L 2150 1254 
L 2150 4147 
z
M 1798 3723 
L 1798 1254 
L 256 1254 
L 1798 3723 
z
" transform="scale(0.015625)"/>
       </defs>
       <use xlink:href="#CMR17-34" transform="scale(0.996264)"/>
      </g>
     </g>
    </g>
    <g id="xtick_4">
     <g id="line2d_4">
      <g>
       <use xlink:href="#m2d9b2590a7" x="204.999232" y="221.76" style="stroke: #000000; stroke-width: 0.8"/>
      </g>
     </g>
     <g id="text_4">
      <!-- $\mathdefault{6}$ -->
      <g transform="translate(201.341113 235.90748) scale(0.15 -0.15)">
       <defs>
        <path id="CMR17-36" d="M 678 2198 
C 678 3712 1395 4076 1811 4076 
C 1946 4076 2272 4049 2400 3782 
C 2298 3782 2106 3782 2106 3558 
C 2106 3385 2246 3328 2336 3328 
C 2394 3328 2566 3353 2566 3571 
C 2566 3987 2246 4224 1805 4224 
C 1043 4224 243 3411 243 2011 
C 243 257 966 -128 1478 -128 
C 2099 -128 2688 431 2688 1295 
C 2688 2101 2170 2688 1517 2688 
C 1126 2688 838 2430 678 1979 
L 678 2198 
z
M 1478 25 
C 691 25 691 1212 691 1450 
C 691 1914 909 2585 1504 2585 
C 1613 2585 1926 2585 2138 2140 
C 2253 1889 2253 1624 2253 1302 
C 2253 954 2253 696 2118 438 
C 1978 173 1773 25 1478 25 
z
" transform="scale(0.015625)"/>
       </defs>
       <use xlink:href="#CMR17-36" transform="scale(0.996264)"/>
      </g>
     </g>
    </g>
    <g id="xtick_5">
     <g id="line2d_5">
      <g>
       <use xlink:href="#m2d9b2590a7" x="252.55605" y="221.76" style="stroke: #000000; stroke-width: 0.8"/>
      </g>
     </g>
     <g id="text_5">
      <!-- $\mathdefault{8}$ -->
      <g transform="translate(248.897931 235.90748) scale(0.15 -0.15)">
       <defs>
        <path id="CMR17-38" d="M 1741 2289 
C 2144 2494 2554 2803 2554 3298 
C 2554 3884 1990 4224 1472 4224 
C 890 4224 378 3800 378 3215 
C 378 3054 416 2777 666 2533 
C 730 2469 998 2276 1171 2154 
C 883 2006 211 1652 211 945 
C 211 282 838 -128 1459 -128 
C 2144 -128 2720 366 2720 1022 
C 2720 1607 2330 1877 2074 2051 
L 1741 2289 
z
M 902 2855 
C 851 2887 595 3086 595 3388 
C 595 3781 998 4076 1459 4076 
C 1965 4076 2336 3716 2336 3298 
C 2336 2700 1670 2359 1638 2359 
C 1632 2359 1626 2359 1574 2398 
L 902 2855 
z
M 2080 1536 
C 2176 1466 2483 1253 2483 861 
C 2483 385 2010 25 1472 25 
C 890 25 448 443 448 951 
C 448 1459 838 1884 1280 2083 
L 2080 1536 
z
" transform="scale(0.015625)"/>
       </defs>
       <use xlink:href="#CMR17-38" transform="scale(0.996264)"/>
      </g>
     </g>
    </g>
    <g id="xtick_6">
     <g id="line2d_6">
      <g>
       <use xlink:href="#m2d9b2590a7" x="300.112868" y="221.76" style="stroke: #000000; stroke-width: 0.8"/>
      </g>
     </g>
     <g id="text_6">
      <!-- $\mathdefault{10}$ -->
      <g transform="translate(292.796631 235.90748) scale(0.15 -0.15)">
       <defs>
        <path id="CMR17-31" d="M 1702 4083 
C 1702 4217 1696 4224 1606 4224 
C 1357 3927 979 3833 621 3820 
C 602 3820 570 3820 563 3808 
C 557 3795 557 3782 557 3648 
C 755 3648 1088 3686 1344 3839 
L 1344 467 
C 1344 243 1331 166 781 166 
L 589 166 
L 589 0 
C 896 6 1216 12 1523 12 
C 1830 12 2150 6 2458 0 
L 2458 166 
L 2266 166 
C 1715 166 1702 236 1702 467 
L 1702 4083 
z
" transform="scale(0.015625)"/>
       </defs>
       <use xlink:href="#CMR17-31" transform="scale(0.996264)"/>
       <use xlink:href="#CMR17-30" transform="translate(45.690477 0) scale(0.996264)"/>
      </g>
     </g>
    </g>
    <g id="xtick_7">
     <g id="line2d_7">
      <g>
       <use xlink:href="#m2d9b2590a7" x="347.669687" y="221.76" style="stroke: #000000; stroke-width: 0.8"/>
      </g>
     </g>
     <g id="text_7">
      <!-- $\mathdefault{12}$ -->
      <g transform="translate(340.353449 235.90748) scale(0.15 -0.15)">
       <use xlink:href="#CMR17-31" transform="scale(0.996264)"/>
       <use xlink:href="#CMR17-32" transform="translate(45.690477 0) scale(0.996264)"/>
      </g>
     </g>
    </g>
    <g id="xtick_8">
     <g id="line2d_8">
      <g>
       <use xlink:href="#m2d9b2590a7" x="395.226505" y="221.76" style="stroke: #000000; stroke-width: 0.8"/>
      </g>
     </g>
     <g id="text_8">
      <!-- $\mathdefault{14}$ -->
      <g transform="translate(387.910267 235.90748) scale(0.15 -0.15)">
       <use xlink:href="#CMR17-31" transform="scale(0.996264)"/>
       <use xlink:href="#CMR17-34" transform="translate(45.690477 0) scale(0.996264)"/>
      </g>
     </g>
    </g>
    <g id="xtick_9">
     <g id="line2d_9">
      <g>
       <use xlink:href="#m2d9b2590a7" x="442.783323" y="221.76" style="stroke: #000000; stroke-width: 0.8"/>
      </g>
     </g>
     <g id="text_9">
      <!-- $\mathdefault{16}$ -->
      <g transform="translate(435.467085 235.90748) scale(0.15 -0.15)">
       <use xlink:href="#CMR17-31" transform="scale(0.996264)"/>
       <use xlink:href="#CMR17-36" transform="translate(45.690477 0) scale(0.996264)"/>
      </g>
     </g>
    </g>
    <g id="text_10">
     <!-- $2h/\omega$ -->
     <g transform="translate(236.472443 254.29843) scale(0.15 -0.15)">
      <defs>
       <path id="CMMI12-68" d="M 1798 4255 
C 1805 4281 1818 4319 1818 4351 
C 1818 4416 1754 4416 1741 4416 
C 1734 4416 1421 4390 1389 4383 
C 1280 4377 1184 4364 1069 4358 
C 909 4345 864 4339 864 4223 
C 864 4159 915 4159 1005 4159 
C 1318 4159 1325 4103 1325 4040 
C 1325 4002 1312 3951 1306 3932 
L 378 249 
C 352 153 352 140 352 102 
C 352 -39 461 -64 525 -64 
C 634 -64 717 19 749 89 
L 1037 1245 
C 1069 1385 1107 1519 1139 1660 
C 1210 1928 1210 1934 1331 2119 
C 1453 2305 1741 2687 2234 2687 
C 2490 2687 2579 2496 2579 2241 
C 2579 1883 2330 1187 2189 804 
C 2131 651 2099 568 2099 453 
C 2099 166 2298 -64 2605 -64 
C 3200 -64 3424 874 3424 913 
C 3424 945 3398 970 3360 970 
C 3302 970 3296 951 3264 842 
C 3117 332 2880 64 2624 64 
C 2560 64 2458 70 2458 274 
C 2458 440 2534 645 2560 715 
C 2675 1021 2963 1775 2963 2145 
C 2963 2528 2739 2816 2253 2816 
C 1888 2816 1568 2643 1306 2311 
L 1798 4255 
z
" transform="scale(0.015625)"/>
       <path id="CMMI12-3d" d="M 2746 4563 
C 2746 4569 2784 4665 2784 4678 
C 2784 4755 2720 4800 2669 4800 
C 2637 4800 2579 4800 2528 4659 
L 384 -1364 
C 384 -1370 346 -1466 346 -1479 
C 346 -1556 410 -1600 461 -1600 
C 499 -1600 557 -1594 602 -1460 
L 2746 4563 
z
" transform="scale(0.015625)"/>
       <path id="CMMI12-21" d="M 3802 2406 
C 3802 2592 3750 2828 3526 2828 
C 3398 2828 3251 2668 3251 2540 
C 3251 2483 3277 2444 3328 2387 
C 3424 2278 3546 2105 3546 1804 
C 3546 1574 3405 1209 3302 1011 
C 3123 659 2829 358 2496 358 
C 2093 358 1939 614 1869 972 
C 1939 1139 2086 1555 2086 1721 
C 2086 1792 2061 1849 1978 1849 
C 1933 1849 1882 1824 1850 1772 
C 1760 1632 1677 1126 1683 992 
C 1562 755 1216 358 806 358 
C 378 358 262 736 262 1100 
C 262 1766 678 2348 794 2508 
C 858 2604 902 2668 902 2681 
C 902 2726 877 2796 819 2796 
C 717 2796 685 2713 634 2636 
C 307 2131 77 1420 77 806 
C 77 409 224 -64 704 -64 
C 1235 -64 1568 390 1702 633 
C 1754 275 1946 -64 2413 -64 
C 2899 -64 3206 364 3437 883 
C 3603 1254 3802 2054 3802 2406 
z
" transform="scale(0.015625)"/>
      </defs>
      <use xlink:href="#CMR17-32" transform="scale(0.996264)"/>
      <use xlink:href="#CMMI12-68" transform="translate(45.690477 0) scale(0.996264)"/>
      <use xlink:href="#CMMI12-3d" transform="translate(101.845101 0) scale(0.996264)"/>
      <use xlink:href="#CMMI12-21" transform="translate(150.62002 0) scale(0.996264)"/>
     </g>
    </g>
   </g>
   <g id="matplotlib.axis_2">
    <g id="ytick_1">
     <g id="line2d_10">
      <defs>
       <path id="m8a4a9d1f86" d="M 0 0 
L 3.5 0 
" style="stroke: #000000; stroke-width: 0.8"/>
      </defs>
      <g>
       <use xlink:href="#m8a4a9d1f86" x="43.30605" y="203.326912" style="stroke: #000000; stroke-width: 0.8"/>
      </g>
     </g>
     <g id="text_11">
      <!-- $\mathdefault{0.4}$ -->
      <g transform="translate(21.108998 208.650653) scale(0.15 -0.15)">
       <defs>
        <path id="CMMI12-3a" d="M 1178 307 
C 1178 492 1024 620 870 620 
C 685 620 557 467 557 313 
C 557 128 710 0 864 0 
C 1050 0 1178 153 1178 307 
z
" transform="scale(0.015625)"/>
       </defs>
       <use xlink:href="#CMR17-30" transform="scale(0.996264)"/>
       <use xlink:href="#CMMI12-3a" transform="translate(45.690477 0) scale(0.996264)"/>
       <use xlink:href="#CMR17-34" transform="translate(72.787654 0) scale(0.996264)"/>
      </g>
     </g>
    </g>
    <g id="ytick_2">
     <g id="line2d_11">
      <g>
       <use xlink:href="#m8a4a9d1f86" x="43.30605" y="171.064715" style="stroke: #000000; stroke-width: 0.8"/>
      </g>
     </g>
     <g id="text_12">
      <!-- $\mathdefault{0.5}$ -->
      <g transform="translate(21.108998 176.388455) scale(0.15 -0.15)">
       <defs>
        <path id="CMR17-35" d="M 730 3750 
C 794 3724 1056 3641 1325 3641 
C 1920 3641 2246 3961 2432 4140 
C 2432 4191 2432 4224 2394 4224 
C 2387 4224 2374 4224 2323 4198 
C 2099 4102 1837 4032 1517 4032 
C 1325 4032 1037 4055 723 4191 
C 653 4224 640 4224 634 4224 
C 602 4224 595 4217 595 4090 
L 595 2231 
C 595 2113 595 2080 659 2080 
C 691 2080 704 2093 736 2139 
C 941 2435 1222 2560 1542 2560 
C 1766 2560 2246 2415 2246 1293 
C 2246 1087 2246 716 2054 422 
C 1894 159 1645 25 1370 25 
C 947 25 518 319 403 812 
C 429 806 480 793 506 793 
C 589 793 749 838 749 1036 
C 749 1209 627 1280 506 1280 
C 358 1280 262 1190 262 1011 
C 262 454 704 -128 1382 -128 
C 2042 -128 2669 441 2669 1267 
C 2669 2054 2170 2662 1549 2662 
C 1222 2662 947 2540 730 2304 
L 730 3750 
z
" transform="scale(0.015625)"/>
       </defs>
       <use xlink:href="#CMR17-30" transform="scale(0.996264)"/>
       <use xlink:href="#CMMI12-3a" transform="translate(45.690477 0) scale(0.996264)"/>
       <use xlink:href="#CMR17-35" transform="translate(72.787654 0) scale(0.996264)"/>
      </g>
     </g>
    </g>
    <g id="ytick_3">
     <g id="line2d_12">
      <g>
       <use xlink:href="#m8a4a9d1f86" x="43.30605" y="138.802518" style="stroke: #000000; stroke-width: 0.8"/>
      </g>
     </g>
     <g id="text_13">
      <!-- $\mathdefault{0.6}$ -->
      <g transform="translate(21.108998 144.126258) scale(0.15 -0.15)">
       <use xlink:href="#CMR17-30" transform="scale(0.996264)"/>
       <use xlink:href="#CMMI12-3a" transform="translate(45.690477 0) scale(0.996264)"/>
       <use xlink:href="#CMR17-36" transform="translate(72.787654 0) scale(0.996264)"/>
      </g>
     </g>
    </g>
    <g id="ytick_4">
     <g id="line2d_13">
      <g>
       <use xlink:href="#m8a4a9d1f86" x="43.30605" y="106.54032" style="stroke: #000000; stroke-width: 0.8"/>
      </g>
     </g>
     <g id="text_14">
      <!-- $\mathdefault{0.7}$ -->
      <g transform="translate(21.108998 111.86406) scale(0.15 -0.15)">
       <defs>
        <path id="CMR17-37" d="M 2886 3955 
L 2886 4096 
L 1382 4096 
C 634 4096 621 4166 595 4288 
L 480 4288 
L 294 3104 
L 410 3104 
C 429 3226 474 3552 550 3673 
C 589 3724 1062 3724 1171 3724 
L 2579 3724 
L 1869 2670 
C 1395 1961 1069 1003 1069 166 
C 1069 89 1069 -128 1299 -128 
C 1530 -128 1530 89 1530 172 
L 1530 466 
C 1530 1514 1709 2204 2003 2644 
L 2886 3955 
z
" transform="scale(0.015625)"/>
       </defs>
       <use xlink:href="#CMR17-30" transform="scale(0.996264)"/>
       <use xlink:href="#CMMI12-3a" transform="translate(45.690477 0) scale(0.996264)"/>
       <use xlink:href="#CMR17-37" transform="translate(72.787654 0) scale(0.996264)"/>
      </g>
     </g>
    </g>
    <g id="ytick_5">
     <g id="line2d_14">
      <g>
       <use xlink:href="#m8a4a9d1f86" x="43.30605" y="74.278123" style="stroke: #000000; stroke-width: 0.8"/>
      </g>
     </g>
     <g id="text_15">
      <!-- $\mathdefault{0.8}$ -->
      <g transform="translate(21.108998 79.601863) scale(0.15 -0.15)">
       <use xlink:href="#CMR17-30" transform="scale(0.996264)"/>
       <use xlink:href="#CMMI12-3a" transform="translate(45.690477 0) scale(0.996264)"/>
       <use xlink:href="#CMR17-38" transform="translate(72.787654 0) scale(0.996264)"/>
      </g>
     </g>
    </g>
    <g id="ytick_6">
     <g id="line2d_15">
      <g>
       <use xlink:href="#m8a4a9d1f86" x="43.30605" y="42.015925" style="stroke: #000000; stroke-width: 0.8"/>
      </g>
     </g>
     <g id="text_16">
      <!-- $\mathdefault{0.9}$ -->
      <g transform="translate(21.108998 47.339665) scale(0.15 -0.15)">
       <defs>
        <path id="CMR17-39" d="M 2253 1871 
C 2253 448 1670 25 1190 25 
C 1043 25 685 43 538 281 
C 704 256 826 345 826 505 
C 826 678 685 736 595 736 
C 538 736 365 710 365 492 
C 365 68 742 -128 1203 -128 
C 1939 -128 2688 665 2688 2090 
C 2688 3857 1971 4224 1485 4224 
C 851 4224 243 3664 243 2800 
C 243 2000 762 1408 1414 1408 
C 1952 1408 2189 1910 2253 2122 
L 2253 1871 
z
M 1427 1510 
C 1254 1510 1011 1542 813 1929 
C 678 2181 678 2477 678 2793 
C 678 3174 678 3438 858 3722 
C 947 3857 1114 4076 1485 4076 
C 2240 4076 2240 2909 2240 2651 
C 2240 2193 2035 1510 1427 1510 
z
" transform="scale(0.015625)"/>
       </defs>
       <use xlink:href="#CMR17-30" transform="scale(0.996264)"/>
       <use xlink:href="#CMMI12-3a" transform="translate(45.690477 0) scale(0.996264)"/>
       <use xlink:href="#CMR17-39" transform="translate(72.787654 0) scale(0.996264)"/>
      </g>
     </g>
    </g>
    <g id="ytick_7">
     <g id="line2d_16">
      <g>
       <use xlink:href="#m8a4a9d1f86" x="43.30605" y="9.753728" style="stroke: #000000; stroke-width: 0.8"/>
      </g>
     </g>
     <g id="text_17">
      <!-- $\mathdefault{1.0}$ -->
      <g transform="translate(21.108998 15.077468) scale(0.15 -0.15)">
       <use xlink:href="#CMR17-31" transform="scale(0.996264)"/>
       <use xlink:href="#CMMI12-3a" transform="translate(45.690477 0) scale(0.996264)"/>
       <use xlink:href="#CMR17-30" transform="translate(72.787654 0) scale(0.996264)"/>
      </g>
     </g>
    </g>
    <g id="text_18">
     <!-- $\langle S^z_i S^z_j \rangle$ -->
     <g transform="translate(11.20797 132.383651) rotate(-90) scale(0.15 -0.15)">
      <defs>
       <path id="CMSY10-68" d="M 2099 4557 
C 2131 4627 2131 4640 2131 4672 
C 2131 4742 2074 4800 2003 4800 
C 1946 4800 1901 4768 1856 4653 
L 736 1715 
C 723 1677 704 1638 704 1600 
C 704 1580 704 1568 736 1491 
L 1856 -1447 
C 1882 -1517 1914 -1600 2003 -1600 
C 2074 -1600 2131 -1543 2131 -1472 
C 2131 -1453 2131 -1440 2099 -1370 
L 966 1600 
L 2099 4557 
z
" transform="scale(0.015625)"/>
       <path id="CMMI12-53" d="M 4064 4422 
C 4064 4480 4019 4480 4006 4480 
C 3981 4480 3974 4473 3898 4377 
C 3859 4332 3597 4002 3590 3996 
C 3379 4409 2957 4480 2688 4480 
C 1875 4480 1139 3742 1139 3024 
C 1139 2547 1427 2268 1741 2160 
C 1811 2134 2189 2033 2381 1988 
C 2707 1899 2790 1874 2925 1734 
C 2950 1702 3078 1556 3078 1258 
C 3078 667 2528 57 1888 57 
C 1363 57 781 279 781 991 
C 781 1112 806 1264 826 1328 
C 826 1347 832 1378 832 1391 
C 832 1417 819 1448 768 1448 
C 710 1448 704 1436 678 1328 
L 352 25 
C 352 19 326 -64 326 -71 
C 326 -128 378 -128 390 -128 
C 416 -128 422 -122 499 -26 
L 794 356 
C 947 127 1280 -128 1875 -128 
C 2701 -128 3456 667 3456 1461 
C 3456 1728 3392 1963 3149 2198 
C 3014 2331 2899 2363 2310 2516 
C 1882 2630 1824 2649 1709 2751 
C 1600 2859 1517 3011 1517 3227 
C 1517 3761 2061 4307 2669 4307 
C 3296 4307 3590 3926 3590 3322 
C 3590 3157 3558 2986 3558 2960 
C 3558 2903 3610 2903 3629 2903 
C 3686 2903 3693 2922 3718 3024 
L 4064 4422 
z
" transform="scale(0.015625)"/>
       <path id="CMMI12-7a" d="M 813 486 
C 1088 809 1312 1015 1632 1313 
C 2016 1657 2182 1822 2272 1922 
C 2720 2371 2944 2713 2944 2764 
C 2944 2816 2893 2816 2880 2816 
C 2835 2816 2822 2790 2790 2745 
C 2630 2470 2477 2368 2310 2368 
C 2176 2368 2106 2403 1984 2547 
C 1850 2707 1741 2816 1555 2816 
C 1088 2816 806 2265 806 2127 
C 806 2107 813 2067 870 2067 
C 922 2067 928 2094 947 2140 
C 1056 2387 1363 2415 1485 2415 
C 1619 2415 1747 2387 1882 2342 
C 2125 2239 2227 2239 2291 2239 
C 2336 2239 2362 2239 2394 2246 
C 2182 1988 1837 1670 1549 1399 
L 902 783 
C 512 380 275 32 275 -13 
C 275 -52 307 -64 346 -64 
C 384 -64 390 -58 435 19 
C 538 179 742 384 979 384 
C 1114 384 1178 356 1306 211 
C 1427 70 1536 -64 1741 -64 
C 2368 -64 2726 723 2726 876 
C 2726 902 2720 942 2656 942 
C 2605 942 2598 915 2579 849 
C 2438 460 2061 336 1811 336 
C 1677 336 1549 364 1414 409 
C 1158 512 1088 512 1005 512 
C 941 512 870 512 813 486 
z
" transform="scale(0.015625)"/>
       <path id="CMMI12-69" d="M 1811 913 
C 1811 945 1786 970 1747 970 
C 1690 970 1683 951 1651 842 
C 1485 261 1222 64 1011 64 
C 934 64 845 83 845 274 
C 845 447 922 638 992 830 
L 1440 2017 
C 1459 2068 1504 2183 1504 2305 
C 1504 2573 1312 2816 998 2816 
C 410 2816 173 1890 173 1838 
C 173 1813 198 1781 243 1781 
C 301 1781 307 1807 333 1896 
C 486 2432 730 2687 979 2687 
C 1037 2687 1146 2681 1146 2477 
C 1146 2311 1062 2100 1011 1960 
L 563 772 
C 525 670 486 568 486 453 
C 486 166 685 -64 992 -64 
C 1581 -64 1811 868 1811 913 
z
M 1760 4012 
C 1760 4108 1683 4224 1542 4224 
C 1395 4224 1229 4083 1229 3916 
C 1229 3756 1363 3705 1440 3705 
C 1613 3705 1760 3871 1760 4012 
z
" transform="scale(0.015625)"/>
       <path id="CMMI12-6a" d="M 2240 2027 
C 2266 2129 2266 2218 2266 2243 
C 2266 2611 1990 2816 1702 2816 
C 1056 2816 710 1888 710 1843 
C 710 1811 736 1786 774 1786 
C 826 1786 832 1811 864 1875 
C 1120 2491 1440 2687 1683 2687 
C 1818 2687 1888 2617 1888 2395 
C 1888 2243 1869 2180 1843 2065 
L 1235 -327 
C 1114 -797 813 -1152 461 -1152 
C 435 -1152 301 -1152 179 -1089 
C 333 -1057 454 -937 454 -784 
C 454 -683 378 -581 237 -581 
C 70 -581 -83 -721 -83 -911 
C -83 -1172 198 -1280 461 -1280 
C 902 -1280 1485 -956 1645 -321 
L 2240 2027 
z
M 2502 4012 
C 2502 4172 2368 4224 2291 4224 
C 2118 4224 1971 4057 1971 3916 
C 1971 3820 2048 3705 2189 3705 
C 2336 3705 2502 3846 2502 4012 
z
" transform="scale(0.015625)"/>
       <path id="CMSY10-69" d="M 1747 1491 
C 1779 1568 1779 1580 1779 1600 
C 1779 1619 1779 1632 1747 1709 
L 627 4653 
C 589 4761 550 4800 480 4800 
C 410 4800 352 4742 352 4672 
C 352 4653 352 4640 384 4569 
L 1517 1600 
L 384 -1357 
C 352 -1428 352 -1440 352 -1472 
C 352 -1543 410 -1600 480 -1600 
C 563 -1600 589 -1536 614 -1472 
L 1747 1491 
z
" transform="scale(0.015625)"/>
      </defs>
      <use xlink:href="#CMSY10-68" transform="scale(0.996264)"/>
      <use xlink:href="#CMMI12-53" transform="translate(38.743734 0) scale(0.996264)"/>
      <use xlink:href="#CMMI12-7a" transform="translate(104.538173 36.153639) scale(0.697382)"/>
      <use xlink:href="#CMMI12-69" transform="translate(98.738222 -25.505809) scale(0.697382)"/>
      <use xlink:href="#CMMI12-53" transform="translate(139.864728 0) scale(0.996264)"/>
      <use xlink:href="#CMMI12-7a" transform="translate(205.659168 36.153639) scale(0.697382)"/>
      <use xlink:href="#CMMI12-6a" transform="translate(199.859216 -25.505809) scale(0.697382)"/>
      <use xlink:href="#CMSY10-69" transform="translate(240.985723 0) scale(0.996264)"/>
     </g>
    </g>
   </g>
   <g id="line2d_17">
    <path d="M 119.511703 221.76 
L 119.511703 -0 
" clip-path="url(#p219134ba39)" style="fill: none; stroke-dasharray: 5.55,2.4; stroke-dashoffset: 0; stroke: #000000; stroke-opacity: 0.3; stroke-width: 1.5"/>
   </g>
   <g id="line2d_18">
    <path d="M 193.587453 221.76 
L 193.587453 -0 
" clip-path="url(#p219134ba39)" style="fill: none; stroke-dasharray: 5.55,2.4; stroke-dashoffset: 0; stroke: #000000; stroke-opacity: 0.3; stroke-width: 1.5"/>
   </g>
   <g id="line2d_19">
    <path d="M 268.10066 221.76 
L 268.10066 -0 
" clip-path="url(#p219134ba39)" style="fill: none; stroke-dasharray: 5.55,2.4; stroke-dashoffset: 0; stroke: #000000; stroke-opacity: 0.3; stroke-width: 1.5"/>
   </g>
   <g id="line2d_20">
    <path d="M 342.712707 221.76 
L 342.712707 -0 
" clip-path="url(#p219134ba39)" style="fill: none; stroke-dasharray: 5.55,2.4; stroke-dashoffset: 0; stroke: #000000; stroke-opacity: 0.3; stroke-width: 1.5"/>
   </g>
   <g id="line2d_21">
    <path d="M 417.362247 221.76 
L 417.362247 -0 
" clip-path="url(#p219134ba39)" style="fill: none; stroke-dasharray: 5.55,2.4; stroke-dashoffset: 0; stroke: #000000; stroke-opacity: 0.3; stroke-width: 1.5"/>
   </g>
   <g id="line2d_22">
    <path d="M 62.328777 211.37824 
L 64.882164 211.68 
L 67.43555 211.575242 
L 68.04707 211.197547 
L 69.988936 209.450782 
L 72.542322 209.934383 
L 75.095709 207.101916 
L 75.454645 207.213175 
L 80.202481 203.794151 
L 82.755867 201.107705 
L 82.905966 200.650083 
L 85.309253 197.437024 
L 87.86264 192.904121 
L 90.36717 188.879511 
L 90.416026 188.944574 
L 92.969412 183.947772 
L 95.522798 174.876183 
L 100.629571 154.112514 
L 103.182957 138.443199 
L 105.736343 118.096179 
L 108.289729 94.807812 
L 113.396502 43.470438 
L 115.949888 23.924712 
L 118.503274 13.647497 
L 121.05666 14.864661 
L 123.610047 25.856822 
L 126.163433 42.13245 
L 128.716819 60.719142 
L 131.270205 77.988041 
L 133.823591 93.988024 
L 138.930364 117.225046 
L 141.48375 124.540399 
L 144.037136 130.096553 
L 146.590522 136.107026 
L 149.143909 138.769821 
L 151.697295 139.48216 
L 154.250681 139.501007 
L 156.804067 138.977525 
L 159.357453 137.260033 
L 161.91084 132.700057 
L 164.464226 126.409246 
L 167.017612 122.004019 
L 172.124385 103.299209 
L 174.677771 92.459324 
L 177.231157 78.634878 
L 179.784543 65.609479 
L 182.337929 49.878252 
L 184.891316 36.266476 
L 187.444702 24.208809 
L 189.998088 15.209113 
L 192.551474 10.780063 
L 195.10486 11.279709 
L 197.658247 16.363652 
L 200.211633 25.088187 
L 202.765019 35.740009 
L 205.318405 46.950766 
L 207.871791 59.15199 
L 210.425178 70.384649 
L 215.53195 86.957021 
L 218.085336 94.808993 
L 220.638723 99.915295 
L 223.192109 102.772423 
L 225.745495 104.487339 
L 228.298881 105.36312 
L 230.852267 105.127686 
L 233.405654 104.027988 
L 235.95904 102.132874 
L 238.512426 98.909308 
L 241.065812 93.187895 
L 248.725971 70.109038 
L 251.279357 59.83164 
L 253.832743 48.792355 
L 256.38613 38.733411 
L 258.939516 29.373722 
L 261.492902 20.820564 
L 264.046288 14.430013 
L 266.599674 11.017135 
L 269.153061 10.768315 
L 271.706447 13.574857 
L 274.259833 19.169617 
L 276.813219 26.744089 
L 281.919992 44.220484 
L 287.026764 62.275142 
L 289.58015 70.142382 
L 292.133536 76.036424 
L 294.686923 80.414397 
L 297.240309 84.097781 
L 299.793695 86.960053 
L 302.347081 88.620959 
L 304.900468 88.902491 
L 307.453854 87.957608 
L 310.00724 85.724019 
L 312.560626 82.684181 
L 315.114012 78.883849 
L 317.667399 74.116206 
L 320.220785 67.672345 
L 322.774171 59.500595 
L 327.880943 42.425091 
L 332.987716 26.411408 
L 335.541102 19.327949 
L 338.094488 13.980288 
L 340.647874 10.822639 
L 343.201261 10.08 
L 345.754647 11.775374 
L 348.308033 15.698191 
L 350.861419 21.460177 
L 353.414806 28.421457 
L 358.521578 43.159967 
L 363.62835 57.441381 
L 366.181737 64.048714 
L 368.735123 69.478982 
L 371.288509 73.50108 
L 373.841895 76.286686 
L 376.395281 77.645991 
L 378.948668 78.442523 
L 381.502054 77.810339 
L 384.05544 76.83455 
L 386.608826 75.250699 
L 389.162212 72.132467 
L 391.715599 67.31525 
L 394.268985 61.295034 
L 399.375757 47.678178 
L 404.48253 33.5492 
L 407.035916 26.429899 
L 409.589302 19.976632 
L 412.142688 14.858766 
L 414.696075 11.480409 
L 417.249461 10.267639 
L 419.802847 11.351256 
L 422.356233 14.766741 
L 424.909619 20.077713 
L 427.463006 26.853838 
L 432.569778 41.70359 
L 437.67655 55.49575 
L 442.783323 68.676855 
L 442.783323 68.676855 
" clip-path="url(#p219134ba39)" style="fill: none; stroke: #1f77b4; stroke-width: 1.5; stroke-linecap: square"/>
   </g>
   <g id="patch_3">
    <path d="M 43.30605 221.76 
L 43.30605 -0 
" style="fill: none; stroke: #000000; stroke-width: 0.8; stroke-linejoin: miter; stroke-linecap: square"/>
   </g>
   <g id="patch_4">
    <path d="M 461.80605 221.76 
L 461.80605 -0 
" style="fill: none; stroke: #000000; stroke-width: 0.8; stroke-linejoin: miter; stroke-linecap: square"/>
   </g>
   <g id="patch_5">
    <path d="M 43.30605 221.76 
L 461.80605 221.76 
" style="fill: none; stroke: #000000; stroke-width: 0.8; stroke-linejoin: miter; stroke-linecap: square"/>
   </g>
   <g id="patch_6">
    <path d="M 43.30605 -0 
L 461.80605 -0 
" style="fill: none; stroke: #000000; stroke-width: 0.8; stroke-linejoin: miter; stroke-linecap: square"/>
   </g>
  </g>
  <g id="axes_2">
   <g id="patch_7">
    <path d="M 272.80605 181.44 
L 434.80605 181.44 
L 434.80605 92.16 
L 272.80605 92.16 
z
" style="fill: #ffffff"/>
   </g>
   <g id="matplotlib.axis_3">
    <g id="xtick_10">
     <g id="line2d_23">
      <g>
       <use xlink:href="#m2d9b2590a7" x="280.169687" y="181.44" style="stroke: #000000; stroke-width: 0.8"/>
      </g>
     </g>
     <g id="text_19">
      <!-- $\mathdefault{0}$ -->
      <g transform="translate(276.511568 195.58748) scale(0.15 -0.15)">
       <use xlink:href="#CMR17-30" transform="scale(0.996264)"/>
      </g>
     </g>
    </g>
    <g id="xtick_11">
     <g id="line2d_24">
      <g>
       <use xlink:href="#m2d9b2590a7" x="372.215141" y="181.44" style="stroke: #000000; stroke-width: 0.8"/>
      </g>
     </g>
     <g id="text_20">
      <!-- $\mathdefault{10}$ -->
      <g transform="translate(364.898903 195.58748) scale(0.15 -0.15)">
       <use xlink:href="#CMR17-31" transform="scale(0.996264)"/>
       <use xlink:href="#CMR17-30" transform="translate(45.690477 0) scale(0.996264)"/>
      </g>
     </g>
    </g>
    <g id="text_21">
     <!-- $2h/\omega$ -->
     <g transform="translate(342.854048 206.24244) scale(0.1 -0.1)">
      <use xlink:href="#CMR17-32" transform="scale(0.996264)"/>
      <use xlink:href="#CMMI12-68" transform="translate(45.690477 0) scale(0.996264)"/>
      <use xlink:href="#CMMI12-3d" transform="translate(101.845101 0) scale(0.996264)"/>
      <use xlink:href="#CMMI12-21" transform="translate(150.62002 0) scale(0.996264)"/>
     </g>
    </g>
   </g>
   <g id="matplotlib.axis_4">
    <g id="ytick_8">
     <g id="line2d_25">
      <g>
       <use xlink:href="#m8a4a9d1f86" x="272.80605" y="181.44" style="stroke: #000000; stroke-width: 0.8"/>
      </g>
     </g>
     <g id="text_22">
      <!-- $\mathdefault{0.98}$ -->
      <g transform="translate(243.29276 186.76374) scale(0.15 -0.15)">
       <use xlink:href="#CMR17-30" transform="scale(0.996264)"/>
       <use xlink:href="#CMMI12-3a" transform="translate(45.690477 0) scale(0.996264)"/>
       <use xlink:href="#CMR17-39" transform="translate(72.787654 0) scale(0.996264)"/>
       <use xlink:href="#CMR17-38" transform="translate(118.478131 0) scale(0.996264)"/>
      </g>
     </g>
    </g>
    <g id="ytick_9">
     <g id="line2d_26">
      <g>
       <use xlink:href="#m8a4a9d1f86" x="272.80605" y="121.92" style="stroke: #000000; stroke-width: 0.8"/>
      </g>
     </g>
     <g id="text_23">
      <!-- $\mathdefault{1.00}$ -->
      <g transform="translate(243.29276 127.24374) scale(0.15 -0.15)">
       <use xlink:href="#CMR17-31" transform="scale(0.996264)"/>
       <use xlink:href="#CMMI12-3a" transform="translate(45.690477 0) scale(0.996264)"/>
       <use xlink:href="#CMR17-30" transform="translate(72.787654 0) scale(0.996264)"/>
       <use xlink:href="#CMR17-30" transform="translate(118.478131 0) scale(0.996264)"/>
      </g>
     </g>
    </g>
    <g id="text_24">
     <!-- $\langle S^z_i S^z_j \rangle$ -->
     <g transform="translate(235.34355 151.94809) rotate(-90) scale(0.1 -0.1)">
      <use xlink:href="#CMSY10-68" transform="scale(0.996264)"/>
      <use xlink:href="#CMMI12-53" transform="translate(38.743734 0) scale(0.996264)"/>
      <use xlink:href="#CMMI12-7a" transform="translate(104.538173 36.153639) scale(0.697382)"/>
      <use xlink:href="#CMMI12-69" transform="translate(98.738222 -25.505809) scale(0.697382)"/>
      <use xlink:href="#CMMI12-53" transform="translate(139.864728 0) scale(0.996264)"/>
      <use xlink:href="#CMMI12-7a" transform="translate(205.659168 36.153639) scale(0.697382)"/>
      <use xlink:href="#CMMI12-6a" transform="translate(199.859216 -25.505809) scale(0.697382)"/>
      <use xlink:href="#CMSY10-69" transform="translate(240.985723 0) scale(0.996264)"/>
     </g>
    </g>
   </g>
   <g id="line2d_27">
    <path d="M 302.305013 181.44 
L 302.305013 92.16 
" clip-path="url(#p863f8134ee)" style="fill: none; stroke-dasharray: 5.55,2.4; stroke-dashoffset: 0; stroke: #000000; stroke-opacity: 0.3; stroke-width: 1.5"/>
   </g>
   <g id="line2d_28">
    <path d="M 330.979496 181.44 
L 330.979496 92.16 
" clip-path="url(#p863f8134ee)" style="fill: none; stroke-dasharray: 5.55,2.4; stroke-dashoffset: 0; stroke: #000000; stroke-opacity: 0.3; stroke-width: 1.5"/>
   </g>
   <g id="line2d_29">
    <path d="M 359.823318 181.44 
L 359.823318 92.16 
" clip-path="url(#p863f8134ee)" style="fill: none; stroke-dasharray: 5.55,2.4; stroke-dashoffset: 0; stroke: #000000; stroke-opacity: 0.3; stroke-width: 1.5"/>
   </g>
   <g id="line2d_30">
    <path d="M 388.705401 181.44 
L 388.705401 92.16 
" clip-path="url(#p863f8134ee)" style="fill: none; stroke-dasharray: 5.55,2.4; stroke-dashoffset: 0; stroke: #000000; stroke-opacity: 0.3; stroke-width: 1.5"/>
   </g>
   <g id="line2d_31">
    <path d="M 417.601997 181.44 
L 417.601997 92.16 
" clip-path="url(#p863f8134ee)" style="fill: none; stroke-dasharray: 5.55,2.4; stroke-dashoffset: 0; stroke: #000000; stroke-opacity: 0.3; stroke-width: 1.5"/>
   </g>
   <g id="line2d_32">
    <path d="M 300.891186 259.03442 
L 300.926245 252.639084 
L 301.914653 157.83776 
L 302.903061 169.065388 
L 303.780076 259.03442 
M 328.568113 259.03442 
L 328.601657 255.259715 
L 329.590065 172.242756 
L 330.578472 131.387345 
L 331.56688 135.99629 
L 332.555288 182.892709 
L 333.490429 259.03442 
M 356.826641 259.03442 
L 357.265477 224.005122 
L 358.253884 165.056014 
L 359.242292 133.5742 
L 360.230699 131.278975 
L 361.219107 157.167698 
L 362.207514 208.776104 
L 362.918487 259.03442 
M 385.191134 259.03442 
L 385.929296 210.236619 
L 386.917704 160.907556 
L 387.906111 131.780084 
L 388.894519 124.929673 
L 389.882926 140.568512 
L 390.871334 176.754216 
L 392.308112 259.03442 
M 413.882223 259.03442 
L 414.593115 216.220341 
L 415.581523 169.011009 
L 416.569931 137.847633 
L 417.558338 126.660537 
L 418.546746 136.656271 
L 419.535153 168.162134 
L 420.523561 217.152758 
L 421.185838 259.03442 
L 421.185838 259.03442 
" clip-path="url(#p863f8134ee)" style="fill: none; stroke: #1f77b4; stroke-width: 1.5; stroke-linecap: square"/>
   </g>
   <g id="line2d_33">
    <path d="M 272.80605 121.92 
L 434.80605 121.92 
" clip-path="url(#p863f8134ee)" style="fill: none; stroke-dasharray: 5.55,2.4; stroke-dashoffset: 0; stroke: #008000; stroke-opacity: 0.25; stroke-width: 1.5"/>
   </g>
   <g id="patch_8">
    <path d="M 272.80605 181.44 
L 272.80605 92.16 
" style="fill: none; stroke: #000000; stroke-width: 0.8; stroke-linejoin: miter; stroke-linecap: square"/>
   </g>
   <g id="patch_9">
    <path d="M 434.80605 181.44 
L 434.80605 92.16 
" style="fill: none; stroke: #000000; stroke-width: 0.8; stroke-linejoin: miter; stroke-linecap: square"/>
   </g>
   <g id="patch_10">
    <path d="M 272.80605 181.44 
L 434.80605 181.44 
" style="fill: none; stroke: #000000; stroke-width: 0.8; stroke-linejoin: miter; stroke-linecap: square"/>
   </g>
   <g id="patch_11">
    <path d="M 272.80605 92.16 
L 434.80605 92.16 
" style="fill: none; stroke: #000000; stroke-width: 0.8; stroke-linejoin: miter; stroke-linecap: square"/>
   </g>
  </g>
 </g>
 <defs>
  <clipPath id="p219134ba39">
   <rect x="43.30605" y="-0" width="418.5" height="221.76"/>
  </clipPath>
  <clipPath id="p863f8134ee">
   <rect x="272.80605" y="92.16" width="162" height="89.28"/>
  </clipPath>
 </defs>
</svg>
