<?xml version="1.0" encoding="utf-8" standalone="no"?>
<!DOCTYPE svg PUBLIC "-//W3C//DTD SVG 1.1//EN"
  "http://www.w3.org/Graphics/SVG/1.1/DTD/svg11.dtd">
<svg xmlns:xlink="http://www.w3.org/1999/xlink" width="478.640246pt" height="284.64092pt" viewBox="0 0 478.640246 284.64092" xmlns="http://www.w3.org/2000/svg" version="1.1">
 <metadata>
  <rdf:RDF xmlns:dc="http://purl.org/dc/elements/1.1/" xmlns:cc="http://creativecommons.org/ns#" xmlns:rdf="http://www.w3.org/1999/02/22-rdf-syntax-ns#">
   <cc:Work>
    <dc:type rdf:resource="http://purl.org/dc/dcmitype/StillImage"/>
    <dc:date>2024-01-06T07:16:54.204263</dc:date>
    <dc:format>image/svg+xml</dc:format>
    <dc:creator>
     <cc:Agent>
      <dc:title>Matplotlib v3.7.1, https://matplotlib.org/</dc:title>
     </cc:Agent>
    </dc:creator>
   </cc:Work>
  </rdf:RDF>
 </metadata>
 <defs>
  <style type="text/css">*{stroke-linejoin: round; stroke-linecap: butt}</style>
 </defs>
 <g id="figure_1">
  <g id="patch_1">
   <path d="M 0 284.64092 
L 478.640246 284.64092 
L 478.640246 0 
L 0 0 
z
" style="fill: #ffffff"/>
  </g>
  <g id="axes_1">
   <g id="patch_2">
    <path d="M 42.309786 122.896552 
L 460.809786 122.896552 
L 460.809786 -0 
L 42.309786 -0 
z
" style="fill: #ffffff"/>
   </g>
   <g id="matplotlib.axis_1">
    <g id="xtick_1">
     <g id="line2d_1">
      <defs>
       <path id="m45cfb10755" d="M 0 0 
L 0 -3.5 
" style="stroke: #000000; stroke-width: 0.8"/>
      </defs>
      <g>
       <use xlink:href="#m45cfb10755" x="61.332513" y="122.896552" style="stroke: #000000; stroke-width: 0.8"/>
      </g>
     </g>
    </g>
    <g id="xtick_2">
     <g id="line2d_2">
      <g>
       <use xlink:href="#m45cfb10755" x="121.917375" y="122.896552" style="stroke: #000000; stroke-width: 0.8"/>
      </g>
     </g>
    </g>
    <g id="xtick_3">
     <g id="line2d_3">
      <g>
       <use xlink:href="#m45cfb10755" x="182.502236" y="122.896552" style="stroke: #000000; stroke-width: 0.8"/>
      </g>
     </g>
    </g>
    <g id="xtick_4">
     <g id="line2d_4">
      <g>
       <use xlink:href="#m45cfb10755" x="243.087097" y="122.896552" style="stroke: #000000; stroke-width: 0.8"/>
      </g>
     </g>
    </g>
    <g id="xtick_5">
     <g id="line2d_5">
      <g>
       <use xlink:href="#m45cfb10755" x="303.671958" y="122.896552" style="stroke: #000000; stroke-width: 0.8"/>
      </g>
     </g>
    </g>
    <g id="xtick_6">
     <g id="line2d_6">
      <g>
       <use xlink:href="#m45cfb10755" x="364.256819" y="122.896552" style="stroke: #000000; stroke-width: 0.8"/>
      </g>
     </g>
    </g>
    <g id="xtick_7">
     <g id="line2d_7">
      <g>
       <use xlink:href="#m45cfb10755" x="424.84168" y="122.896552" style="stroke: #000000; stroke-width: 0.8"/>
      </g>
     </g>
    </g>
   </g>
   <g id="matplotlib.axis_2">
    <g id="ytick_1">
     <g id="line2d_8">
      <defs>
       <path id="me674bb0217" d="M 0 0 
L 3.5 0 
" style="stroke: #000000; stroke-width: 0.8"/>
      </defs>
      <g>
       <use xlink:href="#me674bb0217" x="42.309786" y="102.233214" style="stroke: #000000; stroke-width: 0.8"/>
      </g>
     </g>
     <g id="text_1">
      <!-- $\mathdefault{0.8}$ -->
      <g transform="translate(20.112734 107.556954) scale(0.15 -0.15)">
       <defs>
        <path id="CMR17-30" d="M 2688 2038 
C 2688 2430 2682 3099 2413 3613 
C 2176 4063 1798 4224 1466 4224 
C 1158 4224 768 4082 525 3620 
C 269 3137 243 2539 243 2038 
C 243 1671 250 1112 448 623 
C 723 -39 1216 -128 1466 -128 
C 1760 -128 2208 -7 2470 604 
C 2662 1048 2688 1568 2688 2038 
z
M 1466 -26 
C 1056 -26 813 328 723 816 
C 653 1196 653 1749 653 2109 
C 653 2604 653 3015 736 3407 
C 858 3954 1216 4121 1466 4121 
C 1728 4121 2067 3947 2189 3420 
C 2272 3054 2278 2623 2278 2109 
C 2278 1691 2278 1176 2202 797 
C 2067 96 1690 -26 1466 -26 
z
" transform="scale(0.015625)"/>
        <path id="CMMI12-3a" d="M 1178 307 
C 1178 492 1024 620 870 620 
C 685 620 557 467 557 313 
C 557 128 710 0 864 0 
C 1050 0 1178 153 1178 307 
z
" transform="scale(0.015625)"/>
        <path id="CMR17-38" d="M 1741 2289 
C 2144 2494 2554 2803 2554 3298 
C 2554 3884 1990 4224 1472 4224 
C 890 4224 378 3800 378 3215 
C 378 3054 416 2777 666 2533 
C 730 2469 998 2276 1171 2154 
C 883 2006 211 1652 211 945 
C 211 282 838 -128 1459 -128 
C 2144 -128 2720 366 2720 1022 
C 2720 1607 2330 1877 2074 2051 
L 1741 2289 
z
M 902 2855 
C 851 2887 595 3086 595 3388 
C 595 3781 998 4076 1459 4076 
C 1965 4076 2336 3716 2336 3298 
C 2336 2700 1670 2359 1638 2359 
C 1632 2359 1626 2359 1574 2398 
L 902 2855 
z
M 2080 1536 
C 2176 1466 2483 1253 2483 861 
C 2483 385 2010 25 1472 25 
C 890 25 448 443 448 951 
C 448 1459 838 1884 1280 2083 
L 2080 1536 
z
" transform="scale(0.015625)"/>
       </defs>
       <use xlink:href="#CMR17-30" transform="scale(0.996264)"/>
       <use xlink:href="#CMMI12-3a" transform="translate(45.690477 0) scale(0.996264)"/>
       <use xlink:href="#CMR17-38" transform="translate(72.787654 0) scale(0.996264)"/>
      </g>
     </g>
    </g>
    <g id="ytick_2">
     <g id="line2d_9">
      <g>
       <use xlink:href="#me674bb0217" x="42.309786" y="53.90971" style="stroke: #000000; stroke-width: 0.8"/>
      </g>
     </g>
     <g id="text_2">
      <!-- $\mathdefault{0.9}$ -->
      <g transform="translate(20.112734 59.23345) scale(0.15 -0.15)">
       <defs>
        <path id="CMR17-39" d="M 2253 1871 
C 2253 448 1670 25 1190 25 
C 1043 25 685 43 538 281 
C 704 256 826 345 826 505 
C 826 678 685 736 595 736 
C 538 736 365 710 365 492 
C 365 68 742 -128 1203 -128 
C 1939 -128 2688 665 2688 2090 
C 2688 3857 1971 4224 1485 4224 
C 851 4224 243 3664 243 2800 
C 243 2000 762 1408 1414 1408 
C 1952 1408 2189 1910 2253 2122 
L 2253 1871 
z
M 1427 1510 
C 1254 1510 1011 1542 813 1929 
C 678 2181 678 2477 678 2793 
C 678 3174 678 3438 858 3722 
C 947 3857 1114 4076 1485 4076 
C 2240 4076 2240 2909 2240 2651 
C 2240 2193 2035 1510 1427 1510 
z
" transform="scale(0.015625)"/>
       </defs>
       <use xlink:href="#CMR17-30" transform="scale(0.996264)"/>
       <use xlink:href="#CMMI12-3a" transform="translate(45.690477 0) scale(0.996264)"/>
       <use xlink:href="#CMR17-39" transform="translate(72.787654 0) scale(0.996264)"/>
      </g>
     </g>
    </g>
    <g id="ytick_3">
     <g id="line2d_10">
      <g>
       <use xlink:href="#me674bb0217" x="42.309786" y="5.586207" style="stroke: #000000; stroke-width: 0.8"/>
      </g>
     </g>
     <g id="text_3">
      <!-- $\mathdefault{1.0}$ -->
      <g transform="translate(20.112734 10.909947) scale(0.15 -0.15)">
       <defs>
        <path id="CMR17-31" d="M 1702 4083 
C 1702 4217 1696 4224 1606 4224 
C 1357 3927 979 3833 621 3820 
C 602 3820 570 3820 563 3808 
C 557 3795 557 3782 557 3648 
C 755 3648 1088 3686 1344 3839 
L 1344 467 
C 1344 243 1331 166 781 166 
L 589 166 
L 589 0 
C 896 6 1216 12 1523 12 
C 1830 12 2150 6 2458 0 
L 2458 166 
L 2266 166 
C 1715 166 1702 236 1702 467 
L 1702 4083 
z
" transform="scale(0.015625)"/>
       </defs>
       <use xlink:href="#CMR17-31" transform="scale(0.996264)"/>
       <use xlink:href="#CMMI12-3a" transform="translate(45.690477 0) scale(0.996264)"/>
       <use xlink:href="#CMR17-30" transform="translate(72.787654 0) scale(0.996264)"/>
      </g>
     </g>
    </g>
    <g id="text_4">
     <!-- $ S^z_i S^z_j$ -->
     <g transform="translate(10.211706 76.661277) rotate(-90) scale(0.15 -0.15)">
      <defs>
       <path id="CMMI12-53" d="M 4064 4422 
C 4064 4480 4019 4480 4006 4480 
C 3981 4480 3974 4473 3898 4377 
C 3859 4332 3597 4002 3590 3996 
C 3379 4409 2957 4480 2688 4480 
C 1875 4480 1139 3742 1139 3024 
C 1139 2547 1427 2268 1741 2160 
C 1811 2134 2189 2033 2381 1988 
C 2707 1899 2790 1874 2925 1734 
C 2950 1702 3078 1556 3078 1258 
C 3078 667 2528 57 1888 57 
C 1363 57 781 279 781 991 
C 781 1112 806 1264 826 1328 
C 826 1347 832 1378 832 1391 
C 832 1417 819 1448 768 1448 
C 710 1448 704 1436 678 1328 
L 352 25 
C 352 19 326 -64 326 -71 
C 326 -128 378 -128 390 -128 
C 416 -128 422 -122 499 -26 
L 794 356 
C 947 127 1280 -128 1875 -128 
C 2701 -128 3456 667 3456 1461 
C 3456 1728 3392 1963 3149 2198 
C 3014 2331 2899 2363 2310 2516 
C 1882 2630 1824 2649 1709 2751 
C 1600 2859 1517 3011 1517 3227 
C 1517 3761 2061 4307 2669 4307 
C 3296 4307 3590 3926 3590 3322 
C 3590 3157 3558 2986 3558 2960 
C 3558 2903 3610 2903 3629 2903 
C 3686 2903 3693 2922 3718 3024 
L 4064 4422 
z
" transform="scale(0.015625)"/>
       <path id="CMMI12-7a" d="M 813 486 
C 1088 809 1312 1015 1632 1313 
C 2016 1657 2182 1822 2272 1922 
C 2720 2371 2944 2713 2944 2764 
C 2944 2816 2893 2816 2880 2816 
C 2835 2816 2822 2790 2790 2745 
C 2630 2470 2477 2368 2310 2368 
C 2176 2368 2106 2403 1984 2547 
C 1850 2707 1741 2816 1555 2816 
C 1088 2816 806 2265 806 2127 
C 806 2107 813 2067 870 2067 
C 922 2067 928 2094 947 2140 
C 1056 2387 1363 2415 1485 2415 
C 1619 2415 1747 2387 1882 2342 
C 2125 2239 2227 2239 2291 2239 
C 2336 2239 2362 2239 2394 2246 
C 2182 1988 1837 1670 1549 1399 
L 902 783 
C 512 380 275 32 275 -13 
C 275 -52 307 -64 346 -64 
C 384 -64 390 -58 435 19 
C 538 179 742 384 979 384 
C 1114 384 1178 356 1306 211 
C 1427 70 1536 -64 1741 -64 
C 2368 -64 2726 723 2726 876 
C 2726 902 2720 942 2656 942 
C 2605 942 2598 915 2579 849 
C 2438 460 2061 336 1811 336 
C 1677 336 1549 364 1414 409 
C 1158 512 1088 512 1005 512 
C 941 512 870 512 813 486 
z
" transform="scale(0.015625)"/>
       <path id="CMMI12-69" d="M 1811 913 
C 1811 945 1786 970 1747 970 
C 1690 970 1683 951 1651 842 
C 1485 261 1222 64 1011 64 
C 934 64 845 83 845 274 
C 845 447 922 638 992 830 
L 1440 2017 
C 1459 2068 1504 2183 1504 2305 
C 1504 2573 1312 2816 998 2816 
C 410 2816 173 1890 173 1838 
C 173 1813 198 1781 243 1781 
C 301 1781 307 1807 333 1896 
C 486 2432 730 2687 979 2687 
C 1037 2687 1146 2681 1146 2477 
C 1146 2311 1062 2100 1011 1960 
L 563 772 
C 525 670 486 568 486 453 
C 486 166 685 -64 992 -64 
C 1581 -64 1811 868 1811 913 
z
M 1760 4012 
C 1760 4108 1683 4224 1542 4224 
C 1395 4224 1229 4083 1229 3916 
C 1229 3756 1363 3705 1440 3705 
C 1613 3705 1760 3871 1760 4012 
z
" transform="scale(0.015625)"/>
       <path id="CMMI12-6a" d="M 2240 2027 
C 2266 2129 2266 2218 2266 2243 
C 2266 2611 1990 2816 1702 2816 
C 1056 2816 710 1888 710 1843 
C 710 1811 736 1786 774 1786 
C 826 1786 832 1811 864 1875 
C 1120 2491 1440 2687 1683 2687 
C 1818 2687 1888 2617 1888 2395 
C 1888 2243 1869 2180 1843 2065 
L 1235 -327 
C 1114 -797 813 -1152 461 -1152 
C 435 -1152 301 -1152 179 -1089 
C 333 -1057 454 -937 454 -784 
C 454 -683 378 -581 237 -581 
C 70 -581 -83 -721 -83 -911 
C -83 -1172 198 -1280 461 -1280 
C 902 -1280 1485 -956 1645 -321 
L 2240 2027 
z
M 2502 4012 
C 2502 4172 2368 4224 2291 4224 
C 2118 4224 1971 4057 1971 3916 
C 1971 3820 2048 3705 2189 3705 
C 2336 3705 2502 3846 2502 4012 
z
" transform="scale(0.015625)"/>
      </defs>
      <use xlink:href="#CMMI12-53" transform="scale(0.996264)"/>
      <use xlink:href="#CMMI12-7a" transform="translate(65.794439 36.153639) scale(0.697382)"/>
      <use xlink:href="#CMMI12-69" transform="translate(59.994488 -25.505809) scale(0.697382)"/>
      <use xlink:href="#CMMI12-53" transform="translate(101.120995 0) scale(0.996264)"/>
      <use xlink:href="#CMMI12-7a" transform="translate(166.915434 36.153639) scale(0.697382)"/>
      <use xlink:href="#CMMI12-6a" transform="translate(161.115482 -25.505809) scale(0.697382)"/>
     </g>
    </g>
   </g>
   <g id="line2d_11">
    <path d="M 61.332513 5.586207 
L 61.543877 5.863961 
L 61.966604 7.370482 
L 62.389332 9.665305 
L 62.812059 14.67933 
L 63.023423 17.562348 
L 63.234786 18.818272 
L 63.44615 17.572735 
L 64.080241 9.746642 
L 64.502968 7.545749 
L 64.925695 6.172626 
L 65.137059 5.909009 
L 65.348423 6.125336 
L 65.77115 7.405983 
L 66.193877 9.514422 
L 66.616604 14.255889 
L 66.827968 16.984669 
L 67.039332 18.175878 
L 67.250695 17.008668 
L 67.884786 9.724639 
L 68.307513 7.871267 
L 68.730241 6.957278 
L 68.941604 6.778796 
L 69.152968 6.868544 
L 69.575695 7.601779 
L 69.787059 8.230873 
L 69.998423 9.273792 
L 70.42115 13.463181 
L 70.632513 15.894128 
L 70.843877 16.955706 
L 71.055241 15.918852 
L 71.689332 9.546784 
L 72.112059 8.231009 
L 72.534786 8.018694 
L 73.380241 7.880916 
L 73.591604 8.191128 
L 73.802968 8.952915 
L 74.225695 12.41812 
L 74.437059 14.464808 
L 74.648423 15.35928 
L 74.859786 14.486809 
L 75.493877 9.252394 
L 75.705241 8.659167 
L 75.916604 8.581484 
L 76.550695 9.3506 
L 76.762059 9.108902 
L 77.184786 8.245675 
L 77.39615 8.206574 
L 77.607513 8.664783 
L 78.030241 11.361846 
L 78.241604 13.004492 
L 78.452968 13.726176 
L 78.664332 13.031156 
L 79.298423 8.993693 
L 79.509786 8.710217 
L 79.72115 8.982026 
L 80.355241 10.791152 
L 80.566604 10.404433 
L 80.989332 8.75331 
L 81.200695 8.383295 
L 81.412059 8.556651 
L 81.623423 9.307233 
L 82.257513 12.376483 
L 82.468877 11.846895 
L 82.891604 9.514903 
L 83.102968 8.903097 
L 83.314332 8.895947 
L 83.525695 9.475946 
L 84.159786 12.209529 
L 84.37115 11.706776 
L 85.005241 8.7216 
L 85.216604 8.647685 
L 85.427968 9.123182 
L 86.062059 11.405874 
L 86.273423 11.00762 
L 86.69615 9.299887 
L 86.907513 8.941519 
L 87.118877 9.148815 
L 87.330241 9.966609 
L 87.964332 13.426006 
L 88.175695 12.830459 
L 88.809786 9.049584 
L 89.02115 8.7668 
L 89.232513 9.012987 
L 89.866604 10.644478 
L 90.077968 10.337095 
L 90.500695 9.091286 
L 90.712059 8.916464 
L 90.923423 9.275474 
L 91.134786 10.262246 
L 91.768877 14.25937 
L 91.980241 13.588847 
L 92.614332 9.153688 
L 92.825695 8.6944 
L 93.037059 8.749195 
L 93.67115 9.841652 
L 93.882513 9.599334 
L 94.305241 8.709929 
L 94.516604 8.676352 
L 94.727968 9.151043 
L 94.939332 10.268222 
L 95.573423 14.708851 
L 95.784786 13.98175 
L 96.418877 8.992675 
L 96.630241 8.381667 
L 96.841604 8.272496 
L 97.475695 8.905478 
L 97.687059 8.72744 
L 98.109786 8.176844 
L 98.32115 8.281639 
L 98.532513 8.871845 
L 98.955241 12.028437 
L 99.377968 15.020703 
L 99.589332 14.256324 
L 100.223423 8.763636 
L 100.434786 8.014533 
L 100.64615 7.754891 
L 101.068877 7.912849 
L 101.280241 7.962796 
L 101.914332 7.696173 
L 102.125695 7.961078 
L 102.337059 8.686994 
L 102.759786 12.187325 
L 103.182513 15.518864 
L 103.393877 14.730517 
L 104.027968 8.733132 
L 104.450695 7.433509 
L 104.873423 7.228235 
L 105.507513 7.254541 
L 105.718877 7.451486 
L 105.930241 7.892876 
L 106.141604 8.76711 
L 106.564332 12.635567 
L 106.987059 16.3298 
L 107.198423 15.520796 
L 107.832513 8.997786 
L 108.255241 7.393079 
L 108.677968 6.811016 
L 108.889332 6.706092 
L 109.100695 6.78136 
L 109.523423 7.438014 
L 109.734786 8.041832 
L 109.94615 9.048234 
L 110.368877 13.241623 
L 110.791604 17.259867 
L 111.002968 16.431171 
L 111.637059 9.414702 
L 112.059786 7.523159 
L 112.482513 6.605993 
L 112.693877 6.42536 
L 112.905241 6.557737 
L 113.327968 7.505748 
L 113.750695 9.307232 
L 114.173423 13.701056 
L 114.59615 17.935654 
L 114.807513 17.100859 
L 115.441604 9.755694 
L 115.864332 7.674708 
L 116.287059 6.570339 
L 116.498423 6.350868 
L 116.709786 6.505368 
L 117.132513 7.54969 
L 117.555241 9.375834 
L 117.977968 13.775199 
L 118.400695 18.059811 
L 118.612059 17.253307 
L 119.24615 9.90594 
L 119.668877 7.825249 
L 120.091604 6.794044 
L 120.302968 6.607802 
L 120.514332 6.74714 
L 120.937059 7.627266 
L 121.148423 8.266031 
L 121.359786 9.264913 
L 121.782513 13.424176 
L 122.205241 17.546935 
L 122.416604 16.816439 
L 123.050695 9.905429 
L 123.473423 8.072793 
L 123.89615 7.438848 
L 124.107513 7.376925 
L 124.530241 7.635905 
L 124.952968 8.296424 
L 125.164332 9.093017 
L 125.587059 12.743601 
L 126.009786 16.466929 
L 126.22115 15.856223 
L 126.855241 9.829654 
L 127.066604 8.895563 
L 127.277968 8.489482 
L 127.489332 8.428127 
L 128.123423 8.703731 
L 128.54615 8.378781 
L 128.757513 8.445476 
L 128.968877 8.937689 
L 129.180241 10.052697 
L 129.814332 14.933365 
L 130.025695 14.468907 
L 130.659786 9.682906 
L 130.87115 9.069278 
L 131.082513 9.021584 
L 131.505241 10.031166 
L 131.716604 10.450064 
L 131.927968 10.320318 
L 132.562059 8.672979 
L 132.773423 8.789633 
L 132.984786 9.492996 
L 133.618877 13.087273 
L 133.830241 12.775775 
L 134.464332 9.429806 
L 134.675695 9.18621 
L 134.887059 9.545341 
L 135.52115 12.316152 
L 135.732513 12.054717 
L 136.366604 8.913874 
L 136.577968 8.63602 
L 136.789332 8.911603 
L 137.423423 11.157478 
L 137.634786 10.989535 
L 138.268877 9.098426 
L 138.480241 9.227225 
L 138.691604 9.989305 
L 139.325695 14.068078 
L 139.537059 13.689475 
L 140.17115 9.165818 
L 140.382513 8.530795 
L 140.593877 8.422918 
L 141.016604 9.145275 
L 141.227968 9.451157 
L 141.439332 9.403028 
L 141.862059 8.804517 
L 142.073423 8.795944 
L 142.284786 9.251747 
L 142.49615 10.361501 
L 143.130241 15.549592 
L 143.341604 15.082983 
L 144.187059 8.537916 
L 144.398423 8.133333 
L 144.609786 8.044777 
L 145.666604 8.311102 
L 145.877968 8.596279 
L 146.089332 9.293353 
L 146.300695 10.654109 
L 146.934786 16.626761 
L 147.14615 16.102386 
L 147.991604 8.616614 
L 148.414332 7.692707 
L 148.837059 7.46945 
L 149.259786 7.712547 
L 149.682513 8.443848 
L 149.893877 9.276831 
L 150.316604 13.065925 
L 150.739332 17.160775 
L 150.950695 16.603739 
L 151.79615 8.6172 
L 152.218877 7.482961 
L 152.641604 7.06136 
L 152.852968 7.125715 
L 153.275695 7.700769 
L 153.487059 8.212529 
L 153.698423 9.086866 
L 154.12115 12.951507 
L 154.543877 17.10714 
L 154.755241 16.540572 
L 155.600695 8.430521 
L 156.023423 7.269806 
L 156.44615 6.81437 
L 156.657513 6.854238 
L 157.080241 7.38076 
L 157.291604 7.874772 
L 157.502968 8.731402 
L 157.925695 12.536632 
L 158.348423 16.640882 
L 158.559786 16.089214 
L 159.405241 8.136203 
L 159.827968 7.079788 
L 160.250695 6.709873 
L 160.462059 6.727599 
L 160.884786 7.134668 
L 161.09615 7.582017 
L 161.307513 8.400821 
L 161.730241 12.100907 
L 162.152968 16.120006 
L 162.364332 15.603981 
L 163.209786 7.964442 
L 163.632513 7.078011 
L 164.055241 6.852774 
L 164.477968 6.944172 
L 164.689332 7.141323 
L 164.900695 7.540047 
L 165.112059 8.321514 
L 165.323423 9.741716 
L 165.957513 15.85195 
L 166.168877 15.378975 
L 167.014332 8.084507 
L 167.225695 7.581502 
L 167.648423 7.309211 
L 168.282513 7.319066 
L 168.493877 7.449693 
L 168.705241 7.796978 
L 168.916604 8.537457 
L 169.127968 9.909705 
L 169.762059 15.856576 
L 169.973423 15.418518 
L 170.818877 8.435615 
L 171.030241 8.004294 
L 171.241604 7.881804 
L 172.298423 7.902583 
L 172.509786 8.175916 
L 172.72115 8.853232 
L 172.932513 10.154106 
L 173.566604 15.855777 
L 173.777968 15.440124 
L 174.623423 8.783136 
L 174.834786 8.428248 
L 175.04615 8.402767 
L 175.468877 8.610865 
L 175.891604 8.379229 
L 176.102968 8.28295 
L 176.314332 8.43628 
L 176.525695 9.009413 
L 176.737059 10.19574 
L 177.37115 15.504913 
L 177.582513 15.110698 
L 178.216604 9.73411 
L 178.427968 8.94256 
L 178.639332 8.704659 
L 178.850695 8.830872 
L 179.273423 9.298124 
L 179.484786 9.183843 
L 179.907513 8.530734 
L 180.118877 8.498775 
L 180.330241 8.91317 
L 180.541604 9.927417 
L 181.175695 14.645638 
L 181.387059 14.289241 
L 182.02115 9.550621 
L 182.232513 8.935182 
L 182.443877 8.889898 
L 183.077968 10.167208 
L 183.289332 10.002466 
L 183.923423 8.500841 
L 184.134786 8.692254 
L 184.34615 9.466943 
L 184.980241 13.359893 
L 185.191604 13.065377 
L 185.825695 9.278245 
L 186.037059 8.923155 
L 186.248423 9.157154 
L 186.882513 11.42167 
L 187.093877 11.208358 
L 187.727968 8.637456 
L 187.939332 8.537683 
L 188.150695 9.002458 
L 188.784786 11.830343 
L 188.99615 11.614034 
L 189.630241 9.044667 
L 189.841604 9.016335 
L 190.052968 9.595546 
L 190.687059 13.077636 
L 190.898423 12.816225 
L 191.532513 8.970796 
L 191.743877 8.522938 
L 191.955241 8.621438 
L 192.589332 10.202896 
L 192.800695 10.066006 
L 193.223423 9.01878 
L 193.434786 8.846057 
L 193.64615 9.170987 
L 193.857513 10.118594 
L 194.491604 14.90321 
L 194.702968 14.597038 
L 195.548423 8.583794 
L 195.759786 8.298166 
L 195.97115 8.338382 
L 196.393877 8.593975 
L 197.027968 8.372081 
L 197.239332 8.612214 
L 197.450695 9.269545 
L 197.662059 10.559172 
L 198.29615 16.56099 
L 198.507513 16.223924 
L 199.352968 8.641888 
L 199.775695 7.634992 
L 200.198423 7.178675 
L 200.409786 7.167732 
L 200.62115 7.371301 
L 201.043877 8.337285 
L 201.255241 9.26089 
L 201.677968 13.199193 
L 202.100695 17.78921 
L 202.312059 17.446115 
L 203.157513 8.696344 
L 203.580241 7.141213 
L 204.002968 6.194042 
L 204.214332 6.224044 
L 204.637059 7.309597 
L 205.059786 9.187566 
L 205.482513 13.478151 
L 205.905241 18.456222 
L 206.116604 18.133824 
L 206.962059 8.779066 
L 207.59615 6.250448 
L 207.807513 5.810458 
L 208.018877 5.862111 
L 208.441604 7.121602 
L 208.864332 9.090713 
L 209.287059 13.43247 
L 209.709786 18.501032 
L 209.92115 18.217857 
L 210.766604 8.857281 
L 211.189332 7.067632 
L 211.612059 6.009194 
L 211.823423 6.061225 
L 212.24615 7.165994 
L 212.668877 8.939448 
L 213.091604 13.040361 
L 213.514332 17.909036 
L 213.725695 17.673955 
L 214.57115 8.839251 
L 214.993877 7.332161 
L 215.416604 6.615899 
L 215.627968 6.653743 
L 216.050695 7.339695 
L 216.473423 8.693469 
L 216.684786 10.116468 
L 217.318877 16.785766 
L 217.530241 16.604001 
L 218.375695 8.695463 
L 218.798423 7.655056 
L 219.22115 7.459693 
L 219.855241 7.601837 
L 220.066604 7.838483 
L 220.277968 8.417562 
L 220.489332 9.585404 
L 221.123423 15.416516 
L 221.334786 15.293192 
L 222.180241 8.540227 
L 222.391604 8.102857 
L 222.602968 8.06351 
L 223.025695 8.476929 
L 223.237059 8.495478 
L 223.87115 7.950104 
L 224.082513 8.278505 
L 224.293877 9.189599 
L 224.927968 14.167077 
L 225.139332 14.102476 
L 225.984786 8.543631 
L 226.19615 8.358901 
L 226.407513 8.633643 
L 226.830241 9.647783 
L 227.041604 9.670134 
L 227.675695 8.289499 
L 227.887059 8.387735 
L 228.098423 9.064739 
L 228.732513 13.255733 
L 228.943877 13.238358 
L 229.789332 8.746634 
L 230.000695 8.783 
L 230.423423 10.180879 
L 230.634786 10.864113 
L 230.84615 10.887722 
L 231.480241 8.763412 
L 231.691604 8.654691 
L 231.902968 9.122043 
L 232.537059 12.603693 
L 232.748423 12.612007 
L 233.593877 8.987781 
L 233.805241 9.200722 
L 234.227968 11.06479 
L 234.439332 11.922348 
L 234.650695 11.937602 
L 235.49615 8.83488 
L 235.707513 9.108319 
L 236.552968 11.945427 
L 237.398423 9.047116 
L 237.609786 9.40885 
L 238.243877 12.688374 
L 238.455241 12.691194 
L 239.300695 8.752088 
L 239.512059 8.838138 
L 239.934786 10.320545 
L 240.14615 11.015633 
L 240.357513 11.031284 
L 240.991604 8.944029 
L 241.202968 8.865935 
L 241.414332 9.383976 
L 242.048423 13.259025 
L 242.259786 13.258227 
L 243.105241 8.469743 
L 243.316604 8.366597 
L 243.527968 8.729802 
L 243.950695 9.874887 
L 244.162059 9.898661 
L 244.79615 8.497563 
L 245.007513 8.610019 
L 245.218877 9.320766 
L 245.852968 13.917722 
L 246.064332 13.928989 
L 246.909786 8.231173 
L 247.12115 7.927697 
L 247.332513 8.040986 
L 247.755241 8.703787 
L 247.966604 8.742159 
L 248.600695 8.161388 
L 248.812059 8.504837 
L 249.023423 9.446845 
L 249.657513 14.889058 
L 249.868877 14.922121 
L 250.925695 7.709997 
L 251.137059 7.551616 
L 252.193877 7.789634 
L 252.405241 8.028168 
L 252.616604 8.619059 
L 252.827968 9.805442 
L 253.462059 16.122935 
L 253.673423 16.175538 
L 254.730241 7.709429 
L 255.152968 6.998349 
L 255.364332 6.855444 
L 255.575695 6.893075 
L 255.998423 7.488024 
L 256.209786 8.005336 
L 256.42115 8.821096 
L 256.632513 10.225721 
L 257.266604 17.309017 
L 257.477968 17.372779 
L 257.900695 12.560654 
L 258.323423 8.725977 
L 258.74615 7.127885 
L 259.168877 6.237963 
L 259.380241 6.250085 
L 259.802968 7.232521 
L 260.225695 8.934072 
L 260.437059 10.492211 
L 261.07115 18.09289 
L 261.282513 18.162771 
L 261.705241 13.036446 
L 262.127968 8.921455 
L 262.550695 7.080066 
L 262.973423 5.920755 
L 263.184786 5.90274 
L 263.607513 7.046743 
L 264.030241 8.9046 
L 264.452968 12.987708 
L 264.875695 18.273391 
L 265.087059 18.349628 
L 265.509786 13.171539 
L 265.932513 9.034399 
L 266.355241 7.216312 
L 266.777968 6.082619 
L 266.989332 6.041591 
L 267.200695 6.431707 
L 267.623423 7.816478 
L 267.834786 8.809422 
L 268.04615 10.361783 
L 268.680241 17.826534 
L 268.891604 17.907954 
L 269.948423 8.226577 
L 270.37115 7.150957 
L 270.582513 6.839524 
L 270.793877 6.787308 
L 271.005241 7.000069 
L 271.427968 7.919248 
L 271.639332 8.729845 
L 271.850695 10.09291 
L 272.484786 16.811127 
L 272.69615 16.889669 
L 273.752968 8.549281 
L 274.175695 8.157897 
L 275.02115 7.982508 
L 275.232513 8.152234 
L 275.443877 8.666482 
L 275.655241 9.731216 
L 276.289332 15.322744 
L 276.500695 15.386685 
L 277.34615 9.181188 
L 277.557513 8.87361 
L 277.768877 9.002086 
L 278.191604 9.691269 
L 278.402968 9.656848 
L 279.037059 8.4443 
L 279.248423 8.591112 
L 279.459786 9.292288 
L 280.093877 13.543585 
L 280.305241 13.586028 
L 281.150695 9.079192 
L 281.362059 9.140191 
L 281.784786 10.613855 
L 281.99615 11.330915 
L 282.207513 11.331659 
L 283.052968 8.539818 
L 283.264332 8.868971 
L 283.898423 11.771583 
L 284.109786 11.793906 
L 284.743877 9.154124 
L 284.955241 8.968694 
L 285.166604 9.384538 
L 286.012059 12.943346 
L 286.857513 8.598579 
L 287.068877 8.595186 
L 287.491604 9.761997 
L 287.702968 10.311214 
L 287.914332 10.317602 
L 288.548423 8.819518 
L 288.759786 8.943148 
L 288.97115 9.654827 
L 289.605241 14.258064 
L 289.816604 14.365854 
L 290.239332 11.163573 
L 290.662059 8.776963 
L 290.873423 8.5065 
L 291.084786 8.649298 
L 291.507513 9.290099 
L 291.718877 9.280716 
L 292.141604 8.69444 
L 292.352968 8.629576 
L 292.564332 8.97428 
L 292.775695 9.893264 
L 293.409786 15.275561 
L 293.62115 15.429541 
L 294.043877 11.786829 
L 294.466604 8.937788 
L 294.677968 8.470403 
L 294.889332 8.385114 
L 295.312059 8.591982 
L 295.734786 8.426208 
L 295.94615 8.329023 
L 296.157513 8.43902 
L 296.368877 8.912698 
L 296.580241 9.948906 
L 297.214332 15.796815 
L 297.425695 15.983995 
L 297.848423 12.060882 
L 298.27115 8.899863 
L 298.482513 8.299475 
L 298.693877 8.065673 
L 299.539332 7.898188 
L 299.750695 7.91269 
L 299.962059 8.114102 
L 300.173423 8.650661 
L 300.384786 9.74149 
L 301.018877 15.841746 
L 301.230241 16.059159 
L 301.652968 11.984563 
L 302.075695 8.633934 
L 302.498423 7.633227 
L 302.92115 7.420652 
L 303.343877 7.366056 
L 303.555241 7.447406 
L 303.766604 7.702741 
L 303.977968 8.275881 
L 304.189332 9.398033 
L 305.034786 15.928705 
L 305.457513 11.790588 
L 305.880241 8.331744 
L 306.302968 7.238863 
L 306.725695 6.95331 
L 307.148423 6.96365 
L 307.359786 7.107307 
L 307.57115 7.414833 
L 307.782513 8.026712 
L 307.993877 9.183377 
L 308.839332 15.946182 
L 309.262059 11.784487 
L 309.684786 8.249684 
L 310.107513 7.091455 
L 310.530241 6.75438 
L 310.952968 6.843285 
L 311.375695 7.419476 
L 311.587059 8.074119 
L 311.798423 9.268429 
L 312.643877 16.268579 
L 312.855241 14.625105 
L 313.277968 9.889973 
L 313.700695 7.684179 
L 314.123423 6.987399 
L 314.334786 6.853287 
L 314.54615 6.857829 
L 314.968877 7.268568 
L 315.180241 7.673961 
L 315.391604 8.354709 
L 315.602968 9.568658 
L 316.448423 16.723325 
L 316.659786 15.090134 
L 317.082513 10.298255 
L 317.505241 8.029399 
L 317.927968 7.283409 
L 318.139332 7.139386 
L 318.350695 7.149156 
L 318.773423 7.574162 
L 318.984786 7.970666 
L 319.19615 8.633042 
L 319.407513 9.822149 
L 320.252968 16.94605 
L 320.464332 15.345355 
L 320.887059 10.583623 
L 321.309786 8.320172 
L 321.732513 7.630801 
L 322.155241 7.543619 
L 322.577968 7.84317 
L 322.789332 8.14958 
L 323.000695 8.725959 
L 323.212059 9.824934 
L 324.057513 16.651064 
L 324.268877 15.139404 
L 324.691604 10.596391 
L 325.114332 8.490822 
L 325.325695 8.158063 
L 325.537059 8.062925 
L 326.593877 8.24652 
L 326.805241 8.653245 
L 327.016604 9.583111 
L 327.862059 15.784496 
L 328.073423 14.443951 
L 328.49615 10.382964 
L 328.707513 9.197164 
L 328.918877 8.64516 
L 329.130241 8.546465 
L 329.764332 9.13503 
L 330.187059 8.629368 
L 330.398423 8.428299 
L 330.609786 8.573181 
L 330.82115 9.248233 
L 331.243877 12.449886 
L 331.455241 14.072769 
L 331.666604 14.463171 
L 331.877968 13.375892 
L 332.300695 10.066362 
L 332.512059 9.173512 
L 332.723423 8.904089 
L 332.934786 9.155692 
L 333.357513 10.426075 
L 333.568877 10.625603 
L 333.780241 10.191182 
L 334.202968 8.805377 
L 334.414332 8.60184 
L 334.625695 8.943006 
L 335.048423 11.267122 
L 335.259786 12.506382 
L 335.47115 12.833433 
L 335.682513 12.055959 
L 336.105241 9.699674 
L 336.316604 9.178335 
L 336.527968 9.261613 
L 336.739332 9.942699 
L 337.162059 12.166538 
L 337.373423 12.472049 
L 337.584786 11.734514 
L 338.007513 9.331637 
L 338.218877 8.722067 
L 338.430241 8.679065 
L 338.641604 9.158061 
L 339.064332 10.791862 
L 339.275695 11.027222 
L 339.487059 10.577122 
L 339.909786 9.260434 
L 340.12115 9.142915 
L 340.332513 9.60438 
L 340.755241 12.418327 
L 340.966604 13.960004 
L 341.177968 14.375347 
L 341.389332 13.324512 
L 341.812059 9.877643 
L 342.023423 8.856813 
L 342.234786 8.429839 
L 342.44615 8.451438 
L 343.080241 9.227889 
L 343.714332 8.757728 
L 343.925695 9.024813 
L 344.137059 9.841826 
L 344.559786 13.571897 
L 344.77115 15.530284 
L 344.982513 16.049631 
L 345.193877 14.723369 
L 345.827968 8.980536 
L 346.250695 7.861481 
L 346.673423 7.668064 
L 347.09615 7.798703 
L 347.518877 8.288973 
L 347.730241 8.871362 
L 347.941604 9.975435 
L 348.364332 14.424316 
L 348.575695 16.70676 
L 348.787059 17.312501 
L 348.998423 15.786573 
L 349.632513 9.118371 
L 350.055241 7.504925 
L 350.477968 6.728867 
L 350.689332 6.684228 
L 350.900695 6.936828 
L 351.323423 7.958906 
L 351.534786 8.745935 
L 351.74615 10.031443 
L 352.591604 18.047634 
L 352.802968 16.413752 
L 353.437059 9.25009 
L 353.859786 7.397078 
L 354.282513 6.340324 
L 354.493877 6.245955 
L 354.705241 6.547603 
L 355.127968 7.767089 
L 355.339332 8.627673 
L 355.550695 9.972031 
L 356.39615 18.163449 
L 356.607513 16.509704 
L 357.241604 9.272232 
L 357.664332 7.420594 
L 358.087059 6.371577 
L 358.298423 6.25675 
L 358.509786 6.512235 
L 358.932513 7.619681 
L 359.143877 8.433546 
L 359.355241 9.726745 
L 360.200695 17.657384 
L 360.412059 16.058471 
L 361.04615 9.102241 
L 361.468877 7.449248 
L 361.891604 6.643611 
L 362.102968 6.540606 
L 362.314332 6.688127 
L 362.737059 7.468262 
L 362.948423 8.154012 
L 363.159786 9.324184 
L 364.005241 16.72208 
L 364.216604 15.234684 
L 364.850695 8.812713 
L 365.273423 7.494067 
L 365.69615 7.089448 
L 366.118877 7.048729 
L 366.330241 7.155674 
L 366.541604 7.405761 
L 366.752968 7.929468 
L 366.964332 8.949093 
L 367.387059 13.040847 
L 367.598423 15.138386 
L 367.809786 15.719283 
L 368.02115 14.376054 
L 368.655241 8.614817 
L 368.866604 7.938312 
L 369.077968 7.691425 
L 370.34615 7.582718 
L 370.557513 7.943169 
L 370.768877 8.813391 
L 371.191604 12.504474 
L 371.402968 14.419419 
L 371.614332 14.967278 
L 371.825695 13.772033 
L 372.248423 9.824237 
L 372.459786 8.671189 
L 372.67115 8.171212 
L 372.882513 8.130284 
L 373.516604 8.711515 
L 374.150695 8.020621 
L 374.362059 8.224542 
L 374.573423 8.95148 
L 374.99615 12.26236 
L 375.207513 14.002489 
L 375.418877 14.512666 
L 375.630241 13.446233 
L 376.052968 9.915237 
L 376.264332 8.92556 
L 376.475695 8.576271 
L 376.687059 8.711987 
L 377.109786 9.611539 
L 377.32115 9.735974 
L 377.743877 8.892446 
L 377.955241 8.538374 
L 378.166604 8.582923 
L 378.377968 9.162524 
L 378.800695 12.090718 
L 379.012059 13.652067 
L 379.223423 14.111288 
L 379.434786 13.151584 
L 379.857513 9.989432 
L 380.068877 9.142208 
L 380.280241 8.923299 
L 380.491604 9.21533 
L 380.914332 10.472049 
L 381.125695 10.64076 
L 381.337059 10.198497 
L 381.759786 8.898243 
L 381.97115 8.766916 
L 382.182513 9.182994 
L 382.605241 11.692471 
L 382.816604 13.055589 
L 383.027968 13.450305 
L 383.239332 12.595629 
L 383.662059 9.822535 
L 383.873423 9.127693 
L 384.084786 9.048747 
L 384.29615 9.51117 
L 384.718877 11.171384 
L 384.930241 11.395878 
L 385.141604 10.822125 
L 385.564332 9.031732 
L 385.775695 8.696816 
L 385.987059 8.924424 
L 386.409786 10.94915 
L 386.62115 12.080711 
L 386.832513 12.402102 
L 387.043877 11.680019 
L 387.466604 9.402472 
L 387.677968 8.9067 
L 387.889332 9.011233 
L 388.100695 9.694967 
L 388.523423 11.884122 
L 388.734786 12.197321 
L 388.94615 11.478605 
L 389.368877 9.106166 
L 389.580241 8.530246 
L 389.791604 8.536465 
L 390.002968 9.075338 
L 390.425695 10.840309 
L 390.637059 11.07997 
L 390.848423 10.534363 
L 391.27115 8.905593 
L 391.482513 8.672745 
L 391.693877 9.018292 
L 392.116604 11.460427 
L 392.327968 12.858368 
L 392.539332 13.298998 
L 392.750695 12.419972 
L 393.173423 9.359215 
L 393.384786 8.498182 
L 393.59615 8.244452 
L 393.807513 8.476973 
L 394.230241 9.543943 
L 394.441604 9.687508 
L 395.075695 8.502128 
L 395.287059 8.581546 
L 395.498423 9.209424 
L 395.92115 12.390095 
L 396.132513 14.168446 
L 396.343877 14.762415 
L 396.555241 13.709309 
L 397.189332 8.690134 
L 397.400695 8.143693 
L 397.612059 8.034802 
L 398.24615 8.35801 
L 398.668877 8.137269 
L 398.880241 8.210664 
L 399.091604 8.612481 
L 399.302968 9.526693 
L 399.725695 13.451644 
L 399.937059 15.615406 
L 400.148423 16.367226 
L 400.359786 15.141021 
L 400.993877 9.005713 
L 401.416604 7.712127 
L 401.839332 7.243272 
L 402.050695 7.155962 
L 402.262059 7.240349 
L 402.684786 7.947605 
L 402.89615 8.633961 
L 403.107513 9.795097 
L 403.530241 14.359485 
L 403.741604 16.858699 
L 403.952968 17.753327 
L 404.164332 16.385092 
L 404.798423 9.291117 
L 405.22115 7.459518 
L 405.643877 6.374166 
L 405.855241 6.190592 
L 406.066604 6.423263 
L 406.489332 7.679734 
L 406.912059 9.897327 
L 407.334786 14.894302 
L 407.54615 17.627573 
L 407.757513 18.633796 
L 407.968877 17.188358 
L 408.602968 9.481713 
L 409.025695 7.319245 
L 409.448423 5.890614 
L 409.659786 5.65981 
L 409.87115 5.9715 
L 410.293877 7.487913 
L 410.716604 9.846367 
L 411.139332 14.989207 
L 411.350695 17.813763 
L 411.562059 18.884138 
L 411.773423 17.446698 
L 412.407513 9.600015 
L 412.830241 7.379341 
L 413.252968 5.954742 
L 413.464332 5.740305 
L 413.675695 6.048136 
L 414.098423 7.475167 
L 414.52115 9.704341 
L 414.943877 14.664192 
L 415.155241 17.414118 
L 415.366604 18.486604 
L 415.577968 17.141234 
L 416.212059 9.651932 
L 416.634786 7.650682 
L 417.057513 6.577042 
L 417.268877 6.441166 
L 417.480241 6.661047 
L 417.902968 7.64964 
L 418.114332 8.356416 
L 418.325695 9.484759 
L 418.748423 13.94938 
L 418.959786 16.465823 
L 419.17115 17.474547 
L 419.382513 16.288034 
L 420.016604 9.585548 
L 420.439332 8.036248 
L 420.862059 7.597634 
L 421.284786 7.657519 
L 421.707513 7.933059 
L 421.918877 8.329673 
L 422.130241 9.173215 
L 422.552968 12.914354 
L 422.764332 15.07972 
L 422.975695 15.972687 
L 423.187059 14.988451 
L 423.82115 9.374485 
L 424.032513 8.656593 
L 424.243877 8.435326 
L 424.455241 8.549484 
L 424.877968 8.975241 
L 425.089332 8.855353 
L 425.512059 8.2743 
L 425.723423 8.307901 
L 425.934786 8.825119 
L 426.357513 11.742853 
L 426.568877 13.503456 
L 426.780241 14.255219 
L 426.991604 13.491647 
L 427.625695 9.107293 
L 427.837059 8.702634 
L 428.048423 8.846216 
L 428.682513 10.451135 
L 428.893877 10.149408 
L 429.316604 8.708169 
L 429.527968 8.383077 
L 429.739332 8.583018 
L 429.950695 9.381564 
L 430.584786 12.676415 
L 430.79615 12.124326 
L 431.430241 8.938271 
L 431.641604 8.836686 
L 431.852968 9.326921 
L 432.487059 11.931686 
L 432.698423 11.473256 
L 433.332513 8.626379 
L 433.543877 8.549703 
L 433.755241 9.033922 
L 434.389332 11.47108 
L 434.600695 11.094146 
L 435.023423 9.338281 
L 435.234786 8.926456 
L 435.44615 9.078693 
L 435.657513 9.855246 
L 436.291604 13.278816 
L 436.502968 12.692134 
L 437.137059 8.955815 
L 437.348423 8.652003 
L 437.559786 8.880183 
L 438.193877 10.606223 
L 438.405241 10.35237 
L 438.827968 9.143177 
L 439.039332 8.94942 
L 439.250695 9.288191 
L 439.462059 10.273739 
L 440.09615 14.295 
L 440.307513 13.603647 
L 440.941604 9.159929 
L 441.152968 8.673951 
L 441.364332 8.699074 
L 441.787059 9.59103 
L 441.787059 9.59103 
" clip-path="url(#pdeb0a70b0e)" style="fill: none; stroke: #1f77b4; stroke-width: 1.5; stroke-linecap: square"/>
   </g>
   <g id="patch_3">
    <path d="M 42.309786 122.896552 
L 42.309786 -0 
" style="fill: none; stroke: #000000; stroke-width: 0.8; stroke-linejoin: miter; stroke-linecap: square"/>
   </g>
   <g id="patch_4">
    <path d="M 460.809786 122.896552 
L 460.809786 -0 
" style="fill: none; stroke: #000000; stroke-width: 0.8; stroke-linejoin: miter; stroke-linecap: square"/>
   </g>
   <g id="patch_5">
    <path d="M 42.309786 122.896552 
L 460.809786 122.896552 
" style="fill: none; stroke: #000000; stroke-width: 0.8; stroke-linejoin: miter; stroke-linecap: square"/>
   </g>
   <g id="patch_6">
    <path d="M 42.309786 -0 
L 460.809786 -0 
" style="fill: none; stroke: #000000; stroke-width: 0.8; stroke-linejoin: miter; stroke-linecap: square"/>
   </g>
  </g>
  <g id="axes_2">
   <g id="patch_7">
    <path d="M 42.309786 249.48 
L 460.809786 249.48 
L 460.809786 126.583448 
L 42.309786 126.583448 
z
" style="fill: #ffffff"/>
   </g>
   <g id="matplotlib.axis_3">
    <g id="xtick_8">
     <g id="line2d_12">
      <g>
       <use xlink:href="#m45cfb10755" x="61.332513" y="249.48" style="stroke: #000000; stroke-width: 0.8"/>
      </g>
     </g>
     <g id="text_5">
      <!-- $\mathdefault{0}$ -->
      <g transform="translate(57.674395 263.62748) scale(0.15 -0.15)">
       <use xlink:href="#CMR17-30" transform="scale(0.996264)"/>
      </g>
     </g>
    </g>
    <g id="xtick_9">
     <g id="line2d_13">
      <g>
       <use xlink:href="#m45cfb10755" x="121.917375" y="249.48" style="stroke: #000000; stroke-width: 0.8"/>
      </g>
     </g>
     <g id="text_6">
      <!-- $\mathdefault{5}$ -->
      <g transform="translate(118.259256 263.62748) scale(0.15 -0.15)">
       <defs>
        <path id="CMR17-35" d="M 730 3750 
C 794 3724 1056 3641 1325 3641 
C 1920 3641 2246 3961 2432 4140 
C 2432 4191 2432 4224 2394 4224 
C 2387 4224 2374 4224 2323 4198 
C 2099 4102 1837 4032 1517 4032 
C 1325 4032 1037 4055 723 4191 
C 653 4224 640 4224 634 4224 
C 602 4224 595 4217 595 4090 
L 595 2231 
C 595 2113 595 2080 659 2080 
C 691 2080 704 2093 736 2139 
C 941 2435 1222 2560 1542 2560 
C 1766 2560 2246 2415 2246 1293 
C 2246 1087 2246 716 2054 422 
C 1894 159 1645 25 1370 25 
C 947 25 518 319 403 812 
C 429 806 480 793 506 793 
C 589 793 749 838 749 1036 
C 749 1209 627 1280 506 1280 
C 358 1280 262 1190 262 1011 
C 262 454 704 -128 1382 -128 
C 2042 -128 2669 441 2669 1267 
C 2669 2054 2170 2662 1549 2662 
C 1222 2662 947 2540 730 2304 
L 730 3750 
z
" transform="scale(0.015625)"/>
       </defs>
       <use xlink:href="#CMR17-35" transform="scale(0.996264)"/>
      </g>
     </g>
    </g>
    <g id="xtick_10">
     <g id="line2d_14">
      <g>
       <use xlink:href="#m45cfb10755" x="182.502236" y="249.48" style="stroke: #000000; stroke-width: 0.8"/>
      </g>
     </g>
     <g id="text_7">
      <!-- $\mathdefault{10}$ -->
      <g transform="translate(175.185998 263.62748) scale(0.15 -0.15)">
       <use xlink:href="#CMR17-31" transform="scale(0.996264)"/>
       <use xlink:href="#CMR17-30" transform="translate(45.690477 0) scale(0.996264)"/>
      </g>
     </g>
    </g>
    <g id="xtick_11">
     <g id="line2d_15">
      <g>
       <use xlink:href="#m45cfb10755" x="243.087097" y="249.48" style="stroke: #000000; stroke-width: 0.8"/>
      </g>
     </g>
     <g id="text_8">
      <!-- $\mathdefault{15}$ -->
      <g transform="translate(235.770859 263.62748) scale(0.15 -0.15)">
       <use xlink:href="#CMR17-31" transform="scale(0.996264)"/>
       <use xlink:href="#CMR17-35" transform="translate(45.690477 0) scale(0.996264)"/>
      </g>
     </g>
    </g>
    <g id="xtick_12">
     <g id="line2d_16">
      <g>
       <use xlink:href="#m45cfb10755" x="303.671958" y="249.48" style="stroke: #000000; stroke-width: 0.8"/>
      </g>
     </g>
     <g id="text_9">
      <!-- $\mathdefault{20}$ -->
      <g transform="translate(296.35572 263.62748) scale(0.15 -0.15)">
       <defs>
        <path id="CMR17-32" d="M 2669 990 
L 2554 990 
C 2490 537 2438 460 2413 422 
C 2381 371 1920 371 1830 371 
L 602 371 
C 832 620 1280 1073 1824 1596 
C 2214 1966 2669 2400 2669 3033 
C 2669 3788 2067 4224 1395 4224 
C 691 4224 262 3603 262 3027 
C 262 2777 448 2745 525 2745 
C 589 2745 781 2783 781 3007 
C 781 3206 614 3264 525 3264 
C 486 3264 448 3257 422 3244 
C 544 3788 915 4057 1306 4057 
C 1862 4057 2227 3616 2227 3033 
C 2227 2477 1901 1998 1536 1583 
L 262 147 
L 262 0 
L 2515 0 
L 2669 990 
z
" transform="scale(0.015625)"/>
       </defs>
       <use xlink:href="#CMR17-32" transform="scale(0.996264)"/>
       <use xlink:href="#CMR17-30" transform="translate(45.690477 0) scale(0.996264)"/>
      </g>
     </g>
    </g>
    <g id="xtick_13">
     <g id="line2d_17">
      <g>
       <use xlink:href="#m45cfb10755" x="364.256819" y="249.48" style="stroke: #000000; stroke-width: 0.8"/>
      </g>
     </g>
     <g id="text_10">
      <!-- $\mathdefault{25}$ -->
      <g transform="translate(356.940581 263.62748) scale(0.15 -0.15)">
       <use xlink:href="#CMR17-32" transform="scale(0.996264)"/>
       <use xlink:href="#CMR17-35" transform="translate(45.690477 0) scale(0.996264)"/>
      </g>
     </g>
    </g>
    <g id="xtick_14">
     <g id="line2d_18">
      <g>
       <use xlink:href="#m45cfb10755" x="424.84168" y="249.48" style="stroke: #000000; stroke-width: 0.8"/>
      </g>
     </g>
     <g id="text_11">
      <!-- $\mathdefault{30}$ -->
      <g transform="translate(417.525442 263.62748) scale(0.15 -0.15)">
       <defs>
        <path id="CMR17-33" d="M 1414 2176 
C 1984 2176 2234 1673 2234 1094 
C 2234 322 1824 25 1453 25 
C 1114 25 563 193 390 691 
C 422 678 454 678 486 678 
C 640 678 755 780 755 947 
C 755 1132 614 1216 486 1216 
C 378 1216 211 1164 211 927 
C 211 335 787 -128 1466 -128 
C 2176 -128 2720 432 2720 1087 
C 2720 1718 2208 2176 1600 2246 
C 2086 2347 2554 2776 2554 3353 
C 2554 3856 2048 4224 1472 4224 
C 890 4224 378 3862 378 3347 
C 378 3123 544 3084 627 3084 
C 762 3084 877 3167 877 3334 
C 877 3500 762 3584 627 3584 
C 602 3584 570 3584 544 3571 
C 730 3999 1235 4076 1459 4076 
C 1683 4076 2106 3966 2106 3347 
C 2106 3167 2080 2851 1862 2574 
C 1670 2329 1453 2316 1242 2297 
C 1210 2297 1062 2284 1037 2284 
C 992 2278 966 2272 966 2227 
C 966 2182 973 2176 1101 2176 
L 1414 2176 
z
" transform="scale(0.015625)"/>
       </defs>
       <use xlink:href="#CMR17-33" transform="scale(0.996264)"/>
       <use xlink:href="#CMR17-30" transform="translate(45.690477 0) scale(0.996264)"/>
      </g>
     </g>
    </g>
    <g id="text_12">
     <!-- $t$ -->
     <g transform="translate(248.917815 281.45794) scale(0.15 -0.15)">
      <defs>
       <path id="CMMI12-74" d="M 1286 2566 
L 1875 2566 
C 1997 2566 2061 2566 2061 2681 
C 2061 2752 2022 2752 1894 2752 
L 1331 2752 
L 1568 3664 
C 1594 3752 1594 3764 1594 3808 
C 1594 3910 1510 3968 1427 3968 
C 1376 3968 1229 3948 1178 3746 
L 928 2752 
L 326 2752 
C 198 2752 141 2752 141 2630 
C 141 2566 186 2566 307 2566 
L 877 2566 
L 454 881 
C 403 657 384 593 384 510 
C 384 210 595 -64 954 -64 
C 1600 -64 1946 868 1946 913 
C 1946 951 1920 970 1882 970 
C 1869 970 1843 970 1830 944 
C 1824 938 1818 932 1773 830 
C 1638 510 1344 64 973 64 
C 781 64 768 223 768 364 
C 768 370 768 491 787 568 
L 1286 2566 
z
" transform="scale(0.015625)"/>
      </defs>
      <use xlink:href="#CMMI12-74" transform="scale(0.996264)"/>
     </g>
    </g>
   </g>
   <g id="matplotlib.axis_4">
    <g id="ytick_4">
     <g id="line2d_19">
      <g>
       <use xlink:href="#me674bb0217" x="42.309786" y="228.816662" style="stroke: #000000; stroke-width: 0.8"/>
      </g>
     </g>
     <g id="text_13">
      <!-- $\mathdefault{0.8}$ -->
      <g transform="translate(20.112734 234.140402) scale(0.15 -0.15)">
       <use xlink:href="#CMR17-30" transform="scale(0.996264)"/>
       <use xlink:href="#CMMI12-3a" transform="translate(45.690477 0) scale(0.996264)"/>
       <use xlink:href="#CMR17-38" transform="translate(72.787654 0) scale(0.996264)"/>
      </g>
     </g>
    </g>
    <g id="ytick_5">
     <g id="line2d_20">
      <g>
       <use xlink:href="#me674bb0217" x="42.309786" y="180.493159" style="stroke: #000000; stroke-width: 0.8"/>
      </g>
     </g>
     <g id="text_14">
      <!-- $\mathdefault{0.9}$ -->
      <g transform="translate(20.112734 185.816899) scale(0.15 -0.15)">
       <use xlink:href="#CMR17-30" transform="scale(0.996264)"/>
       <use xlink:href="#CMMI12-3a" transform="translate(45.690477 0) scale(0.996264)"/>
       <use xlink:href="#CMR17-39" transform="translate(72.787654 0) scale(0.996264)"/>
      </g>
     </g>
    </g>
    <g id="ytick_6">
     <g id="line2d_21">
      <g>
       <use xlink:href="#me674bb0217" x="42.309786" y="132.169655" style="stroke: #000000; stroke-width: 0.8"/>
      </g>
     </g>
     <g id="text_15">
      <!-- $\mathdefault{1.0}$ -->
      <g transform="translate(20.112734 137.493395) scale(0.15 -0.15)">
       <use xlink:href="#CMR17-31" transform="scale(0.996264)"/>
       <use xlink:href="#CMMI12-3a" transform="translate(45.690477 0) scale(0.996264)"/>
       <use xlink:href="#CMR17-30" transform="translate(72.787654 0) scale(0.996264)"/>
      </g>
     </g>
    </g>
    <g id="text_16">
     <!-- $ S^z_i S^z_j$ -->
     <g transform="translate(10.211706 203.244725) rotate(-90) scale(0.15 -0.15)">
      <use xlink:href="#CMMI12-53" transform="scale(0.996264)"/>
      <use xlink:href="#CMMI12-7a" transform="translate(65.794439 36.153639) scale(0.697382)"/>
      <use xlink:href="#CMMI12-69" transform="translate(59.994488 -25.505809) scale(0.697382)"/>
      <use xlink:href="#CMMI12-53" transform="translate(101.120995 0) scale(0.996264)"/>
      <use xlink:href="#CMMI12-7a" transform="translate(166.915434 36.153639) scale(0.697382)"/>
      <use xlink:href="#CMMI12-6a" transform="translate(161.115482 -25.505809) scale(0.697382)"/>
     </g>
    </g>
   </g>
   <g id="line2d_22">
    <path d="M 61.332513 132.169655 
L 61.755241 132.43888 
L 61.966604 132.264529 
L 62.177968 132.316379 
L 62.389332 132.844971 
L 62.812059 134.967061 
L 63.234786 133.520274 
L 63.44615 134.757052 
L 63.657513 134.283362 
L 63.868877 133.115672 
L 64.080241 133.175558 
L 64.502968 135.321421 
L 64.714332 135.325693 
L 64.925695 133.906169 
L 65.137059 134.327774 
L 65.348423 135.231869 
L 65.559786 133.968465 
L 65.77115 133.548765 
L 65.982513 134.756212 
L 66.616604 139.796445 
L 66.827968 137.645789 
L 67.039332 137.689716 
L 67.250695 139.551128 
L 67.673423 136.482793 
L 67.884786 137.678747 
L 68.307513 142.35425 
L 68.518877 142.278232 
L 68.730241 139.635823 
L 68.941604 140.536863 
L 69.152968 142.126326 
L 69.364332 139.710943 
L 69.575695 139.001157 
L 69.998423 144.365658 
L 70.209786 147.609079 
L 70.42115 148.190774 
L 70.632513 144.963507 
L 70.843877 145.513551 
L 71.055241 147.88833 
L 71.477968 143.650928 
L 71.689332 145.778937 
L 72.112059 152.502831 
L 72.323423 152.42653 
L 72.534786 148.814995 
L 72.74615 150.00463 
L 72.957513 152.175112 
L 73.168877 148.890379 
L 73.380241 147.880401 
L 73.802968 154.792024 
L 74.014332 158.69539 
L 74.225695 159.113347 
L 74.437059 155.101416 
L 74.648423 155.994255 
L 74.859786 158.716418 
L 75.07115 155.213355 
L 75.282513 153.651071 
L 75.493877 156.420811 
L 75.916604 164.528837 
L 76.127968 164.507988 
L 76.339332 160.249196 
L 76.550695 161.53016 
L 76.762059 164.113694 
L 76.973423 160.291802 
L 77.184786 159.007622 
L 77.607513 166.750747 
L 77.818877 170.994439 
L 78.030241 171.282092 
L 78.241604 166.816007 
L 78.452968 167.877269 
L 78.664332 170.76483 
L 78.875695 166.856305 
L 79.087059 165.249211 
L 79.509786 172.950656 
L 79.72115 177.141404 
L 79.932513 177.213862 
L 80.143877 172.650467 
L 80.355241 173.862011 
L 80.566604 176.674818 
L 80.777968 172.653373 
L 80.989332 171.160572 
L 81.412059 179.083659 
L 81.623423 183.38088 
L 81.834786 183.588712 
L 82.04615 179.000278 
L 82.257513 180.087806 
L 82.468877 182.985392 
L 82.680241 178.998235 
L 82.891604 177.408334 
L 83.314332 185.204661 
L 83.525695 189.444102 
L 83.737059 189.645843 
L 83.948423 185.107214 
L 84.159786 186.152788 
L 84.37115 189.038726 
L 84.582513 185.130855 
L 84.793877 183.529801 
L 85.216604 191.137709 
L 85.427968 195.272632 
L 85.639332 195.46772 
L 85.850695 191.06137 
L 86.062059 192.086989 
L 86.273423 194.885255 
L 86.484786 191.112938 
L 86.69615 189.617006 
L 87.118877 197.063784 
L 87.330241 201.149545 
L 87.541604 201.516994 
L 87.752968 197.289426 
L 87.964332 198.129665 
L 88.175695 200.97109 
L 88.387059 197.438836 
L 88.598423 195.840023 
L 89.02115 202.788901 
L 89.232513 206.609173 
L 89.443877 206.853379 
L 89.655241 202.877216 
L 89.866604 203.792653 
L 90.077968 206.410841 
L 90.289332 203.083883 
L 90.500695 201.752579 
L 90.923423 208.523867 
L 91.134786 212.301257 
L 91.34615 212.852042 
L 91.557513 209.150966 
L 91.768877 209.766623 
L 91.980241 212.460548 
L 92.402968 207.978502 
L 92.614332 210.34427 
L 93.037059 217.373763 
L 93.248423 217.691295 
L 93.459786 214.314883 
L 93.67115 215.077597 
L 93.882513 217.427001 
L 94.093877 214.693168 
L 94.305241 213.565651 
L 94.727968 219.372821 
L 94.939332 222.696726 
L 95.150695 223.408047 
L 95.362059 220.367129 
L 95.573423 220.723402 
L 95.784786 223.151665 
L 96.207513 219.46246 
L 96.418877 221.297889 
L 96.841604 227.070227 
L 97.052968 227.433292 
L 97.264332 224.751516 
L 97.475695 225.304505 
L 97.687059 227.26839 
L 97.898423 225.201954 
L 98.109786 224.282949 
L 98.532513 228.828783 
L 98.743877 231.545931 
L 98.955241 232.357176 
L 99.166604 230.049794 
L 99.377968 230.093325 
L 99.589332 232.118751 
L 100.012059 229.280932 
L 100.223423 230.459632 
L 100.64615 234.668052 
L 100.857513 235.017853 
L 101.068877 233.087165 
L 101.280241 233.371893 
L 101.491604 234.821044 
L 101.914332 232.750189 
L 102.125695 233.917686 
L 102.759786 238.561188 
L 102.97115 237.045866 
L 103.182513 236.7351 
L 103.393877 238.227158 
L 103.816604 236.300435 
L 104.027968 236.716332 
L 104.450695 239.099069 
L 104.662059 239.387015 
L 104.873423 238.271441 
L 105.084786 238.258748 
L 105.29615 239.08725 
L 105.718877 238.008697 
L 105.930241 238.429115 
L 106.564332 241.194871 
L 106.987059 239.889671 
L 107.198423 240.753232 
L 107.409786 240.7659 
L 107.62115 239.860277 
L 107.832513 239.456685 
L 108.043877 239.555396 
L 108.466604 240.064821 
L 108.889332 239.56131 
L 109.312059 239.947686 
L 109.523423 239.756639 
L 109.94615 239.146902 
L 110.157513 239.327918 
L 110.368877 240.133398 
L 110.580241 240.460119 
L 110.791604 239.500039 
L 111.002968 239.679751 
L 111.214332 240.597869 
L 111.425695 239.990021 
L 111.848423 237.764442 
L 112.059786 237.107737 
L 112.27115 237.267675 
L 112.482513 238.05869 
L 112.905241 236.968136 
L 113.116604 238.129024 
L 113.327968 238.296866 
L 113.962059 235.031545 
L 114.173423 235.788376 
L 114.384786 237.160293 
L 114.59615 235.980319 
L 114.807513 235.445161 
L 115.018877 237.313415 
L 115.230241 237.094841 
L 115.864332 231.392706 
L 116.075695 231.506363 
L 116.287059 233.34559 
L 116.498423 232.619477 
L 116.709786 231.357243 
L 116.92115 233.462786 
L 117.132513 234.022902 
L 117.766604 227.946488 
L 117.977968 228.635745 
L 118.189332 231.05515 
L 118.612059 228.465819 
L 118.823423 231.252603 
L 119.034786 231.477069 
L 119.668877 223.113439 
L 119.880241 223.201978 
L 120.091604 226.050569 
L 120.302968 225.154053 
L 120.514332 223.21545 
L 120.725695 226.210131 
L 120.937059 227.138705 
L 121.57115 218.387222 
L 121.782513 218.953182 
L 121.993877 222.321734 
L 122.416604 218.941683 
L 122.627968 222.52042 
L 122.839332 223.190311 
L 123.473423 212.491478 
L 123.684786 212.555889 
L 123.89615 216.271517 
L 124.107513 215.21909 
L 124.318877 212.679925 
L 124.530241 216.418924 
L 124.741604 217.638204 
L 125.375695 206.554757 
L 125.587059 206.940561 
L 125.798423 211.05531 
L 126.009786 209.658743 
L 126.22115 207.036934 
L 126.432513 211.193136 
L 126.643877 212.263594 
L 127.277968 199.811497 
L 127.489332 199.86532 
L 127.700695 204.211154 
L 127.912059 203.027169 
L 128.123423 200.040636 
L 128.334786 204.300534 
L 128.54615 205.694609 
L 129.180241 192.913701 
L 129.391604 193.089702 
L 129.602968 197.658282 
L 129.814332 196.341414 
L 130.025695 193.254244 
L 130.237059 197.704019 
L 130.448423 199.08719 
L 131.082513 185.744822 
L 131.293877 185.823369 
L 131.505241 190.482022 
L 131.716604 189.208699 
L 131.927968 186.010248 
L 132.139332 190.504125 
L 132.350695 191.930881 
L 132.984786 178.372794 
L 133.19615 178.350042 
L 133.407513 183.010157 
L 133.618877 181.849516 
L 133.830241 178.556804 
L 134.041604 182.96999 
L 134.252968 184.533288 
L 134.887059 171.366037 
L 135.098423 171.518644 
L 135.309786 176.115519 
L 135.52115 174.805005 
L 135.732513 171.686895 
L 135.943877 176.086031 
L 136.155241 177.386172 
L 136.789332 164.153361 
L 137.000695 163.982217 
L 137.212059 168.336456 
L 137.423423 167.383794 
L 137.634786 164.200853 
L 137.84615 168.235936 
L 138.057513 169.806556 
L 138.691604 157.931744 
L 138.902968 158.208831 
L 139.114332 162.35439 
L 139.325695 161.057398 
L 139.537059 158.326355 
L 139.748423 162.298894 
L 139.959786 163.313506 
L 140.593877 151.535381 
L 140.805241 151.29901 
L 141.016604 154.970611 
L 141.227968 154.241198 
L 141.439332 151.493649 
L 141.650695 154.84842 
L 141.862059 156.23614 
L 142.49615 146.65932 
L 142.707513 147.105557 
L 142.918877 150.455524 
L 143.130241 149.216313 
L 143.341604 147.149601 
L 143.552968 150.413266 
L 143.764332 151.011055 
L 144.398423 141.681861 
L 144.609786 141.486251 
L 144.82115 144.182324 
L 145.032513 143.657318 
L 145.243877 141.632853 
L 145.455241 144.095266 
L 145.666604 145.127044 
L 146.300695 138.598962 
L 146.512059 139.249467 
L 146.723423 141.560583 
L 147.14615 139.21848 
L 147.357513 141.584956 
L 147.568877 141.683423 
L 148.202968 135.512725 
L 148.414332 135.465942 
L 148.625695 137.019043 
L 148.837059 136.65189 
L 149.048423 135.552919 
L 149.259786 137.025888 
L 149.47115 137.571908 
L 150.105241 134.478771 
L 150.527968 136.503804 
L 150.739332 135.462053 
L 150.950695 135.242797 
L 151.162059 136.631203 
L 151.373423 136.196598 
L 151.79615 133.876619 
L 152.007513 133.495355 
L 152.218877 133.676448 
L 152.430241 134.045764 
L 152.641604 133.765286 
L 152.852968 133.672611 
L 153.064332 134.161511 
L 153.275695 134.141409 
L 153.487059 133.828243 
L 153.698423 133.826742 
L 153.909786 134.457163 
L 154.12115 135.532379 
L 154.332513 135.524754 
L 154.543877 134.568154 
L 154.966604 135.730074 
L 155.389332 134.25962 
L 155.600695 134.616251 
L 156.023423 135.848942 
L 156.234786 135.091049 
L 156.44615 134.808448 
L 156.657513 135.67751 
L 157.080241 134.635667 
L 157.291604 135.093977 
L 157.925695 139.21456 
L 158.348423 137.200489 
L 158.559786 138.792186 
L 158.77115 138.318243 
L 158.982513 136.834116 
L 159.193877 137.09656 
L 159.827968 141.071463 
L 160.039332 139.308819 
L 160.250695 138.939397 
L 160.462059 140.638351 
L 160.884786 138.21517 
L 161.09615 139.281648 
L 161.730241 145.367203 
L 161.941604 143.331278 
L 162.152968 142.387014 
L 162.364332 144.674221 
L 162.575695 143.432084 
L 162.787059 141.478871 
L 162.998423 142.352428 
L 163.42115 147.407498 
L 163.632513 148.273154 
L 163.843877 145.676461 
L 164.055241 145.170718 
L 164.266604 147.545463 
L 164.689332 143.958401 
L 164.900695 145.482626 
L 165.534786 153.112599 
L 165.74615 150.320017 
L 165.957513 149.328664 
L 166.168877 152.17218 
L 166.591604 147.993564 
L 166.802968 149.346717 
L 167.225695 155.786135 
L 167.437059 156.839397 
L 167.648423 153.616803 
L 167.859786 152.976487 
L 168.07115 155.900707 
L 168.493877 151.445931 
L 168.705241 153.321894 
L 169.339332 162.192959 
L 169.550695 158.863156 
L 169.762059 157.841353 
L 169.973423 161.138172 
L 170.39615 156.291327 
L 170.607513 158.032217 
L 171.030241 165.571246 
L 171.241604 166.827469 
L 171.452968 163.204723 
L 171.664332 162.465334 
L 171.875695 165.841739 
L 172.298423 160.848627 
L 172.509786 162.997556 
L 172.932513 171.232007 
L 173.143877 172.864362 
L 173.355241 169.218724 
L 173.566604 168.2043 
L 173.777968 171.860106 
L 174.200695 166.663651 
L 174.412059 168.712759 
L 174.834786 177.077993 
L 175.04615 178.548943 
L 175.257513 174.74179 
L 175.468877 173.93249 
L 175.680241 177.65224 
L 176.102968 172.419874 
L 176.314332 174.742759 
L 176.737059 183.544042 
L 176.948423 185.273846 
L 177.159786 181.508412 
L 177.37115 180.52688 
L 177.582513 184.407693 
L 178.005241 179.130445 
L 178.216604 181.377934 
L 178.639332 190.209494 
L 178.850695 191.868418 
L 179.062059 188.067375 
L 179.273423 187.182931 
L 179.484786 191.083062 
L 179.907513 185.850884 
L 180.118877 188.193871 
L 180.541604 197.120501 
L 180.752968 198.874623 
L 180.964332 195.157683 
L 181.175695 194.209483 
L 181.387059 198.115767 
L 181.809786 192.976213 
L 182.02115 195.264096 
L 182.443877 204.077029 
L 182.655241 205.850348 
L 182.866604 202.232481 
L 183.077968 201.24306 
L 183.289332 205.098756 
L 183.712059 200.079431 
L 183.923423 202.241754 
L 184.34615 210.736954 
L 184.557513 212.401755 
L 184.768877 208.899472 
L 184.980241 207.979091 
L 185.191604 211.662268 
L 185.614332 206.881288 
L 185.825695 209.022914 
L 186.248423 217.250189 
L 186.459786 219.039022 
L 186.67115 215.795198 
L 186.882513 214.685077 
L 187.093877 218.239005 
L 187.516604 213.681299 
L 187.727968 215.456686 
L 188.150695 222.928643 
L 188.362059 224.388708 
L 188.573423 221.293553 
L 188.784786 220.419608 
L 188.99615 223.623571 
L 189.418877 219.476076 
L 189.630241 221.291632 
L 190.264332 230.072723 
L 190.475695 227.419887 
L 190.687059 226.22073 
L 190.898423 229.213705 
L 191.109786 227.772773 
L 191.32115 225.430739 
L 191.532513 226.648665 
L 191.955241 232.556029 
L 192.166604 233.722517 
L 192.377968 231.254058 
L 192.589332 230.47984 
L 192.800695 232.967035 
L 193.223423 229.776925 
L 193.434786 231.116008 
L 194.068877 238.068556 
L 194.491604 235.020692 
L 194.702968 237.241355 
L 194.914332 236.472167 
L 195.125695 234.570483 
L 195.337059 235.113948 
L 195.97115 239.828146 
L 196.182513 238.199535 
L 196.393877 237.595274 
L 196.605241 239.188376 
L 197.027968 237.263394 
L 197.239332 238.008105 
L 197.873423 242.631284 
L 198.29615 240.67287 
L 198.507513 241.94317 
L 198.718877 241.951345 
L 198.930241 240.666464 
L 199.141604 240.470809 
L 199.775695 242.464239 
L 200.198423 241.462085 
L 200.409786 242.031043 
L 200.62115 241.944755 
L 200.832513 241.587627 
L 201.043877 241.64706 
L 201.255241 241.971548 
L 201.889332 243.792991 
L 202.100695 242.881877 
L 202.312059 243.076426 
L 202.523423 243.893793 
L 202.734786 243.356751 
L 203.157513 241.80455 
L 203.368877 241.47581 
L 203.580241 241.496296 
L 203.791604 241.949989 
L 204.002968 241.835885 
L 204.214332 241.302646 
L 204.637059 242.425157 
L 205.27115 240.197443 
L 205.482513 240.713821 
L 205.693877 242.051035 
L 206.116604 240.500989 
L 206.327968 242.087076 
L 206.539332 242.365346 
L 207.173423 237.284214 
L 207.384786 236.8852 
L 207.59615 238.409216 
L 207.807513 238.559969 
L 208.018877 236.937313 
L 208.441604 239.578354 
L 208.652968 238.190351 
L 209.075695 234.156619 
L 209.287059 234.201037 
L 209.498423 236.537823 
L 209.709786 236.25055 
L 209.92115 234.24562 
L 210.343877 237.57016 
L 211.189332 228.858016 
L 211.400695 231.34892 
L 211.612059 231.742709 
L 211.823423 229.137711 
L 212.24615 233.108482 
L 212.457513 231.066489 
L 212.880241 224.833336 
L 213.091604 224.403399 
L 213.302968 227.556913 
L 213.514332 227.633551 
L 213.725695 224.68861 
L 214.148423 229.223794 
L 214.57115 222.524794 
L 214.782513 218.982572 
L 214.993877 217.9408 
L 215.205241 221.208936 
L 215.416604 221.795845 
L 215.627968 218.400356 
L 216.050695 223.396267 
L 216.262059 220.822301 
L 216.684786 212.859161 
L 216.89615 212.000847 
L 217.107513 215.713848 
L 217.318877 216.129935 
L 217.530241 212.473758 
L 217.952968 217.854021 
L 218.164332 214.867408 
L 218.587059 206.088246 
L 218.798423 204.869443 
L 219.009786 208.65418 
L 219.22115 209.357829 
L 219.432513 205.433212 
L 219.855241 211.056738 
L 220.066604 208.113656 
L 220.489332 199.039076 
L 220.700695 197.846066 
L 220.912059 201.818445 
L 221.123423 202.503495 
L 221.334786 198.427205 
L 221.757513 204.219653 
L 221.968877 201.154238 
L 222.391604 191.80124 
L 222.602968 190.527659 
L 222.814332 194.534792 
L 223.025695 195.267372 
L 223.237059 191.118143 
L 223.659786 196.942632 
L 223.87115 193.823471 
L 224.293877 184.348383 
L 224.505241 182.960717 
L 224.716604 186.898597 
L 224.927968 187.755385 
L 225.139332 183.586122 
L 225.562059 189.368476 
L 225.773423 186.415101 
L 226.19615 177.20261 
L 226.407513 176.01081 
L 226.618877 179.962282 
L 226.830241 180.646708 
L 227.041604 176.593394 
L 227.464332 182.238681 
L 227.675695 179.152629 
L 228.098423 170.00862 
L 228.309786 168.601193 
L 228.52115 172.262542 
L 228.732513 173.190456 
L 228.943877 169.256122 
L 229.366604 174.682523 
L 229.577968 172.015286 
L 230.000695 163.614309 
L 230.212059 162.642053 
L 230.423423 166.311784 
L 230.634786 166.890905 
L 230.84615 163.231612 
L 231.268877 168.403514 
L 231.691604 161.195335 
L 231.902968 157.389367 
L 232.114332 156.139393 
L 232.325695 159.34974 
L 232.537059 160.252658 
L 232.748423 156.834625 
L 233.17115 161.646768 
L 233.382513 159.397037 
L 233.805241 152.342897 
L 234.016604 151.701496 
L 234.227968 154.918909 
L 234.439332 155.340999 
L 234.650695 152.303313 
L 235.073423 156.774813 
L 235.49615 150.670236 
L 235.707513 147.601058 
L 235.918877 146.643821 
L 236.130241 149.277763 
L 236.341604 150.054545 
L 236.552968 147.34264 
L 236.975695 151.330501 
L 237.187059 149.562977 
L 237.609786 144.189387 
L 237.82115 143.938204 
L 238.032513 146.568374 
L 238.243877 146.763531 
L 238.455241 144.485029 
L 238.877968 148.052422 
L 239.723423 140.448169 
L 239.934786 142.40146 
L 240.14615 142.93918 
L 240.357513 141.028278 
L 240.780241 143.993959 
L 240.991604 142.708325 
L 241.414332 139.15719 
L 241.625695 139.30528 
L 241.837059 141.235202 
L 242.048423 141.11045 
L 242.259786 139.641147 
L 242.47115 141.338035 
L 242.682513 142.110178 
L 243.316604 137.365982 
L 243.527968 137.140143 
L 243.739332 138.322031 
L 243.950695 138.509238 
L 244.162059 137.427093 
L 244.584786 139.193644 
L 245.218877 136.677531 
L 245.430241 137.218416 
L 245.641604 138.364062 
L 246.064332 137.183655 
L 246.275695 138.390634 
L 246.487059 138.403943 
L 246.909786 136.304695 
L 247.12115 135.948008 
L 247.332513 136.100562 
L 247.543877 136.450628 
L 247.966604 135.973099 
L 248.177968 136.415599 
L 248.389332 136.430515 
L 248.600695 136.037048 
L 248.812059 135.88191 
L 249.023423 136.282054 
L 249.234786 137.233634 
L 249.44615 137.558402 
L 249.657513 136.549445 
L 249.868877 136.765649 
L 250.080241 137.479822 
L 250.502968 135.906699 
L 250.714332 135.978362 
L 251.137059 137.170259 
L 251.559786 135.964109 
L 251.77115 136.630743 
L 251.982513 136.575029 
L 252.193877 135.771078 
L 252.405241 135.83701 
L 252.616604 136.701488 
L 253.039332 139.532305 
L 253.250695 139.05324 
L 253.462059 137.561738 
L 253.673423 138.692758 
L 253.884786 138.957958 
L 254.09615 137.336785 
L 254.307513 137.023074 
L 254.941604 140.849253 
L 255.364332 138.377866 
L 255.575695 139.996373 
L 255.787059 139.513951 
L 255.998423 137.90134 
L 256.209786 138.449581 
L 256.843877 144.774307 
L 257.055241 143.549136 
L 257.266604 141.601109 
L 257.477968 143.680803 
L 257.689332 143.563857 
L 257.900695 141.166858 
L 258.112059 141.340955 
L 258.74615 147.831599 
L 259.168877 144.196726 
L 259.380241 146.766126 
L 259.591604 145.95516 
L 259.802968 143.572907 
L 260.014332 144.579228 
L 260.648423 153.452702 
L 261.07115 149.205861 
L 261.282513 152.185991 
L 261.493877 151.752202 
L 261.705241 148.661168 
L 261.916604 149.306807 
L 262.550695 158.311379 
L 262.973423 153.655971 
L 263.184786 157.067676 
L 263.39615 156.036888 
L 263.607513 152.957044 
L 263.818877 154.319111 
L 264.452968 165.328811 
L 264.875695 160.185966 
L 265.087059 163.90295 
L 265.298423 163.212917 
L 265.509786 159.559531 
L 265.72115 160.596166 
L 266.355241 171.644469 
L 266.777968 166.179786 
L 266.989332 170.206216 
L 267.200695 169.074824 
L 267.412059 165.427867 
L 267.623423 166.976039 
L 268.257513 179.392632 
L 268.680241 173.616704 
L 268.891604 177.803122 
L 269.102968 176.92996 
L 269.314332 172.914786 
L 269.525695 174.212039 
L 270.159786 186.549588 
L 270.582513 180.595082 
L 270.793877 184.919544 
L 271.005241 183.822065 
L 271.216604 179.820546 
L 271.427968 181.357645 
L 272.062059 194.242521 
L 272.484786 188.20565 
L 272.69615 192.530517 
L 272.907513 191.573321 
L 273.118877 187.468078 
L 273.330241 188.873179 
L 273.964332 201.580743 
L 274.387059 195.562796 
L 274.598423 199.828035 
L 274.809786 198.905445 
L 275.02115 194.836339 
L 275.232513 196.176946 
L 275.866604 208.529889 
L 276.289332 202.682775 
L 276.500695 206.797724 
L 276.712059 205.873951 
L 276.923423 201.990263 
L 277.134786 203.348819 
L 277.768877 215.454453 
L 278.191604 209.84818 
L 278.402968 213.702805 
L 278.614332 213.076713 
L 278.825695 209.260556 
L 279.037059 210.255343 
L 279.67115 221.131827 
L 280.093877 215.930567 
L 280.305241 219.509526 
L 280.516604 218.731886 
L 280.727968 215.370992 
L 280.939332 216.539775 
L 281.573423 227.122948 
L 281.99615 222.37114 
L 282.207513 225.509304 
L 282.418877 225.257332 
L 282.630241 221.996428 
L 282.841604 222.544453 
L 283.475695 231.155759 
L 283.898423 226.990653 
L 284.109786 229.765097 
L 284.32115 229.22215 
L 284.532513 226.631526 
L 284.743877 227.492083 
L 285.377968 235.786346 
L 285.589332 234.504539 
L 285.800695 232.24002 
L 286.012059 234.435649 
L 286.223423 234.583875 
L 286.434786 232.123699 
L 286.64615 232.180479 
L 287.280241 237.969775 
L 287.702968 235.126141 
L 287.914332 236.914246 
L 288.125695 236.664164 
L 288.337059 235.014835 
L 288.548423 235.4883 
L 289.182513 240.958782 
L 289.393877 240.505587 
L 289.605241 238.850465 
L 290.027968 240.509242 
L 290.239332 239.017654 
L 290.450695 238.595442 
L 291.084786 241.306802 
L 291.507513 239.948711 
L 291.718877 240.667802 
L 291.930241 240.733471 
L 292.141604 240.111015 
L 292.352968 240.159383 
L 292.775695 241.503612 
L 292.987059 242.558842 
L 293.198423 242.931721 
L 293.409786 241.988182 
L 293.62115 242.025291 
L 293.832513 242.882523 
L 294.043877 242.437253 
L 294.466604 241.192797 
L 294.677968 241.122933 
L 294.889332 241.217482 
L 295.100695 241.452322 
L 295.312059 241.374327 
L 295.523423 241.029623 
L 295.94615 241.804583 
L 296.157513 241.431499 
L 296.580241 240.384931 
L 296.791604 240.745544 
L 297.002968 241.867726 
L 297.214332 241.666951 
L 297.425695 240.666122 
L 297.848423 242.342879 
L 298.693877 237.875501 
L 299.116604 239.434559 
L 299.327968 238.094022 
L 299.539332 238.728048 
L 299.750695 240.060813 
L 299.962059 239.28692 
L 300.384786 236.010644 
L 300.59615 235.681418 
L 300.807513 237.414567 
L 301.018877 237.914084 
L 301.230241 235.981618 
L 301.652968 238.708569 
L 301.864332 237.222097 
L 302.287059 232.475242 
L 302.498423 231.375078 
L 302.92115 234.113886 
L 303.132513 231.893155 
L 303.343877 232.708497 
L 303.555241 234.822313 
L 303.766604 233.678505 
L 304.189332 228.440141 
L 304.400695 227.46868 
L 304.823423 230.75136 
L 305.034786 228.036039 
L 305.24615 229.282978 
L 305.457513 231.55051 
L 305.668877 229.85103 
L 306.091604 223.438377 
L 306.302968 221.862918 
L 306.725695 225.519588 
L 306.937059 222.579336 
L 307.148423 223.503877 
L 307.359786 226.228735 
L 307.57115 224.777889 
L 307.993877 217.960684 
L 308.205241 216.446956 
L 308.627968 220.519833 
L 308.839332 217.213018 
L 309.050695 218.41705 
L 309.262059 221.283686 
L 309.473423 219.460271 
L 309.89615 211.816942 
L 310.107513 209.894489 
L 310.530241 214.24202 
L 310.741604 210.786466 
L 310.952968 211.780571 
L 311.164332 214.965568 
L 311.375695 213.307178 
L 311.798423 205.382791 
L 312.009786 203.478014 
L 312.432513 208.137206 
L 312.643877 204.462314 
L 312.855241 205.607541 
L 313.066604 208.928605 
L 313.277968 207.088121 
L 313.700695 198.705854 
L 313.912059 196.593663 
L 314.334786 201.460334 
L 314.54615 197.715195 
L 314.757513 198.772626 
L 314.968877 202.290972 
L 315.180241 200.542173 
L 315.602968 192.013949 
L 315.814332 189.891497 
L 316.237059 194.972978 
L 316.448423 191.153731 
L 316.659786 192.251684 
L 316.87115 195.892923 
L 317.082513 194.136336 
L 317.505241 185.491419 
L 317.716604 183.344544 
L 318.139332 188.565242 
L 318.350695 184.738592 
L 318.562059 185.858434 
L 318.773423 189.577503 
L 318.984786 187.83394 
L 319.407513 179.153682 
L 319.618877 176.96644 
L 320.041604 182.27703 
L 320.252968 178.502105 
L 320.464332 179.550335 
L 320.675695 183.354289 
L 320.887059 181.746898 
L 321.309786 173.241355 
L 321.52115 171.184594 
L 321.943877 176.530586 
L 322.155241 172.785533 
L 322.366604 173.943675 
L 322.577968 177.688831 
L 322.789332 175.995764 
L 323.212059 167.52764 
L 323.423423 165.386652 
L 323.84615 170.647363 
L 324.057513 167.062943 
L 324.268877 168.022115 
L 324.480241 171.783991 
L 324.691604 170.349309 
L 325.114332 162.319744 
L 325.325695 160.451127 
L 325.748423 165.603578 
L 325.959786 162.068789 
L 326.17115 163.217666 
L 326.382513 166.761221 
L 326.593877 165.12156 
L 327.016604 157.189316 
L 327.227968 155.184562 
L 327.650695 160.0361 
L 327.862059 156.776666 
L 328.073423 157.586584 
L 328.284786 161.059383 
L 328.49615 159.804946 
L 328.918877 152.603177 
L 329.130241 151.02978 
L 329.552968 155.617262 
L 329.764332 152.429724 
L 329.975695 153.526873 
L 330.187059 156.608755 
L 330.398423 155.021123 
L 330.82115 148.004423 
L 331.032513 146.250736 
L 331.455241 150.31104 
L 331.666604 147.542622 
L 331.877968 148.16204 
L 332.089332 151.083115 
L 332.300695 150.034077 
L 332.723423 144.106757 
L 332.934786 142.978864 
L 333.357513 146.641146 
L 333.568877 143.981337 
L 333.780241 145.01818 
L 333.991604 147.379316 
L 334.202968 145.872725 
L 334.625695 140.262805 
L 334.837059 138.928775 
L 335.259786 141.852694 
L 335.47115 139.784711 
L 335.682513 140.220711 
L 335.893877 142.338475 
L 336.105241 141.544801 
L 336.527968 137.42933 
L 336.739332 136.936867 
L 336.950695 138.660063 
L 337.162059 139.367133 
L 337.373423 137.451108 
L 337.79615 139.864179 
L 338.218877 136.43539 
L 338.430241 134.851601 
L 338.641604 134.143097 
L 339.064332 135.652658 
L 339.275695 134.499616 
L 339.487059 134.806668 
L 339.698423 135.899679 
L 339.909786 135.410152 
L 340.332513 133.625058 
L 340.543877 133.949948 
L 340.755241 135.1147 
L 340.966604 134.90907 
L 341.177968 133.936398 
L 341.389332 134.94831 
L 341.600695 135.221747 
L 342.023423 133.159975 
L 342.234786 132.863651 
L 342.657513 133.110883 
L 343.080241 132.784581 
L 343.291604 133.042395 
L 343.714332 132.765631 
L 343.925695 132.942144 
L 344.137059 133.654603 
L 344.348423 134.908754 
L 344.559786 135.461408 
L 344.77115 134.243439 
L 344.982513 134.333194 
L 345.193877 135.379854 
L 345.616604 133.511813 
L 345.827968 133.893576 
L 346.250695 136.054551 
L 346.462059 135.546323 
L 346.673423 134.270011 
L 346.884786 135.281842 
L 347.09615 135.574355 
L 347.307513 134.205623 
L 347.518877 134.291379 
L 347.941604 137.904858 
L 348.152968 140.089082 
L 348.364332 140.017132 
L 348.575695 137.7748 
L 348.998423 140.012292 
L 349.209786 137.811312 
L 349.42115 137.174056 
L 349.843877 141.347762 
L 350.055241 143.326053 
L 350.266604 142.259744 
L 350.477968 139.943742 
L 350.689332 141.947948 
L 350.900695 142.351495 
L 351.112059 139.768503 
L 351.323423 140.022193 
L 351.957513 149.079882 
L 352.168877 148.43106 
L 352.380241 145.26603 
L 352.802968 148.467672 
L 353.014332 145.181667 
L 353.225695 144.78577 
L 353.859786 154.088297 
L 354.07115 152.619294 
L 354.282513 149.384553 
L 354.493877 152.154596 
L 354.705241 152.728833 
L 354.916604 149.132879 
L 355.127968 149.440616 
L 355.762059 160.980042 
L 355.973423 159.866487 
L 356.184786 155.992883 
L 356.39615 158.775453 
L 356.607513 159.908671 
L 356.818877 155.814828 
L 357.030241 155.616047 
L 357.664332 167.250645 
L 357.875695 165.574792 
L 358.087059 161.655471 
L 358.298423 164.884023 
L 358.509786 165.659287 
L 358.72115 161.370133 
L 358.932513 161.622657 
L 359.566604 174.6074 
L 359.777968 173.18682 
L 359.989332 168.896128 
L 360.200695 172.077559 
L 360.412059 173.200254 
L 360.623423 168.657459 
L 360.834786 168.593962 
L 361.468877 181.50948 
L 361.680241 179.825425 
L 361.891604 175.526658 
L 362.102968 178.876343 
L 362.314332 179.844066 
L 362.525695 175.24208 
L 362.737059 175.351508 
L 363.37115 188.65354 
L 363.582513 187.100122 
L 363.793877 182.710793 
L 364.005241 185.971369 
L 364.216604 187.052566 
L 364.427968 182.44073 
L 364.639332 182.441932 
L 365.273423 195.529265 
L 365.484786 194.008824 
L 365.69615 189.656856 
L 365.907513 192.816115 
L 366.118877 193.935094 
L 366.330241 189.402343 
L 366.541604 189.315326 
L 367.175695 201.898312 
L 367.387059 200.381079 
L 367.598423 196.196908 
L 367.809786 199.251855 
L 368.02115 200.265236 
L 368.232513 195.937408 
L 368.443877 195.947524 
L 369.077968 208.225151 
L 369.289332 207.003139 
L 369.500695 202.906247 
L 369.712059 205.63721 
L 369.923423 206.854102 
L 370.134786 202.730546 
L 370.34615 202.443567 
L 370.980241 213.511358 
L 371.191604 212.182186 
L 371.402968 208.465997 
L 371.614332 211.106025 
L 371.825695 212.04046 
L 372.037059 208.290828 
L 372.248423 208.280026 
L 372.882513 219.016095 
L 373.093877 218.189137 
L 373.305241 214.609566 
L 373.727968 218.032338 
L 373.939332 214.588974 
L 374.150695 214.137163 
L 374.784786 223.178419 
L 374.99615 222.158029 
L 375.207513 219.112242 
L 375.418877 221.210371 
L 375.630241 222.064247 
L 375.841604 219.107993 
L 376.052968 219.069296 
L 376.687059 227.787191 
L 376.898423 227.406946 
L 377.109786 224.535813 
L 377.532513 227.312786 
L 377.743877 224.729984 
L 377.955241 224.160805 
L 378.589332 230.879845 
L 378.800695 230.237031 
L 379.012059 227.985574 
L 379.434786 230.23009 
L 379.64615 228.187355 
L 379.857513 228.114418 
L 380.702968 234.56712 
L 380.914332 232.507279 
L 381.337059 234.536958 
L 381.548423 232.895159 
L 381.759786 232.237212 
L 381.97115 233.332772 
L 382.393877 236.441145 
L 382.605241 236.17985 
L 382.816604 234.763623 
L 383.239332 236.209077 
L 383.450695 235.10781 
L 383.662059 234.977851 
L 384.084786 237.329313 
L 384.29615 238.811393 
L 384.507513 239.258089 
L 384.718877 238.031494 
L 384.930241 238.175009 
L 385.141604 239.202623 
L 385.564332 237.754692 
L 385.775695 237.950756 
L 386.198423 239.294239 
L 386.409786 239.368268 
L 386.62115 238.769147 
L 386.832513 238.902657 
L 387.043877 239.312437 
L 387.466604 238.90345 
L 387.677968 238.969853 
L 387.889332 239.303094 
L 388.312059 240.770741 
L 388.734786 239.794766 
L 388.94615 240.575681 
L 389.157513 240.772871 
L 389.580241 239.217006 
L 389.791604 238.83305 
L 390.002968 238.74207 
L 390.425695 239.28205 
L 390.637059 238.720699 
L 390.848423 238.873436 
L 391.059786 239.551457 
L 391.27115 239.23928 
L 391.693877 237.67458 
L 391.905241 237.601511 
L 392.116604 238.597465 
L 392.327968 238.97851 
L 392.539332 237.742754 
L 392.750695 238.2262 
L 392.962059 239.294239 
L 393.173423 238.398316 
L 393.59615 235.381787 
L 393.807513 234.534807 
L 394.018877 235.140233 
L 394.230241 236.103074 
L 394.441604 234.892674 
L 394.652968 234.769156 
L 394.864332 236.299795 
L 395.075695 235.924852 
L 395.709786 231.658802 
L 396.132513 234.061954 
L 396.343877 232.231392 
L 396.555241 232.414099 
L 396.766604 234.348051 
L 396.977968 233.455664 
L 397.612059 227.144205 
L 397.823423 228.008169 
L 398.034786 229.760339 
L 398.24615 227.987285 
L 398.457513 227.614762 
L 398.668877 229.999396 
L 398.880241 229.620473 
L 399.514332 222.969788 
L 399.937059 226.409375 
L 400.148423 224.09348 
L 400.359786 223.995502 
L 400.57115 226.788238 
L 400.782513 225.978111 
L 401.416604 217.52416 
L 401.627968 218.658571 
L 401.839332 221.192706 
L 402.050695 218.953749 
L 402.262059 218.370216 
L 402.473423 221.581775 
L 402.684786 221.245392 
L 403.318877 212.492984 
L 403.530241 214.123524 
L 403.741604 216.913989 
L 403.952968 214.224573 
L 404.164332 213.857667 
L 404.375695 217.447754 
L 404.587059 216.776817 
L 405.22115 206.517287 
L 405.432513 207.9049 
L 405.643877 211.145094 
L 405.855241 208.524757 
L 406.066604 207.759082 
L 406.277968 211.6967 
L 406.489332 211.406787 
L 407.123423 200.852608 
L 407.334786 202.60489 
L 407.54615 206.06905 
L 407.757513 203.113074 
L 407.968877 202.47206 
L 408.180241 206.709694 
L 408.391604 206.197854 
L 409.025695 194.530721 
L 409.237059 196.114952 
L 409.448423 199.892714 
L 409.659786 196.971977 
L 409.87115 196.052241 
L 410.082513 200.522436 
L 410.293877 200.241896 
L 410.927968 188.28286 
L 411.139332 190.043477 
L 411.350695 193.976285 
L 411.562059 190.877326 
L 411.773423 189.965854 
L 411.984786 194.609623 
L 412.19615 194.251712 
L 412.830241 181.742352 
L 413.041604 183.444016 
L 413.252968 187.50546 
L 413.464332 184.393912 
L 413.675695 183.377692 
L 413.887059 188.10509 
L 414.098423 187.781737 
L 414.732513 175.034947 
L 414.943877 176.680585 
L 415.155241 180.799748 
L 415.366604 177.724363 
L 415.577968 176.593376 
L 415.789332 181.329254 
L 416.000695 181.113534 
L 416.634786 168.578396 
L 416.84615 170.317601 
L 417.057513 174.346548 
L 417.268877 171.206207 
L 417.480241 170.202786 
L 417.691604 174.853886 
L 417.902968 174.444221 
L 418.537059 161.800159 
L 418.748423 163.226267 
L 418.959786 167.19395 
L 419.17115 164.35161 
L 419.382513 163.118784 
L 419.593877 167.585899 
L 419.805241 167.496368 
L 420.439332 155.970052 
L 420.650695 157.674024 
L 420.862059 161.318179 
L 421.073423 158.354837 
L 421.284786 157.51771 
L 421.49615 161.727622 
L 421.707513 161.202148 
L 422.341604 149.745424 
L 422.552968 150.879579 
L 422.764332 154.328671 
L 423.187059 150.774755 
L 423.398423 154.597108 
L 423.609786 154.599694 
L 424.243877 145.178049 
L 424.455241 146.777772 
L 424.666604 149.682182 
L 424.877968 147.108502 
L 425.089332 146.603418 
L 425.300695 150.012136 
L 425.512059 149.349399 
L 426.14615 140.178454 
L 426.357513 140.983442 
L 426.568877 143.558833 
L 426.991604 140.898309 
L 427.202968 143.73178 
L 427.414332 143.763979 
L 428.048423 137.397685 
L 428.47115 140.683054 
L 428.682513 138.676774 
L 428.893877 138.646374 
L 429.105241 140.951207 
L 429.316604 140.136581 
L 429.739332 135.510239 
L 429.950695 134.165014 
L 430.162059 134.650099 
L 430.373423 136.068442 
L 430.584786 135.033681 
L 430.79615 134.582925 
L 431.007513 136.176369 
L 431.218877 136.155188 
L 431.641604 133.663358 
L 431.852968 133.473405 
L 432.275695 135.290407 
L 432.487059 133.96298 
L 432.698423 134.501366 
L 432.909786 135.515901 
L 433.543877 132.537197 
L 433.755241 132.339002 
L 434.177968 132.65892 
L 434.389332 132.360194 
L 434.812059 132.738422 
L 435.234786 132.466531 
L 435.44615 132.79641 
L 435.868877 134.757955 
L 436.291604 133.432271 
L 436.502968 134.569729 
L 436.714332 134.256812 
L 436.925695 133.147027 
L 437.137059 133.06119 
L 437.559786 134.823772 
L 437.77115 134.844703 
L 437.982513 133.639382 
L 438.193877 133.994858 
L 438.405241 134.774147 
L 438.616604 133.720929 
L 438.827968 133.357196 
L 439.039332 134.379029 
L 439.673423 138.934923 
L 439.884786 137.001178 
L 440.09615 137.031843 
L 440.307513 138.726367 
L 440.730241 135.95959 
L 440.941604 136.987307 
L 441.364332 141.183466 
L 441.575695 141.095824 
L 441.787059 138.714876 
L 441.787059 138.714876 
" clip-path="url(#p42b4b350bd)" style="fill: none; stroke: #1f77b4; stroke-width: 1.5; stroke-linecap: square"/>
   </g>
   <g id="patch_8">
    <path d="M 42.309786 249.48 
L 42.309786 126.583448 
" style="fill: none; stroke: #000000; stroke-width: 0.8; stroke-linejoin: miter; stroke-linecap: square"/>
   </g>
   <g id="patch_9">
    <path d="M 460.809786 249.48 
L 460.809786 126.583448 
" style="fill: none; stroke: #000000; stroke-width: 0.8; stroke-linejoin: miter; stroke-linecap: square"/>
   </g>
   <g id="patch_10">
    <path d="M 42.309786 249.48 
L 460.809786 249.48 
" style="fill: none; stroke: #000000; stroke-width: 0.8; stroke-linejoin: miter; stroke-linecap: square"/>
   </g>
   <g id="patch_11">
    <path d="M 42.309786 126.583448 
L 460.809786 126.583448 
" style="fill: none; stroke: #000000; stroke-width: 0.8; stroke-linejoin: miter; stroke-linecap: square"/>
   </g>
  </g>
  <g id="axes_3">
   <g id="matplotlib.axis_5">
    <g id="text_17">
     <!-- $freezing$ -->
     <g transform="translate(475.457267 90.232448) rotate(-90) scale(0.15 -0.15)">
      <defs>
       <path id="CMMI12-66" d="M 2854 2566 
C 2982 2566 3034 2566 3034 2687 
C 3034 2752 2982 2752 2867 2752 
L 2349 2752 
C 2470 3398 2560 3846 2611 4051 
C 2650 4204 2784 4351 2950 4351 
C 3085 4351 3219 4294 3283 4236 
C 3034 4211 2957 4025 2957 3916 
C 2957 3788 3053 3712 3174 3712 
C 3302 3712 3494 3820 3494 4064 
C 3494 4332 3226 4480 2944 4480 
C 2669 4480 2400 4275 2272 4025 
C 2157 3801 2093 3573 1946 2752 
L 1517 2752 
C 1395 2752 1331 2752 1331 2636 
C 1331 2566 1370 2566 1498 2566 
L 1907 2566 
C 1792 1977 1530 545 1382 -132 
C 1274 -685 1178 -1152 858 -1152 
C 838 -1152 653 -1152 538 -1031 
C 864 -1005 864 -724 864 -717 
C 864 -589 768 -512 646 -512 
C 518 -512 326 -621 326 -865 
C 326 -1140 608 -1280 858 -1280 
C 1510 -1280 1779 -113 1850 203 
C 1965 691 2278 2376 2310 2566 
L 2854 2566 
z
" transform="scale(0.015625)"/>
       <path id="CMMI12-72" d="M 2490 2633 
C 2291 2598 2189 2457 2189 2316 
C 2189 2163 2310 2111 2400 2111 
C 2579 2111 2726 2265 2726 2457 
C 2726 2651 2528 2816 2208 2816 
C 1952 2816 1658 2700 1389 2335 
C 1344 2660 1088 2816 832 2816 
C 582 2816 454 2642 378 2508 
C 269 2278 173 1892 173 1860 
C 173 1834 198 1801 243 1801 
C 294 1801 301 1808 339 1957 
C 435 2342 557 2687 813 2687 
C 966 2687 1011 2604 1011 2419 
C 1011 2278 947 2028 902 1827 
L 723 1130 
C 698 1007 627 716 595 600 
C 550 432 480 128 480 96 
C 480 6 550 -64 646 -64 
C 717 -64 838 -20 877 109 
C 896 160 1133 1136 1171 1285 
C 1203 1427 1242 1562 1274 1705 
C 1299 1795 1325 1898 1344 1982 
C 1363 2040 1536 2355 1696 2495 
C 1773 2566 1939 2687 2202 2687 
C 2304 2687 2406 2674 2490 2633 
z
" transform="scale(0.015625)"/>
       <path id="CMMI12-65" d="M 1146 1472 
C 1318 1472 1754 1484 2061 1600 
C 2547 1786 2592 2160 2592 2275 
C 2592 2559 2349 2816 1926 2816 
C 1254 2816 288 2205 288 1066 
C 288 400 672 -64 1254 -64 
C 2125 -64 2675 609 2675 691 
C 2675 729 2637 761 2611 761 
C 2592 761 2586 755 2528 698 
C 2118 159 1510 64 1267 64 
C 902 64 710 349 710 818 
C 710 907 710 1066 806 1472 
L 1146 1472 
z
M 838 1600 
C 1114 2591 1722 2687 1926 2687 
C 2208 2687 2400 2520 2400 2275 
C 2400 1600 1376 1600 1107 1600 
L 838 1600 
z
" transform="scale(0.015625)"/>
       <path id="CMMI12-6e" d="M 1318 1870 
C 1331 1909 1491 2228 1728 2432 
C 1894 2585 2112 2687 2362 2687 
C 2618 2687 2707 2496 2707 2241 
C 2707 1877 2445 1149 2317 804 
C 2259 651 2227 568 2227 453 
C 2227 166 2426 -64 2733 -64 
C 3328 -64 3552 874 3552 913 
C 3552 945 3526 970 3488 970 
C 3430 970 3424 951 3392 842 
C 3245 319 3002 64 2752 64 
C 2688 64 2586 70 2586 274 
C 2586 434 2656 625 2694 715 
C 2822 1066 3091 1781 3091 2145 
C 3091 2528 2867 2816 2381 2816 
C 1811 2816 1510 2413 1395 2253 
C 1376 2617 1114 2816 832 2816 
C 627 2816 486 2694 378 2477 
C 262 2247 173 1864 173 1838 
C 173 1813 198 1781 243 1781 
C 294 1781 301 1787 339 1934 
C 442 2324 557 2687 813 2687 
C 960 2687 1011 2585 1011 2394 
C 1011 2253 947 2004 902 1807 
L 723 1117 
C 698 996 627 708 595 593 
C 550 427 480 127 480 95 
C 480 6 550 -64 646 -64 
C 723 -64 813 -26 864 70 
C 877 102 934 325 966 453 
L 1107 1028 
L 1318 1870 
z
" transform="scale(0.015625)"/>
       <path id="CMMI12-67" d="M 2163 811 
C 2138 708 2125 683 2042 587 
C 1779 249 1510 128 1312 128 
C 1101 128 902 293 902 734 
C 902 1072 1094 1787 1235 2075 
C 1421 2432 1709 2687 1978 2687 
C 2400 2687 2483 2164 2483 2126 
L 2464 2036 
L 2163 811 
z
M 2560 2394 
C 2477 2579 2298 2816 1978 2816 
C 1280 2816 486 1941 486 989 
C 486 325 890 0 1299 0 
C 1638 0 1939 268 2054 396 
L 1914 -176 
C 1824 -520 1786 -677 1555 -896 
C 1293 -1152 1050 -1152 909 -1152 
C 717 -1152 557 -1140 397 -1090 
C 602 -1034 653 -858 653 -789 
C 653 -689 576 -589 435 -589 
C 282 -589 115 -714 115 -921 
C 115 -1178 378 -1280 922 -1280 
C 1747 -1280 2176 -758 2259 -420 
L 2970 2426 
C 2989 2502 2989 2515 2989 2528 
C 2989 2617 2918 2688 2822 2688 
C 2669 2688 2579 2560 2560 2388 
L 2560 2394 
z
" transform="scale(0.015625)"/>
      </defs>
      <use xlink:href="#CMMI12-66" transform="scale(0.996264)"/>
      <use xlink:href="#CMMI12-72" transform="translate(58.720305 0) scale(0.996264)"/>
      <use xlink:href="#CMMI12-65" transform="translate(105.390917 0) scale(0.996264)"/>
      <use xlink:href="#CMMI12-65" transform="translate(150.602918 0) scale(0.996264)"/>
      <use xlink:href="#CMMI12-7a" transform="translate(195.814919 0) scale(0.996264)"/>
      <use xlink:href="#CMMI12-69" transform="translate(245.570064 0) scale(0.996264)"/>
      <use xlink:href="#CMMI12-6e" transform="translate(278.848666 0) scale(0.996264)"/>
      <use xlink:href="#CMMI12-67" transform="translate(337.078713 0) scale(0.996264)"/>
     </g>
    </g>
   </g>
   <g id="patch_12">
    <path d="M 42.309786 122.896552 
L 42.309786 -0 
" style="fill: none; stroke: #000000; stroke-width: 0.8; stroke-linejoin: miter; stroke-linecap: square"/>
   </g>
   <g id="patch_13">
    <path d="M 460.809786 122.896552 
L 460.809786 -0 
" style="fill: none; stroke: #000000; stroke-width: 0.8; stroke-linejoin: miter; stroke-linecap: square"/>
   </g>
   <g id="patch_14">
    <path d="M 42.309786 122.896552 
L 460.809786 122.896552 
" style="fill: none; stroke: #000000; stroke-width: 0.8; stroke-linejoin: miter; stroke-linecap: square"/>
   </g>
   <g id="patch_15">
    <path d="M 42.309786 -0 
L 460.809786 -0 
" style="fill: none; stroke: #000000; stroke-width: 0.8; stroke-linejoin: miter; stroke-linecap: square"/>
   </g>
  </g>
  <g id="axes_4">
   <g id="matplotlib.axis_6">
    <g id="text_18">
     <!-- $non-freezing$ -->
     <g transform="translate(475.457267 238.199962) rotate(-90) scale(0.15 -0.15)">
      <defs>
       <path id="CMMI12-6f" d="M 2918 1755 
C 2918 2362 2522 2816 1939 2816 
C 1094 2816 262 1896 262 996 
C 262 389 659 -64 1242 -64 
C 2093 -64 2918 855 2918 1755 
z
M 1248 64 
C 928 64 691 319 691 766 
C 691 1060 845 1711 1024 2030 
C 1312 2522 1670 2687 1933 2687 
C 2246 2687 2490 2432 2490 1985 
C 2490 1730 2355 1047 2112 657 
C 1850 230 1498 64 1248 64 
z
" transform="scale(0.015625)"/>
       <path id="CMSY10-0" d="M 4218 1472 
C 4326 1472 4442 1472 4442 1600 
C 4442 1728 4326 1728 4218 1728 
L 755 1728 
C 646 1728 531 1728 531 1600 
C 531 1472 646 1472 755 1472 
L 4218 1472 
z
" transform="scale(0.015625)"/>
      </defs>
      <use xlink:href="#CMMI12-6e" transform="scale(0.996264)"/>
      <use xlink:href="#CMMI12-6f" transform="translate(58.230047 0) scale(0.996264)"/>
      <use xlink:href="#CMMI12-6e" transform="translate(105.125357 0) scale(0.996264)"/>
      <use xlink:href="#CMSY10-0" transform="translate(185.494611 0) scale(0.996264)"/>
      <use xlink:href="#CMMI12-66" transform="translate(285.121286 0) scale(0.996264)"/>
      <use xlink:href="#CMMI12-72" transform="translate(343.841591 0) scale(0.996264)"/>
      <use xlink:href="#CMMI12-65" transform="translate(390.512203 0) scale(0.996264)"/>
      <use xlink:href="#CMMI12-65" transform="translate(435.724204 0) scale(0.996264)"/>
      <use xlink:href="#CMMI12-7a" transform="translate(480.936205 0) scale(0.996264)"/>
      <use xlink:href="#CMMI12-69" transform="translate(530.69135 0) scale(0.996264)"/>
      <use xlink:href="#CMMI12-6e" transform="translate(563.969952 0) scale(0.996264)"/>
      <use xlink:href="#CMMI12-67" transform="translate(622.199999 0) scale(0.996264)"/>
     </g>
    </g>
   </g>
   <g id="patch_16">
    <path d="M 42.309786 249.48 
L 42.309786 126.583448 
" style="fill: none; stroke: #000000; stroke-width: 0.8; stroke-linejoin: miter; stroke-linecap: square"/>
   </g>
   <g id="patch_17">
    <path d="M 460.809786 249.48 
L 460.809786 126.583448 
" style="fill: none; stroke: #000000; stroke-width: 0.8; stroke-linejoin: miter; stroke-linecap: square"/>
   </g>
   <g id="patch_18">
    <path d="M 42.309786 249.48 
L 460.809786 249.48 
" style="fill: none; stroke: #000000; stroke-width: 0.8; stroke-linejoin: miter; stroke-linecap: square"/>
   </g>
   <g id="patch_19">
    <path d="M 42.309786 126.583448 
L 460.809786 126.583448 
" style="fill: none; stroke: #000000; stroke-width: 0.8; stroke-linejoin: miter; stroke-linecap: square"/>
   </g>
  </g>
 </g>
 <defs>
  <clipPath id="pdeb0a70b0e">
   <rect x="42.309786" y="-0" width="418.5" height="122.896552"/>
  </clipPath>
  <clipPath id="p42b4b350bd">
   <rect x="42.309786" y="126.583448" width="418.5" height="122.896552"/>
  </clipPath>
 </defs>
</svg>
