<?xml version="1.0" encoding="utf-8" standalone="no"?>
<!DOCTYPE svg PUBLIC "-//W3C//DTD SVG 1.1//EN"
  "http://www.w3.org/Graphics/SVG/1.1/DTD/svg11.dtd">
<svg xmlns:xlink="http://www.w3.org/1999/xlink" width="478.640246pt" height="300.578568pt" viewBox="0 0 478.640246 300.578568" xmlns="http://www.w3.org/2000/svg" version="1.1">
 <metadata>
  <rdf:RDF xmlns:dc="http://purl.org/dc/elements/1.1/" xmlns:cc="http://creativecommons.org/ns#" xmlns:rdf="http://www.w3.org/1999/02/22-rdf-syntax-ns#">
   <cc:Work>
    <dc:type rdf:resource="http://purl.org/dc/dcmitype/StillImage"/>
    <dc:date>2024-01-06T06:56:53.339430</dc:date>
    <dc:format>image/svg+xml</dc:format>
    <dc:creator>
     <cc:Agent>
      <dc:title>Matplotlib v3.7.1, https://matplotlib.org/</dc:title>
     </cc:Agent>
    </dc:creator>
   </cc:Work>
  </rdf:RDF>
 </metadata>
 <defs>
  <style type="text/css">*{stroke-linejoin: round; stroke-linecap: butt}</style>
 </defs>
 <g id="figure_1">
  <g id="patch_1">
   <path d="M 0 300.578568 
L 478.640246 300.578568 
L 478.640246 0 
L 0 0 
z
" style="fill: #ffffff"/>
  </g>
  <g id="axes_1">
   <g id="patch_2">
    <path d="M 42.309786 138.8342 
L 460.809786 138.8342 
L 460.809786 15.937648 
L 42.309786 15.937648 
z
" style="fill: #ffffff"/>
   </g>
   <g id="matplotlib.axis_1">
    <g id="xtick_1">
     <g id="line2d_1">
      <defs>
       <path id="mc0d07f09c4" d="M 0 0 
L 0 -3.5 
" style="stroke: #000000; stroke-width: 0.8"/>
      </defs>
      <g>
       <use xlink:href="#mc0d07f09c4" x="61.332513" y="138.8342" style="stroke: #000000; stroke-width: 0.8"/>
      </g>
     </g>
    </g>
    <g id="xtick_2">
     <g id="line2d_2">
      <g>
       <use xlink:href="#mc0d07f09c4" x="142.121335" y="138.8342" style="stroke: #000000; stroke-width: 0.8"/>
      </g>
     </g>
    </g>
    <g id="xtick_3">
     <g id="line2d_3">
      <g>
       <use xlink:href="#mc0d07f09c4" x="222.910156" y="138.8342" style="stroke: #000000; stroke-width: 0.8"/>
      </g>
     </g>
    </g>
    <g id="xtick_4">
     <g id="line2d_4">
      <g>
       <use xlink:href="#mc0d07f09c4" x="303.698977" y="138.8342" style="stroke: #000000; stroke-width: 0.8"/>
      </g>
     </g>
    </g>
    <g id="xtick_5">
     <g id="line2d_5">
      <g>
       <use xlink:href="#mc0d07f09c4" x="384.487798" y="138.8342" style="stroke: #000000; stroke-width: 0.8"/>
      </g>
     </g>
    </g>
   </g>
   <g id="matplotlib.axis_2">
    <g id="ytick_1">
     <g id="line2d_6">
      <defs>
       <path id="mbd7fcead8d" d="M 0 0 
L 3.5 0 
" style="stroke: #000000; stroke-width: 0.8"/>
      </defs>
      <g>
       <use xlink:href="#mbd7fcead8d" x="42.309786" y="128.557494" style="stroke: #000000; stroke-width: 0.8"/>
      </g>
     </g>
     <g id="text_1">
      <!-- $\mathdefault{0.4}$ -->
      <g transform="translate(20.112734 133.881234) scale(0.15 -0.15)">
       <defs>
        <path id="CMR17-30" d="M 2688 2038 
C 2688 2430 2682 3099 2413 3613 
C 2176 4063 1798 4224 1466 4224 
C 1158 4224 768 4082 525 3620 
C 269 3137 243 2539 243 2038 
C 243 1671 250 1112 448 623 
C 723 -39 1216 -128 1466 -128 
C 1760 -128 2208 -7 2470 604 
C 2662 1048 2688 1568 2688 2038 
z
M 1466 -26 
C 1056 -26 813 328 723 816 
C 653 1196 653 1749 653 2109 
C 653 2604 653 3015 736 3407 
C 858 3954 1216 4121 1466 4121 
C 1728 4121 2067 3947 2189 3420 
C 2272 3054 2278 2623 2278 2109 
C 2278 1691 2278 1176 2202 797 
C 2067 96 1690 -26 1466 -26 
z
" transform="scale(0.015625)"/>
        <path id="CMMI12-3a" d="M 1178 307 
C 1178 492 1024 620 870 620 
C 685 620 557 467 557 313 
C 557 128 710 0 864 0 
C 1050 0 1178 153 1178 307 
z
" transform="scale(0.015625)"/>
        <path id="CMR17-34" d="M 2150 4147 
C 2150 4281 2144 4288 2029 4288 
L 128 1254 
L 128 1088 
L 1779 1088 
L 1779 460 
C 1779 230 1766 166 1318 166 
L 1197 166 
L 1197 0 
C 1402 12 1747 12 1965 12 
C 2182 12 2528 12 2733 0 
L 2733 166 
L 2611 166 
C 2163 166 2150 230 2150 460 
L 2150 1088 
L 2803 1088 
L 2803 1254 
L 2150 1254 
L 2150 4147 
z
M 1798 3723 
L 1798 1254 
L 256 1254 
L 1798 3723 
z
" transform="scale(0.015625)"/>
       </defs>
       <use xlink:href="#CMR17-30" transform="scale(0.996264)"/>
       <use xlink:href="#CMMI12-3a" transform="translate(45.690477 0) scale(0.996264)"/>
       <use xlink:href="#CMR17-34" transform="translate(72.787654 0) scale(0.996264)"/>
      </g>
     </g>
    </g>
    <g id="ytick_2">
     <g id="line2d_7">
      <g>
       <use xlink:href="#mbd7fcead8d" x="42.309786" y="92.879615" style="stroke: #000000; stroke-width: 0.8"/>
      </g>
     </g>
     <g id="text_2">
      <!-- $\mathdefault{0.6}$ -->
      <g transform="translate(20.112734 98.203355) scale(0.15 -0.15)">
       <defs>
        <path id="CMR17-36" d="M 678 2198 
C 678 3712 1395 4076 1811 4076 
C 1946 4076 2272 4049 2400 3782 
C 2298 3782 2106 3782 2106 3558 
C 2106 3385 2246 3328 2336 3328 
C 2394 3328 2566 3353 2566 3571 
C 2566 3987 2246 4224 1805 4224 
C 1043 4224 243 3411 243 2011 
C 243 257 966 -128 1478 -128 
C 2099 -128 2688 431 2688 1295 
C 2688 2101 2170 2688 1517 2688 
C 1126 2688 838 2430 678 1979 
L 678 2198 
z
M 1478 25 
C 691 25 691 1212 691 1450 
C 691 1914 909 2585 1504 2585 
C 1613 2585 1926 2585 2138 2140 
C 2253 1889 2253 1624 2253 1302 
C 2253 954 2253 696 2118 438 
C 1978 173 1773 25 1478 25 
z
" transform="scale(0.015625)"/>
       </defs>
       <use xlink:href="#CMR17-30" transform="scale(0.996264)"/>
       <use xlink:href="#CMMI12-3a" transform="translate(45.690477 0) scale(0.996264)"/>
       <use xlink:href="#CMR17-36" transform="translate(72.787654 0) scale(0.996264)"/>
      </g>
     </g>
    </g>
    <g id="ytick_3">
     <g id="line2d_8">
      <g>
       <use xlink:href="#mbd7fcead8d" x="42.309786" y="57.201735" style="stroke: #000000; stroke-width: 0.8"/>
      </g>
     </g>
     <g id="text_3">
      <!-- $\mathdefault{0.8}$ -->
      <g transform="translate(20.112734 62.525475) scale(0.15 -0.15)">
       <defs>
        <path id="CMR17-38" d="M 1741 2289 
C 2144 2494 2554 2803 2554 3298 
C 2554 3884 1990 4224 1472 4224 
C 890 4224 378 3800 378 3215 
C 378 3054 416 2777 666 2533 
C 730 2469 998 2276 1171 2154 
C 883 2006 211 1652 211 945 
C 211 282 838 -128 1459 -128 
C 2144 -128 2720 366 2720 1022 
C 2720 1607 2330 1877 2074 2051 
L 1741 2289 
z
M 902 2855 
C 851 2887 595 3086 595 3388 
C 595 3781 998 4076 1459 4076 
C 1965 4076 2336 3716 2336 3298 
C 2336 2700 1670 2359 1638 2359 
C 1632 2359 1626 2359 1574 2398 
L 902 2855 
z
M 2080 1536 
C 2176 1466 2483 1253 2483 861 
C 2483 385 2010 25 1472 25 
C 890 25 448 443 448 951 
C 448 1459 838 1884 1280 2083 
L 2080 1536 
z
" transform="scale(0.015625)"/>
       </defs>
       <use xlink:href="#CMR17-30" transform="scale(0.996264)"/>
       <use xlink:href="#CMMI12-3a" transform="translate(45.690477 0) scale(0.996264)"/>
       <use xlink:href="#CMR17-38" transform="translate(72.787654 0) scale(0.996264)"/>
      </g>
     </g>
    </g>
    <g id="ytick_4">
     <g id="line2d_9">
      <g>
       <use xlink:href="#mbd7fcead8d" x="42.309786" y="21.523855" style="stroke: #000000; stroke-width: 0.8"/>
      </g>
     </g>
     <g id="text_4">
      <!-- $\mathdefault{1.0}$ -->
      <g transform="translate(20.112734 26.847595) scale(0.15 -0.15)">
       <defs>
        <path id="CMR17-31" d="M 1702 4083 
C 1702 4217 1696 4224 1606 4224 
C 1357 3927 979 3833 621 3820 
C 602 3820 570 3820 563 3808 
C 557 3795 557 3782 557 3648 
C 755 3648 1088 3686 1344 3839 
L 1344 467 
C 1344 243 1331 166 781 166 
L 589 166 
L 589 0 
C 896 6 1216 12 1523 12 
C 1830 12 2150 6 2458 0 
L 2458 166 
L 2266 166 
C 1715 166 1702 236 1702 467 
L 1702 4083 
z
" transform="scale(0.015625)"/>
       </defs>
       <use xlink:href="#CMR17-31" transform="scale(0.996264)"/>
       <use xlink:href="#CMMI12-3a" transform="translate(45.690477 0) scale(0.996264)"/>
       <use xlink:href="#CMR17-30" transform="translate(72.787654 0) scale(0.996264)"/>
      </g>
     </g>
    </g>
    <g id="text_5">
     <!-- $ S^z_i S^z_j$ -->
     <g transform="translate(10.211706 92.598926) rotate(-90) scale(0.15 -0.15)">
      <defs>
       <path id="CMMI12-53" d="M 4064 4422 
C 4064 4480 4019 4480 4006 4480 
C 3981 4480 3974 4473 3898 4377 
C 3859 4332 3597 4002 3590 3996 
C 3379 4409 2957 4480 2688 4480 
C 1875 4480 1139 3742 1139 3024 
C 1139 2547 1427 2268 1741 2160 
C 1811 2134 2189 2033 2381 1988 
C 2707 1899 2790 1874 2925 1734 
C 2950 1702 3078 1556 3078 1258 
C 3078 667 2528 57 1888 57 
C 1363 57 781 279 781 991 
C 781 1112 806 1264 826 1328 
C 826 1347 832 1378 832 1391 
C 832 1417 819 1448 768 1448 
C 710 1448 704 1436 678 1328 
L 352 25 
C 352 19 326 -64 326 -71 
C 326 -128 378 -128 390 -128 
C 416 -128 422 -122 499 -26 
L 794 356 
C 947 127 1280 -128 1875 -128 
C 2701 -128 3456 667 3456 1461 
C 3456 1728 3392 1963 3149 2198 
C 3014 2331 2899 2363 2310 2516 
C 1882 2630 1824 2649 1709 2751 
C 1600 2859 1517 3011 1517 3227 
C 1517 3761 2061 4307 2669 4307 
C 3296 4307 3590 3926 3590 3322 
C 3590 3157 3558 2986 3558 2960 
C 3558 2903 3610 2903 3629 2903 
C 3686 2903 3693 2922 3718 3024 
L 4064 4422 
z
" transform="scale(0.015625)"/>
       <path id="CMMI12-7a" d="M 813 486 
C 1088 809 1312 1015 1632 1313 
C 2016 1657 2182 1822 2272 1922 
C 2720 2371 2944 2713 2944 2764 
C 2944 2816 2893 2816 2880 2816 
C 2835 2816 2822 2790 2790 2745 
C 2630 2470 2477 2368 2310 2368 
C 2176 2368 2106 2403 1984 2547 
C 1850 2707 1741 2816 1555 2816 
C 1088 2816 806 2265 806 2127 
C 806 2107 813 2067 870 2067 
C 922 2067 928 2094 947 2140 
C 1056 2387 1363 2415 1485 2415 
C 1619 2415 1747 2387 1882 2342 
C 2125 2239 2227 2239 2291 2239 
C 2336 2239 2362 2239 2394 2246 
C 2182 1988 1837 1670 1549 1399 
L 902 783 
C 512 380 275 32 275 -13 
C 275 -52 307 -64 346 -64 
C 384 -64 390 -58 435 19 
C 538 179 742 384 979 384 
C 1114 384 1178 356 1306 211 
C 1427 70 1536 -64 1741 -64 
C 2368 -64 2726 723 2726 876 
C 2726 902 2720 942 2656 942 
C 2605 942 2598 915 2579 849 
C 2438 460 2061 336 1811 336 
C 1677 336 1549 364 1414 409 
C 1158 512 1088 512 1005 512 
C 941 512 870 512 813 486 
z
" transform="scale(0.015625)"/>
       <path id="CMMI12-69" d="M 1811 913 
C 1811 945 1786 970 1747 970 
C 1690 970 1683 951 1651 842 
C 1485 261 1222 64 1011 64 
C 934 64 845 83 845 274 
C 845 447 922 638 992 830 
L 1440 2017 
C 1459 2068 1504 2183 1504 2305 
C 1504 2573 1312 2816 998 2816 
C 410 2816 173 1890 173 1838 
C 173 1813 198 1781 243 1781 
C 301 1781 307 1807 333 1896 
C 486 2432 730 2687 979 2687 
C 1037 2687 1146 2681 1146 2477 
C 1146 2311 1062 2100 1011 1960 
L 563 772 
C 525 670 486 568 486 453 
C 486 166 685 -64 992 -64 
C 1581 -64 1811 868 1811 913 
z
M 1760 4012 
C 1760 4108 1683 4224 1542 4224 
C 1395 4224 1229 4083 1229 3916 
C 1229 3756 1363 3705 1440 3705 
C 1613 3705 1760 3871 1760 4012 
z
" transform="scale(0.015625)"/>
       <path id="CMMI12-6a" d="M 2240 2027 
C 2266 2129 2266 2218 2266 2243 
C 2266 2611 1990 2816 1702 2816 
C 1056 2816 710 1888 710 1843 
C 710 1811 736 1786 774 1786 
C 826 1786 832 1811 864 1875 
C 1120 2491 1440 2687 1683 2687 
C 1818 2687 1888 2617 1888 2395 
C 1888 2243 1869 2180 1843 2065 
L 1235 -327 
C 1114 -797 813 -1152 461 -1152 
C 435 -1152 301 -1152 179 -1089 
C 333 -1057 454 -937 454 -784 
C 454 -683 378 -581 237 -581 
C 70 -581 -83 -721 -83 -911 
C -83 -1172 198 -1280 461 -1280 
C 902 -1280 1485 -956 1645 -321 
L 2240 2027 
z
M 2502 4012 
C 2502 4172 2368 4224 2291 4224 
C 2118 4224 1971 4057 1971 3916 
C 1971 3820 2048 3705 2189 3705 
C 2336 3705 2502 3846 2502 4012 
z
" transform="scale(0.015625)"/>
      </defs>
      <use xlink:href="#CMMI12-53" transform="scale(0.996264)"/>
      <use xlink:href="#CMMI12-7a" transform="translate(65.794439 36.153639) scale(0.697382)"/>
      <use xlink:href="#CMMI12-69" transform="translate(59.994488 -25.505809) scale(0.697382)"/>
      <use xlink:href="#CMMI12-53" transform="translate(101.120995 0) scale(0.996264)"/>
      <use xlink:href="#CMMI12-7a" transform="translate(166.915434 36.153639) scale(0.697382)"/>
      <use xlink:href="#CMMI12-6a" transform="translate(161.115482 -25.505809) scale(0.697382)"/>
     </g>
    </g>
   </g>
   <g id="line2d_10">
    <path d="M 61.332513 21.523855 
L 61.586319 21.594714 
L 61.840125 22.426704 
L 62.09393 22.203207 
L 62.347736 22.346827 
L 62.855347 23.088799 
L 63.109152 25.116512 
L 63.362958 24.466728 
L 64.124375 26.649381 
L 64.37818 29.948028 
L 64.631986 28.930325 
L 65.139597 30.857523 
L 65.393403 31.867513 
L 65.647208 36.325281 
L 65.901014 35.025885 
L 66.408625 37.075073 
L 66.66243 38.151575 
L 66.916236 43.469917 
L 67.170041 41.996364 
L 67.677653 43.838129 
L 67.931458 44.824874 
L 68.185264 50.611715 
L 68.439069 49.088126 
L 68.692875 50.01369 
L 68.94668 50.510867 
L 69.200486 51.286755 
L 69.454292 57.092054 
L 69.708097 55.645389 
L 70.215708 56.537594 
L 70.469514 57.030785 
L 70.723319 62.451939 
L 70.977125 61.188538 
L 71.738542 61.674188 
L 71.992347 66.379803 
L 72.246153 65.363169 
L 72.499958 65.093528 
L 73.00757 64.906539 
L 73.261375 68.666719 
L 73.768986 67.178156 
L 74.022792 66.972302 
L 74.276597 66.512704 
L 74.530403 69.207508 
L 74.784209 68.70874 
L 75.038014 67.518883 
L 75.29182 67.162579 
L 75.545625 66.429891 
L 75.799431 68.049257 
L 76.053236 67.789303 
L 76.307042 66.214757 
L 76.560847 65.751028 
L 76.814653 64.816829 
L 77.068459 65.445568 
L 77.322264 65.414216 
L 77.57607 63.579114 
L 77.829875 63.067925 
L 78.083681 62.017673 
L 78.337486 61.804342 
L 78.591292 61.985753 
L 78.845098 60.047081 
L 79.098903 59.557272 
L 79.606514 57.605251 
L 79.86032 57.960829 
L 80.114125 56.078263 
L 80.367931 55.667855 
L 80.875542 53.295247 
L 81.129348 53.758019 
L 81.383153 52.07058 
L 81.636959 51.78516 
L 81.890764 50.861867 
L 82.14457 49.266533 
L 82.398376 49.75375 
L 82.652181 48.367264 
L 82.905987 48.244466 
L 83.159792 47.490481 
L 83.413598 45.872123 
L 83.667403 46.30751 
L 83.921209 45.285327 
L 84.175015 45.361866 
L 84.42882 44.844282 
L 84.682626 43.452401 
L 84.936431 43.781857 
L 85.190237 43.13124 
L 85.444042 43.43431 
L 85.697848 43.217241 
L 85.951653 42.297022 
L 86.205459 42.491034 
L 86.459265 42.153117 
L 86.71307 42.687306 
L 86.966876 42.80946 
L 87.220681 42.564788 
L 87.474487 42.611625 
L 87.728292 42.456355 
L 88.235904 43.64707 
L 88.489709 44.229116 
L 88.99732 43.975272 
L 89.504931 45.575174 
L 89.758737 47.041045 
L 90.266348 46.457615 
L 90.773959 48.274382 
L 91.027765 50.585264 
L 91.28157 50.255838 
L 91.535376 49.526961 
L 92.042987 51.328736 
L 92.296793 54.351096 
L 92.550598 53.971088 
L 92.804404 52.745555 
L 93.058209 53.320143 
L 93.312015 54.299798 
L 93.565821 57.816363 
L 93.819626 57.443102 
L 94.073432 55.673888 
L 94.327237 55.963968 
L 94.581043 56.769829 
L 94.834848 60.503298 
L 95.088654 60.192172 
L 95.342459 57.923714 
L 95.596265 57.884188 
L 95.850071 58.41317 
L 96.103876 62.063247 
L 96.357682 61.857887 
L 96.611487 59.221395 
L 96.865293 58.857363 
L 97.119098 59.044882 
L 97.372904 62.331392 
L 97.62671 62.255888 
L 97.880515 59.455978 
L 98.134321 58.822886 
L 98.388126 58.655752 
L 98.641932 61.357777 
L 98.895737 61.41353 
L 99.149543 58.691927 
L 99.657154 57.399179 
L 99.91096 59.384082 
L 100.164765 59.545027 
L 100.418571 57.129839 
L 100.926182 55.534184 
L 101.179988 56.773366 
L 101.433793 56.990718 
L 101.687599 55.058419 
L 102.19521 53.370571 
L 102.449015 53.955187 
L 102.702821 54.169691 
L 102.956626 52.823811 
L 103.464238 51.2467 
L 103.971849 51.501581 
L 104.733265 49.487289 
L 104.987071 49.332839 
L 105.240877 49.394402 
L 105.748488 49.080987 
L 106.002293 48.39182 
L 106.509904 48.158973 
L 106.76371 48.583982 
L 107.017516 48.657452 
L 107.271321 48.155451 
L 107.525127 48.148191 
L 107.778932 47.939412 
L 108.032738 48.81204 
L 108.286543 49.127806 
L 108.540349 48.813076 
L 108.794155 49.087293 
L 109.04796 48.728022 
L 109.301766 49.915892 
L 109.555571 50.433791 
L 109.809377 50.287937 
L 110.063182 50.891812 
L 110.316988 50.405525 
L 110.570794 51.749296 
L 110.824599 52.432092 
L 111.078405 52.445162 
L 111.33221 53.396078 
L 111.586016 52.84388 
L 112.093627 54.974738 
L 112.347432 55.150062 
L 112.601238 56.453225 
L 112.855044 55.921779 
L 113.362655 57.911212 
L 113.61646 58.246507 
L 113.870266 59.885877 
L 114.124071 59.45936 
L 114.377877 60.069421 
L 114.631683 61.016966 
L 114.885488 61.478265 
L 115.139294 63.392218 
L 115.393099 63.127158 
L 115.646905 63.074228 
L 116.154516 64.461105 
L 116.408322 66.524514 
L 116.662127 66.442919 
L 116.915933 65.589812 
L 117.423544 66.733959 
L 117.677349 68.76507 
L 117.931155 68.864634 
L 118.184961 67.177064 
L 118.692572 67.874496 
L 118.946377 69.658579 
L 119.200183 69.927935 
L 119.453988 67.483379 
L 119.9616 67.609498 
L 120.215405 68.94062 
L 120.469211 69.369155 
L 120.723016 66.343879 
L 121.230627 65.880541 
L 121.738238 67.186188 
L 121.992044 63.815937 
L 122.499655 62.856904 
L 122.753461 62.929532 
L 123.007266 63.644523 
L 123.261072 60.178005 
L 124.022489 58.355539 
L 124.276294 59.178234 
L 124.5301 55.843544 
L 125.037711 54.447991 
L 125.291516 53.430409 
L 125.545322 54.310406 
L 125.799128 51.289978 
L 126.306739 49.967571 
L 126.560544 48.681258 
L 126.81435 49.548477 
L 127.068155 46.972396 
L 127.321961 46.56335 
L 127.575767 45.868461 
L 127.829572 44.54798 
L 128.083378 45.325152 
L 128.337183 43.278124 
L 128.590989 43.033275 
L 128.844794 42.496285 
L 129.0986 41.370444 
L 129.352405 41.989001 
L 129.606211 40.520928 
L 129.860017 40.463727 
L 130.113822 40.129634 
L 130.367628 39.418129 
L 130.621433 39.827663 
L 130.875239 38.956165 
L 131.129044 39.097583 
L 131.636656 38.867749 
L 131.890461 39.035667 
L 132.144267 38.742051 
L 132.398072 39.077488 
L 132.651878 39.201788 
L 132.905683 39.780246 
L 133.159489 39.686723 
L 133.413295 39.901845 
L 133.920906 40.736935 
L 134.174711 42.070255 
L 134.428517 41.709708 
L 135.189934 43.431393 
L 135.443739 45.508792 
L 135.697545 44.896739 
L 136.458961 47.013203 
L 136.712767 49.768249 
L 136.966573 48.951233 
L 137.474184 50.517833 
L 137.727989 51.156445 
L 137.981795 54.470647 
L 138.2356 53.528026 
L 138.997017 55.516343 
L 139.250823 59.219088 
L 139.504628 58.249394 
L 140.012239 59.19533 
L 140.266045 59.738168 
L 140.51985 63.606873 
L 140.773656 62.709828 
L 141.027462 62.688268 
L 141.535073 63.462001 
L 141.788878 67.22894 
L 142.296489 65.983802 
L 142.804101 66.349052 
L 143.057906 69.738301 
L 143.311712 69.207239 
L 143.565517 68.245879 
L 144.073128 68.145503 
L 144.326934 70.884932 
L 144.58074 70.592699 
L 144.834545 69.264436 
L 145.088351 69.089961 
L 145.342156 68.704662 
L 145.595962 70.588229 
L 145.849767 70.537237 
L 146.103573 68.984286 
L 146.357379 68.68903 
L 146.611184 68.043067 
L 146.86499 68.957889 
L 147.118795 69.12735 
L 147.372601 67.515961 
L 147.626406 67.172563 
L 147.880212 66.325932 
L 148.134017 66.267464 
L 148.387823 66.615341 
L 148.641629 65.101364 
L 148.895434 64.792403 
L 149.403045 62.905562 
L 149.656851 63.371765 
L 149.910656 62.074286 
L 150.164462 61.875654 
L 150.418268 60.904154 
L 150.672073 59.309474 
L 150.925879 59.823175 
L 151.179684 58.800691 
L 151.43349 58.769397 
L 151.687295 57.891458 
L 151.941101 55.907552 
L 152.194907 56.399263 
L 152.448712 55.637824 
L 152.702518 55.807104 
L 152.956323 55.121857 
L 153.210129 53.076983 
L 153.463934 53.491808 
L 153.71774 52.906002 
L 153.971546 53.277493 
L 154.225351 52.867686 
L 154.479157 51.094713 
L 154.732962 51.401761 
L 154.986768 50.852397 
L 155.240573 51.395923 
L 155.494379 51.312617 
L 155.748185 50.13667 
L 156.00199 50.330587 
L 156.255796 49.655778 
L 156.509601 50.312103 
L 156.763407 50.565801 
L 157.017212 50.233939 
L 157.271018 50.329451 
L 157.524823 49.393444 
L 158.28624 51.26972 
L 158.540046 51.289712 
L 158.793851 50.016464 
L 159.301462 51.438583 
L 159.555268 53.011525 
L 159.809074 52.972079 
L 160.062879 51.360613 
L 160.316685 51.888327 
L 160.57049 52.760244 
L 160.824296 55.13175 
L 161.078101 55.031851 
L 161.331907 53.147551 
L 161.585713 53.490046 
L 161.839518 54.328833 
L 162.093324 57.258044 
L 162.347129 57.083174 
L 162.600935 55.028067 
L 162.85474 55.149321 
L 163.108546 55.840966 
L 163.362352 59.061008 
L 163.616157 58.801601 
L 163.869963 56.6843 
L 164.123768 56.586696 
L 164.377574 57.065837 
L 164.631379 60.358853 
L 164.885185 60.029746 
L 165.13899 57.955209 
L 165.392796 57.680022 
L 165.646602 57.941423 
L 165.900407 61.162902 
L 166.154213 60.805285 
L 166.408018 58.85722 
L 166.661824 58.463831 
L 166.915629 58.535791 
L 167.169435 61.626843 
L 167.423241 61.287635 
L 167.677046 59.522704 
L 167.930852 59.06008 
L 168.184657 58.97058 
L 168.438463 61.882254 
L 168.692268 61.588793 
L 168.946074 60.04434 
L 169.19988 59.533958 
L 169.453685 59.28249 
L 169.707491 61.950578 
L 169.961296 61.701987 
L 170.215102 60.425011 
L 170.722713 59.441344 
L 170.976519 61.746326 
L 171.230324 61.526762 
L 171.737935 60.034609 
L 171.991741 59.409259 
L 172.245546 61.219558 
L 172.499352 61.015967 
L 173.006963 60.039594 
L 173.260769 59.246608 
L 173.514574 60.477792 
L 173.76838 60.284423 
L 174.022185 60.420002 
L 174.275991 60.033606 
L 174.529796 59.135414 
L 174.783602 59.752164 
L 175.037408 59.562056 
L 175.291213 60.347589 
L 175.545019 60.187399 
L 175.798824 59.271708 
L 176.05263 59.318364 
L 176.306435 59.114894 
L 176.560241 60.501356 
L 176.814047 60.631215 
L 177.067852 59.792905 
L 177.575463 59.160595 
L 177.829269 60.97902 
L 178.083074 61.416002 
L 178.590686 60.111934 
L 178.844491 59.821272 
L 179.098297 61.806487 
L 179.352102 62.522578 
L 180.113519 61.119413 
L 180.367325 62.952695 
L 180.62113 63.875318 
L 180.874936 63.68541 
L 181.382547 62.962748 
L 181.890158 65.357236 
L 182.397769 65.416207 
L 182.651575 65.109233 
L 182.90538 65.761735 
L 183.159186 66.771713 
L 183.412991 67.013485 
L 183.666797 67.469469 
L 184.174408 67.051847 
L 184.428214 67.938779 
L 184.682019 68.286675 
L 184.935825 69.139356 
L 185.18963 69.1046 
L 185.443436 68.000175 
L 185.697241 68.691245 
L 185.951047 69.055239 
L 186.204853 70.172603 
L 186.458658 70.353075 
L 186.712464 68.451901 
L 187.220075 69.203424 
L 187.47388 70.371619 
L 187.727686 70.782681 
L 187.981492 68.2603 
L 188.489103 68.629144 
L 188.996714 70.253293 
L 189.250519 67.320882 
L 189.758131 67.279054 
L 190.265742 68.71341 
L 190.519547 65.59612 
L 191.027158 65.169609 
L 191.280964 65.398069 
L 191.53477 66.266738 
L 191.788575 63.182398 
L 192.549992 62.266637 
L 192.803797 63.165014 
L 193.057603 60.312242 
L 193.565214 59.425718 
L 193.81902 58.908091 
L 194.072825 59.781422 
L 194.326631 57.327422 
L 194.580436 56.989279 
L 195.088047 55.735079 
L 195.341853 56.527308 
L 195.595659 54.580686 
L 195.849464 54.32588 
L 196.357075 53.0856 
L 196.610881 53.740226 
L 196.864686 52.345978 
L 197.118492 52.204836 
L 197.626103 51.176881 
L 197.879909 51.643963 
L 198.133714 50.787482 
L 198.38752 50.768508 
L 198.895131 50.109813 
L 199.148937 50.359698 
L 199.402742 49.984627 
L 199.656548 50.088162 
L 199.910353 49.80387 
L 200.417964 49.949816 
L 200.67177 49.982671 
L 200.925575 50.210111 
L 201.179381 50.050387 
L 201.433187 50.602587 
L 201.686992 50.441408 
L 202.194603 51.158683 
L 202.448409 51.12751 
L 202.702214 52.125073 
L 202.95602 51.804738 
L 203.463631 52.881997 
L 203.717437 52.964454 
L 203.971242 54.362215 
L 204.225048 53.91352 
L 204.732659 55.212897 
L 204.986465 55.377822 
L 205.24027 57.091846 
L 205.494076 56.543164 
L 206.001687 57.886406 
L 206.255492 58.095339 
L 206.509298 60.033593 
L 206.763104 59.423719 
L 207.270715 60.606077 
L 207.52452 60.826979 
L 207.778326 62.922809 
L 208.032131 62.311277 
L 208.285937 62.588734 
L 208.539743 63.135859 
L 208.793548 63.342339 
L 209.047354 65.524742 
L 209.301159 64.984469 
L 209.554965 64.835323 
L 209.80877 65.284107 
L 210.062576 65.440896 
L 210.316381 67.631657 
L 210.570187 67.230118 
L 210.823993 66.588554 
L 211.077798 66.888921 
L 211.331604 66.942635 
L 211.585409 69.019558 
L 211.839215 68.797619 
L 212.09302 67.687299 
L 212.346826 67.798293 
L 212.600632 67.677725 
L 212.854437 69.471129 
L 213.108243 69.438903 
L 213.362048 67.98363 
L 213.615854 67.894207 
L 213.869659 67.539247 
L 214.123465 68.855385 
L 214.377271 68.998927 
L 214.631076 67.407547 
L 214.884882 67.152977 
L 215.138687 66.538484 
L 215.392493 67.203919 
L 215.646298 67.492784 
L 215.900104 66.014346 
L 216.15391 65.671632 
L 216.407715 64.819348 
L 216.661521 64.733116 
L 216.915326 65.124814 
L 217.169132 63.980337 
L 217.422937 63.64985 
L 217.930549 61.8007 
L 218.184354 62.245526 
L 218.43816 61.576948 
L 218.691965 61.3602 
L 219.199576 58.838121 
L 219.453382 59.28728 
L 219.707187 59.134406 
L 219.960993 59.114048 
L 220.214799 58.096864 
L 220.468604 56.280807 
L 220.976215 56.999331 
L 221.230021 57.225412 
L 221.483826 56.382336 
L 221.737632 54.481897 
L 221.991438 54.81157 
L 222.499049 55.93071 
L 222.752854 55.335519 
L 223.00666 53.626044 
L 223.260465 53.841544 
L 223.768077 55.32029 
L 224.021882 54.995174 
L 224.275688 53.691524 
L 224.529493 53.767684 
L 225.037104 55.341901 
L 225.29091 55.269662 
L 225.544716 54.500663 
L 225.798521 54.438477 
L 226.052327 54.986247 
L 226.306132 55.860607 
L 226.559938 56.006113 
L 227.067549 55.662002 
L 227.321354 55.861414 
L 227.57516 56.739371 
L 228.082771 57.477074 
L 228.590382 57.024807 
L 229.351799 59.279294 
L 229.605605 59.101582 
L 229.85941 58.335662 
L 230.367021 59.65483 
L 230.620827 61.036237 
L 230.874632 60.937759 
L 231.128438 59.59395 
L 231.636049 60.792008 
L 231.889855 62.479253 
L 232.14366 62.48546 
L 232.397466 60.533807 
L 232.905077 61.460076 
L 233.158883 63.311041 
L 233.412688 63.427346 
L 233.666494 60.89622 
L 233.920299 61.039485 
L 234.174105 61.419963 
L 234.42791 63.294421 
L 234.681716 63.519794 
L 234.935522 60.523129 
L 235.189327 60.385717 
L 235.443133 60.568857 
L 235.696938 62.339833 
L 235.950744 62.669633 
L 236.204549 59.410358 
L 236.458355 59.018735 
L 236.71216 58.976949 
L 236.965966 60.533109 
L 237.219772 60.952057 
L 237.473577 57.698207 
L 237.727383 57.11802 
L 237.981188 56.851404 
L 238.234994 58.100444 
L 238.488799 58.573882 
L 238.742605 55.609245 
L 239.250216 54.463204 
L 239.504022 55.34991 
L 239.757827 55.823171 
L 240.011633 53.403481 
L 240.519244 52.105032 
L 241.026855 53.031713 
L 241.280661 51.342024 
L 241.788272 50.056681 
L 242.295883 50.549679 
L 242.549689 49.684249 
L 242.803494 49.282309 
L 243.0573 48.574446 
L 243.818716 48.670821 
L 244.072522 48.511386 
L 244.326328 47.880003 
L 244.833939 47.787499 
L 245.087744 48.493444 
L 245.34155 48.611854 
L 245.595355 48.123182 
L 245.849161 48.216511 
L 246.102966 47.971563 
L 246.356772 49.278946 
L 246.610578 49.678837 
L 246.864383 49.373654 
L 247.118189 49.717016 
L 247.371994 49.315327 
L 247.6258 51.027372 
L 247.879605 51.682006 
L 248.133411 51.571691 
L 248.387217 52.226737 
L 248.641022 51.703552 
L 248.894828 53.584759 
L 249.148633 54.437547 
L 249.402439 54.504137 
L 249.656244 55.485776 
L 249.91005 54.888014 
L 250.163856 56.679053 
L 250.417661 57.654447 
L 250.671467 57.864994 
L 250.925272 59.146664 
L 251.179078 58.53552 
L 251.686689 60.983196 
L 251.940495 61.293642 
L 252.1943 62.822865 
L 252.448106 62.271931 
L 253.209522 64.445325 
L 253.463328 66.151423 
L 253.717134 65.73775 
L 253.970939 65.804198 
L 254.224745 66.637141 
L 254.47855 67.011896 
L 254.732356 68.804757 
L 254.986161 68.59166 
L 255.239967 67.771197 
L 255.493772 68.407311 
L 255.747578 68.73547 
L 256.001384 70.502534 
L 256.255189 70.527588 
L 256.508995 68.795338 
L 257.016606 69.401097 
L 257.270411 71.011401 
L 257.524217 71.278012 
L 257.778023 68.697576 
L 258.285634 68.848442 
L 258.539439 70.169006 
L 258.793245 70.649505 
L 259.04705 67.356457 
L 259.554662 66.990324 
L 260.062273 68.563469 
L 260.316078 64.758336 
L 260.823689 63.874183 
L 261.077495 64.352549 
L 261.331301 65.121073 
L 261.585106 61.062295 
L 262.092717 59.733598 
L 262.346523 59.77644 
L 262.600328 60.619467 
L 262.854134 56.611642 
L 263.361745 54.979185 
L 263.615551 54.679091 
L 263.869356 55.54553 
L 264.123162 51.91094 
L 264.630773 50.14928 
L 264.884578 49.622251 
L 265.138384 50.442586 
L 265.39219 47.484049 
L 266.153606 45.146337 
L 266.407412 45.832145 
L 266.661217 43.788066 
L 267.422634 41.706702 
L 267.67644 42.168857 
L 267.930245 41.179566 
L 268.691662 39.675647 
L 269.199273 39.929889 
L 269.453079 39.806403 
L 269.706884 39.343496 
L 269.96069 39.313268 
L 270.214495 39.170889 
L 270.468301 40.203168 
L 270.722107 40.445833 
L 270.975912 40.246675 
L 271.229718 40.750872 
L 271.483523 40.31007 
L 271.737329 42.037701 
L 271.991134 42.629011 
L 272.24494 42.727123 
L 272.498745 43.910131 
L 272.752551 43.22263 
L 273.006357 45.29899 
L 273.260162 46.167003 
L 273.513968 46.547855 
L 273.767773 48.471705 
L 274.021579 47.613961 
L 274.275384 49.66263 
L 274.782996 51.288907 
L 275.036801 53.923131 
L 275.290607 52.986973 
L 275.798218 55.71306 
L 276.052023 56.425137 
L 276.305829 59.622504 
L 276.559635 58.704134 
L 277.321051 61.379472 
L 277.574857 64.879714 
L 277.828662 64.066116 
L 278.082468 64.341419 
L 278.590079 65.595793 
L 278.843885 69.056739 
L 279.351496 67.887756 
L 279.859107 68.61545 
L 280.112913 71.715258 
L 280.366718 71.319388 
L 280.620524 70.034782 
L 281.128135 70.192029 
L 281.38194 72.644002 
L 281.635746 72.526883 
L 281.889551 70.614054 
L 282.143357 70.516404 
L 282.397163 70.263026 
L 282.650968 71.898553 
L 282.904774 72.069588 
L 283.158579 69.664371 
L 283.412385 69.39289 
L 283.66619 68.919616 
L 284.173802 70.124257 
L 284.427607 67.349689 
L 284.681413 66.956878 
L 284.935218 66.323018 
L 285.189024 66.31344 
L 285.442829 66.927042 
L 285.696635 63.892368 
L 285.950441 63.408884 
L 286.458052 62.031493 
L 286.711857 62.745661 
L 286.965663 59.575415 
L 287.473274 58.236472 
L 287.72708 57.184258 
L 287.980885 57.923594 
L 288.234691 54.789872 
L 288.742302 53.437402 
L 288.996107 52.205664 
L 289.249913 52.916439 
L 289.503718 50.042116 
L 290.01133 48.80678 
L 290.265135 47.607039 
L 290.518941 48.246487 
L 290.772746 45.86824 
L 291.280357 44.884183 
L 291.534163 43.898764 
L 291.787969 44.416884 
L 292.041774 42.725772 
L 292.29558 42.502125 
L 292.549385 42.104453 
L 292.803191 41.466042 
L 293.056996 41.802015 
L 293.310802 40.893164 
L 293.564608 40.905589 
L 294.072219 40.535836 
L 294.326024 40.635256 
L 294.57983 40.484175 
L 294.833635 40.757533 
L 295.087441 40.801712 
L 295.341247 41.206016 
L 295.595052 41.044786 
L 296.356469 42.356245 
L 296.610274 43.462439 
L 296.86408 43.060432 
L 297.625497 45.254937 
L 297.879302 47.147021 
L 298.133108 46.559518 
L 298.894524 49.222219 
L 299.14833 51.899393 
L 299.402136 51.200701 
L 299.909747 52.846303 
L 300.163552 53.804181 
L 300.417358 57.151558 
L 300.671163 56.42112 
L 300.924969 56.614433 
L 301.43258 58.412781 
L 301.686386 62.206903 
L 302.193997 60.99384 
L 302.701608 62.436207 
L 302.955414 66.377469 
L 303.209219 65.818847 
L 303.463025 64.483066 
L 303.71683 64.756597 
L 303.970636 65.368051 
L 304.224441 69.127255 
L 304.478247 68.762901 
L 304.732053 66.67464 
L 304.985858 66.602949 
L 305.239664 66.89439 
L 305.493469 70.158112 
L 305.747275 70.038155 
L 306.00108 67.370843 
L 306.254886 66.979084 
L 306.508692 66.91296 
L 306.762497 69.419038 
L 307.016303 69.556658 
L 307.270108 66.566666 
L 307.777719 65.503663 
L 308.031525 67.087443 
L 308.28533 67.451458 
L 308.539136 64.431934 
L 309.046747 62.915593 
L 309.554358 64.038409 
L 309.808164 61.266625 
L 310.315775 59.513758 
L 310.569581 59.202193 
L 310.823386 59.805516 
L 311.077192 57.502132 
L 311.584803 55.7615 
L 311.838608 54.754328 
L 312.092414 55.342348 
L 312.34622 53.635324 
L 312.600025 53.097875 
L 312.853831 52.144954 
L 313.107636 50.750325 
L 313.361442 51.23904 
L 313.615247 50.15144 
L 313.869053 49.875515 
L 314.122859 49.096798 
L 314.376664 47.658028 
L 314.63047 47.987159 
L 314.884275 47.459632 
L 315.138081 47.471589 
L 315.391886 46.959742 
L 315.645692 45.826248 
L 315.899498 45.970681 
L 316.153303 45.900475 
L 316.407109 46.198702 
L 316.660914 46.006993 
L 316.91472 45.452504 
L 317.168525 45.424187 
L 317.422331 45.700244 
L 317.676136 46.262935 
L 318.183748 46.594019 
L 318.437553 46.426224 
L 318.691359 46.939282 
L 319.452775 49.106476 
L 319.706581 48.833824 
L 319.960387 49.46444 
L 320.721803 52.649378 
L 320.975609 52.300464 
L 321.229414 52.911037 
L 321.737026 54.65004 
L 321.990831 56.758906 
L 322.244637 56.369791 
L 322.498442 56.806296 
L 323.006053 58.568424 
L 323.259859 60.980873 
L 323.513665 60.609744 
L 323.76747 60.70931 
L 324.275081 62.393701 
L 324.528887 64.956516 
L 325.036498 64.274889 
L 325.544109 65.803475 
L 325.797915 68.392153 
L 326.05172 68.271877 
L 326.305526 67.202248 
L 326.813137 68.467511 
L 327.066942 70.960142 
L 327.320748 71.026178 
L 327.574554 69.153992 
L 328.082165 69.994394 
L 328.33597 72.25267 
L 328.589776 72.493364 
L 328.843581 69.75644 
L 329.097387 69.79812 
L 329.351193 70.001111 
L 329.604998 71.874634 
L 329.858804 72.258627 
L 330.112609 68.724276 
L 330.366415 68.374628 
L 330.62022 68.264721 
L 330.874026 69.608863 
L 331.127832 70.10933 
L 331.381637 65.997736 
L 331.889248 64.85218 
L 332.396859 66.181808 
L 332.650665 61.836482 
L 333.158276 60.160532 
L 333.412082 60.239224 
L 333.665887 60.926466 
L 333.919693 56.742063 
L 334.427304 54.789475 
L 334.681109 54.270264 
L 334.934915 55.010877 
L 335.188721 51.348124 
L 335.950137 48.456329 
L 336.203943 49.194826 
L 336.457748 46.318382 
L 336.96536 44.70826 
L 337.219165 43.554425 
L 337.472971 44.218068 
L 337.726776 42.250668 
L 338.234387 41.190548 
L 338.488193 40.172275 
L 338.741999 40.681226 
L 338.995804 39.603955 
L 339.24961 39.504495 
L 339.503415 39.223458 
L 339.757221 38.675205 
L 340.011026 38.958342 
L 340.264832 38.634066 
L 340.518638 38.871292 
L 340.772443 38.941777 
L 341.026249 39.138108 
L 341.280054 39.146415 
L 341.53386 39.36655 
L 342.041471 40.273477 
L 342.295277 41.381524 
L 342.549082 41.10629 
L 343.056693 42.329748 
L 343.310499 43.004021 
L 343.564304 45.060864 
L 343.81811 44.538119 
L 344.325721 45.964462 
L 344.579527 46.835218 
L 344.833332 49.756827 
L 345.087138 49.06131 
L 345.594749 50.432594 
L 345.848554 51.414594 
L 346.10236 55.022753 
L 346.356166 54.247544 
L 346.609971 54.545272 
L 347.117582 56.331304 
L 347.371388 60.362411 
L 347.625193 59.601352 
L 347.878999 59.497762 
L 348.38661 61.110584 
L 348.640416 65.262719 
L 349.148027 63.978846 
L 349.655638 65.266258 
L 349.909444 69.248051 
L 350.163249 68.753068 
L 350.417055 67.552363 
L 350.67086 67.866489 
L 350.924666 68.385633 
L 351.178471 71.919992 
L 351.432277 71.641808 
L 351.686082 69.865547 
L 351.939888 69.937089 
L 352.193694 70.158155 
L 352.447499 73.012707 
L 352.701305 72.974074 
L 352.95511 70.6926 
L 353.462721 70.406879 
L 353.716527 72.425478 
L 353.970333 72.615622 
L 354.224138 69.951465 
L 354.731749 69.104068 
L 354.985555 70.198689 
L 355.23936 70.57466 
L 355.493166 67.683105 
L 356.000777 66.351281 
L 356.254583 66.543895 
L 356.508388 67.042511 
L 356.762194 64.098438 
L 357.523611 61.848041 
L 357.777416 62.405047 
L 358.031222 59.592252 
L 358.538833 57.793411 
L 358.792638 56.669263 
L 359.046444 57.233177 
L 359.30025 54.736204 
L 359.554055 54.06305 
L 360.061666 51.676083 
L 360.315472 52.20735 
L 360.569277 50.181032 
L 360.823083 49.698364 
L 361.076888 48.871883 
L 361.330694 47.514159 
L 361.5845 47.973203 
L 361.838305 46.51589 
L 362.092111 46.299262 
L 362.345916 45.746294 
L 362.599722 44.680254 
L 362.853527 45.019922 
L 363.107333 44.154106 
L 363.361139 44.232886 
L 363.614944 44.006294 
L 363.86875 43.465459 
L 364.122555 43.638915 
L 364.376361 43.308805 
L 364.630166 43.672119 
L 365.645389 44.029351 
L 366.406805 46.112114 
L 366.660611 45.899876 
L 366.914417 46.254959 
L 367.422028 47.793388 
L 367.675833 49.727251 
L 367.929639 49.354419 
L 368.183444 49.790628 
L 368.691056 51.649521 
L 368.944861 54.455655 
L 369.198667 53.965742 
L 369.452472 54.295295 
L 369.960083 56.262789 
L 370.213889 59.786379 
L 370.467694 59.224889 
L 370.7215 59.284398 
L 371.229111 61.127968 
L 371.482917 65.113027 
L 371.990528 64.200561 
L 372.244333 64.787468 
L 372.498139 65.706742 
L 372.751945 69.834055 
L 373.259556 68.50549 
L 373.513361 68.853807 
L 373.767167 69.520785 
L 374.020972 73.450416 
L 374.274778 72.938267 
L 374.528584 71.761145 
L 374.782389 71.861483 
L 375.036195 72.211808 
L 375.29 75.635029 
L 375.543806 75.230156 
L 375.797611 73.685911 
L 376.051417 73.566124 
L 376.305223 73.581075 
L 376.559028 76.260032 
L 376.812834 76.009506 
L 377.066639 74.180938 
L 377.57425 73.601229 
L 377.828056 75.3965 
L 378.081862 75.340411 
L 378.335667 73.324986 
L 378.843278 72.395132 
L 379.097084 73.271769 
L 379.350889 73.429423 
L 379.604695 71.32859 
L 379.8585 70.902781 
L 380.112306 70.177264 
L 380.366112 70.190739 
L 380.619917 70.546129 
L 380.873723 68.45735 
L 381.127528 68.035619 
L 381.635139 66.465955 
L 381.888945 66.964614 
L 382.142751 64.98726 
L 382.396556 64.59972 
L 382.904167 62.401637 
L 383.157973 62.96503 
L 383.411778 61.208964 
L 383.665584 60.89186 
L 383.91939 59.999759 
L 384.173195 58.339726 
L 384.427001 58.889264 
L 384.680806 57.472581 
L 384.934612 57.283146 
L 385.188417 56.486632 
L 385.442223 54.700996 
L 385.696029 55.175711 
L 385.949834 54.197296 
L 386.20364 54.207478 
L 386.457445 53.610222 
L 386.711251 51.946223 
L 386.965056 52.305334 
L 387.218862 51.796812 
L 387.472667 52.070261 
L 387.726473 51.767843 
L 387.980279 50.488134 
L 388.234084 50.701534 
L 388.48789 50.591855 
L 388.741695 51.147594 
L 388.995501 51.200638 
L 389.249306 50.533967 
L 389.756918 50.692924 
L 390.010723 51.491517 
L 390.264529 51.908642 
L 390.518334 52.040765 
L 390.77214 51.921982 
L 391.025945 52.012679 
L 391.787362 54.746662 
L 392.294973 54.321514 
L 392.802584 56.24169 
L 393.05639 58.208176 
L 393.310196 57.843787 
L 393.564001 57.264743 
L 394.071612 59.142109 
L 394.325418 61.892928 
L 394.579223 61.482824 
L 394.833029 60.419361 
L 395.086835 61.025403 
L 395.34064 61.969829 
L 395.594446 65.247412 
L 395.848251 64.843663 
L 396.102057 63.340267 
L 396.355862 63.626949 
L 396.609668 64.334219 
L 396.863473 67.799548 
L 397.117279 67.44246 
L 397.371085 65.630977 
L 397.62489 65.580145 
L 397.878696 65.945411 
L 398.132501 69.248205 
L 398.386307 68.962015 
L 398.640112 67.024455 
L 398.893918 66.677496 
L 399.147724 66.657536 
L 399.401529 69.504044 
L 399.655335 69.292935 
L 399.90914 67.412363 
L 400.416751 66.467506 
L 400.670557 68.666603 
L 400.924363 68.520988 
L 401.178168 66.851495 
L 401.685779 65.50545 
L 401.939585 66.98692 
L 402.19339 66.893625 
L 402.447196 65.546002 
L 402.954807 64.013045 
L 403.208613 64.81857 
L 403.462418 64.772127 
L 404.223835 62.317445 
L 404.477641 62.568799 
L 404.731446 62.5737 
L 405.746668 60.618912 
L 406.000474 60.679798 
L 406.508085 60.427648 
L 406.761891 59.632316 
L 407.015696 59.245756 
L 407.269502 59.357535 
L 407.777113 59.713033 
L 408.284724 58.571439 
L 408.53853 58.713295 
L 409.046141 59.568365 
L 409.553752 58.57567 
L 409.807557 58.720422 
L 410.315169 59.931413 
L 410.82278 59.164252 
L 411.076585 59.293693 
L 411.584196 60.717249 
L 411.838002 60.559297 
L 412.091808 60.243682 
L 412.345613 60.35872 
L 412.853224 61.861977 
L 413.10703 61.866145 
L 413.360835 61.745567 
L 413.614641 61.860746 
L 413.868446 62.429538 
L 414.122252 63.312326 
L 415.137474 64.020428 
L 415.39128 64.947903 
L 416.152697 65.764754 
L 416.406502 65.651845 
L 416.660308 66.556636 
L 416.914113 66.943286 
L 417.167919 67.551718 
L 417.421724 67.729304 
L 417.67553 67.059106 
L 417.929336 67.861942 
L 418.183141 68.276526 
L 418.436947 69.099711 
L 418.690752 69.316259 
L 418.944558 67.986308 
L 419.95978 70.284175 
L 420.213586 68.269743 
L 420.721197 68.974651 
L 420.975002 70.069328 
L 421.228808 70.47147 
L 421.482614 67.839464 
L 421.990225 68.142769 
L 422.24403 69.217298 
L 422.497836 69.750739 
L 422.751641 66.657441 
L 423.259252 66.476478 
L 423.766864 68.019067 
L 424.020669 64.697757 
L 424.52828 63.986256 
L 425.035891 65.24966 
L 425.289697 61.995193 
L 425.797308 60.793775 
L 426.051114 60.893632 
L 426.304919 61.605012 
L 426.558725 58.740956 
L 427.320142 56.835142 
L 427.573947 57.486218 
L 427.827753 55.305036 
L 428.335364 53.684372 
L 428.589169 52.935694 
L 428.842975 53.467997 
L 429.096781 52.157749 
L 429.350586 51.654087 
L 429.858197 49.784334 
L 430.112003 50.141594 
L 430.619614 49.493367 
L 431.127225 47.836098 
L 431.381031 47.970133 
L 431.634836 48.341313 
L 431.888642 48.400221 
L 432.396253 47.342942 
L 432.650058 47.230085 
L 432.903864 48.145184 
L 433.15767 48.488489 
L 433.411475 48.271914 
L 433.665281 48.367039 
L 433.919086 48.01485 
L 434.172892 49.203354 
L 434.426697 49.770632 
L 434.680503 49.873767 
L 434.934309 50.781013 
L 435.188114 50.223118 
L 435.695725 52.125902 
L 435.949531 52.48724 
L 436.203336 54.234903 
L 436.457142 53.515849 
L 436.964753 55.262869 
L 437.218559 55.767332 
L 437.472364 58.229377 
L 437.72617 57.400187 
L 438.233781 58.780884 
L 438.487587 59.295975 
L 438.741392 62.248612 
L 438.995198 61.371558 
L 439.756614 62.713656 
L 440.01042 65.88357 
L 440.264226 65.032439 
L 440.518031 65.193043 
L 441.025642 65.765217 
L 441.279448 68.912523 
L 441.533253 68.157404 
L 441.787059 68.047387 
L 441.787059 68.047387 
" clip-path="url(#p103658c9a0)" style="fill: none; stroke: #1f77b4; stroke-width: 1.5; stroke-linecap: square"/>
   </g>
   <g id="patch_3">
    <path d="M 42.309786 138.8342 
L 42.309786 15.937648 
" style="fill: none; stroke: #000000; stroke-width: 0.8; stroke-linejoin: miter; stroke-linecap: square"/>
   </g>
   <g id="patch_4">
    <path d="M 460.809786 138.8342 
L 460.809786 15.937648 
" style="fill: none; stroke: #000000; stroke-width: 0.8; stroke-linejoin: miter; stroke-linecap: square"/>
   </g>
   <g id="patch_5">
    <path d="M 42.309786 138.8342 
L 460.809786 138.8342 
" style="fill: none; stroke: #000000; stroke-width: 0.8; stroke-linejoin: miter; stroke-linecap: square"/>
   </g>
   <g id="patch_6">
    <path d="M 42.309786 15.937648 
L 460.809786 15.937648 
" style="fill: none; stroke: #000000; stroke-width: 0.8; stroke-linejoin: miter; stroke-linecap: square"/>
   </g>
   <g id="text_6">
    <!-- $N=8, i=0, j=3, \omega=20.0$ -->
    <g transform="translate(167.013052 9.937648) scale(0.14 -0.14)">
     <defs>
      <path id="CMMI12-4e" d="M 4736 3682 
C 4806 3956 4909 4147 5395 4166 
C 5414 4166 5491 4172 5491 4281 
C 5491 4352 5434 4352 5408 4352 
C 5280 4352 4954 4339 4826 4339 
L 4518 4339 
C 4429 4339 4314 4352 4224 4352 
C 4186 4352 4109 4352 4109 4230 
C 4109 4166 4160 4166 4205 4166 
C 4589 4153 4614 4007 4614 3892 
C 4614 3835 4608 3816 4589 3726 
L 3866 854 
L 2496 4243 
C 2451 4345 2445 4352 2304 4352 
L 1523 4352 
C 1395 4352 1338 4352 1338 4230 
C 1338 4166 1382 4166 1504 4166 
C 1536 4166 1914 4166 1914 4109 
C 1914 4096 1901 4045 1894 4026 
L 1043 650 
C 966 338 813 204 390 185 
C 358 185 294 179 294 64 
C 294 0 358 0 378 0 
C 506 0 832 12 960 12 
L 1267 12 
C 1357 12 1466 0 1555 0 
C 1600 0 1670 0 1670 121 
C 1670 179 1606 185 1581 185 
C 1370 191 1165 230 1165 459 
C 1165 510 1178 567 1190 618 
L 2054 4026 
C 2093 3962 2093 3949 2118 3892 
L 3642 115 
C 3674 38 3686 0 3744 0 
C 3808 0 3814 19 3840 128 
L 4736 3682 
z
" transform="scale(0.015625)"/>
      <path id="CMR17-3d" d="M 4115 2048 
C 4211 2048 4307 2048 4307 2156 
C 4307 2272 4198 2272 4090 2272 
L 512 2272 
C 403 2272 294 2272 294 2156 
C 294 2048 390 2048 486 2048 
L 4115 2048 
z
M 4090 927 
C 4198 927 4307 927 4307 1043 
C 4307 1152 4211 1152 4115 1152 
L 486 1152 
C 390 1152 294 1152 294 1043 
C 294 927 403 927 512 927 
L 4090 927 
z
" transform="scale(0.015625)"/>
      <path id="CMMI12-3b" d="M 1248 -26 
C 1248 345 1126 620 864 620 
C 659 620 557 454 557 313 
C 557 172 653 0 870 0 
C 954 0 1024 25 1082 83 
C 1094 96 1101 96 1107 96 
C 1120 96 1120 6 1120 -26 
C 1120 -233 1082 -642 710 -1051 
C 640 -1127 640 -1140 640 -1152 
C 640 -1184 672 -1216 704 -1216 
C 755 -1216 1248 -749 1248 -26 
z
" transform="scale(0.015625)"/>
      <path id="CMR17-33" d="M 1414 2176 
C 1984 2176 2234 1673 2234 1094 
C 2234 322 1824 25 1453 25 
C 1114 25 563 193 390 691 
C 422 678 454 678 486 678 
C 640 678 755 780 755 947 
C 755 1132 614 1216 486 1216 
C 378 1216 211 1164 211 927 
C 211 335 787 -128 1466 -128 
C 2176 -128 2720 432 2720 1087 
C 2720 1718 2208 2176 1600 2246 
C 2086 2347 2554 2776 2554 3353 
C 2554 3856 2048 4224 1472 4224 
C 890 4224 378 3862 378 3347 
C 378 3123 544 3084 627 3084 
C 762 3084 877 3167 877 3334 
C 877 3500 762 3584 627 3584 
C 602 3584 570 3584 544 3571 
C 730 3999 1235 4076 1459 4076 
C 1683 4076 2106 3966 2106 3347 
C 2106 3167 2080 2851 1862 2574 
C 1670 2329 1453 2316 1242 2297 
C 1210 2297 1062 2284 1037 2284 
C 992 2278 966 2272 966 2227 
C 966 2182 973 2176 1101 2176 
L 1414 2176 
z
" transform="scale(0.015625)"/>
      <path id="CMMI12-21" d="M 3802 2406 
C 3802 2592 3750 2828 3526 2828 
C 3398 2828 3251 2668 3251 2540 
C 3251 2483 3277 2444 3328 2387 
C 3424 2278 3546 2105 3546 1804 
C 3546 1574 3405 1209 3302 1011 
C 3123 659 2829 358 2496 358 
C 2093 358 1939 614 1869 972 
C 1939 1139 2086 1555 2086 1721 
C 2086 1792 2061 1849 1978 1849 
C 1933 1849 1882 1824 1850 1772 
C 1760 1632 1677 1126 1683 992 
C 1562 755 1216 358 806 358 
C 378 358 262 736 262 1100 
C 262 1766 678 2348 794 2508 
C 858 2604 902 2668 902 2681 
C 902 2726 877 2796 819 2796 
C 717 2796 685 2713 634 2636 
C 307 2131 77 1420 77 806 
C 77 409 224 -64 704 -64 
C 1235 -64 1568 390 1702 633 
C 1754 275 1946 -64 2413 -64 
C 2899 -64 3206 364 3437 883 
C 3603 1254 3802 2054 3802 2406 
z
" transform="scale(0.015625)"/>
      <path id="CMR17-32" d="M 2669 990 
L 2554 990 
C 2490 537 2438 460 2413 422 
C 2381 371 1920 371 1830 371 
L 602 371 
C 832 620 1280 1073 1824 1596 
C 2214 1966 2669 2400 2669 3033 
C 2669 3788 2067 4224 1395 4224 
C 691 4224 262 3603 262 3027 
C 262 2777 448 2745 525 2745 
C 589 2745 781 2783 781 3007 
C 781 3206 614 3264 525 3264 
C 486 3264 448 3257 422 3244 
C 544 3788 915 4057 1306 4057 
C 1862 4057 2227 3616 2227 3033 
C 2227 2477 1901 1998 1536 1583 
L 262 147 
L 262 0 
L 2515 0 
L 2669 990 
z
" transform="scale(0.015625)"/>
     </defs>
     <use xlink:href="#CMMI12-4e" transform="scale(0.996264)"/>
     <use xlink:href="#CMR17-3d" transform="translate(116.195781 0) scale(0.996264)"/>
     <use xlink:href="#CMR17-38" transform="translate(215.584578 0) scale(0.996264)"/>
     <use xlink:href="#CMMI12-3b" transform="translate(261.275056 0) scale(0.996264)"/>
     <use xlink:href="#CMMI12-69" transform="translate(304.976638 0) scale(0.996264)"/>
     <use xlink:href="#CMR17-3d" transform="translate(365.929248 0) scale(0.996264)"/>
     <use xlink:href="#CMR17-30" transform="translate(465.318046 0) scale(0.996264)"/>
     <use xlink:href="#CMMI12-3b" transform="translate(511.008523 0) scale(0.996264)"/>
     <use xlink:href="#CMMI12-6a" transform="translate(554.710105 0) scale(0.996264)"/>
     <use xlink:href="#CMR17-3d" transform="translate(628.346596 0) scale(0.996264)"/>
     <use xlink:href="#CMR17-33" transform="translate(727.735394 0) scale(0.996264)"/>
     <use xlink:href="#CMMI12-3b" transform="translate(773.425871 0) scale(0.996264)"/>
     <use xlink:href="#CMMI12-21" transform="translate(817.127453 0) scale(0.996264)"/>
     <use xlink:href="#CMR17-3d" transform="translate(909.119808 0) scale(0.996264)"/>
     <use xlink:href="#CMR17-32" transform="translate(1008.508605 0) scale(0.996264)"/>
     <use xlink:href="#CMR17-30" transform="translate(1054.199082 0) scale(0.996264)"/>
     <use xlink:href="#CMMI12-3a" transform="translate(1099.889559 0) scale(0.996264)"/>
     <use xlink:href="#CMR17-30" transform="translate(1126.986736 0) scale(0.996264)"/>
    </g>
   </g>
   <g id="legend_1">
    <g id="line2d_11">
     <path d="M 376.641179 121.287826 
L 388.641179 121.287826 
L 400.641179 121.287826 
" style="fill: none; stroke: #1f77b4; stroke-width: 1.5; stroke-linecap: square"/>
    </g>
    <g id="text_7">
     <!-- $\beta=inf$ -->
     <g transform="translate(410.241179 125.487826) scale(0.12 -0.12)">
      <defs>
       <path id="CMMI12-c" d="M 3622 3739 
C 3622 4131 3296 4544 2714 4544 
C 1888 4544 1363 3510 1197 2830 
L 186 -1152 
C 173 -1204 211 -1216 243 -1216 
C 288 -1216 320 -1210 326 -1178 
L 774 592 
C 838 231 1190 -64 1568 -64 
C 2483 -64 3347 657 3347 1618 
C 3347 1863 3290 2108 3155 2314 
C 3078 2437 2982 2527 2880 2599 
C 3341 2823 3622 3222 3622 3739 
z
M 2509 2605 
C 2406 2571 2304 2560 2182 2560 
C 2093 2560 2010 2553 1894 2588 
C 1958 2627 2054 2639 2189 2639 
C 2304 2639 2419 2627 2509 2605 
z
M 3290 3798 
C 3290 3438 3117 2915 2701 2684 
C 2579 2723 2413 2752 2272 2752 
C 2138 2752 1754 2765 1754 2582 
C 1754 2411 2106 2430 2214 2430 
C 2381 2430 2528 2469 2682 2514 
C 2886 2347 2976 2127 2976 1805 
C 2976 1431 2874 1128 2752 850 
C 2541 373 2042 64 1600 64 
C 1133 64 890 438 890 876 
C 890 934 890 1018 915 1115 
L 1331 2784 
C 1542 3641 2080 4413 2701 4413 
C 3162 4413 3290 4086 3290 3798 
z
" transform="scale(0.015625)"/>
       <path id="CMMI12-6e" d="M 1318 1870 
C 1331 1909 1491 2228 1728 2432 
C 1894 2585 2112 2687 2362 2687 
C 2618 2687 2707 2496 2707 2241 
C 2707 1877 2445 1149 2317 804 
C 2259 651 2227 568 2227 453 
C 2227 166 2426 -64 2733 -64 
C 3328 -64 3552 874 3552 913 
C 3552 945 3526 970 3488 970 
C 3430 970 3424 951 3392 842 
C 3245 319 3002 64 2752 64 
C 2688 64 2586 70 2586 274 
C 2586 434 2656 625 2694 715 
C 2822 1066 3091 1781 3091 2145 
C 3091 2528 2867 2816 2381 2816 
C 1811 2816 1510 2413 1395 2253 
C 1376 2617 1114 2816 832 2816 
C 627 2816 486 2694 378 2477 
C 262 2247 173 1864 173 1838 
C 173 1813 198 1781 243 1781 
C 294 1781 301 1787 339 1934 
C 442 2324 557 2687 813 2687 
C 960 2687 1011 2585 1011 2394 
C 1011 2253 947 2004 902 1807 
L 723 1117 
C 698 996 627 708 595 593 
C 550 427 480 127 480 95 
C 480 6 550 -64 646 -64 
C 723 -64 813 -26 864 70 
C 877 102 934 325 966 453 
L 1107 1028 
L 1318 1870 
z
" transform="scale(0.015625)"/>
       <path id="CMMI12-66" d="M 2854 2566 
C 2982 2566 3034 2566 3034 2687 
C 3034 2752 2982 2752 2867 2752 
L 2349 2752 
C 2470 3398 2560 3846 2611 4051 
C 2650 4204 2784 4351 2950 4351 
C 3085 4351 3219 4294 3283 4236 
C 3034 4211 2957 4025 2957 3916 
C 2957 3788 3053 3712 3174 3712 
C 3302 3712 3494 3820 3494 4064 
C 3494 4332 3226 4480 2944 4480 
C 2669 4480 2400 4275 2272 4025 
C 2157 3801 2093 3573 1946 2752 
L 1517 2752 
C 1395 2752 1331 2752 1331 2636 
C 1331 2566 1370 2566 1498 2566 
L 1907 2566 
C 1792 1977 1530 545 1382 -132 
C 1274 -685 1178 -1152 858 -1152 
C 838 -1152 653 -1152 538 -1031 
C 864 -1005 864 -724 864 -717 
C 864 -589 768 -512 646 -512 
C 518 -512 326 -621 326 -865 
C 326 -1140 608 -1280 858 -1280 
C 1510 -1280 1779 -113 1850 203 
C 1965 691 2278 2376 2310 2566 
L 2854 2566 
z
" transform="scale(0.015625)"/>
      </defs>
      <use xlink:href="#CMMI12-c" transform="scale(0.996264)"/>
      <use xlink:href="#CMR17-3d" transform="translate(88.268024 0) scale(0.996264)"/>
      <use xlink:href="#CMMI12-69" transform="translate(187.656822 0) scale(0.996264)"/>
      <use xlink:href="#CMMI12-6e" transform="translate(220.935423 0) scale(0.996264)"/>
      <use xlink:href="#CMMI12-66" transform="translate(279.165471 0) scale(0.996264)"/>
     </g>
    </g>
   </g>
  </g>
  <g id="axes_2">
   <g id="patch_7">
    <path d="M 42.309786 265.417648 
L 460.809786 265.417648 
L 460.809786 142.521097 
L 42.309786 142.521097 
z
" style="fill: #ffffff"/>
   </g>
   <g id="matplotlib.axis_3">
    <g id="xtick_6">
     <g id="line2d_12">
      <g>
       <use xlink:href="#mc0d07f09c4" x="61.332513" y="265.417648" style="stroke: #000000; stroke-width: 0.8"/>
      </g>
     </g>
     <g id="text_8">
      <!-- $\mathdefault{0}$ -->
      <g transform="translate(57.674395 279.565129) scale(0.15 -0.15)">
       <use xlink:href="#CMR17-30" transform="scale(0.996264)"/>
      </g>
     </g>
    </g>
    <g id="xtick_7">
     <g id="line2d_13">
      <g>
       <use xlink:href="#mc0d07f09c4" x="142.121335" y="265.417648" style="stroke: #000000; stroke-width: 0.8"/>
      </g>
     </g>
     <g id="text_9">
      <!-- $\mathdefault{20}$ -->
      <g transform="translate(134.805097 279.565129) scale(0.15 -0.15)">
       <use xlink:href="#CMR17-32" transform="scale(0.996264)"/>
       <use xlink:href="#CMR17-30" transform="translate(45.690477 0) scale(0.996264)"/>
      </g>
     </g>
    </g>
    <g id="xtick_8">
     <g id="line2d_14">
      <g>
       <use xlink:href="#mc0d07f09c4" x="222.910156" y="265.417648" style="stroke: #000000; stroke-width: 0.8"/>
      </g>
     </g>
     <g id="text_10">
      <!-- $\mathdefault{40}$ -->
      <g transform="translate(215.593918 279.565129) scale(0.15 -0.15)">
       <use xlink:href="#CMR17-34" transform="scale(0.996264)"/>
       <use xlink:href="#CMR17-30" transform="translate(45.690477 0) scale(0.996264)"/>
      </g>
     </g>
    </g>
    <g id="xtick_9">
     <g id="line2d_15">
      <g>
       <use xlink:href="#mc0d07f09c4" x="303.698977" y="265.417648" style="stroke: #000000; stroke-width: 0.8"/>
      </g>
     </g>
     <g id="text_11">
      <!-- $\mathdefault{60}$ -->
      <g transform="translate(296.382739 279.565129) scale(0.15 -0.15)">
       <use xlink:href="#CMR17-36" transform="scale(0.996264)"/>
       <use xlink:href="#CMR17-30" transform="translate(45.690477 0) scale(0.996264)"/>
      </g>
     </g>
    </g>
    <g id="xtick_10">
     <g id="line2d_16">
      <g>
       <use xlink:href="#mc0d07f09c4" x="384.487798" y="265.417648" style="stroke: #000000; stroke-width: 0.8"/>
      </g>
     </g>
     <g id="text_12">
      <!-- $\mathdefault{80}$ -->
      <g transform="translate(377.171561 279.565129) scale(0.15 -0.15)">
       <use xlink:href="#CMR17-38" transform="scale(0.996264)"/>
       <use xlink:href="#CMR17-30" transform="translate(45.690477 0) scale(0.996264)"/>
      </g>
     </g>
    </g>
    <g id="text_13">
     <!-- $t$ -->
     <g transform="translate(248.917815 297.395589) scale(0.15 -0.15)">
      <defs>
       <path id="CMMI12-74" d="M 1286 2566 
L 1875 2566 
C 1997 2566 2061 2566 2061 2681 
C 2061 2752 2022 2752 1894 2752 
L 1331 2752 
L 1568 3664 
C 1594 3752 1594 3764 1594 3808 
C 1594 3910 1510 3968 1427 3968 
C 1376 3968 1229 3948 1178 3746 
L 928 2752 
L 326 2752 
C 198 2752 141 2752 141 2630 
C 141 2566 186 2566 307 2566 
L 877 2566 
L 454 881 
C 403 657 384 593 384 510 
C 384 210 595 -64 954 -64 
C 1600 -64 1946 868 1946 913 
C 1946 951 1920 970 1882 970 
C 1869 970 1843 970 1830 944 
C 1824 938 1818 932 1773 830 
C 1638 510 1344 64 973 64 
C 781 64 768 223 768 364 
C 768 370 768 491 787 568 
L 1286 2566 
z
" transform="scale(0.015625)"/>
      </defs>
      <use xlink:href="#CMMI12-74" transform="scale(0.996264)"/>
     </g>
    </g>
   </g>
   <g id="matplotlib.axis_4">
    <g id="ytick_5">
     <g id="line2d_17">
      <g>
       <use xlink:href="#mbd7fcead8d" x="42.309786" y="255.140942" style="stroke: #000000; stroke-width: 0.8"/>
      </g>
     </g>
     <g id="text_14">
      <!-- $\mathdefault{0.4}$ -->
      <g transform="translate(20.112734 260.464683) scale(0.15 -0.15)">
       <use xlink:href="#CMR17-30" transform="scale(0.996264)"/>
       <use xlink:href="#CMMI12-3a" transform="translate(45.690477 0) scale(0.996264)"/>
       <use xlink:href="#CMR17-34" transform="translate(72.787654 0) scale(0.996264)"/>
      </g>
     </g>
    </g>
    <g id="ytick_6">
     <g id="line2d_18">
      <g>
       <use xlink:href="#mbd7fcead8d" x="42.309786" y="219.463063" style="stroke: #000000; stroke-width: 0.8"/>
      </g>
     </g>
     <g id="text_15">
      <!-- $\mathdefault{0.6}$ -->
      <g transform="translate(20.112734 224.786803) scale(0.15 -0.15)">
       <use xlink:href="#CMR17-30" transform="scale(0.996264)"/>
       <use xlink:href="#CMMI12-3a" transform="translate(45.690477 0) scale(0.996264)"/>
       <use xlink:href="#CMR17-36" transform="translate(72.787654 0) scale(0.996264)"/>
      </g>
     </g>
    </g>
    <g id="ytick_7">
     <g id="line2d_19">
      <g>
       <use xlink:href="#mbd7fcead8d" x="42.309786" y="183.785183" style="stroke: #000000; stroke-width: 0.8"/>
      </g>
     </g>
     <g id="text_16">
      <!-- $\mathdefault{0.8}$ -->
      <g transform="translate(20.112734 189.108923) scale(0.15 -0.15)">
       <use xlink:href="#CMR17-30" transform="scale(0.996264)"/>
       <use xlink:href="#CMMI12-3a" transform="translate(45.690477 0) scale(0.996264)"/>
       <use xlink:href="#CMR17-38" transform="translate(72.787654 0) scale(0.996264)"/>
      </g>
     </g>
    </g>
    <g id="ytick_8">
     <g id="line2d_20">
      <g>
       <use xlink:href="#mbd7fcead8d" x="42.309786" y="148.107304" style="stroke: #000000; stroke-width: 0.8"/>
      </g>
     </g>
     <g id="text_17">
      <!-- $\mathdefault{1.0}$ -->
      <g transform="translate(20.112734 153.431044) scale(0.15 -0.15)">
       <use xlink:href="#CMR17-31" transform="scale(0.996264)"/>
       <use xlink:href="#CMMI12-3a" transform="translate(45.690477 0) scale(0.996264)"/>
       <use xlink:href="#CMR17-30" transform="translate(72.787654 0) scale(0.996264)"/>
      </g>
     </g>
    </g>
    <g id="text_18">
     <!-- $ S^z_i S^z_j$ -->
     <g transform="translate(10.211706 219.182374) rotate(-90) scale(0.15 -0.15)">
      <use xlink:href="#CMMI12-53" transform="scale(0.996264)"/>
      <use xlink:href="#CMMI12-7a" transform="translate(65.794439 36.153639) scale(0.697382)"/>
      <use xlink:href="#CMMI12-69" transform="translate(59.994488 -25.505809) scale(0.697382)"/>
      <use xlink:href="#CMMI12-53" transform="translate(101.120995 0) scale(0.996264)"/>
      <use xlink:href="#CMMI12-7a" transform="translate(166.915434 36.153639) scale(0.697382)"/>
      <use xlink:href="#CMMI12-6a" transform="translate(161.115482 -25.505809) scale(0.697382)"/>
     </g>
    </g>
   </g>
   <g id="line2d_21">
    <path d="M 61.332513 148.107304 
L 61.586319 148.485691 
L 61.840125 150.691717 
L 62.09393 149.974205 
L 62.347736 150.757653 
L 62.601541 150.636828 
L 62.855347 150.819296 
L 63.109152 155.31704 
L 63.362958 153.299517 
L 63.616764 157.143125 
L 63.870569 157.663247 
L 64.124375 157.255195 
L 64.37818 162.961615 
L 64.631986 159.989922 
L 64.885791 166.284864 
L 65.139597 167.63641 
L 65.393403 166.375372 
L 65.647208 172.14609 
L 65.901014 168.662616 
L 66.154819 176.327957 
L 66.408625 178.501745 
L 66.66243 176.297668 
L 66.916236 181.246977 
L 67.170041 177.713096 
L 67.423847 185.598926 
L 67.677653 188.506718 
L 67.931458 185.456561 
L 68.185264 189.150859 
L 68.439069 186.005818 
L 68.692875 193.253601 
L 68.94668 196.837862 
L 69.200486 193.167944 
L 69.454292 195.592597 
L 69.708097 193.182062 
L 70.215708 203.537703 
L 70.469514 199.472218 
L 70.723319 200.817801 
L 70.977125 199.289041 
L 71.484736 208.813964 
L 71.738542 204.4622 
L 71.992347 204.91268 
L 72.246153 204.175223 
L 72.753764 212.481685 
L 73.00757 207.854108 
L 73.515181 207.353066 
L 73.768986 209.390462 
L 74.022792 214.090292 
L 74.276597 209.225509 
L 74.530403 208.239336 
L 74.784209 208.448287 
L 75.038014 209.163646 
L 75.29182 213.494482 
L 75.545625 208.574251 
L 75.799431 207.126277 
L 76.053236 207.687964 
L 76.307042 207.289423 
L 76.560847 211.188293 
L 76.814653 206.522381 
L 77.068459 204.86187 
L 77.322264 205.848357 
L 77.57607 204.568316 
L 77.829875 208.039539 
L 78.083681 203.929551 
L 78.337486 202.267455 
L 78.591292 203.700715 
L 78.845098 201.704293 
L 79.098903 204.712705 
L 79.352709 201.308824 
L 79.606514 199.749527 
L 79.86032 201.493064 
L 80.114125 198.881539 
L 80.367931 201.335764 
L 80.621737 198.592514 
L 80.875542 197.148175 
L 81.129348 198.930346 
L 81.383153 195.835113 
L 81.636959 197.668138 
L 82.14457 194.087718 
L 82.398376 195.623886 
L 82.652181 192.312835 
L 82.905987 193.578661 
L 83.413598 190.513479 
L 83.667403 191.62259 
L 83.921209 188.538491 
L 84.175015 189.439638 
L 84.42882 187.724646 
L 84.682626 186.985356 
L 84.936431 187.617841 
L 85.190237 185.323623 
L 85.444042 186.152299 
L 85.697848 184.625896 
L 85.951653 184.508363 
L 86.205459 184.686495 
L 86.459265 183.740719 
L 86.71307 184.781832 
L 86.966876 183.398077 
L 87.220681 184.022011 
L 87.474487 183.764203 
L 87.728292 184.574018 
L 87.982098 186.033047 
L 88.235904 184.658312 
L 88.489709 185.904234 
L 88.743515 185.203283 
L 89.251126 189.894019 
L 89.504931 188.307963 
L 89.758737 189.810375 
L 90.012543 188.673653 
L 90.520154 195.623576 
L 90.773959 193.598482 
L 91.027765 194.878953 
L 91.28157 193.38297 
L 91.535376 199.048258 
L 91.789182 202.060889 
L 92.042987 199.470091 
L 92.296793 200.140181 
L 92.550598 198.455561 
L 92.804404 204.712353 
L 93.058209 208.100809 
L 93.312015 204.9894 
L 93.565821 204.906687 
L 93.819626 203.27935 
L 94.327237 213.108047 
L 94.581043 209.676526 
L 94.834848 208.955656 
L 95.088654 207.641353 
L 95.596265 216.988751 
L 95.850071 213.475951 
L 96.357682 211.509167 
L 96.865293 219.809188 
L 97.119098 216.343946 
L 97.372904 214.987356 
L 97.62671 214.608809 
L 98.134321 221.319322 
L 98.388126 217.8684 
L 98.641932 216.373364 
L 98.895737 216.2704 
L 99.149543 217.802626 
L 99.403349 220.964318 
L 99.657154 217.434288 
L 99.91096 215.937692 
L 100.418571 215.904078 
L 100.672376 218.516144 
L 100.926182 214.914805 
L 101.179988 213.729741 
L 101.433793 213.595425 
L 101.687599 212.535218 
L 101.941404 214.674883 
L 102.19521 211.170074 
L 102.449015 210.731976 
L 102.702821 210.534764 
L 102.956626 209.052186 
L 103.210432 210.934016 
L 103.464238 207.747548 
L 103.718043 208.371591 
L 103.971849 208.192852 
L 104.225654 206.900193 
L 104.47946 208.732392 
L 104.733265 205.976122 
L 104.987071 207.626786 
L 105.240877 207.512226 
L 105.494682 206.743859 
L 105.748488 208.638786 
L 106.002293 206.241379 
L 106.256099 208.504862 
L 106.509904 208.440728 
L 106.76371 208.221816 
L 107.017516 210.218568 
L 107.271321 207.987238 
L 107.525127 210.249998 
L 107.778932 210.217036 
L 108.032738 210.377041 
L 108.286543 212.504744 
L 108.540349 210.251591 
L 108.794155 211.942853 
L 109.04796 211.971541 
L 109.301766 212.264668 
L 109.555571 214.554729 
L 109.809377 212.189326 
L 110.063182 212.960273 
L 110.570794 213.302233 
L 110.824599 215.745469 
L 111.078405 213.296062 
L 111.33221 213.102038 
L 111.586016 213.470816 
L 111.839821 213.327321 
L 112.093627 215.841452 
L 112.347432 213.416531 
L 112.601238 212.505249 
L 112.855044 213.061643 
L 113.108849 212.531305 
L 113.362655 214.981402 
L 113.61646 212.691706 
L 113.870266 211.484467 
L 114.124071 212.105063 
L 114.377877 211.307726 
L 114.631683 213.572952 
L 114.885488 211.452032 
L 115.139294 210.345057 
L 115.393099 210.833103 
L 115.646905 210.052181 
L 115.90071 212.095694 
L 116.154516 210.066461 
L 116.408322 209.243896 
L 116.662127 209.426105 
L 116.915933 209.004856 
L 117.169738 210.913937 
L 117.423544 208.836713 
L 117.677349 208.216841 
L 117.931155 208.046227 
L 118.184961 208.254191 
L 118.438766 210.215256 
L 118.692572 207.980118 
L 119.200183 206.90487 
L 119.453988 207.82909 
L 119.707794 210.032684 
L 119.9616 207.619144 
L 120.215405 206.680659 
L 120.469211 206.218571 
L 120.723016 207.726169 
L 120.976822 210.262521 
L 121.230627 207.734503 
L 121.484433 206.413038 
L 121.738238 206.074595 
L 121.992044 207.873166 
L 122.24585 210.691268 
L 122.753461 206.490391 
L 123.007266 206.34423 
L 123.261072 208.106744 
L 123.514877 211.054305 
L 124.022489 206.720497 
L 124.276294 206.718444 
L 124.5301 208.196752 
L 124.783905 211.087764 
L 125.291516 206.794286 
L 125.545322 206.800251 
L 125.799128 207.882137 
L 126.052933 210.549823 
L 126.560544 206.394017 
L 126.81435 206.239323 
L 127.068155 206.972662 
L 127.321961 209.32077 
L 127.575767 206.559196 
L 127.829572 205.383674 
L 128.083378 204.946011 
L 128.337183 205.553548 
L 128.590989 207.618863 
L 128.844794 204.680026 
L 129.352405 203.327139 
L 129.606211 204.169867 
L 129.860017 206.14988 
L 130.113822 203.102326 
L 130.367628 203.119113 
L 130.621433 202.27903 
L 130.875239 203.711458 
L 131.129044 205.890976 
L 131.38285 202.84945 
L 131.636656 203.488615 
L 131.890461 202.766387 
L 132.398072 207.49559 
L 132.651878 204.541749 
L 132.905683 205.571964 
L 133.159489 205.167756 
L 133.6671 210.733702 
L 133.920906 207.877033 
L 134.174711 208.94375 
L 134.428517 208.922693 
L 134.936128 214.50667 
L 135.189934 211.72779 
L 135.443739 212.553023 
L 135.697545 212.848247 
L 135.95135 214.571893 
L 136.205156 217.522333 
L 136.458961 214.854342 
L 137.220378 216.542696 
L 137.474184 219.086302 
L 137.727989 216.632993 
L 138.2356 217.699622 
L 138.489406 217.281357 
L 138.743211 219.329222 
L 138.997017 217.182271 
L 139.504628 218.441027 
L 139.758434 217.215059 
L 140.012239 218.775448 
L 140.266045 216.915601 
L 140.51985 218.182938 
L 140.773656 218.412094 
L 141.027462 216.699488 
L 141.281267 217.83434 
L 141.535073 216.133622 
L 141.788878 217.865353 
L 142.042684 217.788721 
L 142.296489 215.907659 
L 142.550295 216.760028 
L 142.804101 215.087362 
L 143.057906 217.182149 
L 143.311712 216.84408 
L 143.565517 215.121985 
L 143.819323 215.951123 
L 144.073128 214.260213 
L 144.326934 216.588305 
L 144.58074 216.155211 
L 144.834545 214.902702 
L 145.088351 216.023736 
L 145.342156 214.326403 
L 145.595962 216.722881 
L 145.849767 216.376052 
L 146.103573 215.786985 
L 146.357379 217.42166 
L 146.611184 215.691134 
L 146.86499 217.931937 
L 147.118795 217.749855 
L 147.372601 217.826532 
L 147.626406 219.989308 
L 147.880212 218.125561 
L 148.134017 219.973208 
L 148.387823 219.910855 
L 148.641629 220.509947 
L 148.895434 223.039374 
L 149.14924 220.937574 
L 149.403045 222.231694 
L 149.656851 222.20346 
L 149.910656 223.155375 
L 150.164462 225.846574 
L 150.418268 223.47687 
L 150.672073 224.156663 
L 150.925879 224.120589 
L 151.179684 225.28465 
L 151.43349 227.985932 
L 151.687295 225.384854 
L 152.194907 225.372957 
L 152.448712 226.585555 
L 152.702518 229.192523 
L 152.956323 226.394078 
L 153.210129 225.687684 
L 153.463934 225.651548 
L 153.71774 226.67695 
L 153.971546 229.090217 
L 154.225351 226.103464 
L 154.479157 224.624273 
L 154.732962 224.576177 
L 154.986768 225.182092 
L 155.240573 227.320875 
L 155.748185 222.110747 
L 156.00199 222.053535 
L 156.255796 222.169509 
L 156.509601 224.029693 
L 157.017212 218.69385 
L 157.271018 218.681473 
L 157.524823 218.481207 
L 157.778629 220.15853 
L 158.28624 215.565269 
L 158.540046 215.681406 
L 158.793851 215.494401 
L 159.047657 217.13056 
L 159.301462 214.823837 
L 159.555268 214.020865 
L 159.809074 214.31243 
L 160.062879 214.426624 
L 160.316685 216.115764 
L 160.57049 214.397577 
L 161.331907 215.69109 
L 161.585713 217.423662 
L 161.839518 216.174997 
L 162.093324 217.567071 
L 162.347129 217.978551 
L 162.600935 218.738057 
L 162.85474 220.420085 
L 163.108546 219.392193 
L 163.362352 221.447644 
L 163.616157 221.686635 
L 163.869963 222.469539 
L 164.123768 224.00597 
L 164.377574 222.955068 
L 164.631379 225.325226 
L 164.885185 225.295321 
L 165.13899 225.918128 
L 165.392796 227.296553 
L 165.646602 226.09987 
L 165.900407 228.603222 
L 166.154213 228.325763 
L 166.408018 228.727485 
L 166.661824 230.034062 
L 166.915629 228.707353 
L 167.169435 231.336989 
L 167.423241 230.917098 
L 167.677046 231.121511 
L 167.930852 232.478839 
L 168.184657 231.080295 
L 168.438463 233.886971 
L 168.692268 233.424175 
L 168.946074 233.46356 
L 169.19988 234.954335 
L 169.453685 233.470171 
L 169.707491 236.431689 
L 169.961296 235.956232 
L 170.215102 235.853535 
L 170.468907 237.506592 
L 170.722713 235.820564 
L 170.976519 238.801223 
L 171.230324 238.293796 
L 171.48413 238.116939 
L 171.737935 239.963177 
L 171.991741 237.936226 
L 172.245546 240.733554 
L 172.499352 240.206367 
L 172.753158 240.11145 
L 173.006963 242.23699 
L 173.260769 239.820942 
L 173.514574 242.232096 
L 173.76838 241.788382 
L 174.022185 241.961271 
L 174.275991 244.478078 
L 174.529796 241.758676 
L 174.783602 243.593635 
L 175.037408 243.405227 
L 175.291213 243.9051 
L 175.545019 246.839552 
L 175.798824 243.977878 
L 176.05263 245.021736 
L 176.306435 245.240061 
L 176.560241 245.855121 
L 176.814047 249.045246 
L 177.067852 246.182995 
L 177.321658 246.182456 
L 177.575463 246.858153 
L 177.829269 247.108001 
L 178.083074 250.208769 
L 178.33688 247.424906 
L 178.590686 246.161337 
L 178.844491 247.232662 
L 179.098297 246.547268 
L 179.352102 249.158712 
L 179.859713 243.951454 
L 180.113519 245.293139 
L 180.367325 243.287962 
L 180.62113 245.12205 
L 180.874936 242.707719 
L 181.128741 239.143929 
L 181.382547 240.616929 
L 181.636352 237.308683 
L 181.890158 238.287574 
L 182.143964 236.266436 
L 182.397769 232.297886 
L 182.651575 233.755895 
L 182.90538 229.594214 
L 183.159186 229.837966 
L 183.412991 228.351511 
L 183.666797 224.716666 
L 183.920602 225.99015 
L 184.174408 221.71573 
L 184.428214 221.467819 
L 184.682019 220.549485 
L 184.935825 217.874196 
L 185.18963 218.793393 
L 185.443436 215.215696 
L 185.951047 214.345397 
L 186.204853 212.978288 
L 186.458658 213.451277 
L 186.712464 211.250294 
L 187.220075 210.875768 
L 187.727686 210.939817 
L 187.981492 210.511111 
L 188.235297 210.768134 
L 188.489103 210.79992 
L 188.742908 211.957079 
L 188.996714 211.743731 
L 189.504325 214.005785 
L 189.758131 214.008411 
L 190.011936 215.978927 
L 190.265742 215.547573 
L 190.519547 218.224967 
L 190.773353 219.710828 
L 191.027158 219.449475 
L 191.280964 221.818716 
L 191.53477 221.106111 
L 191.788575 224.444829 
L 192.042381 226.188891 
L 192.296186 225.438592 
L 192.549992 227.879273 
L 192.803797 226.784935 
L 193.057603 230.158852 
L 193.311408 231.891021 
L 193.565214 230.558804 
L 193.81902 232.931558 
L 194.072825 231.476567 
L 194.326631 234.526832 
L 194.580436 236.190696 
L 194.834242 234.353662 
L 195.088047 236.636588 
L 195.341853 235.017885 
L 195.849464 239.360722 
L 196.10327 237.152228 
L 196.357075 239.234619 
L 196.610881 237.729052 
L 197.118492 241.809194 
L 197.372298 239.274985 
L 197.626103 240.839102 
L 197.879909 239.681505 
L 198.133714 241.170099 
L 198.38752 243.491074 
L 198.641325 240.58976 
L 198.895131 241.242369 
L 199.148937 240.598875 
L 199.402742 241.393946 
L 199.656548 244.124149 
L 199.910353 240.871703 
L 200.164159 240.420332 
L 200.417964 240.424522 
L 200.67177 240.6171 
L 200.925575 243.80073 
L 201.179381 240.379499 
L 201.433187 238.978547 
L 201.686992 239.713954 
L 201.940798 239.517845 
L 202.194603 243.106242 
L 202.702214 237.817638 
L 202.95602 239.223111 
L 203.209826 238.775341 
L 203.463631 242.510467 
L 203.971242 237.294729 
L 204.225048 239.10963 
L 204.478853 238.330517 
L 204.732659 241.758135 
L 205.24027 236.806509 
L 205.494076 238.660061 
L 205.747881 237.332063 
L 206.001687 240.000487 
L 206.509298 235.295585 
L 206.763104 236.892434 
L 207.016909 234.879265 
L 207.270715 236.576004 
L 207.778326 232.190537 
L 208.032131 233.435708 
L 208.285937 230.832547 
L 208.539743 231.662043 
L 209.047354 227.910739 
L 209.301159 228.876609 
L 209.554965 225.980714 
L 209.80877 226.240535 
L 210.316381 223.580008 
L 210.570187 224.367161 
L 210.823993 221.537661 
L 211.077798 221.525868 
L 211.585409 220.322698 
L 211.839215 220.945584 
L 212.09302 218.488821 
L 212.346826 218.400696 
L 212.600632 218.181368 
L 213.108243 219.127082 
L 213.362048 217.274021 
L 213.615854 217.228509 
L 213.869659 217.34275 
L 214.123465 218.90754 
L 214.377271 218.941587 
L 214.631076 217.878469 
L 215.138687 218.194314 
L 215.392493 220.54948 
L 215.646298 220.181946 
L 215.900104 220.054737 
L 216.15391 220.446055 
L 216.407715 220.486155 
L 216.661521 223.306447 
L 216.915326 222.529138 
L 217.422937 224.127536 
L 217.676743 223.788819 
L 217.930549 226.686854 
L 218.184354 225.517889 
L 218.691965 228.340901 
L 218.945771 227.466626 
L 219.199576 230.064659 
L 219.453382 228.568412 
L 219.960993 232.3489 
L 220.214799 230.888126 
L 220.468604 232.893126 
L 220.72241 231.238674 
L 221.230021 235.702833 
L 221.483826 233.724312 
L 221.737632 234.953332 
L 221.991438 233.42139 
L 222.499049 238.314137 
L 222.752854 235.941544 
L 223.00666 236.276822 
L 223.260465 235.1585 
L 223.768077 240.12636 
L 224.021882 237.428013 
L 224.529493 236.227019 
L 224.783299 237.925745 
L 225.037104 240.791852 
L 225.29091 237.748726 
L 225.544716 236.07097 
L 225.798521 236.093493 
L 226.052327 236.845778 
L 226.306132 239.878186 
L 226.813743 233.965965 
L 227.067549 234.448803 
L 227.321354 234.375898 
L 227.57516 237.487212 
L 228.082771 230.941292 
L 228.336577 231.790297 
L 228.590382 231.334293 
L 228.844188 234.558725 
L 229.351799 228.167372 
L 229.605605 229.316151 
L 229.85941 228.996019 
L 230.113216 232.3944 
L 230.620827 226.769294 
L 230.874632 228.11997 
L 231.128438 228.225739 
L 231.382244 231.746942 
L 231.636049 228.557609 
L 231.889855 227.029966 
L 232.14366 228.416233 
L 232.397466 228.878891 
L 232.651271 232.31817 
L 232.905077 229.323278 
L 233.158883 228.271569 
L 233.412688 229.504783 
L 233.666494 230.007935 
L 233.920299 233.09505 
L 234.174105 230.230774 
L 234.42791 229.476857 
L 234.681716 230.434335 
L 234.935522 230.640025 
L 235.189327 233.171272 
L 235.443133 230.511964 
L 235.696938 230.060723 
L 235.950744 230.733136 
L 236.204549 230.460399 
L 236.458355 232.373964 
L 236.71216 230.135615 
L 236.965966 230.201466 
L 237.219772 230.662821 
L 237.473577 229.940155 
L 237.727383 231.305024 
L 237.981188 229.72373 
L 238.234994 230.588548 
L 238.488799 230.919739 
L 238.742605 229.935745 
L 238.996411 230.888896 
L 239.250216 230.064758 
L 239.504022 231.86729 
L 239.757827 232.092495 
L 240.011633 231.097559 
L 240.265438 231.780995 
L 240.519244 231.590697 
L 240.77305 234.166282 
L 241.026855 234.246415 
L 241.280661 233.445275 
L 241.534466 233.979264 
L 241.788272 234.113022 
L 242.042077 236.990219 
L 242.295883 236.875664 
L 242.549689 236.359932 
L 242.803494 236.849447 
L 243.0573 236.945184 
L 243.311105 239.518739 
L 243.818716 238.944872 
L 244.072522 239.489725 
L 244.326328 239.276468 
L 244.580133 241.04459 
L 244.833939 240.622878 
L 245.087744 240.458697 
L 245.34155 241.136106 
L 245.595355 240.498099 
L 245.849161 241.232667 
L 246.356772 240.548601 
L 246.610578 241.394282 
L 246.864383 240.352986 
L 247.371994 239.797178 
L 247.6258 239.292557 
L 247.879605 240.316552 
L 248.387217 238.101172 
L 248.641022 237.910182 
L 248.894828 237.112099 
L 249.148633 238.32506 
L 249.656244 235.611009 
L 249.91005 235.563916 
L 250.163856 234.551513 
L 250.417661 235.95913 
L 250.925272 233.00243 
L 251.179078 233.013677 
L 251.432883 231.930887 
L 251.686689 233.509728 
L 252.1943 230.24259 
L 252.448106 230.164857 
L 252.701911 229.185923 
L 252.955717 230.911848 
L 253.463328 227.110606 
L 253.717134 226.839482 
L 253.970939 226.208383 
L 254.224745 228.145441 
L 254.47855 225.265104 
L 254.732356 223.797013 
L 254.986161 223.393504 
L 255.239967 223.446652 
L 255.493772 225.78429 
L 255.747578 222.606643 
L 256.001384 221.303671 
L 256.255189 220.996245 
L 256.508995 222.036205 
L 256.7628 224.965455 
L 257.016606 221.799749 
L 257.270411 220.985657 
L 257.524217 221.004174 
L 257.778023 223.053528 
L 258.031828 226.543478 
L 258.285634 223.627116 
L 258.539439 223.444918 
L 258.793245 223.822588 
L 259.300856 230.169777 
L 259.554662 227.518227 
L 259.808467 227.812437 
L 260.062273 228.355126 
L 260.569884 234.303938 
L 260.823689 231.782243 
L 261.331301 232.714988 
L 261.838912 237.300203 
L 262.092717 234.832774 
L 262.600328 235.596289 
L 262.854134 236.63171 
L 263.107939 238.564371 
L 263.361745 236.255571 
L 263.869356 237.015043 
L 264.123162 237.258245 
L 264.376967 238.689254 
L 264.630773 236.735215 
L 265.138384 237.799872 
L 265.39219 237.401767 
L 265.645995 238.56079 
L 265.899801 237.064035 
L 266.407412 238.512545 
L 266.661217 237.485874 
L 266.915023 238.446196 
L 267.168829 237.327618 
L 267.422634 237.962563 
L 267.67644 238.923587 
L 267.930245 237.202212 
L 268.184051 237.941152 
L 268.437856 237.016831 
L 268.691662 237.421808 
L 268.945468 238.432291 
L 269.199273 236.062842 
L 269.453079 236.61557 
L 269.706884 235.724986 
L 269.96069 235.847755 
L 270.214495 236.791743 
L 270.468301 234.034933 
L 270.722107 234.550626 
L 270.975912 233.603913 
L 271.229718 233.579282 
L 271.483523 234.359726 
L 271.737329 231.614565 
L 271.991134 232.272741 
L 272.24494 231.209748 
L 272.498745 231.294899 
L 272.752551 231.784432 
L 273.006357 229.441362 
L 273.260162 230.348723 
L 273.513968 229.105995 
L 273.767773 229.573198 
L 274.021579 229.6246 
L 274.275384 227.979819 
L 274.52919 229.162343 
L 274.782996 227.691752 
L 275.036801 228.730955 
L 275.290607 228.261699 
L 275.544412 227.503863 
L 275.798218 228.96831 
L 276.052023 227.275879 
L 276.305829 228.907635 
L 276.559635 227.968167 
L 276.81344 228.149898 
L 277.067246 229.911751 
L 277.321051 228.042249 
L 277.574857 230.060859 
L 277.828662 228.807761 
L 278.082468 229.79916 
L 278.336274 231.843029 
L 278.590079 229.822646 
L 278.843885 231.838384 
L 279.09769 230.446726 
L 279.351496 231.953194 
L 279.605301 234.202545 
L 279.859107 232.017003 
L 280.112913 233.626398 
L 280.366718 232.234888 
L 280.874329 236.298466 
L 281.128135 233.947518 
L 281.38194 234.94838 
L 281.635746 233.673591 
L 282.143357 237.823186 
L 282.397163 235.382431 
L 282.650968 235.862098 
L 282.904774 234.826804 
L 283.158579 236.545442 
L 283.412385 239.060698 
L 283.66619 236.673516 
L 283.919996 236.890756 
L 284.173802 236.208836 
L 284.427607 237.940718 
L 284.681413 240.530985 
L 284.935218 238.32773 
L 285.189024 238.499316 
L 285.442829 238.230257 
L 285.696635 239.852876 
L 285.950441 242.414405 
L 286.204246 240.437429 
L 286.711857 240.723944 
L 286.965663 241.942151 
L 287.219468 244.284422 
L 287.473274 242.484925 
L 287.72708 242.521073 
L 288.234691 243.42355 
L 288.488496 245.351669 
L 288.742302 243.656332 
L 288.996107 243.453754 
L 289.249913 244.134217 
L 289.503718 243.581412 
L 289.757524 244.985634 
L 290.01133 243.380221 
L 290.265135 242.990342 
L 290.518941 243.845637 
L 290.772746 242.24561 
L 291.026552 243.136884 
L 291.280357 241.708027 
L 291.534163 241.407642 
L 291.787969 242.39455 
L 292.041774 239.93064 
L 292.29558 240.409614 
L 292.549385 239.305207 
L 292.803191 239.501776 
L 293.056996 240.558416 
L 293.310802 237.559488 
L 293.564608 237.75378 
L 293.818413 237.072892 
L 294.326024 239.09746 
L 294.57983 235.945477 
L 294.833635 235.967585 
L 295.087441 235.641814 
L 295.341247 237.535532 
L 295.595052 238.302081 
L 295.848858 235.375066 
L 296.102663 235.334399 
L 296.356469 235.101284 
L 296.610274 237.61098 
L 296.86408 237.945071 
L 297.117886 235.606953 
L 297.371691 235.658521 
L 297.625497 235.172487 
L 297.879302 237.90691 
L 298.133108 237.700783 
L 298.386913 236.301823 
L 298.640719 236.668759 
L 298.894524 235.684055 
L 299.14833 238.365972 
L 299.402136 237.660433 
L 299.655941 237.472629 
L 299.909747 238.389502 
L 300.163552 236.875878 
L 300.417358 239.456958 
L 300.671163 238.416025 
L 300.924969 239.499488 
L 301.178775 241.073587 
L 301.43258 239.180708 
L 301.686386 241.736732 
L 301.940191 240.553761 
L 302.447802 244.723676 
L 302.701608 242.654133 
L 302.955414 245.184697 
L 303.209219 244.004635 
L 303.71683 248.727271 
L 303.970636 246.639725 
L 304.224441 248.971175 
L 304.478247 247.891406 
L 304.985858 252.055122 
L 305.239664 250.066615 
L 305.493469 251.938421 
L 305.747275 251.06547 
L 306.00108 252.215817 
L 306.254886 253.919878 
L 306.508692 252.150413 
L 306.762497 253.383847 
L 307.016303 252.86153 
L 307.270108 252.920745 
L 307.523914 254.292293 
L 307.777719 252.866231 
L 308.031525 253.445911 
L 308.28533 253.405296 
L 308.539136 252.548964 
L 308.792942 253.7811 
L 309.046747 252.758057 
L 309.300553 252.765349 
L 309.554358 253.234275 
L 309.808164 251.747094 
L 310.061969 252.981388 
L 310.569581 251.800488 
L 310.823386 252.664836 
L 311.077192 250.718558 
L 311.330997 251.939681 
L 311.584803 251.42758 
L 311.838608 250.486759 
L 312.092414 251.550007 
L 312.34622 249.170577 
L 312.600025 250.257414 
L 312.853831 249.7796 
L 313.107636 248.550614 
L 313.361442 249.635693 
L 313.615247 246.84408 
L 313.869053 247.690966 
L 314.122859 247.21947 
L 314.376664 246.050016 
L 314.63047 247.036142 
L 314.884275 243.988473 
L 315.138081 244.562775 
L 315.391886 244.145411 
L 315.645692 243.498317 
L 315.899498 244.266617 
L 316.153303 241.265611 
L 316.407109 241.578638 
L 316.660914 241.225717 
L 317.168525 241.88046 
L 317.422331 239.292878 
L 317.676136 239.375745 
L 317.929942 239.013652 
L 318.183748 240.407609 
L 318.437553 240.248952 
L 318.691359 238.423518 
L 318.945164 238.364706 
L 319.19897 237.905466 
L 319.452775 240.434408 
L 319.960387 238.905072 
L 320.214192 238.879602 
L 320.467998 238.304294 
L 320.721803 241.810968 
L 320.975609 240.659737 
L 321.48322 241.172254 
L 321.737026 240.497571 
L 321.990831 244.610798 
L 322.244637 243.285291 
L 322.498442 244.467572 
L 322.752248 245.031942 
L 323.006053 244.198483 
L 323.259859 248.317205 
L 323.513665 247.022915 
L 324.021276 249.500662 
L 324.275081 248.345028 
L 324.528887 251.807815 
L 324.782692 250.655074 
L 325.290303 253.252229 
L 325.544109 251.633431 
L 325.797915 254.041109 
L 326.05172 253.089547 
L 326.559331 255.456779 
L 326.813137 253.409236 
L 327.066942 254.839058 
L 327.320748 254.139914 
L 327.574554 254.664853 
L 327.828359 256.277771 
L 328.082165 254.006813 
L 328.33597 254.896881 
L 328.589776 254.464609 
L 328.843581 254.623783 
L 329.097387 256.455458 
L 329.351193 254.17377 
L 329.604998 254.950732 
L 330.112609 254.529771 
L 330.366415 256.416447 
L 330.62022 254.200076 
L 330.874026 254.98297 
L 331.127832 254.844079 
L 331.381637 254.155095 
L 331.635443 255.867187 
L 331.889248 253.686962 
L 332.143054 254.306203 
L 332.396859 254.220623 
L 332.650665 252.863367 
L 332.904471 254.270533 
L 333.158276 252.150059 
L 333.412082 252.423963 
L 333.665887 252.492397 
L 333.919693 250.476485 
L 334.173498 251.641495 
L 334.427304 249.763565 
L 334.681109 249.75138 
L 334.934915 250.145154 
L 335.188721 247.71879 
L 335.442526 248.819473 
L 335.696332 247.450622 
L 335.950137 247.457663 
L 336.203943 248.248879 
L 336.457748 245.756056 
L 336.711554 246.903559 
L 336.96536 246.19783 
L 337.219165 246.555969 
L 337.472971 247.591678 
L 337.726776 245.26164 
L 337.980582 246.382266 
L 338.234387 246.241104 
L 338.741999 248.022752 
L 338.995804 245.883409 
L 339.24961 246.775867 
L 339.503415 246.895935 
L 339.757221 248.121834 
L 340.011026 248.638688 
L 340.264832 246.631372 
L 340.518638 247.152973 
L 340.772443 247.230714 
L 341.026249 248.695415 
L 341.280054 248.66026 
L 341.53386 246.836243 
L 341.787665 247.050929 
L 342.041471 246.959609 
L 342.295277 248.61707 
L 342.549082 248.147973 
L 342.802888 246.738765 
L 343.056693 246.886106 
L 343.310499 246.667216 
L 343.564304 248.537648 
L 344.071915 247.136087 
L 344.325721 247.471909 
L 344.579527 247.175046 
L 344.833332 249.183185 
L 345.087138 248.456935 
L 345.340943 248.523801 
L 345.594749 249.186722 
L 345.848554 248.749348 
L 346.10236 250.64917 
L 346.356166 249.927231 
L 346.863777 251.64939 
L 347.117582 250.932941 
L 347.371388 252.41905 
L 347.625193 251.725654 
L 348.132805 254.106078 
L 348.38661 253.011179 
L 348.640416 253.879262 
L 348.894221 253.283419 
L 349.148027 254.306664 
L 349.401832 255.951053 
L 349.655638 254.457953 
L 349.909444 254.643821 
L 350.163249 254.229612 
L 350.417055 254.936637 
L 350.67086 256.837279 
L 350.924666 254.942321 
L 351.178471 254.452846 
L 351.432277 254.236356 
L 351.686082 254.439624 
L 351.939888 256.5028 
L 352.193694 254.171988 
L 352.447499 253.060915 
L 352.701305 252.968109 
L 352.95511 252.642775 
L 353.208916 254.780579 
L 353.462721 252.004137 
L 353.716527 250.449667 
L 353.970333 250.382939 
L 354.224138 249.697682 
L 354.477944 251.888965 
L 354.731749 248.77875 
L 354.985555 247.155738 
L 355.23936 247.070324 
L 355.493166 246.309386 
L 355.746972 248.581849 
L 356.000777 245.386638 
L 356.254583 244.188255 
L 356.508388 244.100337 
L 356.762194 243.49341 
L 357.015999 245.8263 
L 357.269805 242.839612 
L 357.523611 242.477279 
L 357.777416 242.413934 
L 358.031222 242.001125 
L 358.285027 244.252098 
L 358.538833 241.705118 
L 358.792638 242.355741 
L 359.046444 242.312062 
L 359.30025 241.966821 
L 359.554055 243.912967 
L 359.807861 241.936787 
L 360.061666 243.547841 
L 360.315472 243.485539 
L 360.569277 243.078625 
L 360.823083 244.544031 
L 361.076888 243.189368 
L 361.330694 245.596818 
L 361.5845 245.463265 
L 361.838305 245.020465 
L 362.092111 245.976979 
L 362.345916 245.225489 
L 362.599722 248.23635 
L 363.107333 247.687843 
L 363.361139 248.24666 
L 363.614944 247.990767 
L 363.86875 251.362094 
L 364.122555 250.923096 
L 364.376361 250.994274 
L 364.630166 251.311181 
L 364.883972 251.343952 
L 365.137778 254.704907 
L 365.391583 254.068456 
L 365.645389 254.527341 
L 366.153 254.784266 
L 366.406805 257.644832 
L 366.660611 256.875021 
L 366.914417 257.508429 
L 367.168222 257.635943 
L 367.422028 257.551734 
L 367.675833 259.459465 
L 367.929639 258.735786 
L 368.183444 259.20436 
L 368.43725 259.340927 
L 368.691056 259.07959 
L 368.944861 259.831441 
L 369.198667 259.399749 
L 369.452472 259.430252 
L 369.706278 259.673655 
L 370.213889 259.066975 
L 370.467694 259.101609 
L 370.7215 258.597502 
L 370.975306 259.023702 
L 371.229111 258.741849 
L 371.482917 257.738908 
L 371.736722 258.209187 
L 371.990528 257.231194 
L 372.244333 257.841456 
L 372.498139 257.570198 
L 372.751945 256.130721 
L 373.00575 256.806111 
L 373.259556 255.514975 
L 373.513361 256.275309 
L 373.767167 255.849475 
L 374.020972 254.137514 
L 374.274778 254.751214 
L 374.528584 253.390228 
L 374.782389 254.337854 
L 375.036195 253.594373 
L 375.29 251.696533 
L 375.543806 252.118185 
L 375.797611 250.990153 
L 376.051417 252.272385 
L 376.305223 251.140742 
L 376.559028 249.109976 
L 376.812834 249.367706 
L 377.066639 248.737848 
L 377.320445 250.51533 
L 377.828056 246.800841 
L 378.081862 246.963433 
L 378.335667 246.941327 
L 378.589473 249.256546 
L 379.097084 244.871255 
L 379.350889 244.951488 
L 379.604695 245.485532 
L 379.8585 248.242389 
L 380.366112 243.136151 
L 380.619917 243.117899 
L 380.873723 244.099095 
L 381.127528 247.155926 
L 381.635139 241.623108 
L 381.888945 241.538522 
L 382.142751 242.899863 
L 382.396556 246.13995 
L 382.904167 240.84023 
L 383.157973 240.767644 
L 383.411778 242.4477 
L 383.665584 245.744546 
L 383.91939 242.864393 
L 384.173195 241.349898 
L 384.427001 241.331339 
L 384.680806 243.178955 
L 384.934612 246.340915 
L 385.188417 243.789842 
L 385.442223 243.127375 
L 385.696029 243.128868 
L 385.949834 244.907558 
L 386.20364 247.727584 
L 386.457445 245.499512 
L 386.965056 245.490088 
L 387.218862 247.002976 
L 387.472667 249.389135 
L 387.726473 247.416617 
L 387.980279 247.783555 
L 388.234084 247.792258 
L 388.48789 248.971895 
L 388.741695 250.999017 
L 388.995501 249.256992 
L 389.249306 249.696392 
L 389.503112 249.8493 
L 389.756918 250.687019 
L 390.010723 252.487667 
L 390.264529 250.983597 
L 390.77214 251.652156 
L 391.025945 252.052941 
L 391.279751 253.66351 
L 391.533557 252.370885 
L 391.787362 252.3442 
L 392.041168 252.910194 
L 392.294973 252.662351 
L 392.548779 253.995643 
L 392.802584 252.843818 
L 393.05639 252.392626 
L 393.310196 253.042887 
L 393.564001 251.953534 
L 393.817807 252.913834 
L 394.325418 250.983916 
L 394.579223 251.628072 
L 394.833029 249.680982 
L 395.086835 250.276639 
L 395.594446 248.14662 
L 395.848251 248.733537 
L 396.102057 246.120974 
L 396.355862 246.459995 
L 396.863473 244.334278 
L 397.117279 244.805769 
L 397.371085 241.84402 
L 397.62489 242.056972 
L 398.132501 240.10421 
L 398.386307 240.372075 
L 398.640112 237.415065 
L 398.893918 237.624889 
L 399.401529 235.971363 
L 399.655335 235.977827 
L 399.90914 233.385289 
L 400.162946 233.753009 
L 400.416751 232.75991 
L 400.924363 232.333309 
L 401.178168 230.439238 
L 401.431974 231.18616 
L 401.685779 230.252921 
L 401.939585 230.513071 
L 402.19339 230.263005 
L 402.447196 229.282226 
L 402.701002 230.606983 
L 402.954807 229.7998 
L 403.208613 230.41486 
L 403.716224 230.168338 
L 403.970029 232.111436 
L 404.223835 231.35234 
L 404.477641 232.024501 
L 404.731446 231.900083 
L 404.985252 232.525391 
L 405.239057 234.931668 
L 405.492863 233.980253 
L 405.746668 234.349727 
L 406.000474 234.103862 
L 406.254279 235.188049 
L 406.508085 237.834027 
L 406.761891 236.419433 
L 407.015696 236.22846 
L 407.269502 235.708927 
L 407.523307 237.152887 
L 407.777113 239.92218 
L 408.030918 237.916185 
L 408.53853 236.3268 
L 408.792335 238.163081 
L 409.046141 241.094758 
L 409.299946 238.574627 
L 409.807557 236.381049 
L 410.315169 241.760936 
L 410.82278 237.043394 
L 411.076585 236.471059 
L 411.330391 238.792816 
L 411.584196 242.17366 
L 412.091808 236.839366 
L 412.345613 236.717527 
L 412.599419 238.675884 
L 412.853224 242.093624 
L 413.360835 236.282237 
L 413.614641 236.698678 
L 413.868446 237.8093 
L 414.122252 241.047149 
L 414.629863 234.96966 
L 414.883669 235.904638 
L 415.137474 235.902051 
L 415.39128 238.806376 
L 415.898891 232.811369 
L 416.152697 234.165563 
L 416.406502 233.076077 
L 416.660308 235.582469 
L 416.914113 233.401543 
L 417.167919 230.080511 
L 417.421724 231.691292 
L 417.67553 229.74745 
L 417.929336 231.841166 
L 418.183141 230.005591 
L 418.436947 227.161018 
L 418.690752 228.830862 
L 418.944558 226.339506 
L 419.198363 228.024708 
L 419.705975 224.323087 
L 419.95978 225.869768 
L 420.213586 223.119619 
L 420.467391 224.42401 
L 420.975002 221.667102 
L 421.228808 222.960694 
L 421.482614 220.170568 
L 421.736419 221.150095 
L 422.24403 219.150499 
L 422.497836 220.106374 
L 422.751641 217.39686 
L 423.005447 218.117145 
L 423.259252 217.025869 
L 423.513058 216.633163 
L 423.766864 217.185069 
L 424.020669 214.596715 
L 424.274475 215.121126 
L 424.52828 214.008957 
L 425.035891 214.13198 
L 425.289697 211.709482 
L 425.543503 212.122235 
L 425.797308 210.99728 
L 426.051114 211.561277 
L 426.304919 211.226272 
L 426.558725 209.102852 
L 426.81253 209.543675 
L 427.066336 208.503919 
L 427.320142 209.867696 
L 427.573947 209.181476 
L 427.827753 207.583475 
L 428.081558 208.237486 
L 428.335364 207.389558 
L 428.589169 209.715552 
L 429.096781 207.94135 
L 429.350586 208.973641 
L 429.604392 208.296435 
L 429.858197 211.431377 
L 430.112003 210.364646 
L 430.365808 210.346492 
L 430.619614 211.836901 
L 430.87342 211.108552 
L 431.127225 214.53844 
L 431.381031 213.334019 
L 431.634836 214.110332 
L 431.888642 216.056211 
L 432.142447 214.933625 
L 432.396253 217.974968 
L 432.650058 216.631084 
L 432.903864 218.10257 
L 433.15767 220.486949 
L 433.411475 218.696674 
L 433.665281 220.784877 
L 433.919086 219.383905 
L 434.426697 224.299962 
L 434.680503 221.804438 
L 434.934309 222.662692 
L 435.188114 221.411461 
L 435.695725 227.247537 
L 435.949531 224.250387 
L 436.203336 223.85221 
L 436.457142 223.010614 
L 436.964753 229.306007 
L 437.218559 226.111907 
L 437.472364 224.547576 
L 437.72617 224.299597 
L 437.979975 226.424479 
L 438.233781 230.189537 
L 438.741392 224.475466 
L 438.995198 224.854702 
L 439.249003 225.861848 
L 439.502809 229.366672 
L 440.01042 223.13579 
L 440.264226 224.052139 
L 440.518031 223.617153 
L 440.771837 226.609758 
L 441.279448 220.422307 
L 441.533253 221.733942 
L 441.787059 220.023705 
L 441.787059 220.023705 
" clip-path="url(#p64b63e149e)" style="fill: none; stroke: #1f77b4; stroke-width: 1.5; stroke-linecap: square"/>
   </g>
   <g id="patch_8">
    <path d="M 42.309786 265.417648 
L 42.309786 142.521097 
" style="fill: none; stroke: #000000; stroke-width: 0.8; stroke-linejoin: miter; stroke-linecap: square"/>
   </g>
   <g id="patch_9">
    <path d="M 460.809786 265.417648 
L 460.809786 142.521097 
" style="fill: none; stroke: #000000; stroke-width: 0.8; stroke-linejoin: miter; stroke-linecap: square"/>
   </g>
   <g id="patch_10">
    <path d="M 42.309786 265.417648 
L 460.809786 265.417648 
" style="fill: none; stroke: #000000; stroke-width: 0.8; stroke-linejoin: miter; stroke-linecap: square"/>
   </g>
   <g id="patch_11">
    <path d="M 42.309786 142.521097 
L 460.809786 142.521097 
" style="fill: none; stroke: #000000; stroke-width: 0.8; stroke-linejoin: miter; stroke-linecap: square"/>
   </g>
  </g>
  <g id="axes_3">
   <g id="matplotlib.axis_5">
    <g id="text_19">
     <!-- $freezing$ -->
     <g transform="translate(475.457267 106.170096) rotate(-90) scale(0.15 -0.15)">
      <defs>
       <path id="CMMI12-72" d="M 2490 2633 
C 2291 2598 2189 2457 2189 2316 
C 2189 2163 2310 2111 2400 2111 
C 2579 2111 2726 2265 2726 2457 
C 2726 2651 2528 2816 2208 2816 
C 1952 2816 1658 2700 1389 2335 
C 1344 2660 1088 2816 832 2816 
C 582 2816 454 2642 378 2508 
C 269 2278 173 1892 173 1860 
C 173 1834 198 1801 243 1801 
C 294 1801 301 1808 339 1957 
C 435 2342 557 2687 813 2687 
C 966 2687 1011 2604 1011 2419 
C 1011 2278 947 2028 902 1827 
L 723 1130 
C 698 1007 627 716 595 600 
C 550 432 480 128 480 96 
C 480 6 550 -64 646 -64 
C 717 -64 838 -20 877 109 
C 896 160 1133 1136 1171 1285 
C 1203 1427 1242 1562 1274 1705 
C 1299 1795 1325 1898 1344 1982 
C 1363 2040 1536 2355 1696 2495 
C 1773 2566 1939 2687 2202 2687 
C 2304 2687 2406 2674 2490 2633 
z
" transform="scale(0.015625)"/>
       <path id="CMMI12-65" d="M 1146 1472 
C 1318 1472 1754 1484 2061 1600 
C 2547 1786 2592 2160 2592 2275 
C 2592 2559 2349 2816 1926 2816 
C 1254 2816 288 2205 288 1066 
C 288 400 672 -64 1254 -64 
C 2125 -64 2675 609 2675 691 
C 2675 729 2637 761 2611 761 
C 2592 761 2586 755 2528 698 
C 2118 159 1510 64 1267 64 
C 902 64 710 349 710 818 
C 710 907 710 1066 806 1472 
L 1146 1472 
z
M 838 1600 
C 1114 2591 1722 2687 1926 2687 
C 2208 2687 2400 2520 2400 2275 
C 2400 1600 1376 1600 1107 1600 
L 838 1600 
z
" transform="scale(0.015625)"/>
       <path id="CMMI12-67" d="M 2163 811 
C 2138 708 2125 683 2042 587 
C 1779 249 1510 128 1312 128 
C 1101 128 902 293 902 734 
C 902 1072 1094 1787 1235 2075 
C 1421 2432 1709 2687 1978 2687 
C 2400 2687 2483 2164 2483 2126 
L 2464 2036 
L 2163 811 
z
M 2560 2394 
C 2477 2579 2298 2816 1978 2816 
C 1280 2816 486 1941 486 989 
C 486 325 890 0 1299 0 
C 1638 0 1939 268 2054 396 
L 1914 -176 
C 1824 -520 1786 -677 1555 -896 
C 1293 -1152 1050 -1152 909 -1152 
C 717 -1152 557 -1140 397 -1090 
C 602 -1034 653 -858 653 -789 
C 653 -689 576 -589 435 -589 
C 282 -589 115 -714 115 -921 
C 115 -1178 378 -1280 922 -1280 
C 1747 -1280 2176 -758 2259 -420 
L 2970 2426 
C 2989 2502 2989 2515 2989 2528 
C 2989 2617 2918 2688 2822 2688 
C 2669 2688 2579 2560 2560 2388 
L 2560 2394 
z
" transform="scale(0.015625)"/>
      </defs>
      <use xlink:href="#CMMI12-66" transform="scale(0.996264)"/>
      <use xlink:href="#CMMI12-72" transform="translate(58.720305 0) scale(0.996264)"/>
      <use xlink:href="#CMMI12-65" transform="translate(105.390917 0) scale(0.996264)"/>
      <use xlink:href="#CMMI12-65" transform="translate(150.602918 0) scale(0.996264)"/>
      <use xlink:href="#CMMI12-7a" transform="translate(195.814919 0) scale(0.996264)"/>
      <use xlink:href="#CMMI12-69" transform="translate(245.570064 0) scale(0.996264)"/>
      <use xlink:href="#CMMI12-6e" transform="translate(278.848666 0) scale(0.996264)"/>
      <use xlink:href="#CMMI12-67" transform="translate(337.078713 0) scale(0.996264)"/>
     </g>
    </g>
   </g>
   <g id="patch_12">
    <path d="M 42.309786 138.8342 
L 42.309786 15.937648 
" style="fill: none; stroke: #000000; stroke-width: 0.8; stroke-linejoin: miter; stroke-linecap: square"/>
   </g>
   <g id="patch_13">
    <path d="M 460.809786 138.8342 
L 460.809786 15.937648 
" style="fill: none; stroke: #000000; stroke-width: 0.8; stroke-linejoin: miter; stroke-linecap: square"/>
   </g>
   <g id="patch_14">
    <path d="M 42.309786 138.8342 
L 460.809786 138.8342 
" style="fill: none; stroke: #000000; stroke-width: 0.8; stroke-linejoin: miter; stroke-linecap: square"/>
   </g>
   <g id="patch_15">
    <path d="M 42.309786 15.937648 
L 460.809786 15.937648 
" style="fill: none; stroke: #000000; stroke-width: 0.8; stroke-linejoin: miter; stroke-linecap: square"/>
   </g>
  </g>
  <g id="axes_4">
   <g id="matplotlib.axis_6">
    <g id="text_20">
     <!-- $non-freezing$ -->
     <g transform="translate(475.457267 254.137611) rotate(-90) scale(0.15 -0.15)">
      <defs>
       <path id="CMMI12-6f" d="M 2918 1755 
C 2918 2362 2522 2816 1939 2816 
C 1094 2816 262 1896 262 996 
C 262 389 659 -64 1242 -64 
C 2093 -64 2918 855 2918 1755 
z
M 1248 64 
C 928 64 691 319 691 766 
C 691 1060 845 1711 1024 2030 
C 1312 2522 1670 2687 1933 2687 
C 2246 2687 2490 2432 2490 1985 
C 2490 1730 2355 1047 2112 657 
C 1850 230 1498 64 1248 64 
z
" transform="scale(0.015625)"/>
       <path id="CMSY10-0" d="M 4218 1472 
C 4326 1472 4442 1472 4442 1600 
C 4442 1728 4326 1728 4218 1728 
L 755 1728 
C 646 1728 531 1728 531 1600 
C 531 1472 646 1472 755 1472 
L 4218 1472 
z
" transform="scale(0.015625)"/>
      </defs>
      <use xlink:href="#CMMI12-6e" transform="scale(0.996264)"/>
      <use xlink:href="#CMMI12-6f" transform="translate(58.230047 0) scale(0.996264)"/>
      <use xlink:href="#CMMI12-6e" transform="translate(105.125357 0) scale(0.996264)"/>
      <use xlink:href="#CMSY10-0" transform="translate(185.494611 0) scale(0.996264)"/>
      <use xlink:href="#CMMI12-66" transform="translate(285.121286 0) scale(0.996264)"/>
      <use xlink:href="#CMMI12-72" transform="translate(343.841591 0) scale(0.996264)"/>
      <use xlink:href="#CMMI12-65" transform="translate(390.512203 0) scale(0.996264)"/>
      <use xlink:href="#CMMI12-65" transform="translate(435.724204 0) scale(0.996264)"/>
      <use xlink:href="#CMMI12-7a" transform="translate(480.936205 0) scale(0.996264)"/>
      <use xlink:href="#CMMI12-69" transform="translate(530.69135 0) scale(0.996264)"/>
      <use xlink:href="#CMMI12-6e" transform="translate(563.969952 0) scale(0.996264)"/>
      <use xlink:href="#CMMI12-67" transform="translate(622.199999 0) scale(0.996264)"/>
     </g>
    </g>
   </g>
   <g id="patch_16">
    <path d="M 42.309786 265.417648 
L 42.309786 142.521097 
" style="fill: none; stroke: #000000; stroke-width: 0.8; stroke-linejoin: miter; stroke-linecap: square"/>
   </g>
   <g id="patch_17">
    <path d="M 460.809786 265.417648 
L 460.809786 142.521097 
" style="fill: none; stroke: #000000; stroke-width: 0.8; stroke-linejoin: miter; stroke-linecap: square"/>
   </g>
   <g id="patch_18">
    <path d="M 42.309786 265.417648 
L 460.809786 265.417648 
" style="fill: none; stroke: #000000; stroke-width: 0.8; stroke-linejoin: miter; stroke-linecap: square"/>
   </g>
   <g id="patch_19">
    <path d="M 42.309786 142.521097 
L 460.809786 142.521097 
" style="fill: none; stroke: #000000; stroke-width: 0.8; stroke-linejoin: miter; stroke-linecap: square"/>
   </g>
  </g>
 </g>
 <defs>
  <clipPath id="p103658c9a0">
   <rect x="42.309786" y="15.937648" width="418.5" height="122.896552"/>
  </clipPath>
  <clipPath id="p64b63e149e">
   <rect x="42.309786" y="142.521097" width="418.5" height="122.896552"/>
  </clipPath>
 </defs>
</svg>
