<?xml version="1.0" encoding="utf-8" standalone="no"?>
<!DOCTYPE svg PUBLIC "-//W3C//DTD SVG 1.1//EN"
  "http://www.w3.org/Graphics/SVG/1.1/DTD/svg11.dtd">
<svg xmlns:xlink="http://www.w3.org/1999/xlink" width="465.238171pt" height="267.93217pt" viewBox="0 0 465.238171 267.93217" xmlns="http://www.w3.org/2000/svg" version="1.1">
 <metadata>
  <rdf:RDF xmlns:dc="http://purl.org/dc/elements/1.1/" xmlns:cc="http://creativecommons.org/ns#" xmlns:rdf="http://www.w3.org/1999/02/22-rdf-syntax-ns#">
   <cc:Work>
    <dc:type rdf:resource="http://purl.org/dc/dcmitype/StillImage"/>
    <dc:date>2024-05-02T07:52:43.917754</dc:date>
    <dc:format>image/svg+xml</dc:format>
    <dc:creator>
     <cc:Agent>
      <dc:title>Matplotlib v3.7.2, https://matplotlib.org/</dc:title>
     </cc:Agent>
    </dc:creator>
   </cc:Work>
  </rdf:RDF>
 </metadata>
 <defs>
  <style type="text/css">*{stroke-linejoin: round; stroke-linecap: butt}</style>
 </defs>
 <g id="figure_1">
  <g id="patch_1">
   <path d="M 0 267.93217 
L 465.238171 267.93217 
L 465.238171 0 
L 0 0 
z
" style="fill: #ffffff"/>
  </g>
  <g id="axes_1">
   <g id="patch_2">
    <path d="M 46.738171 235.23198 
L 252.895807 235.23198 
L 252.895807 13.47198 
L 46.738171 13.47198 
z
" style="fill: #ffffff"/>
   </g>
   <g id="matplotlib.axis_1">
    <g id="xtick_1">
     <g id="line2d_1">
      <defs>
       <path id="maf6911f2fc" d="M 0 0 
L 0 -3.5 
" style="stroke: #000000; stroke-width: 0.8"/>
      </defs>
      <g>
       <use xlink:href="#maf6911f2fc" x="56.108973" y="235.23198" style="stroke: #000000; stroke-width: 0.8"/>
      </g>
     </g>
     <g id="text_1">
      <!-- $\mathdefault{0}$ -->
      <g transform="translate(52.206979 250.089292) scale(0.16 -0.16)">
       <defs>
        <path id="CMR17-30" d="M 2688 2038 
C 2688 2430 2682 3099 2413 3613 
C 2176 4063 1798 4224 1466 4224 
C 1158 4224 768 4082 525 3620 
C 269 3137 243 2539 243 2038 
C 243 1671 250 1112 448 623 
C 723 -39 1216 -128 1466 -128 
C 1760 -128 2208 -7 2470 604 
C 2662 1048 2688 1568 2688 2038 
z
M 1466 -26 
C 1056 -26 813 328 723 816 
C 653 1196 653 1749 653 2109 
C 653 2604 653 3015 736 3407 
C 858 3954 1216 4121 1466 4121 
C 1728 4121 2067 3947 2189 3420 
C 2272 3054 2278 2623 2278 2109 
C 2278 1691 2278 1176 2202 797 
C 2067 96 1690 -26 1466 -26 
z
" transform="scale(0.015625)"/>
       </defs>
       <use xlink:href="#CMR17-30" transform="scale(0.996264)"/>
      </g>
     </g>
    </g>
    <g id="xtick_2">
     <g id="line2d_2">
      <g>
       <use xlink:href="#maf6911f2fc" x="131.075386" y="235.23198" style="stroke: #000000; stroke-width: 0.8"/>
      </g>
     </g>
     <g id="text_2">
      <!-- $\mathdefault{2}$ -->
      <g transform="translate(127.173392 250.089292) scale(0.16 -0.16)">
       <defs>
        <path id="CMR17-32" d="M 2669 990 
L 2554 990 
C 2490 537 2438 460 2413 422 
C 2381 371 1920 371 1830 371 
L 602 371 
C 832 620 1280 1073 1824 1596 
C 2214 1966 2669 2400 2669 3033 
C 2669 3788 2067 4224 1395 4224 
C 691 4224 262 3603 262 3027 
C 262 2777 448 2745 525 2745 
C 589 2745 781 2783 781 3007 
C 781 3206 614 3264 525 3264 
C 486 3264 448 3257 422 3244 
C 544 3788 915 4057 1306 4057 
C 1862 4057 2227 3616 2227 3033 
C 2227 2477 1901 1998 1536 1583 
L 262 147 
L 262 0 
L 2515 0 
L 2669 990 
z
" transform="scale(0.015625)"/>
       </defs>
       <use xlink:href="#CMR17-32" transform="scale(0.996264)"/>
      </g>
     </g>
    </g>
    <g id="xtick_3">
     <g id="line2d_3">
      <g>
       <use xlink:href="#maf6911f2fc" x="206.041799" y="235.23198" style="stroke: #000000; stroke-width: 0.8"/>
      </g>
     </g>
     <g id="text_3">
      <!-- $\mathdefault{4}$ -->
      <g transform="translate(202.139805 250.089292) scale(0.16 -0.16)">
       <defs>
        <path id="CMR17-34" d="M 2150 4147 
C 2150 4281 2144 4288 2029 4288 
L 128 1254 
L 128 1088 
L 1779 1088 
L 1779 460 
C 1779 230 1766 166 1318 166 
L 1197 166 
L 1197 0 
C 1402 12 1747 12 1965 12 
C 2182 12 2528 12 2733 0 
L 2733 166 
L 2611 166 
C 2163 166 2150 230 2150 460 
L 2150 1088 
L 2803 1088 
L 2803 1254 
L 2150 1254 
L 2150 4147 
z
M 1798 3723 
L 1798 1254 
L 256 1254 
L 1798 3723 
z
" transform="scale(0.015625)"/>
       </defs>
       <use xlink:href="#CMR17-34" transform="scale(0.996264)"/>
      </g>
     </g>
    </g>
    <g id="text_4">
     <!-- $\Omega/\omega$ -->
     <g transform="translate(137.218998 264.445246) scale(0.14 -0.14)">
      <defs>
       <path id="CMR17-a" d="M 4038 935 
L 3923 935 
C 3866 640 3846 563 3814 461 
C 3782 364 3763 313 3392 313 
L 2874 313 
C 2944 685 3098 961 3366 1390 
C 3699 1935 3974 2377 3974 2909 
C 3974 3775 3155 4480 2138 4480 
C 1094 4480 294 3768 294 2909 
C 294 2377 576 1922 890 1416 
C 1171 961 1325 685 1395 313 
L 877 313 
C 512 313 493 364 461 454 
C 422 557 410 640 346 935 
L 230 935 
L 416 0 
L 1382 0 
C 1517 0 1523 6 1523 102 
C 1523 557 1286 1153 1178 1428 
C 973 1928 781 2416 781 2916 
C 781 3871 1466 4377 2131 4377 
C 2829 4377 3488 3852 3488 2916 
C 3488 2422 3315 1980 3078 1396 
C 2976 1134 2746 550 2746 102 
C 2746 0 2752 0 2886 0 
L 3853 0 
L 4038 935 
z
" transform="scale(0.015625)"/>
       <path id="CMMI12-3d" d="M 2746 4563 
C 2746 4569 2784 4665 2784 4678 
C 2784 4755 2720 4800 2669 4800 
C 2637 4800 2579 4800 2528 4659 
L 384 -1364 
C 384 -1370 346 -1466 346 -1479 
C 346 -1556 410 -1600 461 -1600 
C 499 -1600 557 -1594 602 -1460 
L 2746 4563 
z
" transform="scale(0.015625)"/>
       <path id="CMMI12-21" d="M 3802 2406 
C 3802 2592 3750 2828 3526 2828 
C 3398 2828 3251 2668 3251 2540 
C 3251 2483 3277 2444 3328 2387 
C 3424 2278 3546 2105 3546 1804 
C 3546 1574 3405 1209 3302 1011 
C 3123 659 2829 358 2496 358 
C 2093 358 1939 614 1869 972 
C 1939 1139 2086 1555 2086 1721 
C 2086 1792 2061 1849 1978 1849 
C 1933 1849 1882 1824 1850 1772 
C 1760 1632 1677 1126 1683 992 
C 1562 755 1216 358 806 358 
C 378 358 262 736 262 1100 
C 262 1766 678 2348 794 2508 
C 858 2604 902 2668 902 2681 
C 902 2726 877 2796 819 2796 
C 717 2796 685 2713 634 2636 
C 307 2131 77 1420 77 806 
C 77 409 224 -64 704 -64 
C 1235 -64 1568 390 1702 633 
C 1754 275 1946 -64 2413 -64 
C 2899 -64 3206 364 3437 883 
C 3603 1254 3802 2054 3802 2406 
z
" transform="scale(0.015625)"/>
      </defs>
      <use xlink:href="#CMR17-a" transform="scale(0.996264)"/>
      <use xlink:href="#CMMI12-3d" transform="translate(66.509881 0) scale(0.996264)"/>
      <use xlink:href="#CMMI12-21" transform="translate(115.284799 0) scale(0.996264)"/>
     </g>
    </g>
   </g>
   <g id="matplotlib.axis_2">
    <g id="ytick_1">
     <g id="line2d_4">
      <defs>
       <path id="m1bb6714310" d="M 0 0 
L 3.5 0 
" style="stroke: #000000; stroke-width: 0.8"/>
      </defs>
      <g>
       <use xlink:href="#m1bb6714310" x="46.738171" y="209.642822" style="stroke: #000000; stroke-width: 0.8"/>
      </g>
     </g>
     <g id="text_5">
      <!-- $\mathdefault{10^{-2}}$ -->
      <g transform="translate(13.372582 215.321478) scale(0.16 -0.16)">
       <defs>
        <path id="CMR17-31" d="M 1702 4083 
C 1702 4217 1696 4224 1606 4224 
C 1357 3927 979 3833 621 3820 
C 602 3820 570 3820 563 3808 
C 557 3795 557 3782 557 3648 
C 755 3648 1088 3686 1344 3839 
L 1344 467 
C 1344 243 1331 166 781 166 
L 589 166 
L 589 0 
C 896 6 1216 12 1523 12 
C 1830 12 2150 6 2458 0 
L 2458 166 
L 2266 166 
C 1715 166 1702 236 1702 467 
L 1702 4083 
z
" transform="scale(0.015625)"/>
        <path id="CMSY10-0" d="M 4218 1472 
C 4326 1472 4442 1472 4442 1600 
C 4442 1728 4326 1728 4218 1728 
L 755 1728 
C 646 1728 531 1728 531 1600 
C 531 1472 646 1472 755 1472 
L 4218 1472 
z
" transform="scale(0.015625)"/>
       </defs>
       <use xlink:href="#CMR17-31" transform="scale(0.996264)"/>
       <use xlink:href="#CMR17-30" transform="translate(45.690477 0) scale(0.996264)"/>
       <use xlink:href="#CMSY10-0" transform="translate(91.380954 36.153639) scale(0.697382)"/>
       <use xlink:href="#CMR17-32" transform="translate(145.621947 36.153639) scale(0.697382)"/>
      </g>
     </g>
    </g>
    <g id="ytick_2">
     <g id="line2d_5">
      <g>
       <use xlink:href="#m1bb6714310" x="46.738171" y="163.962232" style="stroke: #000000; stroke-width: 0.8"/>
      </g>
     </g>
     <g id="text_6">
      <!-- $\mathdefault{10^{-1}}$ -->
      <g transform="translate(13.372582 169.640888) scale(0.16 -0.16)">
       <use xlink:href="#CMR17-31" transform="scale(0.996264)"/>
       <use xlink:href="#CMR17-30" transform="translate(45.690477 0) scale(0.996264)"/>
       <use xlink:href="#CMSY10-0" transform="translate(91.380954 36.153639) scale(0.697382)"/>
       <use xlink:href="#CMR17-31" transform="translate(145.621947 36.153639) scale(0.697382)"/>
      </g>
     </g>
    </g>
    <g id="ytick_3">
     <g id="line2d_6">
      <g>
       <use xlink:href="#m1bb6714310" x="46.738171" y="118.281642" style="stroke: #000000; stroke-width: 0.8"/>
      </g>
     </g>
     <g id="text_7">
      <!-- $\mathdefault{10^{0}}$ -->
      <g transform="translate(22.051128 123.960299) scale(0.16 -0.16)">
       <use xlink:href="#CMR17-31" transform="scale(0.996264)"/>
       <use xlink:href="#CMR17-30" transform="translate(45.690477 0) scale(0.996264)"/>
       <use xlink:href="#CMR17-30" transform="translate(91.380954 36.153639) scale(0.697382)"/>
      </g>
     </g>
    </g>
    <g id="ytick_4">
     <g id="line2d_7">
      <g>
       <use xlink:href="#m1bb6714310" x="46.738171" y="72.601053" style="stroke: #000000; stroke-width: 0.8"/>
      </g>
     </g>
     <g id="text_8">
      <!-- $\mathdefault{10^{1}}$ -->
      <g transform="translate(22.051128 78.279709) scale(0.16 -0.16)">
       <use xlink:href="#CMR17-31" transform="scale(0.996264)"/>
       <use xlink:href="#CMR17-30" transform="translate(45.690477 0) scale(0.996264)"/>
       <use xlink:href="#CMR17-31" transform="translate(91.380954 36.153639) scale(0.697382)"/>
      </g>
     </g>
    </g>
    <g id="ytick_5">
     <g id="line2d_8">
      <g>
       <use xlink:href="#m1bb6714310" x="46.738171" y="26.920463" style="stroke: #000000; stroke-width: 0.8"/>
      </g>
     </g>
     <g id="text_9">
      <!-- $\mathdefault{10^{2}}$ -->
      <g transform="translate(22.051128 32.599119) scale(0.16 -0.16)">
       <use xlink:href="#CMR17-31" transform="scale(0.996264)"/>
       <use xlink:href="#CMR17-30" transform="translate(45.690477 0) scale(0.996264)"/>
       <use xlink:href="#CMR17-32" transform="translate(91.380954 36.153639) scale(0.697382)"/>
      </g>
     </g>
    </g>
    <g id="ytick_6">
     <g id="line2d_9">
      <defs>
       <path id="me69eb091b0" d="M 0 0 
L 2 0 
" style="stroke: #000000; stroke-width: 0.6"/>
      </defs>
      <g>
       <use xlink:href="#me69eb091b0" x="46.738171" y="233.528231" style="stroke: #000000; stroke-width: 0.6"/>
      </g>
     </g>
    </g>
    <g id="ytick_7">
     <g id="line2d_10">
      <g>
       <use xlink:href="#me69eb091b0" x="46.738171" y="227.820956" style="stroke: #000000; stroke-width: 0.6"/>
      </g>
     </g>
    </g>
    <g id="ytick_8">
     <g id="line2d_11">
      <g>
       <use xlink:href="#me69eb091b0" x="46.738171" y="223.39405" style="stroke: #000000; stroke-width: 0.6"/>
      </g>
     </g>
    </g>
    <g id="ytick_9">
     <g id="line2d_12">
      <g>
       <use xlink:href="#me69eb091b0" x="46.738171" y="219.777004" style="stroke: #000000; stroke-width: 0.6"/>
      </g>
     </g>
    </g>
    <g id="ytick_10">
     <g id="line2d_13">
      <g>
       <use xlink:href="#me69eb091b0" x="46.738171" y="216.718835" style="stroke: #000000; stroke-width: 0.6"/>
      </g>
     </g>
    </g>
    <g id="ytick_11">
     <g id="line2d_14">
      <g>
       <use xlink:href="#me69eb091b0" x="46.738171" y="214.069729" style="stroke: #000000; stroke-width: 0.6"/>
      </g>
     </g>
    </g>
    <g id="ytick_12">
     <g id="line2d_15">
      <g>
       <use xlink:href="#me69eb091b0" x="46.738171" y="211.733051" style="stroke: #000000; stroke-width: 0.6"/>
      </g>
     </g>
    </g>
    <g id="ytick_13">
     <g id="line2d_16">
      <g>
       <use xlink:href="#me69eb091b0" x="46.738171" y="195.891594" style="stroke: #000000; stroke-width: 0.6"/>
      </g>
     </g>
    </g>
    <g id="ytick_14">
     <g id="line2d_17">
      <g>
       <use xlink:href="#me69eb091b0" x="46.738171" y="187.847642" style="stroke: #000000; stroke-width: 0.6"/>
      </g>
     </g>
    </g>
    <g id="ytick_15">
     <g id="line2d_18">
      <g>
       <use xlink:href="#me69eb091b0" x="46.738171" y="182.140366" style="stroke: #000000; stroke-width: 0.6"/>
      </g>
     </g>
    </g>
    <g id="ytick_16">
     <g id="line2d_19">
      <g>
       <use xlink:href="#me69eb091b0" x="46.738171" y="177.71346" style="stroke: #000000; stroke-width: 0.6"/>
      </g>
     </g>
    </g>
    <g id="ytick_17">
     <g id="line2d_20">
      <g>
       <use xlink:href="#me69eb091b0" x="46.738171" y="174.096414" style="stroke: #000000; stroke-width: 0.6"/>
      </g>
     </g>
    </g>
    <g id="ytick_18">
     <g id="line2d_21">
      <g>
       <use xlink:href="#me69eb091b0" x="46.738171" y="171.038245" style="stroke: #000000; stroke-width: 0.6"/>
      </g>
     </g>
    </g>
    <g id="ytick_19">
     <g id="line2d_22">
      <g>
       <use xlink:href="#me69eb091b0" x="46.738171" y="168.389139" style="stroke: #000000; stroke-width: 0.6"/>
      </g>
     </g>
    </g>
    <g id="ytick_20">
     <g id="line2d_23">
      <g>
       <use xlink:href="#me69eb091b0" x="46.738171" y="166.052461" style="stroke: #000000; stroke-width: 0.6"/>
      </g>
     </g>
    </g>
    <g id="ytick_21">
     <g id="line2d_24">
      <g>
       <use xlink:href="#me69eb091b0" x="46.738171" y="150.211004" style="stroke: #000000; stroke-width: 0.6"/>
      </g>
     </g>
    </g>
    <g id="ytick_22">
     <g id="line2d_25">
      <g>
       <use xlink:href="#me69eb091b0" x="46.738171" y="142.167052" style="stroke: #000000; stroke-width: 0.6"/>
      </g>
     </g>
    </g>
    <g id="ytick_23">
     <g id="line2d_26">
      <g>
       <use xlink:href="#me69eb091b0" x="46.738171" y="136.459777" style="stroke: #000000; stroke-width: 0.6"/>
      </g>
     </g>
    </g>
    <g id="ytick_24">
     <g id="line2d_27">
      <g>
       <use xlink:href="#me69eb091b0" x="46.738171" y="132.03287" style="stroke: #000000; stroke-width: 0.6"/>
      </g>
     </g>
    </g>
    <g id="ytick_25">
     <g id="line2d_28">
      <g>
       <use xlink:href="#me69eb091b0" x="46.738171" y="128.415824" style="stroke: #000000; stroke-width: 0.6"/>
      </g>
     </g>
    </g>
    <g id="ytick_26">
     <g id="line2d_29">
      <g>
       <use xlink:href="#me69eb091b0" x="46.738171" y="125.357655" style="stroke: #000000; stroke-width: 0.6"/>
      </g>
     </g>
    </g>
    <g id="ytick_27">
     <g id="line2d_30">
      <g>
       <use xlink:href="#me69eb091b0" x="46.738171" y="122.708549" style="stroke: #000000; stroke-width: 0.6"/>
      </g>
     </g>
    </g>
    <g id="ytick_28">
     <g id="line2d_31">
      <g>
       <use xlink:href="#me69eb091b0" x="46.738171" y="120.371871" style="stroke: #000000; stroke-width: 0.6"/>
      </g>
     </g>
    </g>
    <g id="ytick_29">
     <g id="line2d_32">
      <g>
       <use xlink:href="#me69eb091b0" x="46.738171" y="104.530415" style="stroke: #000000; stroke-width: 0.6"/>
      </g>
     </g>
    </g>
    <g id="ytick_30">
     <g id="line2d_33">
      <g>
       <use xlink:href="#me69eb091b0" x="46.738171" y="96.486462" style="stroke: #000000; stroke-width: 0.6"/>
      </g>
     </g>
    </g>
    <g id="ytick_31">
     <g id="line2d_34">
      <g>
       <use xlink:href="#me69eb091b0" x="46.738171" y="90.779187" style="stroke: #000000; stroke-width: 0.6"/>
      </g>
     </g>
    </g>
    <g id="ytick_32">
     <g id="line2d_35">
      <g>
       <use xlink:href="#me69eb091b0" x="46.738171" y="86.35228" style="stroke: #000000; stroke-width: 0.6"/>
      </g>
     </g>
    </g>
    <g id="ytick_33">
     <g id="line2d_36">
      <g>
       <use xlink:href="#me69eb091b0" x="46.738171" y="82.735234" style="stroke: #000000; stroke-width: 0.6"/>
      </g>
     </g>
    </g>
    <g id="ytick_34">
     <g id="line2d_37">
      <g>
       <use xlink:href="#me69eb091b0" x="46.738171" y="79.677065" style="stroke: #000000; stroke-width: 0.6"/>
      </g>
     </g>
    </g>
    <g id="ytick_35">
     <g id="line2d_38">
      <g>
       <use xlink:href="#me69eb091b0" x="46.738171" y="77.027959" style="stroke: #000000; stroke-width: 0.6"/>
      </g>
     </g>
    </g>
    <g id="ytick_36">
     <g id="line2d_39">
      <g>
       <use xlink:href="#me69eb091b0" x="46.738171" y="74.691282" style="stroke: #000000; stroke-width: 0.6"/>
      </g>
     </g>
    </g>
    <g id="ytick_37">
     <g id="line2d_40">
      <g>
       <use xlink:href="#me69eb091b0" x="46.738171" y="58.849825" style="stroke: #000000; stroke-width: 0.6"/>
      </g>
     </g>
    </g>
    <g id="ytick_38">
     <g id="line2d_41">
      <g>
       <use xlink:href="#me69eb091b0" x="46.738171" y="50.805872" style="stroke: #000000; stroke-width: 0.6"/>
      </g>
     </g>
    </g>
    <g id="ytick_39">
     <g id="line2d_42">
      <g>
       <use xlink:href="#me69eb091b0" x="46.738171" y="45.098597" style="stroke: #000000; stroke-width: 0.6"/>
      </g>
     </g>
    </g>
    <g id="ytick_40">
     <g id="line2d_43">
      <g>
       <use xlink:href="#me69eb091b0" x="46.738171" y="40.67169" style="stroke: #000000; stroke-width: 0.6"/>
      </g>
     </g>
    </g>
    <g id="ytick_41">
     <g id="line2d_44">
      <g>
       <use xlink:href="#me69eb091b0" x="46.738171" y="37.054644" style="stroke: #000000; stroke-width: 0.6"/>
      </g>
     </g>
    </g>
    <g id="ytick_42">
     <g id="line2d_45">
      <g>
       <use xlink:href="#me69eb091b0" x="46.738171" y="33.996476" style="stroke: #000000; stroke-width: 0.6"/>
      </g>
     </g>
    </g>
    <g id="ytick_43">
     <g id="line2d_46">
      <g>
       <use xlink:href="#me69eb091b0" x="46.738171" y="31.347369" style="stroke: #000000; stroke-width: 0.6"/>
      </g>
     </g>
    </g>
    <g id="ytick_44">
     <g id="line2d_47">
      <g>
       <use xlink:href="#me69eb091b0" x="46.738171" y="29.010692" style="stroke: #000000; stroke-width: 0.6"/>
      </g>
     </g>
    </g>
    <g id="text_10">
     <!-- $M^z_{A}$ -->
     <g transform="translate(9.530925 134.720295) rotate(-90) scale(0.14 -0.14)">
      <defs>
       <path id="CMMI12-4d" d="M 5811 3886 
C 5869 4102 5882 4166 6336 4166 
C 6458 4166 6515 4166 6515 4287 
C 6515 4352 6470 4352 6349 4352 
L 5581 4352 
C 5421 4352 5414 4345 5344 4243 
L 3008 567 
L 2528 4211 
C 2509 4352 2502 4352 2336 4352 
L 1542 4352 
C 1421 4352 1363 4352 1363 4230 
C 1363 4166 1421 4166 1517 4166 
C 1907 4166 1907 4115 1907 4045 
C 1907 4032 1907 3994 1882 3898 
L 1062 650 
C 986 344 838 204 410 185 
C 390 185 314 179 314 70 
C 314 0 371 0 397 0 
C 525 0 851 12 979 12 
L 1286 12 
C 1376 12 1485 0 1574 0 
C 1619 0 1690 0 1690 121 
C 1690 179 1626 185 1600 185 
C 1389 191 1184 230 1184 459 
C 1184 523 1184 529 1210 618 
L 2093 4128 
L 2099 4128 
L 2630 172 
C 2650 19 2656 0 2714 0 
C 2784 0 2816 51 2848 108 
L 5421 4159 
L 5427 4159 
L 4499 472 
C 4442 249 4429 185 3981 185 
C 3859 185 3795 185 3795 70 
C 3795 0 3853 0 3891 0 
C 4000 0 4128 12 4237 12 
L 4992 12 
C 5101 12 5235 0 5344 0 
C 5395 0 5466 0 5466 121 
C 5466 185 5408 185 5312 185 
C 4922 185 4922 236 4922 300 
C 4922 306 4922 351 4934 402 
L 5811 3886 
z
" transform="scale(0.015625)"/>
       <path id="CMMI12-7a" d="M 813 486 
C 1088 809 1312 1015 1632 1313 
C 2016 1657 2182 1822 2272 1922 
C 2720 2371 2944 2713 2944 2764 
C 2944 2816 2893 2816 2880 2816 
C 2835 2816 2822 2790 2790 2745 
C 2630 2470 2477 2368 2310 2368 
C 2176 2368 2106 2403 1984 2547 
C 1850 2707 1741 2816 1555 2816 
C 1088 2816 806 2265 806 2127 
C 806 2107 813 2067 870 2067 
C 922 2067 928 2094 947 2140 
C 1056 2387 1363 2415 1485 2415 
C 1619 2415 1747 2387 1882 2342 
C 2125 2239 2227 2239 2291 2239 
C 2336 2239 2362 2239 2394 2246 
C 2182 1988 1837 1670 1549 1399 
L 902 783 
C 512 380 275 32 275 -13 
C 275 -52 307 -64 346 -64 
C 384 -64 390 -58 435 19 
C 538 179 742 384 979 384 
C 1114 384 1178 356 1306 211 
C 1427 70 1536 -64 1741 -64 
C 2368 -64 2726 723 2726 876 
C 2726 902 2720 942 2656 942 
C 2605 942 2598 915 2579 849 
C 2438 460 2061 336 1811 336 
C 1677 336 1549 364 1414 409 
C 1158 512 1088 512 1005 512 
C 941 512 870 512 813 486 
z
" transform="scale(0.015625)"/>
       <path id="CMMI12-41" d="M 1088 720 
C 864 335 646 205 339 185 
C 269 179 218 179 218 64 
C 218 25 250 0 294 0 
C 410 0 698 12 813 12 
C 998 12 1203 0 1382 0 
C 1421 0 1498 0 1498 121 
C 1498 179 1446 185 1408 185 
C 1261 198 1139 250 1139 407 
C 1139 498 1178 570 1261 714 
L 1747 1536 
L 3379 1536 
C 3386 1477 3386 1425 3392 1366 
C 3411 1196 3488 518 3488 394 
C 3488 198 3162 185 3059 185 
C 2989 185 2918 185 2918 70 
C 2918 0 2976 0 3014 0 
C 3123 0 3251 12 3360 12 
L 3725 12 
C 4115 12 4397 0 4403 0 
C 4448 0 4518 0 4518 121 
C 4518 185 4461 185 4365 185 
C 4013 185 4006 244 3987 440 
L 3597 4403 
C 3584 4531 3558 4544 3488 4544 
C 3424 4544 3386 4531 3328 4435 
L 1088 720 
z
M 1856 1721 
L 3142 3831 
L 3360 1721 
L 1856 1721 
z
" transform="scale(0.015625)"/>
      </defs>
      <use xlink:href="#CMMI12-4d" transform="scale(0.996264)"/>
      <use xlink:href="#CMMI12-7a" transform="translate(104.780079 36.153639) scale(0.697382)"/>
      <use xlink:href="#CMMI12-41" transform="translate(94.373425 -27.44057) scale(0.697382)"/>
     </g>
    </g>
   </g>
   <g id="line2d_48">
    <path d="M 56.108973 83.361498 
L 57.983133 147.892261 
L 59.857293 143.037886 
L 61.731454 119.75785 
L 63.605614 139.92227 
L 65.479774 145.436849 
L 67.353935 146.261572 
L 69.228095 132.868737 
L 71.102255 156.820337 
L 72.976416 144.212592 
L 74.850576 23.55198 
L 76.724736 162.449347 
L 78.598897 153.787364 
L 80.473057 136.265882 
L 82.347217 171.871119 
L 84.221378 161.581313 
L 86.095538 149.959514 
L 87.969698 125.844493 
L 89.843859 145.751087 
L 91.718019 151.389983 
L 93.592179 91.107546 
L 95.46634 146.325578 
L 97.3405 155.553945 
L 99.21466 131.596454 
L 101.088821 148.941639 
L 102.962981 154.607653 
L 104.837141 155.876559 
L 106.711302 141.305562 
L 108.585462 178.824 
L 110.459622 166.843593 
L 112.333782 56.199438 
L 114.207943 174.747528 
L 116.082103 173.37669 
L 117.956263 169.073488 
L 119.830424 172.275568 
L 121.704584 168.379134 
L 123.578744 160.775868 
L 125.452905 139.421469 
L 127.327065 162.730134 
L 129.201225 166.125507 
L 131.075386 107.99825 
L 132.949546 159.034462 
L 134.823706 168.519393 
L 136.697867 148.915641 
L 138.572027 166.497039 
L 140.446187 175.075971 
L 142.320348 180.044676 
L 146.068668 184.919444 
L 147.942829 182.695611 
L 149.816989 98.014989 
L 151.691149 158.636099 
L 153.56531 191.551623 
L 155.43947 195.650779 
L 157.31363 195.490624 
L 159.187791 196.545561 
L 161.061951 195.906168 
L 162.936111 189.490604 
L 164.810272 211.523991 
L 166.684432 207.021983 
L 168.558592 194.886726 
L 170.432752 217.793744 
L 172.306913 214.634913 
L 174.181073 193.63204 
L 176.055233 200.05877 
L 177.929394 202.880303 
L 179.803554 202.864105 
L 181.677714 202.28003 
L 183.551875 200.336617 
L 185.426035 186.651787 
L 187.300195 114.222016 
L 189.174356 163.496793 
L 191.048516 201.803368 
L 192.922676 198.498078 
L 194.796837 198.238885 
L 196.670997 195.291868 
L 198.545157 188.766716 
L 200.419318 173.305643 
L 202.293478 209.251168 
L 204.167638 184.79575 
L 206.041799 139.976656 
L 207.915959 156.000889 
L 209.790119 188.05934 
L 211.66428 180.814274 
L 213.53844 180.981419 
L 215.4126 191.345966 
L 217.286761 195.923739 
L 219.160921 196.662234 
L 221.035081 202.478269 
L 222.909241 203.318786 
L 224.783402 137.546847 
L 226.657562 140.582298 
L 228.531722 193.654365 
L 230.405883 203.499402 
L 232.280043 201.625084 
L 234.154203 205.23467 
L 236.028364 205.311586 
L 237.902524 201.775978 
L 239.776684 207.473988 
L 241.650845 217.888587 
L 243.525005 216.680736 
L 241.650845 217.888587 
L 239.776684 207.473988 
L 237.902524 201.775978 
L 236.028364 205.311586 
L 234.154203 205.23467 
L 232.280043 201.625084 
L 230.405883 203.499402 
L 228.531722 193.654365 
L 226.657562 140.582298 
L 224.783402 137.546847 
L 222.909241 203.318786 
L 221.035081 202.478269 
L 219.160921 196.662234 
L 217.286761 195.923739 
L 215.4126 191.345966 
L 213.53844 180.981419 
L 211.66428 180.814274 
L 209.790119 188.05934 
L 207.915959 156.000889 
L 206.041799 139.976656 
L 204.167638 184.79575 
L 202.293478 209.251168 
L 200.419318 173.305643 
L 198.545157 188.766716 
L 196.670997 195.291868 
L 194.796837 198.238885 
L 192.922676 198.498078 
L 191.048516 201.803368 
L 189.174356 163.496793 
L 187.300195 114.222016 
L 185.426035 186.651787 
L 183.551875 200.336617 
L 181.677714 202.28003 
L 179.803554 202.864105 
L 177.929394 202.880303 
L 176.055233 200.05877 
L 174.181073 193.63204 
L 172.306913 214.634913 
L 170.432752 217.793744 
L 168.558592 194.886726 
L 166.684432 207.021983 
L 164.810272 211.523991 
L 162.936111 189.490604 
L 161.061951 195.906168 
L 159.187791 196.545561 
L 157.31363 195.490624 
L 155.43947 195.650779 
L 153.56531 191.551623 
L 151.691149 158.636099 
L 149.816989 98.014989 
L 147.942829 182.695611 
L 146.068668 184.919444 
L 142.320348 180.044676 
L 140.446187 175.075971 
L 138.572027 166.497039 
L 136.697867 148.915641 
L 134.823706 168.519393 
L 132.949546 159.034462 
L 131.075386 107.99825 
L 129.201225 166.125507 
L 127.327065 162.730134 
L 125.452905 139.421469 
L 123.578744 160.775868 
L 121.704584 168.379134 
L 119.830424 172.275568 
L 117.956263 169.073488 
L 116.082103 173.37669 
L 114.207943 174.747528 
L 112.333782 56.199438 
L 110.459622 166.843593 
L 108.585462 178.824 
L 106.711302 141.305562 
L 104.837141 155.876559 
L 102.962981 154.607653 
L 101.088821 148.941639 
L 99.21466 131.596454 
L 97.3405 155.553945 
L 95.46634 146.325578 
L 93.592179 91.107546 
L 91.718019 151.389983 
L 89.843859 145.751087 
L 87.969698 125.844493 
L 86.095538 149.959514 
L 84.221378 161.581313 
L 82.347217 171.871119 
L 80.473057 136.265882 
L 78.598897 153.787364 
L 76.724736 162.449347 
L 74.850576 23.55198 
L 72.976416 144.212592 
L 71.102255 156.820337 
L 69.228095 132.868737 
L 67.353935 146.261572 
L 65.479774 145.436849 
L 63.605614 139.92227 
L 61.731454 119.75785 
L 59.857293 143.037886 
L 57.983133 147.892261 
L 57.983133 147.892261 
" clip-path="url(#pb95a8826fb)" style="fill: none; stroke: #1f77b4; stroke-width: 1.5; stroke-linecap: square"/>
   </g>
   <g id="line2d_49">
    <path d="M 56.108973 73.74578 
L 57.983133 95.908759 
L 59.857293 110.642086 
L 61.731454 112.663848 
L 63.605614 115.77366 
L 65.479774 116.014479 
L 67.353935 114.48691 
L 69.228095 110.796887 
L 71.102255 105.672197 
L 72.976416 91.604388 
L 74.850576 24.267697 
L 76.724736 105.408664 
L 78.598897 123.810048 
L 80.473057 134.328201 
L 82.347217 153.101579 
L 84.221378 194.678059 
L 86.095538 149.264905 
L 87.969698 132.572147 
L 89.843859 125.668106 
L 91.718019 104.886576 
L 93.592179 80.16637 
L 95.46634 101.76033 
L 97.3405 116.507203 
L 99.21466 121.087 
L 101.088821 126.680116 
L 102.962981 129.882921 
L 104.837141 131.42271 
L 106.711302 130.435686 
L 108.585462 128.549537 
L 110.459622 115.899707 
L 112.333782 56.582249 
L 114.207943 125.732457 
L 116.082103 135.349802 
L 117.956263 141.18441 
L 119.830424 144.489306 
L 121.704584 146.107864 
L 123.578744 145.53585 
L 125.452905 141.339655 
L 127.327065 138.721778 
L 129.201225 122.012046 
L 131.075386 98.482986 
L 132.949546 119.617377 
L 134.823706 132.393566 
L 136.697867 136.398733 
L 138.572027 141.093071 
L 140.446187 143.984742 
L 142.320348 145.831995 
L 144.194508 146.749214 
L 146.068668 145.955525 
L 147.942829 140.911364 
L 149.816989 98.633873 
L 151.691149 168.995466 
L 153.56531 158.403683 
L 155.43947 159.32382 
L 161.061951 161.297143 
L 162.936111 161.496801 
L 164.810272 162.914475 
L 166.684432 163.71867 
L 168.558592 167.672846 
L 170.432752 163.550079 
L 172.306913 164.180973 
L 174.181073 164.640859 
L 177.929394 166.315556 
L 181.677714 167.881036 
L 183.551875 168.464045 
L 185.426035 166.203319 
L 187.300195 113.681252 
L 189.174356 186.171754 
L 191.048516 158.870883 
L 192.922676 161.212654 
L 194.796837 162.510732 
L 196.670997 163.194196 
L 198.545157 163.155036 
L 200.419318 161.68192 
L 202.293478 160.479937 
L 204.167638 151.009224 
L 206.041799 131.500752 
L 207.915959 144.143686 
L 209.790119 152.982238 
L 211.66428 157.102959 
L 213.53844 159.390891 
L 215.4126 160.975491 
L 217.286761 161.676477 
L 219.160921 161.689228 
L 221.035081 161.110259 
L 222.909241 158.827331 
L 224.783402 141.10195 
L 226.657562 140.950918 
L 228.531722 169.205552 
L 230.405883 169.137003 
L 232.280043 168.863078 
L 236.028364 168.766094 
L 237.902524 168.611556 
L 239.776684 168.74909 
L 241.650845 169.009248 
L 243.525005 170.628687 
L 241.650845 169.009248 
L 239.776684 168.74909 
L 237.902524 168.611556 
L 234.154203 168.82802 
L 232.280043 168.863078 
L 230.405883 169.137003 
L 228.531722 169.205552 
L 226.657562 140.950918 
L 224.783402 141.10195 
L 222.909241 158.827331 
L 221.035081 161.110259 
L 219.160921 161.689228 
L 217.286761 161.676477 
L 215.4126 160.975491 
L 213.53844 159.390891 
L 211.66428 157.102959 
L 209.790119 152.982238 
L 207.915959 144.143686 
L 206.041799 131.500752 
L 204.167638 151.009224 
L 202.293478 160.479937 
L 200.419318 161.68192 
L 198.545157 163.155036 
L 196.670997 163.194196 
L 194.796837 162.510732 
L 192.922676 161.212654 
L 191.048516 158.870883 
L 189.174356 186.171754 
L 187.300195 113.681252 
L 185.426035 166.203319 
L 183.551875 168.464045 
L 181.677714 167.881036 
L 174.181073 164.640859 
L 172.306913 164.180973 
L 170.432752 163.550079 
L 168.558592 167.672846 
L 166.684432 163.71867 
L 164.810272 162.914475 
L 162.936111 161.496801 
L 161.061951 161.297143 
L 157.31363 160.013702 
L 155.43947 159.32382 
L 153.56531 158.403683 
L 151.691149 168.995466 
L 149.816989 98.633873 
L 147.942829 140.911364 
L 146.068668 145.955525 
L 144.194508 146.749214 
L 142.320348 145.831995 
L 140.446187 143.984742 
L 138.572027 141.093071 
L 136.697867 136.398733 
L 134.823706 132.393566 
L 132.949546 119.617377 
L 131.075386 98.482986 
L 129.201225 122.012046 
L 127.327065 138.721778 
L 125.452905 141.339655 
L 123.578744 145.53585 
L 121.704584 146.107864 
L 119.830424 144.489306 
L 117.956263 141.18441 
L 116.082103 135.349802 
L 114.207943 125.732457 
L 112.333782 56.582249 
L 110.459622 115.899707 
L 108.585462 128.549537 
L 106.711302 130.435686 
L 104.837141 131.42271 
L 102.962981 129.882921 
L 101.088821 126.680116 
L 99.21466 121.087 
L 97.3405 116.507203 
L 95.46634 101.76033 
L 93.592179 80.16637 
L 91.718019 104.886576 
L 89.843859 125.668106 
L 87.969698 132.572147 
L 86.095538 149.264905 
L 84.221378 194.678059 
L 82.347217 153.101579 
L 80.473057 134.328201 
L 78.598897 123.810048 
L 76.724736 105.408664 
L 74.850576 24.267697 
L 72.976416 91.604388 
L 71.102255 105.672197 
L 69.228095 110.796887 
L 67.353935 114.48691 
L 65.479774 116.014479 
L 63.605614 115.77366 
L 61.731454 112.663848 
L 59.857293 110.642086 
L 57.983133 95.908759 
L 57.983133 95.908759 
" clip-path="url(#pb95a8826fb)" style="fill: none; stroke: #ff7f0e; stroke-width: 1.5; stroke-linecap: square"/>
   </g>
   <g id="line2d_50">
    <path d="M 56.108973 74.574865 
L 57.983133 96.054615 
L 59.857293 109.584659 
L 61.731454 112.692153 
L 63.605614 114.618558 
L 65.479774 114.25423 
L 67.353935 112.321352 
L 69.228095 108.478539 
L 71.102255 102.598803 
L 72.976416 88.35866 
L 74.850576 24.463909 
L 76.724736 100.296874 
L 78.598897 117.16223 
L 80.473057 128.173809 
L 82.347217 141.68802 
L 84.221378 164.860684 
L 86.095538 161.248054 
L 87.969698 137.956382 
L 89.843859 126.309464 
L 91.718019 105.370146 
L 93.592179 80.57018 
L 95.46634 101.438472 
L 97.3405 115.501839 
L 99.21466 121.216531 
L 101.088821 126.189417 
L 102.962981 129.180544 
L 104.837141 130.590414 
L 106.711302 129.650629 
L 108.585462 126.466473 
L 110.459622 113.283784 
L 112.333782 56.703019 
L 114.207943 121.726401 
L 116.082103 131.524857 
L 117.956263 137.76681 
L 119.830424 141.755308 
L 121.704584 144.3055 
L 123.578744 145.312016 
L 125.452905 143.246989 
L 127.327065 138.989274 
L 129.201225 123.003774 
L 131.075386 99.331803 
L 132.949546 119.422683 
L 134.823706 131.095357 
L 136.697867 135.83969 
L 138.572027 139.744811 
L 140.446187 142.176014 
L 142.320348 143.70612 
L 144.194508 144.32798 
L 146.068668 143.341227 
L 147.942829 138.090356 
L 149.816989 98.738136 
L 151.691149 169.806465 
L 153.56531 155.84379 
L 155.43947 156.681911 
L 159.187791 157.94394 
L 161.061951 158.507207 
L 162.936111 158.879126 
L 164.810272 159.867664 
L 166.684432 160.523223 
L 168.558592 164.393868 
L 170.432752 160.819964 
L 172.306913 161.301667 
L 174.181073 161.956346 
L 179.803554 164.423963 
L 183.551875 166.355556 
L 185.426035 164.684739 
L 187.300195 113.534863 
L 189.174356 172.43961 
L 191.048516 155.308722 
L 192.922676 157.795533 
L 194.796837 159.304994 
L 196.670997 160.232918 
L 198.545157 160.71737 
L 200.419318 160.349672 
L 202.293478 159.261103 
L 204.167638 151.493898 
L 206.041799 132.848271 
L 207.915959 145.246016 
L 209.790119 151.899952 
L 211.66428 155.664232 
L 213.53844 157.51146 
L 215.4126 158.550921 
L 217.286761 158.950648 
L 219.160921 158.800427 
L 221.035081 158.00857 
L 222.909241 155.620197 
L 224.783402 141.849425 
L 226.657562 140.972837 
L 228.531722 166.753227 
L 232.280043 166.011813 
L 237.902524 165.623637 
L 241.650845 165.785281 
L 243.525005 167.124644 
L 241.650845 165.785281 
L 237.902524 165.623637 
L 232.280043 166.011813 
L 228.531722 166.753227 
L 226.657562 140.972837 
L 224.783402 141.849425 
L 222.909241 155.620197 
L 221.035081 158.00857 
L 219.160921 158.800427 
L 217.286761 158.950648 
L 215.4126 158.550921 
L 213.53844 157.51146 
L 211.66428 155.664232 
L 209.790119 151.899952 
L 207.915959 145.246016 
L 206.041799 132.848271 
L 204.167638 151.493898 
L 202.293478 159.261103 
L 200.419318 160.349672 
L 198.545157 160.71737 
L 196.670997 160.232918 
L 194.796837 159.304994 
L 192.922676 157.795533 
L 191.048516 155.308722 
L 189.174356 172.43961 
L 187.300195 113.534863 
L 185.426035 164.684739 
L 183.551875 166.355556 
L 177.929394 163.544733 
L 174.181073 161.956346 
L 172.306913 161.301667 
L 170.432752 160.819964 
L 168.558592 164.393868 
L 166.684432 160.523223 
L 164.810272 159.867664 
L 162.936111 158.879126 
L 161.061951 158.507207 
L 157.31363 157.332908 
L 155.43947 156.681911 
L 153.56531 155.84379 
L 151.691149 169.806465 
L 149.816989 98.738136 
L 147.942829 138.090356 
L 146.068668 143.341227 
L 144.194508 144.32798 
L 142.320348 143.70612 
L 140.446187 142.176014 
L 138.572027 139.744811 
L 136.697867 135.83969 
L 134.823706 131.095357 
L 132.949546 119.422683 
L 131.075386 99.331803 
L 129.201225 123.003774 
L 127.327065 138.989274 
L 125.452905 143.246989 
L 123.578744 145.312016 
L 121.704584 144.3055 
L 119.830424 141.755308 
L 117.956263 137.76681 
L 116.082103 131.524857 
L 114.207943 121.726401 
L 112.333782 56.703019 
L 110.459622 113.283784 
L 108.585462 126.466473 
L 106.711302 129.650629 
L 104.837141 130.590414 
L 102.962981 129.180544 
L 101.088821 126.189417 
L 99.21466 121.216531 
L 97.3405 115.501839 
L 95.46634 101.438472 
L 93.592179 80.57018 
L 91.718019 105.370146 
L 89.843859 126.309464 
L 87.969698 137.956382 
L 86.095538 161.248054 
L 84.221378 164.860684 
L 82.347217 141.68802 
L 80.473057 128.173809 
L 78.598897 117.16223 
L 76.724736 100.296874 
L 74.850576 24.463909 
L 72.976416 88.35866 
L 71.102255 102.598803 
L 69.228095 108.478539 
L 67.353935 112.321352 
L 65.479774 114.25423 
L 63.605614 114.618558 
L 61.731454 112.692153 
L 59.857293 109.584659 
L 57.983133 96.054615 
L 57.983133 96.054615 
" clip-path="url(#pb95a8826fb)" style="fill: none; stroke: #2ca02c; stroke-width: 1.5; stroke-linecap: square"/>
   </g>
   <g id="line2d_51">
    <path d="M 56.108973 75.930814 
L 57.983133 97.31605 
L 59.857293 109.903302 
L 61.731454 113.188149 
L 63.605614 114.358985 
L 65.479774 113.581751 
L 67.353935 111.347027 
L 69.228095 107.340023 
L 71.102255 101.044259 
L 72.976416 86.69008 
L 74.850576 24.582393 
L 76.724736 97.514853 
L 78.598897 113.596085 
L 82.347217 135.665962 
L 84.221378 150.810841 
L 86.095538 175.012133 
L 87.969698 144.323489 
L 89.843859 128.686037 
L 91.718019 107.049939 
L 93.592179 81.582757 
L 95.46634 102.281131 
L 97.3405 115.849779 
L 99.21466 122.00357 
L 101.088821 126.616829 
L 102.962981 129.450386 
L 104.837141 130.688295 
L 106.711302 129.598138 
L 108.585462 125.59623 
L 110.459622 111.975455 
L 112.333782 56.77146 
L 114.207943 119.298889 
L 116.082103 129.169963 
L 117.956263 135.568773 
L 119.830424 139.867609 
L 121.704584 142.996529 
L 123.578744 144.983989 
L 125.452905 144.677713 
L 127.327065 140.508307 
L 129.201225 125.129147 
L 131.075386 100.695399 
L 132.949546 120.338056 
L 134.823706 131.16456 
L 136.697867 136.014737 
L 138.572027 139.406464 
L 140.446187 141.534241 
L 142.320348 142.819313 
L 144.194508 143.224509 
L 146.068668 142.05309 
L 147.942829 136.629325 
L 149.816989 98.778739 
L 151.691149 170.141477 
L 153.56531 154.585024 
L 155.43947 155.43574 
L 159.187791 156.638461 
L 162.936111 157.634172 
L 164.810272 158.41108 
L 166.684432 158.992353 
L 168.558592 162.595525 
L 170.432752 159.565104 
L 172.306913 159.967154 
L 176.055233 161.457161 
L 177.929394 162.271494 
L 179.803554 163.214296 
L 183.551875 165.605919 
L 185.426035 164.432276 
L 187.300195 113.420187 
L 189.174356 166.354217 
L 191.048516 153.253881 
L 192.922676 155.85057 
L 194.796837 157.481828 
L 196.670997 158.578419 
L 198.545157 159.313884 
L 200.419318 159.548305 
L 202.293478 158.992292 
L 204.167638 152.969778 
L 206.041799 134.712273 
L 207.915959 147.06368 
L 209.790119 151.9972 
L 211.66428 155.195423 
L 213.53844 156.645714 
L 215.4126 157.370625 
L 217.286761 157.579909 
L 219.160921 157.299361 
L 221.035081 156.371116 
L 222.909241 153.893942 
L 224.783402 142.260571 
L 226.657562 140.987376 
L 228.531722 165.742947 
L 230.405883 165.06982 
L 232.280043 164.652119 
L 236.028364 164.272133 
L 239.776684 164.13178 
L 241.650845 164.207842 
L 243.525005 165.339251 
L 241.650845 164.207842 
L 237.902524 164.159044 
L 234.154203 164.420418 
L 232.280043 164.652119 
L 230.405883 165.06982 
L 228.531722 165.742947 
L 226.657562 140.987376 
L 224.783402 142.260571 
L 222.909241 153.893942 
L 221.035081 156.371116 
L 219.160921 157.299361 
L 217.286761 157.579909 
L 215.4126 157.370625 
L 213.53844 156.645714 
L 211.66428 155.195423 
L 209.790119 151.9972 
L 207.915959 147.06368 
L 206.041799 134.712273 
L 204.167638 152.969778 
L 202.293478 158.992292 
L 200.419318 159.548305 
L 198.545157 159.313884 
L 196.670997 158.578419 
L 194.796837 157.481828 
L 192.922676 155.85057 
L 191.048516 153.253881 
L 189.174356 166.354217 
L 187.300195 113.420187 
L 185.426035 164.432276 
L 183.551875 165.605919 
L 179.803554 163.214296 
L 177.929394 162.271494 
L 174.181073 160.683956 
L 172.306913 159.967154 
L 170.432752 159.565104 
L 168.558592 162.595525 
L 166.684432 158.992353 
L 164.810272 158.41108 
L 162.936111 157.634172 
L 159.187791 156.638461 
L 155.43947 155.43574 
L 153.56531 154.585024 
L 151.691149 170.141477 
L 149.816989 98.778739 
L 147.942829 136.629325 
L 146.068668 142.05309 
L 144.194508 143.224509 
L 142.320348 142.819313 
L 140.446187 141.534241 
L 138.572027 139.406464 
L 136.697867 136.014737 
L 134.823706 131.16456 
L 132.949546 120.338056 
L 131.075386 100.695399 
L 129.201225 125.129147 
L 127.327065 140.508307 
L 125.452905 144.677713 
L 123.578744 144.983989 
L 121.704584 142.996529 
L 119.830424 139.867609 
L 117.956263 135.568773 
L 116.082103 129.169963 
L 114.207943 119.298889 
L 112.333782 56.77146 
L 110.459622 111.975455 
L 108.585462 125.59623 
L 106.711302 129.598138 
L 104.837141 130.688295 
L 102.962981 129.450386 
L 101.088821 126.616829 
L 99.21466 122.00357 
L 97.3405 115.849779 
L 95.46634 102.281131 
L 93.592179 81.582757 
L 91.718019 107.049939 
L 89.843859 128.686037 
L 87.969698 144.323489 
L 86.095538 175.012133 
L 84.221378 150.810841 
L 82.347217 135.665962 
L 78.598897 113.596085 
L 76.724736 97.514853 
L 74.850576 24.582393 
L 72.976416 86.69008 
L 71.102255 101.044259 
L 69.228095 107.340023 
L 67.353935 111.347027 
L 65.479774 113.581751 
L 63.605614 114.358985 
L 61.731454 113.188149 
L 59.857293 109.903302 
L 57.983133 97.31605 
L 57.983133 97.31605 
" clip-path="url(#pb95a8826fb)" style="fill: none; stroke: #d62728; stroke-width: 1.5; stroke-linecap: square"/>
   </g>
   <g id="patch_3">
    <path d="M 46.738171 235.23198 
L 46.738171 13.47198 
" style="fill: none; stroke: #000000; stroke-width: 0.8; stroke-linejoin: miter; stroke-linecap: square"/>
   </g>
   <g id="patch_4">
    <path d="M 252.895807 235.23198 
L 252.895807 13.47198 
" style="fill: none; stroke: #000000; stroke-width: 0.8; stroke-linejoin: miter; stroke-linecap: square"/>
   </g>
   <g id="patch_5">
    <path d="M 46.738171 235.23198 
L 252.895807 235.23198 
" style="fill: none; stroke: #000000; stroke-width: 0.8; stroke-linejoin: miter; stroke-linecap: square"/>
   </g>
   <g id="patch_6">
    <path d="M 46.738171 13.47198 
L 252.895807 13.47198 
" style="fill: none; stroke: #000000; stroke-width: 0.8; stroke-linejoin: miter; stroke-linecap: square"/>
   </g>
   <g id="text_11">
    <!-- $(a)$ -->
    <g transform="translate(57.983133 26.920463) scale(0.15 -0.15)">
     <defs>
      <path id="CMR17-28" d="M 1958 -1562 
C 1958 -1556 1958 -1543 1939 -1524 
C 1645 -1223 858 -403 858 1596 
C 858 3595 1632 4408 1946 4729 
C 1946 4735 1958 4748 1958 4767 
C 1958 4787 1939 4800 1914 4800 
C 1843 4800 1299 4325 986 3620 
C 666 2909 576 2218 576 1603 
C 576 1141 621 360 1005 -467 
C 1312 -1133 1837 -1600 1914 -1600 
C 1946 -1600 1958 -1588 1958 -1562 
z
" transform="scale(0.015625)"/>
      <path id="CMMI12-61" d="M 1926 759 
C 1894 651 1894 638 1805 517 
C 1664 338 1382 64 1082 64 
C 819 64 672 300 672 676 
C 672 1028 870 1743 992 2011 
C 1210 2458 1510 2687 1760 2687 
C 2182 2687 2266 2164 2266 2113 
C 2266 2107 2246 2024 2240 2011 
L 1926 759 
z
M 2336 2394 
C 2266 2560 2093 2816 1760 2816 
C 1037 2816 256 1883 256 938 
C 256 306 627 -64 1062 -64 
C 1414 -64 1715 210 1894 421 
C 1958 44 2259 -64 2451 -64 
C 2643 -64 2797 51 2912 280 
C 3014 496 3104 885 3104 910 
C 3104 942 3078 968 3040 968 
C 2982 968 2976 936 2950 840 
C 2854 465 2733 64 2470 64 
C 2285 64 2272 229 2272 356 
C 2272 503 2291 573 2349 821 
C 2394 980 2426 1120 2477 1305 
C 2714 2260 2771 2489 2771 2528 
C 2771 2617 2701 2688 2605 2688 
C 2400 2688 2349 2464 2336 2388 
L 2336 2394 
z
" transform="scale(0.015625)"/>
      <path id="CMR17-29" d="M 1683 1596 
C 1683 2057 1638 2839 1254 3665 
C 947 4332 422 4800 346 4800 
C 326 4800 301 4793 301 4761 
C 301 4748 307 4742 314 4729 
C 621 4408 1402 3595 1402 1603 
C 1402 -396 627 -1210 314 -1530 
C 307 -1543 301 -1549 301 -1562 
C 301 -1594 326 -1600 346 -1600 
C 416 -1600 960 -1127 1274 -422 
C 1594 289 1683 981 1683 1596 
z
" transform="scale(0.015625)"/>
     </defs>
     <use xlink:href="#CMR17-28" transform="scale(0.996264)"/>
     <use xlink:href="#CMMI12-61" transform="translate(35.280768 0) scale(0.996264)"/>
     <use xlink:href="#CMR17-29" transform="translate(86.488625 0) scale(0.996264)"/>
    </g>
   </g>
   <g id="text_12">
    <!-- $J_0 = 0.072/T$ -->
    <g transform="translate(121.430389 7.47198) scale(0.1 -0.1)">
     <defs>
      <path id="CMMI12-4a" d="M 3418 3911 
C 3469 4102 3482 4166 3795 4166 
C 3898 4166 3962 4166 3962 4281 
C 3962 4352 3904 4352 3878 4352 
C 3770 4352 3648 4339 3533 4339 
L 3181 4339 
C 2912 4339 2630 4352 2362 4352 
C 2304 4352 2227 4352 2227 4236 
C 2227 4172 2278 4172 2278 4166 
L 2438 4166 
C 2950 4166 2950 4115 2950 4019 
C 2950 4013 2950 3968 2925 3866 
L 2189 953 
C 2022 304 1594 0 1286 0 
C 1069 0 762 99 685 428 
C 710 422 742 415 768 415 
C 979 415 1146 601 1146 787 
C 1146 889 1082 1024 890 1024 
C 774 1024 506 959 506 543 
C 506 149 838 -128 1299 -128 
C 1882 -128 2509 304 2662 908 
L 3418 3911 
z
" transform="scale(0.015625)"/>
      <path id="CMR17-3d" d="M 4115 2048 
C 4211 2048 4307 2048 4307 2156 
C 4307 2272 4198 2272 4090 2272 
L 512 2272 
C 403 2272 294 2272 294 2156 
C 294 2048 390 2048 486 2048 
L 4115 2048 
z
M 4090 927 
C 4198 927 4307 927 4307 1043 
C 4307 1152 4211 1152 4115 1152 
L 486 1152 
C 390 1152 294 1152 294 1043 
C 294 927 403 927 512 927 
L 4090 927 
z
" transform="scale(0.015625)"/>
      <path id="CMMI12-3a" d="M 1178 307 
C 1178 492 1024 620 870 620 
C 685 620 557 467 557 313 
C 557 128 710 0 864 0 
C 1050 0 1178 153 1178 307 
z
" transform="scale(0.015625)"/>
      <path id="CMR17-37" d="M 2886 3955 
L 2886 4096 
L 1382 4096 
C 634 4096 621 4166 595 4288 
L 480 4288 
L 294 3104 
L 410 3104 
C 429 3226 474 3552 550 3673 
C 589 3724 1062 3724 1171 3724 
L 2579 3724 
L 1869 2670 
C 1395 1961 1069 1003 1069 166 
C 1069 89 1069 -128 1299 -128 
C 1530 -128 1530 89 1530 172 
L 1530 466 
C 1530 1514 1709 2204 2003 2644 
L 2886 3955 
z
" transform="scale(0.015625)"/>
      <path id="CMMI12-54" d="M 2669 3886 
C 2707 4038 2720 4096 2816 4121 
C 2867 4134 3078 4134 3213 4134 
C 3853 4134 4154 4109 4154 3612 
C 4154 3516 4128 3274 4090 3038 
L 4083 2962 
C 4083 2937 4109 2898 4147 2898 
C 4211 2898 4211 2930 4230 3032 
L 4416 4159 
C 4429 4217 4429 4230 4429 4249 
C 4429 4319 4390 4319 4262 4319 
L 762 4319 
C 614 4319 608 4313 570 4198 
L 179 3051 
C 173 3038 154 2968 154 2962 
C 154 2930 179 2898 218 2898 
C 269 2898 282 2924 307 3007 
C 576 3777 710 4134 1562 4134 
L 1990 4134 
C 2144 4134 2208 4134 2208 4064 
C 2208 4045 2208 4032 2176 3917 
L 1318 497 
C 1254 249 1242 185 563 185 
C 403 185 358 185 358 64 
C 358 0 429 0 461 0 
C 621 0 787 12 947 12 
L 1946 12 
C 2106 12 2278 0 2438 0 
C 2509 0 2573 0 2573 121 
C 2573 185 2528 185 2362 185 
C 1786 185 1786 242 1786 338 
C 1786 344 1786 389 1811 491 
L 2669 3886 
z
" transform="scale(0.015625)"/>
     </defs>
     <use xlink:href="#CMMI12-4a" transform="scale(0.996264)"/>
     <use xlink:href="#CMR17-30" transform="translate(53.917955 -14.943915) scale(0.697382)"/>
     <use xlink:href="#CMR17-3d" transform="translate(114.073278 0) scale(0.996264)"/>
     <use xlink:href="#CMR17-30" transform="translate(213.462075 0) scale(0.996264)"/>
     <use xlink:href="#CMMI12-3a" transform="translate(259.152552 0) scale(0.996264)"/>
     <use xlink:href="#CMR17-30" transform="translate(286.249729 0) scale(0.996264)"/>
     <use xlink:href="#CMR17-37" transform="translate(331.940207 0) scale(0.996264)"/>
     <use xlink:href="#CMR17-32" transform="translate(377.630684 0) scale(0.996264)"/>
     <use xlink:href="#CMMI12-3d" transform="translate(423.321161 0) scale(0.996264)"/>
     <use xlink:href="#CMMI12-54" transform="translate(472.09608 0) scale(0.996264)"/>
    </g>
   </g>
  </g>
  <g id="axes_2">
   <g id="patch_7">
    <path d="M 259.080536 235.23198 
L 465.238171 235.23198 
L 465.238171 13.47198 
L 259.080536 13.47198 
z
" style="fill: #ffffff"/>
   </g>
   <g id="matplotlib.axis_3">
    <g id="xtick_4">
     <g id="line2d_52">
      <g>
       <use xlink:href="#maf6911f2fc" x="268.451337" y="235.23198" style="stroke: #000000; stroke-width: 0.8"/>
      </g>
     </g>
     <g id="text_13">
      <!-- $\mathdefault{0}$ -->
      <g transform="translate(264.549344 250.089292) scale(0.16 -0.16)">
       <use xlink:href="#CMR17-30" transform="scale(0.996264)"/>
      </g>
     </g>
    </g>
    <g id="xtick_5">
     <g id="line2d_53">
      <g>
       <use xlink:href="#maf6911f2fc" x="343.41775" y="235.23198" style="stroke: #000000; stroke-width: 0.8"/>
      </g>
     </g>
     <g id="text_14">
      <!-- $\mathdefault{2}$ -->
      <g transform="translate(339.515757 250.089292) scale(0.16 -0.16)">
       <use xlink:href="#CMR17-32" transform="scale(0.996264)"/>
      </g>
     </g>
    </g>
    <g id="xtick_6">
     <g id="line2d_54">
      <g>
       <use xlink:href="#maf6911f2fc" x="418.384163" y="235.23198" style="stroke: #000000; stroke-width: 0.8"/>
      </g>
     </g>
     <g id="text_15">
      <!-- $\mathdefault{4}$ -->
      <g transform="translate(414.48217 250.089292) scale(0.16 -0.16)">
       <use xlink:href="#CMR17-34" transform="scale(0.996264)"/>
      </g>
     </g>
    </g>
    <g id="text_16">
     <!-- $\Omega/\omega$ -->
     <g transform="translate(349.561363 264.445246) scale(0.14 -0.14)">
      <use xlink:href="#CMR17-a" transform="scale(0.996264)"/>
      <use xlink:href="#CMMI12-3d" transform="translate(66.509881 0) scale(0.996264)"/>
      <use xlink:href="#CMMI12-21" transform="translate(115.284799 0) scale(0.996264)"/>
     </g>
    </g>
   </g>
   <g id="matplotlib.axis_4">
    <g id="ytick_45">
     <g id="line2d_55">
      <g>
       <use xlink:href="#m1bb6714310" x="259.080536" y="209.642822" style="stroke: #000000; stroke-width: 0.8"/>
      </g>
     </g>
    </g>
    <g id="ytick_46">
     <g id="line2d_56">
      <g>
       <use xlink:href="#m1bb6714310" x="259.080536" y="163.962232" style="stroke: #000000; stroke-width: 0.8"/>
      </g>
     </g>
    </g>
    <g id="ytick_47">
     <g id="line2d_57">
      <g>
       <use xlink:href="#m1bb6714310" x="259.080536" y="118.281642" style="stroke: #000000; stroke-width: 0.8"/>
      </g>
     </g>
    </g>
    <g id="ytick_48">
     <g id="line2d_58">
      <g>
       <use xlink:href="#m1bb6714310" x="259.080536" y="72.601053" style="stroke: #000000; stroke-width: 0.8"/>
      </g>
     </g>
    </g>
    <g id="ytick_49">
     <g id="line2d_59">
      <g>
       <use xlink:href="#m1bb6714310" x="259.080536" y="26.920463" style="stroke: #000000; stroke-width: 0.8"/>
      </g>
     </g>
    </g>
    <g id="ytick_50">
     <g id="line2d_60">
      <g>
       <use xlink:href="#me69eb091b0" x="259.080536" y="233.528231" style="stroke: #000000; stroke-width: 0.6"/>
      </g>
     </g>
    </g>
    <g id="ytick_51">
     <g id="line2d_61">
      <g>
       <use xlink:href="#me69eb091b0" x="259.080536" y="227.820956" style="stroke: #000000; stroke-width: 0.6"/>
      </g>
     </g>
    </g>
    <g id="ytick_52">
     <g id="line2d_62">
      <g>
       <use xlink:href="#me69eb091b0" x="259.080536" y="223.39405" style="stroke: #000000; stroke-width: 0.6"/>
      </g>
     </g>
    </g>
    <g id="ytick_53">
     <g id="line2d_63">
      <g>
       <use xlink:href="#me69eb091b0" x="259.080536" y="219.777004" style="stroke: #000000; stroke-width: 0.6"/>
      </g>
     </g>
    </g>
    <g id="ytick_54">
     <g id="line2d_64">
      <g>
       <use xlink:href="#me69eb091b0" x="259.080536" y="216.718835" style="stroke: #000000; stroke-width: 0.6"/>
      </g>
     </g>
    </g>
    <g id="ytick_55">
     <g id="line2d_65">
      <g>
       <use xlink:href="#me69eb091b0" x="259.080536" y="214.069729" style="stroke: #000000; stroke-width: 0.6"/>
      </g>
     </g>
    </g>
    <g id="ytick_56">
     <g id="line2d_66">
      <g>
       <use xlink:href="#me69eb091b0" x="259.080536" y="211.733051" style="stroke: #000000; stroke-width: 0.6"/>
      </g>
     </g>
    </g>
    <g id="ytick_57">
     <g id="line2d_67">
      <g>
       <use xlink:href="#me69eb091b0" x="259.080536" y="195.891594" style="stroke: #000000; stroke-width: 0.6"/>
      </g>
     </g>
    </g>
    <g id="ytick_58">
     <g id="line2d_68">
      <g>
       <use xlink:href="#me69eb091b0" x="259.080536" y="187.847642" style="stroke: #000000; stroke-width: 0.6"/>
      </g>
     </g>
    </g>
    <g id="ytick_59">
     <g id="line2d_69">
      <g>
       <use xlink:href="#me69eb091b0" x="259.080536" y="182.140366" style="stroke: #000000; stroke-width: 0.6"/>
      </g>
     </g>
    </g>
    <g id="ytick_60">
     <g id="line2d_70">
      <g>
       <use xlink:href="#me69eb091b0" x="259.080536" y="177.71346" style="stroke: #000000; stroke-width: 0.6"/>
      </g>
     </g>
    </g>
    <g id="ytick_61">
     <g id="line2d_71">
      <g>
       <use xlink:href="#me69eb091b0" x="259.080536" y="174.096414" style="stroke: #000000; stroke-width: 0.6"/>
      </g>
     </g>
    </g>
    <g id="ytick_62">
     <g id="line2d_72">
      <g>
       <use xlink:href="#me69eb091b0" x="259.080536" y="171.038245" style="stroke: #000000; stroke-width: 0.6"/>
      </g>
     </g>
    </g>
    <g id="ytick_63">
     <g id="line2d_73">
      <g>
       <use xlink:href="#me69eb091b0" x="259.080536" y="168.389139" style="stroke: #000000; stroke-width: 0.6"/>
      </g>
     </g>
    </g>
    <g id="ytick_64">
     <g id="line2d_74">
      <g>
       <use xlink:href="#me69eb091b0" x="259.080536" y="166.052461" style="stroke: #000000; stroke-width: 0.6"/>
      </g>
     </g>
    </g>
    <g id="ytick_65">
     <g id="line2d_75">
      <g>
       <use xlink:href="#me69eb091b0" x="259.080536" y="150.211004" style="stroke: #000000; stroke-width: 0.6"/>
      </g>
     </g>
    </g>
    <g id="ytick_66">
     <g id="line2d_76">
      <g>
       <use xlink:href="#me69eb091b0" x="259.080536" y="142.167052" style="stroke: #000000; stroke-width: 0.6"/>
      </g>
     </g>
    </g>
    <g id="ytick_67">
     <g id="line2d_77">
      <g>
       <use xlink:href="#me69eb091b0" x="259.080536" y="136.459777" style="stroke: #000000; stroke-width: 0.6"/>
      </g>
     </g>
    </g>
    <g id="ytick_68">
     <g id="line2d_78">
      <g>
       <use xlink:href="#me69eb091b0" x="259.080536" y="132.03287" style="stroke: #000000; stroke-width: 0.6"/>
      </g>
     </g>
    </g>
    <g id="ytick_69">
     <g id="line2d_79">
      <g>
       <use xlink:href="#me69eb091b0" x="259.080536" y="128.415824" style="stroke: #000000; stroke-width: 0.6"/>
      </g>
     </g>
    </g>
    <g id="ytick_70">
     <g id="line2d_80">
      <g>
       <use xlink:href="#me69eb091b0" x="259.080536" y="125.357655" style="stroke: #000000; stroke-width: 0.6"/>
      </g>
     </g>
    </g>
    <g id="ytick_71">
     <g id="line2d_81">
      <g>
       <use xlink:href="#me69eb091b0" x="259.080536" y="122.708549" style="stroke: #000000; stroke-width: 0.6"/>
      </g>
     </g>
    </g>
    <g id="ytick_72">
     <g id="line2d_82">
      <g>
       <use xlink:href="#me69eb091b0" x="259.080536" y="120.371871" style="stroke: #000000; stroke-width: 0.6"/>
      </g>
     </g>
    </g>
    <g id="ytick_73">
     <g id="line2d_83">
      <g>
       <use xlink:href="#me69eb091b0" x="259.080536" y="104.530415" style="stroke: #000000; stroke-width: 0.6"/>
      </g>
     </g>
    </g>
    <g id="ytick_74">
     <g id="line2d_84">
      <g>
       <use xlink:href="#me69eb091b0" x="259.080536" y="96.486462" style="stroke: #000000; stroke-width: 0.6"/>
      </g>
     </g>
    </g>
    <g id="ytick_75">
     <g id="line2d_85">
      <g>
       <use xlink:href="#me69eb091b0" x="259.080536" y="90.779187" style="stroke: #000000; stroke-width: 0.6"/>
      </g>
     </g>
    </g>
    <g id="ytick_76">
     <g id="line2d_86">
      <g>
       <use xlink:href="#me69eb091b0" x="259.080536" y="86.35228" style="stroke: #000000; stroke-width: 0.6"/>
      </g>
     </g>
    </g>
    <g id="ytick_77">
     <g id="line2d_87">
      <g>
       <use xlink:href="#me69eb091b0" x="259.080536" y="82.735234" style="stroke: #000000; stroke-width: 0.6"/>
      </g>
     </g>
    </g>
    <g id="ytick_78">
     <g id="line2d_88">
      <g>
       <use xlink:href="#me69eb091b0" x="259.080536" y="79.677065" style="stroke: #000000; stroke-width: 0.6"/>
      </g>
     </g>
    </g>
    <g id="ytick_79">
     <g id="line2d_89">
      <g>
       <use xlink:href="#me69eb091b0" x="259.080536" y="77.027959" style="stroke: #000000; stroke-width: 0.6"/>
      </g>
     </g>
    </g>
    <g id="ytick_80">
     <g id="line2d_90">
      <g>
       <use xlink:href="#me69eb091b0" x="259.080536" y="74.691282" style="stroke: #000000; stroke-width: 0.6"/>
      </g>
     </g>
    </g>
    <g id="ytick_81">
     <g id="line2d_91">
      <g>
       <use xlink:href="#me69eb091b0" x="259.080536" y="58.849825" style="stroke: #000000; stroke-width: 0.6"/>
      </g>
     </g>
    </g>
    <g id="ytick_82">
     <g id="line2d_92">
      <g>
       <use xlink:href="#me69eb091b0" x="259.080536" y="50.805872" style="stroke: #000000; stroke-width: 0.6"/>
      </g>
     </g>
    </g>
    <g id="ytick_83">
     <g id="line2d_93">
      <g>
       <use xlink:href="#me69eb091b0" x="259.080536" y="45.098597" style="stroke: #000000; stroke-width: 0.6"/>
      </g>
     </g>
    </g>
    <g id="ytick_84">
     <g id="line2d_94">
      <g>
       <use xlink:href="#me69eb091b0" x="259.080536" y="40.67169" style="stroke: #000000; stroke-width: 0.6"/>
      </g>
     </g>
    </g>
    <g id="ytick_85">
     <g id="line2d_95">
      <g>
       <use xlink:href="#me69eb091b0" x="259.080536" y="37.054644" style="stroke: #000000; stroke-width: 0.6"/>
      </g>
     </g>
    </g>
    <g id="ytick_86">
     <g id="line2d_96">
      <g>
       <use xlink:href="#me69eb091b0" x="259.080536" y="33.996476" style="stroke: #000000; stroke-width: 0.6"/>
      </g>
     </g>
    </g>
    <g id="ytick_87">
     <g id="line2d_97">
      <g>
       <use xlink:href="#me69eb091b0" x="259.080536" y="31.347369" style="stroke: #000000; stroke-width: 0.6"/>
      </g>
     </g>
    </g>
    <g id="ytick_88">
     <g id="line2d_98">
      <g>
       <use xlink:href="#me69eb091b0" x="259.080536" y="29.010692" style="stroke: #000000; stroke-width: 0.6"/>
      </g>
     </g>
    </g>
   </g>
   <g id="line2d_99">
    <path d="M 268.451337 79.394141 
L 270.325498 87.752161 
L 272.199658 106.807951 
L 274.073818 100.491966 
L 275.947979 136.818432 
L 277.822139 150.840441 
L 279.696299 123.059972 
L 281.57046 131.889869 
L 283.44462 131.538762 
L 285.31878 125.687026 
L 287.192941 25.40869 
L 289.067101 92.884664 
L 290.941261 125.839054 
L 292.815422 107.516292 
L 294.689582 106.453687 
L 296.563742 132.395986 
L 298.437902 148.901333 
L 300.312063 103.033703 
L 302.186223 114.304395 
L 304.060383 93.202232 
L 305.934544 89.672264 
L 307.808704 96.190051 
L 309.682864 118.284882 
L 311.557025 117.666247 
L 313.431185 113.825312 
L 315.305345 208.554138 
L 317.179506 116.434549 
L 319.053666 138.348748 
L 320.927826 141.366761 
L 322.801987 123.44909 
L 324.676147 58.406128 
L 326.550307 111.56054 
L 328.424468 138.116246 
L 330.298628 132.96742 
L 332.172788 139.840219 
L 334.046949 152.711548 
L 335.921109 132.3657 
L 337.795269 116.619903 
L 339.66943 125.651265 
L 341.54359 110.774017 
L 343.41775 104.793476 
L 345.291911 115.216934 
L 347.166071 131.707242 
L 349.040231 128.806834 
L 350.914392 167.732294 
L 352.788552 184.248334 
L 354.662712 152.510083 
L 356.536872 167.4348 
L 358.411033 167.366934 
L 360.285193 148.752923 
L 362.159353 99.822496 
L 364.033514 154.583714 
L 365.907674 176.434646 
L 367.781834 185.708642 
L 369.655995 171.338696 
L 371.530155 184.388725 
L 373.404315 155.595764 
L 375.278476 182.648145 
L 377.152636 200.325494 
L 379.026796 187.601956 
L 380.900957 186.050186 
L 382.775117 164.144733 
L 384.649277 183.322543 
L 386.523438 200.690285 
L 388.397598 165.966265 
L 390.271758 181.414163 
L 392.145919 225.15198 
L 394.020079 195.871801 
L 395.894239 202.819044 
L 397.7684 168.632304 
L 399.64256 117.321278 
L 401.51672 167.561379 
L 403.390881 166.543189 
L 405.265041 169.181698 
L 407.139201 165.198969 
L 409.013362 177.331418 
L 410.887522 178.494971 
L 412.761682 151.07901 
L 414.635842 150.325864 
L 416.510003 141.995503 
L 418.384163 138.326123 
L 420.258323 150.581768 
L 422.132484 151.804028 
L 424.006644 151.968768 
L 425.880804 169.406276 
L 429.629125 189.677808 
L 431.503285 180.9444 
L 433.377446 178.397208 
L 435.251606 169.048548 
L 437.125766 141.006822 
L 438.999927 146.798967 
L 440.874087 203.238373 
L 442.748247 209.735323 
L 444.622408 191.071237 
L 446.496568 187.951152 
L 448.370728 181.100836 
L 450.244889 184.526338 
L 452.119049 210.859594 
L 453.993209 198.356364 
L 455.86737 191.455396 
L 453.993209 198.356364 
L 452.119049 210.859594 
L 450.244889 184.526338 
L 448.370728 181.100836 
L 446.496568 187.951152 
L 444.622408 191.071237 
L 442.748247 209.735323 
L 440.874087 203.238373 
L 438.999927 146.798967 
L 437.125766 141.006822 
L 435.251606 169.048548 
L 433.377446 178.397208 
L 431.503285 180.9444 
L 429.629125 189.677808 
L 425.880804 169.406276 
L 424.006644 151.968768 
L 422.132484 151.804028 
L 420.258323 150.581768 
L 418.384163 138.326123 
L 416.510003 141.995503 
L 414.635842 150.325864 
L 412.761682 151.07901 
L 410.887522 178.494971 
L 409.013362 177.331418 
L 407.139201 165.198969 
L 405.265041 169.181698 
L 403.390881 166.543189 
L 401.51672 167.561379 
L 399.64256 117.321278 
L 397.7684 168.632304 
L 395.894239 202.819044 
L 394.020079 195.871801 
L 392.145919 225.15198 
L 390.271758 181.414163 
L 388.397598 165.966265 
L 386.523438 200.690285 
L 384.649277 183.322543 
L 382.775117 164.144733 
L 380.900957 186.050186 
L 379.026796 187.601956 
L 377.152636 200.325494 
L 375.278476 182.648145 
L 373.404315 155.595764 
L 371.530155 184.388725 
L 369.655995 171.338696 
L 367.781834 185.708642 
L 365.907674 176.434646 
L 364.033514 154.583714 
L 362.159353 99.822496 
L 360.285193 148.752923 
L 358.411033 167.366934 
L 356.536872 167.4348 
L 354.662712 152.510083 
L 352.788552 184.248334 
L 350.914392 167.732294 
L 349.040231 128.806834 
L 347.166071 131.707242 
L 345.291911 115.216934 
L 343.41775 104.793476 
L 341.54359 110.774017 
L 339.66943 125.651265 
L 337.795269 116.619903 
L 335.921109 132.3657 
L 334.046949 152.711548 
L 332.172788 139.840219 
L 330.298628 132.96742 
L 328.424468 138.116246 
L 326.550307 111.56054 
L 324.676147 58.406128 
L 322.801987 123.44909 
L 320.927826 141.366761 
L 319.053666 138.348748 
L 317.179506 116.434549 
L 315.305345 208.554138 
L 313.431185 113.825312 
L 311.557025 117.666247 
L 309.682864 118.284882 
L 307.808704 96.190051 
L 305.934544 89.672264 
L 304.060383 93.202232 
L 302.186223 114.304395 
L 300.312063 103.033703 
L 298.437902 148.901333 
L 296.563742 132.395986 
L 294.689582 106.453687 
L 292.815422 107.516292 
L 290.941261 125.839054 
L 289.067101 92.884664 
L 287.192941 25.40869 
L 285.31878 125.687026 
L 283.44462 131.538762 
L 281.57046 131.889869 
L 279.696299 123.059972 
L 277.822139 150.840441 
L 275.947979 136.818432 
L 274.073818 100.491966 
L 272.199658 106.807951 
L 270.325498 87.752161 
L 270.325498 87.752161 
" clip-path="url(#pa9b57cd9ce)" style="fill: none; stroke: #1f77b4; stroke-width: 1.5; stroke-linecap: square"/>
   </g>
   <g id="line2d_100">
    <path d="M 268.451337 78.628739 
L 270.325498 113.649803 
L 272.199658 135.455348 
L 274.073818 126.563093 
L 275.947979 144.106695 
L 277.822139 145.435087 
L 279.696299 143.254655 
L 281.57046 137.872451 
L 283.44462 140.486213 
L 285.31878 121.949654 
L 287.192941 23.68335 
L 289.067101 149.287854 
L 290.941261 177.797656 
L 292.815422 160.778134 
L 294.689582 171.459968 
L 296.563742 180.953702 
L 298.437902 168.170593 
L 300.312063 137.552933 
L 302.186223 151.327456 
L 304.060383 124.258441 
L 305.934544 86.510652 
L 307.808704 121.974784 
L 309.682864 140.978964 
L 311.557025 139.171095 
L 313.431185 156.31035 
L 315.305345 156.504566 
L 317.179506 154.674195 
L 319.053666 148.319331 
L 320.927826 157.480661 
L 322.801987 140.424574 
L 324.676147 56.139094 
L 326.550307 155.85055 
L 328.424468 180.417683 
L 330.298628 185.897956 
L 332.172788 184.483568 
L 334.046949 177.529705 
L 335.921109 169.800994 
L 337.795269 148.872465 
L 339.66943 162.124808 
L 341.54359 139.539742 
L 343.41775 103.333755 
L 345.291911 139.540443 
L 347.166071 157.256738 
L 349.040231 154.280841 
L 350.914392 168.886409 
L 352.788552 173.33953 
L 354.662712 176.645334 
L 356.536872 176.807988 
L 358.411033 175.754453 
L 360.285193 166.158607 
L 362.159353 98.607319 
L 364.033514 154.652573 
L 365.907674 183.843195 
L 367.781834 189.077219 
L 369.655995 191.420709 
L 371.530155 192.421561 
L 373.404315 194.67374 
L 375.278476 188.073114 
L 377.152636 190.16578 
L 379.026796 190.071265 
L 380.900957 182.842496 
L 382.775117 187.44674 
L 386.523438 193.343352 
L 388.397598 195.853772 
L 390.271758 194.864857 
L 392.145919 194.021312 
L 394.020079 191.294753 
L 395.894239 187.721125 
L 397.7684 173.960416 
L 399.64256 114.404848 
L 401.51672 162.293651 
L 403.390881 197.041409 
L 405.265041 198.819275 
L 407.139201 199.445458 
L 409.013362 197.034329 
L 410.887522 193.45426 
L 412.761682 178.629539 
L 414.635842 183.918907 
L 416.510003 170.443455 
L 418.384163 136.384321 
L 420.258323 154.288272 
L 422.132484 176.131492 
L 424.006644 178.678388 
L 425.880804 184.280635 
L 427.754965 190.865063 
L 429.629125 193.1043 
L 431.503285 194.357205 
L 433.377446 194.693897 
L 435.251606 188.675947 
L 437.125766 137.590032 
L 438.999927 139.917846 
L 440.874087 182.904497 
L 442.748247 192.438304 
L 446.496568 197.087588 
L 448.370728 198.302072 
L 450.244889 197.79056 
L 452.119049 196.736635 
L 453.993209 196.064862 
L 455.86737 198.17708 
L 453.993209 196.064862 
L 452.119049 196.736635 
L 450.244889 197.79056 
L 448.370728 198.302072 
L 446.496568 197.087588 
L 442.748247 192.438304 
L 440.874087 182.904497 
L 438.999927 139.917846 
L 437.125766 137.590032 
L 435.251606 188.675947 
L 433.377446 194.693897 
L 431.503285 194.357205 
L 429.629125 193.1043 
L 427.754965 190.865063 
L 425.880804 184.280635 
L 424.006644 178.678388 
L 422.132484 176.131492 
L 420.258323 154.288272 
L 418.384163 136.384321 
L 416.510003 170.443455 
L 414.635842 183.918907 
L 412.761682 178.629539 
L 410.887522 193.45426 
L 409.013362 197.034329 
L 407.139201 199.445458 
L 405.265041 198.819275 
L 403.390881 197.041409 
L 401.51672 162.293651 
L 399.64256 114.404848 
L 397.7684 173.960416 
L 395.894239 187.721125 
L 394.020079 191.294753 
L 392.145919 194.021312 
L 390.271758 194.864857 
L 388.397598 195.853772 
L 386.523438 193.343352 
L 382.775117 187.44674 
L 380.900957 182.842496 
L 379.026796 190.071265 
L 377.152636 190.16578 
L 375.278476 188.073114 
L 373.404315 194.67374 
L 371.530155 192.421561 
L 369.655995 191.420709 
L 367.781834 189.077219 
L 365.907674 183.843195 
L 364.033514 154.652573 
L 362.159353 98.607319 
L 360.285193 166.158607 
L 358.411033 175.754453 
L 356.536872 176.807988 
L 354.662712 176.645334 
L 352.788552 173.33953 
L 350.914392 168.886409 
L 349.040231 154.280841 
L 347.166071 157.256738 
L 345.291911 139.540443 
L 343.41775 103.333755 
L 341.54359 139.539742 
L 339.66943 162.124808 
L 337.795269 148.872465 
L 335.921109 169.800994 
L 334.046949 177.529705 
L 332.172788 184.483568 
L 330.298628 185.897956 
L 328.424468 180.417683 
L 326.550307 155.85055 
L 324.676147 56.139094 
L 322.801987 140.424574 
L 320.927826 157.480661 
L 319.053666 148.319331 
L 317.179506 154.674195 
L 315.305345 156.504566 
L 313.431185 156.31035 
L 311.557025 139.171095 
L 309.682864 140.978964 
L 307.808704 121.974784 
L 305.934544 86.510652 
L 304.060383 124.258441 
L 302.186223 151.327456 
L 300.312063 137.552933 
L 298.437902 168.170593 
L 296.563742 180.953702 
L 294.689582 171.459968 
L 292.815422 160.778134 
L 290.941261 177.797656 
L 289.067101 149.287854 
L 287.192941 23.68335 
L 285.31878 121.949654 
L 283.44462 140.486213 
L 281.57046 137.872451 
L 279.696299 143.254655 
L 277.822139 145.435087 
L 275.947979 144.106695 
L 274.073818 126.563093 
L 272.199658 135.455348 
L 270.325498 113.649803 
L 270.325498 113.649803 
" clip-path="url(#pa9b57cd9ce)" style="fill: none; stroke: #ff7f0e; stroke-width: 1.5; stroke-linecap: square"/>
   </g>
   <g id="line2d_101">
    <path d="M 268.451337 72.148922 
L 270.325498 98.614749 
L 272.199658 118.496887 
L 274.073818 121.737131 
L 275.947979 128.856344 
L 277.822139 130.667367 
L 279.696299 130.469587 
L 281.57046 126.57347 
L 283.44462 125.097055 
L 285.31878 107.379905 
L 287.192941 23.866909 
L 289.067101 143.754486 
L 290.941261 181.226679 
L 292.815422 167.784354 
L 294.689582 166.204194 
L 296.563742 155.436763 
L 298.437902 146.857722 
L 300.312063 134.65299 
L 302.186223 130.404521 
L 304.060383 107.990739 
L 305.934544 79.878346 
L 307.808704 106.778076 
L 309.682864 125.598782 
L 313.431185 138.713463 
L 315.305345 141.712433 
L 317.179506 143.115359 
L 319.053666 140.049688 
L 320.927826 142.389864 
L 322.801987 127.028469 
L 324.676147 56.288883 
L 326.550307 146.835568 
L 328.424468 160.57333 
L 330.298628 164.598353 
L 334.046949 158.359193 
L 335.921109 154.152188 
L 337.795269 144.805604 
L 339.66943 142.658159 
L 341.54359 123.449174 
L 343.41775 96.900287 
L 345.291911 124.179589 
L 347.166071 141.041771 
L 349.040231 146.896077 
L 350.914392 154.247313 
L 352.788552 158.324349 
L 354.662712 161.165825 
L 356.536872 162.978962 
L 358.411033 161.943364 
L 360.285193 152.87785 
L 362.159353 98.771289 
L 364.033514 152.248336 
L 365.907674 171.996905 
L 367.781834 176.026776 
L 369.655995 177.382725 
L 371.530155 178.554421 
L 373.404315 179.574927 
L 375.278476 180.235775 
L 377.152636 179.575921 
L 379.026796 178.638033 
L 380.900957 177.409248 
L 382.775117 175.564184 
L 384.649277 178.716343 
L 386.523438 181.197043 
L 388.397598 181.890289 
L 390.271758 181.86612 
L 392.145919 181.466556 
L 394.020079 180.300453 
L 395.894239 177.181013 
L 397.7684 165.808609 
L 399.64256 114.395189 
L 401.51672 162.535208 
L 403.390881 181.353152 
L 405.265041 183.886857 
L 407.139201 183.161201 
L 409.013362 181.538952 
L 410.887522 178.647412 
L 412.761682 172.085855 
L 414.635842 168.114744 
L 416.510003 153.78527 
L 418.384163 129.821491 
L 420.258323 145.773453 
L 422.132484 159.88167 
L 424.006644 167.932284 
L 425.880804 172.930486 
L 427.754965 177.042163 
L 429.629125 179.249772 
L 431.503285 180.217315 
L 433.377446 180.701377 
L 435.251606 175.388593 
L 437.125766 137.974143 
L 438.999927 139.72446 
L 440.874087 175.118649 
L 442.748247 182.193595 
L 444.622408 184.062777 
L 446.496568 185.455944 
L 448.370728 186.101707 
L 450.244889 186.278502 
L 452.119049 186.015857 
L 453.993209 184.970337 
L 455.86737 187.544558 
L 453.993209 184.970337 
L 452.119049 186.015857 
L 450.244889 186.278502 
L 448.370728 186.101707 
L 446.496568 185.455944 
L 444.622408 184.062777 
L 442.748247 182.193595 
L 440.874087 175.118649 
L 438.999927 139.72446 
L 437.125766 137.974143 
L 435.251606 175.388593 
L 433.377446 180.701377 
L 431.503285 180.217315 
L 429.629125 179.249772 
L 427.754965 177.042163 
L 425.880804 172.930486 
L 424.006644 167.932284 
L 422.132484 159.88167 
L 420.258323 145.773453 
L 418.384163 129.821491 
L 416.510003 153.78527 
L 414.635842 168.114744 
L 412.761682 172.085855 
L 410.887522 178.647412 
L 409.013362 181.538952 
L 407.139201 183.161201 
L 405.265041 183.886857 
L 403.390881 181.353152 
L 401.51672 162.535208 
L 399.64256 114.395189 
L 397.7684 165.808609 
L 395.894239 177.181013 
L 394.020079 180.300453 
L 392.145919 181.466556 
L 390.271758 181.86612 
L 388.397598 181.890289 
L 386.523438 181.197043 
L 384.649277 178.716343 
L 382.775117 175.564184 
L 380.900957 177.409248 
L 379.026796 178.638033 
L 377.152636 179.575921 
L 375.278476 180.235775 
L 373.404315 179.574927 
L 371.530155 178.554421 
L 369.655995 177.382725 
L 367.781834 176.026776 
L 365.907674 171.996905 
L 364.033514 152.248336 
L 362.159353 98.771289 
L 360.285193 152.87785 
L 358.411033 161.943364 
L 356.536872 162.978962 
L 354.662712 161.165825 
L 352.788552 158.324349 
L 350.914392 154.247313 
L 349.040231 146.896077 
L 347.166071 141.041771 
L 345.291911 124.179589 
L 343.41775 96.900287 
L 341.54359 123.449174 
L 339.66943 142.658159 
L 337.795269 144.805604 
L 335.921109 154.152188 
L 334.046949 158.359193 
L 330.298628 164.598353 
L 328.424468 160.57333 
L 326.550307 146.835568 
L 324.676147 56.288883 
L 322.801987 127.028469 
L 320.927826 142.389864 
L 319.053666 140.049688 
L 317.179506 143.115359 
L 315.305345 141.712433 
L 313.431185 138.713463 
L 309.682864 125.598782 
L 307.808704 106.778076 
L 305.934544 79.878346 
L 304.060383 107.990739 
L 302.186223 130.404521 
L 300.312063 134.65299 
L 298.437902 146.857722 
L 296.563742 155.436763 
L 294.689582 166.204194 
L 292.815422 167.784354 
L 290.941261 181.226679 
L 289.067101 143.754486 
L 287.192941 23.866909 
L 285.31878 107.379905 
L 283.44462 125.097055 
L 281.57046 126.57347 
L 279.696299 130.469587 
L 277.822139 130.667367 
L 275.947979 128.856344 
L 274.073818 121.737131 
L 272.199658 118.496887 
L 270.325498 98.614749 
L 270.325498 98.614749 
" clip-path="url(#pa9b57cd9ce)" style="fill: none; stroke: #2ca02c; stroke-width: 1.5; stroke-linecap: square"/>
   </g>
   <g id="line2d_102">
    <path d="M 268.451337 69.859548 
L 270.325498 93.725673 
L 272.199658 112.15537 
L 274.073818 117.622579 
L 275.947979 122.458501 
L 277.822139 124.114437 
L 279.696299 123.803546 
L 283.44462 117.535039 
L 285.31878 101.011138 
L 287.192941 24.050202 
L 289.067101 131.73508 
L 290.941261 154.056553 
L 292.815422 161.896451 
L 294.689582 163.752124 
L 296.563742 150.517798 
L 298.437902 141.254264 
L 300.312063 131.134064 
L 302.186223 123.599689 
L 304.060383 102.754662 
L 305.934544 77.259062 
L 307.808704 101.390128 
L 309.682864 119.266556 
L 311.557025 126.907859 
L 313.431185 132.192427 
L 315.305345 135.407885 
L 317.179506 137.099797 
L 319.053666 135.75334 
L 320.927826 135.940966 
L 322.801987 122.164051 
L 324.676147 56.439008 
L 326.550307 146.7815 
L 328.424468 154.116002 
L 330.298628 157.765127 
L 332.172788 155.323113 
L 334.046949 152.617532 
L 335.921109 148.67765 
L 337.795269 141.688779 
L 339.66943 136.463634 
L 341.54359 118.61458 
L 343.41775 94.641164 
L 345.291911 118.941684 
L 347.166071 134.785443 
L 349.040231 141.906076 
L 350.914392 147.804819 
L 352.788552 151.643284 
L 354.662712 154.295083 
L 356.536872 156.041837 
L 358.411033 155.253782 
L 360.285193 147.340312 
L 362.159353 98.931781 
L 364.033514 151.889081 
L 365.907674 165.91712 
L 367.781834 168.905513 
L 371.530155 171.098294 
L 373.404315 172.033019 
L 375.278476 173.268936 
L 377.152636 172.833472 
L 379.026796 171.384097 
L 380.900957 174.328706 
L 382.775117 169.780701 
L 384.649277 172.177806 
L 386.523438 174.237698 
L 388.397598 174.705737 
L 390.271758 174.828697 
L 392.145919 174.68182 
L 394.020079 173.967334 
L 395.894239 171.562041 
L 397.7684 162.189759 
L 399.64256 114.393528 
L 401.51672 165.625948 
L 403.390881 174.143078 
L 405.265041 176.168031 
L 407.139201 175.68542 
L 409.013362 174.487273 
L 410.887522 172.137092 
L 412.761682 167.538025 
L 414.635842 162.162609 
L 416.510003 148.439107 
L 418.384163 127.426915 
L 420.258323 142.133428 
L 422.132484 153.996753 
L 424.006644 162.324943 
L 425.880804 167.001055 
L 427.754965 170.304193 
L 429.629125 172.219165 
L 431.503285 173.126887 
L 433.377446 173.442726 
L 435.251606 169.355664 
L 437.125766 138.643165 
L 438.999927 139.812518 
L 440.874087 170.940786 
L 442.748247 176.159493 
L 444.622408 177.59267 
L 446.496568 178.516575 
L 448.370728 178.978184 
L 450.244889 179.260831 
L 452.119049 179.126959 
L 453.993209 178.249486 
L 455.86737 180.59017 
L 453.993209 178.249486 
L 452.119049 179.126959 
L 450.244889 179.260831 
L 448.370728 178.978184 
L 446.496568 178.516575 
L 444.622408 177.59267 
L 442.748247 176.159493 
L 440.874087 170.940786 
L 438.999927 139.812518 
L 437.125766 138.643165 
L 435.251606 169.355664 
L 433.377446 173.442726 
L 431.503285 173.126887 
L 429.629125 172.219165 
L 427.754965 170.304193 
L 425.880804 167.001055 
L 424.006644 162.324943 
L 422.132484 153.996753 
L 420.258323 142.133428 
L 418.384163 127.426915 
L 416.510003 148.439107 
L 414.635842 162.162609 
L 412.761682 167.538025 
L 410.887522 172.137092 
L 409.013362 174.487273 
L 407.139201 175.68542 
L 405.265041 176.168031 
L 403.390881 174.143078 
L 401.51672 165.625948 
L 399.64256 114.393528 
L 397.7684 162.189759 
L 395.894239 171.562041 
L 394.020079 173.967334 
L 392.145919 174.68182 
L 390.271758 174.828697 
L 388.397598 174.705737 
L 386.523438 174.237698 
L 384.649277 172.177806 
L 382.775117 169.780701 
L 380.900957 174.328706 
L 379.026796 171.384097 
L 377.152636 172.833472 
L 375.278476 173.268936 
L 373.404315 172.033019 
L 369.655995 170.046586 
L 367.781834 168.905513 
L 365.907674 165.91712 
L 364.033514 151.889081 
L 362.159353 98.931781 
L 360.285193 147.340312 
L 358.411033 155.253782 
L 356.536872 156.041837 
L 354.662712 154.295083 
L 352.788552 151.643284 
L 350.914392 147.804819 
L 349.040231 141.906076 
L 347.166071 134.785443 
L 345.291911 118.941684 
L 343.41775 94.641164 
L 341.54359 118.61458 
L 339.66943 136.463634 
L 337.795269 141.688779 
L 335.921109 148.67765 
L 334.046949 152.617532 
L 332.172788 155.323113 
L 330.298628 157.765127 
L 328.424468 154.116002 
L 326.550307 146.7815 
L 324.676147 56.439008 
L 322.801987 122.164051 
L 320.927826 135.940966 
L 319.053666 135.75334 
L 317.179506 137.099797 
L 315.305345 135.407885 
L 313.431185 132.192427 
L 311.557025 126.907859 
L 309.682864 119.266556 
L 307.808704 101.390128 
L 305.934544 77.259062 
L 304.060383 102.754662 
L 302.186223 123.599689 
L 300.312063 131.134064 
L 298.437902 141.254264 
L 296.563742 150.517798 
L 294.689582 163.752124 
L 292.815422 161.896451 
L 290.941261 154.056553 
L 289.067101 131.73508 
L 287.192941 24.050202 
L 285.31878 101.011138 
L 283.44462 117.535039 
L 279.696299 123.803546 
L 277.822139 124.114437 
L 275.947979 122.458501 
L 274.073818 117.622579 
L 272.199658 112.15537 
L 270.325498 93.725673 
L 270.325498 93.725673 
" clip-path="url(#pa9b57cd9ce)" style="fill: none; stroke: #d62728; stroke-width: 1.5; stroke-linecap: square"/>
   </g>
   <g id="patch_8">
    <path d="M 259.080536 235.23198 
L 259.080536 13.47198 
" style="fill: none; stroke: #000000; stroke-width: 0.8; stroke-linejoin: miter; stroke-linecap: square"/>
   </g>
   <g id="patch_9">
    <path d="M 465.238171 235.23198 
L 465.238171 13.47198 
" style="fill: none; stroke: #000000; stroke-width: 0.8; stroke-linejoin: miter; stroke-linecap: square"/>
   </g>
   <g id="patch_10">
    <path d="M 259.080536 235.23198 
L 465.238171 235.23198 
" style="fill: none; stroke: #000000; stroke-width: 0.8; stroke-linejoin: miter; stroke-linecap: square"/>
   </g>
   <g id="patch_11">
    <path d="M 259.080536 13.47198 
L 465.238171 13.47198 
" style="fill: none; stroke: #000000; stroke-width: 0.8; stroke-linejoin: miter; stroke-linecap: square"/>
   </g>
   <g id="text_17">
    <!-- $(b)$ -->
    <g transform="translate(270.325498 26.920463) scale(0.15 -0.15)">
     <defs>
      <path id="CMMI12-62" d="M 1478 4255 
C 1485 4281 1498 4319 1498 4351 
C 1498 4416 1434 4416 1421 4416 
C 1414 4416 1184 4396 1069 4383 
C 960 4377 864 4364 749 4358 
C 595 4345 550 4339 550 4223 
C 550 4159 614 4159 678 4159 
C 1005 4159 1005 4103 1005 4040 
C 1005 3995 954 3812 928 3699 
L 774 3093 
C 710 2841 346 1392 320 1277 
C 288 1117 288 1008 288 925 
C 288 274 653 -64 1069 -64 
C 1811 -64 2579 887 2579 1813 
C 2579 2400 2246 2816 1766 2816 
C 1434 2816 1133 2541 1011 2413 
L 1478 4255 
z
M 1075 64 
C 870 64 646 217 646 715 
C 646 925 666 1047 781 1494 
C 800 1577 902 1985 928 2068 
C 941 2119 1318 2687 1754 2687 
C 2035 2687 2163 2407 2163 2075 
C 2163 1768 1984 1047 1824 715 
C 1664 370 1370 64 1075 64 
z
" transform="scale(0.015625)"/>
     </defs>
     <use xlink:href="#CMR17-28" transform="scale(0.996264)"/>
     <use xlink:href="#CMMI12-62" transform="translate(35.280768 0) scale(0.996264)"/>
     <use xlink:href="#CMR17-29" transform="translate(76.756642 0) scale(0.996264)"/>
    </g>
   </g>
   <g id="text_18">
    <!-- $J_0=0.2/T$ -->
    <g transform="translate(338.754089 7.47198) scale(0.1 -0.1)">
     <use xlink:href="#CMMI12-4a" transform="scale(0.996264)"/>
     <use xlink:href="#CMR17-30" transform="translate(53.917955 -14.943915) scale(0.697382)"/>
     <use xlink:href="#CMR17-3d" transform="translate(114.073278 0) scale(0.996264)"/>
     <use xlink:href="#CMR17-30" transform="translate(213.462075 0) scale(0.996264)"/>
     <use xlink:href="#CMMI12-3a" transform="translate(259.152552 0) scale(0.996264)"/>
     <use xlink:href="#CMR17-32" transform="translate(286.249729 0) scale(0.996264)"/>
     <use xlink:href="#CMMI12-3d" transform="translate(331.940207 0) scale(0.996264)"/>
     <use xlink:href="#CMMI12-54" transform="translate(380.715125 0) scale(0.996264)"/>
    </g>
   </g>
   <g id="legend_1">
    <g id="line2d_103">
     <path d="M 389.146309 27.330132 
L 400.146309 27.330132 
L 411.146309 27.330132 
" style="fill: none; stroke: #1f77b4; stroke-width: 1.5; stroke-linecap: square"/>
    </g>
    <g id="text_19">
     <!-- $\beta=0.0$ -->
     <g transform="translate(419.946309 31.180132) scale(0.11 -0.11)">
      <defs>
       <path id="CMMI12-c" d="M 3622 3739 
C 3622 4131 3296 4544 2714 4544 
C 1888 4544 1363 3510 1197 2830 
L 186 -1152 
C 173 -1204 211 -1216 243 -1216 
C 288 -1216 320 -1210 326 -1178 
L 774 592 
C 838 231 1190 -64 1568 -64 
C 2483 -64 3347 657 3347 1618 
C 3347 1863 3290 2108 3155 2314 
C 3078 2437 2982 2527 2880 2599 
C 3341 2823 3622 3222 3622 3739 
z
M 2509 2605 
C 2406 2571 2304 2560 2182 2560 
C 2093 2560 2010 2553 1894 2588 
C 1958 2627 2054 2639 2189 2639 
C 2304 2639 2419 2627 2509 2605 
z
M 3290 3798 
C 3290 3438 3117 2915 2701 2684 
C 2579 2723 2413 2752 2272 2752 
C 2138 2752 1754 2765 1754 2582 
C 1754 2411 2106 2430 2214 2430 
C 2381 2430 2528 2469 2682 2514 
C 2886 2347 2976 2127 2976 1805 
C 2976 1431 2874 1128 2752 850 
C 2541 373 2042 64 1600 64 
C 1133 64 890 438 890 876 
C 890 934 890 1018 915 1115 
L 1331 2784 
C 1542 3641 2080 4413 2701 4413 
C 3162 4413 3290 4086 3290 3798 
z
" transform="scale(0.015625)"/>
      </defs>
      <use xlink:href="#CMMI12-c" transform="scale(0.996264)"/>
      <use xlink:href="#CMR17-3d" transform="translate(88.268024 0) scale(0.996264)"/>
      <use xlink:href="#CMR17-30" transform="translate(187.656822 0) scale(0.996264)"/>
      <use xlink:href="#CMMI12-3a" transform="translate(233.347299 0) scale(0.996264)"/>
      <use xlink:href="#CMR17-30" transform="translate(260.444476 0) scale(0.996264)"/>
     </g>
    </g>
    <g id="line2d_104">
     <path d="M 389.146309 42.972458 
L 400.146309 42.972458 
L 411.146309 42.972458 
" style="fill: none; stroke: #ff7f0e; stroke-width: 1.5; stroke-linecap: square"/>
    </g>
    <g id="text_20">
     <!-- $\beta=1.5$ -->
     <g transform="translate(419.946309 46.822458) scale(0.11 -0.11)">
      <defs>
       <path id="CMR17-35" d="M 730 3750 
C 794 3724 1056 3641 1325 3641 
C 1920 3641 2246 3961 2432 4140 
C 2432 4191 2432 4224 2394 4224 
C 2387 4224 2374 4224 2323 4198 
C 2099 4102 1837 4032 1517 4032 
C 1325 4032 1037 4055 723 4191 
C 653 4224 640 4224 634 4224 
C 602 4224 595 4217 595 4090 
L 595 2231 
C 595 2113 595 2080 659 2080 
C 691 2080 704 2093 736 2139 
C 941 2435 1222 2560 1542 2560 
C 1766 2560 2246 2415 2246 1293 
C 2246 1087 2246 716 2054 422 
C 1894 159 1645 25 1370 25 
C 947 25 518 319 403 812 
C 429 806 480 793 506 793 
C 589 793 749 838 749 1036 
C 749 1209 627 1280 506 1280 
C 358 1280 262 1190 262 1011 
C 262 454 704 -128 1382 -128 
C 2042 -128 2669 441 2669 1267 
C 2669 2054 2170 2662 1549 2662 
C 1222 2662 947 2540 730 2304 
L 730 3750 
z
" transform="scale(0.015625)"/>
      </defs>
      <use xlink:href="#CMMI12-c" transform="scale(0.996264)"/>
      <use xlink:href="#CMR17-3d" transform="translate(88.268024 0) scale(0.996264)"/>
      <use xlink:href="#CMR17-31" transform="translate(187.656822 0) scale(0.996264)"/>
      <use xlink:href="#CMMI12-3a" transform="translate(233.347299 0) scale(0.996264)"/>
      <use xlink:href="#CMR17-35" transform="translate(260.444476 0) scale(0.996264)"/>
     </g>
    </g>
    <g id="line2d_105">
     <path d="M 389.146309 58.614783 
L 400.146309 58.614783 
L 411.146309 58.614783 
" style="fill: none; stroke: #2ca02c; stroke-width: 1.5; stroke-linecap: square"/>
    </g>
    <g id="text_21">
     <!-- $\beta=2.5$ -->
     <g transform="translate(419.946309 62.464783) scale(0.11 -0.11)">
      <use xlink:href="#CMMI12-c" transform="scale(0.996264)"/>
      <use xlink:href="#CMR17-3d" transform="translate(88.268024 0) scale(0.996264)"/>
      <use xlink:href="#CMR17-32" transform="translate(187.656822 0) scale(0.996264)"/>
      <use xlink:href="#CMMI12-3a" transform="translate(233.347299 0) scale(0.996264)"/>
      <use xlink:href="#CMR17-35" transform="translate(260.444476 0) scale(0.996264)"/>
     </g>
    </g>
    <g id="line2d_106">
     <path d="M 389.146309 74.257108 
L 400.146309 74.257108 
L 411.146309 74.257108 
" style="fill: none; stroke: #d62728; stroke-width: 1.5; stroke-linecap: square"/>
    </g>
    <g id="text_22">
     <!-- $\beta=\infty$ -->
     <g transform="translate(419.946309 78.107108) scale(0.11 -0.11)">
      <defs>
       <path id="CMSY10-31" d="M 3251 1736 
C 2906 2170 2829 2266 2630 2426 
C 2272 2713 1914 2828 1587 2828 
C 838 2828 352 2126 352 1379 
C 352 645 826 -64 1562 -64 
C 2298 -64 2829 517 3142 1028 
C 3488 594 3565 498 3763 338 
C 4122 51 4480 -64 4806 -64 
C 5555 -64 6042 638 6042 1385 
C 6042 2119 5568 2828 4832 2828 
C 4096 2828 3565 2247 3251 1736 
z
M 3418 1519 
C 3680 1979 4154 2624 4877 2624 
C 5555 2624 5901 1960 5901 1385 
C 5901 760 5472 242 4909 242 
C 4538 242 4250 511 4115 645 
C 3955 817 3808 1015 3418 1519 
z
M 2976 1245 
C 2714 785 2240 140 1517 140 
C 838 140 493 804 493 1379 
C 493 2004 922 2521 1485 2521 
C 1856 2521 2144 2253 2278 2119 
C 2438 1947 2586 1749 2976 1245 
z
" transform="scale(0.015625)"/>
      </defs>
      <use xlink:href="#CMMI12-c" transform="scale(0.996264)"/>
      <use xlink:href="#CMR17-3d" transform="translate(88.268024 0) scale(0.996264)"/>
      <use xlink:href="#CMSY10-31" transform="translate(187.656822 0) scale(0.996264)"/>
     </g>
    </g>
   </g>
  </g>
 </g>
 <defs>
  <clipPath id="pb95a8826fb">
   <rect x="46.738171" y="13.47198" width="206.157635" height="221.76"/>
  </clipPath>
  <clipPath id="pa9b57cd9ce">
   <rect x="259.080536" y="13.47198" width="206.157635" height="221.76"/>
  </clipPath>
 </defs>
</svg>
