<?xml version="1.0" encoding="utf-8" standalone="no"?>
<!DOCTYPE svg PUBLIC "-//W3C//DTD SVG 1.1//EN"
  "http://www.w3.org/Graphics/SVG/1.1/DTD/svg11.dtd">
<svg xmlns:xlink="http://www.w3.org/1999/xlink" width="494.019176pt" height="267.595574pt" viewBox="0 0 494.019176 267.595574" xmlns="http://www.w3.org/2000/svg" version="1.1">
 <metadata>
  <rdf:RDF xmlns:dc="http://purl.org/dc/elements/1.1/" xmlns:cc="http://creativecommons.org/ns#" xmlns:rdf="http://www.w3.org/1999/02/22-rdf-syntax-ns#">
   <cc:Work>
    <dc:type rdf:resource="http://purl.org/dc/dcmitype/StillImage"/>
    <dc:date>2024-05-02T12:18:03.991729</dc:date>
    <dc:format>image/svg+xml</dc:format>
    <dc:creator>
     <cc:Agent>
      <dc:title>Matplotlib v3.5.2, https://matplotlib.org/</dc:title>
     </cc:Agent>
    </dc:creator>
   </cc:Work>
  </rdf:RDF>
 </metadata>
 <defs>
  <style type="text/css">*{stroke-linejoin: round; stroke-linecap: butt}</style>
 </defs>
 <g id="figure_1">
  <g id="patch_1">
   <path d="M 0 267.595574 
L 494.019176 267.595574 
L 494.019176 0 
L 0 0 
z
" style="fill: #ffffff"/>
  </g>
  <g id="axes_1">
   <g id="patch_2">
    <path d="M 47.619176 235.23198 
L 268.609275 235.23198 
L 268.609275 13.47198 
L 47.619176 13.47198 
z
" style="fill: #ffffff"/>
   </g>
   <g id="matplotlib.axis_1">
    <g id="xtick_1">
     <g id="line2d_1">
      <defs>
       <path id="m77e710502b" d="M 0 0 
L 0 -3.5 
" style="stroke: #000000; stroke-width: 0.8"/>
      </defs>
      <g>
       <use xlink:href="#m77e710502b" x="47.619176" y="235.23198" style="stroke: #000000; stroke-width: 0.8"/>
      </g>
     </g>
     <g id="text_1">
      <!-- $\mathdefault{0.0}$ -->
      <g transform="translate(38.893885 248.669628)scale(0.14 -0.14)">
       <defs>
        <path id="CMR17-30" d="M 2688 2038 
C 2688 2430 2682 3099 2413 3613 
C 2176 4063 1798 4224 1466 4224 
C 1158 4224 768 4082 525 3620 
C 269 3137 243 2539 243 2038 
C 243 1671 250 1112 448 623 
C 723 -39 1216 -128 1466 -128 
C 1760 -128 2208 -7 2470 604 
C 2662 1048 2688 1568 2688 2038 
z
M 1466 -26 
C 1056 -26 813 328 723 816 
C 653 1196 653 1749 653 2109 
C 653 2604 653 3015 736 3407 
C 858 3954 1216 4121 1466 4121 
C 1728 4121 2067 3947 2189 3420 
C 2272 3054 2278 2623 2278 2109 
C 2278 1691 2278 1176 2202 797 
C 2067 96 1690 -26 1466 -26 
z
" transform="scale(0.015625)"/>
        <path id="CMMI12-3a" d="M 1178 307 
C 1178 492 1024 620 870 620 
C 685 620 557 467 557 313 
C 557 128 710 0 864 0 
C 1050 0 1178 153 1178 307 
z
" transform="scale(0.015625)"/>
       </defs>
       <use xlink:href="#CMR17-30" transform="scale(0.996264)"/>
       <use xlink:href="#CMMI12-3a" transform="translate(45.690477 0)scale(0.996264)"/>
       <use xlink:href="#CMR17-30" transform="translate(72.787654 0)scale(0.996264)"/>
      </g>
     </g>
    </g>
    <g id="xtick_2">
     <g id="line2d_2">
      <g>
       <use xlink:href="#m77e710502b" x="91.817196" y="235.23198" style="stroke: #000000; stroke-width: 0.8"/>
      </g>
     </g>
     <g id="text_2">
      <!-- $\mathdefault{0.2}$ -->
      <g transform="translate(83.091905 248.669628)scale(0.14 -0.14)">
       <defs>
        <path id="CMR17-32" d="M 2669 990 
L 2554 990 
C 2490 537 2438 460 2413 422 
C 2381 371 1920 371 1830 371 
L 602 371 
C 832 620 1280 1073 1824 1596 
C 2214 1966 2669 2400 2669 3033 
C 2669 3788 2067 4224 1395 4224 
C 691 4224 262 3603 262 3027 
C 262 2777 448 2745 525 2745 
C 589 2745 781 2783 781 3007 
C 781 3206 614 3264 525 3264 
C 486 3264 448 3257 422 3244 
C 544 3788 915 4057 1306 4057 
C 1862 4057 2227 3616 2227 3033 
C 2227 2477 1901 1998 1536 1583 
L 262 147 
L 262 0 
L 2515 0 
L 2669 990 
z
" transform="scale(0.015625)"/>
       </defs>
       <use xlink:href="#CMR17-30" transform="scale(0.996264)"/>
       <use xlink:href="#CMMI12-3a" transform="translate(45.690477 0)scale(0.996264)"/>
       <use xlink:href="#CMR17-32" transform="translate(72.787654 0)scale(0.996264)"/>
      </g>
     </g>
    </g>
    <g id="xtick_3">
     <g id="line2d_3">
      <g>
       <use xlink:href="#m77e710502b" x="158.114225" y="235.23198" style="stroke: #000000; stroke-width: 0.8"/>
      </g>
     </g>
     <g id="text_3">
      <!-- $\mathdefault{0.5}$ -->
      <g transform="translate(149.388934 248.669628)scale(0.14 -0.14)">
       <defs>
        <path id="CMR17-35" d="M 730 3750 
C 794 3724 1056 3641 1325 3641 
C 1920 3641 2246 3961 2432 4140 
C 2432 4191 2432 4224 2394 4224 
C 2387 4224 2374 4224 2323 4198 
C 2099 4102 1837 4032 1517 4032 
C 1325 4032 1037 4055 723 4191 
C 653 4224 640 4224 634 4224 
C 602 4224 595 4217 595 4090 
L 595 2231 
C 595 2113 595 2080 659 2080 
C 691 2080 704 2093 736 2139 
C 941 2435 1222 2560 1542 2560 
C 1766 2560 2246 2415 2246 1293 
C 2246 1087 2246 716 2054 422 
C 1894 159 1645 25 1370 25 
C 947 25 518 319 403 812 
C 429 806 480 793 506 793 
C 589 793 749 838 749 1036 
C 749 1209 627 1280 506 1280 
C 358 1280 262 1190 262 1011 
C 262 454 704 -128 1382 -128 
C 2042 -128 2669 441 2669 1267 
C 2669 2054 2170 2662 1549 2662 
C 1222 2662 947 2540 730 2304 
L 730 3750 
z
" transform="scale(0.015625)"/>
       </defs>
       <use xlink:href="#CMR17-30" transform="scale(0.996264)"/>
       <use xlink:href="#CMMI12-3a" transform="translate(45.690477 0)scale(0.996264)"/>
       <use xlink:href="#CMR17-35" transform="translate(72.787654 0)scale(0.996264)"/>
      </g>
     </g>
    </g>
    <g id="xtick_4">
     <g id="line2d_4">
      <g>
       <use xlink:href="#m77e710502b" x="224.411255" y="235.23198" style="stroke: #000000; stroke-width: 0.8"/>
      </g>
     </g>
     <g id="text_4">
      <!-- $\mathdefault{0.8}$ -->
      <g transform="translate(215.685964 248.669628)scale(0.14 -0.14)">
       <defs>
        <path id="CMR17-38" d="M 1741 2289 
C 2144 2494 2554 2803 2554 3298 
C 2554 3884 1990 4224 1472 4224 
C 890 4224 378 3800 378 3215 
C 378 3054 416 2777 666 2533 
C 730 2469 998 2276 1171 2154 
C 883 2006 211 1652 211 945 
C 211 282 838 -128 1459 -128 
C 2144 -128 2720 366 2720 1022 
C 2720 1607 2330 1877 2074 2051 
L 1741 2289 
z
M 902 2855 
C 851 2887 595 3086 595 3388 
C 595 3781 998 4076 1459 4076 
C 1965 4076 2336 3716 2336 3298 
C 2336 2700 1670 2359 1638 2359 
C 1632 2359 1626 2359 1574 2398 
L 902 2855 
z
M 2080 1536 
C 2176 1466 2483 1253 2483 861 
C 2483 385 2010 25 1472 25 
C 890 25 448 443 448 951 
C 448 1459 838 1884 1280 2083 
L 2080 1536 
z
" transform="scale(0.015625)"/>
       </defs>
       <use xlink:href="#CMR17-30" transform="scale(0.996264)"/>
       <use xlink:href="#CMMI12-3a" transform="translate(45.690477 0)scale(0.996264)"/>
       <use xlink:href="#CMR17-38" transform="translate(72.787654 0)scale(0.996264)"/>
      </g>
     </g>
    </g>
    <g id="text_5">
     <!-- $\Omega/\omega$ -->
     <g transform="translate(147.315951 264.606782)scale(0.12 -0.12)">
      <defs>
       <path id="CMR17-a" d="M 4038 935 
L 3923 935 
C 3866 640 3846 563 3814 461 
C 3782 364 3763 313 3392 313 
L 2874 313 
C 2944 685 3098 961 3366 1390 
C 3699 1935 3974 2377 3974 2909 
C 3974 3775 3155 4480 2138 4480 
C 1094 4480 294 3768 294 2909 
C 294 2377 576 1922 890 1416 
C 1171 961 1325 685 1395 313 
L 877 313 
C 512 313 493 364 461 454 
C 422 557 410 640 346 935 
L 230 935 
L 416 0 
L 1382 0 
C 1517 0 1523 6 1523 102 
C 1523 557 1286 1153 1178 1428 
C 973 1928 781 2416 781 2916 
C 781 3871 1466 4377 2131 4377 
C 2829 4377 3488 3852 3488 2916 
C 3488 2422 3315 1980 3078 1396 
C 2976 1134 2746 550 2746 102 
C 2746 0 2752 0 2886 0 
L 3853 0 
L 4038 935 
z
" transform="scale(0.015625)"/>
       <path id="CMMI12-3d" d="M 2746 4563 
C 2746 4569 2784 4665 2784 4678 
C 2784 4755 2720 4800 2669 4800 
C 2637 4800 2579 4800 2528 4659 
L 384 -1364 
C 384 -1370 346 -1466 346 -1479 
C 346 -1556 410 -1600 461 -1600 
C 499 -1600 557 -1594 602 -1460 
L 2746 4563 
z
" transform="scale(0.015625)"/>
       <path id="CMMI12-21" d="M 3802 2406 
C 3802 2592 3750 2828 3526 2828 
C 3398 2828 3251 2668 3251 2540 
C 3251 2483 3277 2444 3328 2387 
C 3424 2278 3546 2105 3546 1804 
C 3546 1574 3405 1209 3302 1011 
C 3123 659 2829 358 2496 358 
C 2093 358 1939 614 1869 972 
C 1939 1139 2086 1555 2086 1721 
C 2086 1792 2061 1849 1978 1849 
C 1933 1849 1882 1824 1850 1772 
C 1760 1632 1677 1126 1683 992 
C 1562 755 1216 358 806 358 
C 378 358 262 736 262 1100 
C 262 1766 678 2348 794 2508 
C 858 2604 902 2668 902 2681 
C 902 2726 877 2796 819 2796 
C 717 2796 685 2713 634 2636 
C 307 2131 77 1420 77 806 
C 77 409 224 -64 704 -64 
C 1235 -64 1568 390 1702 633 
C 1754 275 1946 -64 2413 -64 
C 2899 -64 3206 364 3437 883 
C 3603 1254 3802 2054 3802 2406 
z
" transform="scale(0.015625)"/>
      </defs>
      <use xlink:href="#CMR17-a" transform="scale(0.996264)"/>
      <use xlink:href="#CMMI12-3d" transform="translate(66.509881 0)scale(0.996264)"/>
      <use xlink:href="#CMMI12-21" transform="translate(115.284799 0)scale(0.996264)"/>
     </g>
    </g>
   </g>
   <g id="matplotlib.axis_2">
    <g id="ytick_1">
     <g id="line2d_5">
      <defs>
       <path id="m0f18428983" d="M 0 0 
L 3.5 0 
" style="stroke: #000000; stroke-width: 0.8"/>
      </defs>
      <g>
       <use xlink:href="#m0f18428983" x="47.619176" y="225.153324" style="stroke: #000000; stroke-width: 0.8"/>
      </g>
     </g>
     <g id="text_6">
      <!-- $\mathdefault{0}$ -->
      <g transform="translate(37.290687 230.122148)scale(0.14 -0.14)">
       <use xlink:href="#CMR17-30" transform="scale(0.996264)"/>
      </g>
     </g>
    </g>
    <g id="ytick_2">
     <g id="line2d_6">
      <g>
       <use xlink:href="#m0f18428983" x="47.619176" y="190.877953" style="stroke: #000000; stroke-width: 0.8"/>
      </g>
     </g>
     <g id="text_7">
      <!-- $\mathdefault{1000}$ -->
      <g transform="translate(16.805221 195.846777)scale(0.14 -0.14)">
       <defs>
        <path id="CMR17-31" d="M 1702 4083 
C 1702 4217 1696 4224 1606 4224 
C 1357 3927 979 3833 621 3820 
C 602 3820 570 3820 563 3808 
C 557 3795 557 3782 557 3648 
C 755 3648 1088 3686 1344 3839 
L 1344 467 
C 1344 243 1331 166 781 166 
L 589 166 
L 589 0 
C 896 6 1216 12 1523 12 
C 1830 12 2150 6 2458 0 
L 2458 166 
L 2266 166 
C 1715 166 1702 236 1702 467 
L 1702 4083 
z
" transform="scale(0.015625)"/>
       </defs>
       <use xlink:href="#CMR17-31" transform="scale(0.996264)"/>
       <use xlink:href="#CMR17-30" transform="translate(45.690477 0)scale(0.996264)"/>
       <use xlink:href="#CMR17-30" transform="translate(91.380954 0)scale(0.996264)"/>
       <use xlink:href="#CMR17-30" transform="translate(137.071431 0)scale(0.996264)"/>
      </g>
     </g>
    </g>
    <g id="ytick_3">
     <g id="line2d_7">
      <g>
       <use xlink:href="#m0f18428983" x="47.619176" y="156.602582" style="stroke: #000000; stroke-width: 0.8"/>
      </g>
     </g>
     <g id="text_8">
      <!-- $\mathdefault{2000}$ -->
      <g transform="translate(16.805221 161.571406)scale(0.14 -0.14)">
       <use xlink:href="#CMR17-32" transform="scale(0.996264)"/>
       <use xlink:href="#CMR17-30" transform="translate(45.690477 0)scale(0.996264)"/>
       <use xlink:href="#CMR17-30" transform="translate(91.380954 0)scale(0.996264)"/>
       <use xlink:href="#CMR17-30" transform="translate(137.071431 0)scale(0.996264)"/>
      </g>
     </g>
    </g>
    <g id="ytick_4">
     <g id="line2d_8">
      <g>
       <use xlink:href="#m0f18428983" x="47.619176" y="122.327211" style="stroke: #000000; stroke-width: 0.8"/>
      </g>
     </g>
     <g id="text_9">
      <!-- $\mathdefault{3000}$ -->
      <g transform="translate(16.805221 127.296035)scale(0.14 -0.14)">
       <defs>
        <path id="CMR17-33" d="M 1414 2176 
C 1984 2176 2234 1673 2234 1094 
C 2234 322 1824 25 1453 25 
C 1114 25 563 193 390 691 
C 422 678 454 678 486 678 
C 640 678 755 780 755 947 
C 755 1132 614 1216 486 1216 
C 378 1216 211 1164 211 927 
C 211 335 787 -128 1466 -128 
C 2176 -128 2720 432 2720 1087 
C 2720 1718 2208 2176 1600 2246 
C 2086 2347 2554 2776 2554 3353 
C 2554 3856 2048 4224 1472 4224 
C 890 4224 378 3862 378 3347 
C 378 3123 544 3084 627 3084 
C 762 3084 877 3167 877 3334 
C 877 3500 762 3584 627 3584 
C 602 3584 570 3584 544 3571 
C 730 3999 1235 4076 1459 4076 
C 1683 4076 2106 3966 2106 3347 
C 2106 3167 2080 2851 1862 2574 
C 1670 2329 1453 2316 1242 2297 
C 1210 2297 1062 2284 1037 2284 
C 992 2278 966 2272 966 2227 
C 966 2182 973 2176 1101 2176 
L 1414 2176 
z
" transform="scale(0.015625)"/>
       </defs>
       <use xlink:href="#CMR17-33" transform="scale(0.996264)"/>
       <use xlink:href="#CMR17-30" transform="translate(45.690477 0)scale(0.996264)"/>
       <use xlink:href="#CMR17-30" transform="translate(91.380954 0)scale(0.996264)"/>
       <use xlink:href="#CMR17-30" transform="translate(137.071431 0)scale(0.996264)"/>
      </g>
     </g>
    </g>
    <g id="ytick_5">
     <g id="line2d_9">
      <g>
       <use xlink:href="#m0f18428983" x="47.619176" y="88.05184" style="stroke: #000000; stroke-width: 0.8"/>
      </g>
     </g>
     <g id="text_10">
      <!-- $\mathdefault{4000}$ -->
      <g transform="translate(16.805221 93.020664)scale(0.14 -0.14)">
       <defs>
        <path id="CMR17-34" d="M 2150 4147 
C 2150 4281 2144 4288 2029 4288 
L 128 1254 
L 128 1088 
L 1779 1088 
L 1779 460 
C 1779 230 1766 166 1318 166 
L 1197 166 
L 1197 0 
C 1402 12 1747 12 1965 12 
C 2182 12 2528 12 2733 0 
L 2733 166 
L 2611 166 
C 2163 166 2150 230 2150 460 
L 2150 1088 
L 2803 1088 
L 2803 1254 
L 2150 1254 
L 2150 4147 
z
M 1798 3723 
L 1798 1254 
L 256 1254 
L 1798 3723 
z
" transform="scale(0.015625)"/>
       </defs>
       <use xlink:href="#CMR17-34" transform="scale(0.996264)"/>
       <use xlink:href="#CMR17-30" transform="translate(45.690477 0)scale(0.996264)"/>
       <use xlink:href="#CMR17-30" transform="translate(91.380954 0)scale(0.996264)"/>
       <use xlink:href="#CMR17-30" transform="translate(137.071431 0)scale(0.996264)"/>
      </g>
     </g>
    </g>
    <g id="ytick_6">
     <g id="line2d_10">
      <g>
       <use xlink:href="#m0f18428983" x="47.619176" y="53.776469" style="stroke: #000000; stroke-width: 0.8"/>
      </g>
     </g>
     <g id="text_11">
      <!-- $\mathdefault{5000}$ -->
      <g transform="translate(16.805221 58.745293)scale(0.14 -0.14)">
       <use xlink:href="#CMR17-35" transform="scale(0.996264)"/>
       <use xlink:href="#CMR17-30" transform="translate(45.690477 0)scale(0.996264)"/>
       <use xlink:href="#CMR17-30" transform="translate(91.380954 0)scale(0.996264)"/>
       <use xlink:href="#CMR17-30" transform="translate(137.071431 0)scale(0.996264)"/>
      </g>
     </g>
    </g>
    <g id="ytick_7">
     <g id="line2d_11">
      <g>
       <use xlink:href="#m0f18428983" x="47.619176" y="19.501097" style="stroke: #000000; stroke-width: 0.8"/>
      </g>
     </g>
     <g id="text_12">
      <!-- $\mathdefault{6000}$ -->
      <g transform="translate(16.805221 24.469922)scale(0.14 -0.14)">
       <defs>
        <path id="CMR17-36" d="M 678 2198 
C 678 3712 1395 4076 1811 4076 
C 1946 4076 2272 4049 2400 3782 
C 2298 3782 2106 3782 2106 3558 
C 2106 3385 2246 3328 2336 3328 
C 2394 3328 2566 3353 2566 3571 
C 2566 3987 2246 4224 1805 4224 
C 1043 4224 243 3411 243 2011 
C 243 257 966 -128 1478 -128 
C 2099 -128 2688 431 2688 1295 
C 2688 2101 2170 2688 1517 2688 
C 1126 2688 838 2430 678 1979 
L 678 2198 
z
M 1478 25 
C 691 25 691 1212 691 1450 
C 691 1914 909 2585 1504 2585 
C 1613 2585 1926 2585 2138 2140 
C 2253 1889 2253 1624 2253 1302 
C 2253 954 2253 696 2118 438 
C 1978 173 1773 25 1478 25 
z
" transform="scale(0.015625)"/>
       </defs>
       <use xlink:href="#CMR17-36" transform="scale(0.996264)"/>
       <use xlink:href="#CMR17-30" transform="translate(45.690477 0)scale(0.996264)"/>
       <use xlink:href="#CMR17-30" transform="translate(91.380954 0)scale(0.996264)"/>
       <use xlink:href="#CMR17-30" transform="translate(137.071431 0)scale(0.996264)"/>
      </g>
     </g>
    </g>
    <g id="text_13">
     <!-- $FFT\;(M^Z_A)$ -->
     <g transform="translate(9.784673 153.698344)rotate(-90)scale(0.12 -0.12)">
      <defs>
       <path id="CMMI12-46" d="M 1901 2054 
L 2515 2054 
C 3002 2054 3040 1947 3040 1764 
C 3040 1683 3027 1595 2995 1456 
C 2982 1431 2976 1399 2976 1387 
C 2976 1343 3002 1318 3046 1318 
C 3098 1318 3104 1343 3130 1444 
L 3501 2929 
C 3501 2955 3482 2993 3437 2993 
C 3379 2993 3373 2968 3347 2858 
C 3213 2375 3085 2240 2528 2240 
L 1946 2240 
L 2362 3908 
C 2419 4134 2432 4153 2694 4153 
L 3552 4153 
C 4352 4153 4467 3915 4467 3457 
C 4467 3419 4467 3277 4448 3109 
C 4442 3084 4429 3000 4429 2974 
C 4429 2922 4461 2903 4499 2903 
C 4544 2903 4570 2929 4582 3045 
L 4717 4172 
C 4717 4191 4730 4255 4730 4268 
C 4730 4339 4672 4339 4557 4339 
L 1523 4339 
C 1402 4339 1338 4339 1338 4223 
C 1338 4153 1382 4153 1491 4153 
C 1888 4153 1888 4108 1888 4037 
C 1888 4005 1882 3979 1862 3908 
L 998 468 
C 941 248 928 185 480 185 
C 358 185 294 185 294 70 
C 294 0 352 0 390 0 
C 512 0 640 12 762 12 
L 1594 12 
C 1734 12 1888 0 2029 0 
C 2086 0 2163 0 2163 115 
C 2163 185 2125 185 1984 185 
C 1478 185 1466 229 1466 324 
C 1466 355 1478 405 1491 449 
L 1901 2054 
z
" transform="scale(0.015625)"/>
       <path id="CMMI12-54" d="M 2669 3886 
C 2707 4038 2720 4096 2816 4121 
C 2867 4134 3078 4134 3213 4134 
C 3853 4134 4154 4109 4154 3612 
C 4154 3516 4128 3274 4090 3038 
L 4083 2962 
C 4083 2937 4109 2898 4147 2898 
C 4211 2898 4211 2930 4230 3032 
L 4416 4159 
C 4429 4217 4429 4230 4429 4249 
C 4429 4319 4390 4319 4262 4319 
L 762 4319 
C 614 4319 608 4313 570 4198 
L 179 3051 
C 173 3038 154 2968 154 2962 
C 154 2930 179 2898 218 2898 
C 269 2898 282 2924 307 3007 
C 576 3777 710 4134 1562 4134 
L 1990 4134 
C 2144 4134 2208 4134 2208 4064 
C 2208 4045 2208 4032 2176 3917 
L 1318 497 
C 1254 249 1242 185 563 185 
C 403 185 358 185 358 64 
C 358 0 429 0 461 0 
C 621 0 787 12 947 12 
L 1946 12 
C 2106 12 2278 0 2438 0 
C 2509 0 2573 0 2573 121 
C 2573 185 2528 185 2362 185 
C 1786 185 1786 242 1786 338 
C 1786 344 1786 389 1811 491 
L 2669 3886 
z
" transform="scale(0.015625)"/>
       <path id="CMR17-28" d="M 1958 -1562 
C 1958 -1556 1958 -1543 1939 -1524 
C 1645 -1223 858 -403 858 1596 
C 858 3595 1632 4408 1946 4729 
C 1946 4735 1958 4748 1958 4767 
C 1958 4787 1939 4800 1914 4800 
C 1843 4800 1299 4325 986 3620 
C 666 2909 576 2218 576 1603 
C 576 1141 621 360 1005 -467 
C 1312 -1133 1837 -1600 1914 -1600 
C 1946 -1600 1958 -1588 1958 -1562 
z
" transform="scale(0.015625)"/>
       <path id="CMMI12-4d" d="M 5811 3886 
C 5869 4102 5882 4166 6336 4166 
C 6458 4166 6515 4166 6515 4287 
C 6515 4352 6470 4352 6349 4352 
L 5581 4352 
C 5421 4352 5414 4345 5344 4243 
L 3008 567 
L 2528 4211 
C 2509 4352 2502 4352 2336 4352 
L 1542 4352 
C 1421 4352 1363 4352 1363 4230 
C 1363 4166 1421 4166 1517 4166 
C 1907 4166 1907 4115 1907 4045 
C 1907 4032 1907 3994 1882 3898 
L 1062 650 
C 986 344 838 204 410 185 
C 390 185 314 179 314 70 
C 314 0 371 0 397 0 
C 525 0 851 12 979 12 
L 1286 12 
C 1376 12 1485 0 1574 0 
C 1619 0 1690 0 1690 121 
C 1690 179 1626 185 1600 185 
C 1389 191 1184 230 1184 459 
C 1184 523 1184 529 1210 618 
L 2093 4128 
L 2099 4128 
L 2630 172 
C 2650 19 2656 0 2714 0 
C 2784 0 2816 51 2848 108 
L 5421 4159 
L 5427 4159 
L 4499 472 
C 4442 249 4429 185 3981 185 
C 3859 185 3795 185 3795 70 
C 3795 0 3853 0 3891 0 
C 4000 0 4128 12 4237 12 
L 4992 12 
C 5101 12 5235 0 5344 0 
C 5395 0 5466 0 5466 121 
C 5466 185 5408 185 5312 185 
C 4922 185 4922 236 4922 300 
C 4922 306 4922 351 4934 402 
L 5811 3886 
z
" transform="scale(0.015625)"/>
       <path id="CMMI12-5a" d="M 4480 4153 
C 4518 4198 4550 4236 4550 4300 
C 4550 4345 4544 4352 4397 4352 
L 1754 4352 
C 1606 4352 1600 4345 1562 4230 
L 1210 3083 
C 1190 3019 1190 3007 1190 2994 
C 1190 2968 1210 2930 1254 2930 
C 1306 2930 1318 2956 1344 3039 
C 1581 3726 1894 4166 2906 4166 
L 3955 4166 
L 448 217 
C 390 147 365 121 365 51 
C 365 0 397 0 518 0 
L 3251 0 
C 3398 0 3405 6 3443 121 
L 3891 1529 
C 3898 1548 3910 1593 3910 1618 
C 3910 1650 3885 1682 3846 1682 
C 3795 1682 3789 1676 3738 1516 
C 3469 695 3187 198 2074 198 
L 966 198 
L 4480 4153 
z
" transform="scale(0.015625)"/>
       <path id="CMMI12-41" d="M 1088 720 
C 864 335 646 205 339 185 
C 269 179 218 179 218 64 
C 218 25 250 0 294 0 
C 410 0 698 12 813 12 
C 998 12 1203 0 1382 0 
C 1421 0 1498 0 1498 121 
C 1498 179 1446 185 1408 185 
C 1261 198 1139 250 1139 407 
C 1139 498 1178 570 1261 714 
L 1747 1536 
L 3379 1536 
C 3386 1477 3386 1425 3392 1366 
C 3411 1196 3488 518 3488 394 
C 3488 198 3162 185 3059 185 
C 2989 185 2918 185 2918 70 
C 2918 0 2976 0 3014 0 
C 3123 0 3251 12 3360 12 
L 3725 12 
C 4115 12 4397 0 4403 0 
C 4448 0 4518 0 4518 121 
C 4518 185 4461 185 4365 185 
C 4013 185 4006 244 3987 440 
L 3597 4403 
C 3584 4531 3558 4544 3488 4544 
C 3424 4544 3386 4531 3328 4435 
L 1088 720 
z
M 1856 1721 
L 3142 3831 
L 3360 1721 
L 1856 1721 
z
" transform="scale(0.015625)"/>
       <path id="CMR17-29" d="M 1683 1596 
C 1683 2057 1638 2839 1254 3665 
C 947 4332 422 4800 346 4800 
C 326 4800 301 4793 301 4761 
C 301 4748 307 4742 314 4729 
C 621 4408 1402 3595 1402 1603 
C 1402 -396 627 -1210 314 -1530 
C 307 -1543 301 -1549 301 -1562 
C 301 -1594 326 -1600 346 -1600 
C 416 -1600 960 -1127 1274 -422 
C 1594 289 1683 981 1683 1596 
z
" transform="scale(0.015625)"/>
      </defs>
      <use xlink:href="#CMMI12-46" transform="scale(0.996264)"/>
      <use xlink:href="#CMMI12-46" transform="translate(76.696793 0)scale(0.996264)"/>
      <use xlink:href="#CMMI12-54" transform="translate(153.393585 0)scale(0.996264)"/>
      <use xlink:href="#CMR17-28" transform="translate(251.791226 0)scale(0.996264)"/>
      <use xlink:href="#CMMI12-4d" transform="translate(287.071994 0)scale(0.996264)"/>
      <use xlink:href="#CMMI12-5a" transform="translate(391.852073 36.153639)scale(0.697382)"/>
      <use xlink:href="#CMMI12-41" transform="translate(381.445419 -27.44057)scale(0.697382)"/>
      <use xlink:href="#CMR17-29" transform="translate(444.096479 0)scale(0.996264)"/>
     </g>
    </g>
   </g>
   <g id="line2d_12">
    <path d="M 49.829078 224.952939 
L 50.934029 224.164784 
L 52.03898 224.835114 
L 54.248882 225.145873 
L 69.718197 225.083649 
L 74.138001 224.927408 
L 75.242952 224.806549 
L 76.347903 223.993106 
L 77.452854 224.185299 
L 78.557805 224.79616 
L 80.767707 225.004512 
L 89.607316 225.093501 
L 121.650896 225.090623 
L 129.385553 224.847865 
L 130.490504 225.073936 
L 142.644966 225.13205 
L 151.484574 225.081802 
L 152.589525 224.913804 
L 153.694476 224.889508 
L 154.799428 224.673735 
L 155.904379 224.913094 
L 157.00933 225.01224 
L 158.114281 23.55198 
L 159.219232 225.047678 
L 160.324183 225.079776 
L 161.429134 224.932355 
L 162.534085 225.11433 
L 166.953889 225.145808 
L 184.633106 225.055819 
L 185.738057 225.050169 
L 186.843008 224.854982 
L 189.05291 225.111088 
L 191.262812 224.926709 
L 192.367763 225.123371 
L 194.577665 225.125749 
L 210.04698 225.144947 
L 236.565805 225.007263 
L 237.670756 224.897719 
L 238.775707 224.433429 
L 239.880658 224.272926 
L 240.985609 224.891433 
L 244.300462 225.066105 
L 254.245022 225.133658 
L 261.979679 225.128567 
L 264.189581 224.865794 
L 265.294532 224.4921 
L 265.294532 224.4921 
" clip-path="url(#p4212b33c24)" style="fill: none; stroke: #1f77b4; stroke-linecap: square"/>
   </g>
   <g id="line2d_13">
    <path d="M 49.829078 218.204639 
L 50.934029 218.276548 
L 52.03898 224.469443 
L 53.143931 224.257949 
L 54.248882 224.735116 
L 57.563735 224.915348 
L 66.403344 224.987288 
L 98.446924 224.948565 
L 126.0707 224.774855 
L 129.385553 224.683664 
L 130.490504 224.797877 
L 147.06477 223.993886 
L 149.274672 223.669865 
L 151.484574 223.074275 
L 152.589525 222.354685 
L 153.694476 221.879978 
L 154.799428 217.644583 
L 155.904379 208.684116 
L 157.00933 219.534787 
L 158.114281 86.17834 
L 159.219232 218.310974 
L 160.324183 215.173738 
L 161.429134 220.914418 
L 162.534085 222.313577 
L 163.639036 222.919497 
L 164.743987 223.308082 
L 166.953889 223.771632 
L 170.268742 224.145259 
L 175.793497 224.453946 
L 185.738057 224.814937 
L 186.843008 224.662453 
L 214.466784 224.924938 
L 261.979679 225.071371 
L 263.08463 224.666458 
L 264.189581 224.931325 
L 265.294532 220.522269 
L 265.294532 220.522269 
" clip-path="url(#p4212b33c24)" style="fill: none; stroke: #ff7f0e; stroke-linecap: square"/>
   </g>
   <g id="line2d_14">
    <path d="M 49.829078 220.710375 
L 50.934029 218.56191 
L 52.03898 224.372639 
L 53.143931 224.143316 
L 54.248882 224.57456 
L 56.458784 224.725877 
L 63.088491 224.806616 
L 87.397414 224.7651 
L 115.02119 224.540991 
L 128.280602 224.263036 
L 138.225162 223.808526 
L 142.644966 223.405654 
L 145.959819 222.899336 
L 148.169721 222.355346 
L 149.274672 221.967982 
L 150.379623 221.453831 
L 151.484574 220.724797 
L 152.589525 219.443361 
L 153.694476 217.818191 
L 154.799428 213.063694 
L 155.904379 202.359446 
L 157.00933 217.298045 
L 158.114281 120.064887 
L 159.219232 213.280419 
L 160.324183 208.176465 
L 161.429134 216.079295 
L 162.534085 218.932106 
L 163.639036 220.302391 
L 164.743987 221.157123 
L 165.848938 221.740963 
L 168.05884 222.502363 
L 170.268742 222.981753 
L 173.583595 223.4404 
L 178.0034 223.814108 
L 185.738057 224.188611 
L 196.787567 224.45066 
L 215.571735 224.675631 
L 261.979679 225.089275 
L 263.08463 224.777977 
L 264.189581 225.0399 
L 265.294532 220.892842 
L 265.294532 220.892842 
" clip-path="url(#p4212b33c24)" style="fill: none; stroke: #2ca02c; stroke-linecap: square"/>
   </g>
   <g id="line2d_15">
    <path d="M 49.829078 221.490312 
L 50.934029 219.059772 
L 52.03898 224.230398 
L 53.143931 224.203108 
L 54.248882 224.438106 
L 57.563735 224.591459 
L 67.508295 224.630675 
L 97.341973 224.469519 
L 116.126141 224.18842 
L 128.280602 223.800272 
L 137.120211 223.223325 
L 141.540015 222.692157 
L 144.854868 222.05024 
L 147.06477 221.395483 
L 148.169721 220.949608 
L 149.274672 220.379753 
L 150.379623 219.625789 
L 151.484574 218.573367 
L 152.589525 216.8544 
L 153.694476 214.399963 
L 154.799428 209.62044 
L 155.904379 198.262662 
L 157.00933 206.643152 
L 158.114281 157.072558 
L 159.219232 202.062608 
L 160.324183 202.862596 
L 161.429134 211.975976 
L 162.534085 215.773709 
L 163.639036 217.82596 
L 164.743987 219.11121 
L 165.848938 219.994551 
L 166.953889 220.646735 
L 169.163791 221.550812 
L 171.373693 222.147859 
L 174.688546 222.744582 
L 179.108351 223.24676 
L 184.633106 223.63124 
L 200.10242 224.187111 
L 217.781637 224.471227 
L 261.979679 224.917557 
L 263.08463 224.710407 
L 264.189581 225.128714 
L 265.294532 221.429534 
L 265.294532 221.429534 
" clip-path="url(#p4212b33c24)" style="fill: none; stroke: #d62728; stroke-linecap: square"/>
   </g>
   <g id="patch_3">
    <path d="M 47.619176 235.23198 
L 47.619176 13.47198 
" style="fill: none; stroke: #000000; stroke-width: 0.8; stroke-linejoin: miter; stroke-linecap: square"/>
   </g>
   <g id="patch_4">
    <path d="M 268.609275 235.23198 
L 268.609275 13.47198 
" style="fill: none; stroke: #000000; stroke-width: 0.8; stroke-linejoin: miter; stroke-linecap: square"/>
   </g>
   <g id="patch_5">
    <path d="M 47.619176 235.23198 
L 268.609275 235.23198 
" style="fill: none; stroke: #000000; stroke-width: 0.8; stroke-linejoin: miter; stroke-linecap: square"/>
   </g>
   <g id="patch_6">
    <path d="M 47.619176 13.47198 
L 268.609275 13.47198 
" style="fill: none; stroke: #000000; stroke-width: 0.8; stroke-linejoin: miter; stroke-linecap: square"/>
   </g>
   <g id="text_14">
    <!-- $(a)$ -->
    <g transform="translate(58.668681 29.783709)scale(0.15 -0.15)">
     <defs>
      <path id="CMMI12-61" d="M 1926 759 
C 1894 651 1894 638 1805 517 
C 1664 338 1382 64 1082 64 
C 819 64 672 300 672 676 
C 672 1028 870 1743 992 2011 
C 1210 2458 1510 2687 1760 2687 
C 2182 2687 2266 2164 2266 2113 
C 2266 2107 2246 2024 2240 2011 
L 1926 759 
z
M 2336 2394 
C 2266 2560 2093 2816 1760 2816 
C 1037 2816 256 1883 256 938 
C 256 306 627 -64 1062 -64 
C 1414 -64 1715 210 1894 421 
C 1958 44 2259 -64 2451 -64 
C 2643 -64 2797 51 2912 280 
C 3014 496 3104 885 3104 910 
C 3104 942 3078 968 3040 968 
C 2982 968 2976 936 2950 840 
C 2854 465 2733 64 2470 64 
C 2285 64 2272 229 2272 356 
C 2272 503 2291 573 2349 821 
C 2394 980 2426 1120 2477 1305 
C 2714 2260 2771 2489 2771 2528 
C 2771 2617 2701 2688 2605 2688 
C 2400 2688 2349 2464 2336 2388 
L 2336 2394 
z
" transform="scale(0.015625)"/>
     </defs>
     <use xlink:href="#CMR17-28" transform="scale(0.996264)"/>
     <use xlink:href="#CMMI12-61" transform="translate(35.280768 0)scale(0.996264)"/>
     <use xlink:href="#CMR17-29" transform="translate(86.488625 0)scale(0.996264)"/>
    </g>
   </g>
   <g id="text_15">
    <!-- $J_0 = 0.072/T$ -->
    <g transform="translate(129.727626 7.47198)scale(0.1 -0.1)">
     <defs>
      <path id="CMMI12-4a" d="M 3418 3911 
C 3469 4102 3482 4166 3795 4166 
C 3898 4166 3962 4166 3962 4281 
C 3962 4352 3904 4352 3878 4352 
C 3770 4352 3648 4339 3533 4339 
L 3181 4339 
C 2912 4339 2630 4352 2362 4352 
C 2304 4352 2227 4352 2227 4236 
C 2227 4172 2278 4172 2278 4166 
L 2438 4166 
C 2950 4166 2950 4115 2950 4019 
C 2950 4013 2950 3968 2925 3866 
L 2189 953 
C 2022 304 1594 0 1286 0 
C 1069 0 762 99 685 428 
C 710 422 742 415 768 415 
C 979 415 1146 601 1146 787 
C 1146 889 1082 1024 890 1024 
C 774 1024 506 959 506 543 
C 506 149 838 -128 1299 -128 
C 1882 -128 2509 304 2662 908 
L 3418 3911 
z
" transform="scale(0.015625)"/>
      <path id="CMR17-3d" d="M 4115 2048 
C 4211 2048 4307 2048 4307 2156 
C 4307 2272 4198 2272 4090 2272 
L 512 2272 
C 403 2272 294 2272 294 2156 
C 294 2048 390 2048 486 2048 
L 4115 2048 
z
M 4090 927 
C 4198 927 4307 927 4307 1043 
C 4307 1152 4211 1152 4115 1152 
L 486 1152 
C 390 1152 294 1152 294 1043 
C 294 927 403 927 512 927 
L 4090 927 
z
" transform="scale(0.015625)"/>
      <path id="CMR17-37" d="M 2886 3955 
L 2886 4096 
L 1382 4096 
C 634 4096 621 4166 595 4288 
L 480 4288 
L 294 3104 
L 410 3104 
C 429 3226 474 3552 550 3673 
C 589 3724 1062 3724 1171 3724 
L 2579 3724 
L 1869 2670 
C 1395 1961 1069 1003 1069 166 
C 1069 89 1069 -128 1299 -128 
C 1530 -128 1530 89 1530 172 
L 1530 466 
C 1530 1514 1709 2204 2003 2644 
L 2886 3955 
z
" transform="scale(0.015625)"/>
     </defs>
     <use xlink:href="#CMMI12-4a" transform="scale(0.996264)"/>
     <use xlink:href="#CMR17-30" transform="translate(53.917955 -14.943915)scale(0.697382)"/>
     <use xlink:href="#CMR17-3d" transform="translate(114.073278 0)scale(0.996264)"/>
     <use xlink:href="#CMR17-30" transform="translate(213.462075 0)scale(0.996264)"/>
     <use xlink:href="#CMMI12-3a" transform="translate(259.152552 0)scale(0.996264)"/>
     <use xlink:href="#CMR17-30" transform="translate(286.249729 0)scale(0.996264)"/>
     <use xlink:href="#CMR17-37" transform="translate(331.940207 0)scale(0.996264)"/>
     <use xlink:href="#CMR17-32" transform="translate(377.630684 0)scale(0.996264)"/>
     <use xlink:href="#CMMI12-3d" transform="translate(423.321161 0)scale(0.996264)"/>
     <use xlink:href="#CMMI12-54" transform="translate(472.09608 0)scale(0.996264)"/>
    </g>
   </g>
   <g id="legend_1">
    <g id="line2d_16">
     <path d="M 58.419176 97.541247 
L 70.419176 97.541247 
L 82.419176 97.541247 
" style="fill: none; stroke: #1f77b4; stroke-linecap: square"/>
    </g>
    <g id="text_16">
     <!-- $\beta=0$ -->
     <g transform="translate(92.019176 101.741247)scale(0.12 -0.12)">
      <defs>
       <path id="CMMI12-c" d="M 3622 3739 
C 3622 4131 3296 4544 2714 4544 
C 1888 4544 1363 3510 1197 2830 
L 186 -1152 
C 173 -1204 211 -1216 243 -1216 
C 288 -1216 320 -1210 326 -1178 
L 774 592 
C 838 231 1190 -64 1568 -64 
C 2483 -64 3347 657 3347 1618 
C 3347 1863 3290 2108 3155 2314 
C 3078 2437 2982 2527 2880 2599 
C 3341 2823 3622 3222 3622 3739 
z
M 2509 2605 
C 2406 2571 2304 2560 2182 2560 
C 2093 2560 2010 2553 1894 2588 
C 1958 2627 2054 2639 2189 2639 
C 2304 2639 2419 2627 2509 2605 
z
M 3290 3798 
C 3290 3438 3117 2915 2701 2684 
C 2579 2723 2413 2752 2272 2752 
C 2138 2752 1754 2765 1754 2582 
C 1754 2411 2106 2430 2214 2430 
C 2381 2430 2528 2469 2682 2514 
C 2886 2347 2976 2127 2976 1805 
C 2976 1431 2874 1128 2752 850 
C 2541 373 2042 64 1600 64 
C 1133 64 890 438 890 876 
C 890 934 890 1018 915 1115 
L 1331 2784 
C 1542 3641 2080 4413 2701 4413 
C 3162 4413 3290 4086 3290 3798 
z
" transform="scale(0.015625)"/>
      </defs>
      <use xlink:href="#CMMI12-c" transform="scale(0.996264)"/>
      <use xlink:href="#CMR17-3d" transform="translate(88.268024 0)scale(0.996264)"/>
      <use xlink:href="#CMR17-30" transform="translate(187.656822 0)scale(0.996264)"/>
     </g>
    </g>
    <g id="line2d_17">
     <path d="M 58.419176 114.605606 
L 70.419176 114.605606 
L 82.419176 114.605606 
" style="fill: none; stroke: #ff7f0e; stroke-linecap: square"/>
    </g>
    <g id="text_17">
     <!-- $\beta=1.5$ -->
     <g transform="translate(92.019176 118.805606)scale(0.12 -0.12)">
      <use xlink:href="#CMMI12-c" transform="scale(0.996264)"/>
      <use xlink:href="#CMR17-3d" transform="translate(88.268024 0)scale(0.996264)"/>
      <use xlink:href="#CMR17-31" transform="translate(187.656822 0)scale(0.996264)"/>
      <use xlink:href="#CMMI12-3a" transform="translate(233.347299 0)scale(0.996264)"/>
      <use xlink:href="#CMR17-35" transform="translate(260.444476 0)scale(0.996264)"/>
     </g>
    </g>
    <g id="line2d_18">
     <path d="M 58.419176 131.669964 
L 70.419176 131.669964 
L 82.419176 131.669964 
" style="fill: none; stroke: #2ca02c; stroke-linecap: square"/>
    </g>
    <g id="text_18">
     <!-- $\beta=2.5$ -->
     <g transform="translate(92.019176 135.869964)scale(0.12 -0.12)">
      <use xlink:href="#CMMI12-c" transform="scale(0.996264)"/>
      <use xlink:href="#CMR17-3d" transform="translate(88.268024 0)scale(0.996264)"/>
      <use xlink:href="#CMR17-32" transform="translate(187.656822 0)scale(0.996264)"/>
      <use xlink:href="#CMMI12-3a" transform="translate(233.347299 0)scale(0.996264)"/>
      <use xlink:href="#CMR17-35" transform="translate(260.444476 0)scale(0.996264)"/>
     </g>
    </g>
    <g id="line2d_19">
     <path d="M 58.419176 148.734323 
L 70.419176 148.734323 
L 82.419176 148.734323 
" style="fill: none; stroke: #d62728; stroke-linecap: square"/>
    </g>
    <g id="text_19">
     <!-- $\beta={\infty}$ -->
     <g transform="translate(92.019176 152.934323)scale(0.12 -0.12)">
      <defs>
       <path id="CMSY10-31" d="M 3251 1736 
C 2906 2170 2829 2266 2630 2426 
C 2272 2713 1914 2828 1587 2828 
C 838 2828 352 2126 352 1379 
C 352 645 826 -64 1562 -64 
C 2298 -64 2829 517 3142 1028 
C 3488 594 3565 498 3763 338 
C 4122 51 4480 -64 4806 -64 
C 5555 -64 6042 638 6042 1385 
C 6042 2119 5568 2828 4832 2828 
C 4096 2828 3565 2247 3251 1736 
z
M 3418 1519 
C 3680 1979 4154 2624 4877 2624 
C 5555 2624 5901 1960 5901 1385 
C 5901 760 5472 242 4909 242 
C 4538 242 4250 511 4115 645 
C 3955 817 3808 1015 3418 1519 
z
M 2976 1245 
C 2714 785 2240 140 1517 140 
C 838 140 493 804 493 1379 
C 493 2004 922 2521 1485 2521 
C 1856 2521 2144 2253 2278 2119 
C 2438 1947 2586 1749 2976 1245 
z
" transform="scale(0.015625)"/>
      </defs>
      <use xlink:href="#CMMI12-c" transform="scale(0.996264)"/>
      <use xlink:href="#CMR17-3d" transform="translate(88.268024 0)scale(0.996264)"/>
      <use xlink:href="#CMSY10-31" transform="translate(187.656822 0)scale(0.996264)"/>
     </g>
    </g>
   </g>
  </g>
  <g id="axes_2">
   <g id="patch_7">
    <path d="M 273.029077 235.23198 
L 494.019176 235.23198 
L 494.019176 13.47198 
L 273.029077 13.47198 
z
" style="fill: #ffffff"/>
   </g>
   <g id="matplotlib.axis_3">
    <g id="xtick_5">
     <g id="line2d_20">
      <g>
       <use xlink:href="#m77e710502b" x="273.029077" y="235.23198" style="stroke: #000000; stroke-width: 0.8"/>
      </g>
     </g>
     <g id="text_20">
      <!-- $\mathdefault{0.0}$ -->
      <g transform="translate(264.303786 248.669628)scale(0.14 -0.14)">
       <use xlink:href="#CMR17-30" transform="scale(0.996264)"/>
       <use xlink:href="#CMMI12-3a" transform="translate(45.690477 0)scale(0.996264)"/>
       <use xlink:href="#CMR17-30" transform="translate(72.787654 0)scale(0.996264)"/>
      </g>
     </g>
    </g>
    <g id="xtick_6">
     <g id="line2d_21">
      <g>
       <use xlink:href="#m77e710502b" x="317.227097" y="235.23198" style="stroke: #000000; stroke-width: 0.8"/>
      </g>
     </g>
     <g id="text_21">
      <!-- $\mathdefault{0.2}$ -->
      <g transform="translate(308.501806 248.669628)scale(0.14 -0.14)">
       <use xlink:href="#CMR17-30" transform="scale(0.996264)"/>
       <use xlink:href="#CMMI12-3a" transform="translate(45.690477 0)scale(0.996264)"/>
       <use xlink:href="#CMR17-32" transform="translate(72.787654 0)scale(0.996264)"/>
      </g>
     </g>
    </g>
    <g id="xtick_7">
     <g id="line2d_22">
      <g>
       <use xlink:href="#m77e710502b" x="383.524126" y="235.23198" style="stroke: #000000; stroke-width: 0.8"/>
      </g>
     </g>
     <g id="text_22">
      <!-- $\mathdefault{0.5}$ -->
      <g transform="translate(374.798835 248.669628)scale(0.14 -0.14)">
       <use xlink:href="#CMR17-30" transform="scale(0.996264)"/>
       <use xlink:href="#CMMI12-3a" transform="translate(45.690477 0)scale(0.996264)"/>
       <use xlink:href="#CMR17-35" transform="translate(72.787654 0)scale(0.996264)"/>
      </g>
     </g>
    </g>
    <g id="xtick_8">
     <g id="line2d_23">
      <g>
       <use xlink:href="#m77e710502b" x="449.821156" y="235.23198" style="stroke: #000000; stroke-width: 0.8"/>
      </g>
     </g>
     <g id="text_23">
      <!-- $\mathdefault{0.8}$ -->
      <g transform="translate(441.095865 248.669628)scale(0.14 -0.14)">
       <use xlink:href="#CMR17-30" transform="scale(0.996264)"/>
       <use xlink:href="#CMMI12-3a" transform="translate(45.690477 0)scale(0.996264)"/>
       <use xlink:href="#CMR17-38" transform="translate(72.787654 0)scale(0.996264)"/>
      </g>
     </g>
    </g>
    <g id="text_24">
     <!-- $\Omega/\omega$ -->
     <g transform="translate(372.725852 264.606782)scale(0.12 -0.12)">
      <use xlink:href="#CMR17-a" transform="scale(0.996264)"/>
      <use xlink:href="#CMMI12-3d" transform="translate(66.509881 0)scale(0.996264)"/>
      <use xlink:href="#CMMI12-21" transform="translate(115.284799 0)scale(0.996264)"/>
     </g>
    </g>
   </g>
   <g id="matplotlib.axis_4">
    <g id="ytick_8">
     <g id="line2d_24">
      <g>
       <use xlink:href="#m0f18428983" x="273.029077" y="225.153324" style="stroke: #000000; stroke-width: 0.8"/>
      </g>
     </g>
    </g>
    <g id="ytick_9">
     <g id="line2d_25">
      <g>
       <use xlink:href="#m0f18428983" x="273.029077" y="190.877953" style="stroke: #000000; stroke-width: 0.8"/>
      </g>
     </g>
    </g>
    <g id="ytick_10">
     <g id="line2d_26">
      <g>
       <use xlink:href="#m0f18428983" x="273.029077" y="156.602582" style="stroke: #000000; stroke-width: 0.8"/>
      </g>
     </g>
    </g>
    <g id="ytick_11">
     <g id="line2d_27">
      <g>
       <use xlink:href="#m0f18428983" x="273.029077" y="122.327211" style="stroke: #000000; stroke-width: 0.8"/>
      </g>
     </g>
    </g>
    <g id="ytick_12">
     <g id="line2d_28">
      <g>
       <use xlink:href="#m0f18428983" x="273.029077" y="88.05184" style="stroke: #000000; stroke-width: 0.8"/>
      </g>
     </g>
    </g>
    <g id="ytick_13">
     <g id="line2d_29">
      <g>
       <use xlink:href="#m0f18428983" x="273.029077" y="53.776469" style="stroke: #000000; stroke-width: 0.8"/>
      </g>
     </g>
    </g>
    <g id="ytick_14">
     <g id="line2d_30">
      <g>
       <use xlink:href="#m0f18428983" x="273.029077" y="19.501097" style="stroke: #000000; stroke-width: 0.8"/>
      </g>
     </g>
    </g>
   </g>
   <g id="line2d_31">
    <path d="M 275.238979 224.608426 
L 276.34393 224.808841 
L 278.553832 224.818794 
L 279.658783 224.54097 
L 280.763734 220.11787 
L 281.868685 223.332235 
L 282.973636 224.751508 
L 284.078587 224.843355 
L 285.183538 224.43804 
L 286.288489 223.099507 
L 287.393441 224.613436 
L 288.498392 224.802182 
L 291.813245 224.921369 
L 297.338 224.964732 
L 301.757804 224.930564 
L 302.862755 224.759054 
L 303.967706 224.757259 
L 305.072657 224.963599 
L 307.282559 224.732064 
L 308.38751 224.424316 
L 309.492461 222.894556 
L 310.597412 223.410811 
L 311.702364 224.555459 
L 312.807315 224.778073 
L 315.017217 224.926729 
L 316.122168 224.95636 
L 317.227119 224.857984 
L 326.066727 225.007056 
L 337.116238 224.97357 
L 338.221189 224.336484 
L 339.32614 224.370527 
L 340.431091 224.965484 
L 350.37565 224.792842 
L 351.480601 224.633888 
L 352.585552 224.936828 
L 353.690503 224.809276 
L 354.795454 225.047984 
L 357.005356 224.960411 
L 359.215259 224.750053 
L 360.32021 224.966517 
L 361.425161 224.900225 
L 362.530112 224.946157 
L 364.740014 224.845791 
L 369.159818 224.589275 
L 370.264769 224.020023 
L 371.36972 224.808731 
L 373.579622 224.820017 
L 374.684573 224.534692 
L 375.789524 223.8187 
L 376.894475 223.897119 
L 377.999426 223.483021 
L 379.104377 224.041531 
L 380.209328 223.392128 
L 381.31428 222.559091 
L 382.419231 219.013183 
L 383.524182 55.800886 
L 384.629133 219.690477 
L 385.734084 223.058403 
L 386.839035 224.130683 
L 387.943986 224.67685 
L 389.048937 223.087789 
L 390.153888 224.409422 
L 391.258839 221.266521 
L 392.36379 223.693497 
L 393.468741 224.397651 
L 394.573692 224.627393 
L 395.678643 224.414325 
L 396.783594 222.854475 
L 397.888545 224.199938 
L 398.993496 224.495834 
L 405.623203 224.861134 
L 406.728154 224.913328 
L 407.833105 224.643147 
L 412.252909 224.978278 
L 413.35786 224.648846 
L 414.462811 224.833525 
L 415.567762 224.404837 
L 417.777664 224.815558 
L 418.882615 224.578155 
L 419.987566 223.929327 
L 421.092517 224.870868 
L 422.197468 225.145284 
L 423.302419 224.990223 
L 426.617272 225.010048 
L 427.722224 223.810222 
L 428.827175 223.77143 
L 429.932126 224.990438 
L 433.246979 225.013314 
L 445.40144 225.064793 
L 448.716293 224.948641 
L 449.821244 224.635443 
L 450.926196 225.03499 
L 454.241049 224.99638 
L 455.346 224.782096 
L 456.450951 223.941489 
L 457.555902 223.283349 
L 458.660853 224.422953 
L 459.765804 224.69479 
L 463.080657 224.92147 
L 464.185608 224.795749 
L 465.290559 225.018849 
L 468.605412 224.975139 
L 474.130168 224.959836 
L 482.969776 224.880084 
L 484.074727 224.641977 
L 486.284629 221.952949 
L 487.38958 224.848584 
L 488.494531 225.056185 
L 489.599482 224.857437 
L 490.704433 225.052333 
L 490.704433 225.052333 
" clip-path="url(#p9cbe6ed4ad)" style="fill: none; stroke: #1f77b4; stroke-linecap: square"/>
   </g>
   <g id="line2d_32">
    <path d="M 275.238979 224.901015 
L 276.34393 224.68792 
L 277.448881 224.829939 
L 278.553832 224.636994 
L 279.658783 223.571275 
L 280.763734 224.669879 
L 281.868685 224.969561 
L 286.288489 225.002093 
L 303.967706 224.952895 
L 305.072657 224.556475 
L 307.282559 224.923764 
L 313.912266 224.954479 
L 345.955846 224.81529 
L 366.949916 224.398857 
L 371.36972 224.103304 
L 373.579622 223.851658 
L 374.684573 223.638134 
L 375.789524 223.217831 
L 376.894475 223.590148 
L 377.999426 223.138877 
L 379.104377 222.445062 
L 380.209328 221.388891 
L 381.31428 219.484034 
L 382.419231 209.400807 
L 383.524182 64.453195 
L 384.629133 209.171617 
L 385.734084 219.245724 
L 386.839035 221.322606 
L 387.943986 222.316154 
L 389.048937 222.843683 
L 390.153888 223.131532 
L 391.258839 223.644535 
L 396.783594 224.227821 
L 402.308349 224.507426 
L 414.462811 224.759031 
L 415.567762 224.620909 
L 416.672713 224.805248 
L 426.617272 224.856401 
L 452.031147 224.974491 
L 460.870755 224.989802 
L 461.975706 224.654351 
L 463.080657 224.934349 
L 467.500461 225.005933 
L 475.235119 225.003045 
L 485.179678 225.041351 
L 486.284629 224.883238 
L 487.38958 224.273948 
L 488.494531 224.781243 
L 489.599482 224.885254 
L 490.704433 224.826755 
L 490.704433 224.826755 
" clip-path="url(#p9cbe6ed4ad)" style="fill: none; stroke: #ff7f0e; stroke-linecap: square"/>
   </g>
   <g id="line2d_33">
    <path d="M 275.238979 224.962918 
L 276.34393 224.667848 
L 277.448881 224.57555 
L 278.553832 222.650583 
L 279.658783 223.264083 
L 280.763734 224.919744 
L 281.868685 225.035241 
L 282.973636 224.955577 
L 286.288489 225.067909 
L 302.862755 225.129544 
L 303.967706 225.05097 
L 305.072657 224.77553 
L 306.177608 224.993191 
L 311.702364 225.054542 
L 347.060797 225.005123 
L 368.054867 224.84565 
L 372.474671 224.700186 
L 373.579622 224.600536 
L 374.684573 224.64533 
L 375.789524 224.477413 
L 376.894475 223.679378 
L 377.999426 224.195603 
L 379.104377 224.425732 
L 380.209328 223.941359 
L 381.31428 223.285351 
L 382.419231 222.292312 
L 383.524182 38.640842 
L 384.629133 222.388667 
L 385.734084 222.929043 
L 386.839035 223.834314 
L 387.943986 224.199412 
L 389.048937 224.304046 
L 390.153888 224.535717 
L 395.678643 224.824174 
L 404.518252 224.97698 
L 407.833105 224.952143 
L 412.252909 225.006008 
L 429.932126 225.068388 
L 460.870755 225.120005 
L 461.975706 224.973176 
L 482.969776 225.082291 
L 485.179678 225.026809 
L 486.284629 225.01534 
L 487.38958 223.84885 
L 488.494531 223.676967 
L 489.599482 224.820122 
L 490.704433 224.800997 
L 490.704433 224.800997 
" clip-path="url(#p9cbe6ed4ad)" style="fill: none; stroke: #2ca02c; stroke-linecap: square"/>
   </g>
   <g id="line2d_34">
    <path d="M 275.238979 224.216675 
L 276.34393 224.242659 
L 277.448881 223.505774 
L 278.553832 223.213509 
L 279.658783 222.269133 
L 280.763734 223.871367 
L 281.868685 224.356727 
L 285.183538 224.682923 
L 290.708294 224.842607 
L 299.547902 224.926935 
L 348.165748 224.86361 
L 368.054867 224.548817 
L 372.474671 224.254334 
L 374.684573 223.953361 
L 375.789524 223.601624 
L 376.894475 222.419143 
L 377.999426 222.981691 
L 379.104377 224.640331 
L 380.209328 223.506665 
L 381.31428 221.553459 
L 382.419231 218.529292 
L 383.524182 46.555034 
L 384.629133 218.517421 
L 385.734084 221.552985 
L 386.839035 222.966311 
L 387.943986 223.601294 
L 389.048937 223.733197 
L 390.153888 224.065267 
L 393.468741 224.434298 
L 398.993496 224.696309 
L 404.518252 224.855369 
L 406.728154 224.84382 
L 412.252909 224.945831 
L 414.462811 224.893113 
L 417.777664 224.942636 
L 434.35193 225.032006 
L 476.34007 225.06175 
L 484.074727 224.827941 
L 485.179678 224.757157 
L 486.284629 224.447177 
L 487.38958 223.286264 
L 488.494531 224.189562 
L 489.599482 223.91233 
L 490.704433 224.33567 
L 490.704433 224.33567 
" clip-path="url(#p9cbe6ed4ad)" style="fill: none; stroke: #d62728; stroke-linecap: square"/>
   </g>
   <g id="patch_8">
    <path d="M 273.029077 235.23198 
L 273.029077 13.47198 
" style="fill: none; stroke: #000000; stroke-width: 0.8; stroke-linejoin: miter; stroke-linecap: square"/>
   </g>
   <g id="patch_9">
    <path d="M 494.019176 235.23198 
L 494.019176 13.47198 
" style="fill: none; stroke: #000000; stroke-width: 0.8; stroke-linejoin: miter; stroke-linecap: square"/>
   </g>
   <g id="patch_10">
    <path d="M 273.029077 235.23198 
L 494.019176 235.23198 
" style="fill: none; stroke: #000000; stroke-width: 0.8; stroke-linejoin: miter; stroke-linecap: square"/>
   </g>
   <g id="patch_11">
    <path d="M 273.029077 13.47198 
L 494.019176 13.47198 
" style="fill: none; stroke: #000000; stroke-width: 0.8; stroke-linejoin: miter; stroke-linecap: square"/>
   </g>
   <g id="text_25">
    <!-- $(b)$ -->
    <g transform="translate(284.078582 29.783709)scale(0.15 -0.15)">
     <defs>
      <path id="CMMI12-62" d="M 1478 4255 
C 1485 4281 1498 4319 1498 4351 
C 1498 4416 1434 4416 1421 4416 
C 1414 4416 1184 4396 1069 4383 
C 960 4377 864 4364 749 4358 
C 595 4345 550 4339 550 4223 
C 550 4159 614 4159 678 4159 
C 1005 4159 1005 4103 1005 4040 
C 1005 3995 954 3812 928 3699 
L 774 3093 
C 710 2841 346 1392 320 1277 
C 288 1117 288 1008 288 925 
C 288 274 653 -64 1069 -64 
C 1811 -64 2579 887 2579 1813 
C 2579 2400 2246 2816 1766 2816 
C 1434 2816 1133 2541 1011 2413 
L 1478 4255 
z
M 1075 64 
C 870 64 646 217 646 715 
C 646 925 666 1047 781 1494 
C 800 1577 902 1985 928 2068 
C 941 2119 1318 2687 1754 2687 
C 2035 2687 2163 2407 2163 2075 
C 2163 1768 1984 1047 1824 715 
C 1664 370 1370 64 1075 64 
z
" transform="scale(0.015625)"/>
     </defs>
     <use xlink:href="#CMR17-28" transform="scale(0.996264)"/>
     <use xlink:href="#CMMI12-62" transform="translate(35.280768 0)scale(0.996264)"/>
     <use xlink:href="#CMR17-29" transform="translate(76.756642 0)scale(0.996264)"/>
    </g>
   </g>
   <g id="text_26">
    <!-- $J_0=0.2/T$ -->
    <g transform="translate(360.118862 7.47198)scale(0.1 -0.1)">
     <use xlink:href="#CMMI12-4a" transform="scale(0.996264)"/>
     <use xlink:href="#CMR17-30" transform="translate(53.917955 -14.943915)scale(0.697382)"/>
     <use xlink:href="#CMR17-3d" transform="translate(114.073278 0)scale(0.996264)"/>
     <use xlink:href="#CMR17-30" transform="translate(213.462075 0)scale(0.996264)"/>
     <use xlink:href="#CMMI12-3a" transform="translate(259.152552 0)scale(0.996264)"/>
     <use xlink:href="#CMR17-32" transform="translate(286.249729 0)scale(0.996264)"/>
     <use xlink:href="#CMMI12-3d" transform="translate(331.940207 0)scale(0.996264)"/>
     <use xlink:href="#CMMI12-54" transform="translate(380.715125 0)scale(0.996264)"/>
    </g>
   </g>
  </g>
  <g id="axes_3">
   <g id="patch_12">
    <path d="M 193.519976 131.55198 
L 256.879976 131.55198 
L 256.879976 27.87198 
L 193.519976 27.87198 
z
" style="fill: #ffffff"/>
   </g>
   <g id="matplotlib.axis_5">
    <g id="xtick_9">
     <g id="line2d_35">
      <g>
       <use xlink:href="#m77e710502b" x="193.519976" y="131.55198" style="stroke: #000000; stroke-width: 0.8"/>
      </g>
     </g>
     <g id="text_27">
      <!-- $\mathdefault{0.43}$ -->
      <g transform="translate(185.328526 141.440468)scale(0.09 -0.09)">
       <use xlink:href="#CMR17-30" transform="scale(0.996264)"/>
       <use xlink:href="#CMMI12-3a" transform="translate(45.690477 0)scale(0.996264)"/>
       <use xlink:href="#CMR17-34" transform="translate(72.787654 0)scale(0.996264)"/>
       <use xlink:href="#CMR17-33" transform="translate(118.478131 0)scale(0.996264)"/>
      </g>
     </g>
    </g>
    <g id="xtick_10">
     <g id="line2d_36">
      <g>
       <use xlink:href="#m77e710502b" x="225.199976" y="131.55198" style="stroke: #000000; stroke-width: 0.8"/>
      </g>
     </g>
     <g id="text_28">
      <!-- $\mathdefault{0.50}$ -->
      <g transform="translate(217.008526 141.440468)scale(0.09 -0.09)">
       <use xlink:href="#CMR17-30" transform="scale(0.996264)"/>
       <use xlink:href="#CMMI12-3a" transform="translate(45.690477 0)scale(0.996264)"/>
       <use xlink:href="#CMR17-35" transform="translate(72.787654 0)scale(0.996264)"/>
       <use xlink:href="#CMR17-30" transform="translate(118.478131 0)scale(0.996264)"/>
      </g>
     </g>
    </g>
    <g id="xtick_11">
     <g id="line2d_37">
      <g>
       <use xlink:href="#m77e710502b" x="256.879976" y="131.55198" style="stroke: #000000; stroke-width: 0.8"/>
      </g>
     </g>
     <g id="text_29">
      <!-- $\mathdefault{0.57}$ -->
      <g transform="translate(248.688526 141.440468)scale(0.09 -0.09)">
       <use xlink:href="#CMR17-30" transform="scale(0.996264)"/>
       <use xlink:href="#CMMI12-3a" transform="translate(45.690477 0)scale(0.996264)"/>
       <use xlink:href="#CMR17-35" transform="translate(72.787654 0)scale(0.996264)"/>
       <use xlink:href="#CMR17-37" transform="translate(118.478131 0)scale(0.996264)"/>
      </g>
     </g>
    </g>
    <g id="text_30">
     <!-- $\Omega/\omega$ -->
     <g transform="translate(216.701701 154.075035)scale(0.09 -0.09)">
      <use xlink:href="#CMR17-a" transform="scale(0.996264)"/>
      <use xlink:href="#CMMI12-3d" transform="translate(66.509881 0)scale(0.996264)"/>
      <use xlink:href="#CMMI12-21" transform="translate(115.284799 0)scale(0.996264)"/>
     </g>
    </g>
   </g>
   <g id="matplotlib.axis_6">
    <g id="ytick_15">
     <g id="line2d_38">
      <g>
       <use xlink:href="#m0f18428983" x="193.519976" y="106.105833" style="stroke: #000000; stroke-width: 0.8"/>
      </g>
     </g>
     <g id="text_31">
      <!-- $\mathdefault{10^{0}}$ -->
      <g transform="translate(177.151682 109.300077)scale(0.09 -0.09)">
       <use xlink:href="#CMR17-31" transform="scale(0.996264)"/>
       <use xlink:href="#CMR17-30" transform="translate(45.690477 0)scale(0.996264)"/>
       <use xlink:href="#CMR17-30" transform="translate(91.380954 36.153639)scale(0.697382)"/>
      </g>
     </g>
    </g>
    <g id="ytick_16">
     <g id="line2d_39">
      <g>
       <use xlink:href="#m0f18428983" x="193.519976" y="66.988906" style="stroke: #000000; stroke-width: 0.8"/>
      </g>
     </g>
     <g id="text_32">
      <!-- $\mathdefault{10^{2}}$ -->
      <g transform="translate(177.151682 70.183151)scale(0.09 -0.09)">
       <use xlink:href="#CMR17-31" transform="scale(0.996264)"/>
       <use xlink:href="#CMR17-30" transform="translate(45.690477 0)scale(0.996264)"/>
       <use xlink:href="#CMR17-32" transform="translate(91.380954 36.153639)scale(0.697382)"/>
      </g>
     </g>
    </g>
    <g id="ytick_17">
     <g id="line2d_40">
      <g>
       <use xlink:href="#m0f18428983" x="193.519976" y="27.87198" style="stroke: #000000; stroke-width: 0.8"/>
      </g>
     </g>
     <g id="text_33">
      <!-- $\mathdefault{10^{4}}$ -->
      <g transform="translate(177.151682 31.066224)scale(0.09 -0.09)">
       <use xlink:href="#CMR17-31" transform="scale(0.996264)"/>
       <use xlink:href="#CMR17-30" transform="translate(45.690477 0)scale(0.996264)"/>
       <use xlink:href="#CMR17-34" transform="translate(91.380954 36.153639)scale(0.697382)"/>
      </g>
     </g>
    </g>
    <g id="text_34">
     <!-- $FFT\;(M^Z_A);log-scale$ -->
     <g transform="translate(170.910088 126.854151)rotate(-90)scale(0.09 -0.09)">
      <defs>
       <path id="CMR17-3b" d="M 1062 2489 
C 1062 2649 934 2752 800 2752 
C 672 2752 538 2649 538 2489 
C 538 2329 666 2227 800 2227 
C 928 2227 1062 2329 1062 2489 
z
M 979 -69 
C 979 -469 851 -795 634 -1095 
C 595 -1140 595 -1152 595 -1159 
C 595 -1191 621 -1216 646 -1216 
C 678 -1216 1082 -782 1082 -57 
C 1082 192 1062 524 800 524 
C 659 524 538 428 538 262 
C 538 96 659 0 800 0 
C 864 0 934 19 979 64 
L 979 -69 
z
" transform="scale(0.015625)"/>
       <path id="CMMI12-6c" d="M 1626 4255 
C 1632 4281 1645 4319 1645 4351 
C 1645 4416 1581 4416 1568 4416 
C 1562 4416 1331 4396 1216 4383 
C 1107 4377 1011 4364 896 4358 
C 742 4345 698 4339 698 4223 
C 698 4159 762 4159 826 4159 
C 1152 4159 1152 4102 1152 4039 
C 1152 4013 1152 4001 1120 3886 
L 326 731 
C 307 661 294 610 294 509 
C 294 191 531 -64 858 -64 
C 1069 -64 1210 76 1312 273 
C 1421 483 1510 884 1510 909 
C 1510 941 1485 967 1446 967 
C 1389 967 1382 935 1357 839 
C 1242 401 1126 64 870 64 
C 678 64 678 267 678 356 
C 678 382 678 515 723 693 
L 1626 4255 
z
" transform="scale(0.015625)"/>
       <path id="CMMI12-6f" d="M 2918 1755 
C 2918 2362 2522 2816 1939 2816 
C 1094 2816 262 1896 262 996 
C 262 389 659 -64 1242 -64 
C 2093 -64 2918 855 2918 1755 
z
M 1248 64 
C 928 64 691 319 691 766 
C 691 1060 845 1711 1024 2030 
C 1312 2522 1670 2687 1933 2687 
C 2246 2687 2490 2432 2490 1985 
C 2490 1730 2355 1047 2112 657 
C 1850 230 1498 64 1248 64 
z
" transform="scale(0.015625)"/>
       <path id="CMMI12-67" d="M 2163 811 
C 2138 708 2125 683 2042 587 
C 1779 249 1510 128 1312 128 
C 1101 128 902 293 902 734 
C 902 1072 1094 1787 1235 2075 
C 1421 2432 1709 2687 1978 2687 
C 2400 2687 2483 2164 2483 2126 
L 2464 2036 
L 2163 811 
z
M 2560 2394 
C 2477 2579 2298 2816 1978 2816 
C 1280 2816 486 1941 486 989 
C 486 325 890 0 1299 0 
C 1638 0 1939 268 2054 396 
L 1914 -176 
C 1824 -520 1786 -677 1555 -896 
C 1293 -1152 1050 -1152 909 -1152 
C 717 -1152 557 -1140 397 -1090 
C 602 -1034 653 -858 653 -789 
C 653 -689 576 -589 435 -589 
C 282 -589 115 -714 115 -921 
C 115 -1178 378 -1280 922 -1280 
C 1747 -1280 2176 -758 2259 -420 
L 2970 2426 
C 2989 2502 2989 2515 2989 2528 
C 2989 2617 2918 2688 2822 2688 
C 2669 2688 2579 2560 2560 2388 
L 2560 2394 
z
" transform="scale(0.015625)"/>
       <path id="CMSY10-0" d="M 4218 1472 
C 4326 1472 4442 1472 4442 1600 
C 4442 1728 4326 1728 4218 1728 
L 755 1728 
C 646 1728 531 1728 531 1600 
C 531 1472 646 1472 755 1472 
L 4218 1472 
z
" transform="scale(0.015625)"/>
       <path id="CMMI12-73" d="M 1459 1290 
C 1568 1271 1741 1233 1779 1227 
C 1862 1201 2150 1099 2150 793 
C 2150 595 1971 64 1229 64 
C 1094 64 614 83 486 447 
C 742 414 870 614 870 755 
C 870 889 781 960 653 960 
C 512 960 326 851 326 563 
C 326 176 710 -64 1222 -64 
C 2195 -64 2483 665 2483 998 
C 2483 1093 2483 1271 2278 1475 
C 2118 1627 1965 1659 1619 1729 
C 1446 1767 1171 1824 1171 2111 
C 1171 2239 1286 2687 1894 2687 
C 2163 2687 2426 2589 2490 2368 
C 2208 2368 2195 2124 2195 2118 
C 2195 1983 2317 1945 2374 1945 
C 2464 1945 2643 2015 2643 2284 
C 2643 2546 2400 2816 1901 2816 
C 1062 2816 838 2169 838 1907 
C 838 1424 1312 1322 1459 1290 
z
" transform="scale(0.015625)"/>
       <path id="CMMI12-63" d="M 2502 2432 
C 2381 2432 2323 2432 2234 2355 
C 2195 2323 2125 2227 2125 2124 
C 2125 1996 2221 1919 2342 1919 
C 2496 1919 2669 2047 2669 2303 
C 2669 2591 2374 2816 1933 2816 
C 1094 2816 256 1932 256 1011 
C 256 446 602 -64 1254 -64 
C 2125 -64 2675 622 2675 706 
C 2675 745 2637 777 2611 777 
C 2592 777 2586 771 2528 712 
C 2118 161 1510 64 1267 64 
C 826 64 685 453 685 777 
C 685 1004 794 1634 1024 2073 
C 1190 2374 1536 2687 1939 2687 
C 2022 2687 2374 2676 2502 2432 
z
" transform="scale(0.015625)"/>
       <path id="CMMI12-65" d="M 1146 1472 
C 1318 1472 1754 1484 2061 1600 
C 2547 1786 2592 2160 2592 2275 
C 2592 2559 2349 2816 1926 2816 
C 1254 2816 288 2205 288 1066 
C 288 400 672 -64 1254 -64 
C 2125 -64 2675 609 2675 691 
C 2675 729 2637 761 2611 761 
C 2592 761 2586 755 2528 698 
C 2118 159 1510 64 1267 64 
C 902 64 710 349 710 818 
C 710 907 710 1066 806 1472 
L 1146 1472 
z
M 838 1600 
C 1114 2591 1722 2687 1926 2687 
C 2208 2687 2400 2520 2400 2275 
C 2400 1600 1376 1600 1107 1600 
L 838 1600 
z
" transform="scale(0.015625)"/>
      </defs>
      <use xlink:href="#CMMI12-46" transform="scale(0.996264)"/>
      <use xlink:href="#CMMI12-46" transform="translate(76.696793 0)scale(0.996264)"/>
      <use xlink:href="#CMMI12-54" transform="translate(153.393585 0)scale(0.996264)"/>
      <use xlink:href="#CMR17-28" transform="translate(251.791226 0)scale(0.996264)"/>
      <use xlink:href="#CMMI12-4d" transform="translate(287.071994 0)scale(0.996264)"/>
      <use xlink:href="#CMMI12-5a" transform="translate(391.852073 36.153639)scale(0.697382)"/>
      <use xlink:href="#CMMI12-41" transform="translate(381.445419 -27.44057)scale(0.697382)"/>
      <use xlink:href="#CMR17-29" transform="translate(444.096479 0)scale(0.996264)"/>
      <use xlink:href="#CMR17-3b" transform="translate(479.377247 0)scale(0.996264)"/>
      <use xlink:href="#CMMI12-6c" transform="translate(520.852711 0)scale(0.996264)"/>
      <use xlink:href="#CMMI12-6f" transform="translate(552.101114 0)scale(0.996264)"/>
      <use xlink:href="#CMMI12-67" transform="translate(598.996424 0)scale(0.996264)"/>
      <use xlink:href="#CMSY10-0" transform="translate(671.42112 0)scale(0.996264)"/>
      <use xlink:href="#CMMI12-73" transform="translate(771.047795 0)scale(0.996264)"/>
      <use xlink:href="#CMMI12-63" transform="translate(816.997843 0)scale(0.996264)"/>
      <use xlink:href="#CMMI12-61" transform="translate(858.981076 0)scale(0.996264)"/>
      <use xlink:href="#CMMI12-6c" transform="translate(910.188934 0)scale(0.996264)"/>
      <use xlink:href="#CMMI12-65" transform="translate(941.437338 0)scale(0.996264)"/>
     </g>
    </g>
   </g>
   <g id="line2d_41">
    <path d="M 3.439978 91.106773 
L 5.702836 77.550236 
L 7.965695 87.178492 
L 10.228553 94.164318 
L 12.491411 119.068228 
L 14.75427 123.923504 
L 17.017128 116.38562 
L 19.279986 113.580589 
L 21.542844 111.642498 
L 23.805703 110.772565 
L 26.068561 109.404336 
L 28.331419 108.331388 
L 30.594277 107.434758 
L 35.119994 105.114235 
L 37.382852 104.073248 
L 41.908569 101.578464 
L 44.171427 100.079887 
L 46.434285 98.419209 
L 48.697144 96.487146 
L 50.960002 93.976784 
L 53.22286 90.088136 
L 55.485718 86.448286 
L 57.748577 76.190035 
L 60.011435 77.728368 
L 62.274293 86.197556 
L 64.537152 89.578053 
L 66.80001 93.634238 
L 71.325726 96.414826 
L 73.588585 97.616786 
L 75.851443 98.618503 
L 78.114301 99.457605 
L 82.640018 100.817202 
L 87.165734 101.866885 
L 93.954309 103.028847 
L 98.480026 103.616976 
L 100.742884 103.819391 
L 105.2686 104.513002 
L 107.531459 104.757995 
L 109.794317 105.726733 
L 112.057175 103.716694 
L 116.582892 104.448001 
L 121.108608 104.83983 
L 123.371467 104.385187 
L 125.634325 104.507099 
L 132.4229 104.34022 
L 139.211475 103.772979 
L 143.737191 103.102437 
L 146.000049 102.611421 
L 148.262908 101.967353 
L 150.525766 100.975753 
L 152.788624 98.154042 
L 155.051483 100.339798 
L 157.314341 91.476847 
L 159.577199 100.760909 
L 161.840057 97.12756 
L 164.102916 88.251565 
L 166.365774 87.525861 
L 168.628632 98.971378 
L 170.89149 100.691337 
L 173.154349 113.569411 
L 175.417207 117.75067 
L 177.680065 133.168607 
L 179.942924 120.14815 
L 184.46864 114.956284 
L 186.731498 113.349929 
L 191.257215 111.147823 
L 193.520073 110.156837 
L 202.571506 106.822161 
L 204.834365 105.726994 
L 207.097223 104.469107 
L 209.360081 102.673486 
L 211.622939 99.857686 
L 213.885798 89.591433 
L 216.148656 88.770798 
L 218.411514 83.694033 
L 220.674372 89.566305 
L 222.937231 94.087238 
L 225.200089 32.379986 
L 227.462947 96.544222 
L 229.725806 99.620458 
L 231.988664 90.276192 
L 234.251522 105.010285 
L 236.51438 101.934366 
L 238.777239 110.711796 
L 241.040097 115.46842 
L 243.302955 118.994392 
L 245.565814 120.623576 
L 247.828672 120.004756 
L 252.354388 116.700755 
L 256.880105 114.13037 
L 261.405821 111.959208 
L 268.194396 108.824065 
L 272.720113 106.380465 
L 274.982971 106.153613 
L 277.245829 109.77008 
L 279.508688 97.225379 
L 281.771546 96.746913 
L 284.034404 87.7261 
L 286.297262 91.003155 
L 288.560121 104.331766 
L 290.822979 94.057283 
L 293.085837 90.061905 
L 295.348696 107.250786 
L 297.611554 100.878764 
L 299.874412 107.953473 
L 302.13727 111.283526 
L 304.400129 114.044458 
L 311.188703 121.600747 
L 313.451562 123.441822 
L 315.71442 124.269327 
L 317.977278 123.518627 
L 320.240137 122.126226 
L 324.765853 119.589971 
L 327.028711 118.110652 
L 329.29157 118.56788 
L 331.554428 118.073689 
L 333.817286 116.84267 
L 336.080144 116.987719 
L 338.343003 130.510963 
L 340.605861 107.895838 
L 342.868719 110.471667 
L 345.131578 110.467264 
L 347.394436 109.893504 
L 349.657294 110.26324 
L 354.183011 108.92753 
L 363.234444 106.315017 
L 367.76016 104.749193 
L 372.285877 102.908907 
L 374.548735 101.814865 
L 376.811593 100.517717 
L 379.074452 98.579466 
L 381.33731 97.92748 
L 383.600168 94.830432 
L 385.863027 93.792725 
L 388.125885 89.039378 
L 390.388743 80.24393 
L 392.651601 78.534327 
L 394.91446 88.83298 
L 397.177318 92.564179 
L 401.703034 98.172323 
L 403.965893 100.17624 
L 406.228751 101.889346 
L 408.491609 103.3385 
L 413.017326 105.890075 
L 417.543042 108.259044 
L 419.805901 109.609439 
L 422.068759 110.82466 
L 424.331617 112.314048 
L 428.857334 116.126201 
L 431.120192 120.175001 
L 433.38305 133.615527 
L 435.645909 119.328831 
L 437.908767 108.869178 
L 440.171625 91.804783 
L 442.434483 88.039651 
L 444.697342 80.966039 
L 444.697342 80.966039 
" clip-path="url(#pa0720e21e9)" style="fill: none; stroke: #1f77b4; stroke-linecap: square"/>
   </g>
   <g id="line2d_42">
    <path d="M 3.439978 60.986014 
L 5.702836 61.074374 
L 7.965695 80.679861 
L 10.228553 78.391038 
L 12.491411 84.857316 
L 14.75427 87.060858 
L 17.017128 88.57197 
L 19.279986 89.646391 
L 21.542844 90.438012 
L 23.805703 91.042041 
L 28.331419 91.850882 
L 32.857136 92.367012 
L 37.382852 92.703958 
L 44.171427 92.957063 
L 46.434285 92.948093 
L 48.697144 92.516176 
L 50.960002 93.178375 
L 53.22286 92.241891 
L 55.485718 89.557542 
L 57.748577 91.115624 
L 60.011435 91.720624 
L 62.274293 92.443201 
L 69.062868 92.451007 
L 82.640018 92.001111 
L 96.217167 91.332131 
L 112.057175 90.320112 
L 130.160042 88.872285 
L 141.474333 87.78379 
L 152.788624 86.510462 
L 159.577199 85.70541 
L 164.102916 84.322905 
L 166.365774 83.871739 
L 168.628632 86.238479 
L 170.89149 85.128185 
L 173.154349 83.723186 
L 175.417207 83.06605 
L 177.680065 82.943084 
L 182.205782 81.964119 
L 186.731498 80.99204 
L 191.257215 79.872124 
L 195.782931 78.581811 
L 200.308648 77.072971 
L 204.834365 75.219072 
L 207.097223 74.102447 
L 209.360081 72.806142 
L 211.622939 71.235388 
L 213.885798 68.710741 
L 216.148656 67.379885 
L 218.411514 60.327588 
L 220.674372 53.656087 
L 222.937231 62.790856 
L 225.200089 35.539788 
L 227.462947 61.117004 
L 229.725806 57.91123 
L 231.988664 65.184216 
L 234.251522 68.586881 
L 236.51438 70.625462 
L 238.777239 72.248739 
L 241.040097 73.572671 
L 243.302955 74.706108 
L 247.828672 76.586669 
L 252.354388 78.104342 
L 256.880105 79.382973 
L 263.66868 80.988221 
L 272.720113 82.805003 
L 274.982971 82.848221 
L 277.245829 83.514011 
L 279.508688 85.184715 
L 281.771546 86.656281 
L 284.034404 83.496529 
L 286.297262 83.757256 
L 290.822979 85.418263 
L 295.348696 85.870941 
L 308.925845 87.32621 
L 324.765853 88.764392 
L 342.868719 90.152788 
L 367.76016 91.857937 
L 385.863027 93.157326 
L 392.651601 93.867431 
L 394.91446 91.064011 
L 397.177318 94.233777 
L 399.440176 93.012535 
L 401.703034 93.580775 
L 403.965893 93.883879 
L 406.228751 94.059387 
L 417.543042 95.663235 
L 422.068759 96.644806 
L 424.331617 97.330429 
L 426.594475 98.226766 
L 428.857334 99.591833 
L 431.120192 101.828736 
L 433.38305 106.841467 
L 435.645909 117.588266 
L 437.908767 98.701298 
L 440.171625 83.566131 
L 442.434483 90.236689 
L 444.697342 64.432658 
L 444.697342 64.432658 
" clip-path="url(#pa0720e21e9)" style="fill: none; stroke: #ff7f0e; stroke-linecap: square"/>
   </g>
   <g id="line2d_43">
    <path d="M 3.439978 64.784879 
L 5.702836 61.434372 
L 7.965695 79.555343 
L 10.228553 77.367744 
L 12.491411 82.097434 
L 14.75427 83.683337 
L 17.017128 84.671705 
L 19.279986 85.286834 
L 21.542844 85.701464 
L 26.068561 86.18317 
L 32.857136 86.524715 
L 41.908569 86.613792 
L 46.434285 86.561845 
L 48.697144 86.409625 
L 50.960002 86.513217 
L 53.22286 86.184052 
L 55.485718 85.065596 
L 57.748577 86.31594 
L 60.011435 86.062628 
L 62.274293 86.125808 
L 78.114301 85.584063 
L 91.691451 84.930051 
L 109.794317 83.823471 
L 125.634325 82.627358 
L 139.211475 81.401579 
L 150.525766 80.19594 
L 159.577199 79.079708 
L 166.365774 78.047837 
L 170.89149 77.672728 
L 173.154349 77.03512 
L 179.942924 75.881806 
L 188.994357 73.897951 
L 193.520073 72.710203 
L 198.04579 71.331507 
L 202.571506 69.683957 
L 204.834365 68.712747 
L 207.097223 67.611375 
L 209.360081 66.340347 
L 211.622939 64.812497 
L 216.148656 60.526284 
L 218.411514 56.282 
L 220.674372 50.895498 
L 222.937231 59.94435 
L 225.200089 37.913828 
L 227.462947 56.435652 
L 229.725806 53.398216 
L 231.988664 58.719236 
L 234.251522 61.925352 
L 236.51438 64.038646 
L 238.777239 65.685037 
L 241.040097 67.026598 
L 243.302955 68.167424 
L 247.828672 70.064562 
L 252.354388 71.593132 
L 256.880105 72.880777 
L 261.405821 73.996864 
L 268.194396 75.416101 
L 272.720113 76.325806 
L 277.245829 76.943293 
L 279.508688 77.635744 
L 284.034404 77.893385 
L 288.560121 78.5587 
L 293.085837 79.176777 
L 304.400129 80.449718 
L 317.977278 81.757993 
L 333.817286 83.060815 
L 358.708727 84.793 
L 392.651601 86.941237 
L 394.91446 87.763253 
L 399.440176 87.148198 
L 401.703034 87.396334 
L 406.228751 87.570587 
L 419.805901 88.797442 
L 424.331617 89.435215 
L 426.594475 89.854234 
L 428.857334 90.389401 
L 431.120192 91.165821 
L 433.38305 92.387598 
L 435.645909 94.794065 
L 437.908767 100.795109 
L 440.171625 85.775772 
L 442.434483 95.940819 
L 444.697342 65.141089 
L 444.697342 65.141089 
" clip-path="url(#pa0720e21e9)" style="fill: none; stroke: #2ca02c; stroke-linecap: square"/>
   </g>
   <g id="line2d_44">
    <path d="M 3.439978 66.424524 
L 5.702836 62.101474 
L 7.965695 78.133619 
L 10.228553 77.886099 
L 12.491411 80.299291 
L 14.75427 81.280998 
L 17.017128 81.972817 
L 19.279986 82.349146 
L 23.805703 82.744063 
L 30.594277 82.957294 
L 39.645711 82.963702 
L 48.697144 82.726878 
L 50.960002 82.661745 
L 53.22286 82.710188 
L 55.485718 82.202777 
L 57.748577 82.478049 
L 69.062868 82.19369 
L 87.165734 81.415921 
L 103.005742 80.547897 
L 118.84575 79.479261 
L 134.685758 78.176467 
L 148.262908 76.827351 
L 159.577199 75.486177 
L 166.365774 74.515998 
L 173.154349 73.490519 
L 177.680065 72.771542 
L 186.731498 70.895062 
L 191.257215 69.802215 
L 195.782931 68.541502 
L 200.308648 67.061417 
L 204.834365 65.255024 
L 207.097223 64.175202 
L 209.360081 62.92956 
L 211.622939 61.449149 
L 213.885798 59.477681 
L 216.148656 57.276916 
L 218.411514 54.153275 
L 220.674372 49.491527 
L 222.937231 52.663735 
L 225.200089 41.601195 
L 227.462947 50.785595 
L 229.725806 51.085097 
L 231.988664 55.550221 
L 234.251522 58.437891 
L 236.51438 60.535286 
L 238.777239 62.173481 
L 241.040097 63.516022 
L 243.302955 64.664073 
L 247.828672 66.565989 
L 252.354388 68.105117 
L 256.880105 69.402865 
L 261.405821 70.527169 
L 268.194396 71.971049 
L 274.982971 73.224619 
L 297.611554 76.311405 
L 311.188703 77.744283 
L 327.028711 79.159341 
L 342.868719 80.382338 
L 365.497302 81.901896 
L 392.651601 83.631314 
L 394.91446 84.070568 
L 397.177318 83.815534 
L 403.965893 84.218062 
L 408.491609 84.488888 
L 417.543042 85.173014 
L 424.331617 85.878935 
L 428.857334 86.54651 
L 431.120192 87.020816 
L 433.38305 87.667828 
L 437.908767 89.725583 
L 440.171625 84.369728 
L 442.434483 108.919564 
L 444.697342 66.284742 
L 444.697342 66.284742 
" clip-path="url(#pa0720e21e9)" style="fill: none; stroke: #d62728; stroke-linecap: square"/>
   </g>
   <g id="patch_13">
    <path d="M 193.519976 131.55198 
L 193.519976 27.87198 
" style="fill: none; stroke: #000000; stroke-width: 0.8; stroke-linejoin: miter; stroke-linecap: square"/>
   </g>
   <g id="patch_14">
    <path d="M 256.879976 131.55198 
L 256.879976 27.87198 
" style="fill: none; stroke: #000000; stroke-width: 0.8; stroke-linejoin: miter; stroke-linecap: square"/>
   </g>
   <g id="patch_15">
    <path d="M 193.519976 131.55198 
L 256.879976 131.55198 
" style="fill: none; stroke: #000000; stroke-width: 0.8; stroke-linejoin: miter; stroke-linecap: square"/>
   </g>
   <g id="patch_16">
    <path d="M 193.519976 27.87198 
L 256.879976 27.87198 
" style="fill: none; stroke: #000000; stroke-width: 0.8; stroke-linejoin: miter; stroke-linecap: square"/>
   </g>
  </g>
  <g id="axes_4">
   <g id="patch_17">
    <path d="M 420.867176 131.55198 
L 484.227176 131.55198 
L 484.227176 27.87198 
L 420.867176 27.87198 
z
" style="fill: #ffffff"/>
   </g>
   <g id="matplotlib.axis_7">
    <g id="xtick_12">
     <g id="line2d_45">
      <g>
       <use xlink:href="#m77e710502b" x="420.867176" y="131.55198" style="stroke: #000000; stroke-width: 0.8"/>
      </g>
     </g>
     <g id="text_35">
      <!-- $\mathdefault{0.43}$ -->
      <g transform="translate(412.675726 141.440468)scale(0.09 -0.09)">
       <use xlink:href="#CMR17-30" transform="scale(0.996264)"/>
       <use xlink:href="#CMMI12-3a" transform="translate(45.690477 0)scale(0.996264)"/>
       <use xlink:href="#CMR17-34" transform="translate(72.787654 0)scale(0.996264)"/>
       <use xlink:href="#CMR17-33" transform="translate(118.478131 0)scale(0.996264)"/>
      </g>
     </g>
    </g>
    <g id="xtick_13">
     <g id="line2d_46">
      <g>
       <use xlink:href="#m77e710502b" x="452.547176" y="131.55198" style="stroke: #000000; stroke-width: 0.8"/>
      </g>
     </g>
     <g id="text_36">
      <!-- $\mathdefault{0.50}$ -->
      <g transform="translate(444.355726 141.440468)scale(0.09 -0.09)">
       <use xlink:href="#CMR17-30" transform="scale(0.996264)"/>
       <use xlink:href="#CMMI12-3a" transform="translate(45.690477 0)scale(0.996264)"/>
       <use xlink:href="#CMR17-35" transform="translate(72.787654 0)scale(0.996264)"/>
       <use xlink:href="#CMR17-30" transform="translate(118.478131 0)scale(0.996264)"/>
      </g>
     </g>
    </g>
    <g id="xtick_14">
     <g id="line2d_47">
      <g>
       <use xlink:href="#m77e710502b" x="484.227176" y="131.55198" style="stroke: #000000; stroke-width: 0.8"/>
      </g>
     </g>
     <g id="text_37">
      <!-- $\mathdefault{0.57}$ -->
      <g transform="translate(476.035726 141.440468)scale(0.09 -0.09)">
       <use xlink:href="#CMR17-30" transform="scale(0.996264)"/>
       <use xlink:href="#CMMI12-3a" transform="translate(45.690477 0)scale(0.996264)"/>
       <use xlink:href="#CMR17-35" transform="translate(72.787654 0)scale(0.996264)"/>
       <use xlink:href="#CMR17-37" transform="translate(118.478131 0)scale(0.996264)"/>
      </g>
     </g>
    </g>
    <g id="text_38">
     <!-- $\Omega/\omega$ -->
     <g transform="translate(444.048901 154.075035)scale(0.09 -0.09)">
      <use xlink:href="#CMR17-a" transform="scale(0.996264)"/>
      <use xlink:href="#CMMI12-3d" transform="translate(66.509881 0)scale(0.996264)"/>
      <use xlink:href="#CMMI12-21" transform="translate(115.284799 0)scale(0.996264)"/>
     </g>
    </g>
   </g>
   <g id="matplotlib.axis_8">
    <g id="ytick_18">
     <g id="line2d_48">
      <g>
       <use xlink:href="#m0f18428983" x="420.867176" y="106.105833" style="stroke: #000000; stroke-width: 0.8"/>
      </g>
     </g>
     <g id="text_39">
      <!-- $\mathdefault{10^{0}}$ -->
      <g transform="translate(404.498882 109.300077)scale(0.09 -0.09)">
       <use xlink:href="#CMR17-31" transform="scale(0.996264)"/>
       <use xlink:href="#CMR17-30" transform="translate(45.690477 0)scale(0.996264)"/>
       <use xlink:href="#CMR17-30" transform="translate(91.380954 36.153639)scale(0.697382)"/>
      </g>
     </g>
    </g>
    <g id="ytick_19">
     <g id="line2d_49">
      <g>
       <use xlink:href="#m0f18428983" x="420.867176" y="66.988906" style="stroke: #000000; stroke-width: 0.8"/>
      </g>
     </g>
     <g id="text_40">
      <!-- $\mathdefault{10^{2}}$ -->
      <g transform="translate(404.498882 70.183151)scale(0.09 -0.09)">
       <use xlink:href="#CMR17-31" transform="scale(0.996264)"/>
       <use xlink:href="#CMR17-30" transform="translate(45.690477 0)scale(0.996264)"/>
       <use xlink:href="#CMR17-32" transform="translate(91.380954 36.153639)scale(0.697382)"/>
      </g>
     </g>
    </g>
    <g id="ytick_20">
     <g id="line2d_50">
      <g>
       <use xlink:href="#m0f18428983" x="420.867176" y="27.87198" style="stroke: #000000; stroke-width: 0.8"/>
      </g>
     </g>
     <g id="text_41">
      <!-- $\mathdefault{10^{4}}$ -->
      <g transform="translate(404.498882 31.066224)scale(0.09 -0.09)">
       <use xlink:href="#CMR17-31" transform="scale(0.996264)"/>
       <use xlink:href="#CMR17-30" transform="translate(45.690477 0)scale(0.996264)"/>
       <use xlink:href="#CMR17-34" transform="translate(91.380954 36.153639)scale(0.697382)"/>
      </g>
     </g>
    </g>
    <g id="text_42">
     <!-- $FFT\;(M^Z_A);log-scale$ -->
     <g transform="translate(398.257288 126.854151)rotate(-90)scale(0.09 -0.09)">
      <use xlink:href="#CMMI12-46" transform="scale(0.996264)"/>
      <use xlink:href="#CMMI12-46" transform="translate(76.696793 0)scale(0.996264)"/>
      <use xlink:href="#CMMI12-54" transform="translate(153.393585 0)scale(0.996264)"/>
      <use xlink:href="#CMR17-28" transform="translate(251.791226 0)scale(0.996264)"/>
      <use xlink:href="#CMMI12-4d" transform="translate(287.071994 0)scale(0.996264)"/>
      <use xlink:href="#CMMI12-5a" transform="translate(391.852073 36.153639)scale(0.697382)"/>
      <use xlink:href="#CMMI12-41" transform="translate(381.445419 -27.44057)scale(0.697382)"/>
      <use xlink:href="#CMR17-29" transform="translate(444.096479 0)scale(0.996264)"/>
      <use xlink:href="#CMR17-3b" transform="translate(479.377247 0)scale(0.996264)"/>
      <use xlink:href="#CMMI12-6c" transform="translate(520.852711 0)scale(0.996264)"/>
      <use xlink:href="#CMMI12-6f" transform="translate(552.101114 0)scale(0.996264)"/>
      <use xlink:href="#CMMI12-67" transform="translate(598.996424 0)scale(0.996264)"/>
      <use xlink:href="#CMSY10-0" transform="translate(671.42112 0)scale(0.996264)"/>
      <use xlink:href="#CMMI12-73" transform="translate(771.047795 0)scale(0.996264)"/>
      <use xlink:href="#CMMI12-63" transform="translate(816.997843 0)scale(0.996264)"/>
      <use xlink:href="#CMMI12-61" transform="translate(858.981076 0)scale(0.996264)"/>
      <use xlink:href="#CMMI12-6c" transform="translate(910.188934 0)scale(0.996264)"/>
      <use xlink:href="#CMMI12-65" transform="translate(941.437338 0)scale(0.996264)"/>
     </g>
    </g>
   </g>
   <g id="line2d_51">
    <path d="M 230.787178 82.609597 
L 233.050036 86.50461 
L 235.312895 87.263998 
L 237.575753 86.753653 
L 239.838611 81.618232 
L 242.10147 63.721538 
L 244.364328 72.360659 
L 246.627186 85.196945 
L 248.890044 87.40137 
L 251.152903 80.298511 
L 253.415761 71.339106 
L 255.678619 82.688058 
L 257.941477 86.341982 
L 260.204336 88.192423 
L 262.467194 89.603713 
L 264.730052 89.864041 
L 266.992911 91.062921 
L 269.255769 91.844199 
L 271.518627 91.575518 
L 276.044344 91.621993 
L 278.307202 92.004057 
L 280.57006 92.093274 
L 282.832918 92.050805 
L 285.095777 90.207631 
L 287.358635 85.357989 
L 289.621493 85.319392 
L 291.884352 91.571122 
L 294.14721 87.701279 
L 296.410068 84.795542 
L 298.672926 80.137084 
L 300.935785 70.531149 
L 303.198643 72.7353 
L 305.461501 81.821626 
L 307.724359 85.777938 
L 309.987218 88.592918 
L 312.250076 90.062638 
L 314.512934 91.253041 
L 316.775793 87.812018 
L 319.038651 88.795071 
L 321.301509 92.827266 
L 323.564367 93.316521 
L 325.827226 93.476079 
L 328.090084 93.392391 
L 332.6158 93.858913 
L 334.878659 93.780694 
L 337.141517 93.201567 
L 339.404375 93.139764 
L 341.667234 92.872631 
L 343.930092 93.024429 
L 346.19295 94.230919 
L 348.455808 93.197339 
L 350.718667 92.777667 
L 355.244383 92.102783 
L 357.507242 92.029675 
L 359.7701 79.170796 
L 362.032958 79.532397 
L 364.295816 91.655921 
L 366.558675 90.960495 
L 368.821533 90.788099 
L 371.084391 89.181786 
L 373.347249 91.565274 
L 375.610108 87.300113 
L 377.872966 85.833636 
L 380.135824 88.693854 
L 382.398683 90.785764 
L 384.661541 86.119012 
L 386.924399 83.016086 
L 389.187257 90.44992 
L 391.450116 86.515344 
L 393.712974 96.568857 
L 395.975832 96.815569 
L 398.23869 91.429559 
L 400.501549 87.75818 
L 402.764407 85.166255 
L 405.027265 91.702734 
L 407.290124 89.123057 
L 409.552982 90.824026 
L 411.81584 87.708796 
L 414.078698 87.468371 
L 416.341557 85.993249 
L 420.867273 84.936322 
L 423.130131 82.316193 
L 425.39299 76.389423 
L 427.655848 86.501912 
L 429.918706 86.128148 
L 432.181565 86.784755 
L 434.444423 81.53159 
L 436.707281 75.000504 
L 438.970139 75.514861 
L 441.232998 73.094802 
L 443.495856 76.552175 
L 445.758714 72.644715 
L 448.021572 69.354955 
L 450.284431 62.036778 
L 452.547289 33.8606 
L 454.810147 63.029552 
L 457.073006 71.170789 
L 459.335864 77.262167 
L 461.598722 83.749396 
L 463.86158 71.290783 
L 466.124439 79.96529 
L 468.387297 65.920812 
L 470.650155 74.23885 
L 472.913014 79.83193 
L 475.175872 82.910539 
L 477.43873 80.021461 
L 479.701588 70.381745 
L 481.964447 77.857804 
L 484.227305 81.014145 
L 486.490163 82.064644 
L 488.753021 82.964578 
L 491.01588 84.643522 
L 493.278738 85.074498 
L 495.019176 88.603946 
L 495.019176 88.603946 
" clip-path="url(#paa417884ea)" style="fill: none; stroke: #1f77b4; stroke-linecap: square"/>
   </g>
   <g id="line2d_52">
    <path d="M 230.787178 89.149612 
L 233.050036 83.949071 
L 235.312895 87.04146 
L 237.575753 83.067025 
L 239.838611 73.5559 
L 242.10147 83.62602 
L 244.364328 91.842289 
L 246.627186 91.114215 
L 248.890044 93.404365 
L 251.152903 93.586397 
L 255.678619 93.416607 
L 257.941477 93.46208 
L 262.467194 93.193222 
L 264.730052 93.532115 
L 266.992911 92.857363 
L 269.255769 92.905081 
L 271.518627 92.55015 
L 273.781485 92.544968 
L 276.044344 92.915853 
L 278.307202 92.850968 
L 280.57006 92.574325 
L 282.832918 92.086063 
L 285.095777 93.08789 
L 287.358635 91.80673 
L 289.621493 91.104914 
L 291.884352 81.836079 
L 294.14721 85.655035 
L 296.410068 89.952218 
L 298.672926 90.828673 
L 300.935785 91.083018 
L 303.198643 91.169852 
L 305.461501 91.575673 
L 307.724359 91.02941 
L 309.987218 91.172288 
L 316.775793 90.944498 
L 328.090084 90.425691 
L 330.352942 90.197414 
L 334.878659 89.979042 
L 346.19295 89.218161 
L 368.821533 87.202416 
L 371.084391 86.741768 
L 373.347249 87.452101 
L 375.610108 86.665149 
L 377.872966 86.257783 
L 380.135824 86.141375 
L 384.661541 85.377254 
L 386.924399 84.71959 
L 389.187257 85.677736 
L 391.450116 84.6655 
L 393.712974 85.066044 
L 395.975832 84.3142 
L 398.23869 84.242316 
L 400.501549 83.480617 
L 402.764407 83.080897 
L 405.027265 82.563545 
L 407.290124 82.37244 
L 409.552982 82.050793 
L 411.81584 81.399362 
L 414.078698 81.027077 
L 418.604415 79.845498 
L 423.130131 78.553947 
L 427.655848 77.037742 
L 432.181565 75.212901 
L 434.444423 73.922676 
L 436.707281 71.843133 
L 438.970139 73.657836 
L 441.232998 71.503513 
L 443.495856 68.989569 
L 445.758714 66.192537 
L 448.021572 62.714473 
L 450.284431 54.03401 
L 452.547289 34.306048 
L 454.810147 53.911316 
L 457.073006 62.364719 
L 459.335864 66.04427 
L 461.598722 68.594592 
L 463.86158 70.341964 
L 466.124439 71.472597 
L 468.387297 73.958636 
L 470.650155 74.76793 
L 475.175872 76.597424 
L 479.701588 78.109935 
L 484.227305 79.40801 
L 491.01588 81.165239 
L 493.278738 81.483544 
L 495.019176 81.984064 
L 495.019176 81.984064 
" clip-path="url(#paa417884ea)" style="fill: none; stroke: #ff7f0e; stroke-linecap: square"/>
   </g>
   <g id="line2d_53">
    <path d="M 230.787178 91.540654 
L 233.050036 83.5904 
L 235.312895 82.111983 
L 237.575753 69.659932 
L 239.838611 72.048576 
L 242.10147 89.804772 
L 244.364328 95.598885 
L 246.627186 91.21934 
L 248.890044 94.994461 
L 251.152903 97.05032 
L 253.415761 98.349895 
L 255.678619 99.066309 
L 257.941477 99.529512 
L 260.204336 100.426148 
L 262.467194 100.437993 
L 266.992911 101.537094 
L 269.255769 103.392778 
L 271.518627 105.474179 
L 273.781485 95.463258 
L 276.044344 99.204488 
L 278.307202 100.940848 
L 280.57006 100.744248 
L 282.832918 102.239068 
L 285.095777 105.597075 
L 287.358635 109.210977 
L 289.621493 96.813141 
L 291.884352 85.720576 
L 294.14721 93.011453 
L 296.410068 95.05623 
L 298.672926 96.087282 
L 303.198643 96.892312 
L 307.724359 97.276163 
L 316.775793 97.465996 
L 323.564367 97.367687 
L 332.6158 97.080259 
L 346.19295 96.439435 
L 362.032958 95.338436 
L 375.610108 94.027754 
L 377.872966 93.669227 
L 380.135824 93.515954 
L 382.398683 92.958739 
L 384.661541 92.827206 
L 386.924399 91.660337 
L 391.450116 93.083505 
L 393.712974 92.860358 
L 395.975832 93.993396 
L 398.23869 93.174666 
L 400.501549 91.340673 
L 402.764407 90.583941 
L 405.027265 90.533904 
L 407.290124 89.963526 
L 411.81584 91.044129 
L 414.078698 89.550902 
L 416.341557 89.092418 
L 420.867273 87.464473 
L 423.130131 86.865826 
L 427.655848 85.203497 
L 429.918706 84.175937 
L 432.181565 82.487482 
L 434.444423 83.205289 
L 436.707281 80.779427 
L 438.970139 74.157092 
L 441.232998 77.819274 
L 443.495856 80.153594 
L 445.758714 75.819395 
L 450.284431 68.523512 
L 452.547289 33.040779 
L 454.810147 68.81451 
L 457.073006 70.661839 
L 459.335864 75.100467 
L 461.598722 77.853116 
L 463.86158 78.840006 
L 466.124439 81.545686 
L 470.650155 83.777723 
L 472.913014 85.423278 
L 481.964447 88.428033 
L 484.227305 88.969763 
L 488.753021 90.552479 
L 491.01588 91.183793 
L 493.278738 92.818115 
L 495.019176 92.336831 
L 495.019176 92.336831 
" clip-path="url(#paa417884ea)" style="fill: none; stroke: #2ca02c; stroke-linecap: square"/>
   </g>
   <g id="line2d_54">
    <path d="M 230.787178 78.008246 
L 233.050036 78.247216 
L 235.312895 73.211303 
L 237.575753 71.824184 
L 239.838611 68.454971 
L 242.10147 75.342495 
L 244.364328 79.383955 
L 248.890044 82.621994 
L 251.152903 83.858358 
L 253.415761 84.804875 
L 257.941477 86.342328 
L 260.204336 86.91899 
L 262.467194 87.380883 
L 264.730052 88.003396 
L 266.992911 88.203015 
L 269.255769 88.958244 
L 271.518627 88.911034 
L 273.781485 88.357425 
L 276.044344 89.485975 
L 280.57006 90.070351 
L 282.832918 90.102529 
L 285.095777 90.586576 
L 287.358635 90.601204 
L 289.621493 87.683989 
L 291.884352 90.601224 
L 294.14721 90.805602 
L 305.461501 91.159044 
L 319.038651 91.186465 
L 332.6158 90.935331 
L 346.19295 90.442812 
L 357.507242 89.854887 
L 371.084391 88.89671 
L 377.872966 88.257918 
L 382.398683 87.638865 
L 384.661541 87.708443 
L 386.924399 87.406515 
L 389.187257 86.766868 
L 391.450116 86.551371 
L 393.712974 87.215997 
L 398.23869 86.005429 
L 400.501549 85.532341 
L 402.764407 85.573268 
L 405.027265 84.968482 
L 407.290124 84.143483 
L 409.552982 84.758983 
L 411.81584 84.22488 
L 416.341557 82.687742 
L 418.604415 82.460048 
L 427.655848 79.437288 
L 429.918706 78.356821 
L 434.444423 75.90393 
L 436.707281 73.720427 
L 438.970139 68.908664 
L 441.232998 70.86531 
L 443.495856 83.122103 
L 445.758714 73.215902 
L 448.021572 66.572232 
L 450.284431 61.392442 
L 452.547289 33.409076 
L 454.810147 61.377234 
L 457.073006 66.571113 
L 459.335864 70.805364 
L 461.598722 73.718622 
L 463.86158 74.47305 
L 466.124439 76.735481 
L 468.387297 78.031895 
L 470.650155 79.069662 
L 472.913014 80.254185 
L 477.43873 81.99944 
L 479.701588 82.818617 
L 481.964447 83.344375 
L 486.490163 84.86099 
L 488.753021 85.165497 
L 491.01588 85.888563 
L 495.019176 87.541879 
L 495.019176 87.541879 
" clip-path="url(#paa417884ea)" style="fill: none; stroke: #d62728; stroke-linecap: square"/>
   </g>
   <g id="patch_18">
    <path d="M 420.867176 131.55198 
L 420.867176 27.87198 
" style="fill: none; stroke: #000000; stroke-width: 0.8; stroke-linejoin: miter; stroke-linecap: square"/>
   </g>
   <g id="patch_19">
    <path d="M 484.227176 131.55198 
L 484.227176 27.87198 
" style="fill: none; stroke: #000000; stroke-width: 0.8; stroke-linejoin: miter; stroke-linecap: square"/>
   </g>
   <g id="patch_20">
    <path d="M 420.867176 131.55198 
L 484.227176 131.55198 
" style="fill: none; stroke: #000000; stroke-width: 0.8; stroke-linejoin: miter; stroke-linecap: square"/>
   </g>
   <g id="patch_21">
    <path d="M 420.867176 27.87198 
L 484.227176 27.87198 
" style="fill: none; stroke: #000000; stroke-width: 0.8; stroke-linejoin: miter; stroke-linecap: square"/>
   </g>
  </g>
 </g>
 <defs>
  <clipPath id="p4212b33c24">
   <rect x="47.619176" y="13.47198" width="220.990099" height="221.76"/>
  </clipPath>
  <clipPath id="p9cbe6ed4ad">
   <rect x="273.029077" y="13.47198" width="220.990099" height="221.76"/>
  </clipPath>
  <clipPath id="pa0720e21e9">
   <rect x="193.519976" y="27.87198" width="63.36" height="103.68"/>
  </clipPath>
  <clipPath id="paa417884ea">
   <rect x="420.867176" y="27.87198" width="63.36" height="103.68"/>
  </clipPath>
 </defs>
</svg>
