<?xml version="1.0" encoding="utf-8" standalone="no"?>
<!DOCTYPE svg PUBLIC "-//W3C//DTD SVG 1.1//EN"
  "http://www.w3.org/Graphics/SVG/1.1/DTD/svg11.dtd">
<svg xmlns:xlink="http://www.w3.org/1999/xlink" width="490.117182pt" height="265.751507pt" viewBox="0 0 490.117182 265.751507" xmlns="http://www.w3.org/2000/svg" version="1.1">
 <metadata>
  <rdf:RDF xmlns:dc="http://purl.org/dc/elements/1.1/" xmlns:cc="http://creativecommons.org/ns#" xmlns:rdf="http://www.w3.org/1999/02/22-rdf-syntax-ns#">
   <cc:Work>
    <dc:type rdf:resource="http://purl.org/dc/dcmitype/StillImage"/>
    <dc:date>2024-05-02T11:49:14.756725</dc:date>
    <dc:format>image/svg+xml</dc:format>
    <dc:creator>
     <cc:Agent>
      <dc:title>Matplotlib v3.5.2, https://matplotlib.org/</dc:title>
     </cc:Agent>
    </dc:creator>
   </cc:Work>
  </rdf:RDF>
 </metadata>
 <defs>
  <style type="text/css">*{stroke-linejoin: round; stroke-linecap: butt}</style>
 </defs>
 <g id="figure_1">
  <g id="patch_1">
   <path d="M 0 265.751507 
L 490.117182 265.751507 
L 490.117182 0 
L 0 0 
z
" style="fill: #ffffff"/>
  </g>
  <g id="axes_1">
   <g id="patch_2">
    <path d="M 43.717182 235.23198 
L 264.707281 235.23198 
L 264.707281 13.47198 
L 43.717182 13.47198 
z
" style="fill: #ffffff"/>
   </g>
   <g id="matplotlib.axis_1">
    <g id="xtick_1">
     <g id="line2d_1">
      <defs>
       <path id="m52e6dee2ad" d="M 0 0 
L 0 -3.5 
" style="stroke: #000000; stroke-width: 0.8"/>
      </defs>
      <g>
       <use xlink:href="#m52e6dee2ad" x="43.717182" y="235.23198" style="stroke: #000000; stroke-width: 0.8"/>
      </g>
     </g>
     <g id="text_1">
      <!-- $\mathdefault{0.0}$ -->
      <g transform="translate(36.238362 247.249964)scale(0.12 -0.12)">
       <defs>
        <path id="CMR17-30" d="M 2688 2038 
C 2688 2430 2682 3099 2413 3613 
C 2176 4063 1798 4224 1466 4224 
C 1158 4224 768 4082 525 3620 
C 269 3137 243 2539 243 2038 
C 243 1671 250 1112 448 623 
C 723 -39 1216 -128 1466 -128 
C 1760 -128 2208 -7 2470 604 
C 2662 1048 2688 1568 2688 2038 
z
M 1466 -26 
C 1056 -26 813 328 723 816 
C 653 1196 653 1749 653 2109 
C 653 2604 653 3015 736 3407 
C 858 3954 1216 4121 1466 4121 
C 1728 4121 2067 3947 2189 3420 
C 2272 3054 2278 2623 2278 2109 
C 2278 1691 2278 1176 2202 797 
C 2067 96 1690 -26 1466 -26 
z
" transform="scale(0.015625)"/>
        <path id="CMMI12-3a" d="M 1178 307 
C 1178 492 1024 620 870 620 
C 685 620 557 467 557 313 
C 557 128 710 0 864 0 
C 1050 0 1178 153 1178 307 
z
" transform="scale(0.015625)"/>
       </defs>
       <use xlink:href="#CMR17-30" transform="scale(0.996264)"/>
       <use xlink:href="#CMMI12-3a" transform="translate(45.690477 0)scale(0.996264)"/>
       <use xlink:href="#CMR17-30" transform="translate(72.787654 0)scale(0.996264)"/>
      </g>
     </g>
    </g>
    <g id="xtick_2">
     <g id="line2d_2">
      <g>
       <use xlink:href="#m52e6dee2ad" x="87.915202" y="235.23198" style="stroke: #000000; stroke-width: 0.8"/>
      </g>
     </g>
     <g id="text_2">
      <!-- $\mathdefault{0.2}$ -->
      <g transform="translate(80.436381 247.249964)scale(0.12 -0.12)">
       <defs>
        <path id="CMR17-32" d="M 2669 990 
L 2554 990 
C 2490 537 2438 460 2413 422 
C 2381 371 1920 371 1830 371 
L 602 371 
C 832 620 1280 1073 1824 1596 
C 2214 1966 2669 2400 2669 3033 
C 2669 3788 2067 4224 1395 4224 
C 691 4224 262 3603 262 3027 
C 262 2777 448 2745 525 2745 
C 589 2745 781 2783 781 3007 
C 781 3206 614 3264 525 3264 
C 486 3264 448 3257 422 3244 
C 544 3788 915 4057 1306 4057 
C 1862 4057 2227 3616 2227 3033 
C 2227 2477 1901 1998 1536 1583 
L 262 147 
L 262 0 
L 2515 0 
L 2669 990 
z
" transform="scale(0.015625)"/>
       </defs>
       <use xlink:href="#CMR17-30" transform="scale(0.996264)"/>
       <use xlink:href="#CMMI12-3a" transform="translate(45.690477 0)scale(0.996264)"/>
       <use xlink:href="#CMR17-32" transform="translate(72.787654 0)scale(0.996264)"/>
      </g>
     </g>
    </g>
    <g id="xtick_3">
     <g id="line2d_3">
      <g>
       <use xlink:href="#m52e6dee2ad" x="154.212232" y="235.23198" style="stroke: #000000; stroke-width: 0.8"/>
      </g>
     </g>
     <g id="text_3">
      <!-- $\mathdefault{0.5}$ -->
      <g transform="translate(146.733411 247.249964)scale(0.12 -0.12)">
       <defs>
        <path id="CMR17-35" d="M 730 3750 
C 794 3724 1056 3641 1325 3641 
C 1920 3641 2246 3961 2432 4140 
C 2432 4191 2432 4224 2394 4224 
C 2387 4224 2374 4224 2323 4198 
C 2099 4102 1837 4032 1517 4032 
C 1325 4032 1037 4055 723 4191 
C 653 4224 640 4224 634 4224 
C 602 4224 595 4217 595 4090 
L 595 2231 
C 595 2113 595 2080 659 2080 
C 691 2080 704 2093 736 2139 
C 941 2435 1222 2560 1542 2560 
C 1766 2560 2246 2415 2246 1293 
C 2246 1087 2246 716 2054 422 
C 1894 159 1645 25 1370 25 
C 947 25 518 319 403 812 
C 429 806 480 793 506 793 
C 589 793 749 838 749 1036 
C 749 1209 627 1280 506 1280 
C 358 1280 262 1190 262 1011 
C 262 454 704 -128 1382 -128 
C 2042 -128 2669 441 2669 1267 
C 2669 2054 2170 2662 1549 2662 
C 1222 2662 947 2540 730 2304 
L 730 3750 
z
" transform="scale(0.015625)"/>
       </defs>
       <use xlink:href="#CMR17-30" transform="scale(0.996264)"/>
       <use xlink:href="#CMMI12-3a" transform="translate(45.690477 0)scale(0.996264)"/>
       <use xlink:href="#CMR17-35" transform="translate(72.787654 0)scale(0.996264)"/>
      </g>
     </g>
    </g>
    <g id="xtick_4">
     <g id="line2d_4">
      <g>
       <use xlink:href="#m52e6dee2ad" x="220.509262" y="235.23198" style="stroke: #000000; stroke-width: 0.8"/>
      </g>
     </g>
     <g id="text_4">
      <!-- $\mathdefault{0.8}$ -->
      <g transform="translate(213.030441 247.249964)scale(0.12 -0.12)">
       <defs>
        <path id="CMR17-38" d="M 1741 2289 
C 2144 2494 2554 2803 2554 3298 
C 2554 3884 1990 4224 1472 4224 
C 890 4224 378 3800 378 3215 
C 378 3054 416 2777 666 2533 
C 730 2469 998 2276 1171 2154 
C 883 2006 211 1652 211 945 
C 211 282 838 -128 1459 -128 
C 2144 -128 2720 366 2720 1022 
C 2720 1607 2330 1877 2074 2051 
L 1741 2289 
z
M 902 2855 
C 851 2887 595 3086 595 3388 
C 595 3781 998 4076 1459 4076 
C 1965 4076 2336 3716 2336 3298 
C 2336 2700 1670 2359 1638 2359 
C 1632 2359 1626 2359 1574 2398 
L 902 2855 
z
M 2080 1536 
C 2176 1466 2483 1253 2483 861 
C 2483 385 2010 25 1472 25 
C 890 25 448 443 448 951 
C 448 1459 838 1884 1280 2083 
L 2080 1536 
z
" transform="scale(0.015625)"/>
       </defs>
       <use xlink:href="#CMR17-30" transform="scale(0.996264)"/>
       <use xlink:href="#CMMI12-3a" transform="translate(45.690477 0)scale(0.996264)"/>
       <use xlink:href="#CMR17-38" transform="translate(72.787654 0)scale(0.996264)"/>
      </g>
     </g>
    </g>
    <g id="text_5">
     <!-- $\Omega/\omega$ -->
     <g transform="translate(143.413957 262.762715)scale(0.12 -0.12)">
      <defs>
       <path id="CMR17-a" d="M 4038 935 
L 3923 935 
C 3866 640 3846 563 3814 461 
C 3782 364 3763 313 3392 313 
L 2874 313 
C 2944 685 3098 961 3366 1390 
C 3699 1935 3974 2377 3974 2909 
C 3974 3775 3155 4480 2138 4480 
C 1094 4480 294 3768 294 2909 
C 294 2377 576 1922 890 1416 
C 1171 961 1325 685 1395 313 
L 877 313 
C 512 313 493 364 461 454 
C 422 557 410 640 346 935 
L 230 935 
L 416 0 
L 1382 0 
C 1517 0 1523 6 1523 102 
C 1523 557 1286 1153 1178 1428 
C 973 1928 781 2416 781 2916 
C 781 3871 1466 4377 2131 4377 
C 2829 4377 3488 3852 3488 2916 
C 3488 2422 3315 1980 3078 1396 
C 2976 1134 2746 550 2746 102 
C 2746 0 2752 0 2886 0 
L 3853 0 
L 4038 935 
z
" transform="scale(0.015625)"/>
       <path id="CMMI12-3d" d="M 2746 4563 
C 2746 4569 2784 4665 2784 4678 
C 2784 4755 2720 4800 2669 4800 
C 2637 4800 2579 4800 2528 4659 
L 384 -1364 
C 384 -1370 346 -1466 346 -1479 
C 346 -1556 410 -1600 461 -1600 
C 499 -1600 557 -1594 602 -1460 
L 2746 4563 
z
" transform="scale(0.015625)"/>
       <path id="CMMI12-21" d="M 3802 2406 
C 3802 2592 3750 2828 3526 2828 
C 3398 2828 3251 2668 3251 2540 
C 3251 2483 3277 2444 3328 2387 
C 3424 2278 3546 2105 3546 1804 
C 3546 1574 3405 1209 3302 1011 
C 3123 659 2829 358 2496 358 
C 2093 358 1939 614 1869 972 
C 1939 1139 2086 1555 2086 1721 
C 2086 1792 2061 1849 1978 1849 
C 1933 1849 1882 1824 1850 1772 
C 1760 1632 1677 1126 1683 992 
C 1562 755 1216 358 806 358 
C 378 358 262 736 262 1100 
C 262 1766 678 2348 794 2508 
C 858 2604 902 2668 902 2681 
C 902 2726 877 2796 819 2796 
C 717 2796 685 2713 634 2636 
C 307 2131 77 1420 77 806 
C 77 409 224 -64 704 -64 
C 1235 -64 1568 390 1702 633 
C 1754 275 1946 -64 2413 -64 
C 2899 -64 3206 364 3437 883 
C 3603 1254 3802 2054 3802 2406 
z
" transform="scale(0.015625)"/>
      </defs>
      <use xlink:href="#CMR17-a" transform="scale(0.996264)"/>
      <use xlink:href="#CMMI12-3d" transform="translate(66.509881 0)scale(0.996264)"/>
      <use xlink:href="#CMMI12-21" transform="translate(115.284799 0)scale(0.996264)"/>
     </g>
    </g>
   </g>
   <g id="matplotlib.axis_2">
    <g id="ytick_1">
     <g id="line2d_5">
      <defs>
       <path id="mcc59d26b9e" d="M 0 0 
L 3.5 0 
" style="stroke: #000000; stroke-width: 0.8"/>
      </defs>
      <g>
       <use xlink:href="#mcc59d26b9e" x="43.717182" y="225.153324" style="stroke: #000000; stroke-width: 0.8"/>
      </g>
     </g>
     <g id="text_6">
      <!-- $\mathdefault{0}$ -->
      <g transform="translate(34.364192 229.412316)scale(0.12 -0.12)">
       <use xlink:href="#CMR17-30" transform="scale(0.996264)"/>
      </g>
     </g>
    </g>
    <g id="ytick_2">
     <g id="line2d_6">
      <g>
       <use xlink:href="#mcc59d26b9e" x="43.717182" y="190.877953" style="stroke: #000000; stroke-width: 0.8"/>
      </g>
     </g>
     <g id="text_7">
      <!-- $\mathdefault{1000}$ -->
      <g transform="translate(16.805221 195.136945)scale(0.12 -0.12)">
       <defs>
        <path id="CMR17-31" d="M 1702 4083 
C 1702 4217 1696 4224 1606 4224 
C 1357 3927 979 3833 621 3820 
C 602 3820 570 3820 563 3808 
C 557 3795 557 3782 557 3648 
C 755 3648 1088 3686 1344 3839 
L 1344 467 
C 1344 243 1331 166 781 166 
L 589 166 
L 589 0 
C 896 6 1216 12 1523 12 
C 1830 12 2150 6 2458 0 
L 2458 166 
L 2266 166 
C 1715 166 1702 236 1702 467 
L 1702 4083 
z
" transform="scale(0.015625)"/>
       </defs>
       <use xlink:href="#CMR17-31" transform="scale(0.996264)"/>
       <use xlink:href="#CMR17-30" transform="translate(45.690477 0)scale(0.996264)"/>
       <use xlink:href="#CMR17-30" transform="translate(91.380954 0)scale(0.996264)"/>
       <use xlink:href="#CMR17-30" transform="translate(137.071431 0)scale(0.996264)"/>
      </g>
     </g>
    </g>
    <g id="ytick_3">
     <g id="line2d_7">
      <g>
       <use xlink:href="#mcc59d26b9e" x="43.717182" y="156.602582" style="stroke: #000000; stroke-width: 0.8"/>
      </g>
     </g>
     <g id="text_8">
      <!-- $\mathdefault{2000}$ -->
      <g transform="translate(16.805221 160.861574)scale(0.12 -0.12)">
       <use xlink:href="#CMR17-32" transform="scale(0.996264)"/>
       <use xlink:href="#CMR17-30" transform="translate(45.690477 0)scale(0.996264)"/>
       <use xlink:href="#CMR17-30" transform="translate(91.380954 0)scale(0.996264)"/>
       <use xlink:href="#CMR17-30" transform="translate(137.071431 0)scale(0.996264)"/>
      </g>
     </g>
    </g>
    <g id="ytick_4">
     <g id="line2d_8">
      <g>
       <use xlink:href="#mcc59d26b9e" x="43.717182" y="122.327211" style="stroke: #000000; stroke-width: 0.8"/>
      </g>
     </g>
     <g id="text_9">
      <!-- $\mathdefault{3000}$ -->
      <g transform="translate(16.805221 126.586203)scale(0.12 -0.12)">
       <defs>
        <path id="CMR17-33" d="M 1414 2176 
C 1984 2176 2234 1673 2234 1094 
C 2234 322 1824 25 1453 25 
C 1114 25 563 193 390 691 
C 422 678 454 678 486 678 
C 640 678 755 780 755 947 
C 755 1132 614 1216 486 1216 
C 378 1216 211 1164 211 927 
C 211 335 787 -128 1466 -128 
C 2176 -128 2720 432 2720 1087 
C 2720 1718 2208 2176 1600 2246 
C 2086 2347 2554 2776 2554 3353 
C 2554 3856 2048 4224 1472 4224 
C 890 4224 378 3862 378 3347 
C 378 3123 544 3084 627 3084 
C 762 3084 877 3167 877 3334 
C 877 3500 762 3584 627 3584 
C 602 3584 570 3584 544 3571 
C 730 3999 1235 4076 1459 4076 
C 1683 4076 2106 3966 2106 3347 
C 2106 3167 2080 2851 1862 2574 
C 1670 2329 1453 2316 1242 2297 
C 1210 2297 1062 2284 1037 2284 
C 992 2278 966 2272 966 2227 
C 966 2182 973 2176 1101 2176 
L 1414 2176 
z
" transform="scale(0.015625)"/>
       </defs>
       <use xlink:href="#CMR17-33" transform="scale(0.996264)"/>
       <use xlink:href="#CMR17-30" transform="translate(45.690477 0)scale(0.996264)"/>
       <use xlink:href="#CMR17-30" transform="translate(91.380954 0)scale(0.996264)"/>
       <use xlink:href="#CMR17-30" transform="translate(137.071431 0)scale(0.996264)"/>
      </g>
     </g>
    </g>
    <g id="ytick_5">
     <g id="line2d_9">
      <g>
       <use xlink:href="#mcc59d26b9e" x="43.717182" y="88.05184" style="stroke: #000000; stroke-width: 0.8"/>
      </g>
     </g>
     <g id="text_10">
      <!-- $\mathdefault{4000}$ -->
      <g transform="translate(16.805221 92.310832)scale(0.12 -0.12)">
       <defs>
        <path id="CMR17-34" d="M 2150 4147 
C 2150 4281 2144 4288 2029 4288 
L 128 1254 
L 128 1088 
L 1779 1088 
L 1779 460 
C 1779 230 1766 166 1318 166 
L 1197 166 
L 1197 0 
C 1402 12 1747 12 1965 12 
C 2182 12 2528 12 2733 0 
L 2733 166 
L 2611 166 
C 2163 166 2150 230 2150 460 
L 2150 1088 
L 2803 1088 
L 2803 1254 
L 2150 1254 
L 2150 4147 
z
M 1798 3723 
L 1798 1254 
L 256 1254 
L 1798 3723 
z
" transform="scale(0.015625)"/>
       </defs>
       <use xlink:href="#CMR17-34" transform="scale(0.996264)"/>
       <use xlink:href="#CMR17-30" transform="translate(45.690477 0)scale(0.996264)"/>
       <use xlink:href="#CMR17-30" transform="translate(91.380954 0)scale(0.996264)"/>
       <use xlink:href="#CMR17-30" transform="translate(137.071431 0)scale(0.996264)"/>
      </g>
     </g>
    </g>
    <g id="ytick_6">
     <g id="line2d_10">
      <g>
       <use xlink:href="#mcc59d26b9e" x="43.717182" y="53.776469" style="stroke: #000000; stroke-width: 0.8"/>
      </g>
     </g>
     <g id="text_11">
      <!-- $\mathdefault{5000}$ -->
      <g transform="translate(16.805221 58.035461)scale(0.12 -0.12)">
       <use xlink:href="#CMR17-35" transform="scale(0.996264)"/>
       <use xlink:href="#CMR17-30" transform="translate(45.690477 0)scale(0.996264)"/>
       <use xlink:href="#CMR17-30" transform="translate(91.380954 0)scale(0.996264)"/>
       <use xlink:href="#CMR17-30" transform="translate(137.071431 0)scale(0.996264)"/>
      </g>
     </g>
    </g>
    <g id="ytick_7">
     <g id="line2d_11">
      <g>
       <use xlink:href="#mcc59d26b9e" x="43.717182" y="19.501097" style="stroke: #000000; stroke-width: 0.8"/>
      </g>
     </g>
     <g id="text_12">
      <!-- $\mathdefault{6000}$ -->
      <g transform="translate(16.805221 23.76009)scale(0.12 -0.12)">
       <defs>
        <path id="CMR17-36" d="M 678 2198 
C 678 3712 1395 4076 1811 4076 
C 1946 4076 2272 4049 2400 3782 
C 2298 3782 2106 3782 2106 3558 
C 2106 3385 2246 3328 2336 3328 
C 2394 3328 2566 3353 2566 3571 
C 2566 3987 2246 4224 1805 4224 
C 1043 4224 243 3411 243 2011 
C 243 257 966 -128 1478 -128 
C 2099 -128 2688 431 2688 1295 
C 2688 2101 2170 2688 1517 2688 
C 1126 2688 838 2430 678 1979 
L 678 2198 
z
M 1478 25 
C 691 25 691 1212 691 1450 
C 691 1914 909 2585 1504 2585 
C 1613 2585 1926 2585 2138 2140 
C 2253 1889 2253 1624 2253 1302 
C 2253 954 2253 696 2118 438 
C 1978 173 1773 25 1478 25 
z
" transform="scale(0.015625)"/>
       </defs>
       <use xlink:href="#CMR17-36" transform="scale(0.996264)"/>
       <use xlink:href="#CMR17-30" transform="translate(45.690477 0)scale(0.996264)"/>
       <use xlink:href="#CMR17-30" transform="translate(91.380954 0)scale(0.996264)"/>
       <use xlink:href="#CMR17-30" transform="translate(137.071431 0)scale(0.996264)"/>
      </g>
     </g>
    </g>
    <g id="text_13">
     <!-- $FFT(M^Z_A);log-scale$ -->
     <g transform="translate(9.784673 182.607749)rotate(-90)scale(0.12 -0.12)">
      <defs>
       <path id="CMMI12-46" d="M 1901 2054 
L 2515 2054 
C 3002 2054 3040 1947 3040 1764 
C 3040 1683 3027 1595 2995 1456 
C 2982 1431 2976 1399 2976 1387 
C 2976 1343 3002 1318 3046 1318 
C 3098 1318 3104 1343 3130 1444 
L 3501 2929 
C 3501 2955 3482 2993 3437 2993 
C 3379 2993 3373 2968 3347 2858 
C 3213 2375 3085 2240 2528 2240 
L 1946 2240 
L 2362 3908 
C 2419 4134 2432 4153 2694 4153 
L 3552 4153 
C 4352 4153 4467 3915 4467 3457 
C 4467 3419 4467 3277 4448 3109 
C 4442 3084 4429 3000 4429 2974 
C 4429 2922 4461 2903 4499 2903 
C 4544 2903 4570 2929 4582 3045 
L 4717 4172 
C 4717 4191 4730 4255 4730 4268 
C 4730 4339 4672 4339 4557 4339 
L 1523 4339 
C 1402 4339 1338 4339 1338 4223 
C 1338 4153 1382 4153 1491 4153 
C 1888 4153 1888 4108 1888 4037 
C 1888 4005 1882 3979 1862 3908 
L 998 468 
C 941 248 928 185 480 185 
C 358 185 294 185 294 70 
C 294 0 352 0 390 0 
C 512 0 640 12 762 12 
L 1594 12 
C 1734 12 1888 0 2029 0 
C 2086 0 2163 0 2163 115 
C 2163 185 2125 185 1984 185 
C 1478 185 1466 229 1466 324 
C 1466 355 1478 405 1491 449 
L 1901 2054 
z
" transform="scale(0.015625)"/>
       <path id="CMMI12-54" d="M 2669 3886 
C 2707 4038 2720 4096 2816 4121 
C 2867 4134 3078 4134 3213 4134 
C 3853 4134 4154 4109 4154 3612 
C 4154 3516 4128 3274 4090 3038 
L 4083 2962 
C 4083 2937 4109 2898 4147 2898 
C 4211 2898 4211 2930 4230 3032 
L 4416 4159 
C 4429 4217 4429 4230 4429 4249 
C 4429 4319 4390 4319 4262 4319 
L 762 4319 
C 614 4319 608 4313 570 4198 
L 179 3051 
C 173 3038 154 2968 154 2962 
C 154 2930 179 2898 218 2898 
C 269 2898 282 2924 307 3007 
C 576 3777 710 4134 1562 4134 
L 1990 4134 
C 2144 4134 2208 4134 2208 4064 
C 2208 4045 2208 4032 2176 3917 
L 1318 497 
C 1254 249 1242 185 563 185 
C 403 185 358 185 358 64 
C 358 0 429 0 461 0 
C 621 0 787 12 947 12 
L 1946 12 
C 2106 12 2278 0 2438 0 
C 2509 0 2573 0 2573 121 
C 2573 185 2528 185 2362 185 
C 1786 185 1786 242 1786 338 
C 1786 344 1786 389 1811 491 
L 2669 3886 
z
" transform="scale(0.015625)"/>
       <path id="CMR17-28" d="M 1958 -1562 
C 1958 -1556 1958 -1543 1939 -1524 
C 1645 -1223 858 -403 858 1596 
C 858 3595 1632 4408 1946 4729 
C 1946 4735 1958 4748 1958 4767 
C 1958 4787 1939 4800 1914 4800 
C 1843 4800 1299 4325 986 3620 
C 666 2909 576 2218 576 1603 
C 576 1141 621 360 1005 -467 
C 1312 -1133 1837 -1600 1914 -1600 
C 1946 -1600 1958 -1588 1958 -1562 
z
" transform="scale(0.015625)"/>
       <path id="CMMI12-4d" d="M 5811 3886 
C 5869 4102 5882 4166 6336 4166 
C 6458 4166 6515 4166 6515 4287 
C 6515 4352 6470 4352 6349 4352 
L 5581 4352 
C 5421 4352 5414 4345 5344 4243 
L 3008 567 
L 2528 4211 
C 2509 4352 2502 4352 2336 4352 
L 1542 4352 
C 1421 4352 1363 4352 1363 4230 
C 1363 4166 1421 4166 1517 4166 
C 1907 4166 1907 4115 1907 4045 
C 1907 4032 1907 3994 1882 3898 
L 1062 650 
C 986 344 838 204 410 185 
C 390 185 314 179 314 70 
C 314 0 371 0 397 0 
C 525 0 851 12 979 12 
L 1286 12 
C 1376 12 1485 0 1574 0 
C 1619 0 1690 0 1690 121 
C 1690 179 1626 185 1600 185 
C 1389 191 1184 230 1184 459 
C 1184 523 1184 529 1210 618 
L 2093 4128 
L 2099 4128 
L 2630 172 
C 2650 19 2656 0 2714 0 
C 2784 0 2816 51 2848 108 
L 5421 4159 
L 5427 4159 
L 4499 472 
C 4442 249 4429 185 3981 185 
C 3859 185 3795 185 3795 70 
C 3795 0 3853 0 3891 0 
C 4000 0 4128 12 4237 12 
L 4992 12 
C 5101 12 5235 0 5344 0 
C 5395 0 5466 0 5466 121 
C 5466 185 5408 185 5312 185 
C 4922 185 4922 236 4922 300 
C 4922 306 4922 351 4934 402 
L 5811 3886 
z
" transform="scale(0.015625)"/>
       <path id="CMMI12-5a" d="M 4480 4153 
C 4518 4198 4550 4236 4550 4300 
C 4550 4345 4544 4352 4397 4352 
L 1754 4352 
C 1606 4352 1600 4345 1562 4230 
L 1210 3083 
C 1190 3019 1190 3007 1190 2994 
C 1190 2968 1210 2930 1254 2930 
C 1306 2930 1318 2956 1344 3039 
C 1581 3726 1894 4166 2906 4166 
L 3955 4166 
L 448 217 
C 390 147 365 121 365 51 
C 365 0 397 0 518 0 
L 3251 0 
C 3398 0 3405 6 3443 121 
L 3891 1529 
C 3898 1548 3910 1593 3910 1618 
C 3910 1650 3885 1682 3846 1682 
C 3795 1682 3789 1676 3738 1516 
C 3469 695 3187 198 2074 198 
L 966 198 
L 4480 4153 
z
" transform="scale(0.015625)"/>
       <path id="CMMI12-41" d="M 1088 720 
C 864 335 646 205 339 185 
C 269 179 218 179 218 64 
C 218 25 250 0 294 0 
C 410 0 698 12 813 12 
C 998 12 1203 0 1382 0 
C 1421 0 1498 0 1498 121 
C 1498 179 1446 185 1408 185 
C 1261 198 1139 250 1139 407 
C 1139 498 1178 570 1261 714 
L 1747 1536 
L 3379 1536 
C 3386 1477 3386 1425 3392 1366 
C 3411 1196 3488 518 3488 394 
C 3488 198 3162 185 3059 185 
C 2989 185 2918 185 2918 70 
C 2918 0 2976 0 3014 0 
C 3123 0 3251 12 3360 12 
L 3725 12 
C 4115 12 4397 0 4403 0 
C 4448 0 4518 0 4518 121 
C 4518 185 4461 185 4365 185 
C 4013 185 4006 244 3987 440 
L 3597 4403 
C 3584 4531 3558 4544 3488 4544 
C 3424 4544 3386 4531 3328 4435 
L 1088 720 
z
M 1856 1721 
L 3142 3831 
L 3360 1721 
L 1856 1721 
z
" transform="scale(0.015625)"/>
       <path id="CMR17-29" d="M 1683 1596 
C 1683 2057 1638 2839 1254 3665 
C 947 4332 422 4800 346 4800 
C 326 4800 301 4793 301 4761 
C 301 4748 307 4742 314 4729 
C 621 4408 1402 3595 1402 1603 
C 1402 -396 627 -1210 314 -1530 
C 307 -1543 301 -1549 301 -1562 
C 301 -1594 326 -1600 346 -1600 
C 416 -1600 960 -1127 1274 -422 
C 1594 289 1683 981 1683 1596 
z
" transform="scale(0.015625)"/>
       <path id="CMR17-3b" d="M 1062 2489 
C 1062 2649 934 2752 800 2752 
C 672 2752 538 2649 538 2489 
C 538 2329 666 2227 800 2227 
C 928 2227 1062 2329 1062 2489 
z
M 979 -69 
C 979 -469 851 -795 634 -1095 
C 595 -1140 595 -1152 595 -1159 
C 595 -1191 621 -1216 646 -1216 
C 678 -1216 1082 -782 1082 -57 
C 1082 192 1062 524 800 524 
C 659 524 538 428 538 262 
C 538 96 659 0 800 0 
C 864 0 934 19 979 64 
L 979 -69 
z
" transform="scale(0.015625)"/>
       <path id="CMMI12-6c" d="M 1626 4255 
C 1632 4281 1645 4319 1645 4351 
C 1645 4416 1581 4416 1568 4416 
C 1562 4416 1331 4396 1216 4383 
C 1107 4377 1011 4364 896 4358 
C 742 4345 698 4339 698 4223 
C 698 4159 762 4159 826 4159 
C 1152 4159 1152 4102 1152 4039 
C 1152 4013 1152 4001 1120 3886 
L 326 731 
C 307 661 294 610 294 509 
C 294 191 531 -64 858 -64 
C 1069 -64 1210 76 1312 273 
C 1421 483 1510 884 1510 909 
C 1510 941 1485 967 1446 967 
C 1389 967 1382 935 1357 839 
C 1242 401 1126 64 870 64 
C 678 64 678 267 678 356 
C 678 382 678 515 723 693 
L 1626 4255 
z
" transform="scale(0.015625)"/>
       <path id="CMMI12-6f" d="M 2918 1755 
C 2918 2362 2522 2816 1939 2816 
C 1094 2816 262 1896 262 996 
C 262 389 659 -64 1242 -64 
C 2093 -64 2918 855 2918 1755 
z
M 1248 64 
C 928 64 691 319 691 766 
C 691 1060 845 1711 1024 2030 
C 1312 2522 1670 2687 1933 2687 
C 2246 2687 2490 2432 2490 1985 
C 2490 1730 2355 1047 2112 657 
C 1850 230 1498 64 1248 64 
z
" transform="scale(0.015625)"/>
       <path id="CMMI12-67" d="M 2163 811 
C 2138 708 2125 683 2042 587 
C 1779 249 1510 128 1312 128 
C 1101 128 902 293 902 734 
C 902 1072 1094 1787 1235 2075 
C 1421 2432 1709 2687 1978 2687 
C 2400 2687 2483 2164 2483 2126 
L 2464 2036 
L 2163 811 
z
M 2560 2394 
C 2477 2579 2298 2816 1978 2816 
C 1280 2816 486 1941 486 989 
C 486 325 890 0 1299 0 
C 1638 0 1939 268 2054 396 
L 1914 -176 
C 1824 -520 1786 -677 1555 -896 
C 1293 -1152 1050 -1152 909 -1152 
C 717 -1152 557 -1140 397 -1090 
C 602 -1034 653 -858 653 -789 
C 653 -689 576 -589 435 -589 
C 282 -589 115 -714 115 -921 
C 115 -1178 378 -1280 922 -1280 
C 1747 -1280 2176 -758 2259 -420 
L 2970 2426 
C 2989 2502 2989 2515 2989 2528 
C 2989 2617 2918 2688 2822 2688 
C 2669 2688 2579 2560 2560 2388 
L 2560 2394 
z
" transform="scale(0.015625)"/>
       <path id="CMSY10-0" d="M 4218 1472 
C 4326 1472 4442 1472 4442 1600 
C 4442 1728 4326 1728 4218 1728 
L 755 1728 
C 646 1728 531 1728 531 1600 
C 531 1472 646 1472 755 1472 
L 4218 1472 
z
" transform="scale(0.015625)"/>
       <path id="CMMI12-73" d="M 1459 1290 
C 1568 1271 1741 1233 1779 1227 
C 1862 1201 2150 1099 2150 793 
C 2150 595 1971 64 1229 64 
C 1094 64 614 83 486 447 
C 742 414 870 614 870 755 
C 870 889 781 960 653 960 
C 512 960 326 851 326 563 
C 326 176 710 -64 1222 -64 
C 2195 -64 2483 665 2483 998 
C 2483 1093 2483 1271 2278 1475 
C 2118 1627 1965 1659 1619 1729 
C 1446 1767 1171 1824 1171 2111 
C 1171 2239 1286 2687 1894 2687 
C 2163 2687 2426 2589 2490 2368 
C 2208 2368 2195 2124 2195 2118 
C 2195 1983 2317 1945 2374 1945 
C 2464 1945 2643 2015 2643 2284 
C 2643 2546 2400 2816 1901 2816 
C 1062 2816 838 2169 838 1907 
C 838 1424 1312 1322 1459 1290 
z
" transform="scale(0.015625)"/>
       <path id="CMMI12-63" d="M 2502 2432 
C 2381 2432 2323 2432 2234 2355 
C 2195 2323 2125 2227 2125 2124 
C 2125 1996 2221 1919 2342 1919 
C 2496 1919 2669 2047 2669 2303 
C 2669 2591 2374 2816 1933 2816 
C 1094 2816 256 1932 256 1011 
C 256 446 602 -64 1254 -64 
C 2125 -64 2675 622 2675 706 
C 2675 745 2637 777 2611 777 
C 2592 777 2586 771 2528 712 
C 2118 161 1510 64 1267 64 
C 826 64 685 453 685 777 
C 685 1004 794 1634 1024 2073 
C 1190 2374 1536 2687 1939 2687 
C 2022 2687 2374 2676 2502 2432 
z
" transform="scale(0.015625)"/>
       <path id="CMMI12-61" d="M 1926 759 
C 1894 651 1894 638 1805 517 
C 1664 338 1382 64 1082 64 
C 819 64 672 300 672 676 
C 672 1028 870 1743 992 2011 
C 1210 2458 1510 2687 1760 2687 
C 2182 2687 2266 2164 2266 2113 
C 2266 2107 2246 2024 2240 2011 
L 1926 759 
z
M 2336 2394 
C 2266 2560 2093 2816 1760 2816 
C 1037 2816 256 1883 256 938 
C 256 306 627 -64 1062 -64 
C 1414 -64 1715 210 1894 421 
C 1958 44 2259 -64 2451 -64 
C 2643 -64 2797 51 2912 280 
C 3014 496 3104 885 3104 910 
C 3104 942 3078 968 3040 968 
C 2982 968 2976 936 2950 840 
C 2854 465 2733 64 2470 64 
C 2285 64 2272 229 2272 356 
C 2272 503 2291 573 2349 821 
C 2394 980 2426 1120 2477 1305 
C 2714 2260 2771 2489 2771 2528 
C 2771 2617 2701 2688 2605 2688 
C 2400 2688 2349 2464 2336 2388 
L 2336 2394 
z
" transform="scale(0.015625)"/>
       <path id="CMMI12-65" d="M 1146 1472 
C 1318 1472 1754 1484 2061 1600 
C 2547 1786 2592 2160 2592 2275 
C 2592 2559 2349 2816 1926 2816 
C 1254 2816 288 2205 288 1066 
C 288 400 672 -64 1254 -64 
C 2125 -64 2675 609 2675 691 
C 2675 729 2637 761 2611 761 
C 2592 761 2586 755 2528 698 
C 2118 159 1510 64 1267 64 
C 902 64 710 349 710 818 
C 710 907 710 1066 806 1472 
L 1146 1472 
z
M 838 1600 
C 1114 2591 1722 2687 1926 2687 
C 2208 2687 2400 2520 2400 2275 
C 2400 1600 1376 1600 1107 1600 
L 838 1600 
z
" transform="scale(0.015625)"/>
      </defs>
      <use xlink:href="#CMMI12-46" transform="scale(0.996264)"/>
      <use xlink:href="#CMMI12-46" transform="translate(76.696793 0)scale(0.996264)"/>
      <use xlink:href="#CMMI12-54" transform="translate(153.393585 0)scale(0.996264)"/>
      <use xlink:href="#CMR17-28" transform="translate(224.117217 0)scale(0.996264)"/>
      <use xlink:href="#CMMI12-4d" transform="translate(259.397985 0)scale(0.996264)"/>
      <use xlink:href="#CMMI12-5a" transform="translate(364.178064 36.153639)scale(0.697382)"/>
      <use xlink:href="#CMMI12-41" transform="translate(353.77141 -27.44057)scale(0.697382)"/>
      <use xlink:href="#CMR17-29" transform="translate(416.42247 0)scale(0.996264)"/>
      <use xlink:href="#CMR17-3b" transform="translate(451.703238 0)scale(0.996264)"/>
      <use xlink:href="#CMMI12-6c" transform="translate(493.178702 0)scale(0.996264)"/>
      <use xlink:href="#CMMI12-6f" transform="translate(524.427106 0)scale(0.996264)"/>
      <use xlink:href="#CMMI12-67" transform="translate(571.322415 0)scale(0.996264)"/>
      <use xlink:href="#CMSY10-0" transform="translate(643.747112 0)scale(0.996264)"/>
      <use xlink:href="#CMMI12-73" transform="translate(743.373786 0)scale(0.996264)"/>
      <use xlink:href="#CMMI12-63" transform="translate(789.323834 0)scale(0.996264)"/>
      <use xlink:href="#CMMI12-61" transform="translate(831.307067 0)scale(0.996264)"/>
      <use xlink:href="#CMMI12-6c" transform="translate(882.514925 0)scale(0.996264)"/>
      <use xlink:href="#CMMI12-65" transform="translate(913.763329 0)scale(0.996264)"/>
     </g>
    </g>
   </g>
   <g id="line2d_12">
    <path d="M 45.927084 224.952939 
L 47.032036 224.164784 
L 48.136987 224.835114 
L 50.346889 225.145873 
L 65.816203 225.083649 
L 70.236008 224.927408 
L 71.340959 224.806549 
L 72.44591 223.993106 
L 73.550861 224.185299 
L 74.655812 224.79616 
L 76.865714 225.004512 
L 85.705322 225.093501 
L 117.748903 225.090623 
L 125.48356 224.847865 
L 126.588511 225.073936 
L 138.742972 225.13205 
L 147.582581 225.081802 
L 148.687532 224.913804 
L 149.792483 224.889508 
L 150.897434 224.673735 
L 152.002385 224.913094 
L 153.107336 225.01224 
L 154.212287 23.55198 
L 155.317238 225.047678 
L 156.422189 225.079776 
L 157.52714 224.932355 
L 158.632091 225.11433 
L 163.051896 225.145808 
L 180.731112 225.055819 
L 181.836063 225.050169 
L 182.941014 224.854982 
L 185.150916 225.111088 
L 187.360819 224.926709 
L 188.46577 225.123371 
L 190.675672 225.125749 
L 206.144986 225.144947 
L 232.663812 225.007263 
L 233.768763 224.897719 
L 234.873714 224.433429 
L 235.978665 224.272926 
L 237.083616 224.891433 
L 240.398469 225.066105 
L 250.343028 225.133658 
L 258.077686 225.128567 
L 260.287588 224.865794 
L 261.392539 224.4921 
L 261.392539 224.4921 
" clip-path="url(#p328894e70b)" style="fill: none; stroke: #1f77b4; stroke-width: 2; stroke-linecap: square"/>
   </g>
   <g id="line2d_13">
    <path d="M 45.927084 218.204639 
L 47.032036 218.276548 
L 48.136987 224.469443 
L 49.241938 224.257949 
L 50.346889 224.735116 
L 53.661742 224.915348 
L 62.50135 224.987288 
L 94.544931 224.948565 
L 122.168707 224.774855 
L 125.48356 224.683664 
L 126.588511 224.797877 
L 143.162777 223.993886 
L 145.372679 223.669865 
L 147.582581 223.074275 
L 148.687532 222.354685 
L 149.792483 221.879978 
L 150.897434 217.644583 
L 152.002385 208.684116 
L 153.107336 219.534787 
L 154.212287 86.17834 
L 155.317238 218.310974 
L 156.422189 215.173738 
L 157.52714 220.914418 
L 158.632091 222.313577 
L 159.737042 222.919497 
L 160.841993 223.308082 
L 163.051896 223.771632 
L 166.366749 224.145259 
L 171.891504 224.453946 
L 181.836063 224.814937 
L 182.941014 224.662453 
L 210.564791 224.924938 
L 258.077686 225.071371 
L 259.182637 224.666458 
L 260.287588 224.931325 
L 261.392539 220.522269 
L 261.392539 220.522269 
" clip-path="url(#p328894e70b)" style="fill: none; stroke: #ff7f0e; stroke-width: 2; stroke-linecap: square"/>
   </g>
   <g id="line2d_14">
    <path d="M 45.927084 220.710375 
L 47.032036 218.56191 
L 48.136987 224.372639 
L 49.241938 224.143316 
L 50.346889 224.57456 
L 52.556791 224.725877 
L 59.186497 224.806616 
L 83.49542 224.7651 
L 111.119196 224.540991 
L 124.378609 224.263036 
L 134.323168 223.808526 
L 138.742972 223.405654 
L 142.057826 222.899336 
L 144.267728 222.355346 
L 145.372679 221.967982 
L 146.47763 221.453831 
L 147.582581 220.724797 
L 148.687532 219.443361 
L 149.792483 217.818191 
L 150.897434 213.063694 
L 152.002385 202.359446 
L 153.107336 217.298045 
L 154.212287 120.064887 
L 155.317238 213.280419 
L 156.422189 208.176465 
L 157.52714 216.079295 
L 158.632091 218.932106 
L 159.737042 220.302391 
L 160.841993 221.157123 
L 161.946944 221.740963 
L 164.156847 222.502363 
L 166.366749 222.981753 
L 169.681602 223.4404 
L 174.101406 223.814108 
L 181.836063 224.188611 
L 192.885574 224.45066 
L 211.669742 224.675631 
L 258.077686 225.089275 
L 259.182637 224.777977 
L 260.287588 225.0399 
L 261.392539 220.892842 
L 261.392539 220.892842 
" clip-path="url(#p328894e70b)" style="fill: none; stroke: #2ca02c; stroke-width: 2; stroke-linecap: square"/>
   </g>
   <g id="line2d_15">
    <path d="M 45.927084 221.490312 
L 47.032036 219.059772 
L 48.136987 224.230398 
L 49.241938 224.203108 
L 50.346889 224.438106 
L 53.661742 224.591459 
L 63.606301 224.630675 
L 93.43998 224.469519 
L 112.224147 224.18842 
L 124.378609 223.800272 
L 133.218217 223.223325 
L 137.638021 222.692157 
L 140.952875 222.05024 
L 143.162777 221.395483 
L 144.267728 220.949608 
L 145.372679 220.379753 
L 146.47763 219.625789 
L 147.582581 218.573367 
L 148.687532 216.8544 
L 149.792483 214.399963 
L 150.897434 209.62044 
L 152.002385 198.262662 
L 153.107336 206.643152 
L 154.212287 157.072558 
L 155.317238 202.062608 
L 156.422189 202.862596 
L 157.52714 211.975976 
L 158.632091 215.773709 
L 159.737042 217.82596 
L 160.841993 219.11121 
L 161.946944 219.994551 
L 163.051896 220.646735 
L 165.261798 221.550812 
L 167.4717 222.147859 
L 170.786553 222.744582 
L 175.206357 223.24676 
L 180.731112 223.63124 
L 196.200427 224.187111 
L 213.879644 224.471227 
L 258.077686 224.917557 
L 259.182637 224.710407 
L 260.287588 225.128714 
L 261.392539 221.429534 
L 261.392539 221.429534 
" clip-path="url(#p328894e70b)" style="fill: none; stroke: #d62728; stroke-width: 2; stroke-linecap: square"/>
   </g>
   <g id="patch_3">
    <path d="M 43.717182 235.23198 
L 43.717182 13.47198 
" style="fill: none; stroke: #000000; stroke-width: 0.8; stroke-linejoin: miter; stroke-linecap: square"/>
   </g>
   <g id="patch_4">
    <path d="M 264.707281 235.23198 
L 264.707281 13.47198 
" style="fill: none; stroke: #000000; stroke-width: 0.8; stroke-linejoin: miter; stroke-linecap: square"/>
   </g>
   <g id="patch_5">
    <path d="M 43.717182 235.23198 
L 264.707281 235.23198 
" style="fill: none; stroke: #000000; stroke-width: 0.8; stroke-linejoin: miter; stroke-linecap: square"/>
   </g>
   <g id="patch_6">
    <path d="M 43.717182 13.47198 
L 264.707281 13.47198 
" style="fill: none; stroke: #000000; stroke-width: 0.8; stroke-linejoin: miter; stroke-linecap: square"/>
   </g>
   <g id="text_14">
    <!-- $J_0 = 0.072/T$ -->
    <g transform="translate(125.825632 7.47198)scale(0.1 -0.1)">
     <defs>
      <path id="CMMI12-4a" d="M 3418 3911 
C 3469 4102 3482 4166 3795 4166 
C 3898 4166 3962 4166 3962 4281 
C 3962 4352 3904 4352 3878 4352 
C 3770 4352 3648 4339 3533 4339 
L 3181 4339 
C 2912 4339 2630 4352 2362 4352 
C 2304 4352 2227 4352 2227 4236 
C 2227 4172 2278 4172 2278 4166 
L 2438 4166 
C 2950 4166 2950 4115 2950 4019 
C 2950 4013 2950 3968 2925 3866 
L 2189 953 
C 2022 304 1594 0 1286 0 
C 1069 0 762 99 685 428 
C 710 422 742 415 768 415 
C 979 415 1146 601 1146 787 
C 1146 889 1082 1024 890 1024 
C 774 1024 506 959 506 543 
C 506 149 838 -128 1299 -128 
C 1882 -128 2509 304 2662 908 
L 3418 3911 
z
" transform="scale(0.015625)"/>
      <path id="CMR17-3d" d="M 4115 2048 
C 4211 2048 4307 2048 4307 2156 
C 4307 2272 4198 2272 4090 2272 
L 512 2272 
C 403 2272 294 2272 294 2156 
C 294 2048 390 2048 486 2048 
L 4115 2048 
z
M 4090 927 
C 4198 927 4307 927 4307 1043 
C 4307 1152 4211 1152 4115 1152 
L 486 1152 
C 390 1152 294 1152 294 1043 
C 294 927 403 927 512 927 
L 4090 927 
z
" transform="scale(0.015625)"/>
      <path id="CMR17-37" d="M 2886 3955 
L 2886 4096 
L 1382 4096 
C 634 4096 621 4166 595 4288 
L 480 4288 
L 294 3104 
L 410 3104 
C 429 3226 474 3552 550 3673 
C 589 3724 1062 3724 1171 3724 
L 2579 3724 
L 1869 2670 
C 1395 1961 1069 1003 1069 166 
C 1069 89 1069 -128 1299 -128 
C 1530 -128 1530 89 1530 172 
L 1530 466 
C 1530 1514 1709 2204 2003 2644 
L 2886 3955 
z
" transform="scale(0.015625)"/>
     </defs>
     <use xlink:href="#CMMI12-4a" transform="scale(0.996264)"/>
     <use xlink:href="#CMR17-30" transform="translate(53.917955 -14.943915)scale(0.697382)"/>
     <use xlink:href="#CMR17-3d" transform="translate(114.073278 0)scale(0.996264)"/>
     <use xlink:href="#CMR17-30" transform="translate(213.462075 0)scale(0.996264)"/>
     <use xlink:href="#CMMI12-3a" transform="translate(259.152552 0)scale(0.996264)"/>
     <use xlink:href="#CMR17-30" transform="translate(286.249729 0)scale(0.996264)"/>
     <use xlink:href="#CMR17-37" transform="translate(331.940207 0)scale(0.996264)"/>
     <use xlink:href="#CMR17-32" transform="translate(377.630684 0)scale(0.996264)"/>
     <use xlink:href="#CMMI12-3d" transform="translate(423.321161 0)scale(0.996264)"/>
     <use xlink:href="#CMMI12-54" transform="translate(472.09608 0)scale(0.996264)"/>
    </g>
   </g>
   <g id="legend_1">
    <g id="line2d_16">
     <path d="M 54.517182 28.589964 
L 66.517182 28.589964 
L 78.517182 28.589964 
" style="fill: none; stroke: #1f77b4; stroke-width: 2; stroke-linecap: square"/>
    </g>
    <g id="text_15">
     <!-- $\beta=0$ -->
     <g transform="translate(88.117182 32.789964)scale(0.12 -0.12)">
      <defs>
       <path id="CMMI12-c" d="M 3622 3739 
C 3622 4131 3296 4544 2714 4544 
C 1888 4544 1363 3510 1197 2830 
L 186 -1152 
C 173 -1204 211 -1216 243 -1216 
C 288 -1216 320 -1210 326 -1178 
L 774 592 
C 838 231 1190 -64 1568 -64 
C 2483 -64 3347 657 3347 1618 
C 3347 1863 3290 2108 3155 2314 
C 3078 2437 2982 2527 2880 2599 
C 3341 2823 3622 3222 3622 3739 
z
M 2509 2605 
C 2406 2571 2304 2560 2182 2560 
C 2093 2560 2010 2553 1894 2588 
C 1958 2627 2054 2639 2189 2639 
C 2304 2639 2419 2627 2509 2605 
z
M 3290 3798 
C 3290 3438 3117 2915 2701 2684 
C 2579 2723 2413 2752 2272 2752 
C 2138 2752 1754 2765 1754 2582 
C 1754 2411 2106 2430 2214 2430 
C 2381 2430 2528 2469 2682 2514 
C 2886 2347 2976 2127 2976 1805 
C 2976 1431 2874 1128 2752 850 
C 2541 373 2042 64 1600 64 
C 1133 64 890 438 890 876 
C 890 934 890 1018 915 1115 
L 1331 2784 
C 1542 3641 2080 4413 2701 4413 
C 3162 4413 3290 4086 3290 3798 
z
" transform="scale(0.015625)"/>
      </defs>
      <use xlink:href="#CMMI12-c" transform="scale(0.996264)"/>
      <use xlink:href="#CMR17-3d" transform="translate(88.268024 0)scale(0.996264)"/>
      <use xlink:href="#CMR17-30" transform="translate(187.656822 0)scale(0.996264)"/>
     </g>
    </g>
    <g id="line2d_17">
     <path d="M 54.517182 45.654323 
L 66.517182 45.654323 
L 78.517182 45.654323 
" style="fill: none; stroke: #ff7f0e; stroke-width: 2; stroke-linecap: square"/>
    </g>
    <g id="text_16">
     <!-- $\beta=1.5$ -->
     <g transform="translate(88.117182 49.854323)scale(0.12 -0.12)">
      <use xlink:href="#CMMI12-c" transform="scale(0.996264)"/>
      <use xlink:href="#CMR17-3d" transform="translate(88.268024 0)scale(0.996264)"/>
      <use xlink:href="#CMR17-31" transform="translate(187.656822 0)scale(0.996264)"/>
      <use xlink:href="#CMMI12-3a" transform="translate(233.347299 0)scale(0.996264)"/>
      <use xlink:href="#CMR17-35" transform="translate(260.444476 0)scale(0.996264)"/>
     </g>
    </g>
    <g id="line2d_18">
     <path d="M 54.517182 62.718682 
L 66.517182 62.718682 
L 78.517182 62.718682 
" style="fill: none; stroke: #2ca02c; stroke-width: 2; stroke-linecap: square"/>
    </g>
    <g id="text_17">
     <!-- $\beta=2.5$ -->
     <g transform="translate(88.117182 66.918682)scale(0.12 -0.12)">
      <use xlink:href="#CMMI12-c" transform="scale(0.996264)"/>
      <use xlink:href="#CMR17-3d" transform="translate(88.268024 0)scale(0.996264)"/>
      <use xlink:href="#CMR17-32" transform="translate(187.656822 0)scale(0.996264)"/>
      <use xlink:href="#CMMI12-3a" transform="translate(233.347299 0)scale(0.996264)"/>
      <use xlink:href="#CMR17-35" transform="translate(260.444476 0)scale(0.996264)"/>
     </g>
    </g>
    <g id="line2d_19">
     <path d="M 54.517182 79.783041 
L 66.517182 79.783041 
L 78.517182 79.783041 
" style="fill: none; stroke: #d62728; stroke-width: 2; stroke-linecap: square"/>
    </g>
    <g id="text_18">
     <!-- $\beta={\infty}$ -->
     <g transform="translate(88.117182 83.983041)scale(0.12 -0.12)">
      <defs>
       <path id="CMSY10-31" d="M 3251 1736 
C 2906 2170 2829 2266 2630 2426 
C 2272 2713 1914 2828 1587 2828 
C 838 2828 352 2126 352 1379 
C 352 645 826 -64 1562 -64 
C 2298 -64 2829 517 3142 1028 
C 3488 594 3565 498 3763 338 
C 4122 51 4480 -64 4806 -64 
C 5555 -64 6042 638 6042 1385 
C 6042 2119 5568 2828 4832 2828 
C 4096 2828 3565 2247 3251 1736 
z
M 3418 1519 
C 3680 1979 4154 2624 4877 2624 
C 5555 2624 5901 1960 5901 1385 
C 5901 760 5472 242 4909 242 
C 4538 242 4250 511 4115 645 
C 3955 817 3808 1015 3418 1519 
z
M 2976 1245 
C 2714 785 2240 140 1517 140 
C 838 140 493 804 493 1379 
C 493 2004 922 2521 1485 2521 
C 1856 2521 2144 2253 2278 2119 
C 2438 1947 2586 1749 2976 1245 
z
" transform="scale(0.015625)"/>
      </defs>
      <use xlink:href="#CMMI12-c" transform="scale(0.996264)"/>
      <use xlink:href="#CMR17-3d" transform="translate(88.268024 0)scale(0.996264)"/>
      <use xlink:href="#CMSY10-31" transform="translate(187.656822 0)scale(0.996264)"/>
     </g>
    </g>
   </g>
  </g>
  <g id="axes_2">
   <g id="patch_7">
    <path d="M 269.127083 235.23198 
L 490.117182 235.23198 
L 490.117182 13.47198 
L 269.127083 13.47198 
z
" style="fill: #ffffff"/>
   </g>
   <g id="matplotlib.axis_3">
    <g id="xtick_5">
     <g id="line2d_20">
      <g>
       <use xlink:href="#m52e6dee2ad" x="269.127083" y="235.23198" style="stroke: #000000; stroke-width: 0.8"/>
      </g>
     </g>
     <g id="text_19">
      <!-- $\mathdefault{0.0}$ -->
      <g transform="translate(261.648263 247.249964)scale(0.12 -0.12)">
       <use xlink:href="#CMR17-30" transform="scale(0.996264)"/>
       <use xlink:href="#CMMI12-3a" transform="translate(45.690477 0)scale(0.996264)"/>
       <use xlink:href="#CMR17-30" transform="translate(72.787654 0)scale(0.996264)"/>
      </g>
     </g>
    </g>
    <g id="xtick_6">
     <g id="line2d_21">
      <g>
       <use xlink:href="#m52e6dee2ad" x="313.325103" y="235.23198" style="stroke: #000000; stroke-width: 0.8"/>
      </g>
     </g>
     <g id="text_20">
      <!-- $\mathdefault{0.2}$ -->
      <g transform="translate(305.846282 247.249964)scale(0.12 -0.12)">
       <use xlink:href="#CMR17-30" transform="scale(0.996264)"/>
       <use xlink:href="#CMMI12-3a" transform="translate(45.690477 0)scale(0.996264)"/>
       <use xlink:href="#CMR17-32" transform="translate(72.787654 0)scale(0.996264)"/>
      </g>
     </g>
    </g>
    <g id="xtick_7">
     <g id="line2d_22">
      <g>
       <use xlink:href="#m52e6dee2ad" x="379.622133" y="235.23198" style="stroke: #000000; stroke-width: 0.8"/>
      </g>
     </g>
     <g id="text_21">
      <!-- $\mathdefault{0.5}$ -->
      <g transform="translate(372.143312 247.249964)scale(0.12 -0.12)">
       <use xlink:href="#CMR17-30" transform="scale(0.996264)"/>
       <use xlink:href="#CMMI12-3a" transform="translate(45.690477 0)scale(0.996264)"/>
       <use xlink:href="#CMR17-35" transform="translate(72.787654 0)scale(0.996264)"/>
      </g>
     </g>
    </g>
    <g id="xtick_8">
     <g id="line2d_23">
      <g>
       <use xlink:href="#m52e6dee2ad" x="445.919163" y="235.23198" style="stroke: #000000; stroke-width: 0.8"/>
      </g>
     </g>
     <g id="text_22">
      <!-- $\mathdefault{0.8}$ -->
      <g transform="translate(438.440342 247.249964)scale(0.12 -0.12)">
       <use xlink:href="#CMR17-30" transform="scale(0.996264)"/>
       <use xlink:href="#CMMI12-3a" transform="translate(45.690477 0)scale(0.996264)"/>
       <use xlink:href="#CMR17-38" transform="translate(72.787654 0)scale(0.996264)"/>
      </g>
     </g>
    </g>
    <g id="text_23">
     <!-- $\Omega/\omega$ -->
     <g transform="translate(368.823858 262.762715)scale(0.12 -0.12)">
      <use xlink:href="#CMR17-a" transform="scale(0.996264)"/>
      <use xlink:href="#CMMI12-3d" transform="translate(66.509881 0)scale(0.996264)"/>
      <use xlink:href="#CMMI12-21" transform="translate(115.284799 0)scale(0.996264)"/>
     </g>
    </g>
   </g>
   <g id="matplotlib.axis_4">
    <g id="ytick_8">
     <g id="line2d_24">
      <g>
       <use xlink:href="#mcc59d26b9e" x="269.127083" y="225.153324" style="stroke: #000000; stroke-width: 0.8"/>
      </g>
     </g>
    </g>
    <g id="ytick_9">
     <g id="line2d_25">
      <g>
       <use xlink:href="#mcc59d26b9e" x="269.127083" y="190.877953" style="stroke: #000000; stroke-width: 0.8"/>
      </g>
     </g>
    </g>
    <g id="ytick_10">
     <g id="line2d_26">
      <g>
       <use xlink:href="#mcc59d26b9e" x="269.127083" y="156.602582" style="stroke: #000000; stroke-width: 0.8"/>
      </g>
     </g>
    </g>
    <g id="ytick_11">
     <g id="line2d_27">
      <g>
       <use xlink:href="#mcc59d26b9e" x="269.127083" y="122.327211" style="stroke: #000000; stroke-width: 0.8"/>
      </g>
     </g>
    </g>
    <g id="ytick_12">
     <g id="line2d_28">
      <g>
       <use xlink:href="#mcc59d26b9e" x="269.127083" y="88.05184" style="stroke: #000000; stroke-width: 0.8"/>
      </g>
     </g>
    </g>
    <g id="ytick_13">
     <g id="line2d_29">
      <g>
       <use xlink:href="#mcc59d26b9e" x="269.127083" y="53.776469" style="stroke: #000000; stroke-width: 0.8"/>
      </g>
     </g>
    </g>
    <g id="ytick_14">
     <g id="line2d_30">
      <g>
       <use xlink:href="#mcc59d26b9e" x="269.127083" y="19.501097" style="stroke: #000000; stroke-width: 0.8"/>
      </g>
     </g>
    </g>
   </g>
   <g id="line2d_31">
    <path d="M 271.336985 224.608426 
L 272.441937 224.808841 
L 274.651839 224.818794 
L 275.75679 224.54097 
L 276.861741 220.11787 
L 277.966692 223.332235 
L 279.071643 224.751508 
L 280.176594 224.843355 
L 281.281545 224.43804 
L 282.386496 223.099507 
L 283.491447 224.613436 
L 284.596398 224.802182 
L 287.911251 224.921369 
L 293.436006 224.964732 
L 297.855811 224.930564 
L 298.960762 224.759054 
L 300.065713 224.757259 
L 301.170664 224.963599 
L 303.380566 224.732064 
L 304.485517 224.424316 
L 305.590468 222.894556 
L 306.695419 223.410811 
L 307.80037 224.555459 
L 308.905321 224.778073 
L 311.115223 224.926729 
L 312.220174 224.95636 
L 313.325125 224.857984 
L 322.164734 225.007056 
L 333.214244 224.97357 
L 334.319195 224.336484 
L 335.424146 224.370527 
L 336.529097 224.965484 
L 346.473657 224.792842 
L 347.578608 224.633888 
L 348.683559 224.936828 
L 349.78851 224.809276 
L 350.893461 225.047984 
L 353.103363 224.960411 
L 355.313265 224.750053 
L 356.418216 224.966517 
L 357.523167 224.900225 
L 358.628118 224.946157 
L 360.83802 224.845791 
L 365.257825 224.589275 
L 366.362776 224.020023 
L 367.467727 224.808731 
L 369.677629 224.820017 
L 370.78258 224.534692 
L 371.887531 223.8187 
L 372.992482 223.897119 
L 374.097433 223.483021 
L 375.202384 224.041531 
L 376.307335 223.392128 
L 377.412286 222.559091 
L 378.517237 219.013183 
L 379.622188 55.800886 
L 380.727139 219.690477 
L 381.83209 223.058403 
L 382.937041 224.130683 
L 384.041992 224.67685 
L 385.146943 223.087789 
L 386.251894 224.409422 
L 387.356845 221.266521 
L 388.461797 223.693497 
L 389.566748 224.397651 
L 390.671699 224.627393 
L 391.77665 224.414325 
L 392.881601 222.854475 
L 393.986552 224.199938 
L 395.091503 224.495834 
L 401.721209 224.861134 
L 402.82616 224.913328 
L 403.931111 224.643147 
L 408.350915 224.978278 
L 409.455866 224.648846 
L 410.560817 224.833525 
L 411.665769 224.404837 
L 413.875671 224.815558 
L 414.980622 224.578155 
L 416.085573 223.929327 
L 417.190524 224.870868 
L 418.295475 225.145284 
L 419.400426 224.990223 
L 422.715279 225.010048 
L 423.82023 223.810222 
L 424.925181 223.77143 
L 426.030132 224.990438 
L 429.344985 225.013314 
L 441.499447 225.064793 
L 444.8143 224.948641 
L 445.919251 224.635443 
L 447.024202 225.03499 
L 450.339055 224.99638 
L 451.444006 224.782096 
L 452.548957 223.941489 
L 453.653908 223.283349 
L 454.758859 224.422953 
L 455.86381 224.69479 
L 459.178664 224.92147 
L 460.283615 224.795749 
L 461.388566 225.018849 
L 464.703419 224.975139 
L 470.228174 224.959836 
L 479.067782 224.880084 
L 480.172733 224.641977 
L 482.382636 221.952949 
L 483.487587 224.848584 
L 484.592538 225.056185 
L 485.697489 224.857437 
L 486.80244 225.052333 
L 486.80244 225.052333 
" clip-path="url(#pb0aacf4b51)" style="fill: none; stroke: #1f77b4; stroke-width: 2; stroke-linecap: square"/>
   </g>
   <g id="line2d_32">
    <path d="M 271.336985 224.901015 
L 272.441937 224.68792 
L 273.546888 224.829939 
L 274.651839 224.636994 
L 275.75679 223.571275 
L 276.861741 224.669879 
L 277.966692 224.969561 
L 282.386496 225.002093 
L 300.065713 224.952895 
L 301.170664 224.556475 
L 303.380566 224.923764 
L 310.010272 224.954479 
L 342.053853 224.81529 
L 363.047922 224.398857 
L 367.467727 224.103304 
L 369.677629 223.851658 
L 370.78258 223.638134 
L 371.887531 223.217831 
L 372.992482 223.590148 
L 374.097433 223.138877 
L 375.202384 222.445062 
L 376.307335 221.388891 
L 377.412286 219.484034 
L 378.517237 209.400807 
L 379.622188 64.453195 
L 380.727139 209.171617 
L 381.83209 219.245724 
L 382.937041 221.322606 
L 384.041992 222.316154 
L 385.146943 222.843683 
L 386.251894 223.131532 
L 387.356845 223.644535 
L 392.881601 224.227821 
L 398.406356 224.507426 
L 410.560817 224.759031 
L 411.665769 224.620909 
L 412.77072 224.805248 
L 422.715279 224.856401 
L 448.129153 224.974491 
L 456.968761 224.989802 
L 458.073713 224.654351 
L 459.178664 224.934349 
L 463.598468 225.005933 
L 471.333125 225.003045 
L 481.277685 225.041351 
L 482.382636 224.883238 
L 483.487587 224.273948 
L 484.592538 224.781243 
L 485.697489 224.885254 
L 486.80244 224.826755 
L 486.80244 224.826755 
" clip-path="url(#pb0aacf4b51)" style="fill: none; stroke: #ff7f0e; stroke-width: 2; stroke-linecap: square"/>
   </g>
   <g id="line2d_33">
    <path d="M 271.336985 224.962918 
L 272.441937 224.667848 
L 273.546888 224.57555 
L 274.651839 222.650583 
L 275.75679 223.264083 
L 276.861741 224.919744 
L 277.966692 225.035241 
L 279.071643 224.955577 
L 282.386496 225.067909 
L 298.960762 225.129544 
L 300.065713 225.05097 
L 301.170664 224.77553 
L 302.275615 224.993191 
L 307.80037 225.054542 
L 343.158804 225.005123 
L 364.152873 224.84565 
L 368.572678 224.700186 
L 369.677629 224.600536 
L 370.78258 224.64533 
L 371.887531 224.477413 
L 372.992482 223.679378 
L 374.097433 224.195603 
L 375.202384 224.425732 
L 376.307335 223.941359 
L 377.412286 223.285351 
L 378.517237 222.292312 
L 379.622188 38.640842 
L 380.727139 222.388667 
L 381.83209 222.929043 
L 382.937041 223.834314 
L 384.041992 224.199412 
L 385.146943 224.304046 
L 386.251894 224.535717 
L 391.77665 224.824174 
L 400.616258 224.97698 
L 403.931111 224.952143 
L 408.350915 225.006008 
L 426.030132 225.068388 
L 456.968761 225.120005 
L 458.073713 224.973176 
L 479.067782 225.082291 
L 481.277685 225.026809 
L 482.382636 225.01534 
L 483.487587 223.84885 
L 484.592538 223.676967 
L 485.697489 224.820122 
L 486.80244 224.800997 
L 486.80244 224.800997 
" clip-path="url(#pb0aacf4b51)" style="fill: none; stroke: #2ca02c; stroke-width: 2; stroke-linecap: square"/>
   </g>
   <g id="line2d_34">
    <path d="M 271.336985 224.216675 
L 272.441937 224.242659 
L 273.546888 223.505774 
L 274.651839 223.213509 
L 275.75679 222.269133 
L 276.861741 223.871367 
L 277.966692 224.356727 
L 281.281545 224.682923 
L 286.8063 224.842607 
L 295.645909 224.926935 
L 344.263755 224.86361 
L 364.152873 224.548817 
L 368.572678 224.254334 
L 370.78258 223.953361 
L 371.887531 223.601624 
L 372.992482 222.419143 
L 374.097433 222.981691 
L 375.202384 224.640331 
L 376.307335 223.506665 
L 377.412286 221.553459 
L 378.517237 218.529292 
L 379.622188 46.555034 
L 380.727139 218.517421 
L 381.83209 221.552985 
L 382.937041 222.966311 
L 384.041992 223.601294 
L 385.146943 223.733197 
L 386.251894 224.065267 
L 389.566748 224.434298 
L 395.091503 224.696309 
L 400.616258 224.855369 
L 402.82616 224.84382 
L 408.350915 224.945831 
L 410.560817 224.893113 
L 413.875671 224.942636 
L 430.449936 225.032006 
L 472.438076 225.06175 
L 480.172733 224.827941 
L 481.277685 224.757157 
L 482.382636 224.447177 
L 483.487587 223.286264 
L 484.592538 224.189562 
L 485.697489 223.91233 
L 486.80244 224.33567 
L 486.80244 224.33567 
" clip-path="url(#pb0aacf4b51)" style="fill: none; stroke: #d62728; stroke-width: 2; stroke-linecap: square"/>
   </g>
   <g id="patch_8">
    <path d="M 269.127083 235.23198 
L 269.127083 13.47198 
" style="fill: none; stroke: #000000; stroke-width: 0.8; stroke-linejoin: miter; stroke-linecap: square"/>
   </g>
   <g id="patch_9">
    <path d="M 490.117182 235.23198 
L 490.117182 13.47198 
" style="fill: none; stroke: #000000; stroke-width: 0.8; stroke-linejoin: miter; stroke-linecap: square"/>
   </g>
   <g id="patch_10">
    <path d="M 269.127083 235.23198 
L 490.117182 235.23198 
" style="fill: none; stroke: #000000; stroke-width: 0.8; stroke-linejoin: miter; stroke-linecap: square"/>
   </g>
   <g id="patch_11">
    <path d="M 269.127083 13.47198 
L 490.117182 13.47198 
" style="fill: none; stroke: #000000; stroke-width: 0.8; stroke-linejoin: miter; stroke-linecap: square"/>
   </g>
   <g id="text_24">
    <!-- $J_0=0.2/T$ -->
    <g transform="translate(356.216868 7.47198)scale(0.1 -0.1)">
     <use xlink:href="#CMMI12-4a" transform="scale(0.996264)"/>
     <use xlink:href="#CMR17-30" transform="translate(53.917955 -14.943915)scale(0.697382)"/>
     <use xlink:href="#CMR17-3d" transform="translate(114.073278 0)scale(0.996264)"/>
     <use xlink:href="#CMR17-30" transform="translate(213.462075 0)scale(0.996264)"/>
     <use xlink:href="#CMMI12-3a" transform="translate(259.152552 0)scale(0.996264)"/>
     <use xlink:href="#CMR17-32" transform="translate(286.249729 0)scale(0.996264)"/>
     <use xlink:href="#CMMI12-3d" transform="translate(331.940207 0)scale(0.996264)"/>
     <use xlink:href="#CMMI12-54" transform="translate(380.715125 0)scale(0.996264)"/>
    </g>
   </g>
  </g>
  <g id="axes_3">
   <g id="patch_12">
    <path d="M 189.445182 131.55198 
L 252.805182 131.55198 
L 252.805182 16.35198 
L 189.445182 16.35198 
z
" style="fill: #ffffff"/>
   </g>
   <g id="matplotlib.axis_5">
    <g id="xtick_9">
     <g id="line2d_35">
      <defs>
       <path id="m90a1289eef" d="M 0 0 
L 0 3.5 
" style="stroke: #000000; stroke-width: 0.8"/>
      </defs>
      <g>
       <use xlink:href="#m90a1289eef" x="189.445182" y="131.55198" style="stroke: #000000; stroke-width: 0.8"/>
      </g>
     </g>
     <g id="text_25">
      <!-- $\mathdefault{0.46}$ -->
      <g transform="translate(179.039866 147.069964)scale(0.12 -0.12)">
       <use xlink:href="#CMR17-30" transform="scale(0.996264)"/>
       <use xlink:href="#CMMI12-3a" transform="translate(45.690477 0)scale(0.996264)"/>
       <use xlink:href="#CMR17-34" transform="translate(72.787654 0)scale(0.996264)"/>
       <use xlink:href="#CMR17-36" transform="translate(118.478131 0)scale(0.996264)"/>
      </g>
     </g>
    </g>
    <g id="xtick_10">
     <g id="line2d_36">
      <g>
       <use xlink:href="#m90a1289eef" x="221.125182" y="131.55198" style="stroke: #000000; stroke-width: 0.8"/>
      </g>
     </g>
     <g id="text_26">
      <!-- $\mathdefault{0.50}$ -->
      <g transform="translate(210.719866 147.069964)scale(0.12 -0.12)">
       <use xlink:href="#CMR17-30" transform="scale(0.996264)"/>
       <use xlink:href="#CMMI12-3a" transform="translate(45.690477 0)scale(0.996264)"/>
       <use xlink:href="#CMR17-35" transform="translate(72.787654 0)scale(0.996264)"/>
       <use xlink:href="#CMR17-30" transform="translate(118.478131 0)scale(0.996264)"/>
      </g>
     </g>
    </g>
    <g id="xtick_11">
     <g id="line2d_37">
      <g>
       <use xlink:href="#m90a1289eef" x="252.805182" y="131.55198" style="stroke: #000000; stroke-width: 0.8"/>
      </g>
     </g>
     <g id="text_27">
      <!-- $\mathdefault{0.54}$ -->
      <g transform="translate(242.399866 147.069964)scale(0.12 -0.12)">
       <use xlink:href="#CMR17-30" transform="scale(0.996264)"/>
       <use xlink:href="#CMMI12-3a" transform="translate(45.690477 0)scale(0.996264)"/>
       <use xlink:href="#CMR17-35" transform="translate(72.787654 0)scale(0.996264)"/>
       <use xlink:href="#CMR17-34" transform="translate(118.478131 0)scale(0.996264)"/>
      </g>
     </g>
    </g>
   </g>
   <g id="matplotlib.axis_6">
    <g id="ytick_15">
     <g id="line2d_38">
      <defs>
       <path id="me130fa8515" d="M 0 0 
L -3.5 0 
" style="stroke: #000000; stroke-width: 0.8"/>
      </defs>
      <g>
       <use xlink:href="#me130fa8515" x="189.445182" y="126.316315" style="stroke: #000000; stroke-width: 0.8"/>
      </g>
     </g>
     <g id="text_28">
      <!-- $\mathdefault{0}$ -->
      <g transform="translate(176.592192 130.575307)scale(0.12 -0.12)">
       <use xlink:href="#CMR17-30" transform="scale(0.996264)"/>
      </g>
     </g>
    </g>
    <g id="ytick_16">
     <g id="line2d_39">
      <g>
       <use xlink:href="#me130fa8515" x="189.445182" y="90.705539" style="stroke: #000000; stroke-width: 0.8"/>
      </g>
     </g>
     <g id="text_29">
      <!-- $\mathdefault{2000}$ -->
      <g transform="translate(159.033221 94.964532)scale(0.12 -0.12)">
       <use xlink:href="#CMR17-32" transform="scale(0.996264)"/>
       <use xlink:href="#CMR17-30" transform="translate(45.690477 0)scale(0.996264)"/>
       <use xlink:href="#CMR17-30" transform="translate(91.380954 0)scale(0.996264)"/>
       <use xlink:href="#CMR17-30" transform="translate(137.071431 0)scale(0.996264)"/>
      </g>
     </g>
    </g>
    <g id="ytick_17">
     <g id="line2d_40">
      <g>
       <use xlink:href="#me130fa8515" x="189.445182" y="55.094764" style="stroke: #000000; stroke-width: 0.8"/>
      </g>
     </g>
     <g id="text_30">
      <!-- $\mathdefault{4000}$ -->
      <g transform="translate(159.033221 59.353756)scale(0.12 -0.12)">
       <use xlink:href="#CMR17-34" transform="scale(0.996264)"/>
       <use xlink:href="#CMR17-30" transform="translate(45.690477 0)scale(0.996264)"/>
       <use xlink:href="#CMR17-30" transform="translate(91.380954 0)scale(0.996264)"/>
       <use xlink:href="#CMR17-30" transform="translate(137.071431 0)scale(0.996264)"/>
      </g>
     </g>
    </g>
    <g id="ytick_18">
     <g id="line2d_41">
      <g>
       <use xlink:href="#me130fa8515" x="189.445182" y="19.483989" style="stroke: #000000; stroke-width: 0.8"/>
      </g>
     </g>
     <g id="text_31">
      <!-- $\mathdefault{6000}$ -->
      <g transform="translate(159.033221 23.742981)scale(0.12 -0.12)">
       <use xlink:href="#CMR17-36" transform="scale(0.996264)"/>
       <use xlink:href="#CMR17-30" transform="translate(45.690477 0)scale(0.996264)"/>
       <use xlink:href="#CMR17-30" transform="translate(91.380954 0)scale(0.996264)"/>
       <use xlink:href="#CMR17-30" transform="translate(137.071431 0)scale(0.996264)"/>
      </g>
     </g>
    </g>
   </g>
   <g id="line2d_42">
    <path d="M -1 126.292372 
L 110.245325 126.265076 
L 118.165329 126.157635 
L 126.085333 126.282633 
L 145.885343 126.311682 
L 205.285372 126.179267 
L 209.245374 126.067177 
L 217.165378 126.243024 
L 221.12538 21.588344 
L 225.085382 126.261433 
L 260.7254 126.312848 
L 320.12543 126.262727 
L 324.085432 126.161332 
L 335.965438 126.242765 
L 339.92544 126.198593 
L 343.885442 126.300755 
L 363.685452 126.311131 
L 491.117182 126.272507 
L 491.117182 126.272507 
" clip-path="url(#p45dade0a64)" style="fill: none; stroke: #1f77b4; stroke-width: 1.5; stroke-linecap: square"/>
   </g>
   <g id="line2d_43">
    <path d="M -1 126.213526 
L 130.045335 126.068031 
L 181.525361 125.714009 
L 193.405367 125.418631 
L 197.365369 125.236289 
L 201.32537 124.862476 
L 205.285372 124.615875 
L 209.245374 122.41567 
L 213.205376 117.760882 
L 217.165378 123.397594 
L 221.12538 54.121518 
L 225.085382 122.761847 
L 229.045384 121.132114 
L 233.005386 124.114286 
L 236.965388 124.841121 
L 240.92539 125.155885 
L 248.845394 125.496092 
L 260.7254 125.7411 
L 284.485412 125.953001 
L 324.085432 126.061316 
L 458.725499 126.215902 
L 491.117182 126.229589 
L 491.117182 126.229589 
" clip-path="url(#p45dade0a64)" style="fill: none; stroke: #ff7f0e; stroke-width: 1.5; stroke-linecap: square"/>
   </g>
   <g id="line2d_44">
    <path d="M -1 126.091253 
L 102.325321 125.901986 
L 149.845345 125.617718 
L 169.645355 125.334731 
L 181.525361 125.019861 
L 189.445365 124.661591 
L 193.405367 124.3945 
L 197.365369 124.015781 
L 201.32537 123.3501 
L 205.285372 122.505856 
L 209.245374 120.035987 
L 213.205376 114.475339 
L 217.165378 122.23565 
L 221.12538 71.724919 
L 225.085382 120.148572 
L 229.045384 117.497167 
L 233.005386 121.602533 
L 236.965388 123.084513 
L 240.92539 123.796349 
L 244.885392 124.240366 
L 252.805396 124.766445 
L 264.685402 125.188226 
L 280.52541 125.485161 
L 308.245424 125.741331 
L 363.685452 125.961296 
L 474.565507 126.114904 
L 491.117182 126.128158 
L 491.117182 126.128158 
" clip-path="url(#p45dade0a64)" style="fill: none; stroke: #2ca02c; stroke-width: 1.5; stroke-linecap: square"/>
   </g>
   <g id="line2d_45">
    <path d="M -1 125.967022 
L 90.445315 125.740545 
L 134.005337 125.455011 
L 157.765349 125.12006 
L 173.605357 124.704323 
L 181.525361 124.364189 
L 189.445365 123.836538 
L 193.405367 123.444868 
L 197.365369 122.898155 
L 201.32537 122.005185 
L 205.285372 120.730153 
L 209.245374 118.247284 
L 213.205376 112.34714 
L 217.165378 116.700641 
L 221.12538 90.949683 
L 225.085382 114.321137 
L 229.045384 114.736716 
L 233.005386 119.470939 
L 236.965388 121.443787 
L 240.92539 122.509892 
L 244.885392 123.177554 
L 248.845394 123.636433 
L 256.765398 124.23691 
L 268.645404 124.755034 
L 284.485412 125.142379 
L 308.245424 125.461785 
L 363.685452 125.787098 
L 450.805495 125.98678 
L 491.117182 126.038312 
L 491.117182 126.038312 
" clip-path="url(#p45dade0a64)" style="fill: none; stroke: #d62728; stroke-width: 1.5; stroke-linecap: square"/>
   </g>
   <g id="patch_13">
    <path d="M 189.445182 131.55198 
L 189.445182 16.35198 
" style="fill: none; stroke: #000000; stroke-width: 0.8; stroke-linejoin: miter; stroke-linecap: square"/>
   </g>
   <g id="patch_14">
    <path d="M 252.805182 131.55198 
L 252.805182 16.35198 
" style="fill: none; stroke: #000000; stroke-width: 0.8; stroke-linejoin: miter; stroke-linecap: square"/>
   </g>
   <g id="patch_15">
    <path d="M 189.445182 131.55198 
L 252.805182 131.55198 
" style="fill: none; stroke: #000000; stroke-width: 0.8; stroke-linejoin: miter; stroke-linecap: square"/>
   </g>
   <g id="patch_16">
    <path d="M 189.445182 16.35198 
L 252.805182 16.35198 
" style="fill: none; stroke: #000000; stroke-width: 0.8; stroke-linejoin: miter; stroke-linecap: square"/>
   </g>
  </g>
  <g id="axes_4">
   <g id="patch_17">
    <path d="M 415.237182 131.55198 
L 478.597182 131.55198 
L 478.597182 16.35198 
L 415.237182 16.35198 
z
" style="fill: #ffffff"/>
   </g>
   <g id="matplotlib.axis_7">
    <g id="xtick_12">
     <g id="line2d_46">
      <g>
       <use xlink:href="#m90a1289eef" x="415.237182" y="131.55198" style="stroke: #000000; stroke-width: 0.8"/>
      </g>
     </g>
     <g id="text_32">
      <!-- $\mathdefault{0.46}$ -->
      <g transform="translate(404.831866 147.069964)scale(0.12 -0.12)">
       <use xlink:href="#CMR17-30" transform="scale(0.996264)"/>
       <use xlink:href="#CMMI12-3a" transform="translate(45.690477 0)scale(0.996264)"/>
       <use xlink:href="#CMR17-34" transform="translate(72.787654 0)scale(0.996264)"/>
       <use xlink:href="#CMR17-36" transform="translate(118.478131 0)scale(0.996264)"/>
      </g>
     </g>
    </g>
    <g id="xtick_13">
     <g id="line2d_47">
      <g>
       <use xlink:href="#m90a1289eef" x="446.917182" y="131.55198" style="stroke: #000000; stroke-width: 0.8"/>
      </g>
     </g>
     <g id="text_33">
      <!-- $\mathdefault{0.50}$ -->
      <g transform="translate(436.511866 147.069964)scale(0.12 -0.12)">
       <use xlink:href="#CMR17-30" transform="scale(0.996264)"/>
       <use xlink:href="#CMMI12-3a" transform="translate(45.690477 0)scale(0.996264)"/>
       <use xlink:href="#CMR17-35" transform="translate(72.787654 0)scale(0.996264)"/>
       <use xlink:href="#CMR17-30" transform="translate(118.478131 0)scale(0.996264)"/>
      </g>
     </g>
    </g>
    <g id="xtick_14">
     <g id="line2d_48">
      <g>
       <use xlink:href="#m90a1289eef" x="478.597182" y="131.55198" style="stroke: #000000; stroke-width: 0.8"/>
      </g>
     </g>
     <g id="text_34">
      <!-- $\mathdefault{0.54}$ -->
      <g transform="translate(468.191866 147.069964)scale(0.12 -0.12)">
       <use xlink:href="#CMR17-30" transform="scale(0.996264)"/>
       <use xlink:href="#CMMI12-3a" transform="translate(45.690477 0)scale(0.996264)"/>
       <use xlink:href="#CMR17-35" transform="translate(72.787654 0)scale(0.996264)"/>
       <use xlink:href="#CMR17-34" transform="translate(118.478131 0)scale(0.996264)"/>
      </g>
     </g>
    </g>
   </g>
   <g id="matplotlib.axis_8">
    <g id="ytick_19">
     <g id="line2d_49">
      <g>
       <use xlink:href="#me130fa8515" x="415.237182" y="126.320131" style="stroke: #000000; stroke-width: 0.8"/>
      </g>
     </g>
     <g id="text_35">
      <!-- $\mathdefault{0}$ -->
      <g transform="translate(402.384192 130.579123)scale(0.12 -0.12)">
       <use xlink:href="#CMR17-30" transform="scale(0.996264)"/>
      </g>
     </g>
    </g>
    <g id="ytick_20">
     <g id="line2d_50">
      <g>
       <use xlink:href="#me130fa8515" x="415.237182" y="87.827041" style="stroke: #000000; stroke-width: 0.8"/>
      </g>
     </g>
     <g id="text_36">
      <!-- $\mathdefault{2000}$ -->
      <g transform="translate(384.825221 92.086033)scale(0.12 -0.12)">
       <use xlink:href="#CMR17-32" transform="scale(0.996264)"/>
       <use xlink:href="#CMR17-30" transform="translate(45.690477 0)scale(0.996264)"/>
       <use xlink:href="#CMR17-30" transform="translate(91.380954 0)scale(0.996264)"/>
       <use xlink:href="#CMR17-30" transform="translate(137.071431 0)scale(0.996264)"/>
      </g>
     </g>
    </g>
    <g id="ytick_21">
     <g id="line2d_51">
      <g>
       <use xlink:href="#me130fa8515" x="415.237182" y="49.333951" style="stroke: #000000; stroke-width: 0.8"/>
      </g>
     </g>
     <g id="text_37">
      <!-- $\mathdefault{4000}$ -->
      <g transform="translate(384.825221 53.592943)scale(0.12 -0.12)">
       <use xlink:href="#CMR17-34" transform="scale(0.996264)"/>
       <use xlink:href="#CMR17-30" transform="translate(45.690477 0)scale(0.996264)"/>
       <use xlink:href="#CMR17-30" transform="translate(91.380954 0)scale(0.996264)"/>
       <use xlink:href="#CMR17-30" transform="translate(137.071431 0)scale(0.996264)"/>
      </g>
     </g>
    </g>
   </g>
   <g id="line2d_52">
    <path d="M 58.837186 126.014156 
L 66.75719 126.143238 
L 70.717192 126.132284 
L 74.677194 125.976278 
L 78.637196 123.492588 
L 82.597198 125.297541 
L 86.5572 126.0945 
L 90.517202 126.146075 
L 94.477204 125.91848 
L 98.437206 125.166857 
L 102.397208 126.016969 
L 110.317212 126.161553 
L 134.077224 126.213803 
L 153.877234 126.195045 
L 161.797238 126.09773 
L 165.75724 126.213596 
L 173.677244 126.083582 
L 177.637246 125.910774 
L 181.597248 125.051772 
L 185.55725 125.341663 
L 189.517252 125.984414 
L 197.437256 126.168857 
L 225.15727 126.234999 
L 280.597297 126.219195 
L 284.557299 125.861453 
L 288.517301 125.88057 
L 292.477303 126.214654 
L 339.997327 126.126939 
L 343.957329 126.26098 
L 351.877333 126.211805 
L 359.797337 126.093684 
L 363.757339 126.215234 
L 387.517351 126.101445 
L 395.437355 126.003402 
L 399.397357 125.683752 
L 403.357359 126.126633 
L 411.277363 126.13297 
L 415.237365 125.972752 
L 419.197367 125.570704 
L 423.157369 125.614738 
L 427.11737 125.382211 
L 431.077372 125.695829 
L 438.997376 124.863399 
L 442.957378 122.872276 
L 446.91738 31.224171 
L 450.877382 123.252595 
L 454.837384 125.143776 
L 458.797386 125.745891 
L 462.757388 126.052578 
L 466.71739 125.160278 
L 470.677392 125.90241 
L 474.637394 124.137587 
L 478.597396 125.500399 
L 482.557398 125.8958 
L 486.5174 126.024807 
L 490.477402 125.905163 
L 491.117182 125.763653 
L 491.117182 125.763653 
" clip-path="url(#pd8bb923629)" style="fill: none; stroke: #1f77b4; stroke-width: 1.5; stroke-linecap: square"/>
   </g>
   <g id="line2d_53">
    <path d="M 58.837186 126.178453 
L 62.797188 126.058794 
L 66.75719 126.138542 
L 70.717192 126.030198 
L 74.677194 125.431768 
L 78.637196 126.048664 
L 82.597198 126.216943 
L 122.197218 126.228566 
L 161.797238 126.207585 
L 165.75724 125.984984 
L 173.677244 126.191227 
L 209.317262 126.205439 
L 351.877333 126.067663 
L 407.317361 125.666221 
L 415.237365 125.469311 
L 419.197367 125.2333 
L 423.157369 125.442365 
L 427.11737 125.188965 
L 431.077372 124.799369 
L 435.037374 124.206301 
L 438.997376 123.136672 
L 442.957378 117.474668 
L 446.91738 36.082675 
L 450.877382 117.345972 
L 454.837384 123.002854 
L 458.797386 124.16908 
L 462.757388 124.726983 
L 466.71739 125.023205 
L 470.677392 125.18484 
L 474.637394 125.472906 
L 491.117182 125.761532 
L 491.117182 125.761532 
" clip-path="url(#pd8bb923629)" style="fill: none; stroke: #ff7f0e; stroke-width: 1.5; stroke-linecap: square"/>
   </g>
   <g id="line2d_54">
    <path d="M 58.837186 126.213213 
L 62.797188 126.047523 
L 66.75719 125.995696 
L 70.717192 124.914775 
L 74.677194 125.259271 
L 78.637196 126.18897 
L 86.5572 126.209091 
L 102.397208 126.276048 
L 161.797238 126.262657 
L 165.75724 126.10799 
L 173.677244 126.24945 
L 233.077273 126.265177 
L 395.437355 126.134748 
L 419.197367 125.940589 
L 423.157369 125.492471 
L 427.11737 125.782345 
L 431.077372 125.911569 
L 438.997376 125.271214 
L 442.957378 124.713596 
L 446.91738 21.588344 
L 450.877382 124.767702 
L 454.837384 125.071137 
L 458.797386 125.579471 
L 462.757388 125.784484 
L 491.117182 126.137989 
L 491.117182 126.137989 
" clip-path="url(#pd8bb923629)" style="fill: none; stroke: #2ca02c; stroke-width: 1.5; stroke-linecap: square"/>
   </g>
   <g id="line2d_55">
    <path d="M 58.837186 125.794177 
L 62.797188 125.808768 
L 66.75719 125.394987 
L 70.717192 125.230873 
L 74.677194 124.70058 
L 78.637196 125.600278 
L 82.597198 125.872821 
L 98.437206 126.083842 
L 138.037226 126.183954 
L 260.797287 126.198461 
L 375.637345 126.067144 
L 407.317361 125.815324 
L 415.237365 125.646319 
L 419.197367 125.44881 
L 423.157369 124.784815 
L 427.11737 125.100701 
L 431.077372 126.032072 
L 435.037374 125.395488 
L 438.997376 124.29871 
L 442.957378 122.600558 
L 446.91738 26.032375 
L 450.877382 122.593893 
L 454.837384 124.298444 
L 458.797386 125.092064 
L 462.757388 125.448625 
L 466.71739 125.522692 
L 474.637394 125.79564 
L 491.117182 125.996252 
L 491.117182 125.996252 
" clip-path="url(#pd8bb923629)" style="fill: none; stroke: #d62728; stroke-width: 1.5; stroke-linecap: square"/>
   </g>
   <g id="patch_18">
    <path d="M 415.237182 131.55198 
L 415.237182 16.35198 
" style="fill: none; stroke: #000000; stroke-width: 0.8; stroke-linejoin: miter; stroke-linecap: square"/>
   </g>
   <g id="patch_19">
    <path d="M 478.597182 131.55198 
L 478.597182 16.35198 
" style="fill: none; stroke: #000000; stroke-width: 0.8; stroke-linejoin: miter; stroke-linecap: square"/>
   </g>
   <g id="patch_20">
    <path d="M 415.237182 131.55198 
L 478.597182 131.55198 
" style="fill: none; stroke: #000000; stroke-width: 0.8; stroke-linejoin: miter; stroke-linecap: square"/>
   </g>
   <g id="patch_21">
    <path d="M 415.237182 16.35198 
L 478.597182 16.35198 
" style="fill: none; stroke: #000000; stroke-width: 0.8; stroke-linejoin: miter; stroke-linecap: square"/>
   </g>
  </g>
 </g>
 <defs>
  <clipPath id="p328894e70b">
   <rect x="43.717182" y="13.47198" width="220.990099" height="221.76"/>
  </clipPath>
  <clipPath id="pb0aacf4b51">
   <rect x="269.127083" y="13.47198" width="220.990099" height="221.76"/>
  </clipPath>
  <clipPath id="p45dade0a64">
   <rect x="189.445182" y="16.35198" width="63.36" height="115.2"/>
  </clipPath>
  <clipPath id="pd8bb923629">
   <rect x="415.237182" y="16.35198" width="63.36" height="115.2"/>
  </clipPath>
 </defs>
</svg>
