<?xml version="1.0" encoding="utf-8" standalone="no"?>
<!DOCTYPE svg PUBLIC "-//W3C//DTD SVG 1.1//EN"
  "http://www.w3.org/Graphics/SVG/1.1/DTD/svg11.dtd">
<svg xmlns:xlink="http://www.w3.org/1999/xlink" width="540pt" height="288pt" viewBox="0 0 540 288" xmlns="http://www.w3.org/2000/svg" version="1.1">
 <metadata>
  <rdf:RDF xmlns:dc="http://purl.org/dc/elements/1.1/" xmlns:cc="http://creativecommons.org/ns#" xmlns:rdf="http://www.w3.org/1999/02/22-rdf-syntax-ns#">
   <cc:Work>
    <dc:type rdf:resource="http://purl.org/dc/dcmitype/StillImage"/>
    <dc:date>2024-05-13T20:41:20.350465</dc:date>
    <dc:format>image/svg+xml</dc:format>
    <dc:creator>
     <cc:Agent>
      <dc:title>Matplotlib v3.7.3, https://matplotlib.org/</dc:title>
     </cc:Agent>
    </dc:creator>
   </cc:Work>
  </rdf:RDF>
 </metadata>
 <defs>
  <style type="text/css">*{stroke-linejoin: round; stroke-linecap: butt}</style>
 </defs>
 <g id="figure_1">
  <g id="patch_1">
   <path d="M 0 288 
L 540 288 
L 540 0 
L 0 0 
z
" style="fill: #ffffff"/>
  </g>
  <g id="axes_1">
   <g id="patch_2">
    <path d="M 67.5 256.32 
L 274.678218 256.32 
L 274.678218 34.56 
L 67.5 34.56 
z
" style="fill: #ffffff"/>
   </g>
   <g id="PolyCollection_1">
    <defs>
     <path id="m8f1a245406" d="M 205.618812 -41.76 
L 136.559406 -41.76 
L 136.559406 -235.712655 
L 205.618812 -235.712655 
L 205.618812 -235.712655 
L 205.618812 -41.76 
z
" style="stroke: #808080; stroke-opacity: 0.15"/>
    </defs>
    <g clip-path="url(#p48a854d7aa)">
     <use xlink:href="#m8f1a245406" x="0" y="288" style="fill: #808080; fill-opacity: 0.15; stroke: #808080; stroke-opacity: 0.15"/>
    </g>
   </g>
   <g id="matplotlib.axis_1">
    <g id="xtick_1">
     <g id="line2d_1">
      <defs>
       <path id="m61f2a7ce40" d="M 0 0 
L 0 -3.5 
" style="stroke: #000000; stroke-width: 0.8"/>
      </defs>
      <g>
       <use xlink:href="#m61f2a7ce40" x="84.764851" y="256.32" style="stroke: #000000; stroke-width: 0.8"/>
      </g>
     </g>
     <g id="text_1">
      <!-- $\mathdefault{−0.5}$ -->
      <g transform="translate(72.636786 268.337984) scale(0.12 -0.12)">
       <defs>
        <path id="CMSY10-0" d="M 4218 1472 
C 4326 1472 4442 1472 4442 1600 
C 4442 1728 4326 1728 4218 1728 
L 755 1728 
C 646 1728 531 1728 531 1600 
C 531 1472 646 1472 755 1472 
L 4218 1472 
z
" transform="scale(0.015625)"/>
        <path id="CMR17-30" d="M 2688 2038 
C 2688 2430 2682 3099 2413 3613 
C 2176 4063 1798 4224 1466 4224 
C 1158 4224 768 4082 525 3620 
C 269 3137 243 2539 243 2038 
C 243 1671 250 1112 448 623 
C 723 -39 1216 -128 1466 -128 
C 1760 -128 2208 -7 2470 604 
C 2662 1048 2688 1568 2688 2038 
z
M 1466 -26 
C 1056 -26 813 328 723 816 
C 653 1196 653 1749 653 2109 
C 653 2604 653 3015 736 3407 
C 858 3954 1216 4121 1466 4121 
C 1728 4121 2067 3947 2189 3420 
C 2272 3054 2278 2623 2278 2109 
C 2278 1691 2278 1176 2202 797 
C 2067 96 1690 -26 1466 -26 
z
" transform="scale(0.015625)"/>
        <path id="CMMI12-3a" d="M 1178 307 
C 1178 492 1024 620 870 620 
C 685 620 557 467 557 313 
C 557 128 710 0 864 0 
C 1050 0 1178 153 1178 307 
z
" transform="scale(0.015625)"/>
        <path id="CMR17-35" d="M 730 3750 
C 794 3724 1056 3641 1325 3641 
C 1920 3641 2246 3961 2432 4140 
C 2432 4191 2432 4224 2394 4224 
C 2387 4224 2374 4224 2323 4198 
C 2099 4102 1837 4032 1517 4032 
C 1325 4032 1037 4055 723 4191 
C 653 4224 640 4224 634 4224 
C 602 4224 595 4217 595 4090 
L 595 2231 
C 595 2113 595 2080 659 2080 
C 691 2080 704 2093 736 2139 
C 941 2435 1222 2560 1542 2560 
C 1766 2560 2246 2415 2246 1293 
C 2246 1087 2246 716 2054 422 
C 1894 159 1645 25 1370 25 
C 947 25 518 319 403 812 
C 429 806 480 793 506 793 
C 589 793 749 838 749 1036 
C 749 1209 627 1280 506 1280 
C 358 1280 262 1190 262 1011 
C 262 454 704 -128 1382 -128 
C 2042 -128 2669 441 2669 1267 
C 2669 2054 2170 2662 1549 2662 
C 1222 2662 947 2540 730 2304 
L 730 3750 
z
" transform="scale(0.015625)"/>
       </defs>
       <use xlink:href="#CMSY10-0" transform="scale(0.996264)"/>
       <use xlink:href="#CMR17-30" transform="translate(77.487468 0) scale(0.996264)"/>
       <use xlink:href="#CMMI12-3a" transform="translate(123.177945 0) scale(0.996264)"/>
       <use xlink:href="#CMR17-35" transform="translate(150.275122 0) scale(0.996264)"/>
      </g>
     </g>
    </g>
    <g id="xtick_2">
     <g id="line2d_2">
      <g>
       <use xlink:href="#m61f2a7ce40" x="136.559406" y="256.32" style="stroke: #000000; stroke-width: 0.8"/>
      </g>
     </g>
     <g id="text_2">
      <!-- $\mathdefault{−0.2}$ -->
      <g transform="translate(124.43134 268.337984) scale(0.12 -0.12)">
       <defs>
        <path id="CMR17-32" d="M 2669 990 
L 2554 990 
C 2490 537 2438 460 2413 422 
C 2381 371 1920 371 1830 371 
L 602 371 
C 832 620 1280 1073 1824 1596 
C 2214 1966 2669 2400 2669 3033 
C 2669 3788 2067 4224 1395 4224 
C 691 4224 262 3603 262 3027 
C 262 2777 448 2745 525 2745 
C 589 2745 781 2783 781 3007 
C 781 3206 614 3264 525 3264 
C 486 3264 448 3257 422 3244 
C 544 3788 915 4057 1306 4057 
C 1862 4057 2227 3616 2227 3033 
C 2227 2477 1901 1998 1536 1583 
L 262 147 
L 262 0 
L 2515 0 
L 2669 990 
z
" transform="scale(0.015625)"/>
       </defs>
       <use xlink:href="#CMSY10-0" transform="scale(0.996264)"/>
       <use xlink:href="#CMR17-30" transform="translate(77.487468 0) scale(0.996264)"/>
       <use xlink:href="#CMMI12-3a" transform="translate(123.177945 0) scale(0.996264)"/>
       <use xlink:href="#CMR17-32" transform="translate(150.275122 0) scale(0.996264)"/>
      </g>
     </g>
    </g>
    <g id="xtick_3">
     <g id="line2d_3">
      <g>
       <use xlink:href="#m61f2a7ce40" x="171.089109" y="256.32" style="stroke: #000000; stroke-width: 0.8"/>
      </g>
     </g>
     <g id="text_3">
      <!-- $\mathdefault{0.0}$ -->
      <g transform="translate(163.610288 268.337984) scale(0.12 -0.12)">
       <use xlink:href="#CMR17-30" transform="scale(0.996264)"/>
       <use xlink:href="#CMMI12-3a" transform="translate(45.690477 0) scale(0.996264)"/>
       <use xlink:href="#CMR17-30" transform="translate(72.787654 0) scale(0.996264)"/>
      </g>
     </g>
    </g>
    <g id="xtick_4">
     <g id="line2d_4">
      <g>
       <use xlink:href="#m61f2a7ce40" x="205.618812" y="256.32" style="stroke: #000000; stroke-width: 0.8"/>
      </g>
     </g>
     <g id="text_4">
      <!-- $\mathdefault{0.2}$ -->
      <g transform="translate(198.139991 268.337984) scale(0.12 -0.12)">
       <use xlink:href="#CMR17-30" transform="scale(0.996264)"/>
       <use xlink:href="#CMMI12-3a" transform="translate(45.690477 0) scale(0.996264)"/>
       <use xlink:href="#CMR17-32" transform="translate(72.787654 0) scale(0.996264)"/>
      </g>
     </g>
    </g>
    <g id="xtick_5">
     <g id="line2d_5">
      <g>
       <use xlink:href="#m61f2a7ce40" x="257.413366" y="256.32" style="stroke: #000000; stroke-width: 0.8"/>
      </g>
     </g>
     <g id="text_5">
      <!-- $\mathdefault{0.5}$ -->
      <g transform="translate(249.934545 268.337984) scale(0.12 -0.12)">
       <use xlink:href="#CMR17-30" transform="scale(0.996264)"/>
       <use xlink:href="#CMMI12-3a" transform="translate(45.690477 0) scale(0.996264)"/>
       <use xlink:href="#CMR17-35" transform="translate(72.787654 0) scale(0.996264)"/>
      </g>
     </g>
    </g>
    <g id="text_6">
     <!-- deviation$(\Delta$) -->
     <g transform="translate(138.202242 283.850735) scale(0.12 -0.12)">
      <defs>
       <path id="NimbusSanL-Regu-64" d="M 3168 4672 
L 2637 4672 
L 2637 2937 
C 2413 3276 2054 3456 1606 3456 
C 736 3456 166 2759 166 1695 
C 166 568 723 -128 1626 -128 
C 2086 -128 2406 44 2694 460 
L 2694 19 
L 3168 19 
L 3168 4672 
z
M 1696 2956 
C 2272 2956 2637 2447 2637 1651 
C 2637 880 2266 371 1702 371 
C 1114 371 723 887 723 1663 
C 723 2440 1114 2956 1696 2956 
z
" transform="scale(0.015625)"/>
       <path id="NimbusSanL-Regu-65" d="M 3283 1484 
C 3283 1998 3245 2311 3149 2565 
C 2931 3123 2419 3456 1792 3456 
C 858 3456 256 2734 256 1619 
C 256 545 838 -128 1779 -128 
C 2547 -128 3078 307 3213 1018 
L 2675 1018 
C 2528 588 2227 364 1798 364 
C 1459 364 1171 514 992 787 
C 864 974 819 1161 813 1484 
L 3283 1484 
z
M 826 1920 
C 870 2552 1248 2963 1786 2963 
C 2310 2963 2714 2519 2714 1959 
C 2714 1946 2714 1933 2707 1920 
L 826 1920 
z
" transform="scale(0.015625)"/>
       <path id="NimbusSanL-Regu-76" d="M 1824 0 
L 3110 3328 
L 2509 3328 
L 1562 629 
L 666 3328 
L 64 3328 
L 1242 0 
L 1824 0 
z
" transform="scale(0.015625)"/>
       <path id="NimbusSanL-Regu-69" d="M 960 3358 
L 429 3358 
L 429 0 
L 960 0 
L 960 3358 
z
M 960 4672 
L 422 4672 
L 422 3999 
L 960 3999 
L 960 4672 
z
" transform="scale(0.015625)"/>
       <path id="NimbusSanL-Regu-61" d="M 3424 332 
C 3366 320 3341 320 3309 320 
C 3123 320 3021 415 3021 581 
L 3021 2542 
C 3021 3135 2586 3456 1760 3456 
C 1274 3456 870 3315 646 3065 
C 493 2893 429 2702 416 2370 
L 954 2370 
C 998 2778 1242 2963 1741 2963 
C 2221 2963 2490 2784 2490 2466 
L 2490 2326 
C 2490 2103 2355 2007 1933 1956 
C 1178 1861 1062 1835 858 1753 
C 467 1593 269 1294 269 861 
C 269 256 691 -128 1370 -128 
C 1792 -128 2131 19 2509 364 
C 2547 25 2714 -128 3059 -128 
C 3168 -128 3251 -116 3424 -71 
L 3424 332 
z
M 2490 1071 
C 2490 893 2438 785 2278 638 
C 2061 441 1798 339 1485 339 
C 1069 339 826 536 826 874 
C 826 1224 1062 1402 1632 1485 
C 2195 1562 2310 1587 2490 1670 
L 2490 1071 
z
" transform="scale(0.015625)"/>
       <path id="NimbusSanL-Regu-74" d="M 1626 3328 
L 1075 3328 
L 1075 4249 
L 544 4249 
L 544 3328 
L 90 3328 
L 90 2892 
L 544 2892 
L 544 402 
C 544 64 774 -128 1190 -128 
C 1318 -128 1446 -116 1626 -84 
L 1626 364 
C 1555 345 1472 339 1370 339 
C 1139 339 1075 402 1075 634 
L 1075 2892 
L 1626 2892 
L 1626 3328 
z
" transform="scale(0.015625)"/>
       <path id="NimbusSanL-Regu-6f" d="M 1741 3456 
C 800 3456 230 2784 230 1663 
C 230 543 794 -128 1747 -128 
C 2688 -128 3264 543 3264 1638 
C 3264 2791 2707 3456 1741 3456 
z
M 1747 2963 
C 2349 2963 2707 2472 2707 1644 
C 2707 861 2336 364 1747 364 
C 1152 364 787 855 787 1663 
C 787 2466 1152 2963 1747 2963 
z
" transform="scale(0.015625)"/>
       <path id="NimbusSanL-Regu-6e" d="M 448 3328 
L 448 0 
L 986 0 
L 986 1835 
C 986 2539 1344 2988 1894 2988 
C 2317 2988 2586 2732 2586 2328 
L 2586 0 
L 3117 0 
L 3117 2539 
C 3117 3097 2701 3456 2054 3456 
C 1555 3456 1235 3263 941 2796 
L 941 3328 
L 448 3328 
z
" transform="scale(0.015625)"/>
       <path id="CMR17-28" d="M 1958 -1562 
C 1958 -1556 1958 -1543 1939 -1524 
C 1645 -1223 858 -403 858 1596 
C 858 3595 1632 4408 1946 4729 
C 1946 4735 1958 4748 1958 4767 
C 1958 4787 1939 4800 1914 4800 
C 1843 4800 1299 4325 986 3620 
C 666 2909 576 2218 576 1603 
C 576 1141 621 360 1005 -467 
C 1312 -1133 1837 -1600 1914 -1600 
C 1946 -1600 1958 -1588 1958 -1562 
z
" transform="scale(0.015625)"/>
       <path id="CMR17-1" d="M 2598 4435 
C 2547 4544 2522 4544 2470 4544 
C 2394 4544 2387 4531 2342 4441 
L 269 108 
C 262 96 237 38 237 32 
C 237 6 243 0 358 0 
L 4576 0 
C 4691 0 4698 6 4698 32 
C 4698 38 4672 96 4666 108 
L 2598 4435 
z
M 2310 4056 
L 4083 358 
L 531 358 
L 2310 4056 
z
" transform="scale(0.015625)"/>
       <path id="NimbusSanL-Regu-29" d="M 595 -1351 
C 1235 -513 1638 652 1638 1657 
C 1638 2668 1235 3833 595 4672 
L 243 4672 
C 806 3756 1120 2681 1120 1657 
C 1120 639 806 -442 243 -1351 
L 595 -1351 
z
" transform="scale(0.015625)"/>
      </defs>
      <use xlink:href="#NimbusSanL-Regu-64" transform="scale(0.996264)"/>
      <use xlink:href="#NimbusSanL-Regu-65" transform="translate(55.391677 0) scale(0.996264)"/>
      <use xlink:href="#NimbusSanL-Regu-76" transform="translate(107.795246 0) scale(0.996264)"/>
      <use xlink:href="#NimbusSanL-Regu-69" transform="translate(157.608446 0) scale(0.996264)"/>
      <use xlink:href="#NimbusSanL-Regu-61" transform="translate(179.725231 0) scale(0.996264)"/>
      <use xlink:href="#NimbusSanL-Regu-74" transform="translate(235.116908 0) scale(0.996264)"/>
      <use xlink:href="#NimbusSanL-Regu-69" transform="translate(262.812077 0) scale(0.996264)"/>
      <use xlink:href="#NimbusSanL-Regu-6f" transform="translate(284.928862 0) scale(0.996264)"/>
      <use xlink:href="#NimbusSanL-Regu-6e" transform="translate(340.320539 0) scale(0.996264)"/>
      <use xlink:href="#CMR17-28" transform="translate(395.712216 0) scale(0.996264)"/>
      <use xlink:href="#CMR17-1" transform="translate(430.992983 0) scale(0.996264)"/>
      <use xlink:href="#NimbusSanL-Regu-29" transform="translate(507.912573 0) scale(0.996264)"/>
     </g>
    </g>
   </g>
   <g id="matplotlib.axis_2">
    <g id="ytick_1">
     <g id="line2d_6">
      <defs>
       <path id="m064e15a603" d="M 0 0 
L 3.5 0 
" style="stroke: #000000; stroke-width: 0.8"/>
      </defs>
      <g>
       <use xlink:href="#m064e15a603" x="67.5" y="246.24" style="stroke: #000000; stroke-width: 0.8"/>
      </g>
     </g>
     <g id="text_7">
      <!-- $\mathdefault{0.0}$ -->
      <g transform="translate(49.042358 250.498992) scale(0.12 -0.12)">
       <use xlink:href="#CMR17-30" transform="scale(0.996264)"/>
       <use xlink:href="#CMMI12-3a" transform="translate(45.690477 0) scale(0.996264)"/>
       <use xlink:href="#CMR17-30" transform="translate(72.787654 0) scale(0.996264)"/>
      </g>
     </g>
    </g>
    <g id="ytick_2">
     <g id="line2d_7">
      <g>
       <use xlink:href="#m064e15a603" x="67.5" y="207.449469" style="stroke: #000000; stroke-width: 0.8"/>
      </g>
     </g>
     <g id="text_8">
      <!-- $\mathdefault{0.2}$ -->
      <g transform="translate(49.042358 211.708461) scale(0.12 -0.12)">
       <use xlink:href="#CMR17-30" transform="scale(0.996264)"/>
       <use xlink:href="#CMMI12-3a" transform="translate(45.690477 0) scale(0.996264)"/>
       <use xlink:href="#CMR17-32" transform="translate(72.787654 0) scale(0.996264)"/>
      </g>
     </g>
    </g>
    <g id="ytick_3">
     <g id="line2d_8">
      <g>
       <use xlink:href="#m064e15a603" x="67.5" y="168.658938" style="stroke: #000000; stroke-width: 0.8"/>
      </g>
     </g>
     <g id="text_9">
      <!-- $\mathdefault{0.4}$ -->
      <g transform="translate(49.042358 172.91793) scale(0.12 -0.12)">
       <defs>
        <path id="CMR17-34" d="M 2150 4147 
C 2150 4281 2144 4288 2029 4288 
L 128 1254 
L 128 1088 
L 1779 1088 
L 1779 460 
C 1779 230 1766 166 1318 166 
L 1197 166 
L 1197 0 
C 1402 12 1747 12 1965 12 
C 2182 12 2528 12 2733 0 
L 2733 166 
L 2611 166 
C 2163 166 2150 230 2150 460 
L 2150 1088 
L 2803 1088 
L 2803 1254 
L 2150 1254 
L 2150 4147 
z
M 1798 3723 
L 1798 1254 
L 256 1254 
L 1798 3723 
z
" transform="scale(0.015625)"/>
       </defs>
       <use xlink:href="#CMR17-30" transform="scale(0.996264)"/>
       <use xlink:href="#CMMI12-3a" transform="translate(45.690477 0) scale(0.996264)"/>
       <use xlink:href="#CMR17-34" transform="translate(72.787654 0) scale(0.996264)"/>
      </g>
     </g>
    </g>
    <g id="ytick_4">
     <g id="line2d_9">
      <g>
       <use xlink:href="#m064e15a603" x="67.5" y="129.868407" style="stroke: #000000; stroke-width: 0.8"/>
      </g>
     </g>
     <g id="text_10">
      <!-- $\mathdefault{0.6}$ -->
      <g transform="translate(49.042358 134.127399) scale(0.12 -0.12)">
       <defs>
        <path id="CMR17-36" d="M 678 2198 
C 678 3712 1395 4076 1811 4076 
C 1946 4076 2272 4049 2400 3782 
C 2298 3782 2106 3782 2106 3558 
C 2106 3385 2246 3328 2336 3328 
C 2394 3328 2566 3353 2566 3571 
C 2566 3987 2246 4224 1805 4224 
C 1043 4224 243 3411 243 2011 
C 243 257 966 -128 1478 -128 
C 2099 -128 2688 431 2688 1295 
C 2688 2101 2170 2688 1517 2688 
C 1126 2688 838 2430 678 1979 
L 678 2198 
z
M 1478 25 
C 691 25 691 1212 691 1450 
C 691 1914 909 2585 1504 2585 
C 1613 2585 1926 2585 2138 2140 
C 2253 1889 2253 1624 2253 1302 
C 2253 954 2253 696 2118 438 
C 1978 173 1773 25 1478 25 
z
" transform="scale(0.015625)"/>
       </defs>
       <use xlink:href="#CMR17-30" transform="scale(0.996264)"/>
       <use xlink:href="#CMMI12-3a" transform="translate(45.690477 0) scale(0.996264)"/>
       <use xlink:href="#CMR17-36" transform="translate(72.787654 0) scale(0.996264)"/>
      </g>
     </g>
    </g>
    <g id="ytick_5">
     <g id="line2d_10">
      <g>
       <use xlink:href="#m064e15a603" x="67.5" y="91.077876" style="stroke: #000000; stroke-width: 0.8"/>
      </g>
     </g>
     <g id="text_11">
      <!-- $\mathdefault{0.8}$ -->
      <g transform="translate(49.042358 95.336868) scale(0.12 -0.12)">
       <defs>
        <path id="CMR17-38" d="M 1741 2289 
C 2144 2494 2554 2803 2554 3298 
C 2554 3884 1990 4224 1472 4224 
C 890 4224 378 3800 378 3215 
C 378 3054 416 2777 666 2533 
C 730 2469 998 2276 1171 2154 
C 883 2006 211 1652 211 945 
C 211 282 838 -128 1459 -128 
C 2144 -128 2720 366 2720 1022 
C 2720 1607 2330 1877 2074 2051 
L 1741 2289 
z
M 902 2855 
C 851 2887 595 3086 595 3388 
C 595 3781 998 4076 1459 4076 
C 1965 4076 2336 3716 2336 3298 
C 2336 2700 1670 2359 1638 2359 
C 1632 2359 1626 2359 1574 2398 
L 902 2855 
z
M 2080 1536 
C 2176 1466 2483 1253 2483 861 
C 2483 385 2010 25 1472 25 
C 890 25 448 443 448 951 
C 448 1459 838 1884 1280 2083 
L 2080 1536 
z
" transform="scale(0.015625)"/>
       </defs>
       <use xlink:href="#CMR17-30" transform="scale(0.996264)"/>
       <use xlink:href="#CMMI12-3a" transform="translate(45.690477 0) scale(0.996264)"/>
       <use xlink:href="#CMR17-38" transform="translate(72.787654 0) scale(0.996264)"/>
      </g>
     </g>
    </g>
    <g id="ytick_6">
     <g id="line2d_11">
      <g>
       <use xlink:href="#m064e15a603" x="67.5" y="52.287345" style="stroke: #000000; stroke-width: 0.8"/>
      </g>
     </g>
     <g id="text_12">
      <!-- $\mathdefault{1.0}$ -->
      <g transform="translate(49.042358 56.546337) scale(0.12 -0.12)">
       <defs>
        <path id="CMR17-31" d="M 1702 4083 
C 1702 4217 1696 4224 1606 4224 
C 1357 3927 979 3833 621 3820 
C 602 3820 570 3820 563 3808 
C 557 3795 557 3782 557 3648 
C 755 3648 1088 3686 1344 3839 
L 1344 467 
C 1344 243 1331 166 781 166 
L 589 166 
L 589 0 
C 896 6 1216 12 1523 12 
C 1830 12 2150 6 2458 0 
L 2458 166 
L 2266 166 
C 1715 166 1702 236 1702 467 
L 1702 4083 
z
" transform="scale(0.015625)"/>
       </defs>
       <use xlink:href="#CMR17-31" transform="scale(0.996264)"/>
       <use xlink:href="#CMMI12-3a" transform="translate(45.690477 0) scale(0.996264)"/>
       <use xlink:href="#CMR17-30" transform="translate(72.787654 0) scale(0.996264)"/>
      </g>
     </g>
    </g>
    <g id="text_13">
     <!-- Fidelity -->
     <g transform="translate(42.495984 164.370795) rotate(-90) scale(0.12 -0.12)">
      <defs>
       <path id="NimbusSanL-Regu-46" d="M 1171 2112 
L 3398 2112 
L 3398 2636 
L 1171 2636 
L 1171 4147 
L 3706 4147 
L 3706 4672 
L 576 4672 
L 576 0 
L 1171 0 
L 1171 2112 
z
" transform="scale(0.015625)"/>
       <path id="NimbusSanL-Regu-6c" d="M 973 4672 
L 435 4672 
L 435 0 
L 973 0 
L 973 4672 
z
" transform="scale(0.015625)"/>
       <path id="NimbusSanL-Regu-79" d="M 2483 3328 
L 1555 724 
L 698 3328 
L 128 3328 
L 1261 -29 
L 1056 -558 
C 973 -794 851 -884 627 -884 
C 550 -884 461 -871 346 -845 
L 346 -1325 
C 454 -1383 563 -1408 704 -1408 
C 877 -1408 1062 -1351 1203 -1248 
C 1370 -1127 1466 -986 1568 -718 
L 3059 3328 
L 2483 3328 
z
" transform="scale(0.015625)"/>
      </defs>
      <use xlink:href="#NimbusSanL-Regu-46" transform="scale(0.996264)"/>
      <use xlink:href="#NimbusSanL-Regu-69" transform="translate(60.871631 0) scale(0.996264)"/>
      <use xlink:href="#NimbusSanL-Regu-64" transform="translate(82.988415 0) scale(0.996264)"/>
      <use xlink:href="#NimbusSanL-Regu-65" transform="translate(138.380092 0) scale(0.996264)"/>
      <use xlink:href="#NimbusSanL-Regu-6c" transform="translate(193.771769 0) scale(0.996264)"/>
      <use xlink:href="#NimbusSanL-Regu-69" transform="translate(215.888553 0) scale(0.996264)"/>
      <use xlink:href="#NimbusSanL-Regu-74" transform="translate(238.005338 0) scale(0.996264)"/>
      <use xlink:href="#NimbusSanL-Regu-79" transform="translate(265.700507 0) scale(0.996264)"/>
     </g>
    </g>
   </g>
   <g id="line2d_12">
    <path d="M 84.764851 178.052992 
L 87.529993 161.234255 
L 90.467956 144.767447 
L 93.405918 129.566713 
L 96.516702 114.648265 
L 99.800308 99.977936 
L 102.392628 89.209112 
L 104.120841 82.836634 
L 105.503412 78.443399 
L 106.713161 75.245811 
L 107.750089 73.065337 
L 108.787017 71.388895 
L 109.823945 70.109228 
L 111.033695 68.968072 
L 113.107551 67.39972 
L 114.662943 66.086855 
L 116.045513 64.557959 
L 118.465012 61.800243 
L 119.50194 60.978732 
L 120.193225 60.663303 
L 120.884511 60.585994 
L 121.402975 60.711258 
L 121.921439 61.014613 
L 122.612724 61.726741 
L 123.476831 63.073929 
L 124.68658 65.519796 
L 127.2789 70.961417 
L 128.143007 72.230361 
L 128.834292 72.855524 
L 129.352756 73.04037 
L 129.87122 72.941415 
L 130.389684 72.5403 
L 131.08097 71.589553 
L 131.945076 69.86166 
L 132.982004 67.233485 
L 136.438431 57.953359 
L 137.302538 56.434127 
L 137.993823 55.677582 
L 138.512287 55.372299 
L 139.030751 55.273116 
L 139.549215 55.363311 
L 140.2405 55.749256 
L 140.931786 56.402507 
L 141.795892 57.534585 
L 143.005642 59.569723 
L 144.733855 63.002191 
L 147.153354 67.76273 
L 148.363103 69.64104 
L 149.22721 70.611953 
L 149.918495 71.105002 
L 150.609781 71.301662 
L 151.128245 71.230092 
L 151.646709 70.951615 
L 152.165173 70.449007 
L 152.856458 69.411068 
L 153.720565 67.615125 
L 154.930314 64.511974 
L 157.349813 58.192052 
L 158.213919 56.527448 
L 158.905205 55.631226 
L 159.423669 55.277275 
L 159.942133 55.24179 
L 160.460597 55.54112 
L 160.979061 56.138956 
L 161.670346 57.326017 
L 162.534453 59.29306 
L 163.917023 63.08733 
L 165.818058 68.271898 
L 166.682165 70.105904 
L 167.37345 71.146628 
L 167.891914 71.624995 
L 168.410378 71.855698 
L 168.928842 71.861706 
L 169.447306 71.665991 
L 170.138592 71.130946 
L 171.002698 70.0982 
L 172.039626 68.465501 
L 173.940661 64.940894 
L 175.668874 61.933555 
L 176.878624 60.280161 
L 177.915552 59.248695 
L 178.779658 58.707162 
L 179.470944 58.507203 
L 180.162229 58.533938 
L 180.853514 58.805221 
L 181.5448 59.338908 
L 182.236085 60.152854 
L 183.100192 61.572234 
L 184.309941 64.110426 
L 187.420725 71.036062 
L 188.284832 72.409156 
L 188.976117 73.151371 
L 189.494581 73.452543 
L 190.013045 73.500973 
L 190.531509 73.288548 
L 191.049973 72.844412 
L 191.741259 71.948297 
L 192.605365 70.448674 
L 193.987936 67.529077 
L 196.061792 63.160146 
L 196.925899 61.772333 
L 197.617184 60.997088 
L 198.308469 60.566124 
L 198.826933 60.462204 
L 199.345397 60.539108 
L 200.036683 60.91181 
L 200.727968 61.579288 
L 201.592075 62.804932 
L 202.456181 64.437547 
L 203.493109 66.891947 
L 204.702859 70.373218 
L 206.085429 75.050867 
L 208.159286 82.970704 
L 211.961355 97.660194 
L 213.689568 103.345978 
L 215.936246 110.706747 
L 217.145995 115.462483 
L 218.182923 120.370828 
L 219.219851 126.310658 
L 220.256779 133.526258 
L 221.63935 145.03702 
L 224.058848 167.668424 
L 226.132704 186.122262 
L 227.342454 195.051004 
L 228.379382 201.031895 
L 229.243489 204.679098 
L 229.934774 206.663356 
L 230.453238 207.579724 
L 230.798881 207.908596 
L 231.144523 208.005773 
L 231.490166 207.866059 
L 231.835809 207.484258 
L 232.354273 206.446276 
L 232.872737 204.834368 
L 233.564022 201.762074 
L 234.255307 197.59672 
L 235.119414 190.790991 
L 236.156342 180.413906 
L 237.538913 163.882325 
L 242.032267 107.497546 
L 243.069195 97.922709 
L 243.933302 91.706681 
L 244.797409 87.110586 
L 245.488694 84.608547 
L 246.007158 83.421583 
L 246.525622 82.828706 
L 246.871265 82.764849 
L 247.216908 82.967052 
L 247.56255 83.436122 
L 248.081014 84.64187 
L 248.599478 86.452616 
L 249.290764 89.812765 
L 249.982049 94.25978 
L 250.846156 101.356803 
L 251.883084 112.146007 
L 252.920012 125.435213 
L 254.129761 144.128123 
L 255.33951 166.288166 
L 256.722081 195.90385 
L 257.413366 212.443016 
L 257.413366 212.443016 
" clip-path="url(#p48a854d7aa)" style="fill: none; stroke: #1f77b4; stroke-width: 1.5; stroke-linecap: square"/>
   </g>
   <g id="line2d_13">
    <path d="M 84.764851 91.69393 
L 85.974601 117.669791 
L 87.011529 135.717338 
L 88.048457 150.114964 
L 88.912564 159.491031 
L 89.77667 166.625685 
L 90.467956 170.809168 
L 91.159241 173.711706 
L 91.677705 175.089045 
L 92.196169 175.813034 
L 92.541812 175.94694 
L 92.887454 175.811797 
L 93.233097 175.416134 
L 93.751561 174.352829 
L 94.270025 172.751343 
L 94.96131 169.828624 
L 95.825417 165.005728 
L 96.862345 157.678941 
L 98.072094 147.299763 
L 99.454665 133.470875 
L 103.94802 86.171083 
L 104.812126 79.965856 
L 105.503412 76.407404 
L 106.021876 74.705456 
L 106.367519 74.083706 
L 106.713161 73.904904 
L 107.058804 74.197025 
L 107.404447 74.987626 
L 107.922911 77.107748 
L 108.441375 80.25679 
L 109.13266 85.867116 
L 109.996767 94.784287 
L 111.206516 109.91604 
L 113.453193 141.827067 
L 115.181407 165.093177 
L 116.391156 178.674063 
L 117.428084 188.084553 
L 118.292191 194.157749 
L 118.983476 197.751445 
L 119.674761 200.138356 
L 120.193225 201.090792 
L 120.538868 201.308982 
L 120.884511 201.182656 
L 121.230153 200.702299 
L 121.575796 199.858395 
L 122.09426 197.890076 
L 122.612724 195.055113 
L 123.304009 190.010467 
L 124.168116 181.993254 
L 125.377865 168.380697 
L 127.624543 139.606253 
L 129.352756 118.520036 
L 130.562506 106.375443 
L 131.599434 98.028066 
L 132.636362 91.32035 
L 133.67329 85.991556 
L 134.710218 81.780942 
L 135.747146 78.427768 
L 136.956895 75.251583 
L 138.685108 71.415494 
L 140.067679 68.830334 
L 141.277428 66.982237 
L 142.314356 65.744532 
L 143.351284 64.859044 
L 144.215391 64.412395 
L 145.079498 64.249039 
L 145.943604 64.350155 
L 146.980533 64.708334 
L 149.918495 65.883309 
L 150.782602 65.92426 
L 151.473887 65.751058 
L 152.165173 65.347546 
L 152.856458 64.678194 
L 153.720565 63.516747 
L 155.103135 61.191228 
L 157.349813 57.325804 
L 158.386741 55.999995 
L 159.078026 55.42466 
L 159.59649 55.198986 
L 160.114954 55.177212 
L 160.633418 55.357707 
L 161.324703 55.870354 
L 162.18881 56.863699 
L 163.398559 58.701919 
L 166.509344 63.711603 
L 167.37345 64.635044 
L 168.064736 65.094808 
L 168.756021 65.330795 
L 169.620128 65.374051 
L 170.657056 65.163302 
L 174.286304 64.121888 
L 175.15041 64.25171 
L 175.841696 64.567694 
L 176.532981 65.098168 
L 177.224266 65.866022 
L 178.088373 67.194524 
L 178.95248 68.974402 
L 179.816586 71.25036 
L 180.853514 74.69928 
L 181.890442 79.004183 
L 182.92737 84.23693 
L 184.13712 91.476891 
L 185.692512 102.320348 
L 187.593547 117.419376 
L 190.185867 140.133889 
L 194.333579 176.664303 
L 196.061792 189.686593 
L 197.271541 197.347289 
L 198.308469 202.708953 
L 199.172576 206.192937 
L 199.863861 208.263415 
L 200.555147 209.640893 
L 201.073611 210.188168 
L 201.419253 210.30957 
L 201.764896 210.228685 
L 202.110539 209.939061 
L 202.629003 209.099124 
L 203.147467 207.753227 
L 203.838752 205.134009 
L 204.530037 201.524971 
L 205.394144 195.55842 
L 206.431072 186.476971 
L 207.813643 171.96992 
L 210.405963 141.474879 
L 212.306998 120.359693 
L 213.689568 107.562229 
L 214.899318 98.262195 
L 216.109067 90.544868 
L 217.318816 84.23027 
L 218.528566 79.138421 
L 219.738315 75.089345 
L 220.775243 72.331981 
L 221.63935 70.550516 
L 222.503456 69.282431 
L 223.194742 68.665343 
L 223.713206 68.448206 
L 224.23167 68.451561 
L 224.750134 68.684325 
L 225.268598 69.155417 
L 225.959883 70.169689 
L 226.651168 71.644651 
L 227.342454 73.601445 
L 228.206561 76.739632 
L 229.243489 81.435035 
L 230.453238 88.014255 
L 232.00863 97.866896 
L 234.082486 112.665326 
L 237.711734 140.500452 
L 240.649697 164.605639 
L 243.414838 189.14749 
L 245.834337 210.292954 
L 247.216908 220.44798 
L 248.253836 226.473138 
L 249.117942 230.15423 
L 249.809228 232.068065 
L 250.327692 232.830123 
L 250.673334 232.991863 
L 251.018977 232.860589 
L 251.36462 232.42261 
L 251.710262 231.664236 
L 252.228726 229.895982 
L 252.74719 227.329822 
L 253.438476 222.587223 
L 254.129761 216.234443 
L 254.993868 205.86229 
L 255.857974 192.589157 
L 256.894902 172.530894 
L 257.413366 160.70419 
L 257.413366 160.70419 
" clip-path="url(#p48a854d7aa)" style="fill: none; stroke: #ff7f0e; stroke-width: 1.5; stroke-linecap: square"/>
   </g>
   <g id="line2d_14">
    <path d="M 84.764851 153.615043 
L 85.628958 170.051616 
L 86.493065 182.352971 
L 87.18435 189.455672 
L 87.875636 194.321501 
L 88.3941 196.612457 
L 88.912564 197.824404 
L 89.258206 198.070851 
L 89.603849 197.894637 
L 89.949492 197.318521 
L 90.467956 195.754318 
L 90.98642 193.418357 
L 91.677705 189.235996 
L 92.541812 182.548063 
L 93.751561 171.096925 
L 95.652596 150.339788 
L 97.899273 126.041629 
L 99.109022 115.120388 
L 99.973129 108.956905 
L 100.664414 105.230272 
L 101.3557 102.624827 
L 101.874164 101.425808 
L 102.219806 100.993531 
L 102.565449 100.859585 
L 102.911092 101.027977 
L 103.256734 101.502715 
L 103.775198 102.797987 
L 104.293662 104.805079 
L 104.984948 108.611855 
L 105.676233 113.740195 
L 106.54034 122.057911 
L 107.404447 132.552827 
L 108.614196 150.409157 
L 111.379337 192.691594 
L 112.243444 202.599825 
L 112.934729 208.253293 
L 113.453193 210.84822 
L 113.798836 211.680758 
L 113.971657 211.805004 
L 114.144479 211.724435 
L 114.3173 211.431451 
L 114.662943 210.17784 
L 115.008585 207.989491 
L 115.527049 203.030675 
L 116.218335 193.736349 
L 117.082441 178.771365 
L 118.465012 150.248777 
L 120.538868 107.61217 
L 121.402975 93.693372 
L 122.09426 85.537298 
L 122.612724 81.589887 
L 122.958367 80.024852 
L 123.304009 79.249698 
L 123.476831 79.140666 
L 123.649652 79.207911 
L 123.995295 79.842975 
L 124.340937 81.098377 
L 124.859401 84.020987 
L 125.550687 89.561516 
L 126.414794 98.493073 
L 127.970186 117.516084 
L 129.525578 135.940149 
L 130.389684 144.071261 
L 131.253791 150.201275 
L 131.945076 153.712189 
L 132.636362 156.027327 
L 133.154826 157.002569 
L 133.500468 157.299499 
L 133.846111 157.319568 
L 134.191754 157.067685 
L 134.537396 156.548756 
L 135.05586 155.280388 
L 135.574324 153.438773 
L 136.26561 150.120197 
L 137.129716 144.640077 
L 138.166644 136.28785 
L 140.067679 118.473092 
L 141.623071 104.892806 
L 142.487178 99.008681 
L 143.178463 95.626852 
L 143.696927 94.047036 
L 144.04257 93.514816 
L 144.388212 93.440136 
L 144.733855 93.857924 
L 145.079498 94.797065 
L 145.597962 97.127676 
L 146.289247 101.707993 
L 147.153354 109.267798 
L 148.535925 123.859076 
L 150.436959 143.989546 
L 151.301066 151.27172 
L 151.992351 155.546643 
L 152.510815 157.601525 
L 152.856458 158.373905 
L 153.202101 158.690392 
L 153.547743 158.574704 
L 153.893386 158.050556 
L 154.41185 156.550354 
L 154.930314 154.264522 
L 155.621599 150.133004 
L 156.485706 143.493688 
L 157.695455 132.109521 
L 159.59649 111.545852 
L 161.670346 89.594016 
L 162.707274 80.581413 
L 163.571381 74.819141 
L 164.262666 71.673121 
L 164.78113 70.316586 
L 165.126773 69.94309 
L 165.299594 69.92625 
L 165.645237 70.250135 
L 165.990879 71.074442 
L 166.336522 72.427569 
L 166.854986 75.510925 
L 167.37345 79.943859 
L 168.064736 87.981936 
L 168.928842 100.862448 
L 170.138592 122.513338 
L 173.422197 183.530465 
L 174.286304 195.512112 
L 174.977589 202.623232 
L 175.496053 206.300291 
L 176.014517 208.633574 
L 176.36016 209.494258 
L 176.705802 209.835265 
L 176.878624 209.820583 
L 177.224266 209.44024 
L 177.569909 208.617776 
L 178.088373 206.622963 
L 178.779658 202.705329 
L 179.643765 196.135693 
L 180.853514 184.684655 
L 186.72944 124.988702 
L 188.112011 114.097 
L 189.32176 106.335704 
L 190.185867 101.977732 
L 191.049973 98.638321 
L 191.91408 96.207544 
L 192.605365 94.837217 
L 193.296651 93.911405 
L 193.987936 93.369216 
L 194.679221 93.149756 
L 195.370507 93.192132 
L 196.234613 93.52054 
L 197.444363 94.281355 
L 199.345397 95.734145 
L 200.900789 97.182523 
L 202.456181 98.958047 
L 203.838752 100.881224 
L 205.221323 103.195141 
L 206.258251 105.369476 
L 207.122358 107.763987 
L 207.986464 110.937251 
L 208.850571 115.122845 
L 209.714678 120.554346 
L 210.578784 127.46533 
L 211.442891 136.089376 
L 212.479819 149.028018 
L 213.689568 167.564669 
L 216.973174 219.94163 
L 217.83728 229.975633 
L 218.528566 235.72624 
L 219.04703 238.423239 
L 219.392672 239.348899 
L 219.565494 239.529459 
L 219.738315 239.512699 
L 219.911136 239.291774 
L 220.256779 238.232669 
L 220.602422 236.390038 
L 221.120886 232.269339 
L 221.812171 224.512143 
L 222.676278 211.756656 
L 223.713206 193.02297 
L 225.441419 157.087634 
L 227.688097 110.840785 
L 228.897846 90.230654 
L 229.934774 76.098349 
L 230.798881 67.236235 
L 231.490166 62.285265 
L 232.00863 59.927354 
L 232.354273 59.039277 
L 232.699915 58.72223 
L 232.872737 58.784256 
L 233.218379 59.36223 
L 233.564022 60.562534 
L 234.082486 63.574747 
L 234.60095 68.102626 
L 235.292235 76.592077 
L 236.156342 90.672644 
L 237.366091 114.698836 
L 240.131233 171.761237 
L 240.995339 185.425764 
L 241.686625 193.465391 
L 242.205089 197.398434 
L 242.550731 198.877612 
L 242.896374 199.413828 
L 243.069195 199.34532 
L 243.414838 198.572163 
L 243.760481 197.00027 
L 244.278945 193.274618 
L 244.97023 186.065388 
L 245.834337 174.118753 
L 247.044086 153.576256 
L 250.500513 91.708177 
L 251.36462 80.451511 
L 252.055905 73.9495 
L 252.574369 70.84482 
L 252.920012 69.730032 
L 253.092833 69.481392 
L 253.265654 69.448478 
L 253.438476 69.638709 
L 253.784118 70.718276 
L 254.129761 72.779438 
L 254.648225 77.841487 
L 255.166689 85.445935 
L 255.857974 99.88622 
L 256.54926 119.677147 
L 257.240545 145.293472 
L 257.413366 152.663407 
L 257.413366 152.663407 
" clip-path="url(#p48a854d7aa)" style="fill: none; stroke: #2ca02c; stroke-width: 1.5; stroke-linecap: square"/>
   </g>
   <g id="line2d_15">
    <path d="M 67.5 52.287345 
L 274.678218 52.287345 
" clip-path="url(#p48a854d7aa)" style="fill: none; stroke-dasharray: 5.55,2.4; stroke-dashoffset: 0; stroke: #808080; stroke-opacity: 0.4; stroke-width: 1.5"/>
   </g>
   <g id="patch_3">
    <path d="M 67.5 256.32 
L 67.5 34.56 
" style="fill: none; stroke: #000000; stroke-width: 0.8; stroke-linejoin: miter; stroke-linecap: square"/>
   </g>
   <g id="patch_4">
    <path d="M 274.678218 256.32 
L 274.678218 34.56 
" style="fill: none; stroke: #000000; stroke-width: 0.8; stroke-linejoin: miter; stroke-linecap: square"/>
   </g>
   <g id="patch_5">
    <path d="M 67.5 256.32 
L 274.678218 256.32 
" style="fill: none; stroke: #000000; stroke-width: 0.8; stroke-linejoin: miter; stroke-linecap: square"/>
   </g>
   <g id="patch_6">
    <path d="M 67.5 34.56 
L 274.678218 34.56 
" style="fill: none; stroke: #000000; stroke-width: 0.8; stroke-linejoin: miter; stroke-linecap: square"/>
   </g>
   <g id="text_14">
    <!-- $J_0 =0.229$ -->
    <g transform="translate(148.104136 28.56) scale(0.1 -0.1)">
     <defs>
      <path id="CMMI12-4a" d="M 3418 3911 
C 3469 4102 3482 4166 3795 4166 
C 3898 4166 3962 4166 3962 4281 
C 3962 4352 3904 4352 3878 4352 
C 3770 4352 3648 4339 3533 4339 
L 3181 4339 
C 2912 4339 2630 4352 2362 4352 
C 2304 4352 2227 4352 2227 4236 
C 2227 4172 2278 4172 2278 4166 
L 2438 4166 
C 2950 4166 2950 4115 2950 4019 
C 2950 4013 2950 3968 2925 3866 
L 2189 953 
C 2022 304 1594 0 1286 0 
C 1069 0 762 99 685 428 
C 710 422 742 415 768 415 
C 979 415 1146 601 1146 787 
C 1146 889 1082 1024 890 1024 
C 774 1024 506 959 506 543 
C 506 149 838 -128 1299 -128 
C 1882 -128 2509 304 2662 908 
L 3418 3911 
z
" transform="scale(0.015625)"/>
      <path id="CMR17-3d" d="M 4115 2048 
C 4211 2048 4307 2048 4307 2156 
C 4307 2272 4198 2272 4090 2272 
L 512 2272 
C 403 2272 294 2272 294 2156 
C 294 2048 390 2048 486 2048 
L 4115 2048 
z
M 4090 927 
C 4198 927 4307 927 4307 1043 
C 4307 1152 4211 1152 4115 1152 
L 486 1152 
C 390 1152 294 1152 294 1043 
C 294 927 403 927 512 927 
L 4090 927 
z
" transform="scale(0.015625)"/>
      <path id="CMR17-39" d="M 2253 1871 
C 2253 448 1670 25 1190 25 
C 1043 25 685 43 538 281 
C 704 256 826 345 826 505 
C 826 678 685 736 595 736 
C 538 736 365 710 365 492 
C 365 68 742 -128 1203 -128 
C 1939 -128 2688 665 2688 2090 
C 2688 3857 1971 4224 1485 4224 
C 851 4224 243 3664 243 2800 
C 243 2000 762 1408 1414 1408 
C 1952 1408 2189 1910 2253 2122 
L 2253 1871 
z
M 1427 1510 
C 1254 1510 1011 1542 813 1929 
C 678 2181 678 2477 678 2793 
C 678 3174 678 3438 858 3722 
C 947 3857 1114 4076 1485 4076 
C 2240 4076 2240 2909 2240 2651 
C 2240 2193 2035 1510 1427 1510 
z
" transform="scale(0.015625)"/>
     </defs>
     <use xlink:href="#CMMI12-4a" transform="scale(0.996264)"/>
     <use xlink:href="#CMR17-30" transform="translate(53.917955 -14.943915) scale(0.697382)"/>
     <use xlink:href="#CMR17-3d" transform="translate(114.073278 0) scale(0.996264)"/>
     <use xlink:href="#CMR17-30" transform="translate(213.462075 0) scale(0.996264)"/>
     <use xlink:href="#CMMI12-3a" transform="translate(259.152552 0) scale(0.996264)"/>
     <use xlink:href="#CMR17-32" transform="translate(286.249729 0) scale(0.996264)"/>
     <use xlink:href="#CMR17-32" transform="translate(331.940207 0) scale(0.996264)"/>
     <use xlink:href="#CMR17-39" transform="translate(377.630684 0) scale(0.996264)"/>
    </g>
   </g>
   <g id="legend_1">
    <g id="line2d_16">
     <path d="M 75.6 217.563669 
L 84.6 217.563669 
L 93.6 217.563669 
" style="fill: none; stroke: #1f77b4; stroke-width: 1.5; stroke-linecap: square"/>
    </g>
    <g id="text_15">
     <!-- $N-10$ -->
     <g transform="translate(100.8 220.713669) scale(0.09 -0.09)">
      <defs>
       <path id="CMMI12-4e" d="M 4736 3682 
C 4806 3956 4909 4147 5395 4166 
C 5414 4166 5491 4172 5491 4281 
C 5491 4352 5434 4352 5408 4352 
C 5280 4352 4954 4339 4826 4339 
L 4518 4339 
C 4429 4339 4314 4352 4224 4352 
C 4186 4352 4109 4352 4109 4230 
C 4109 4166 4160 4166 4205 4166 
C 4589 4153 4614 4007 4614 3892 
C 4614 3835 4608 3816 4589 3726 
L 3866 854 
L 2496 4243 
C 2451 4345 2445 4352 2304 4352 
L 1523 4352 
C 1395 4352 1338 4352 1338 4230 
C 1338 4166 1382 4166 1504 4166 
C 1536 4166 1914 4166 1914 4109 
C 1914 4096 1901 4045 1894 4026 
L 1043 650 
C 966 338 813 204 390 185 
C 358 185 294 179 294 64 
C 294 0 358 0 378 0 
C 506 0 832 12 960 12 
L 1267 12 
C 1357 12 1466 0 1555 0 
C 1600 0 1670 0 1670 121 
C 1670 179 1606 185 1581 185 
C 1370 191 1165 230 1165 459 
C 1165 510 1178 567 1190 618 
L 2054 4026 
C 2093 3962 2093 3949 2118 3892 
L 3642 115 
C 3674 38 3686 0 3744 0 
C 3808 0 3814 19 3840 128 
L 4736 3682 
z
" transform="scale(0.015625)"/>
      </defs>
      <use xlink:href="#CMMI12-4e" transform="scale(0.996264)"/>
      <use xlink:href="#CMSY10-0" transform="translate(110.66098 0) scale(0.996264)"/>
      <use xlink:href="#CMR17-31" transform="translate(210.287654 0) scale(0.996264)"/>
      <use xlink:href="#CMR17-30" transform="translate(255.978131 0) scale(0.996264)"/>
     </g>
    </g>
    <g id="line2d_17">
     <path d="M 75.6 230.361942 
L 84.6 230.361942 
L 93.6 230.361942 
" style="fill: none; stroke: #ff7f0e; stroke-width: 1.5; stroke-linecap: square"/>
    </g>
    <g id="text_16">
     <!-- $N-8$ -->
     <g transform="translate(100.8 233.511942) scale(0.09 -0.09)">
      <use xlink:href="#CMMI12-4e" transform="scale(0.996264)"/>
      <use xlink:href="#CMSY10-0" transform="translate(110.66098 0) scale(0.996264)"/>
      <use xlink:href="#CMR17-38" transform="translate(210.287654 0) scale(0.996264)"/>
     </g>
    </g>
    <g id="line2d_18">
     <path d="M 75.6 243.160215 
L 84.6 243.160215 
L 93.6 243.160215 
" style="fill: none; stroke: #2ca02c; stroke-width: 1.5; stroke-linecap: square"/>
    </g>
    <g id="text_17">
     <!-- $N-6$ -->
     <g transform="translate(100.8 246.310215) scale(0.09 -0.09)">
      <use xlink:href="#CMMI12-4e" transform="scale(0.996264)"/>
      <use xlink:href="#CMSY10-0" transform="translate(110.66098 0) scale(0.996264)"/>
      <use xlink:href="#CMR17-36" transform="translate(210.287654 0) scale(0.996264)"/>
     </g>
    </g>
   </g>
  </g>
  <g id="axes_2">
   <g id="patch_7">
    <path d="M 278.821782 256.32 
L 486 256.32 
L 486 34.56 
L 278.821782 34.56 
z
" style="fill: #ffffff"/>
   </g>
   <g id="PolyCollection_2">
    <defs>
     <path id="maa6c79fc62" d="M 416.940594 -41.76 
L 347.881188 -41.76 
L 347.881188 -235.712655 
L 416.940594 -235.712655 
L 416.940594 -235.712655 
L 416.940594 -41.76 
z
" style="stroke: #808080; stroke-opacity: 0.15"/>
    </defs>
    <g clip-path="url(#p2bd77fa705)">
     <use xlink:href="#maa6c79fc62" x="0" y="288" style="fill: #808080; fill-opacity: 0.15; stroke: #808080; stroke-opacity: 0.15"/>
    </g>
   </g>
   <g id="matplotlib.axis_3">
    <g id="xtick_6">
     <g id="line2d_19">
      <g>
       <use xlink:href="#m61f2a7ce40" x="296.086634" y="256.32" style="stroke: #000000; stroke-width: 0.8"/>
      </g>
     </g>
     <g id="text_18">
      <!-- $\mathdefault{−0.5}$ -->
      <g transform="translate(283.958568 268.337984) scale(0.12 -0.12)">
       <use xlink:href="#CMSY10-0" transform="scale(0.996264)"/>
       <use xlink:href="#CMR17-30" transform="translate(77.487468 0) scale(0.996264)"/>
       <use xlink:href="#CMMI12-3a" transform="translate(123.177945 0) scale(0.996264)"/>
       <use xlink:href="#CMR17-35" transform="translate(150.275122 0) scale(0.996264)"/>
      </g>
     </g>
    </g>
    <g id="xtick_7">
     <g id="line2d_20">
      <g>
       <use xlink:href="#m61f2a7ce40" x="347.881188" y="256.32" style="stroke: #000000; stroke-width: 0.8"/>
      </g>
     </g>
     <g id="text_19">
      <!-- $\mathdefault{−0.2}$ -->
      <g transform="translate(335.753123 268.337984) scale(0.12 -0.12)">
       <use xlink:href="#CMSY10-0" transform="scale(0.996264)"/>
       <use xlink:href="#CMR17-30" transform="translate(77.487468 0) scale(0.996264)"/>
       <use xlink:href="#CMMI12-3a" transform="translate(123.177945 0) scale(0.996264)"/>
       <use xlink:href="#CMR17-32" transform="translate(150.275122 0) scale(0.996264)"/>
      </g>
     </g>
    </g>
    <g id="xtick_8">
     <g id="line2d_21">
      <g>
       <use xlink:href="#m61f2a7ce40" x="382.410891" y="256.32" style="stroke: #000000; stroke-width: 0.8"/>
      </g>
     </g>
     <g id="text_20">
      <!-- $\mathdefault{0.0}$ -->
      <g transform="translate(374.93207 268.337984) scale(0.12 -0.12)">
       <use xlink:href="#CMR17-30" transform="scale(0.996264)"/>
       <use xlink:href="#CMMI12-3a" transform="translate(45.690477 0) scale(0.996264)"/>
       <use xlink:href="#CMR17-30" transform="translate(72.787654 0) scale(0.996264)"/>
      </g>
     </g>
    </g>
    <g id="xtick_9">
     <g id="line2d_22">
      <g>
       <use xlink:href="#m61f2a7ce40" x="416.940594" y="256.32" style="stroke: #000000; stroke-width: 0.8"/>
      </g>
     </g>
     <g id="text_21">
      <!-- $\mathdefault{0.2}$ -->
      <g transform="translate(409.461773 268.337984) scale(0.12 -0.12)">
       <use xlink:href="#CMR17-30" transform="scale(0.996264)"/>
       <use xlink:href="#CMMI12-3a" transform="translate(45.690477 0) scale(0.996264)"/>
       <use xlink:href="#CMR17-32" transform="translate(72.787654 0) scale(0.996264)"/>
      </g>
     </g>
    </g>
    <g id="xtick_10">
     <g id="line2d_23">
      <g>
       <use xlink:href="#m61f2a7ce40" x="468.735149" y="256.32" style="stroke: #000000; stroke-width: 0.8"/>
      </g>
     </g>
     <g id="text_22">
      <!-- $\mathdefault{0.5}$ -->
      <g transform="translate(461.256328 268.337984) scale(0.12 -0.12)">
       <use xlink:href="#CMR17-30" transform="scale(0.996264)"/>
       <use xlink:href="#CMMI12-3a" transform="translate(45.690477 0) scale(0.996264)"/>
       <use xlink:href="#CMR17-35" transform="translate(72.787654 0) scale(0.996264)"/>
      </g>
     </g>
    </g>
    <g id="text_23">
     <!-- deviation$(\Delta$) -->
     <g transform="translate(349.524024 283.850735) scale(0.12 -0.12)">
      <use xlink:href="#NimbusSanL-Regu-64" transform="scale(0.996264)"/>
      <use xlink:href="#NimbusSanL-Regu-65" transform="translate(55.391677 0) scale(0.996264)"/>
      <use xlink:href="#NimbusSanL-Regu-76" transform="translate(107.795246 0) scale(0.996264)"/>
      <use xlink:href="#NimbusSanL-Regu-69" transform="translate(157.608446 0) scale(0.996264)"/>
      <use xlink:href="#NimbusSanL-Regu-61" transform="translate(179.725231 0) scale(0.996264)"/>
      <use xlink:href="#NimbusSanL-Regu-74" transform="translate(235.116908 0) scale(0.996264)"/>
      <use xlink:href="#NimbusSanL-Regu-69" transform="translate(262.812077 0) scale(0.996264)"/>
      <use xlink:href="#NimbusSanL-Regu-6f" transform="translate(284.928862 0) scale(0.996264)"/>
      <use xlink:href="#NimbusSanL-Regu-6e" transform="translate(340.320539 0) scale(0.996264)"/>
      <use xlink:href="#CMR17-28" transform="translate(395.712216 0) scale(0.996264)"/>
      <use xlink:href="#CMR17-1" transform="translate(430.992983 0) scale(0.996264)"/>
      <use xlink:href="#NimbusSanL-Regu-29" transform="translate(507.912573 0) scale(0.996264)"/>
     </g>
    </g>
   </g>
   <g id="matplotlib.axis_4">
    <g id="ytick_7">
     <g id="line2d_24">
      <g>
       <use xlink:href="#m064e15a603" x="278.821782" y="246.24" style="stroke: #000000; stroke-width: 0.8"/>
      </g>
     </g>
    </g>
    <g id="ytick_8">
     <g id="line2d_25">
      <g>
       <use xlink:href="#m064e15a603" x="278.821782" y="207.449469" style="stroke: #000000; stroke-width: 0.8"/>
      </g>
     </g>
    </g>
    <g id="ytick_9">
     <g id="line2d_26">
      <g>
       <use xlink:href="#m064e15a603" x="278.821782" y="168.658938" style="stroke: #000000; stroke-width: 0.8"/>
      </g>
     </g>
    </g>
    <g id="ytick_10">
     <g id="line2d_27">
      <g>
       <use xlink:href="#m064e15a603" x="278.821782" y="129.868407" style="stroke: #000000; stroke-width: 0.8"/>
      </g>
     </g>
    </g>
    <g id="ytick_11">
     <g id="line2d_28">
      <g>
       <use xlink:href="#m064e15a603" x="278.821782" y="91.077876" style="stroke: #000000; stroke-width: 0.8"/>
      </g>
     </g>
    </g>
    <g id="ytick_12">
     <g id="line2d_29">
      <g>
       <use xlink:href="#m064e15a603" x="278.821782" y="52.287345" style="stroke: #000000; stroke-width: 0.8"/>
      </g>
     </g>
    </g>
   </g>
   <g id="line2d_30">
    <path d="M 296.086634 234.441463 
L 297.469204 211.919275 
L 298.851775 193.105886 
L 300.061524 179.555476 
L 301.271274 168.60527 
L 302.308202 161.204264 
L 303.172308 156.382625 
L 304.036415 152.741084 
L 304.7277 150.650166 
L 305.418986 149.267618 
L 305.93745 148.683038 
L 306.455914 148.4764 
L 306.801557 148.544268 
L 307.320021 148.947996 
L 307.838485 149.70622 
L 308.52977 151.253428 
L 309.221055 153.394381 
L 310.085162 156.873775 
L 311.12209 162.173346 
L 312.504661 170.719937 
L 314.232874 181.29241 
L 315.096981 185.437751 
L 315.788266 187.772305 
L 316.30673 188.790624 
L 316.652373 189.06353 
L 316.998015 188.976119 
L 317.343658 188.497928 
L 317.689301 187.598494 
L 318.207765 185.392877 
L 318.726229 182.068652 
L 319.417514 175.882405 
L 320.281621 165.81132 
L 321.49137 148.647667 
L 325.120618 94.485943 
L 325.984725 85.151452 
L 326.67601 79.672455 
L 327.367296 76.015334 
L 327.88576 74.407259 
L 328.231402 73.851742 
L 328.577045 73.694624 
L 328.922688 73.923194 
L 329.26833 74.524742 
L 329.786794 76.098594 
L 330.305258 78.440154 
L 330.996544 82.682302 
L 331.86065 89.642111 
L 332.897578 100.162183 
L 334.107328 114.984735 
L 336.008362 141.805511 
L 338.600682 178.131291 
L 339.810432 192.116672 
L 340.674538 200.035925 
L 341.365824 204.807138 
L 342.057109 208.126608 
L 342.575573 209.788616 
L 343.094037 210.849321 
L 343.612501 211.405983 
L 344.130965 211.555859 
L 344.649429 211.396208 
L 345.340714 210.869954 
L 346.896107 209.500246 
L 347.414571 209.332366 
L 347.760213 209.384687 
L 348.105856 209.602021 
L 348.62432 210.300461 
L 349.142784 211.49893 
L 349.834069 213.738087 
L 351.043819 218.676042 
L 352.599211 224.943989 
L 353.290496 226.982901 
L 353.80896 227.978623 
L 354.154603 228.326303 
L 354.500245 228.382434 
L 354.845888 228.113893 
L 355.191531 227.487559 
L 355.709995 225.804741 
L 356.228459 223.130776 
L 356.919744 217.96025 
L 357.783851 209.261005 
L 358.820779 196.256975 
L 360.376171 173.453542 
L 363.314133 129.79474 
L 364.523883 115.486014 
L 365.560811 105.721771 
L 366.597739 98.103561 
L 367.461846 93.280457 
L 368.325952 89.746607 
L 369.017238 87.786379 
L 369.708523 86.545999 
L 370.226987 86.059967 
L 370.745451 85.932793 
L 371.263915 86.144725 
L 371.782379 86.674283 
L 372.473664 87.830869 
L 373.16495 89.446618 
L 374.029056 92.019432 
L 375.238806 96.441193 
L 376.967019 103.825319 
L 380.250624 118.125739 
L 381.287552 121.739335 
L 382.151659 124.060544 
L 382.842944 125.345959 
L 383.361408 125.92069 
L 383.879872 126.121764 
L 384.225515 126.030473 
L 384.571158 125.746481 
L 385.089622 124.935878 
L 385.608086 123.63178 
L 386.299371 121.063642 
L 387.163478 116.582758 
L 388.373227 108.842629 
L 390.274262 96.538962 
L 391.138369 92.229804 
L 391.829654 89.884454 
L 392.348118 88.951814 
L 392.693761 88.78912 
L 393.039403 89.034467 
L 393.385046 89.722819 
L 393.730689 90.889067 
L 394.249153 93.547938 
L 394.940438 98.570273 
L 395.804545 106.703902 
L 397.187115 122.309462 
L 399.260971 145.939718 
L 400.297899 155.15947 
L 400.989185 159.500061 
L 401.507649 161.558659 
L 401.853291 162.360037 
L 402.198934 162.755891 
L 402.544577 162.791301 
L 402.890219 162.511346 
L 403.408683 161.598719 
L 404.099969 159.698854 
L 406.692289 151.510676 
L 407.210753 150.787228 
L 407.556396 150.662057 
L 407.902038 150.875181 
L 408.247681 151.47168 
L 408.593324 152.496634 
L 409.111788 154.905011 
L 409.803073 159.554831 
L 410.66718 167.086522 
L 412.568214 186.513477 
L 413.777964 197.737441 
L 414.64207 203.696076 
L 415.160534 206.052316 
L 415.506177 207.005376 
L 415.85182 207.402693 
L 416.024641 207.376466 
L 416.197462 207.191527 
L 416.543105 206.336703 
L 417.061569 203.919476 
L 417.580033 200.278461 
L 418.271318 193.788834 
L 419.135425 183.56748 
L 420.517996 164.035269 
L 423.283137 123.924245 
L 424.320065 112.271811 
L 425.184172 104.814201 
L 426.048278 99.304978 
L 426.739564 96.230543 
L 427.258028 94.667319 
L 427.776492 93.715648 
L 428.122135 93.409857 
L 428.467777 93.359226 
L 428.81342 93.557097 
L 429.159063 93.996814 
L 429.677527 95.095289 
L 430.195991 96.700472 
L 430.887276 99.590099 
L 431.751383 104.312637 
L 433.133953 113.455438 
L 434.862167 124.609811 
L 435.726273 128.810107 
L 436.244737 130.573462 
L 436.763201 131.624269 
L 437.108844 131.870387 
L 437.454487 131.711979 
L 437.800129 131.11391 
L 438.145772 130.041043 
L 438.664236 127.464641 
L 439.1827 123.669032 
L 439.873985 117.020828 
L 441.083735 102.682637 
L 442.984769 79.912843 
L 443.848876 72.302825 
L 444.36734 69.261661 
L 444.712983 68.023713 
L 445.058625 67.503679 
L 445.231447 67.536001 
L 445.404268 67.775546 
L 445.749911 68.913303 
L 446.095553 70.990936 
L 446.614017 75.987591 
L 447.305303 85.833159 
L 448.16941 102.153257 
L 449.55198 133.92049 
L 451.798658 185.854691 
L 452.662764 201.141576 
L 453.35405 209.874454 
L 453.872514 213.870631 
L 454.218156 215.207279 
L 454.390978 215.4931 
L 454.563799 215.533729 
L 454.73662 215.33652 
L 455.082263 214.258018 
L 455.427906 212.316444 
L 455.94637 207.91456 
L 456.637655 199.573903 
L 457.501762 185.838132 
L 458.711511 162.0773 
L 463.204866 67.518642 
L 464.068972 55.416887 
L 464.760258 48.693045 
L 465.278722 45.684373 
L 465.624364 44.757608 
L 465.797186 44.64 
L 465.970007 44.762716 
L 466.31565 45.758546 
L 466.661292 47.80395 
L 467.179756 52.968742 
L 467.69822 60.826109 
L 468.389506 75.834342 
L 468.735149 85.41305 
L 468.735149 85.41305 
" clip-path="url(#p2bd77fa705)" style="fill: none; stroke: #1f77b4; stroke-width: 1.5; stroke-linecap: square"/>
   </g>
   <g id="line2d_31">
    <path d="M 296.086634 79.090167 
L 297.123562 119.492582 
L 298.16049 151.720348 
L 299.024596 172.833132 
L 299.888703 189.152902 
L 300.75281 201.081398 
L 301.444095 207.732446 
L 301.962559 211.168863 
L 302.481023 213.371524 
L 302.826666 214.197396 
L 303.172308 214.539211 
L 303.34513 214.536631 
L 303.690772 214.200568 
L 304.036415 213.444725 
L 304.554879 211.580117 
L 305.246164 207.864716 
L 306.110271 201.534127 
L 307.147199 191.994419 
L 308.702591 175.156796 
L 311.640554 142.634787 
L 313.023125 129.924432 
L 314.405695 119.26175 
L 315.615445 111.581287 
L 316.652373 106.202706 
L 317.689301 101.918939 
L 318.553407 99.1737 
L 319.417514 97.163904 
L 320.108799 96.06351 
L 320.800085 95.392437 
L 321.318549 95.158803 
L 321.837013 95.146907 
L 322.355477 95.348285 
L 322.873941 95.75447 
L 323.565226 96.600006 
L 324.429333 98.117206 
L 325.293439 100.109247 
L 326.330367 103.071186 
L 327.712938 107.8341 
L 329.613973 115.344929 
L 333.243221 129.835407 
L 334.798613 134.995023 
L 337.563754 143.900021 
L 338.773504 148.736488 
L 339.810432 153.798945 
L 340.84736 159.986737 
L 341.884288 167.509614 
L 343.612501 182.07985 
L 346.032 202.320325 
L 347.068928 209.354627 
L 347.933035 213.859866 
L 348.62432 216.338477 
L 349.142784 217.449924 
L 349.488427 217.846568 
L 349.834069 217.986333 
L 350.179712 217.885144 
L 350.525355 217.558925 
L 351.043819 216.682497 
L 351.735104 214.874943 
L 352.599211 211.767711 
L 353.636139 207.124037 
L 355.709995 196.490296 
L 357.611029 187.261155 
L 360.030528 175.516337 
L 361.413099 167.560274 
L 362.622848 159.200377 
L 363.832597 149.071931 
L 365.215168 135.264955 
L 369.36288 92.267536 
L 370.399808 84.282862 
L 371.263915 79.355635 
L 371.9552 76.73652 
L 372.473664 75.541812 
L 372.819307 75.103615 
L 373.16495 74.946926 
L 373.510592 75.067364 
L 373.856235 75.460547 
L 374.374699 76.552135 
L 374.893163 78.232755 
L 375.584448 81.364296 
L 376.448555 86.660935 
L 377.312662 93.429472 
L 378.34959 103.398231 
L 379.559339 117.358714 
L 381.633195 144.576516 
L 383.707051 170.975471 
L 384.9168 183.69936 
L 385.780907 190.778485 
L 386.472192 194.919292 
L 386.990656 197.065597 
L 387.509121 198.413881 
L 387.854763 198.882407 
L 388.200406 199.015778 
L 388.546049 198.821803 
L 388.891691 198.308291 
L 389.410155 196.95597 
L 389.928619 194.928614 
L 390.619905 191.220965 
L 391.484011 185.059864 
L 392.520939 175.588668 
L 393.730689 161.940482 
L 395.286081 141.231584 
L 398.051222 103.978488 
L 399.08815 92.710844 
L 399.952257 85.480116 
L 400.643542 81.484327 
L 401.162006 79.70625 
L 401.507649 79.155244 
L 401.853291 79.101219 
L 402.198934 79.518651 
L 402.544577 80.382018 
L 403.063041 82.457363 
L 403.754326 86.547041 
L 404.618433 93.497532 
L 405.655361 104.008013 
L 407.037931 120.572692 
L 411.185644 172.05089 
L 412.222572 181.448352 
L 412.913857 186.13723 
L 413.605142 189.299232 
L 414.123606 190.531566 
L 414.469249 190.757224 
L 414.64207 190.680596 
L 414.987713 190.130614 
L 415.333356 189.027914 
L 415.85182 186.275174 
L 416.370284 182.12094 
L 417.061569 174.500854 
L 418.098497 159.772477 
L 421.727745 104.256008 
L 422.41903 97.779174 
L 422.937494 94.692032 
L 423.283137 93.616303 
L 423.455958 93.401005 
L 423.62878 93.413131 
L 423.801601 93.661244 
L 424.147244 94.850066 
L 424.492886 96.896689 
L 425.01135 101.401302 
L 425.702636 109.668647 
L 426.739564 125.624756 
L 430.368812 185.989804 
L 431.060097 193.15664 
L 431.578561 196.676554 
L 432.097025 198.595995 
L 432.442668 199.064008 
L 432.615489 199.072163 
L 432.961132 198.666151 
L 433.306775 197.73623 
L 433.825239 195.461865 
L 434.516524 191.034524 
L 435.380631 183.787562 
L 436.763201 169.965806 
L 438.491415 152.890124 
L 439.528343 144.887107 
L 440.392449 139.869169 
L 441.256556 136.221289 
L 441.947841 134.205755 
L 442.639127 132.92362 
L 443.157591 132.404963 
L 443.676055 132.23609 
L 444.194519 132.390105 
L 444.712983 132.840116 
L 445.404268 133.854081 
L 446.095553 135.282697 
L 447.132481 138.037125 
L 450.070444 146.376942 
L 450.76173 147.674935 
L 451.280194 148.309146 
L 451.798658 148.590685 
L 452.1443 148.554954 
L 452.489943 148.321242 
L 452.835586 147.873051 
L 453.35405 146.762533 
L 453.872514 145.077251 
L 454.563799 141.942765 
L 455.427906 136.885886 
L 456.810476 127.166071 
L 459.057154 111.122565 
L 460.094082 105.360175 
L 460.785367 102.61676 
L 461.303831 101.290621 
L 461.649474 100.805883 
L 461.995116 100.672399 
L 462.340759 100.917399 
L 462.686402 101.568115 
L 463.032044 102.651778 
L 463.550508 105.148617 
L 464.068972 108.772762 
L 464.760258 115.517393 
L 465.451543 124.647362 
L 466.31565 139.746086 
L 467.179756 159.337778 
L 468.043863 183.847927 
L 468.735149 207.283263 
L 468.735149 207.283263 
" clip-path="url(#p2bd77fa705)" style="fill: none; stroke: #ff7f0e; stroke-width: 1.5; stroke-linecap: square"/>
   </g>
   <g id="line2d_32">
    <path d="M 296.086634 72.018091 
L 297.469204 71.399568 
L 299.024596 70.445653 
L 301.444095 68.649149 
L 304.900522 66.097711 
L 306.455914 65.214483 
L 307.838485 64.683635 
L 309.048234 64.473626 
L 310.085162 64.520488 
L 311.12209 64.808357 
L 312.159018 65.342579 
L 313.887231 66.534031 
L 315.615445 67.66705 
L 316.652373 68.110115 
L 317.516479 68.247128 
L 318.207765 68.159597 
L 318.89905 67.863448 
L 319.763157 67.232215 
L 322.528298 64.944626 
L 323.219583 64.717189 
L 323.738047 64.735607 
L 324.256511 64.95276 
L 324.774975 65.401709 
L 325.293439 66.115518 
L 325.984725 67.536413 
L 326.67601 69.546065 
L 327.540117 72.76281 
L 328.922688 78.917885 
L 331.169365 89.073642 
L 332.206293 92.74406 
L 332.897578 94.511089 
L 333.416042 95.38352 
L 333.934506 95.808824 
L 334.280149 95.845439 
L 334.625792 95.703245 
L 335.144256 95.190929 
L 335.835541 94.036642 
L 336.699648 92.022887 
L 338.082218 88.091717 
L 339.63761 83.787676 
L 340.501717 81.982317 
L 341.193002 81.062942 
L 341.711466 80.761192 
L 342.057109 80.765579 
L 342.402752 80.945963 
L 342.921216 81.568191 
L 343.43968 82.642107 
L 343.958144 84.201129 
L 344.649429 87.092196 
L 345.340714 90.984299 
L 346.204821 97.377812 
L 347.068928 105.613933 
L 347.933035 115.847374 
L 348.969963 130.971683 
L 350.352533 155.109384 
L 353.117675 204.214352 
L 354.154603 218.377367 
L 354.845888 225.339682 
L 355.364352 228.946835 
L 355.882816 230.963854 
L 356.228459 231.333779 
L 356.40128 231.212596 
L 356.746923 230.380102 
L 357.092565 228.799417 
L 357.611029 225.126976 
L 358.302315 218.044551 
L 359.166421 206.200288 
L 360.203349 188.556514 
L 361.758741 157.682191 
L 364.696704 98.53557 
L 365.906453 78.739158 
L 366.77056 67.500372 
L 367.461846 60.655215 
L 368.153131 56.009977 
L 368.671595 54.132154 
L 369.017238 53.70836 
L 369.190059 53.757545 
L 369.535702 54.39917 
L 369.881344 55.793259 
L 370.399808 59.369084 
L 370.918272 64.82778 
L 371.609558 75.178224 
L 372.473664 92.352942 
L 373.856235 125.808575 
L 375.930091 176.766116 
L 376.794198 193.662441 
L 377.485483 203.70296 
L 378.003947 208.658657 
L 378.34959 210.541159 
L 378.522411 211.016971 
L 378.695232 211.165181 
L 378.868054 210.980958 
L 379.213696 209.667292 
L 379.559339 207.191188 
L 380.077803 201.554333 
L 380.769088 191.065984 
L 381.806016 170.87193 
L 384.571158 113.236366 
L 385.262443 103.055839 
L 385.780907 97.712007 
L 386.12655 95.46085 
L 386.472192 94.369558 
L 386.645014 94.244931 
L 386.817835 94.383496 
L 387.163478 95.397691 
L 387.509121 97.307124 
L 388.027585 101.620117 
L 388.71887 109.523929 
L 389.755798 124.28699 
L 391.656833 151.821936 
L 392.348118 159.228478 
L 392.866582 163.044201 
L 393.212225 164.562922 
L 393.557867 165.139046 
L 393.730689 165.041003 
L 394.076331 164.063832 
L 394.421974 162.132739 
L 394.940438 157.685901 
L 395.631723 149.435252 
L 396.668651 133.855585 
L 398.742507 101.952517 
L 399.433793 94.294704 
L 399.952257 90.433964 
L 400.297899 88.960971 
L 400.470721 88.595594 
L 400.643542 88.495795 
L 400.816363 88.675196 
L 401.162006 89.926093 
L 401.507649 92.423627 
L 402.026113 98.323099 
L 402.717398 109.569561 
L 403.581505 127.691796 
L 405.309718 170.259324 
L 406.692289 201.988273 
L 407.556396 216.979851 
L 408.07486 223.214726 
L 408.593324 226.87766 
L 408.938966 227.702668 
L 409.111788 227.627235 
L 409.284609 227.242396 
L 409.630252 225.592807 
L 410.148716 221.099778 
L 410.66718 214.474195 
L 411.358465 202.886313 
L 412.395393 181.173409 
L 416.024641 99.625579 
L 416.888748 87.134708 
L 417.580033 80.22411 
L 418.098497 76.683372 
L 418.616961 74.438276 
L 418.962604 73.611583 
L 419.308246 73.286085 
L 419.481068 73.301954 
L 419.82671 73.672264 
L 420.172353 74.469125 
L 420.690817 76.398882 
L 421.382102 80.18614 
L 422.246209 86.535777 
L 423.455958 97.604963 
L 425.184172 115.800284 
L 427.949313 147.648019 
L 431.40574 187.023076 
L 433.133953 204.285726 
L 434.343703 214.51824 
L 435.380631 221.677555 
L 436.244737 226.287809 
L 436.936023 228.968774 
L 437.454487 230.336046 
L 437.972951 231.111863 
L 438.318593 231.282743 
L 438.664236 231.164137 
L 439.009879 230.748209 
L 439.528343 229.588131 
L 440.046807 227.82963 
L 440.738092 224.641612 
L 441.602199 219.470013 
L 442.639127 211.833265 
L 444.021697 199.888094 
L 449.379159 151.355432 
L 450.416087 144.457438 
L 451.280194 139.968909 
L 451.971479 137.351822 
L 452.489943 136.026618 
L 453.008407 135.297651 
L 453.35405 135.165012 
L 453.699692 135.330509 
L 454.045335 135.803295 
L 454.563799 137.063066 
L 455.082263 138.932864 
L 455.773548 142.276309 
L 456.637655 147.632231 
L 457.847404 156.853822 
L 459.575618 172.198779 
L 462.51358 198.654712 
L 463.72333 207.673109 
L 464.587436 212.832666 
L 465.278722 215.988284 
L 465.970007 218.133455 
L 466.488471 218.997923 
L 466.834114 219.188076 
L 467.179756 219.049591 
L 467.525399 218.565574 
L 467.871042 217.71913 
L 468.389506 215.732957 
L 468.735149 213.906532 
L 468.735149 213.906532 
" clip-path="url(#p2bd77fa705)" style="fill: none; stroke: #2ca02c; stroke-width: 1.5; stroke-linecap: square"/>
   </g>
   <g id="line2d_33">
    <path d="M 278.821782 52.287345 
L 486 52.287345 
" clip-path="url(#p2bd77fa705)" style="fill: none; stroke-dasharray: 5.55,2.4; stroke-dashoffset: 0; stroke: #808080; stroke-opacity: 0.4; stroke-width: 1.5"/>
   </g>
   <g id="patch_8">
    <path d="M 278.821782 256.32 
L 278.821782 34.56 
" style="fill: none; stroke: #000000; stroke-width: 0.8; stroke-linejoin: miter; stroke-linecap: square"/>
   </g>
   <g id="patch_9">
    <path d="M 486 256.32 
L 486 34.56 
" style="fill: none; stroke: #000000; stroke-width: 0.8; stroke-linejoin: miter; stroke-linecap: square"/>
   </g>
   <g id="patch_10">
    <path d="M 278.821782 256.32 
L 486 256.32 
" style="fill: none; stroke: #000000; stroke-width: 0.8; stroke-linejoin: miter; stroke-linecap: square"/>
   </g>
   <g id="patch_11">
    <path d="M 278.821782 34.56 
L 486 34.56 
" style="fill: none; stroke: #000000; stroke-width: 0.8; stroke-linejoin: miter; stroke-linecap: square"/>
   </g>
   <g id="text_24">
    <!-- $J_0 =0.637$ -->
    <g transform="translate(359.425918 28.56) scale(0.1 -0.1)">
     <defs>
      <path id="CMR17-33" d="M 1414 2176 
C 1984 2176 2234 1673 2234 1094 
C 2234 322 1824 25 1453 25 
C 1114 25 563 193 390 691 
C 422 678 454 678 486 678 
C 640 678 755 780 755 947 
C 755 1132 614 1216 486 1216 
C 378 1216 211 1164 211 927 
C 211 335 787 -128 1466 -128 
C 2176 -128 2720 432 2720 1087 
C 2720 1718 2208 2176 1600 2246 
C 2086 2347 2554 2776 2554 3353 
C 2554 3856 2048 4224 1472 4224 
C 890 4224 378 3862 378 3347 
C 378 3123 544 3084 627 3084 
C 762 3084 877 3167 877 3334 
C 877 3500 762 3584 627 3584 
C 602 3584 570 3584 544 3571 
C 730 3999 1235 4076 1459 4076 
C 1683 4076 2106 3966 2106 3347 
C 2106 3167 2080 2851 1862 2574 
C 1670 2329 1453 2316 1242 2297 
C 1210 2297 1062 2284 1037 2284 
C 992 2278 966 2272 966 2227 
C 966 2182 973 2176 1101 2176 
L 1414 2176 
z
" transform="scale(0.015625)"/>
      <path id="CMR17-37" d="M 2886 3955 
L 2886 4096 
L 1382 4096 
C 634 4096 621 4166 595 4288 
L 480 4288 
L 294 3104 
L 410 3104 
C 429 3226 474 3552 550 3673 
C 589 3724 1062 3724 1171 3724 
L 2579 3724 
L 1869 2670 
C 1395 1961 1069 1003 1069 166 
C 1069 89 1069 -128 1299 -128 
C 1530 -128 1530 89 1530 172 
L 1530 466 
C 1530 1514 1709 2204 2003 2644 
L 2886 3955 
z
" transform="scale(0.015625)"/>
     </defs>
     <use xlink:href="#CMMI12-4a" transform="scale(0.996264)"/>
     <use xlink:href="#CMR17-30" transform="translate(53.917955 -14.943915) scale(0.697382)"/>
     <use xlink:href="#CMR17-3d" transform="translate(114.073278 0) scale(0.996264)"/>
     <use xlink:href="#CMR17-30" transform="translate(213.462075 0) scale(0.996264)"/>
     <use xlink:href="#CMMI12-3a" transform="translate(259.152552 0) scale(0.996264)"/>
     <use xlink:href="#CMR17-36" transform="translate(286.249729 0) scale(0.996264)"/>
     <use xlink:href="#CMR17-33" transform="translate(331.940207 0) scale(0.996264)"/>
     <use xlink:href="#CMR17-37" transform="translate(377.630684 0) scale(0.996264)"/>
    </g>
   </g>
  </g>
 </g>
 <defs>
  <clipPath id="p48a854d7aa">
   <rect x="67.5" y="34.56" width="207.178218" height="221.76"/>
  </clipPath>
  <clipPath id="p2bd77fa705">
   <rect x="278.821782" y="34.56" width="207.178218" height="221.76"/>
  </clipPath>
 </defs>
</svg>
