<?xml version="1.0" encoding="utf-8" standalone="no"?>
<!DOCTYPE svg PUBLIC "-//W3C//DTD SVG 1.1//EN"
  "http://www.w3.org/Graphics/SVG/1.1/DTD/svg11.dtd">
<svg xmlns:xlink="http://www.w3.org/1999/xlink" width="465.238171pt" height="267.93217pt" viewBox="0 0 465.238171 267.93217" xmlns="http://www.w3.org/2000/svg" version="1.1">
 <metadata>
  <rdf:RDF xmlns:dc="http://purl.org/dc/elements/1.1/" xmlns:cc="http://creativecommons.org/ns#" xmlns:rdf="http://www.w3.org/1999/02/22-rdf-syntax-ns#">
   <cc:Work>
    <dc:type rdf:resource="http://purl.org/dc/dcmitype/StillImage"/>
    <dc:date>2024-05-02T07:54:25.852561</dc:date>
    <dc:format>image/svg+xml</dc:format>
    <dc:creator>
     <cc:Agent>
      <dc:title>Matplotlib v3.7.2, https://matplotlib.org/</dc:title>
     </cc:Agent>
    </dc:creator>
   </cc:Work>
  </rdf:RDF>
 </metadata>
 <defs>
  <style type="text/css">*{stroke-linejoin: round; stroke-linecap: butt}</style>
 </defs>
 <g id="figure_1">
  <g id="patch_1">
   <path d="M 0 267.93217 
L 465.238171 267.93217 
L 465.238171 0 
L 0 0 
z
" style="fill: #ffffff"/>
  </g>
  <g id="axes_1">
   <g id="patch_2">
    <path d="M 46.738171 235.23198 
L 252.895807 235.23198 
L 252.895807 13.47198 
L 46.738171 13.47198 
z
" style="fill: #ffffff"/>
   </g>
   <g id="matplotlib.axis_1">
    <g id="xtick_1">
     <g id="line2d_1">
      <defs>
       <path id="m085e6555ea" d="M 0 0 
L 0 -3.5 
" style="stroke: #000000; stroke-width: 0.8"/>
      </defs>
      <g>
       <use xlink:href="#m085e6555ea" x="46.738171" y="235.23198" style="stroke: #000000; stroke-width: 0.8"/>
      </g>
     </g>
     <g id="text_1">
      <!-- $\mathdefault{0}$ -->
      <g transform="translate(42.836178 250.089292) scale(0.16 -0.16)">
       <defs>
        <path id="CMR17-30" d="M 2688 2038 
C 2688 2430 2682 3099 2413 3613 
C 2176 4063 1798 4224 1466 4224 
C 1158 4224 768 4082 525 3620 
C 269 3137 243 2539 243 2038 
C 243 1671 250 1112 448 623 
C 723 -39 1216 -128 1466 -128 
C 1760 -128 2208 -7 2470 604 
C 2662 1048 2688 1568 2688 2038 
z
M 1466 -26 
C 1056 -26 813 328 723 816 
C 653 1196 653 1749 653 2109 
C 653 2604 653 3015 736 3407 
C 858 3954 1216 4121 1466 4121 
C 1728 4121 2067 3947 2189 3420 
C 2272 3054 2278 2623 2278 2109 
C 2278 1691 2278 1176 2202 797 
C 2067 96 1690 -26 1466 -26 
z
" transform="scale(0.015625)"/>
       </defs>
       <use xlink:href="#CMR17-30" transform="scale(0.996264)"/>
      </g>
     </g>
    </g>
    <g id="xtick_2">
     <g id="line2d_2">
      <g>
       <use xlink:href="#m085e6555ea" x="129.201225" y="235.23198" style="stroke: #000000; stroke-width: 0.8"/>
      </g>
     </g>
     <g id="text_2">
      <!-- $\mathdefault{1}$ -->
      <g transform="translate(125.299232 250.089292) scale(0.16 -0.16)">
       <defs>
        <path id="CMR17-31" d="M 1702 4083 
C 1702 4217 1696 4224 1606 4224 
C 1357 3927 979 3833 621 3820 
C 602 3820 570 3820 563 3808 
C 557 3795 557 3782 557 3648 
C 755 3648 1088 3686 1344 3839 
L 1344 467 
C 1344 243 1331 166 781 166 
L 589 166 
L 589 0 
C 896 6 1216 12 1523 12 
C 1830 12 2150 6 2458 0 
L 2458 166 
L 2266 166 
C 1715 166 1702 236 1702 467 
L 1702 4083 
z
" transform="scale(0.015625)"/>
       </defs>
       <use xlink:href="#CMR17-31" transform="scale(0.996264)"/>
      </g>
     </g>
    </g>
    <g id="xtick_3">
     <g id="line2d_3">
      <g>
       <use xlink:href="#m085e6555ea" x="211.66428" y="235.23198" style="stroke: #000000; stroke-width: 0.8"/>
      </g>
     </g>
     <g id="text_3">
      <!-- $\mathdefault{2}$ -->
      <g transform="translate(207.762286 250.089292) scale(0.16 -0.16)">
       <defs>
        <path id="CMR17-32" d="M 2669 990 
L 2554 990 
C 2490 537 2438 460 2413 422 
C 2381 371 1920 371 1830 371 
L 602 371 
C 832 620 1280 1073 1824 1596 
C 2214 1966 2669 2400 2669 3033 
C 2669 3788 2067 4224 1395 4224 
C 691 4224 262 3603 262 3027 
C 262 2777 448 2745 525 2745 
C 589 2745 781 2783 781 3007 
C 781 3206 614 3264 525 3264 
C 486 3264 448 3257 422 3244 
C 544 3788 915 4057 1306 4057 
C 1862 4057 2227 3616 2227 3033 
C 2227 2477 1901 1998 1536 1583 
L 262 147 
L 262 0 
L 2515 0 
L 2669 990 
z
" transform="scale(0.015625)"/>
       </defs>
       <use xlink:href="#CMR17-32" transform="scale(0.996264)"/>
      </g>
     </g>
    </g>
    <g id="text_4">
     <!-- $\Omega/\omega$ -->
     <g transform="translate(137.218998 264.445246) scale(0.14 -0.14)">
      <defs>
       <path id="CMR17-a" d="M 4038 935 
L 3923 935 
C 3866 640 3846 563 3814 461 
C 3782 364 3763 313 3392 313 
L 2874 313 
C 2944 685 3098 961 3366 1390 
C 3699 1935 3974 2377 3974 2909 
C 3974 3775 3155 4480 2138 4480 
C 1094 4480 294 3768 294 2909 
C 294 2377 576 1922 890 1416 
C 1171 961 1325 685 1395 313 
L 877 313 
C 512 313 493 364 461 454 
C 422 557 410 640 346 935 
L 230 935 
L 416 0 
L 1382 0 
C 1517 0 1523 6 1523 102 
C 1523 557 1286 1153 1178 1428 
C 973 1928 781 2416 781 2916 
C 781 3871 1466 4377 2131 4377 
C 2829 4377 3488 3852 3488 2916 
C 3488 2422 3315 1980 3078 1396 
C 2976 1134 2746 550 2746 102 
C 2746 0 2752 0 2886 0 
L 3853 0 
L 4038 935 
z
" transform="scale(0.015625)"/>
       <path id="CMMI12-3d" d="M 2746 4563 
C 2746 4569 2784 4665 2784 4678 
C 2784 4755 2720 4800 2669 4800 
C 2637 4800 2579 4800 2528 4659 
L 384 -1364 
C 384 -1370 346 -1466 346 -1479 
C 346 -1556 410 -1600 461 -1600 
C 499 -1600 557 -1594 602 -1460 
L 2746 4563 
z
" transform="scale(0.015625)"/>
       <path id="CMMI12-21" d="M 3802 2406 
C 3802 2592 3750 2828 3526 2828 
C 3398 2828 3251 2668 3251 2540 
C 3251 2483 3277 2444 3328 2387 
C 3424 2278 3546 2105 3546 1804 
C 3546 1574 3405 1209 3302 1011 
C 3123 659 2829 358 2496 358 
C 2093 358 1939 614 1869 972 
C 1939 1139 2086 1555 2086 1721 
C 2086 1792 2061 1849 1978 1849 
C 1933 1849 1882 1824 1850 1772 
C 1760 1632 1677 1126 1683 992 
C 1562 755 1216 358 806 358 
C 378 358 262 736 262 1100 
C 262 1766 678 2348 794 2508 
C 858 2604 902 2668 902 2681 
C 902 2726 877 2796 819 2796 
C 717 2796 685 2713 634 2636 
C 307 2131 77 1420 77 806 
C 77 409 224 -64 704 -64 
C 1235 -64 1568 390 1702 633 
C 1754 275 1946 -64 2413 -64 
C 2899 -64 3206 364 3437 883 
C 3603 1254 3802 2054 3802 2406 
z
" transform="scale(0.015625)"/>
      </defs>
      <use xlink:href="#CMR17-a" transform="scale(0.996264)"/>
      <use xlink:href="#CMMI12-3d" transform="translate(66.509881 0) scale(0.996264)"/>
      <use xlink:href="#CMMI12-21" transform="translate(115.284799 0) scale(0.996264)"/>
     </g>
    </g>
   </g>
   <g id="matplotlib.axis_2">
    <g id="ytick_1">
     <g id="line2d_4">
      <defs>
       <path id="ma5ca6acd95" d="M 0 0 
L 3.5 0 
" style="stroke: #000000; stroke-width: 0.8"/>
      </defs>
      <g>
       <use xlink:href="#ma5ca6acd95" x="46.738171" y="209.642822" style="stroke: #000000; stroke-width: 0.8"/>
      </g>
     </g>
     <g id="text_5">
      <!-- $\mathdefault{10^{-2}}$ -->
      <g transform="translate(13.372582 215.321478) scale(0.16 -0.16)">
       <defs>
        <path id="CMSY10-0" d="M 4218 1472 
C 4326 1472 4442 1472 4442 1600 
C 4442 1728 4326 1728 4218 1728 
L 755 1728 
C 646 1728 531 1728 531 1600 
C 531 1472 646 1472 755 1472 
L 4218 1472 
z
" transform="scale(0.015625)"/>
       </defs>
       <use xlink:href="#CMR17-31" transform="scale(0.996264)"/>
       <use xlink:href="#CMR17-30" transform="translate(45.690477 0) scale(0.996264)"/>
       <use xlink:href="#CMSY10-0" transform="translate(91.380954 36.153639) scale(0.697382)"/>
       <use xlink:href="#CMR17-32" transform="translate(145.621947 36.153639) scale(0.697382)"/>
      </g>
     </g>
    </g>
    <g id="ytick_2">
     <g id="line2d_5">
      <g>
       <use xlink:href="#ma5ca6acd95" x="46.738171" y="163.962232" style="stroke: #000000; stroke-width: 0.8"/>
      </g>
     </g>
     <g id="text_6">
      <!-- $\mathdefault{10^{-1}}$ -->
      <g transform="translate(13.372582 169.640888) scale(0.16 -0.16)">
       <use xlink:href="#CMR17-31" transform="scale(0.996264)"/>
       <use xlink:href="#CMR17-30" transform="translate(45.690477 0) scale(0.996264)"/>
       <use xlink:href="#CMSY10-0" transform="translate(91.380954 36.153639) scale(0.697382)"/>
       <use xlink:href="#CMR17-31" transform="translate(145.621947 36.153639) scale(0.697382)"/>
      </g>
     </g>
    </g>
    <g id="ytick_3">
     <g id="line2d_6">
      <g>
       <use xlink:href="#ma5ca6acd95" x="46.738171" y="118.281642" style="stroke: #000000; stroke-width: 0.8"/>
      </g>
     </g>
     <g id="text_7">
      <!-- $\mathdefault{10^{0}}$ -->
      <g transform="translate(22.051128 123.960299) scale(0.16 -0.16)">
       <use xlink:href="#CMR17-31" transform="scale(0.996264)"/>
       <use xlink:href="#CMR17-30" transform="translate(45.690477 0) scale(0.996264)"/>
       <use xlink:href="#CMR17-30" transform="translate(91.380954 36.153639) scale(0.697382)"/>
      </g>
     </g>
    </g>
    <g id="ytick_4">
     <g id="line2d_7">
      <g>
       <use xlink:href="#ma5ca6acd95" x="46.738171" y="72.601053" style="stroke: #000000; stroke-width: 0.8"/>
      </g>
     </g>
     <g id="text_8">
      <!-- $\mathdefault{10^{1}}$ -->
      <g transform="translate(22.051128 78.279709) scale(0.16 -0.16)">
       <use xlink:href="#CMR17-31" transform="scale(0.996264)"/>
       <use xlink:href="#CMR17-30" transform="translate(45.690477 0) scale(0.996264)"/>
       <use xlink:href="#CMR17-31" transform="translate(91.380954 36.153639) scale(0.697382)"/>
      </g>
     </g>
    </g>
    <g id="ytick_5">
     <g id="line2d_8">
      <g>
       <use xlink:href="#ma5ca6acd95" x="46.738171" y="26.920463" style="stroke: #000000; stroke-width: 0.8"/>
      </g>
     </g>
     <g id="text_9">
      <!-- $\mathdefault{10^{2}}$ -->
      <g transform="translate(22.051128 32.599119) scale(0.16 -0.16)">
       <use xlink:href="#CMR17-31" transform="scale(0.996264)"/>
       <use xlink:href="#CMR17-30" transform="translate(45.690477 0) scale(0.996264)"/>
       <use xlink:href="#CMR17-32" transform="translate(91.380954 36.153639) scale(0.697382)"/>
      </g>
     </g>
    </g>
    <g id="ytick_6">
     <g id="line2d_9">
      <defs>
       <path id="m9d2fbb8eb0" d="M 0 0 
L 2 0 
" style="stroke: #000000; stroke-width: 0.6"/>
      </defs>
      <g>
       <use xlink:href="#m9d2fbb8eb0" x="46.738171" y="233.528231" style="stroke: #000000; stroke-width: 0.6"/>
      </g>
     </g>
    </g>
    <g id="ytick_7">
     <g id="line2d_10">
      <g>
       <use xlink:href="#m9d2fbb8eb0" x="46.738171" y="227.820956" style="stroke: #000000; stroke-width: 0.6"/>
      </g>
     </g>
    </g>
    <g id="ytick_8">
     <g id="line2d_11">
      <g>
       <use xlink:href="#m9d2fbb8eb0" x="46.738171" y="223.39405" style="stroke: #000000; stroke-width: 0.6"/>
      </g>
     </g>
    </g>
    <g id="ytick_9">
     <g id="line2d_12">
      <g>
       <use xlink:href="#m9d2fbb8eb0" x="46.738171" y="219.777004" style="stroke: #000000; stroke-width: 0.6"/>
      </g>
     </g>
    </g>
    <g id="ytick_10">
     <g id="line2d_13">
      <g>
       <use xlink:href="#m9d2fbb8eb0" x="46.738171" y="216.718835" style="stroke: #000000; stroke-width: 0.6"/>
      </g>
     </g>
    </g>
    <g id="ytick_11">
     <g id="line2d_14">
      <g>
       <use xlink:href="#m9d2fbb8eb0" x="46.738171" y="214.069729" style="stroke: #000000; stroke-width: 0.6"/>
      </g>
     </g>
    </g>
    <g id="ytick_12">
     <g id="line2d_15">
      <g>
       <use xlink:href="#m9d2fbb8eb0" x="46.738171" y="211.733051" style="stroke: #000000; stroke-width: 0.6"/>
      </g>
     </g>
    </g>
    <g id="ytick_13">
     <g id="line2d_16">
      <g>
       <use xlink:href="#m9d2fbb8eb0" x="46.738171" y="195.891594" style="stroke: #000000; stroke-width: 0.6"/>
      </g>
     </g>
    </g>
    <g id="ytick_14">
     <g id="line2d_17">
      <g>
       <use xlink:href="#m9d2fbb8eb0" x="46.738171" y="187.847642" style="stroke: #000000; stroke-width: 0.6"/>
      </g>
     </g>
    </g>
    <g id="ytick_15">
     <g id="line2d_18">
      <g>
       <use xlink:href="#m9d2fbb8eb0" x="46.738171" y="182.140366" style="stroke: #000000; stroke-width: 0.6"/>
      </g>
     </g>
    </g>
    <g id="ytick_16">
     <g id="line2d_19">
      <g>
       <use xlink:href="#m9d2fbb8eb0" x="46.738171" y="177.71346" style="stroke: #000000; stroke-width: 0.6"/>
      </g>
     </g>
    </g>
    <g id="ytick_17">
     <g id="line2d_20">
      <g>
       <use xlink:href="#m9d2fbb8eb0" x="46.738171" y="174.096414" style="stroke: #000000; stroke-width: 0.6"/>
      </g>
     </g>
    </g>
    <g id="ytick_18">
     <g id="line2d_21">
      <g>
       <use xlink:href="#m9d2fbb8eb0" x="46.738171" y="171.038245" style="stroke: #000000; stroke-width: 0.6"/>
      </g>
     </g>
    </g>
    <g id="ytick_19">
     <g id="line2d_22">
      <g>
       <use xlink:href="#m9d2fbb8eb0" x="46.738171" y="168.389139" style="stroke: #000000; stroke-width: 0.6"/>
      </g>
     </g>
    </g>
    <g id="ytick_20">
     <g id="line2d_23">
      <g>
       <use xlink:href="#m9d2fbb8eb0" x="46.738171" y="166.052461" style="stroke: #000000; stroke-width: 0.6"/>
      </g>
     </g>
    </g>
    <g id="ytick_21">
     <g id="line2d_24">
      <g>
       <use xlink:href="#m9d2fbb8eb0" x="46.738171" y="150.211004" style="stroke: #000000; stroke-width: 0.6"/>
      </g>
     </g>
    </g>
    <g id="ytick_22">
     <g id="line2d_25">
      <g>
       <use xlink:href="#m9d2fbb8eb0" x="46.738171" y="142.167052" style="stroke: #000000; stroke-width: 0.6"/>
      </g>
     </g>
    </g>
    <g id="ytick_23">
     <g id="line2d_26">
      <g>
       <use xlink:href="#m9d2fbb8eb0" x="46.738171" y="136.459777" style="stroke: #000000; stroke-width: 0.6"/>
      </g>
     </g>
    </g>
    <g id="ytick_24">
     <g id="line2d_27">
      <g>
       <use xlink:href="#m9d2fbb8eb0" x="46.738171" y="132.03287" style="stroke: #000000; stroke-width: 0.6"/>
      </g>
     </g>
    </g>
    <g id="ytick_25">
     <g id="line2d_28">
      <g>
       <use xlink:href="#m9d2fbb8eb0" x="46.738171" y="128.415824" style="stroke: #000000; stroke-width: 0.6"/>
      </g>
     </g>
    </g>
    <g id="ytick_26">
     <g id="line2d_29">
      <g>
       <use xlink:href="#m9d2fbb8eb0" x="46.738171" y="125.357655" style="stroke: #000000; stroke-width: 0.6"/>
      </g>
     </g>
    </g>
    <g id="ytick_27">
     <g id="line2d_30">
      <g>
       <use xlink:href="#m9d2fbb8eb0" x="46.738171" y="122.708549" style="stroke: #000000; stroke-width: 0.6"/>
      </g>
     </g>
    </g>
    <g id="ytick_28">
     <g id="line2d_31">
      <g>
       <use xlink:href="#m9d2fbb8eb0" x="46.738171" y="120.371871" style="stroke: #000000; stroke-width: 0.6"/>
      </g>
     </g>
    </g>
    <g id="ytick_29">
     <g id="line2d_32">
      <g>
       <use xlink:href="#m9d2fbb8eb0" x="46.738171" y="104.530415" style="stroke: #000000; stroke-width: 0.6"/>
      </g>
     </g>
    </g>
    <g id="ytick_30">
     <g id="line2d_33">
      <g>
       <use xlink:href="#m9d2fbb8eb0" x="46.738171" y="96.486462" style="stroke: #000000; stroke-width: 0.6"/>
      </g>
     </g>
    </g>
    <g id="ytick_31">
     <g id="line2d_34">
      <g>
       <use xlink:href="#m9d2fbb8eb0" x="46.738171" y="90.779187" style="stroke: #000000; stroke-width: 0.6"/>
      </g>
     </g>
    </g>
    <g id="ytick_32">
     <g id="line2d_35">
      <g>
       <use xlink:href="#m9d2fbb8eb0" x="46.738171" y="86.35228" style="stroke: #000000; stroke-width: 0.6"/>
      </g>
     </g>
    </g>
    <g id="ytick_33">
     <g id="line2d_36">
      <g>
       <use xlink:href="#m9d2fbb8eb0" x="46.738171" y="82.735234" style="stroke: #000000; stroke-width: 0.6"/>
      </g>
     </g>
    </g>
    <g id="ytick_34">
     <g id="line2d_37">
      <g>
       <use xlink:href="#m9d2fbb8eb0" x="46.738171" y="79.677065" style="stroke: #000000; stroke-width: 0.6"/>
      </g>
     </g>
    </g>
    <g id="ytick_35">
     <g id="line2d_38">
      <g>
       <use xlink:href="#m9d2fbb8eb0" x="46.738171" y="77.027959" style="stroke: #000000; stroke-width: 0.6"/>
      </g>
     </g>
    </g>
    <g id="ytick_36">
     <g id="line2d_39">
      <g>
       <use xlink:href="#m9d2fbb8eb0" x="46.738171" y="74.691282" style="stroke: #000000; stroke-width: 0.6"/>
      </g>
     </g>
    </g>
    <g id="ytick_37">
     <g id="line2d_40">
      <g>
       <use xlink:href="#m9d2fbb8eb0" x="46.738171" y="58.849825" style="stroke: #000000; stroke-width: 0.6"/>
      </g>
     </g>
    </g>
    <g id="ytick_38">
     <g id="line2d_41">
      <g>
       <use xlink:href="#m9d2fbb8eb0" x="46.738171" y="50.805872" style="stroke: #000000; stroke-width: 0.6"/>
      </g>
     </g>
    </g>
    <g id="ytick_39">
     <g id="line2d_42">
      <g>
       <use xlink:href="#m9d2fbb8eb0" x="46.738171" y="45.098597" style="stroke: #000000; stroke-width: 0.6"/>
      </g>
     </g>
    </g>
    <g id="ytick_40">
     <g id="line2d_43">
      <g>
       <use xlink:href="#m9d2fbb8eb0" x="46.738171" y="40.67169" style="stroke: #000000; stroke-width: 0.6"/>
      </g>
     </g>
    </g>
    <g id="ytick_41">
     <g id="line2d_44">
      <g>
       <use xlink:href="#m9d2fbb8eb0" x="46.738171" y="37.054644" style="stroke: #000000; stroke-width: 0.6"/>
      </g>
     </g>
    </g>
    <g id="ytick_42">
     <g id="line2d_45">
      <g>
       <use xlink:href="#m9d2fbb8eb0" x="46.738171" y="33.996476" style="stroke: #000000; stroke-width: 0.6"/>
      </g>
     </g>
    </g>
    <g id="ytick_43">
     <g id="line2d_46">
      <g>
       <use xlink:href="#m9d2fbb8eb0" x="46.738171" y="31.347369" style="stroke: #000000; stroke-width: 0.6"/>
      </g>
     </g>
    </g>
    <g id="ytick_44">
     <g id="line2d_47">
      <g>
       <use xlink:href="#m9d2fbb8eb0" x="46.738171" y="29.010692" style="stroke: #000000; stroke-width: 0.6"/>
      </g>
     </g>
    </g>
    <g id="text_10">
     <!-- $M^z_{A}$ -->
     <g transform="translate(9.530925 134.720295) rotate(-90) scale(0.14 -0.14)">
      <defs>
       <path id="CMMI12-4d" d="M 5811 3886 
C 5869 4102 5882 4166 6336 4166 
C 6458 4166 6515 4166 6515 4287 
C 6515 4352 6470 4352 6349 4352 
L 5581 4352 
C 5421 4352 5414 4345 5344 4243 
L 3008 567 
L 2528 4211 
C 2509 4352 2502 4352 2336 4352 
L 1542 4352 
C 1421 4352 1363 4352 1363 4230 
C 1363 4166 1421 4166 1517 4166 
C 1907 4166 1907 4115 1907 4045 
C 1907 4032 1907 3994 1882 3898 
L 1062 650 
C 986 344 838 204 410 185 
C 390 185 314 179 314 70 
C 314 0 371 0 397 0 
C 525 0 851 12 979 12 
L 1286 12 
C 1376 12 1485 0 1574 0 
C 1619 0 1690 0 1690 121 
C 1690 179 1626 185 1600 185 
C 1389 191 1184 230 1184 459 
C 1184 523 1184 529 1210 618 
L 2093 4128 
L 2099 4128 
L 2630 172 
C 2650 19 2656 0 2714 0 
C 2784 0 2816 51 2848 108 
L 5421 4159 
L 5427 4159 
L 4499 472 
C 4442 249 4429 185 3981 185 
C 3859 185 3795 185 3795 70 
C 3795 0 3853 0 3891 0 
C 4000 0 4128 12 4237 12 
L 4992 12 
C 5101 12 5235 0 5344 0 
C 5395 0 5466 0 5466 121 
C 5466 185 5408 185 5312 185 
C 4922 185 4922 236 4922 300 
C 4922 306 4922 351 4934 402 
L 5811 3886 
z
" transform="scale(0.015625)"/>
       <path id="CMMI12-7a" d="M 813 486 
C 1088 809 1312 1015 1632 1313 
C 2016 1657 2182 1822 2272 1922 
C 2720 2371 2944 2713 2944 2764 
C 2944 2816 2893 2816 2880 2816 
C 2835 2816 2822 2790 2790 2745 
C 2630 2470 2477 2368 2310 2368 
C 2176 2368 2106 2403 1984 2547 
C 1850 2707 1741 2816 1555 2816 
C 1088 2816 806 2265 806 2127 
C 806 2107 813 2067 870 2067 
C 922 2067 928 2094 947 2140 
C 1056 2387 1363 2415 1485 2415 
C 1619 2415 1747 2387 1882 2342 
C 2125 2239 2227 2239 2291 2239 
C 2336 2239 2362 2239 2394 2246 
C 2182 1988 1837 1670 1549 1399 
L 902 783 
C 512 380 275 32 275 -13 
C 275 -52 307 -64 346 -64 
C 384 -64 390 -58 435 19 
C 538 179 742 384 979 384 
C 1114 384 1178 356 1306 211 
C 1427 70 1536 -64 1741 -64 
C 2368 -64 2726 723 2726 876 
C 2726 902 2720 942 2656 942 
C 2605 942 2598 915 2579 849 
C 2438 460 2061 336 1811 336 
C 1677 336 1549 364 1414 409 
C 1158 512 1088 512 1005 512 
C 941 512 870 512 813 486 
z
" transform="scale(0.015625)"/>
       <path id="CMMI12-41" d="M 1088 720 
C 864 335 646 205 339 185 
C 269 179 218 179 218 64 
C 218 25 250 0 294 0 
C 410 0 698 12 813 12 
C 998 12 1203 0 1382 0 
C 1421 0 1498 0 1498 121 
C 1498 179 1446 185 1408 185 
C 1261 198 1139 250 1139 407 
C 1139 498 1178 570 1261 714 
L 1747 1536 
L 3379 1536 
C 3386 1477 3386 1425 3392 1366 
C 3411 1196 3488 518 3488 394 
C 3488 198 3162 185 3059 185 
C 2989 185 2918 185 2918 70 
C 2918 0 2976 0 3014 0 
C 3123 0 3251 12 3360 12 
L 3725 12 
C 4115 12 4397 0 4403 0 
C 4448 0 4518 0 4518 121 
C 4518 185 4461 185 4365 185 
C 4013 185 4006 244 3987 440 
L 3597 4403 
C 3584 4531 3558 4544 3488 4544 
C 3424 4544 3386 4531 3328 4435 
L 1088 720 
z
M 1856 1721 
L 3142 3831 
L 3360 1721 
L 1856 1721 
z
" transform="scale(0.015625)"/>
      </defs>
      <use xlink:href="#CMMI12-4d" transform="scale(0.996264)"/>
      <use xlink:href="#CMMI12-7a" transform="translate(104.780079 36.153639) scale(0.697382)"/>
      <use xlink:href="#CMMI12-41" transform="translate(94.373425 -27.44057) scale(0.697382)"/>
     </g>
    </g>
   </g>
   <g id="line2d_48">
    <path d="M 46.738171 83.361498 
L 50.861324 147.892261 
L 54.984477 143.037886 
L 59.107629 119.75785 
L 63.230782 139.92227 
L 67.353935 145.436849 
L 71.477087 146.261572 
L 75.60024 132.868737 
L 79.723393 156.820337 
L 83.846546 144.212592 
L 87.969698 23.55198 
L 92.092851 162.449347 
L 96.216004 153.787364 
L 100.339156 136.265882 
L 104.462309 171.871119 
L 108.585462 161.581313 
L 112.708615 149.959514 
L 116.831767 125.844493 
L 120.95492 145.751087 
L 125.078073 151.389983 
L 129.201225 91.107546 
L 133.324378 146.325578 
L 137.447531 155.553945 
L 141.570684 131.596454 
L 145.693836 148.941639 
L 149.816989 154.607653 
L 153.940142 155.876559 
L 158.063294 141.305562 
L 162.186447 178.824 
L 166.3096 166.843593 
L 170.432752 56.199438 
L 174.555905 174.747528 
L 178.679058 173.37669 
L 182.802211 169.073488 
L 186.925363 172.275568 
L 191.048516 168.379134 
L 195.171669 160.775868 
L 199.294821 139.421469 
L 203.417974 162.730134 
L 207.541127 166.125507 
L 211.66428 107.99825 
L 215.787432 159.034462 
L 219.910585 168.519393 
L 224.033738 148.915641 
L 228.15689 166.497039 
L 232.280043 175.075971 
L 236.403196 180.044676 
L 240.526349 182.549977 
L 244.649501 184.919444 
L 248.772654 182.695611 
L 252.895807 98.014989 
L 257.018959 158.636099 
L 261.142112 191.551623 
L 265.265265 195.650779 
L 269.388417 195.490624 
L 273.51157 196.545561 
L 277.634723 195.906168 
L 281.757876 189.490604 
L 285.881028 211.523991 
L 290.004181 207.021983 
L 294.127334 194.886726 
L 298.250486 217.793744 
L 302.373639 214.634913 
L 306.496792 193.63204 
L 310.619945 200.05877 
L 314.743097 202.880303 
L 318.86625 202.864105 
L 322.989403 202.28003 
L 327.112555 200.336617 
L 331.235708 186.651787 
L 335.358861 114.222016 
L 339.482014 163.496793 
L 343.605166 201.803368 
L 347.728319 198.498078 
L 351.851472 198.238885 
L 355.974624 195.291868 
L 360.097777 188.766716 
L 364.22093 173.305643 
L 368.344083 209.251168 
L 372.467235 184.79575 
L 376.590388 139.976656 
L 380.713541 156.000889 
L 384.836693 188.05934 
L 388.959846 180.814274 
L 393.082999 180.981419 
L 397.206151 191.345966 
L 401.329304 195.923739 
L 405.452457 196.662234 
L 409.57561 202.478269 
L 413.698762 203.318786 
L 417.821915 137.546847 
L 421.945068 140.582298 
L 426.06822 193.654365 
L 430.191373 203.499402 
L 434.314526 201.625084 
L 438.437679 205.23467 
L 442.560831 205.311586 
L 446.683984 201.775978 
L 450.807137 207.473988 
L 454.930289 217.888587 
L 459.053442 216.680736 
L 454.930289 217.888587 
L 450.807137 207.473988 
L 446.683984 201.775978 
L 442.560831 205.311586 
L 438.437679 205.23467 
L 434.314526 201.625084 
L 430.191373 203.499402 
L 426.06822 193.654365 
L 421.945068 140.582298 
L 417.821915 137.546847 
L 413.698762 203.318786 
L 409.57561 202.478269 
L 405.452457 196.662234 
L 401.329304 195.923739 
L 397.206151 191.345966 
L 393.082999 180.981419 
L 388.959846 180.814274 
L 384.836693 188.05934 
L 380.713541 156.000889 
L 376.590388 139.976656 
L 372.467235 184.79575 
L 368.344083 209.251168 
L 364.22093 173.305643 
L 360.097777 188.766716 
L 355.974624 195.291868 
L 351.851472 198.238885 
L 347.728319 198.498078 
L 343.605166 201.803368 
L 339.482014 163.496793 
L 335.358861 114.222016 
L 331.235708 186.651787 
L 327.112555 200.336617 
L 322.989403 202.28003 
L 318.86625 202.864105 
L 314.743097 202.880303 
L 310.619945 200.05877 
L 306.496792 193.63204 
L 302.373639 214.634913 
L 298.250486 217.793744 
L 294.127334 194.886726 
L 290.004181 207.021983 
L 285.881028 211.523991 
L 281.757876 189.490604 
L 277.634723 195.906168 
L 273.51157 196.545561 
L 269.388417 195.490624 
L 265.265265 195.650779 
L 261.142112 191.551623 
L 257.018959 158.636099 
L 252.895807 98.014989 
L 248.772654 182.695611 
L 244.649501 184.919444 
L 240.526349 182.549977 
L 236.403196 180.044676 
L 232.280043 175.075971 
L 228.15689 166.497039 
L 224.033738 148.915641 
L 219.910585 168.519393 
L 215.787432 159.034462 
L 211.66428 107.99825 
L 207.541127 166.125507 
L 203.417974 162.730134 
L 199.294821 139.421469 
L 195.171669 160.775868 
L 191.048516 168.379134 
L 186.925363 172.275568 
L 182.802211 169.073488 
L 178.679058 173.37669 
L 174.555905 174.747528 
L 170.432752 56.199438 
L 166.3096 166.843593 
L 162.186447 178.824 
L 158.063294 141.305562 
L 153.940142 155.876559 
L 149.816989 154.607653 
L 145.693836 148.941639 
L 141.570684 131.596454 
L 137.447531 155.553945 
L 133.324378 146.325578 
L 129.201225 91.107546 
L 125.078073 151.389983 
L 120.95492 145.751087 
L 116.831767 125.844493 
L 112.708615 149.959514 
L 108.585462 161.581313 
L 104.462309 171.871119 
L 100.339156 136.265882 
L 96.216004 153.787364 
L 92.092851 162.449347 
L 87.969698 23.55198 
L 83.846546 144.212592 
L 79.723393 156.820337 
L 75.60024 132.868737 
L 71.477087 146.261572 
L 67.353935 145.436849 
L 63.230782 139.92227 
L 59.107629 119.75785 
L 54.984477 143.037886 
L 50.861324 147.892261 
L 50.861324 147.892261 
" clip-path="url(#p0fe08b16ed)" style="fill: none; stroke: #1f77b4; stroke-width: 1.5; stroke-linecap: square"/>
   </g>
   <g id="line2d_49">
    <path d="M 46.738171 73.74578 
L 50.861324 95.908759 
L 54.984477 110.642086 
L 59.107629 112.663848 
L 63.230782 115.77366 
L 67.353935 116.014479 
L 71.477087 114.48691 
L 75.60024 110.796887 
L 79.723393 105.672197 
L 83.846546 91.604388 
L 87.969698 24.267697 
L 92.092851 105.408664 
L 96.216004 123.810048 
L 100.339156 134.328201 
L 104.462309 153.101579 
L 108.585462 194.678059 
L 112.708615 149.264905 
L 116.831767 132.572147 
L 120.95492 125.668106 
L 125.078073 104.886576 
L 129.201225 80.16637 
L 133.324378 101.76033 
L 137.447531 116.507203 
L 141.570684 121.087 
L 145.693836 126.680116 
L 149.816989 129.882921 
L 153.940142 131.42271 
L 158.063294 130.435686 
L 162.186447 128.549537 
L 166.3096 115.899707 
L 170.432752 56.582249 
L 174.555905 125.732457 
L 178.679058 135.349802 
L 182.802211 141.18441 
L 186.925363 144.489306 
L 191.048516 146.107864 
L 195.171669 145.53585 
L 199.294821 141.339655 
L 203.417974 138.721778 
L 207.541127 122.012046 
L 211.66428 98.482986 
L 215.787432 119.617377 
L 219.910585 132.393566 
L 224.033738 136.398733 
L 228.15689 141.093071 
L 232.280043 143.984742 
L 236.403196 145.831995 
L 240.526349 146.749214 
L 244.649501 145.955525 
L 248.772654 140.911364 
L 252.895807 98.633873 
L 257.018959 168.995466 
L 261.142112 158.403683 
L 265.265265 159.32382 
L 277.634723 161.297143 
L 281.757876 161.496801 
L 285.881028 162.914475 
L 290.004181 163.71867 
L 294.127334 167.672846 
L 298.250486 163.550079 
L 302.373639 164.180973 
L 306.496792 164.640859 
L 314.743097 166.315556 
L 322.989403 167.881036 
L 327.112555 168.464045 
L 331.235708 166.203319 
L 335.358861 113.681252 
L 339.482014 186.171754 
L 343.605166 158.870883 
L 347.728319 161.212654 
L 351.851472 162.510732 
L 355.974624 163.194196 
L 360.097777 163.155036 
L 364.22093 161.68192 
L 368.344083 160.479937 
L 372.467235 151.009224 
L 376.590388 131.500752 
L 380.713541 144.143686 
L 384.836693 152.982238 
L 388.959846 157.102959 
L 393.082999 159.390891 
L 397.206151 160.975491 
L 401.329304 161.676477 
L 405.452457 161.689228 
L 409.57561 161.110259 
L 413.698762 158.827331 
L 417.821915 141.10195 
L 421.945068 140.950918 
L 426.06822 169.205552 
L 430.191373 169.137003 
L 434.314526 168.863078 
L 442.560831 168.766094 
L 446.683984 168.611556 
L 450.807137 168.74909 
L 454.930289 169.009248 
L 459.053442 170.628687 
L 454.930289 169.009248 
L 450.807137 168.74909 
L 446.683984 168.611556 
L 438.437679 168.82802 
L 434.314526 168.863078 
L 430.191373 169.137003 
L 426.06822 169.205552 
L 421.945068 140.950918 
L 417.821915 141.10195 
L 413.698762 158.827331 
L 409.57561 161.110259 
L 405.452457 161.689228 
L 401.329304 161.676477 
L 397.206151 160.975491 
L 393.082999 159.390891 
L 388.959846 157.102959 
L 384.836693 152.982238 
L 380.713541 144.143686 
L 376.590388 131.500752 
L 372.467235 151.009224 
L 368.344083 160.479937 
L 364.22093 161.68192 
L 360.097777 163.155036 
L 355.974624 163.194196 
L 351.851472 162.510732 
L 347.728319 161.212654 
L 343.605166 158.870883 
L 339.482014 186.171754 
L 335.358861 113.681252 
L 331.235708 166.203319 
L 327.112555 168.464045 
L 322.989403 167.881036 
L 310.619945 165.519738 
L 306.496792 164.640859 
L 302.373639 164.180973 
L 298.250486 163.550079 
L 294.127334 167.672846 
L 290.004181 163.71867 
L 285.881028 162.914475 
L 281.757876 161.496801 
L 277.634723 161.297143 
L 269.388417 160.013702 
L 265.265265 159.32382 
L 261.142112 158.403683 
L 257.018959 168.995466 
L 252.895807 98.633873 
L 248.772654 140.911364 
L 244.649501 145.955525 
L 240.526349 146.749214 
L 236.403196 145.831995 
L 232.280043 143.984742 
L 228.15689 141.093071 
L 224.033738 136.398733 
L 219.910585 132.393566 
L 215.787432 119.617377 
L 211.66428 98.482986 
L 207.541127 122.012046 
L 203.417974 138.721778 
L 199.294821 141.339655 
L 195.171669 145.53585 
L 191.048516 146.107864 
L 186.925363 144.489306 
L 182.802211 141.18441 
L 178.679058 135.349802 
L 174.555905 125.732457 
L 170.432752 56.582249 
L 166.3096 115.899707 
L 162.186447 128.549537 
L 158.063294 130.435686 
L 153.940142 131.42271 
L 149.816989 129.882921 
L 145.693836 126.680116 
L 141.570684 121.087 
L 137.447531 116.507203 
L 133.324378 101.76033 
L 129.201225 80.16637 
L 125.078073 104.886576 
L 120.95492 125.668106 
L 116.831767 132.572147 
L 112.708615 149.264905 
L 108.585462 194.678059 
L 104.462309 153.101579 
L 100.339156 134.328201 
L 96.216004 123.810048 
L 92.092851 105.408664 
L 87.969698 24.267697 
L 83.846546 91.604388 
L 79.723393 105.672197 
L 75.60024 110.796887 
L 71.477087 114.48691 
L 67.353935 116.014479 
L 63.230782 115.77366 
L 59.107629 112.663848 
L 54.984477 110.642086 
L 50.861324 95.908759 
L 50.861324 95.908759 
" clip-path="url(#p0fe08b16ed)" style="fill: none; stroke: #ff7f0e; stroke-width: 1.5; stroke-linecap: square"/>
   </g>
   <g id="line2d_50">
    <path d="M 46.738171 74.574865 
L 50.861324 96.054615 
L 54.984477 109.584659 
L 59.107629 112.692153 
L 63.230782 114.618558 
L 67.353935 114.25423 
L 71.477087 112.321352 
L 75.60024 108.478539 
L 79.723393 102.598803 
L 83.846546 88.35866 
L 87.969698 24.463909 
L 92.092851 100.296874 
L 96.216004 117.16223 
L 100.339156 128.173809 
L 104.462309 141.68802 
L 108.585462 164.860684 
L 112.708615 161.248054 
L 116.831767 137.956382 
L 120.95492 126.309464 
L 125.078073 105.370146 
L 129.201225 80.57018 
L 133.324378 101.438472 
L 137.447531 115.501839 
L 141.570684 121.216531 
L 145.693836 126.189417 
L 149.816989 129.180544 
L 153.940142 130.590414 
L 158.063294 129.650629 
L 162.186447 126.466473 
L 166.3096 113.283784 
L 170.432752 56.703019 
L 174.555905 121.726401 
L 178.679058 131.524857 
L 182.802211 137.76681 
L 186.925363 141.755308 
L 191.048516 144.3055 
L 195.171669 145.312016 
L 199.294821 143.246989 
L 203.417974 138.989274 
L 207.541127 123.003774 
L 211.66428 99.331803 
L 215.787432 119.422683 
L 219.910585 131.095357 
L 224.033738 135.83969 
L 228.15689 139.744811 
L 232.280043 142.176014 
L 236.403196 143.70612 
L 240.526349 144.32798 
L 244.649501 143.341227 
L 248.772654 138.090356 
L 252.895807 98.738136 
L 257.018959 169.806465 
L 261.142112 155.84379 
L 265.265265 156.681911 
L 273.51157 157.94394 
L 277.634723 158.507207 
L 281.757876 158.879126 
L 285.881028 159.867664 
L 290.004181 160.523223 
L 294.127334 164.393868 
L 298.250486 160.819964 
L 302.373639 161.301667 
L 306.496792 161.956346 
L 318.86625 164.423963 
L 327.112555 166.355556 
L 331.235708 164.684739 
L 335.358861 113.534863 
L 339.482014 172.43961 
L 343.605166 155.308722 
L 347.728319 157.795533 
L 351.851472 159.304994 
L 355.974624 160.232918 
L 360.097777 160.71737 
L 364.22093 160.349672 
L 368.344083 159.261103 
L 372.467235 151.493898 
L 376.590388 132.848271 
L 380.713541 145.246016 
L 384.836693 151.899952 
L 388.959846 155.664232 
L 393.082999 157.51146 
L 397.206151 158.550921 
L 401.329304 158.950648 
L 405.452457 158.800427 
L 409.57561 158.00857 
L 413.698762 155.620197 
L 417.821915 141.849425 
L 421.945068 140.972837 
L 426.06822 166.753227 
L 434.314526 166.011813 
L 446.683984 165.623637 
L 454.930289 165.785281 
L 459.053442 167.124644 
L 454.930289 165.785281 
L 446.683984 165.623637 
L 434.314526 166.011813 
L 426.06822 166.753227 
L 421.945068 140.972837 
L 417.821915 141.849425 
L 413.698762 155.620197 
L 409.57561 158.00857 
L 405.452457 158.800427 
L 401.329304 158.950648 
L 397.206151 158.550921 
L 393.082999 157.51146 
L 388.959846 155.664232 
L 384.836693 151.899952 
L 380.713541 145.246016 
L 376.590388 132.848271 
L 372.467235 151.493898 
L 368.344083 159.261103 
L 364.22093 160.349672 
L 360.097777 160.71737 
L 355.974624 160.232918 
L 351.851472 159.304994 
L 347.728319 157.795533 
L 343.605166 155.308722 
L 339.482014 172.43961 
L 335.358861 113.534863 
L 331.235708 164.684739 
L 327.112555 166.355556 
L 314.743097 163.544733 
L 306.496792 161.956346 
L 302.373639 161.301667 
L 298.250486 160.819964 
L 294.127334 164.393868 
L 290.004181 160.523223 
L 285.881028 159.867664 
L 281.757876 158.879126 
L 277.634723 158.507207 
L 269.388417 157.332908 
L 265.265265 156.681911 
L 261.142112 155.84379 
L 257.018959 169.806465 
L 252.895807 98.738136 
L 248.772654 138.090356 
L 244.649501 143.341227 
L 240.526349 144.32798 
L 236.403196 143.70612 
L 232.280043 142.176014 
L 228.15689 139.744811 
L 224.033738 135.83969 
L 219.910585 131.095357 
L 215.787432 119.422683 
L 211.66428 99.331803 
L 207.541127 123.003774 
L 203.417974 138.989274 
L 199.294821 143.246989 
L 195.171669 145.312016 
L 191.048516 144.3055 
L 186.925363 141.755308 
L 182.802211 137.76681 
L 178.679058 131.524857 
L 174.555905 121.726401 
L 170.432752 56.703019 
L 166.3096 113.283784 
L 162.186447 126.466473 
L 158.063294 129.650629 
L 153.940142 130.590414 
L 149.816989 129.180544 
L 145.693836 126.189417 
L 141.570684 121.216531 
L 137.447531 115.501839 
L 133.324378 101.438472 
L 129.201225 80.57018 
L 125.078073 105.370146 
L 120.95492 126.309464 
L 116.831767 137.956382 
L 112.708615 161.248054 
L 108.585462 164.860684 
L 104.462309 141.68802 
L 100.339156 128.173809 
L 96.216004 117.16223 
L 92.092851 100.296874 
L 87.969698 24.463909 
L 83.846546 88.35866 
L 79.723393 102.598803 
L 75.60024 108.478539 
L 71.477087 112.321352 
L 67.353935 114.25423 
L 63.230782 114.618558 
L 59.107629 112.692153 
L 54.984477 109.584659 
L 50.861324 96.054615 
L 50.861324 96.054615 
" clip-path="url(#p0fe08b16ed)" style="fill: none; stroke: #2ca02c; stroke-width: 1.5; stroke-linecap: square"/>
   </g>
   <g id="line2d_51">
    <path d="M 46.738171 75.930814 
L 50.861324 97.31605 
L 54.984477 109.903302 
L 59.107629 113.188149 
L 63.230782 114.358985 
L 67.353935 113.581751 
L 71.477087 111.347027 
L 75.60024 107.340023 
L 79.723393 101.044259 
L 83.846546 86.69008 
L 87.969698 24.582393 
L 92.092851 97.514853 
L 96.216004 113.596085 
L 100.339156 124.377691 
L 104.462309 135.665962 
L 108.585462 150.810841 
L 112.708615 175.012133 
L 116.831767 144.323489 
L 120.95492 128.686037 
L 125.078073 107.049939 
L 129.201225 81.582757 
L 133.324378 102.281131 
L 137.447531 115.849779 
L 141.570684 122.00357 
L 145.693836 126.616829 
L 149.816989 129.450386 
L 153.940142 130.688295 
L 158.063294 129.598138 
L 162.186447 125.59623 
L 166.3096 111.975455 
L 170.432752 56.77146 
L 174.555905 119.298889 
L 178.679058 129.169963 
L 182.802211 135.568773 
L 186.925363 139.867609 
L 191.048516 142.996529 
L 195.171669 144.983989 
L 199.294821 144.677713 
L 203.417974 140.508307 
L 207.541127 125.129147 
L 211.66428 100.695399 
L 215.787432 120.338056 
L 219.910585 131.16456 
L 224.033738 136.014737 
L 228.15689 139.406464 
L 232.280043 141.534241 
L 236.403196 142.819313 
L 240.526349 143.224509 
L 244.649501 142.05309 
L 248.772654 136.629325 
L 252.895807 98.778739 
L 257.018959 170.141477 
L 261.142112 154.585024 
L 265.265265 155.43574 
L 273.51157 156.638461 
L 281.757876 157.634172 
L 285.881028 158.41108 
L 290.004181 158.992353 
L 294.127334 162.595525 
L 298.250486 159.565104 
L 302.373639 159.967154 
L 310.619945 161.457161 
L 314.743097 162.271494 
L 318.86625 163.214296 
L 327.112555 165.605919 
L 331.235708 164.432276 
L 335.358861 113.420187 
L 339.482014 166.354217 
L 343.605166 153.253881 
L 347.728319 155.85057 
L 351.851472 157.481828 
L 355.974624 158.578419 
L 360.097777 159.313884 
L 364.22093 159.548305 
L 368.344083 158.992292 
L 372.467235 152.969778 
L 376.590388 134.712273 
L 380.713541 147.06368 
L 384.836693 151.9972 
L 388.959846 155.195423 
L 393.082999 156.645714 
L 397.206151 157.370625 
L 401.329304 157.579909 
L 405.452457 157.299361 
L 409.57561 156.371116 
L 413.698762 153.893942 
L 417.821915 142.260571 
L 421.945068 140.987376 
L 426.06822 165.742947 
L 430.191373 165.06982 
L 434.314526 164.652119 
L 442.560831 164.272133 
L 450.807137 164.13178 
L 454.930289 164.207842 
L 459.053442 165.339251 
L 454.930289 164.207842 
L 446.683984 164.159044 
L 438.437679 164.420418 
L 434.314526 164.652119 
L 430.191373 165.06982 
L 426.06822 165.742947 
L 421.945068 140.987376 
L 417.821915 142.260571 
L 413.698762 153.893942 
L 409.57561 156.371116 
L 405.452457 157.299361 
L 401.329304 157.579909 
L 397.206151 157.370625 
L 393.082999 156.645714 
L 388.959846 155.195423 
L 384.836693 151.9972 
L 380.713541 147.06368 
L 376.590388 134.712273 
L 372.467235 152.969778 
L 368.344083 158.992292 
L 364.22093 159.548305 
L 360.097777 159.313884 
L 355.974624 158.578419 
L 351.851472 157.481828 
L 347.728319 155.85057 
L 343.605166 153.253881 
L 339.482014 166.354217 
L 335.358861 113.420187 
L 331.235708 164.432276 
L 327.112555 165.605919 
L 318.86625 163.214296 
L 314.743097 162.271494 
L 306.496792 160.683956 
L 302.373639 159.967154 
L 298.250486 159.565104 
L 294.127334 162.595525 
L 290.004181 158.992353 
L 285.881028 158.41108 
L 281.757876 157.634172 
L 273.51157 156.638461 
L 265.265265 155.43574 
L 261.142112 154.585024 
L 257.018959 170.141477 
L 252.895807 98.778739 
L 248.772654 136.629325 
L 244.649501 142.05309 
L 240.526349 143.224509 
L 236.403196 142.819313 
L 232.280043 141.534241 
L 228.15689 139.406464 
L 224.033738 136.014737 
L 219.910585 131.16456 
L 215.787432 120.338056 
L 211.66428 100.695399 
L 207.541127 125.129147 
L 203.417974 140.508307 
L 199.294821 144.677713 
L 195.171669 144.983989 
L 191.048516 142.996529 
L 186.925363 139.867609 
L 182.802211 135.568773 
L 178.679058 129.169963 
L 174.555905 119.298889 
L 170.432752 56.77146 
L 166.3096 111.975455 
L 162.186447 125.59623 
L 158.063294 129.598138 
L 153.940142 130.688295 
L 149.816989 129.450386 
L 145.693836 126.616829 
L 141.570684 122.00357 
L 137.447531 115.849779 
L 133.324378 102.281131 
L 129.201225 81.582757 
L 125.078073 107.049939 
L 120.95492 128.686037 
L 116.831767 144.323489 
L 112.708615 175.012133 
L 108.585462 150.810841 
L 104.462309 135.665962 
L 100.339156 124.377691 
L 96.216004 113.596085 
L 92.092851 97.514853 
L 87.969698 24.582393 
L 83.846546 86.69008 
L 79.723393 101.044259 
L 75.60024 107.340023 
L 71.477087 111.347027 
L 67.353935 113.581751 
L 63.230782 114.358985 
L 59.107629 113.188149 
L 54.984477 109.903302 
L 50.861324 97.31605 
L 50.861324 97.31605 
" clip-path="url(#p0fe08b16ed)" style="fill: none; stroke: #d62728; stroke-width: 1.5; stroke-linecap: square"/>
   </g>
   <g id="patch_3">
    <path d="M 46.738171 235.23198 
L 46.738171 13.47198 
" style="fill: none; stroke: #000000; stroke-width: 0.8; stroke-linejoin: miter; stroke-linecap: square"/>
   </g>
   <g id="patch_4">
    <path d="M 252.895807 235.23198 
L 252.895807 13.47198 
" style="fill: none; stroke: #000000; stroke-width: 0.8; stroke-linejoin: miter; stroke-linecap: square"/>
   </g>
   <g id="patch_5">
    <path d="M 46.738171 235.23198 
L 252.895807 235.23198 
" style="fill: none; stroke: #000000; stroke-width: 0.8; stroke-linejoin: miter; stroke-linecap: square"/>
   </g>
   <g id="patch_6">
    <path d="M 46.738171 13.47198 
L 252.895807 13.47198 
" style="fill: none; stroke: #000000; stroke-width: 0.8; stroke-linejoin: miter; stroke-linecap: square"/>
   </g>
   <g id="text_11">
    <!-- $(a)$ -->
    <g transform="translate(50.861324 26.920463) scale(0.15 -0.15)">
     <defs>
      <path id="CMR17-28" d="M 1958 -1562 
C 1958 -1556 1958 -1543 1939 -1524 
C 1645 -1223 858 -403 858 1596 
C 858 3595 1632 4408 1946 4729 
C 1946 4735 1958 4748 1958 4767 
C 1958 4787 1939 4800 1914 4800 
C 1843 4800 1299 4325 986 3620 
C 666 2909 576 2218 576 1603 
C 576 1141 621 360 1005 -467 
C 1312 -1133 1837 -1600 1914 -1600 
C 1946 -1600 1958 -1588 1958 -1562 
z
" transform="scale(0.015625)"/>
      <path id="CMMI12-61" d="M 1926 759 
C 1894 651 1894 638 1805 517 
C 1664 338 1382 64 1082 64 
C 819 64 672 300 672 676 
C 672 1028 870 1743 992 2011 
C 1210 2458 1510 2687 1760 2687 
C 2182 2687 2266 2164 2266 2113 
C 2266 2107 2246 2024 2240 2011 
L 1926 759 
z
M 2336 2394 
C 2266 2560 2093 2816 1760 2816 
C 1037 2816 256 1883 256 938 
C 256 306 627 -64 1062 -64 
C 1414 -64 1715 210 1894 421 
C 1958 44 2259 -64 2451 -64 
C 2643 -64 2797 51 2912 280 
C 3014 496 3104 885 3104 910 
C 3104 942 3078 968 3040 968 
C 2982 968 2976 936 2950 840 
C 2854 465 2733 64 2470 64 
C 2285 64 2272 229 2272 356 
C 2272 503 2291 573 2349 821 
C 2394 980 2426 1120 2477 1305 
C 2714 2260 2771 2489 2771 2528 
C 2771 2617 2701 2688 2605 2688 
C 2400 2688 2349 2464 2336 2388 
L 2336 2394 
z
" transform="scale(0.015625)"/>
      <path id="CMR17-29" d="M 1683 1596 
C 1683 2057 1638 2839 1254 3665 
C 947 4332 422 4800 346 4800 
C 326 4800 301 4793 301 4761 
C 301 4748 307 4742 314 4729 
C 621 4408 1402 3595 1402 1603 
C 1402 -396 627 -1210 314 -1530 
C 307 -1543 301 -1549 301 -1562 
C 301 -1594 326 -1600 346 -1600 
C 416 -1600 960 -1127 1274 -422 
C 1594 289 1683 981 1683 1596 
z
" transform="scale(0.015625)"/>
     </defs>
     <use xlink:href="#CMR17-28" transform="scale(0.996264)"/>
     <use xlink:href="#CMMI12-61" transform="translate(35.280768 0) scale(0.996264)"/>
     <use xlink:href="#CMR17-29" transform="translate(86.488625 0) scale(0.996264)"/>
    </g>
   </g>
   <g id="text_12">
    <!-- $J_0 = 0.072/T$ -->
    <g transform="translate(121.430389 7.47198) scale(0.1 -0.1)">
     <defs>
      <path id="CMMI12-4a" d="M 3418 3911 
C 3469 4102 3482 4166 3795 4166 
C 3898 4166 3962 4166 3962 4281 
C 3962 4352 3904 4352 3878 4352 
C 3770 4352 3648 4339 3533 4339 
L 3181 4339 
C 2912 4339 2630 4352 2362 4352 
C 2304 4352 2227 4352 2227 4236 
C 2227 4172 2278 4172 2278 4166 
L 2438 4166 
C 2950 4166 2950 4115 2950 4019 
C 2950 4013 2950 3968 2925 3866 
L 2189 953 
C 2022 304 1594 0 1286 0 
C 1069 0 762 99 685 428 
C 710 422 742 415 768 415 
C 979 415 1146 601 1146 787 
C 1146 889 1082 1024 890 1024 
C 774 1024 506 959 506 543 
C 506 149 838 -128 1299 -128 
C 1882 -128 2509 304 2662 908 
L 3418 3911 
z
" transform="scale(0.015625)"/>
      <path id="CMR17-3d" d="M 4115 2048 
C 4211 2048 4307 2048 4307 2156 
C 4307 2272 4198 2272 4090 2272 
L 512 2272 
C 403 2272 294 2272 294 2156 
C 294 2048 390 2048 486 2048 
L 4115 2048 
z
M 4090 927 
C 4198 927 4307 927 4307 1043 
C 4307 1152 4211 1152 4115 1152 
L 486 1152 
C 390 1152 294 1152 294 1043 
C 294 927 403 927 512 927 
L 4090 927 
z
" transform="scale(0.015625)"/>
      <path id="CMMI12-3a" d="M 1178 307 
C 1178 492 1024 620 870 620 
C 685 620 557 467 557 313 
C 557 128 710 0 864 0 
C 1050 0 1178 153 1178 307 
z
" transform="scale(0.015625)"/>
      <path id="CMR17-37" d="M 2886 3955 
L 2886 4096 
L 1382 4096 
C 634 4096 621 4166 595 4288 
L 480 4288 
L 294 3104 
L 410 3104 
C 429 3226 474 3552 550 3673 
C 589 3724 1062 3724 1171 3724 
L 2579 3724 
L 1869 2670 
C 1395 1961 1069 1003 1069 166 
C 1069 89 1069 -128 1299 -128 
C 1530 -128 1530 89 1530 172 
L 1530 466 
C 1530 1514 1709 2204 2003 2644 
L 2886 3955 
z
" transform="scale(0.015625)"/>
      <path id="CMMI12-54" d="M 2669 3886 
C 2707 4038 2720 4096 2816 4121 
C 2867 4134 3078 4134 3213 4134 
C 3853 4134 4154 4109 4154 3612 
C 4154 3516 4128 3274 4090 3038 
L 4083 2962 
C 4083 2937 4109 2898 4147 2898 
C 4211 2898 4211 2930 4230 3032 
L 4416 4159 
C 4429 4217 4429 4230 4429 4249 
C 4429 4319 4390 4319 4262 4319 
L 762 4319 
C 614 4319 608 4313 570 4198 
L 179 3051 
C 173 3038 154 2968 154 2962 
C 154 2930 179 2898 218 2898 
C 269 2898 282 2924 307 3007 
C 576 3777 710 4134 1562 4134 
L 1990 4134 
C 2144 4134 2208 4134 2208 4064 
C 2208 4045 2208 4032 2176 3917 
L 1318 497 
C 1254 249 1242 185 563 185 
C 403 185 358 185 358 64 
C 358 0 429 0 461 0 
C 621 0 787 12 947 12 
L 1946 12 
C 2106 12 2278 0 2438 0 
C 2509 0 2573 0 2573 121 
C 2573 185 2528 185 2362 185 
C 1786 185 1786 242 1786 338 
C 1786 344 1786 389 1811 491 
L 2669 3886 
z
" transform="scale(0.015625)"/>
     </defs>
     <use xlink:href="#CMMI12-4a" transform="scale(0.996264)"/>
     <use xlink:href="#CMR17-30" transform="translate(53.917955 -14.943915) scale(0.697382)"/>
     <use xlink:href="#CMR17-3d" transform="translate(114.073278 0) scale(0.996264)"/>
     <use xlink:href="#CMR17-30" transform="translate(213.462075 0) scale(0.996264)"/>
     <use xlink:href="#CMMI12-3a" transform="translate(259.152552 0) scale(0.996264)"/>
     <use xlink:href="#CMR17-30" transform="translate(286.249729 0) scale(0.996264)"/>
     <use xlink:href="#CMR17-37" transform="translate(331.940207 0) scale(0.996264)"/>
     <use xlink:href="#CMR17-32" transform="translate(377.630684 0) scale(0.996264)"/>
     <use xlink:href="#CMMI12-3d" transform="translate(423.321161 0) scale(0.996264)"/>
     <use xlink:href="#CMMI12-54" transform="translate(472.09608 0) scale(0.996264)"/>
    </g>
   </g>
  </g>
  <g id="axes_2">
   <g id="patch_7">
    <path d="M 259.080536 235.23198 
L 465.238171 235.23198 
L 465.238171 13.47198 
L 259.080536 13.47198 
z
" style="fill: #ffffff"/>
   </g>
   <g id="matplotlib.axis_3">
    <g id="xtick_4">
     <g id="line2d_52">
      <g>
       <use xlink:href="#m085e6555ea" x="259.080536" y="235.23198" style="stroke: #000000; stroke-width: 0.8"/>
      </g>
     </g>
     <g id="text_13">
      <!-- $\mathdefault{0}$ -->
      <g transform="translate(255.178542 250.089292) scale(0.16 -0.16)">
       <use xlink:href="#CMR17-30" transform="scale(0.996264)"/>
      </g>
     </g>
    </g>
    <g id="xtick_5">
     <g id="line2d_53">
      <g>
       <use xlink:href="#m085e6555ea" x="341.54359" y="235.23198" style="stroke: #000000; stroke-width: 0.8"/>
      </g>
     </g>
     <g id="text_14">
      <!-- $\mathdefault{1}$ -->
      <g transform="translate(337.641596 250.089292) scale(0.16 -0.16)">
       <use xlink:href="#CMR17-31" transform="scale(0.996264)"/>
      </g>
     </g>
    </g>
    <g id="xtick_6">
     <g id="line2d_54">
      <g>
       <use xlink:href="#m085e6555ea" x="424.006644" y="235.23198" style="stroke: #000000; stroke-width: 0.8"/>
      </g>
     </g>
     <g id="text_15">
      <!-- $\mathdefault{2}$ -->
      <g transform="translate(420.104651 250.089292) scale(0.16 -0.16)">
       <use xlink:href="#CMR17-32" transform="scale(0.996264)"/>
      </g>
     </g>
    </g>
    <g id="text_16">
     <!-- $\Omega/\omega$ -->
     <g transform="translate(349.561363 264.445246) scale(0.14 -0.14)">
      <use xlink:href="#CMR17-a" transform="scale(0.996264)"/>
      <use xlink:href="#CMMI12-3d" transform="translate(66.509881 0) scale(0.996264)"/>
      <use xlink:href="#CMMI12-21" transform="translate(115.284799 0) scale(0.996264)"/>
     </g>
    </g>
   </g>
   <g id="matplotlib.axis_4">
    <g id="ytick_45">
     <g id="line2d_55">
      <g>
       <use xlink:href="#ma5ca6acd95" x="259.080536" y="209.642822" style="stroke: #000000; stroke-width: 0.8"/>
      </g>
     </g>
    </g>
    <g id="ytick_46">
     <g id="line2d_56">
      <g>
       <use xlink:href="#ma5ca6acd95" x="259.080536" y="163.962232" style="stroke: #000000; stroke-width: 0.8"/>
      </g>
     </g>
    </g>
    <g id="ytick_47">
     <g id="line2d_57">
      <g>
       <use xlink:href="#ma5ca6acd95" x="259.080536" y="118.281642" style="stroke: #000000; stroke-width: 0.8"/>
      </g>
     </g>
    </g>
    <g id="ytick_48">
     <g id="line2d_58">
      <g>
       <use xlink:href="#ma5ca6acd95" x="259.080536" y="72.601053" style="stroke: #000000; stroke-width: 0.8"/>
      </g>
     </g>
    </g>
    <g id="ytick_49">
     <g id="line2d_59">
      <g>
       <use xlink:href="#ma5ca6acd95" x="259.080536" y="26.920463" style="stroke: #000000; stroke-width: 0.8"/>
      </g>
     </g>
    </g>
    <g id="ytick_50">
     <g id="line2d_60">
      <g>
       <use xlink:href="#m9d2fbb8eb0" x="259.080536" y="233.528231" style="stroke: #000000; stroke-width: 0.6"/>
      </g>
     </g>
    </g>
    <g id="ytick_51">
     <g id="line2d_61">
      <g>
       <use xlink:href="#m9d2fbb8eb0" x="259.080536" y="227.820956" style="stroke: #000000; stroke-width: 0.6"/>
      </g>
     </g>
    </g>
    <g id="ytick_52">
     <g id="line2d_62">
      <g>
       <use xlink:href="#m9d2fbb8eb0" x="259.080536" y="223.39405" style="stroke: #000000; stroke-width: 0.6"/>
      </g>
     </g>
    </g>
    <g id="ytick_53">
     <g id="line2d_63">
      <g>
       <use xlink:href="#m9d2fbb8eb0" x="259.080536" y="219.777004" style="stroke: #000000; stroke-width: 0.6"/>
      </g>
     </g>
    </g>
    <g id="ytick_54">
     <g id="line2d_64">
      <g>
       <use xlink:href="#m9d2fbb8eb0" x="259.080536" y="216.718835" style="stroke: #000000; stroke-width: 0.6"/>
      </g>
     </g>
    </g>
    <g id="ytick_55">
     <g id="line2d_65">
      <g>
       <use xlink:href="#m9d2fbb8eb0" x="259.080536" y="214.069729" style="stroke: #000000; stroke-width: 0.6"/>
      </g>
     </g>
    </g>
    <g id="ytick_56">
     <g id="line2d_66">
      <g>
       <use xlink:href="#m9d2fbb8eb0" x="259.080536" y="211.733051" style="stroke: #000000; stroke-width: 0.6"/>
      </g>
     </g>
    </g>
    <g id="ytick_57">
     <g id="line2d_67">
      <g>
       <use xlink:href="#m9d2fbb8eb0" x="259.080536" y="195.891594" style="stroke: #000000; stroke-width: 0.6"/>
      </g>
     </g>
    </g>
    <g id="ytick_58">
     <g id="line2d_68">
      <g>
       <use xlink:href="#m9d2fbb8eb0" x="259.080536" y="187.847642" style="stroke: #000000; stroke-width: 0.6"/>
      </g>
     </g>
    </g>
    <g id="ytick_59">
     <g id="line2d_69">
      <g>
       <use xlink:href="#m9d2fbb8eb0" x="259.080536" y="182.140366" style="stroke: #000000; stroke-width: 0.6"/>
      </g>
     </g>
    </g>
    <g id="ytick_60">
     <g id="line2d_70">
      <g>
       <use xlink:href="#m9d2fbb8eb0" x="259.080536" y="177.71346" style="stroke: #000000; stroke-width: 0.6"/>
      </g>
     </g>
    </g>
    <g id="ytick_61">
     <g id="line2d_71">
      <g>
       <use xlink:href="#m9d2fbb8eb0" x="259.080536" y="174.096414" style="stroke: #000000; stroke-width: 0.6"/>
      </g>
     </g>
    </g>
    <g id="ytick_62">
     <g id="line2d_72">
      <g>
       <use xlink:href="#m9d2fbb8eb0" x="259.080536" y="171.038245" style="stroke: #000000; stroke-width: 0.6"/>
      </g>
     </g>
    </g>
    <g id="ytick_63">
     <g id="line2d_73">
      <g>
       <use xlink:href="#m9d2fbb8eb0" x="259.080536" y="168.389139" style="stroke: #000000; stroke-width: 0.6"/>
      </g>
     </g>
    </g>
    <g id="ytick_64">
     <g id="line2d_74">
      <g>
       <use xlink:href="#m9d2fbb8eb0" x="259.080536" y="166.052461" style="stroke: #000000; stroke-width: 0.6"/>
      </g>
     </g>
    </g>
    <g id="ytick_65">
     <g id="line2d_75">
      <g>
       <use xlink:href="#m9d2fbb8eb0" x="259.080536" y="150.211004" style="stroke: #000000; stroke-width: 0.6"/>
      </g>
     </g>
    </g>
    <g id="ytick_66">
     <g id="line2d_76">
      <g>
       <use xlink:href="#m9d2fbb8eb0" x="259.080536" y="142.167052" style="stroke: #000000; stroke-width: 0.6"/>
      </g>
     </g>
    </g>
    <g id="ytick_67">
     <g id="line2d_77">
      <g>
       <use xlink:href="#m9d2fbb8eb0" x="259.080536" y="136.459777" style="stroke: #000000; stroke-width: 0.6"/>
      </g>
     </g>
    </g>
    <g id="ytick_68">
     <g id="line2d_78">
      <g>
       <use xlink:href="#m9d2fbb8eb0" x="259.080536" y="132.03287" style="stroke: #000000; stroke-width: 0.6"/>
      </g>
     </g>
    </g>
    <g id="ytick_69">
     <g id="line2d_79">
      <g>
       <use xlink:href="#m9d2fbb8eb0" x="259.080536" y="128.415824" style="stroke: #000000; stroke-width: 0.6"/>
      </g>
     </g>
    </g>
    <g id="ytick_70">
     <g id="line2d_80">
      <g>
       <use xlink:href="#m9d2fbb8eb0" x="259.080536" y="125.357655" style="stroke: #000000; stroke-width: 0.6"/>
      </g>
     </g>
    </g>
    <g id="ytick_71">
     <g id="line2d_81">
      <g>
       <use xlink:href="#m9d2fbb8eb0" x="259.080536" y="122.708549" style="stroke: #000000; stroke-width: 0.6"/>
      </g>
     </g>
    </g>
    <g id="ytick_72">
     <g id="line2d_82">
      <g>
       <use xlink:href="#m9d2fbb8eb0" x="259.080536" y="120.371871" style="stroke: #000000; stroke-width: 0.6"/>
      </g>
     </g>
    </g>
    <g id="ytick_73">
     <g id="line2d_83">
      <g>
       <use xlink:href="#m9d2fbb8eb0" x="259.080536" y="104.530415" style="stroke: #000000; stroke-width: 0.6"/>
      </g>
     </g>
    </g>
    <g id="ytick_74">
     <g id="line2d_84">
      <g>
       <use xlink:href="#m9d2fbb8eb0" x="259.080536" y="96.486462" style="stroke: #000000; stroke-width: 0.6"/>
      </g>
     </g>
    </g>
    <g id="ytick_75">
     <g id="line2d_85">
      <g>
       <use xlink:href="#m9d2fbb8eb0" x="259.080536" y="90.779187" style="stroke: #000000; stroke-width: 0.6"/>
      </g>
     </g>
    </g>
    <g id="ytick_76">
     <g id="line2d_86">
      <g>
       <use xlink:href="#m9d2fbb8eb0" x="259.080536" y="86.35228" style="stroke: #000000; stroke-width: 0.6"/>
      </g>
     </g>
    </g>
    <g id="ytick_77">
     <g id="line2d_87">
      <g>
       <use xlink:href="#m9d2fbb8eb0" x="259.080536" y="82.735234" style="stroke: #000000; stroke-width: 0.6"/>
      </g>
     </g>
    </g>
    <g id="ytick_78">
     <g id="line2d_88">
      <g>
       <use xlink:href="#m9d2fbb8eb0" x="259.080536" y="79.677065" style="stroke: #000000; stroke-width: 0.6"/>
      </g>
     </g>
    </g>
    <g id="ytick_79">
     <g id="line2d_89">
      <g>
       <use xlink:href="#m9d2fbb8eb0" x="259.080536" y="77.027959" style="stroke: #000000; stroke-width: 0.6"/>
      </g>
     </g>
    </g>
    <g id="ytick_80">
     <g id="line2d_90">
      <g>
       <use xlink:href="#m9d2fbb8eb0" x="259.080536" y="74.691282" style="stroke: #000000; stroke-width: 0.6"/>
      </g>
     </g>
    </g>
    <g id="ytick_81">
     <g id="line2d_91">
      <g>
       <use xlink:href="#m9d2fbb8eb0" x="259.080536" y="58.849825" style="stroke: #000000; stroke-width: 0.6"/>
      </g>
     </g>
    </g>
    <g id="ytick_82">
     <g id="line2d_92">
      <g>
       <use xlink:href="#m9d2fbb8eb0" x="259.080536" y="50.805872" style="stroke: #000000; stroke-width: 0.6"/>
      </g>
     </g>
    </g>
    <g id="ytick_83">
     <g id="line2d_93">
      <g>
       <use xlink:href="#m9d2fbb8eb0" x="259.080536" y="45.098597" style="stroke: #000000; stroke-width: 0.6"/>
      </g>
     </g>
    </g>
    <g id="ytick_84">
     <g id="line2d_94">
      <g>
       <use xlink:href="#m9d2fbb8eb0" x="259.080536" y="40.67169" style="stroke: #000000; stroke-width: 0.6"/>
      </g>
     </g>
    </g>
    <g id="ytick_85">
     <g id="line2d_95">
      <g>
       <use xlink:href="#m9d2fbb8eb0" x="259.080536" y="37.054644" style="stroke: #000000; stroke-width: 0.6"/>
      </g>
     </g>
    </g>
    <g id="ytick_86">
     <g id="line2d_96">
      <g>
       <use xlink:href="#m9d2fbb8eb0" x="259.080536" y="33.996476" style="stroke: #000000; stroke-width: 0.6"/>
      </g>
     </g>
    </g>
    <g id="ytick_87">
     <g id="line2d_97">
      <g>
       <use xlink:href="#m9d2fbb8eb0" x="259.080536" y="31.347369" style="stroke: #000000; stroke-width: 0.6"/>
      </g>
     </g>
    </g>
    <g id="ytick_88">
     <g id="line2d_98">
      <g>
       <use xlink:href="#m9d2fbb8eb0" x="259.080536" y="29.010692" style="stroke: #000000; stroke-width: 0.6"/>
      </g>
     </g>
    </g>
   </g>
   <g id="line2d_99">
    <path d="M 259.080536 79.394141 
L 263.203688 87.752161 
L 267.326841 106.807951 
L 271.449994 100.491966 
L 275.573147 136.818432 
L 279.696299 150.840441 
L 283.819452 123.059972 
L 287.942605 131.889869 
L 292.065757 131.538762 
L 296.18891 125.687026 
L 300.312063 25.40869 
L 304.435216 92.884664 
L 308.558368 125.839054 
L 312.681521 107.516292 
L 316.804674 106.453687 
L 320.927826 132.395986 
L 325.050979 148.901333 
L 329.174132 103.033703 
L 333.297284 114.304395 
L 337.420437 93.202232 
L 341.54359 89.672264 
L 345.666743 96.190051 
L 349.789895 118.284882 
L 353.913048 117.666247 
L 358.036201 113.825312 
L 362.159353 208.554138 
L 366.282506 116.434549 
L 370.405659 138.348748 
L 374.528812 141.366761 
L 378.651964 123.44909 
L 382.775117 58.406128 
L 386.89827 111.56054 
L 391.021422 138.116246 
L 395.144575 132.96742 
L 399.267728 139.840219 
L 403.390881 152.711548 
L 407.514033 132.3657 
L 411.637186 116.619903 
L 415.760339 125.651265 
L 419.883491 110.774017 
L 424.006644 104.793476 
L 428.129797 115.216934 
L 432.25295 131.707242 
L 436.376102 128.806834 
L 440.499255 167.732294 
L 444.622408 184.248334 
L 448.74556 152.510083 
L 452.868713 167.4348 
L 456.991866 167.366934 
L 461.115018 148.752923 
L 465.238171 99.822496 
L 466.238171 113.103891 
M 466.238171 113.103891 
L 465.238171 99.822496 
L 461.115018 148.752923 
L 456.991866 167.366934 
L 452.868713 167.4348 
L 448.74556 152.510083 
L 444.622408 184.248334 
L 440.499255 167.732294 
L 436.376102 128.806834 
L 432.25295 131.707242 
L 428.129797 115.216934 
L 424.006644 104.793476 
L 419.883491 110.774017 
L 415.760339 125.651265 
L 411.637186 116.619903 
L 407.514033 132.3657 
L 403.390881 152.711548 
L 399.267728 139.840219 
L 395.144575 132.96742 
L 391.021422 138.116246 
L 386.89827 111.56054 
L 382.775117 58.406128 
L 378.651964 123.44909 
L 374.528812 141.366761 
L 370.405659 138.348748 
L 366.282506 116.434549 
L 362.159353 208.554138 
L 358.036201 113.825312 
L 353.913048 117.666247 
L 349.789895 118.284882 
L 345.666743 96.190051 
L 341.54359 89.672264 
L 337.420437 93.202232 
L 333.297284 114.304395 
L 329.174132 103.033703 
L 325.050979 148.901333 
L 320.927826 132.395986 
L 316.804674 106.453687 
L 312.681521 107.516292 
L 308.558368 125.839054 
L 304.435216 92.884664 
L 300.312063 25.40869 
L 296.18891 125.687026 
L 292.065757 131.538762 
L 287.942605 131.889869 
L 283.819452 123.059972 
L 279.696299 150.840441 
L 275.573147 136.818432 
L 271.449994 100.491966 
L 267.326841 106.807951 
L 263.203688 87.752161 
L 263.203688 87.752161 
" clip-path="url(#p695245edbc)" style="fill: none; stroke: #1f77b4; stroke-width: 1.5; stroke-linecap: square"/>
   </g>
   <g id="line2d_100">
    <path d="M 259.080536 78.628739 
L 263.203688 113.649803 
L 267.326841 135.455348 
L 271.449994 126.563093 
L 275.573147 144.106695 
L 279.696299 145.435087 
L 283.819452 143.254655 
L 287.942605 137.872451 
L 292.065757 140.486213 
L 296.18891 121.949654 
L 300.312063 23.68335 
L 304.435216 149.287854 
L 308.558368 177.797656 
L 312.681521 160.778134 
L 316.804674 171.459968 
L 320.927826 180.953702 
L 325.050979 168.170593 
L 329.174132 137.552933 
L 333.297284 151.327456 
L 337.420437 124.258441 
L 341.54359 86.510652 
L 345.666743 121.974784 
L 349.789895 140.978964 
L 353.913048 139.171095 
L 358.036201 156.31035 
L 362.159353 156.504566 
L 366.282506 154.674195 
L 370.405659 148.319331 
L 374.528812 157.480661 
L 378.651964 140.424574 
L 382.775117 56.139094 
L 386.89827 155.85055 
L 391.021422 180.417683 
L 395.144575 185.897956 
L 399.267728 184.483568 
L 403.390881 177.529705 
L 407.514033 169.800994 
L 411.637186 148.872465 
L 415.760339 162.124808 
L 419.883491 139.539742 
L 424.006644 103.333755 
L 428.129797 139.540443 
L 432.25295 157.256738 
L 436.376102 154.280841 
L 440.499255 168.886409 
L 444.622408 173.33953 
L 448.74556 176.645334 
L 452.868713 176.807988 
L 456.991866 175.754453 
L 461.115018 166.158607 
L 465.238171 98.607319 
L 466.238171 112.200134 
M 466.238171 112.200134 
L 465.238171 98.607319 
L 461.115018 166.158607 
L 456.991866 175.754453 
L 452.868713 176.807988 
L 448.74556 176.645334 
L 444.622408 173.33953 
L 440.499255 168.886409 
L 436.376102 154.280841 
L 432.25295 157.256738 
L 428.129797 139.540443 
L 424.006644 103.333755 
L 419.883491 139.539742 
L 415.760339 162.124808 
L 411.637186 148.872465 
L 407.514033 169.800994 
L 403.390881 177.529705 
L 399.267728 184.483568 
L 395.144575 185.897956 
L 391.021422 180.417683 
L 386.89827 155.85055 
L 382.775117 56.139094 
L 378.651964 140.424574 
L 374.528812 157.480661 
L 370.405659 148.319331 
L 366.282506 154.674195 
L 362.159353 156.504566 
L 358.036201 156.31035 
L 353.913048 139.171095 
L 349.789895 140.978964 
L 345.666743 121.974784 
L 341.54359 86.510652 
L 337.420437 124.258441 
L 333.297284 151.327456 
L 329.174132 137.552933 
L 325.050979 168.170593 
L 320.927826 180.953702 
L 316.804674 171.459968 
L 312.681521 160.778134 
L 308.558368 177.797656 
L 304.435216 149.287854 
L 300.312063 23.68335 
L 296.18891 121.949654 
L 292.065757 140.486213 
L 287.942605 137.872451 
L 283.819452 143.254655 
L 279.696299 145.435087 
L 275.573147 144.106695 
L 271.449994 126.563093 
L 267.326841 135.455348 
L 263.203688 113.649803 
L 263.203688 113.649803 
" clip-path="url(#p695245edbc)" style="fill: none; stroke: #ff7f0e; stroke-width: 1.5; stroke-linecap: square"/>
   </g>
   <g id="line2d_101">
    <path d="M 259.080536 72.148922 
L 263.203688 98.614749 
L 267.326841 118.496887 
L 271.449994 121.737131 
L 275.573147 128.856344 
L 279.696299 130.667367 
L 283.819452 130.469587 
L 287.942605 126.57347 
L 292.065757 125.097055 
L 296.18891 107.379905 
L 300.312063 23.866909 
L 304.435216 143.754486 
L 308.558368 181.226679 
L 312.681521 167.784354 
L 316.804674 166.204194 
L 320.927826 155.436763 
L 325.050979 146.857722 
L 329.174132 134.65299 
L 333.297284 130.404521 
L 337.420437 107.990739 
L 341.54359 79.878346 
L 345.666743 106.778076 
L 349.789895 125.598782 
L 358.036201 138.713463 
L 362.159353 141.712433 
L 366.282506 143.115359 
L 370.405659 140.049688 
L 374.528812 142.389864 
L 378.651964 127.028469 
L 382.775117 56.288883 
L 386.89827 146.835568 
L 391.021422 160.57333 
L 395.144575 164.598353 
L 403.390881 158.359193 
L 407.514033 154.152188 
L 411.637186 144.805604 
L 415.760339 142.658159 
L 419.883491 123.449174 
L 424.006644 96.900287 
L 428.129797 124.179589 
L 432.25295 141.041771 
L 436.376102 146.896077 
L 440.499255 154.247313 
L 444.622408 158.324349 
L 448.74556 161.165825 
L 452.868713 162.978962 
L 456.991866 161.943364 
L 461.115018 152.87785 
L 465.238171 98.771289 
L 466.238171 111.74123 
M 466.238171 111.74123 
L 465.238171 98.771289 
L 461.115018 152.87785 
L 456.991866 161.943364 
L 452.868713 162.978962 
L 448.74556 161.165825 
L 444.622408 158.324349 
L 440.499255 154.247313 
L 436.376102 146.896077 
L 432.25295 141.041771 
L 428.129797 124.179589 
L 424.006644 96.900287 
L 419.883491 123.449174 
L 415.760339 142.658159 
L 411.637186 144.805604 
L 407.514033 154.152188 
L 403.390881 158.359193 
L 395.144575 164.598353 
L 391.021422 160.57333 
L 386.89827 146.835568 
L 382.775117 56.288883 
L 378.651964 127.028469 
L 374.528812 142.389864 
L 370.405659 140.049688 
L 366.282506 143.115359 
L 362.159353 141.712433 
L 358.036201 138.713463 
L 349.789895 125.598782 
L 345.666743 106.778076 
L 341.54359 79.878346 
L 337.420437 107.990739 
L 333.297284 130.404521 
L 329.174132 134.65299 
L 325.050979 146.857722 
L 320.927826 155.436763 
L 316.804674 166.204194 
L 312.681521 167.784354 
L 308.558368 181.226679 
L 304.435216 143.754486 
L 300.312063 23.866909 
L 296.18891 107.379905 
L 292.065757 125.097055 
L 287.942605 126.57347 
L 283.819452 130.469587 
L 279.696299 130.667367 
L 275.573147 128.856344 
L 271.449994 121.737131 
L 267.326841 118.496887 
L 263.203688 98.614749 
L 263.203688 98.614749 
" clip-path="url(#p695245edbc)" style="fill: none; stroke: #2ca02c; stroke-width: 1.5; stroke-linecap: square"/>
   </g>
   <g id="line2d_102">
    <path d="M 259.080536 69.859548 
L 263.203688 93.725673 
L 267.326841 112.15537 
L 271.449994 117.622579 
L 275.573147 122.458501 
L 279.696299 124.114437 
L 283.819452 123.803546 
L 292.065757 117.535039 
L 296.18891 101.011138 
L 300.312063 24.050202 
L 304.435216 131.73508 
L 308.558368 154.056553 
L 312.681521 161.896451 
L 316.804674 163.752124 
L 320.927826 150.517798 
L 325.050979 141.254264 
L 329.174132 131.134064 
L 333.297284 123.599689 
L 337.420437 102.754662 
L 341.54359 77.259062 
L 345.666743 101.390128 
L 349.789895 119.266556 
L 353.913048 126.907859 
L 358.036201 132.192427 
L 362.159353 135.407885 
L 366.282506 137.099797 
L 370.405659 135.75334 
L 374.528812 135.940966 
L 378.651964 122.164051 
L 382.775117 56.439008 
L 386.89827 146.7815 
L 391.021422 154.116002 
L 395.144575 157.765127 
L 399.267728 155.323113 
L 403.390881 152.617532 
L 407.514033 148.67765 
L 411.637186 141.688779 
L 415.760339 136.463634 
L 419.883491 118.61458 
L 424.006644 94.641164 
L 428.129797 118.941684 
L 432.25295 134.785443 
L 436.376102 141.906076 
L 440.499255 147.804819 
L 444.622408 151.643284 
L 448.74556 154.295083 
L 452.868713 156.041837 
L 456.991866 155.253782 
L 461.115018 147.340312 
L 465.238171 98.931781 
L 466.238171 111.775666 
M 466.238171 111.775666 
L 465.238171 98.931781 
L 461.115018 147.340312 
L 456.991866 155.253782 
L 452.868713 156.041837 
L 448.74556 154.295083 
L 444.622408 151.643284 
L 440.499255 147.804819 
L 436.376102 141.906076 
L 432.25295 134.785443 
L 428.129797 118.941684 
L 424.006644 94.641164 
L 419.883491 118.61458 
L 415.760339 136.463634 
L 411.637186 141.688779 
L 407.514033 148.67765 
L 403.390881 152.617532 
L 399.267728 155.323113 
L 395.144575 157.765127 
L 391.021422 154.116002 
L 386.89827 146.7815 
L 382.775117 56.439008 
L 378.651964 122.164051 
L 374.528812 135.940966 
L 370.405659 135.75334 
L 366.282506 137.099797 
L 362.159353 135.407885 
L 358.036201 132.192427 
L 353.913048 126.907859 
L 349.789895 119.266556 
L 345.666743 101.390128 
L 341.54359 77.259062 
L 337.420437 102.754662 
L 333.297284 123.599689 
L 329.174132 131.134064 
L 325.050979 141.254264 
L 320.927826 150.517798 
L 316.804674 163.752124 
L 312.681521 161.896451 
L 308.558368 154.056553 
L 304.435216 131.73508 
L 300.312063 24.050202 
L 296.18891 101.011138 
L 292.065757 117.535039 
L 283.819452 123.803546 
L 279.696299 124.114437 
L 275.573147 122.458501 
L 271.449994 117.622579 
L 267.326841 112.15537 
L 263.203688 93.725673 
L 263.203688 93.725673 
" clip-path="url(#p695245edbc)" style="fill: none; stroke: #d62728; stroke-width: 1.5; stroke-linecap: square"/>
   </g>
   <g id="patch_8">
    <path d="M 259.080536 235.23198 
L 259.080536 13.47198 
" style="fill: none; stroke: #000000; stroke-width: 0.8; stroke-linejoin: miter; stroke-linecap: square"/>
   </g>
   <g id="patch_9">
    <path d="M 465.238171 235.23198 
L 465.238171 13.47198 
" style="fill: none; stroke: #000000; stroke-width: 0.8; stroke-linejoin: miter; stroke-linecap: square"/>
   </g>
   <g id="patch_10">
    <path d="M 259.080536 235.23198 
L 465.238171 235.23198 
" style="fill: none; stroke: #000000; stroke-width: 0.8; stroke-linejoin: miter; stroke-linecap: square"/>
   </g>
   <g id="patch_11">
    <path d="M 259.080536 13.47198 
L 465.238171 13.47198 
" style="fill: none; stroke: #000000; stroke-width: 0.8; stroke-linejoin: miter; stroke-linecap: square"/>
   </g>
   <g id="text_17">
    <!-- $(b)$ -->
    <g transform="translate(263.203688 26.920463) scale(0.15 -0.15)">
     <defs>
      <path id="CMMI12-62" d="M 1478 4255 
C 1485 4281 1498 4319 1498 4351 
C 1498 4416 1434 4416 1421 4416 
C 1414 4416 1184 4396 1069 4383 
C 960 4377 864 4364 749 4358 
C 595 4345 550 4339 550 4223 
C 550 4159 614 4159 678 4159 
C 1005 4159 1005 4103 1005 4040 
C 1005 3995 954 3812 928 3699 
L 774 3093 
C 710 2841 346 1392 320 1277 
C 288 1117 288 1008 288 925 
C 288 274 653 -64 1069 -64 
C 1811 -64 2579 887 2579 1813 
C 2579 2400 2246 2816 1766 2816 
C 1434 2816 1133 2541 1011 2413 
L 1478 4255 
z
M 1075 64 
C 870 64 646 217 646 715 
C 646 925 666 1047 781 1494 
C 800 1577 902 1985 928 2068 
C 941 2119 1318 2687 1754 2687 
C 2035 2687 2163 2407 2163 2075 
C 2163 1768 1984 1047 1824 715 
C 1664 370 1370 64 1075 64 
z
" transform="scale(0.015625)"/>
     </defs>
     <use xlink:href="#CMR17-28" transform="scale(0.996264)"/>
     <use xlink:href="#CMMI12-62" transform="translate(35.280768 0) scale(0.996264)"/>
     <use xlink:href="#CMR17-29" transform="translate(76.756642 0) scale(0.996264)"/>
    </g>
   </g>
   <g id="text_18">
    <!-- $J_0=0.2/T$ -->
    <g transform="translate(338.754089 7.47198) scale(0.1 -0.1)">
     <use xlink:href="#CMMI12-4a" transform="scale(0.996264)"/>
     <use xlink:href="#CMR17-30" transform="translate(53.917955 -14.943915) scale(0.697382)"/>
     <use xlink:href="#CMR17-3d" transform="translate(114.073278 0) scale(0.996264)"/>
     <use xlink:href="#CMR17-30" transform="translate(213.462075 0) scale(0.996264)"/>
     <use xlink:href="#CMMI12-3a" transform="translate(259.152552 0) scale(0.996264)"/>
     <use xlink:href="#CMR17-32" transform="translate(286.249729 0) scale(0.996264)"/>
     <use xlink:href="#CMMI12-3d" transform="translate(331.940207 0) scale(0.996264)"/>
     <use xlink:href="#CMMI12-54" transform="translate(380.715125 0) scale(0.996264)"/>
    </g>
   </g>
   <g id="legend_1">
    <g id="line2d_103">
     <path d="M 389.146309 27.330132 
L 400.146309 27.330132 
L 411.146309 27.330132 
" style="fill: none; stroke: #1f77b4; stroke-width: 1.5; stroke-linecap: square"/>
    </g>
    <g id="text_19">
     <!-- $\beta=0.0$ -->
     <g transform="translate(419.946309 31.180132) scale(0.11 -0.11)">
      <defs>
       <path id="CMMI12-c" d="M 3622 3739 
C 3622 4131 3296 4544 2714 4544 
C 1888 4544 1363 3510 1197 2830 
L 186 -1152 
C 173 -1204 211 -1216 243 -1216 
C 288 -1216 320 -1210 326 -1178 
L 774 592 
C 838 231 1190 -64 1568 -64 
C 2483 -64 3347 657 3347 1618 
C 3347 1863 3290 2108 3155 2314 
C 3078 2437 2982 2527 2880 2599 
C 3341 2823 3622 3222 3622 3739 
z
M 2509 2605 
C 2406 2571 2304 2560 2182 2560 
C 2093 2560 2010 2553 1894 2588 
C 1958 2627 2054 2639 2189 2639 
C 2304 2639 2419 2627 2509 2605 
z
M 3290 3798 
C 3290 3438 3117 2915 2701 2684 
C 2579 2723 2413 2752 2272 2752 
C 2138 2752 1754 2765 1754 2582 
C 1754 2411 2106 2430 2214 2430 
C 2381 2430 2528 2469 2682 2514 
C 2886 2347 2976 2127 2976 1805 
C 2976 1431 2874 1128 2752 850 
C 2541 373 2042 64 1600 64 
C 1133 64 890 438 890 876 
C 890 934 890 1018 915 1115 
L 1331 2784 
C 1542 3641 2080 4413 2701 4413 
C 3162 4413 3290 4086 3290 3798 
z
" transform="scale(0.015625)"/>
      </defs>
      <use xlink:href="#CMMI12-c" transform="scale(0.996264)"/>
      <use xlink:href="#CMR17-3d" transform="translate(88.268024 0) scale(0.996264)"/>
      <use xlink:href="#CMR17-30" transform="translate(187.656822 0) scale(0.996264)"/>
      <use xlink:href="#CMMI12-3a" transform="translate(233.347299 0) scale(0.996264)"/>
      <use xlink:href="#CMR17-30" transform="translate(260.444476 0) scale(0.996264)"/>
     </g>
    </g>
    <g id="line2d_104">
     <path d="M 389.146309 42.972458 
L 400.146309 42.972458 
L 411.146309 42.972458 
" style="fill: none; stroke: #ff7f0e; stroke-width: 1.5; stroke-linecap: square"/>
    </g>
    <g id="text_20">
     <!-- $\beta=1.5$ -->
     <g transform="translate(419.946309 46.822458) scale(0.11 -0.11)">
      <defs>
       <path id="CMR17-35" d="M 730 3750 
C 794 3724 1056 3641 1325 3641 
C 1920 3641 2246 3961 2432 4140 
C 2432 4191 2432 4224 2394 4224 
C 2387 4224 2374 4224 2323 4198 
C 2099 4102 1837 4032 1517 4032 
C 1325 4032 1037 4055 723 4191 
C 653 4224 640 4224 634 4224 
C 602 4224 595 4217 595 4090 
L 595 2231 
C 595 2113 595 2080 659 2080 
C 691 2080 704 2093 736 2139 
C 941 2435 1222 2560 1542 2560 
C 1766 2560 2246 2415 2246 1293 
C 2246 1087 2246 716 2054 422 
C 1894 159 1645 25 1370 25 
C 947 25 518 319 403 812 
C 429 806 480 793 506 793 
C 589 793 749 838 749 1036 
C 749 1209 627 1280 506 1280 
C 358 1280 262 1190 262 1011 
C 262 454 704 -128 1382 -128 
C 2042 -128 2669 441 2669 1267 
C 2669 2054 2170 2662 1549 2662 
C 1222 2662 947 2540 730 2304 
L 730 3750 
z
" transform="scale(0.015625)"/>
      </defs>
      <use xlink:href="#CMMI12-c" transform="scale(0.996264)"/>
      <use xlink:href="#CMR17-3d" transform="translate(88.268024 0) scale(0.996264)"/>
      <use xlink:href="#CMR17-31" transform="translate(187.656822 0) scale(0.996264)"/>
      <use xlink:href="#CMMI12-3a" transform="translate(233.347299 0) scale(0.996264)"/>
      <use xlink:href="#CMR17-35" transform="translate(260.444476 0) scale(0.996264)"/>
     </g>
    </g>
    <g id="line2d_105">
     <path d="M 389.146309 58.614783 
L 400.146309 58.614783 
L 411.146309 58.614783 
" style="fill: none; stroke: #2ca02c; stroke-width: 1.5; stroke-linecap: square"/>
    </g>
    <g id="text_21">
     <!-- $\beta=2.5$ -->
     <g transform="translate(419.946309 62.464783) scale(0.11 -0.11)">
      <use xlink:href="#CMMI12-c" transform="scale(0.996264)"/>
      <use xlink:href="#CMR17-3d" transform="translate(88.268024 0) scale(0.996264)"/>
      <use xlink:href="#CMR17-32" transform="translate(187.656822 0) scale(0.996264)"/>
      <use xlink:href="#CMMI12-3a" transform="translate(233.347299 0) scale(0.996264)"/>
      <use xlink:href="#CMR17-35" transform="translate(260.444476 0) scale(0.996264)"/>
     </g>
    </g>
    <g id="line2d_106">
     <path d="M 389.146309 74.257108 
L 400.146309 74.257108 
L 411.146309 74.257108 
" style="fill: none; stroke: #d62728; stroke-width: 1.5; stroke-linecap: square"/>
    </g>
    <g id="text_22">
     <!-- $\beta=\infty$ -->
     <g transform="translate(419.946309 78.107108) scale(0.11 -0.11)">
      <defs>
       <path id="CMSY10-31" d="M 3251 1736 
C 2906 2170 2829 2266 2630 2426 
C 2272 2713 1914 2828 1587 2828 
C 838 2828 352 2126 352 1379 
C 352 645 826 -64 1562 -64 
C 2298 -64 2829 517 3142 1028 
C 3488 594 3565 498 3763 338 
C 4122 51 4480 -64 4806 -64 
C 5555 -64 6042 638 6042 1385 
C 6042 2119 5568 2828 4832 2828 
C 4096 2828 3565 2247 3251 1736 
z
M 3418 1519 
C 3680 1979 4154 2624 4877 2624 
C 5555 2624 5901 1960 5901 1385 
C 5901 760 5472 242 4909 242 
C 4538 242 4250 511 4115 645 
C 3955 817 3808 1015 3418 1519 
z
M 2976 1245 
C 2714 785 2240 140 1517 140 
C 838 140 493 804 493 1379 
C 493 2004 922 2521 1485 2521 
C 1856 2521 2144 2253 2278 2119 
C 2438 1947 2586 1749 2976 1245 
z
" transform="scale(0.015625)"/>
      </defs>
      <use xlink:href="#CMMI12-c" transform="scale(0.996264)"/>
      <use xlink:href="#CMR17-3d" transform="translate(88.268024 0) scale(0.996264)"/>
      <use xlink:href="#CMSY10-31" transform="translate(187.656822 0) scale(0.996264)"/>
     </g>
    </g>
   </g>
  </g>
 </g>
 <defs>
  <clipPath id="p0fe08b16ed">
   <rect x="46.738171" y="13.47198" width="206.157635" height="221.76"/>
  </clipPath>
  <clipPath id="p695245edbc">
   <rect x="259.080536" y="13.47198" width="206.157635" height="221.76"/>
  </clipPath>
 </defs>
</svg>
